<?xml version="1.0" standalone="no"?>
<!DOCTYPE svg PUBLIC "-//W3C//DTD SVG 1.1//EN" "http://www.w3.org/Graphics/SVG/1.1/DTD/svg11.dtd" >
<svg xmlns="http://www.w3.org/2000/svg" xmlns:xlink="http://www.w3.org/1999/xlink" version="1.1">
<metadata>
Created by FontForge 20161003 at Mon Jun 26 14:24:10 2017
 By Carlos Javier Garde
</metadata>
<defs>
<font id="icons-a3a63cde44b10ecae5a5d747999b43cd" horiz-adv-x="412" >
  <font-face 
    font-family="icons-a3a63cde44b10ecae5a5d747999b43cd"
    font-weight="400"
    font-stretch="normal"
    units-per-em="512"
    panose-1="2 0 5 3 0 0 0 0 0 0"
    ascent="448"
    descent="-64"
    bbox="-0.578947 -72 513 622.629"
    underline-thickness="25"
    underline-position="-76"
    unicode-range="U+F101-F1FA"
  />
<missing-glyph horiz-adv-x="187" 
d="M17 0v341h136v-341h-136zM34 17h102v307h-102v-307z" />
    <glyph glyph-name=".notdef" horiz-adv-x="187" 
d="M17 0v341h136v-341h-136zM34 17h102v307h-102v-307z" />
    <glyph glyph-name=".null" horiz-adv-x="0" 
 />
    <glyph glyph-name="nonmarkingreturn" horiz-adv-x="170" 
 />
    <glyph glyph-name="uniF101" unicode="&#xf101;" horiz-adv-x="414" 
d="M355 325l59 -168q-47 0 -96.5 -12t-86.5 -29t-67 -34.5t-46 -29.5l-16 -12l-13 35q21 15 46 29.5t63 32t84 28t90 10.5h16l-53 151zM318 352l58 -168q-47 0 -96.5 -12t-86.5 -29t-67 -34.5t-46 -29.5l-15 -12l-65 170q52 37 104 62.5t89 35.5t66.5 14.5t43.5 3.5z
M209 172q23 10 31.5 36t-3.5 52.5t-36.5 38.5t-47.5 2t-31.5 -36.5t3.5 -52.5q8 -18 22 -29.5t30 -14.5t32 4zM194 264q-15 -1 -22.5 -6.5t-6.5 -17.5l32 11l2 -9l-31 -10l2 -6l30 10l2 -8l-27 -10q7 -9 18 -9.5t20 7.5l9 -12q-16 -14 -36.5 -11.5t-31.5 18.5l-12 -4l-1 9
l8 3l-2 6l-8 -3l-2 9l7 2q-2 13 2.5 22.5t16 16t28.5 6.5z" />
    <glyph glyph-name="uniF102" unicode="&#xf102;" 
d="M412 41h-412v237h177l-20 -20h-137v-197h373v197h-74l15 20h78v-237zM305 315q11 -15 -8 -45.5t-56 -65.5zM256 219l-15 -15l-14 15l14 15zM330 333l-26 -22l-14 17l26 22zM81 140l20 -23q-32 -21 -36 -14q-5 7 16 37zM300 325q16 -19 -54.5 -88.5t-135.5 -114.5l-23 27
q41 54 107 114l29 -34l7 7l-29 34q83 74 99 55zM231 157h127h-127zM182 111h176h-176zM179 97v28h178v-28h-178zM220 139v28h137v-28h-137z" />
    <glyph glyph-name="uniF103" unicode="&#xf103;" horiz-adv-x="414" 
d="M199 190q20 8 28 29t-1.5 42t-30.5 30t-41 0.5t-27.5 -29.5t1.5 -42q7 -14 18.5 -23t25.5 -11t27 4zM306 351q1 0 15 -39t27 -78.5l13 -39.5q-46 -1 -93.5 -12.5t-83.5 -27.5t-65 -31.5t-44 -26.5l-15 -11l-60 161q129 100 306 105zM360 308q1 0 14.5 -39.5t26.5 -78.5
l13 -39q-33 -1 -68.5 -7.5t-66 -16.5t-59.5 -21.5t-51 -23t-39 -21t-26 -14.5l-9 -6l-10 26q37 36 140.5 72.5t159.5 31.5l-0.5 3t-2.5 9t-4.5 13t-6 16.5l-7 19t-7 20t-7 20l-7 19t-6.5 16.5q15 1 23 1zM187 203l-3 9q-9 -3 -17 -2l-2 11q9 -1 17 2q9 3 7 9q-2 5 -13 4
q-19 -1 -23 10q-5 13 9 22l-3 9l9 3l3 -8q8 3 15 2l1 -11q-8 1 -15 -2t-5 -8q1 -4 14 -3q17 0 21 -12q6 -14 -9 -22l3 -9z" />
    <glyph glyph-name="uniF104" unicode="&#xf104;" 
d="M0 67q0 7 5 12t12 5h378q7 0 12 -5t5 -12v-26q0 -7 -5 -12t-12 -5h-378q-7 0 -12 5t-5 12v26zM17 255q0 8 5 13t12 5h344q7 0 12 -5t5 -13v-25q0 -8 -5 -12.5t-12 -4.5h-344q-7 0 -12 4.5t-5 12.5v25zM69 161q0 7 5 12t12 5h240q7 0 12 -5t5 -12v-26q0 -7 -5 -12t-12 -5
h-240q-7 0 -12 5t-5 12v26zM309 367q7 0 12 -5t5 -12v-26q0 -7 -5 -12t-12 -5h-206q-7 0 -12 5t-5 12v26q0 7 5 12t12 5h206z" />
    <glyph glyph-name="uniF105" unicode="&#xf105;" 
d="M395 368q7 0 12 -5t5 -12v-27q0 -7 -5 -11.5t-12 -4.5h-378q-7 0 -12 5t-5 11v27q0 6 5 11.5t12 5.5h378zM0 256q0 7 5 12t12 5h378q7 0 12 -5t5 -12v-26q0 -7 -5 -12t-12 -5h-378q-7 0 -12 5t-5 12v26zM0 161q0 8 5 13t12 5h378q7 0 12 -5t5 -13v-25q0 -7 -5 -12t-12 -5
h-378q-7 0 -12 5t-5 12v25zM0 67q0 7 5 12t12 5h378q7 0 12 -5t5 -12v-25q0 -8 -5 -13t-12 -5h-378q-7 0 -12 5t-5 13v25z" />
    <glyph glyph-name="uniF106" unicode="&#xf106;" 
d="M223 368q7 0 12 -5t5 -12v-26q0 -7 -5 -12t-12 -5h-206q-7 0 -12 5t-5 12v26q0 7 5 12t12 5h206zM0 256q0 7 5 12t12 5h344q7 0 12 -5t5 -12v-26q0 -7 -5 -11.5t-12 -4.5h-344q-7 0 -12 4.5t-5 11.5v26zM0 162q0 7 5 12t12 5h241q7 0 12 -5t5 -12v-26q0 -7 -5 -12t-12 -5
h-241q-7 0 -12 5t-5 12v26zM0 68q0 6 5 11t12 5h378q7 0 12 -5t5 -11v-26q0 -8 -5 -13t-12 -5h-378q-7 0 -12 5t-5 13v26z" />
    <glyph glyph-name="uniF107" unicode="&#xf107;" 
d="M0 68q0 7 5 12t12 5h378q7 0 12 -5t5 -12v-26q0 -7 -5 -12t-12 -5h-378q-7 0 -12 5t-5 12v26zM34 257q0 7 5.5 12t12.5 5h343q7 0 12 -5t5 -12v-26q0 -7 -5 -12t-12 -5h-343q-8 0 -13 5t-5 12v26zM137 162q0 8 5 13t13 5h240q7 0 12 -5t5 -13v-25q0 -8 -5 -13t-12 -5
h-240q-8 0 -13 5t-5 13v25zM395 368q7 0 12 -5t5 -12v-26q0 -7 -5 -12t-12 -5h-206q-7 0 -12 5t-5 12v26q0 7 5 12t12 5h206z" />
    <glyph glyph-name="uniF108" unicode="&#xf108;" 
d="M224 -3q-8 -7 -18.5 -7t-17.5 7l-180 180q-8 8 -8 18.5t8 17.5l27 27q7 8 17.5 8t18.5 -8l90 -90v226q0 10 7.5 17.5t17.5 7.5h39q11 0 18 -7.5t7 -17.5v-226l91 90q8 8 18 8t18 -8l27 -27q8 -7 8 -17.5t-8 -18.5z" />
    <glyph glyph-name="uniF109" unicode="&#xf109;" horiz-adv-x="411" 
d="M8 177q-8 8 -8 18.5t8 17.5l180 181q7 8 17.5 8t18.5 -8l27 -27q8 -8 8 -18t-8 -18l-91 -91h226q11 0 18 -7.5t7 -17.5v-39q0 -10 -7 -17.5t-18 -7.5h-226l91 -91q8 -7 8 -17.5t-8 -18.5l-27 -27q-8 -7 -18.5 -7t-17.5 7z" />
    <glyph glyph-name="uniF10A" unicode="&#xf10a;" horiz-adv-x="411" 
d="M404 215q7 -8 7 -18t-7 -18l-180 -180q-8 -8 -18.5 -8t-17.5 8l-27 26q-8 8 -8 18.5t8 17.5l90 91h-226q-10 0 -17.5 7.5t-7.5 18.5v38q0 11 7.5 18t17.5 7h226l-90 91q-8 8 -8 18t8 18l27 27q7 8 17.5 8t18.5 -8z" />
    <glyph glyph-name="uniF10B" unicode="&#xf10b;" horiz-adv-x="411" 
d="M411 361l-206 -329l-205 329h411z" />
    <glyph glyph-name="uniF10C" unicode="&#xf10c;" horiz-adv-x="330" 
d="M330 -10l-330 206l330 206v-412z" />
    <glyph glyph-name="uniF10D" unicode="&#xf10d;" horiz-adv-x="330" 
d="M0 402l330 -207l-330 -205v412z" />
    <glyph glyph-name="uniF10E" unicode="&#xf10e;" 
d="M0 31l206 330l206 -330h-412z" />
    <glyph glyph-name="uniF10F" unicode="&#xf10f;" 
d="M188 394q8 8 18.5 8t17.5 -8l180 -180q8 -8 8 -18t-8 -18l-27 -27q-7 -8 -17.5 -8t-17.5 8l-91 91v-227q0 -10 -7.5 -17.5t-18.5 -7.5h-38q-11 0 -18 7.5t-7 17.5v227l-91 -91q-8 -8 -18 -8t-18 8l-27 27q-4 4 -6 8.5t-2 9.5q0 11 8 18z" />
    <glyph glyph-name="uniF110" unicode="&#xf110;" horiz-adv-x="416" 
d="M207 33q-6 -6 -14.5 -6.5t-14.5 5.5t-6 14.5t6 14.5l168 168l-69 -1q-6 0 -10.5 2.5t-7 7t-2.5 10.5q0 8 6 14t14 7l118 1q4 0 8 -1h1q3 -2 5.5 -4.5t4.5 -6.5t2 -8l-2 -118q0 -6 -3 -10.5t-7.5 -7.5t-10.5 -3q-8 0 -14 6t-6 14l1 69zM209 358q6 6 14.5 6t14.5 -6
t5.5 -14.5t-6.5 -14.5l-167 -167l69 1q8 0 14 -6t6 -14.5t-6 -14.5t-15 -6l-118 -2q-4 0 -8 2t-6.5 4.5t-3.5 6.5h-1q-1 4 -1 8l2 118q0 8 6 14t14.5 6.5t14.5 -5.5t5 -15v-68z" />
    <glyph glyph-name="uniF111" unicode="&#xf111;" horiz-adv-x="512" 
d="M256 43q-5 0 -8 3l-245 278q-7 8 1 15t15 -1l237 -269l237 269q7 8 15 1t1 -15l-245 -278q-3 -3 -8 -3z" />
    <glyph glyph-name="uniF112" unicode="&#xf112;" horiz-adv-x="279" 
d="M271 448l8 -8l-249 -248l249 -248l-8 -8l-7 -8l-256 256l-8 8l8 8l256 256z" />
    <glyph glyph-name="uniF113" unicode="&#xf113;" horiz-adv-x="299" 
d="M11 -64q-5 0 -8 4q-7 8 1 15l268 237l-268 237q-8 7 -1 15t15 1l277 -245q4 -3 4 -8t-4 -8l-277 -245q-3 -3 -7 -3z" />
    <glyph glyph-name="uniF114" unicode="&#xf114;" horiz-adv-x="512" 
d="M501 43q-4 0 -8 3l-237 269l-237 -269q-7 -8 -15 -1t-1 15l245 278q3 3 8 3t8 -3l245 -278q7 -8 -1 -15q-3 -2 -7 -2z" />
    <glyph glyph-name="uniF115" unicode="&#xf115;" 
d="M246 154q10 -14 24 -14h44v35l1 7q4 5 18 -4l73 -62l2.5 -2.5t3 -6t-4.5 -7.5l-75 -61l-12 -11q-6 -3 -6 6v41h-64q-20 9 -28 23l-27 25l41 51zM112 240q-8 7 -19 7h-68q-24 2 -24 19l-1 29q0 2 0.5 5t5 8t12.5 5h94q12 -9 24 -19l27 -30l-27 -43zM405 271l-75 -67
q-6 -4 -10 -3.5t-5 3.5l-2 3v41h-43q-6 0 -12 -5t-8 -10l-3 -5q-86 -121 -99 -133q-6 -5 -12.5 -10t-10.5 -7l-3 -2h-99q-10 0 -16 4.5t-6 9.5v5v26q0 5 2.5 9t6 6t7 3t5.5 1l3 1h63q4 0 10.5 4.5t10.5 9.5l5 5l98 126q5 8 13.5 15t15.5 9l6 3h67v47q0 4 3 4.5t5 -1.5l3 -2
l83 -74q5 -3 4.5 -6.5t-4.5 -6.5z" />
    <glyph glyph-name="uniF116" unicode="&#xf116;" horiz-adv-x="396" 
d="M220 216v117l44 44v-73l88 88l44 -44l-88 -88h73l-44 -44h-117zM220 40v118h117l44 -44h-73l73 -74l-44 -44l-73 74v-74zM44 216l-44 44h73l-73 73l44 44l73 -73v73l44 -44v-117h-117zM44 158h117v-118l-44 -44v74l-73 -74l-44 44l73 74h-73z" />
    <glyph glyph-name="uniF117" unicode="&#xf117;" horiz-adv-x="413" 
d="M167 325h115v75l131 -134l-131 -134v74h-115v119zM245 64h-114v-76l-131 135l131 133v-74h114v-118z" />
    <glyph glyph-name="uniF118" unicode="&#xf118;" 
d="M19 43v24h374v-24h-374zM0 10v24h412v-24h-412zM309 76v175h50v-175h-50zM224 79v174h50v-174h-50zM138 76v175h51v-175h-51zM53 75v175h50v-175h-50zM205 383l194 -93h-387zM14 280h386l-12 -18h-363z" />
    <glyph glyph-name="uniF119" unicode="&#xf119;" horiz-adv-x="413" 
d="M144 239h-38v-112q9 -9 9 -23h19q0 13 10 23v112zM206 347q-13 0 -22 -9.5t-9 -23.5q0 -9 4 -16.5t11.5 -12t15.5 -4.5q7 0 12.5 2.5t10 7t7 10.5t2.5 13q0 14 -9.5 23.5t-22.5 9.5zM307 127v113h-38v-113q9 -9 9 -23h20q0 14 9 23zM226 239h-39v-112q9 -10 9 -23h20
q0 14 10 23v112zM28 68q-4 0 -7 3t-3 8v14q0 4 3 7.5t7 3.5h25q0 14 10 23v112h-34q-5 0 -8 3.5t-3 7.5v18q0 11 9 16l170 108q9 5 18 0l170 -108q9 -5 9 -16v-18q0 -4 -3 -7t-7 -3h-34v-113q10 -10 10 -23h24q4 0 7 -3.5t3 -7.5v-14q0 -2 -1 -4t-2.5 -3.5t-3 -2.5t-3.5 -1
h-54h-1h-2h-78h-2h-1h-79h-2h-1h-78h-2h-1h-55zM403 51q3 0 5 -1.5t3.5 -4t1.5 -5.5v-31q0 -5 -3 -8t-7 -3h-393q-4 0 -7 3t-3 8v31q0 3 1.5 5.5t4 4t4.5 1.5h393z" />
    <glyph glyph-name="uniF11A" unicode="&#xf11a;" horiz-adv-x="454" 
d="M0 354h454v-324h-454v324zM437 46v292h-421v-292h421zM105 176q-8 0 -8 8v57q0 8 8 8h243q8 0 8 -8v-57q0 -8 -8 -8h-243zM186 119l41 41l40 -41h-16v-32h-49v32h-16zM105 160v-33h-8v33h8zM348 127v33h8v-33h-8zM356 297v-32h-8v32h8zM105 297v-32h-8v32h8zM81 249v-8
h-32v8h32zM81 184v-8h-32v8h32zM405 249v-8h-32v8h32zM405 184v-8h-32v8h32z" />
    <glyph glyph-name="uniF11B" unicode="&#xf11b;" horiz-adv-x="413" 
d="M35 128h312v138h-312v-138zM413 238v-82l-30 -13v-49h-383v206h383v-51zM207 159l-42 41l-105 -41l114 81l43 -40l105 40z" />
    <glyph glyph-name="uniF11C" unicode="&#xf11c;" horiz-adv-x="413" 
d="M35 128h312v138h-312v-138zM413 238v-82l-30 -13v-49h-383v206h383v-51z" />
    <glyph glyph-name="uniF11D" unicode="&#xf11d;" horiz-adv-x="413" 
d="M35 128h312v138h-312v-138zM413 238v-82l-30 -13v-49h-383v206h383v-51zM69 156v83h242v-83h-242z" />
    <glyph glyph-name="uniF11E" unicode="&#xf11e;" horiz-adv-x="413" 
d="M35 128h312v138h-312v-138zM413 238v-82l-30 -13v-49h-383v206h383v-51zM257 158h-188v82h85z" />
    <glyph glyph-name="uniF11F" unicode="&#xf11f;" horiz-adv-x="376" 
d="M162 356q0 -4 1 -7q12 2 25 2t25 -2q1 3 1 7q0 10 -7.5 17.5t-18.5 7.5t-18.5 -7.5t-7.5 -17.5zM323 110l53 -48q0 -9 -6 -14.5t-14 -5.5h-121v-6q0 -19 -13.5 -32t-33.5 -13t-33.5 13t-13.5 32v6h-120q-9 0 -15 5.5t-6 14.5l53 48q-1 8 -1 12v100q0 27 11.5 52t32 43
t47.5 27q-2 7 -2 12q0 19 13.5 32t33.5 13t33.5 -13t13.5 -32q0 -6 -2 -12q40 -14 65.5 -47.5t25.5 -74.5v-100q0 -5 -1 -12z" />
    <glyph glyph-name="uniF120" unicode="&#xf120;" horiz-adv-x="296" 
d="M190 401q7 0 16 -1t26.5 -8t30.5 -18.5t23 -36t10 -57.5q0 -29 -31 -95.5t-31 -75.5h-90q0 9 -31.5 75.5t-31.5 95.5q0 33 10 57.5t23 36t30.5 18.5t26.5 8t16 1h2h1zM214 134q5 12 20 44q37 77 37 102q0 60 -37 83q-20 13 -44 13h-1h-1h-1q-24 0 -44 -13
q-37 -23 -37 -83q0 -25 37 -102q16 -32 20 -44h11v65h30v-65h10zM144 72v24h90v-24h-90zM167 36v23h44v-23h-44zM157 185q-35 74 -35 95q0 10 1 20q29 -53 42 -85h-7v-33q0 2 -1 3zM151 20v0h14q-29 -30 -68 -30q-40 0 -68.5 28t-28.5 70q0 80 65 199v-7q0 -34 42 -120
q21 -44 21 -51v-52h23v-37zM80 16l6 -3q-5 4 -12.5 10.5t-20.5 27.5t-12 42q0 18 5 35t12.5 28.5t14.5 20.5t13 13l5 5l-16 36q-49 -85 -49 -138q0 -24 14.5 -45t39.5 -32z" />
    <glyph glyph-name="uniF121" unicode="&#xf121;" horiz-adv-x="469" 
d="M395 -64h10v11v426v11h-10h-342h-10v-11v-426v-11h10h342zM384 -43h-320v406h320v-406zM309 363h11v10v64v11h-11h-170h-11v-11v-64v-10h11h170zM299 384h-150v43h150v-43zM0 373v-10h469v10v11h-469v-11zM139 299h-11v-256h11h10v256h-10zM224 299h-11v-256h11h11v256
h-11zM309 299h-10v-256h10h11v256h-11z" />
    <glyph glyph-name="uniF122" unicode="&#xf122;" horiz-adv-x="381" 
d="M0 -10v25q8 2 18.5 3.5t18.5 3.5q9 2 15 5q2 3 3.5 6.5t2.5 6.5q1 9 2 22v30v134q-1 10 -1 37t-1 71q-1 24 -4 29q-1 3 -3 3q-5 4 -19 4q-6 0 -30 4l-2 22l71 2l103 3h12q2 1 4 1h3h6q5 -1 11 -1h20q25 0 52 -7q5 -1 11.5 -3.5t14.5 -6.5q17 -9 28 -21q12 -12 17 -28
q3 -8 4.5 -15.5t1.5 -16.5q0 -19 -9 -35q-8 -15 -25 -28q-5 -3 -15 -8q-3 -1 -11.5 -5.5t-14.5 -7.5q48 -11 72 -38q25 -28 25 -64q0 -19 -8 -43q-6 -18 -19 -31q-18 -20 -38 -30q-21 -9 -55 -15q-19 -4 -53 -3l-54 1q-17 1 -37 -1q-21 -1 -44 -2q-7 -1 -24 -2
q-35 -1 -49 -1zM146 228q6 -1 14.5 -1.5t15.5 -0.5q47 0 71 18q24 17 24 60q0 30 -23 50q-22 20 -69 20q-14 0 -35 -4v-8q1 -5 1 -12q1 -19 1 -32q1 -18 0 -43v-26v-21zM147 40q0 -5 3 -12q20 -9 38 -8q35 0 59 11q22 10 33 30q4 10 7 22t3 26q0 31 -12 49q-15 25 -37 34
q-22 8 -67 8q-10 0 -17 -1t-11 -2v-38v-47z" />
    <glyph glyph-name="uniF123" unicode="&#xf123;" horiz-adv-x="358" 
d="M102 149l-51 42l-51 -42v252h102v-252zM275 179v-29h-143v29h143zM275 245v-30h-143v30h143zM132 401h226v-260q0 -47 -51 -98.5t-101 -51.5h-206v120l40 32v-112h165q26 0 35 19t4 38l-4 19q3 -1 8.5 -2.5t19 -2.5t23.5 1.5t18.5 13t8.5 27.5v217h-186v40zM132 280v30
h143v-30h-143z" />
    <glyph glyph-name="uniF124" unicode="&#xf124;" horiz-adv-x="415" 
d="M381 35v257h34v-257h-34zM232 298q7 0 11.5 4.5t4.5 11t-4.5 11t-11.5 4.5h-51q-7 0 -11.5 -4.5t-4.5 -11t4.5 -11t11.5 -4.5h51zM322 292h24v-257h-277v257h26q33 66 60 66h103q16 0 33.5 -20t30.5 -46zM0 35v257h34v-257h-34z" />
    <glyph glyph-name="uniF125" unicode="&#xf125;" 
d="M391 289q9 0 15 -6t6 -14v-216q0 -6 -3 -10.5t-7.5 -7.5t-10.5 -3h-370q-9 0 -15 6t-6 15v216q0 8 6 14t15 6h108v49q0 8 6 14t14 6h113q9 0 15 -6t6 -14v-49h108zM163 309v-20h86v20q0 8 -6 14.5t-15 6.5h-44q-9 0 -15 -6.5t-6 -14.5z" />
    <glyph glyph-name="uniF126" unicode="&#xf126;" horiz-adv-x="348" 
d="M159 186v37h36v-37h-36zM195 166l-12 -11l-24 19h36v-8zM159 103l13 -12l2 -2h-15v14zM159 41v36h36v-36h-36zM108 104l25 21l11 -10v-26h-36v15zM108 41v36h36v-36h-36zM94 162l-29 -24h-8v36h37v-12zM94 77v-36h-37v21l11 9l7 6h19zM231 196l-12 -10h-10v32l7 -6z
M209 106l22 20h15v-37h-37v17zM209 41v36h37v-36h-37zM260 89v37h36v-37h-36zM182 103l-48 44l-77 -64v28l77 63l49 -40l71 61l-27 28h69v-67l-26 26zM269 160l16 -15l7 -7h-32v14zM85 292q-9 0 -9 10v91q0 10 9 10t9 -10v-91q0 -10 -9 -10zM284 348h64v-357h-348v357h63
v-22q-10 -9 -10 -23t9 -23t22.5 -9t22.5 9t9 23q0 13 -10 23v22h136v-22q-11 -9 -11 -23t9 -23t22.5 -9t22.5 9t9 23q0 13 -10 23v22zM322 14v247h-296v-247h296zM263 292q-9 0 -9 10v91q0 10 9 10t9 -10v-91q0 -10 -9 -10z" />
    <glyph glyph-name="uniF127" unicode="&#xf127;" horiz-adv-x="397" 
d="M366 360q14 0 21.5 -7.5t8.5 -15.5l1 -8v-305q0 -14 -7.5 -21.5t-15.5 -8.5h-8h-335q-4 0 -9 0.5t-13.5 8t-8.5 21.5v305q0 4 1 9t8.5 13.5t21.5 8.5h30v15q0 7 4.5 11t11 4t11 -4t4.5 -11v-15h213v15q0 7 4.5 11t11.5 4q4 0 7.5 -2t5.5 -5.5t2 -7.5v-15h30zM92 24v61
h-61v-61h61zM92 116v61h-61v-61h61zM92 207v61h-61v-61h61zM183 24v61h-61v-61h61zM183 116v61h-61v-61h61zM183 207v61h-61v-61h61zM275 24v61h-61v-61h61zM275 116v61h-61v-61h61zM275 207v61h-61v-61h61zM366 24v61h-61v-61h61zM366 116v61h-61v-61h61zM366 207v61h-61
v-61h61z" />
    <glyph glyph-name="uniF128" unicode="&#xf128;" 
d="M110 301q-11 0 -19.5 8t-8.5 20v28q0 7 4 13.5t10 10.5t14 4q11 0 19 -8.5t8 -19.5v-28q0 -12 -8 -20t-19 -8zM302 301q-11 0 -19 8t-8 20v28q0 11 8 19.5t19 8.5t19.5 -8.5t8.5 -19.5v-28q0 -12 -8.5 -20t-19.5 -8zM385 192l-32 -26l-18 22l-14 -15l21 -23l-22 -19
l-7 -19l37 24l30 -23l2 13l6 7l-29 17l46 43zM385 275l-32 -25l-18 22l-14 -15l21 -23l-22 -19l-7 -20l37 25l30 -23l2 13l6 7l-29 17l46 43zM289 192l-32 -26l-18 22l-14 -15l21 -23l-22 -19l-7 -19l37 24l30 -23l2 13l6 7l-29 17l46 43zM289 275l-32 -25l-18 22l-14 -15
l21 -23l-22 -19l-7 -20l37 25l30 -23l2 13l6 7l-29 17l46 43zM193 108l-33 -26l-18 22l-13 -15l21 -23l-22 -19l-7 -19l37 24l30 -23l2 13l6 7l-29 17l46 43zM193 192l-33 -26l-18 22l-13 -15l21 -23l-22 -19l-7 -19l37 24l30 -23l2 13l6 7l-29 17l46 43zM193 275l-33 -25
l-18 22l-13 -15l21 -23l-22 -19l-7 -20l37 25l30 -23l2 13l6 7l-29 17l46 43zM97 108l-33 -26l-18 22l-13 -15l21 -23l-22 -19l-7 -19l37 24l30 -23l2 13l6 7l-30 17l47 43zM97 192l-33 -26l-18 22l-13 -15l21 -23l-22 -19l-7 -19l37 24l30 -23l2 13l6 7l-30 17l47 43z
M97 275l-33 -25l-18 22l-13 -15l21 -23l-22 -19l-7 -20l37 25l30 -23l2 13l6 7l-30 17l47 43zM220 49h68v42h-68v-42zM316 49h68v42h-68v-42zM384 7h-357q-11 0 -19 8t-8 20v280q0 11 8 19.5t19 8.5h41v-15q0 -19 10.5 -29.5t20.5 -11.5l11 -1q18 0 28.5 10.5t11.5 21.5
l1 11v14h109l1 -15q0 -18 10 -28.5t21 -11.5l10 -2q18 0 28.5 10.5t11.5 21.5l1 11v14h41q12 0 20 -8.5t8 -19.5v-280q0 -12 -8 -20t-20 -8z" />
    <glyph glyph-name="uniF129" unicode="&#xf129;" horiz-adv-x="413" 
d="M348 334q0 -5 -2.5 -9.5t-6.5 -6.5t-9 -2t-9.5 2t-6.5 6.5t-2 9.5v46q0 7 5 12.5t13 5.5q5 0 9 -2.5t6.5 -7t2.5 -8.5v-46zM102 380v-46q0 -8 -5.5 -13t-13 -5t-12.5 5t-5 13v46q0 7 5 12.5t12.5 5.5t13 -5.5t5.5 -12.5zM370 353h43v-359h-413v359h44v-19q0 -16 11.5 -28
t28 -12t28.5 12t12 28v19h166v-19q0 -16 11.5 -28t28 -12t28.5 12t12 28v19zM373 34v222h-333v-222h333zM216 116q0 -14 -7 -24.5t-19 -16t-26 -5.5q-24 0 -38.5 14t-13.5 39h30q1 -27 22 -27q8 0 14 5t6 15q0 8 -4 12t-10 5t-18 1v23q29 -2 29 15q0 8 -5 12t-12 4
q-19 0 -19 -24h-30q1 24 14.5 37.5t34.5 13.5q12 0 22.5 -4.5t17.5 -14t7 -21.5q0 -20 -15 -27q20 -8 20 -32zM296 73h-32v87h-34v25q36 -1 40 27h26v-139z" />
    <glyph glyph-name="uniF12A" unicode="&#xf12a;" horiz-adv-x="358" 
d="M264 19h64v51h-64v-51zM30 70v-51h64v51h-64zM94 266h-64v-52h64v52zM62 367v-60q0 -15 18 -15q17 0 17 15v60q0 15 -17 15q-18 0 -18 -15zM174 266h-70v-52h70v52zM162 367v-60q0 -15 17 -15t17 15v60q0 15 -17 15t-17 -15zM254 266h-70v-52h70v52zM261 367v-60
q0 -15 17.5 -15t17.5 15v60q0 15 -17.5 15t-17.5 -15zM328 266h-64v-52h64v52zM264 135v-55h64v55h-64zM184 80h70v55h-70v-55zM184 70v-51h70v51h-70zM174 70h-70v-51h70v51zM104 135v-55h70v55h-70zM94 145v59h-64v-59h64zM174 145v59h-70v-59h70zM254 145v59h-70v-59h70z
M328 145v59h-64v-59h64zM30 135v-55h64v55h-64zM316 345h42v-356h-358v356h43v22q0 16 9.5 25.5t27 9.5t27.5 -9.5t10 -25.5v-22h25v22q0 16 10 25.5t27.5 9.5t27 -9.5t9.5 -25.5v-22h25v22q0 16 10 25.5t28 9.5q8 0 15 -2.5t12 -7t7.5 -11t2.5 -14.5v-22z" />
    <glyph glyph-name="uniF12B" unicode="&#xf12b;" 
d="M121 128q0 -17 -12 -29t-28.5 -12t-28.5 12t-12 29t12 29t28.5 12t28.5 -12t12 -29zM138 242h95v46h-50q-1 0 -2.5 -1t-3.5 -2.5t-4 -3.5l-5 -5t-5 -5.5t-5.5 -6.5t-6 -7t-6.5 -8t-7 -7zM259 127v0h-114v1q0 26 -19 45t-46 19q-26 0 -45 -18.5t-19 -45.5q-16 5 -16 22v53
q0 11 10.5 18.5t26 10.5t26.5 4.5t19 1.5h20q9 12 23.5 28t28 28t18.5 12h134v-2q-13 -7 -22 -16h-24v-46h1v-9q0 -25 14 -44l-7 -26l-8 -31zM364 87h-27v25q-27 2 -45 12l8 31q21 -11 44 -11q26 0 26 16q0 14 -28 24q-49 16 -49 49q0 12 5.5 21.5t15.5 16.5t25 10v25h26
v-24q21 0 39 -8l-8 -31q-20 10 -39 10q-23 0 -23 -16q0 -11 33 -22q24 -9 34.5 -21t10.5 -30t-13 -32t-35 -17v-28z" />
    <glyph glyph-name="uniF12C" unicode="&#xf12c;" horiz-adv-x="413" 
d="M176 285q-1 0 -2.5 -1t-3.5 -2.5l-4 -3t-4.5 -4.5t-5 -5.5t-5.5 -6.5t-5.5 -7t-6.5 -7.5t-6 -7.5h91v45h-48zM300 285h-50v-45h84q-3 5 -6.5 10.5t-6 9t-5 8t-4.5 7.5t-4 5t-4 3.5t-4 1.5zM380 236q9 0 21 -9t12 -18v-57q0 -18 -17 -21q0 26 -18.5 44t-44 18t-43.5 -18
t-18 -44v-1h-133l1 1q0 25 -18.5 43.5t-44.5 18.5q-25 0 -43 -18t-19 -44q-15 5 -15 21v51q0 11 10 18t25 10t26 4t18 1h19q13 19 36.5 42.5t30.5 23.5h146q7 0 24 -23t27 -43h18zM117 130.5q0 -16.5 -11.5 -27.5t-28 -11t-28 11.5t-11.5 27.5q0 8 3 15t8.5 12.5t12.5 8.5
t15 3q17 0 28.5 -11.5t11.5 -28zM372 131q0 -16 -11.5 -27.5t-28 -11.5t-28 11.5t-11.5 27.5q0 10 5.5 19t14.5 14.5t19.5 5.5t19.5 -5.5t14.5 -14.5t5.5 -19z" />
    <glyph glyph-name="uniF12D" unicode="&#xf12d;" horiz-adv-x="414" 
d="M0 144v109h196v-109h-196zM218 144v109h196v-109h-196zM196 35v327h22v-327h-22zM196 35v327h22v-327h-22z" />
    <glyph glyph-name="uniF12E" unicode="&#xf12e;" horiz-adv-x="387" 
d="M155 264v82h103v-82h-103zM155 154v82h232v-82h-232zM0 45v82h129v-82h-129zM129 -10v411h26v-411h-26z" />
    <glyph glyph-name="uniF12F" unicode="&#xf12f;" horiz-adv-x="407" 
d="M0 20v68h163v-68h-163zM0 115v68h258v-68h-258zM0 211v67h326v-67h-326zM0 374h407v-68h-407v68z" />
    <glyph glyph-name="uniF130" unicode="&#xf130;" horiz-adv-x="414" 
d="M0 144v104h249v-104h-249zM352 144v104h62v-104h-62zM269 144v104h62v-104h-62z" />
    <glyph glyph-name="uniF131" unicode="&#xf131;" horiz-adv-x="416" 
d="M377 212v-106q0 -6 -3.5 -9.5t-9.5 -3.5h-26q-5 0 -9 3.5t-4 9.5v106q0 2 1 4t2 3.5t2.5 3t3.5 2t4 0.5h26q6 0 9.5 -3.5t3.5 -9.5zM286 147v-41q0 -6 -3.5 -9.5t-9.5 -3.5h-26q-5 0 -9 3.5t-4 9.5v41q0 6 4 9.5t9 3.5h26q6 0 9.5 -3.5t3.5 -9.5zM195 199v-93
q0 -6 -4 -9.5t-9 -3.5h-26q-5 0 -9 3.5t-4 9.5v93q0 4 2 7t5 4.5t6 1.5h26q5 0 9 -3.5t4 -9.5zM104 147v-41q0 -4 -1.5 -7t-4.5 -4.5t-7 -1.5h-26q-5 0 -9 3.5t-4 9.5v41q0 6 4 9.5t9 3.5h26q4 0 7 -1.5t4.5 -4.5t1.5 -7zM403 40h-390q-5 0 -9 4t-4 9v287q0 5 4 9t9 4
q3 0 6.5 -2t5 -5t1.5 -6v-273h377q6 0 9.5 -4t3.5 -10q0 -3 -1.5 -6t-4.5 -5t-7 -2zM49 246q-6 5 -7 13t4 15l36 44q7 8 16.5 7.5t15.5 -7.5l26 -36l35 48q5 12 18.5 12.5t18.5 -12.5l42 -56l41 54q4 13 17 14q14 1 20 -11l41 -42q3 -7 0.5 -14.5t-10 -11.5t-15 -1t-11.5 10
l-19 38l-42 -58q-4 -13 -18 -14h-1q-13 0 -18 12l-45 62l-30 -56q-5 -11 -16 -13q-12 -1 -19 8l-32 23l-20 -25q-5 -7 -13.5 -7.5t-14.5 4.5z" />
    <glyph glyph-name="uniF132" unicode="&#xf132;" horiz-adv-x="413" 
d="M0 17v234h83v-234h-83zM110 17v206h83v-206h-83zM220 17v192h83v-192h-83zM330 17v206h83v-206h-83zM0 264v55h83v-55h-83zM110 237v55h83v-55h-83zM220 223v55h83v-55h-83zM330 237v55h83v-55h-83zM0 333v41h83v-41h-83zM110 306v55h83v-55h-83zM220 292v55h83v-55h-83z
M330 374h83v-68h-83v68z" />
    <glyph glyph-name="uniF133" unicode="&#xf133;" horiz-adv-x="380" 
d="M354 294l-26 25l-132 -132l-45 44l-122 -121l-29 28l151 151l45 -44l103 103l-27 27l108 26zM34 -12v98h54v-98h-54zM124 -12v147h54v-147h-54zM217 -12v197h55v-197h-55zM308 -12v246h55v-246h-55z" />
    <glyph glyph-name="uniF134" unicode="&#xf134;" horiz-adv-x="413" 
d="M374 276v-168q0 -5 -3.5 -9t-8.5 -4h-26q-4 0 -7 2t-4.5 5t-1.5 6v168q0 5 4 9t9 4h26q2 0 4.5 -1t4 -3t2.5 -4.5t1 -4.5zM284 315v-207q0 -5 -3.5 -9t-9.5 -4h-25q-6 0 -10 4t-4 9v207q0 5 4 9t10 4h25q4 0 7 -2t4.5 -5t1.5 -6zM194 263v-155q0 -5 -4 -9t-9 -4h-26
q-3 0 -5 1t-4 3t-3 4t-1 5v155q0 5 4 9t9 4h26q5 0 9 -4t4 -9zM103 211v-103q0 -5 -3.5 -9t-8.5 -4h-27q-5 0 -8.5 4t-3.5 9v103q0 4 1.5 7t4.5 4.5t6 1.5h27q5 0 8.5 -3.5t3.5 -9.5zM400 43h-387q-5 0 -9 4t-4 9v285q0 5 4 8.5t9 3.5t9 -3.5t4 -8.5v-272h374q6 0 9.5 -3.5
t3.5 -9t-3.5 -9.5t-9.5 -4z" />
    <glyph glyph-name="uniF135" unicode="&#xf135;" horiz-adv-x="413" 
d="M388 229q10 0 17.5 -7t7.5 -17.5t-7.5 -18t-17.5 -7.5h-84q-9 0 -16 6q-4 3 -7 8l-52 97l-103 -257q-4 -10 -14 -14q-1 -1 -2 -1q-19 -6 -29 12l-78 143q-5 9 -2 19t12 15t19 2t15 -12l52 -97l103 257q3 9 11 13v0q9 5 19 2t15 -12l71 -131h70z" />
    <glyph glyph-name="uniF136" unicode="&#xf136;" horiz-adv-x="487" 
d="M442.5 338q18.5 0 31.5 -13t13 -31q0 -10 -3.5 -18t-9.5 -14t-14.5 -9.5t-17.5 -3.5q-3 0 -7 1l-127 -136v-7q0 -18 -13 -31.5t-31 -13.5q-8 0 -15.5 3t-13 7.5t-9.5 11t-6 13.5l-74 41q-12 -8 -26 -8h-6l-26 -29q2 -6 2 -11q0 -18 -13.5 -31t-31.5 -13q-12 0 -22.5 6
t-16.5 16t-6 22.5t6 22.5t16.5 16t22.5 6h5l26 30q-1 5 -1 9q0 19 13 32t32 13q15 0 26.5 -9t15.5 -23l78 -42q11 7 24 7q4 0 9 -1l125 134q-1 5 -1 9q0 18 13.5 31t32 13zM45 71q8 0 13.5 5.5t5.5 13.5t-5.5 14t-13.5 6t-13.5 -6t-5.5 -14q0 -5 2.5 -9.5t7 -7t9.5 -2.5z
M120 155q8 0 13.5 5.5t5.5 13.5t-5.5 14t-13.5 6t-13.5 -6t-5.5 -14q0 -5 2.5 -9.5t7 -7t9.5 -2.5zM264 88q8 0 13.5 5.5t5.5 13.5t-5.5 13.5t-13.5 5.5t-14 -5.5t-6 -13.5q0 -5 3 -9.5t7 -7t10 -2.5zM442 274q8 0 13.5 6t5.5 14t-5.5 13.5t-13.5 5.5t-13.5 -5.5t-5.5 -13.5
t5.5 -14t13.5 -6z" />
    <glyph glyph-name="uniF137" unicode="&#xf137;" horiz-adv-x="413" 
d="M400 46h-387q-5 0 -9 3.5t-4 8.5v278q0 5 4 8.5t9 3.5t9 -3.5t4 -8.5v-265h374q3 0 6 -2t5 -4.5t2 -6.5q0 -2 -1 -4.5t-3 -4t-4.5 -2.5t-4.5 -1zM48 144q-6 5 -6.5 13t4.5 14l36 43q6 7 15 7q10 0 16 -8l26 -34l35 87q5 12 18 12t18 -12l42 -95l40 133q4 13 18 14
q13 1 19 -11l41 -81q3 -7 0.5 -14.5t-10 -11t-15 -0.5t-11.5 10l-18 36l-42 -136q-4 -13 -18 -14h-1q-13 0 -18 12l-44 100l-31 -75q-4 -10 -15 -12q-12 -2 -19 8l-32 42l-20 -24q-5 -6 -13 -7t-15 4z" />
    <glyph glyph-name="uniF138" unicode="&#xf138;" horiz-adv-x="409" 
d="M197 -9h-197v197q79 -5 135.5 -61.5t61.5 -135.5zM153 173q-66 56 -153 56v171q157 0 275 -106zM370 166l-159 -65q-12 24 -29 43l121 122q40 -44 67 -100zM227 63l159 66q23 -67 23 -138h-171q0 37 -11 72z" />
    <glyph glyph-name="uniF139" unicode="&#xf139;" horiz-adv-x="408" 
d="M192 106q-33 4 -56 29.5t-23 59.5q0 16 6 31l73 -42v-78zM91 195q0 -43 29 -75.5t72 -36.5v-91q-80 4 -136 63t-56 140q0 47 20 89l79 -46q-8 -21 -8 -43zM215 106v78l74 42q5 -15 5 -31q0 -34 -22.5 -59.5t-56.5 -29.5zM387 284q21 -42 21 -89q0 -53 -26 -99t-70 -73.5
t-97 -30.5v91q43 4 72.5 36.5t29.5 75.5q0 22 -8 43zM204 309q-29 0 -54 -14t-40 -37l-79 45q28 44 73.5 70t99 26t99.5 -26t74 -70l-79 -45q-16 23 -40.5 37t-53.5 14zM203.5 286q47.5 0 74.5 -39l-74 -43l-75 43q27 39 74.5 39z" />
    <glyph glyph-name="uniF13A" unicode="&#xf13a;" horiz-adv-x="407" 
d="M203 356v-162q84 -118 94 -129q31 22 49 56.5t18 73.5q0 67 -47 114t-114 47zM203.5 -8q-84.5 0 -144 59.5t-59.5 143.5t59.5 143.5t144 59.5t144 -59.5t59.5 -143.5t-59.5 -143.5t-144 -59.5z" />
    <glyph glyph-name="uniF13B" unicode="&#xf13b;" horiz-adv-x="413" 
d="M163 197q0 -22 9 -41.5t25.5 -32.5t37.5 -18q-40 -44 -99 -44q-57 0 -96.5 40t-39.5 96t39.5 95.5t96.5 39.5q59 0 99 -43q-15 -4 -28.5 -12.5t-23 -20.5t-15 -27.5t-5.5 -31.5zM267 197q0 -17 10 -30.5t26 -17.5q-20 -20 -47 -20q-29 0 -48.5 20t-19.5 48t19.5 48
t48.5 20q27 0 47 -20q-16 -5 -26 -18t-10 -30zM386.5 224q11.5 0 19 -8t7.5 -19t-7.5 -19t-19 -8t-19.5 8t-8 19t8 19t19.5 8zM356 232q-19 -13 -19 -35t19 -35q-11 -8 -25 -8q-12 0 -21.5 5.5t-15.5 15.5t-6 22t6 21.5t15.5 15.5t21.5 6q14 0 25 -8z" />
    <glyph glyph-name="uniF13C" unicode="&#xf13c;" horiz-adv-x="363" 
d="M181.5 374q75.5 0 128.5 -53.5t53 -128.5t-53 -128.5t-128.5 -53.5t-128.5 53.5t-53 128.5t53 128.5t128.5 53.5zM181.5 43q61.5 0 105 43.5t43.5 105.5q0 40 -20 74.5t-54 54.5t-74 20q-62 0 -105.5 -43.5t-43.5 -105.5t43.5 -105.5t105 -43.5zM176 158l76 64l10 -13
l-75 -64zM114 257l75 -89l-13 -10l-75 88z" />
    <glyph glyph-name="uniF13D" unicode="&#xf13d;" horiz-adv-x="396" 
d="M396 198q0 -37 -26 -63t-63 -26h-36v39h36q21 0 35.5 14.5t14.5 35.5q0 17 -6.5 29t-17.5 17.5t-23 5.5q-1 27 -12.5 46t-28 27.5t-35.5 8.5q-22 0 -39 -10.5t-24 -20.5t-10 -20q-12 13 -28 13.5t-28 -13t-7 -31.5q-24 5 -41.5 -11t-17.5 -41q0 -21 14.5 -35.5
t36.5 -14.5h48v-39h-48q-38 0 -64 26t-26 63q0 30 18 53.5t46 31.5q8 27 32.5 41t50.5 6q34 41 87 41q41 0 72.5 -26.5t39.5 -66.5q15 -7 26 -19t17.5 -28t6.5 -33zM276 74l-71 -71l-71 71h33v74h76v-74h33z" />
    <glyph glyph-name="uniF13E" unicode="&#xf13e;" horiz-adv-x="396" 
d="M396 198q0 -37 -26 -63t-63 -26h-36v39h36q21 0 35.5 14.5t14.5 35.5q0 17 -6.5 29t-17.5 17.5t-23 5.5q-1 27 -12.5 46t-28 27.5t-35.5 8.5q-22 0 -39 -10.5t-24 -20.5t-10 -20q-12 13 -28 13.5t-28 -13t-7 -31.5q-24 5 -41.5 -11t-17.5 -41q0 -21 14.5 -35.5
t36.5 -14.5h48v-39h-48q-38 0 -64 26t-26 63q0 30 18 53.5t46 31.5q8 27 32.5 41t50.5 6q34 41 87 41q41 0 72.5 -26.5t39.5 -66.5q15 -7 26 -19t17.5 -28t6.5 -33zM134 77l71 71l71 -71h-33v-74h-76v74h-33z" />
    <glyph glyph-name="uniF13F" unicode="&#xf13f;" 
d="M126.5 208q60.5 -35 69.5 -104l1 -2l-2 -1q-65 -27 -125.5 8t-69.5 105v1l2 1q64 27 124.5 -8zM410 216l2 -1l-1 -1q-9 -70 -69 -105q-16 -9 -34 -14q-8 -2 -24 -4q-8 -1 -14 -2q-20 -4 -30 -13q-9 -8 -13 -26q-2 -10 -3 -19q-1 -14 -1 -33v-2h-2h-7h-2v2v46q0 28 2 52
q3 24 10 43q19 45 61 69q60 35 125 8zM262 288q0 -67 -53 -108l-2 -1l-1 1q-53 41 -53 108t53 108l1 1l2 -1q53 -41 53 -108z" />
    <glyph glyph-name="uniF140" unicode="&#xf140;" horiz-adv-x="418" 
d="M388 147q19 6 27.5 -1t-13.5 -21q-16 -10 -64 -33t-88 -41l-41 -19q-2 -1 -5 -3t-12.5 -5t-18.5 -4.5t-21 1.5t-21 10q-9 8 -44 36t-59 48t-27 25q-3 6 2 23.5t15.5 32.5t18.5 13q9 -2 65 -4l18 -1l28 -1h6h1h6l6 -1q27 -1 34 -3q2 0 16.5 -2.5t19.5 -4.5l4 -2l1 -1v-1
l1 -1l1 -2v-1l1 -1v-1v-1q0 -1 -0.5 -2t-0.5 -2l-1 -2l-1 -2h-1l-1 -1l-2 -2l-2 -1l-2 -1h-1l-1 -1h-1h-2l-1 -1h-2h-2h-1l-2 -1h-2h-1h-2h-2h-2h-1h-1h-1h-1h-1v0h-1v0h-1v0v0h-1v0h-1h-1h-1h-3l-1 1h-1h-1h-1h-1h-1h-2h-1h-1l-2 1h-1h-2h-3q-2 1 -3 1t-3 -1h-3l-6 -2
l-6 -4q0 -1 -3 -3v-1q-1 0 -3 -3q-3 -3 -5 -6q-3 -5 -4 -8q-1 -5 5.5 -12t16 -13t18.5 -9q18 -7 36 -6q12 0 35 6t45 13t48.5 16t39.5 12zM118 211h-19q-5 17 -5 36q0 48 34.5 82.5t83.5 34.5q24 0 46 -9t37.5 -25t25 -38t9.5 -45q0 -49 -34.5 -83.5t-83.5 -34.5
q-32 0 -59 16q5 7 12 12q22 -11 47 -11q27 0 50.5 13.5t37 36.5t13.5 51q0 41 -29.5 70.5t-71.5 29.5t-71.5 -29.5t-29.5 -70.5q0 -19 7 -36zM196 276q0 11 12 14v-30q-12 6 -12 16zM217 204v31q12 -6 12 -17t-12 -14zM212 159q36 0 39 19q1 8 -3 13q-2 3 -6 5q8 10 8 24
q0 3 -0.5 6.5t-2 6.5t-3 5t-4 4.5t-4 3.5t-5 3t-4.5 2.5t-4.5 2.5t-4.5 2v34q4 0 9 -2t8.5 -4l3.5 -2q1 0 2 2l5 12q1 1 1 2q0 3 -6.5 5.5t-12.5 3.5t-10 2v8q0 4 -3 4h-4q-4 0 -4 -4v-8q-10 -1 -21 -9.5t-11 -25.5q0 -4 1 -8t2.5 -6.5t4 -5.5t4.5 -4.5t5.5 -3.5t5 -2.5
t5.5 -2.5l4 -2v-35q-3 1 -5 2h-6q-3 2 -6 3t-5 2l-2 1q-1 0 -2 -2l-1 -2q-12 1 -55 2q-8 18 -8 37q1 39 28.5 66.5t66.5 27.5t66.5 -27.5t27.5 -66.5t-27.5 -67t-66.5 -28q-20 0 -39 9h4h2q19 -2 26 -2h7z" />
    <glyph glyph-name="uniF141" unicode="&#xf141;" horiz-adv-x="413" 
d="M376 124q22 14 37 31q-4 -40 -51 -70q-61 -38 -154 -38q-79 0 -138 29q-65 32 -70 80q22 -25 57 -42q66 -33 151 -33q100 0 168 43zM339.5 156.5q48.5 30.5 44 71.5t-59.5 68.5t-128 25.5t-122 -32.5t-44.5 -72t59.5 -68.5t128.5 -25t122 32.5zM0 228q3 41 52 72
q34 22 84 32q9 2 18 3h1q8 1 19 2h1q10 1 19 1v1h6h6q78 0 138 -30q64 -32 69 -80v-6v-2v-3q-2 -41 -51 -72q-57 -36 -142.5 -39t-149.5 29q-36 18 -53.5 42t-16.5 50zM143 174q47 -17 83 5q4 2 7 5t4.5 6.5t2.5 5.5t0 5.5t-1 5.5t-2.5 6t-3 4.5t-3.5 4.5l-3 4l38 25
q5 -2 9.5 -6.5t7 -8.5l2.5 -4q1 -1 4 0l22 5q2 1 3 2q8 5 -23 24l-2 2l10 6q4 3 -1 5l-5 3q-5 2 -9 0l-10 -7q-8 4 -20 6t-30 0.5t-32 -10.5q-5 -3 -8.5 -6.5t-5 -6.5t-1 -7t1 -6t3 -6t3.5 -5.5t4 -5t4 -4.5l-41 -26q-6 4 -11 9t-8 9l-3 4q-2 1 -4 0l-25 -8h-2
q-4 -3 8.5 -13.5t21.5 -14.5l-10 -6q-4 -3 1 -5l4 -2l1 -1q5 -2 9 1zM82.5 284.5q45.5 28.5 114 31t120 -23.5t55.5 -64t-41.5 -67t-113.5 -31t-119.5 23.5t-56 64t41 67zM197 192q-13 -9 -33 -3l36 23q9 -13 -3 -20zM218 236q-9 12 2 19q13 8 32 2z" />
    <glyph glyph-name="uniF142" unicode="&#xf142;" horiz-adv-x="411" 
d="M410 95q-4 -40 -51 -69q-61 -38 -152 -38q-79 0 -138 29q-64 32 -69 80q22 -25 57 -43q65 -32 150 -32q99 0 166 42h1q21 14 36 31zM374 125q21 13 36 30q-4 -40 -51 -69q-61 -38 -152 -38q-79 0 -138 29q-64 32 -69 80q22 -25 57 -43q65 -32 150 -32q99 0 166 42z
M374 185q21 13 36 30q-4 -40 -51 -69q-61 -38 -152 -38q-79 0 -138 29q-64 32 -69 80q22 -25 57 -43q65 -32 150 -32q99 0 166 42zM337 217.5q48 30.5 43.5 71t-59 68t-127 25t-121 -33t-44 -71t59 -68t127.5 -25t121 33zM0 288q3 41 52 72q34 21 83 31q9 2 18 3h1q8 2 19 2
l1 1q10 0 18 1h1h5.5h5.5q78 0 137 -29q64 -32 69 -80v-6l0.5 -2t-0.5 -3q-2 -41 -51 -72q-56 -35 -141 -38t-149 29q-35 18 -52.5 41.5t-16.5 49.5zM142 234q47 -17 82 5q4 3 7.5 5.5t4.5 6t2 5.5t0 6t-1 5.5t-2.5 5.5t-3 4.5t-3.5 4.5l-3 4l39 25q4 -2 8.5 -6.5t7 -8.5
l2.5 -4q1 -1 4 0l21 5l3 1q5 3 -5.5 12.5t-18.5 13.5l10 7q4 3 -1 5l-5 2q-5 3 -9 0l-10 -6q-7 3 -19 5.5t-30.5 0.5t-32.5 -11q-5 -3 -8 -6.5t-4.5 -6t-1 -6.5t1 -6t3 -6t3.5 -5.5t4 -5t3 -4.5l-40 -26q-6 4 -11 9.5t-8 9l-3 3.5q-1 1 -4 0l-25 -7q-1 -1 -2 -1
q-4 -3 8.5 -13t21.5 -15l-9 -6q-4 -2 0 -5l4 -1l1 -1q5 -3 9 0zM82 344.5q45 28.5 113 30.5t119 -23.5t55.5 -63.5t-41 -66.5t-113.5 -30.5t-119 23.5t-55 63.5t41 66.5zM196 252q-14 -8 -33 -3l36 23q8 -13 -3 -20zM217 296q-10 12 1 19q13 8 33 2z" />
    <glyph glyph-name="uniF143" unicode="&#xf143;" 
d="M375 93q22 14 37 31q-4 -40 -51 -70q-61 -38 -154 -38q-78 0 -137 29q-65 32 -70 80q22 -25 57 -42q65 -33 150 -33q100 0 168 43zM375 153q22 14 37 31q-4 -40 -51 -69q-61 -39 -154 -39q-78 0 -137 30q-65 32 -70 80q22 -25 57 -43q65 -32 150 -32q100 0 168 42z
M338.5 186.5q48.5 30.5 44 71t-59.5 68t-128 25.5t-121.5 -32.5t-44 -71.5t59.5 -68.5t128 -25t121.5 33zM0 257q3 41 52 72q34 22 83 32h1q9 2 18 3h1q8 1 18 2h1q11 1 19 1h1q2 0 5.5 0.5t5.5 0.5q79 0 138 -30q64 -32 69 -80v-6v-2v-3q-2 -41 -51 -72q-57 -36 -142 -38.5
t-149 29.5q-36 18 -53.5 41.5t-16.5 49.5zM142 203q48 -17 83 5q9 6 13 12t0.5 14.5t-4.5 10t-8 11.5l39 24q3 -1 5.5 -3.5t4.5 -5t4 -4.5t3 -4l1 -2h4l22 6q2 0 3 1q5 3 -6 12t-19 14l10 6q4 3 -1 5l-4 3q-5 2 -10 0l-10 -7q-7 4 -19 6t-30.5 0.5t-32.5 -10.5
q-5 -3 -8 -6.5t-4.5 -6.5t-1 -7t1 -6t2.5 -6t3.5 -5.5t4.5 -5t3 -4.5l-41 -25q-5 3 -10.5 8.5t-8 9t-3.5 3.5q-1 1 -4 0l-24 -7l-2 -1q-5 -3 8 -13t22 -15l-10 -6q-4 -2 1 -5l3 -2h2q5 -3 9 0zM82.5 314q45.5 29 113.5 31t119.5 -24t55.5 -64t-41 -66.5t-113.5 -30.5
t-119.5 23.5t-55.5 63.5t41 67zM196 221q-13 -8 -33 -3l37 23q8 -13 -4 -20zM218 265q-10 12 1 19q13 8 33 3z" />
    <glyph glyph-name="uniF144" unicode="&#xf144;" horiz-adv-x="205" 
d="M166 132h-127l63 -101zM205 154l-103 -164l-102 164h205zM205 236h-205l102 164z" />
    <glyph glyph-name="uniF145" unicode="&#xf145;" horiz-adv-x="205" 
d="M39 258h127l-64 101zM0 236l102 164l103 -164h-205zM0 154h205l-103 -164z" />
    <glyph glyph-name="uniF146" unicode="&#xf146;" horiz-adv-x="205" 
d="M0 236l102 164l103 -164h-205zM0 154h205l-103 -164z" />
    <glyph glyph-name="uniF147" unicode="&#xf147;" 
d="M387 364q10 0 17.5 -7.5t7.5 -18.5v-292q0 -10 -7.5 -18t-17.5 -8h-361q-11 0 -18.5 8t-7.5 18v292q0 11 7.5 18.5t18.5 7.5h361zM34 55h155v258h-155v-258zM378 313h-155v-258h155v258z" />
    <glyph glyph-name="uniF148" unicode="&#xf148;" horiz-adv-x="393" 
d="M196 356q41 0 76.5 -11.5t62.5 -31t42.5 -45.5t15.5 -56t-15.5 -55.5t-42.5 -45.5t-62.5 -31t-76.5 -11q-18 0 -37 2q-36 -28 -84 -39q-7 -1 -10 -2q-5 -1 -11 -2q-4 0 -6 2t-3 5t1 5l4 4q5 6 9 10t7 10q4 7 6 14q3 8 5 20q-35 20 -56 50q-21 29 -21 64q0 30 15.5 56
t42 45.5t62 31t76.5 11.5z" />
    <glyph glyph-name="uniF149" unicode="&#xf149;" horiz-adv-x="389" 
d="M303 257q36 0 61 -25.5t25 -60.5v-23q0 -36 -25 -61t-61 -25h-3v-64l-64 64h-20q-35 0 -60.5 25t-25.5 61l29 29h14q36 0 64 23t35 57h31zM153 192l-64 -65v65h-2q-36 0 -61.5 25t-25.5 61v22q0 36 25.5 61.5t61.5 25.5h86q24 0 43.5 -11.5t31.5 -31.5t12 -44v-22
q0 -36 -25.5 -61t-61.5 -25h-20z" />
    <glyph glyph-name="uniF14A" unicode="&#xf14a;" 
d="M393 311q8 0 13.5 -6t5.5 -14v-277q0 -8 -6 -14t-13 -6h-214q-9 0 -15 6t-6 14v59h-138q-8 0 -14 6t-6 14v183q0 8 4 18t10 15l67 67q6 6 15.5 10t18.5 4h119q8 0 14 -5.5t6 -13.5v-65q4 2 9 4q5 1 10 1h120zM158 188q0 12 3 23t12 19l41 42v79h-72v-83q0 -8 -5.5 -14
t-13.5 -6h-83v-135h118v75zM48 288h54v54zM373 271h-72v-83q0 -7 -6 -13t-14 -6h-83v-135h175v237zM207 208h54v55z" />
    <glyph glyph-name="uniF14B" unicode="&#xf14b;" horiz-adv-x="332" 
d="M306 89q6 0 6 5v105h-291v-105q0 -5 5 -5h280zM26 273q-5 0 -5 -5v-19h291v19q0 5 -6 5h-280zM306 294q11 0 18.5 -7.5t7.5 -18.5v-174q0 -11 -7.5 -18.5t-18.5 -7.5h-280q-11 0 -18.5 7.5t-7.5 18.5v174q0 11 7.5 18.5t18.5 7.5h280z" />
    <glyph glyph-name="uniF14C" unicode="&#xf14c;" horiz-adv-x="390" 
d="M320 103h70v-41h-70v-66h-41v66h-221v225h-58v41h58v54h41v-54h198l58 58l29 -29l-64 -63v-191zM255 287h-156v-154zM127 103h152v150z" />
    <glyph glyph-name="uniF14D" unicode="&#xf14d;" horiz-adv-x="380" 
d="M55.5 326.5q55.5 55.5 134.5 55.5t134.5 -55.5t55.5 -134.5t-55.5 -134.5t-134.5 -55.5t-134.5 55.5t-55.5 134.5t55.5 134.5zM285 255l-32 32l-63 -63l-63 63l-32 -32l63 -63l-63 -63l32 -32l63 63l63 -63l32 32l-63 63z" />
    <glyph glyph-name="uniF14E" unicode="&#xf14e;" horiz-adv-x="414" 
d="M222 40q55 5 95 45t45 96h-66v27h66q-3 37 -22.5 68.5t-50.5 50.5t-67 23v-67h-28v67q-37 -3 -68.5 -22.5t-50.5 -51t-23 -68.5h68v-27h-67q5 -56 45 -96t96 -45v67h28v-67zM207 402q86 0 146.5 -60.5t60.5 -146.5t-60.5 -146.5t-146.5 -60.5t-146.5 60.5t-60.5 146.5
t60.5 146.5t146.5 60.5z" />
    <glyph glyph-name="uniF14F" unicode="&#xf14f;" horiz-adv-x="401" 
d="M76 123h-51q-10 0 -17.5 7.5t-7.5 17.5v88q0 10 7.5 17.5t17.5 7.5h51v-138zM104 267l120 69v-288l-120 69v150zM401 211v-38h-50h-38h-50v38h50h38h50z" />
    <glyph glyph-name="uniF150" unicode="&#xf150;" 
d="M0 356h412v-93h-412v93zM0 188v37h281v-37h-281zM319 188v37h93v-37h-93zM0 113v37h281v-37h-281zM319 113v37h93v-37h-93zM0 38v37h281v-37h-281zM319 38v37h93v-37h-93z" />
    <glyph glyph-name="uniF151" unicode="&#xf151;" horiz-adv-x="408" 
d="M0 404h408v-424h-408v424zM391 -4v392h-374v-392h374zM60 277q-9 0 -9 9v59q0 9 9 9h288q9 0 9 -9v-59q0 -9 -9 -9h-288zM348 260q9 0 9 -8v-60q0 -8 -9 -8h-101q-9 0 -9 8v60q0 8 9 8h101zM348 166q9 0 9 -8v-60q0 -8 -9 -8h-101q-9 0 -9 8v60q0 8 9 8h101zM212 260v-8
h-161v8h161zM212 234v-8h-161v8h161zM212 209v-9h-161v9h161zM212 184v-9h-161v9h161zM212 158v-8h-161v8h161zM212 132v-8h-161v8h161zM212 107v-9h-161v9h161zM136 82v-9h-85v9h85z" />
    <glyph glyph-name="uniF152" unicode="&#xf152;" horiz-adv-x="335" 
d="M85 202q0 9 6.5 15.5t15.5 6.5t15.5 -6.5t6.5 -15.5t-6.5 -15.5t-15.5 -6.5q-6 0 -11 3t-8 8t-3 11zM196 199l63 -106h-174l55 75l20 -20zM210 358h-170v-332h255v246h-85v86zM235 398l100 -101v-311h-335v412h235z" />
    <glyph glyph-name="uniF153" unicode="&#xf153;" horiz-adv-x="335" 
d="M251 78h-168v30h168v-30zM251 133h-65v30h65v-30zM251 188h-65v30h65v-30zM210 358h-170v-332h255v246h-85v86zM235 398l100 -101v-311h-335v412h235zM159 133h-76v85h76v-85z" />
    <glyph glyph-name="uniF154" unicode="&#xf154;" horiz-adv-x="335" 
d="M168 78h-85v30h85v-30zM251 133h-168v30h168v-30zM251 188h-168v30h168v-30zM210 358h-170v-332h255v246h-85v86zM235 398l100 -101v-311h-335v412h235z" />
    <glyph glyph-name="uniF155" unicode="&#xf155;" 
d="M389 85v216h-366v-216h366zM0 324h412v-263h-412v263zM82 174q-1 0 -2.5 2t-3 7t-1.5 10.5t1.5 10t3 7t2.5 2.5q7 0 7 -20q0 -5 -1.5 -10t-3 -7t-2.5 -2zM330 174q-1 0 -2.5 2t-3 7t-1.5 10v6t1 5t1.5 3.5t1.5 2.5t1.5 2t1.5 1t2.5 -2.5t3 -7t1.5 -10t-1.5 -10.5t-3 -7
t-2.5 -2zM63 193q0 -13 5.5 -22t13.5 -9t13.5 9t5.5 22t-5.5 22t-13.5 9t-13.5 -9t-5.5 -22zM131 193q0 -29 11 -53.5t29 -37.5h-131v181h129q-38 -29 -38 -90zM330 224q-8 0 -13.5 -9t-5.5 -22t5.5 -22t13.5 -9t13.5 9t5.5 22t-5.5 22t-13.5 9zM242 283h130v-181h-131
q12 9 21 22.5t14 31.5t5 37q0 61 -39 90zM210 180v-32q13 3 13 15q0 11 -13 17zM189 222q0 -10 13 -16v30q-13 -3 -13 -14zM200 128q-6 0 -18.5 3t-12.5 7v2l5 15q1 2 2 2l4 -2t9.5 -4t10.5 -3v36l-5 2.5l-6 3t-5.5 3.5t-6 5t-4.5 5.5t-4 8t-1 9.5q0 17 11 26t21 9v9
q0 4 4 4h4q4 0 4 -4v-9q6 0 17 -3.5t11 -7.5v-2l-6 -12q-1 -2 -2 -2l-3.5 2t-8.5 3.5t-8 1.5v-34l4 -2t4.5 -2.5t4.5 -2.5t5 -3t4 -3.5t4 -5t2.5 -5.5t2 -6.5t0.5 -7.5q0 -17 -9.5 -25.5t-21.5 -10.5v-8q0 -4 -4 -4h-4q-4 0 -4 4v8z" />
    <glyph glyph-name="uniF156" unicode="&#xf156;" horiz-adv-x="414" 
d="M26 310v-208h-26v234h368v-26h-342zM393 76v193h-327v-193h327zM46 289h368v-234h-368v234zM119 155q-1 0 -2.5 2t-2.5 6.5t-1 9.5t1 9t2.5 6t2.5 2t1.5 -1t1.5 -2t2 -3t1.5 -5t0.5 -6q0 -5 -1.5 -9.5t-3 -6.5t-2.5 -2zM341 155q-1 0 -2.5 2t-3 6.5t-1.5 9.5q0 17 7 17
q1 0 2 -2t2.5 -6t1.5 -9t-1 -9.5t-2.5 -6.5t-2.5 -2zM102 172.5q0 -11.5 5 -19.5t12 -8t12 8t5 19.5t-5 19.5t-12 8t-12 -8t-5 -19.5zM163 173q0 -56 35 -82h-116v162h115q-34 -26 -34 -80zM341 200q-7 0 -12 -8t-5 -19.5t5 -19.5t12 -8t12 8t5 19.5t-5 19.5t-12 8zM262 253
h116v-162h-117q36 26 36 82q0 54 -35 80zM234 161v-29q11 3 11 14q0 9 -11 15zM215 198q0 -9 11 -14v27q-11 -3 -11 -13zM225 114q-6 0 -17 3t-11 6v2l5 14q0 1 1 1l3.5 -1.5t8.5 -3.5t10 -3v33l-4.5 2t-5.5 2.5t-5 3t-5.5 4.5t-4 5t-3.5 7t-1 8q0 16 10 23.5t19 8.5v8
q0 3 3 3h3q4 0 4 -3v-8q6 -1 15.5 -3.5t9.5 -6.5v-2l-5 -11q-1 -1 -2 -1l-3 1.5t-7.5 3t-7.5 1.5v-30l3.5 -2t4.5 -2.5t4 -2.5t4 -3t3.5 -3t3.5 -4l2.5 -5t2 -6t0.5 -6q0 -28 -28 -33v-7q0 -3 -4 -3h-3q-3 0 -3 3v7z" />
    <glyph glyph-name="uniF157" unicode="&#xf157;" horiz-adv-x="414" 
d="M23 321v-188h-23v211h331v-23h-308zM64 279v-188h-23v211h331v-23h-308zM395 68v173h-294v-173h294zM83 260h331v-211h-331v211zM148.5 139q-0.5 0 -2 2t-2.5 5.5t-1 8.5t1 8.5t2.5 5.5t2.5 2q6 0 6 -16q0 -5 -1.5 -8.5t-3 -5.5t-2 -2zM348 139q-1 0 -2.5 2t-2.5 5.5
t-1 8.5t1 8.5t2.5 5.5t2.5 2t2 -2t2.5 -5.5t1.5 -8.5t-1.5 -8.5t-2.5 -5.5t-2 -2zM134 155q0 -10 4 -17.5t11 -7.5q4 0 7.5 3.5t5.5 9t2 12.5q0 10 -4.5 17.5t-11 7.5t-10.5 -7.5t-4 -17.5zM188 155q0 -50 32 -73h-105v145h104q-31 -23 -31 -72zM348 180q-4 0 -7.5 -3.5
t-5.5 -9t-2 -12.5q0 -10 4.5 -17.5t10.5 -7.5t10.5 7.5t4.5 17.5t-4.5 17.5t-10.5 7.5zM278 227h103v-145h-105q33 23 33 73q0 49 -31 72zM252 145v-26q10 2 10 12q0 8 -10 14zM235 178q0 -8 10 -12v24q-10 -3 -10 -12zM244 103q-6 0 -16 2.5t-10 5.5l1 1l4 12q0 2 1 2
l3 -1.5t8 -3.5t9 -2v29l-4 2l-5 2.5l-5 2.5t-5 3.5l-3 4.5t-3 6.5t-1 7.5q0 14 9 21t17 8v7q0 3 3 3h3q3 0 3 -3v-7q5 -1 14 -3.5t9 -5.5q0 -1 -1 -2l-4 -10q-1 -1 -2 -1l-3 1.5t-6.5 3t-6.5 1.5v-28l3 -1.5l4 -2t3.5 -2t3.5 -2.5t3.5 -3t3.5 -4l2 -4t1.5 -5t0.5 -6
q0 -25 -25 -29v-7q0 -3 -3 -3h-3q-3 0 -3 3v7z" />
    <glyph glyph-name="uniF158" unicode="&#xf158;" horiz-adv-x="404" 
d="M401 254q3 -3 2.5 -6.5t-2.5 -6.5q-1 -2 -4 -4l-45 -30q-2 -1 -2 -5v-1l20 -60q1 -3 1 -5q0 -4 -2 -7q-3 -4 -7 -4h-1q-4 1 -8 4l-47 39q-1 1 -2.5 1t-2.5 -1l-44 -39q-5 -3 -9 -3q-5 -1 -8 3q-1 3 -2 7q0 2 1 5l18 60v1q0 4 -2 5l-46 30l-4 4q-2 3 -2 6.5t2 6.5q2 2 4 3
q3 1 6 1h57q1 0 2.5 1t1.5 3l17 60l2 6q3 4 8 4t8 -4q2 -3 3 -6l16 -60q0 -2 2 -3q1 -1 3 -1h56q3 0 5 -1q3 0 5 -3zM118 169l-2 -95q47 6 47 45q0 19 -11.5 30t-33.5 20zM95 223l3 91q-49 -3 -49 -41q0 -19 11.5 -30t34.5 -20zM10 102q31 -26 82 -29l2 106q-18 7 -31 13.5
t-27.5 17t-22 26t-7.5 34.5q0 33 23 55.5t70 26.5l1 48h24l-1 -48q13 0 25.5 -2t21 -4.5t15.5 -4.5t10 -4l4 -2l-13 -37q-27 13 -64 16l-3 -100q87 -32 87 -94q0 -35 -24.5 -57t-67.5 -26l-1 -48h-23l1 47q-26 1 -48.5 7.5t-32.5 12.5l-10 7z" />
    <glyph glyph-name="uniF159" unicode="&#xf159;" horiz-adv-x="297" 
d="M297 147l-148 -149l-149 149h68v56h161v-56h68zM68 228v46h161v-46h-161zM229 297h-161v37h161v-37z" />
    <glyph glyph-name="uniF15A" unicode="&#xf15a;" horiz-adv-x="499" 
d="M3 -50q6 -6 12 -2l114 57l-71 71l-57 -114q-3 -7 2 -12v0zM461 332l-75 76l22 22q16 16 38 16t37.5 -15.5t15.5 -37.5t-15 -38zM146 18l-75 75l300 300l75 -76z" />
    <glyph glyph-name="uniF15B" unicode="&#xf15b;" horiz-adv-x="495" 
d="M4 -25l-4 -16l16 4l134 31l3 1l2 2l324 319q16 15 16 36.5t-16 36.5l-44 43q-15 15 -36.5 15t-36.5 -15l-324 -319l-2 -2l-1 -3zM28 -13l27 113l322 318q9 9 22 9t22 -9l44 -44q9 -9 9 -21.5t-9 -21.5l-322 -318zM458 309l7 7l-103 102l-7 -8l-8 -7l103 -101zM428 280
l7 7l-103 102l-7 -7l-7 -8l103 -101zM153 9l8 8l-103 101l-7 -7l-8 -8l103 -101z" />
    <glyph glyph-name="uniF15C" unicode="&#xf15c;" horiz-adv-x="513" 
d="M192 405q62 0 106 -43.5t44 -105.5t-44 -106t-106 -44t-105.5 44t-43.5 106t43.5 105.5t105.5 43.5zM192 63q68 0 121 43l163 -165q7 -6 15.5 -6t15 6.5t6.5 15t-6 15.5l-164 164q42 53 42 120q0 79 -56.5 135.5t-136 56.5t-136 -56.5t-56.5 -135.5q0 -52 26 -96.5
t70 -70.5t96 -26v0z" />
    <glyph glyph-name="uniF15D" unicode="&#xf15d;" horiz-adv-x="413" 
d="M207 141l6 3l137 59l19 -39q-24 0 -64.5 -18t-69.5 -36l-28 -17q-69 45 -125 63q1 9 -5 18l5 20l118 -50zM57 225l5 -2v-1l-1 1zM206.5 259q19.5 0 19.5 -10t-19.5 -10t-19.5 10t19.5 10zM49 81q-2 -8 -1 -28q-10 2 -11 9q0 5 -3.5 21t-4 24.5t5.5 23.5l10 5q4 1 8 1
t8 -2q1 0 2 -1l9 -5q6 -18 -1 -32q-5 -8 -6 -18t-0.5 -15t-1.5 -8q-3 -2 -8 -3q-2 7 -3 20l-1 10q-1 0 -2 -2zM57 225l-3 1l-54 23l207 89l206 -89l-206 -88l-133 56q20 14 108 21q8 -9 25 -9q12 0 20.5 5.5t8.5 14.5t-8.5 14.5t-20.5 5.5q-7 0 -12.5 -1.5t-9 -4t-6 -6.5
t-2.5 -8v-1q-95 -3 -115 -26zM53 149q-6 0 -12 -2l3 14q0 7 8 11l10 50l12 -5l-9 -46q6 -8 5 -14l-1 -12q-2 1 -4 1q-6 3 -12 3z" />
    <glyph glyph-name="uniF15E" unicode="&#xf15e;" horiz-adv-x="413" 
d="M352 347q9 -4 17.5 -9.5t14.5 -11t11 -11.5t8.5 -11.5t5.5 -10t3 -7l1 -2.5v-245q-1 2 -3 7t-11 17t-19.5 21t-29.5 16.5t-40 7.5t-39.5 -7t-30 -17.5t-19.5 -20.5t-11 -17l-3 -7q-1 1 -2 3.5t-5.5 10t-10 14t-14.5 14.5t-19 14t-24 9.5t-29 3.5q-20 0 -38.5 -7
t-29.5 -17t-19.5 -20.5t-11.5 -17.5l-4 -7v247q1 3 3 7.5t10.5 16.5t19 21t29.5 16.5t41 7.5q17 0 31.5 -3.5t24.5 -10t18.5 -13.5t13.5 -14.5l9 -13.5t5 -10l2 -4q2 5 6 12.5t19.5 24t35.5 25.5v-180l42 45l42 -45v179z" />
    <glyph glyph-name="uniF15F" unicode="&#xf15f;" 
d="M383 321q0 -17 8 -26.5t13 -10.5t8 -1v-174h-2t-4 -0.5t-6 -2t-6.5 -4.5t-5.5 -6.5t-4 -10t-2 -13.5h-353q0 7 -1.5 13.5t-4 10t-5.5 6.5t-6.5 4.5t-6 2t-3.5 0.5h-2v174q3 0 7.5 1t12.5 10.5t9 26.5h354zM370 127v138q-19 8 -26 26h-277q-3 -8 -9.5 -15t-11.5 -9l-5 -2
v-138q19 -6 26 -26h277q3 9 9.5 15.5t11.5 8.5zM113 203l1 -1l3 -9h-7l3 9v1zM171.5 192q-0.5 -3 -2 -5t-4 -3t-5.5 -1h-1h-1h-1h-1v30h1h3q4 0 6 -1.5t3.5 -3.5t2 -4.5t0.5 -5.5t-0.5 -6zM329 270q8 -11 20 -19v-107q-13 -8 -21 -20h-244q-7 12 -20 20v106q12 8 20 20h245z
M134 172h3l-1 2l-17 49l-1 1h-1h-7h-1v-1l-17 -49l-1 -2h2h9h1l1 1l3 10h13l3 -10l1 -1h1h9zM183.5 188.5q1.5 4.5 1.5 9.5q0 6 -1.5 10.5t-4.5 8t-8 5.5t-12 2h-3h-3.5h-3.5q-2 -1 -4 -1h-1v-1v-48v-2h1h3h4h4q1 -1 3 -1q7 0 12 2.5t8 6.5t4.5 8.5zM245 222v0v1h-1h-9h-1
v-1l-12 -21l-1 -3l-1 2l-13 22l-1 1h-1h-8h-2v-1v-48v-2h2h9h1v2v25l10 -17l1 -1h1h3l1 1l10 17v-25v-2h1h10h1v2v48zM270 222v1h-1h-9h-2v-1v-48v-2h2h9h1v2v48zM321 222v1h-2h-37h-2v-1v-9v-1h2h12v-38v-2h2h9h2v2v38h12h2v1v9z" />
    <glyph glyph-name="uniF160" unicode="&#xf160;" 
d="M407.5 390q8.5 -14 0.5 -29l-173 -316h135q12 0 21 -8.5t9 -20.5q0 -8 -4 -14.5t-11 -10.5t-15 -4h-183h-1h-157q-16 0 -24.5 14.5t-0.5 28.5l196 359q9 15 26 15h157q16 0 24.5 -14zM169 45l84 155h-90l-85 -155h91z" />
    <glyph glyph-name="uniF161" unicode="&#xf161;" horiz-adv-x="415" 
d="M228 132l13 143h-63l13 -143h37zM209 67q8 0 14 3.5t9.5 9t3.5 12.5q0 10 -7.5 17.5t-19 7.5t-19 -7.5t-7.5 -17.5t7.5 -17.5t18.5 -7.5zM405 94q18 -29 5.5 -49.5t-48.5 -20.5h-308q-36 0 -49 20.5t5 49.5l154 247q19 29 44.5 29t43.5 -29z" />
    <glyph glyph-name="uniF162" unicode="&#xf162;" horiz-adv-x="319" 
d="M84 271q-7 -7 -16 -7t-15.5 7t-6.5 16t6 16l92 91q3 3 7.5 5t8.5 2t8 -2t7 -5l92 -91q7 -7 7 -16t-7 -16t-16 -7t-16 7l-53 53v-242h-22h-23v242zM274 128h45v-91v-46h-273h-46v137h46v-91h228v91z" />
    <glyph glyph-name="uniF163" unicode="&#xf163;" horiz-adv-x="420" 
d="M294 234h126v-252h-420v252h126v-42h-84v-168h336v168h-84v42zM168 108v168h-84l126 126l126 -126h-84v-168h-84z" />
    <glyph glyph-name="uniF164" unicode="&#xf164;" horiz-adv-x="461" 
d="M453 202l8 -10l-8 -10q-5 -7 -13 -16t-31.5 -30t-48 -37t-60 -29t-69.5 -13q-29 0 -58.5 8.5t-53.5 23t-43.5 28.5t-35.5 30.5t-22 23t-10 11.5l-8 10l8 10q5 6 13.5 15.5t31.5 30.5t47.5 37t60 29t70 13t70 -13t60 -29t48 -37t31.5 -30.5t13 -15.5zM115 131
q-16 28 -16 61t16 61q-39 -25 -72 -61q33 -36 72 -61zM230.5 94q40.5 0 69.5 28.5t29 69.5t-29 69.5t-69.5 28.5t-69 -28.5t-28.5 -69.5t28.5 -69.5t69 -28.5zM347 131q38 25 71 61q-33 36 -71 61q15 -28 15 -61t-15 -61zM231 242q13 0 25 -6.5t18.5 -18t6.5 -25.5
q0 -21 -14.5 -35.5t-35.5 -14.5t-36 14.5t-15 35.5v5h5q15 0 26 10.5t11 25.5v4l-1 5h5h5z" />
    <glyph glyph-name="uniF165" unicode="&#xf165;" horiz-adv-x="335" 
d="M251 78h-168v30h168v-30zM251 133h-168v30h168v-30zM251 188h-168v30h168v-30zM210 358h-170v-332h255v246h-85v86zM235 398l100 -101v-311h-335v412h235z" />
    <glyph glyph-name="uniF166" unicode="&#xf166;" horiz-adv-x="317" 
d="M0 358h317l-129 -219v-129l-60 44v85z" />
    <glyph glyph-name="uniF167" unicode="&#xf167;" horiz-adv-x="469" 
d="M449 -34v254h-429v-254h429zM0 -53v293h469v-293h-469zM98 162q7 -1 12.5 -6.5t5.5 -13.5t-5.5 -13.5t-12.5 -6.5q-8 1 -13.5 6.5t-5.5 13.5t5.5 13.5t13.5 6.5zM234.5 162q28.5 0 48.5 -20.5t20 -48.5q0 -18 -9.5 -34t-25 -25t-34 -9t-34.5 9t-25 25t-9 34q0 28 20 48.5
t48.5 20.5zM371 64q8 0 13.5 -6t5.5 -13.5t-5.5 -13.5t-13.5 -6t-13.5 6t-5.5 13.5t5.5 13.5t13.5 6zM88 -14h293q20 0 34.5 14t14.5 35v117q0 20 -14.5 34.5t-34.5 14.5h-293q-13 0 -24.5 -6.5t-18 -18t-6.5 -24.5v-117q0 -14 6.5 -25t18 -17.5t24.5 -6.5zM220 267l-87 87
q-2 3 -2 7q0 9 9 9q4 0 7 -2l70 -70v140q1 10 10 10t9 -10v-140l71 70q3 2 6 2q10 0 10 -9q0 -4 -3 -7l-86 -87q-3 -2 -7 -2t-7 2z" />
    <glyph glyph-name="uniF168" unicode="&#xf168;" horiz-adv-x="512" 
d="M0 448h512v-320h-192v21h171v278h-470v-278h22v-21h-43v320zM320 171v10q0 54 -139 54q-111 0 -133 -34q-5 11 -5 23v128q0 22 15.5 37.5t37.5 15.5h320q22 0 37.5 -15.5t15.5 -37.5v-128q0 -22 -15.5 -37.5t-37.5 -15.5h-96zM106.5 320q8.5 0 15 6.5t6.5 15t-6.5 15
t-15 6.5t-15 -6.5t-6.5 -15t6.5 -15t15 -6.5zM245.5 245q26.5 0 45 19t18.5 45.5t-18.5 45t-45 18.5t-45.5 -18.5t-19 -45t19 -45.5t45.5 -19zM405.5 256q-8.5 0 -15 -6.5t-6.5 -15t6.5 -15t15 -6.5t15 6.5t6.5 15t-6.5 15t-15 6.5zM181 -21q47 0 88 6q18 3 30 7v-24
q0 -32 -117.5 -32t-117.5 32v24q11 -4 30 -7q40 -6 87 -6zM181 149q47 0 88 7q18 3 30 6v-20q-10 -5 -44.5 -9.5t-73.5 -4.5t-73.5 4.5t-43.5 9.5v20q11 -3 30 -6q40 -7 87 -7zM298 185q-6 -3 -23 -6.5t-42.5 -5.5t-51.5 -2q-38 0 -72 4.5t-45 9.5q8 28 117.5 28t116.5 -28z
M181 21q47 0 88 7q18 3 30 6v-20q-10 -5 -44.5 -9.5t-73.5 -4.5t-73.5 4.5t-43.5 9.5v20q11 -3 30 -6q40 -7 87 -7zM181 107q47 0 88 6q18 3 30 7v-20q-10 -5 -44.5 -10t-73.5 -5t-73.5 5t-43.5 10v20q11 -4 30 -7q40 -6 87 -6zM181 64q47 0 88 6q18 3 30 7v-20
q-10 -5 -44.5 -9.5t-73.5 -4.5t-73.5 4.5t-43.5 9.5v20q11 -4 30 -7q40 -6 87 -6z" />
    <glyph glyph-name="uniF169" unicode="&#xf169;" horiz-adv-x="512" 
d="M501 -43q3 0 5.5 -1.5t4 -3.5t1.5 -5q0 -5 -3 -8t-8 -3h-490q-5 0 -8 3t-3 7.5t3 7.5t8 3h10v96q0 5 3.5 8t7.5 3h64q4 0 7.5 -3t3.5 -8v-96h42v203q0 4 3.5 7.5t7.5 3.5h64q4 0 7.5 -3.5t3.5 -7.5v-203h42v160q0 5 3.5 8t7.5 3h64q4 0 7.5 -3t3.5 -8v-160h42v310
q0 4 3.5 7t7.5 3h64q4 0 7.5 -3t3.5 -7v-310h10z" />
    <glyph glyph-name="uniF16A" unicode="&#xf16a;" horiz-adv-x="512" 
d="M501 -43q5 0 8 -3t3 -7.5t-3 -7.5t-8 -3h-21h-64h-64h-64h-64h-64h-64h-64h-21q-5 0 -8 3t-3 7.5t3 7.5t8 3h10v96q0 5 3.5 8t7.5 3h64q3 0 5.5 -1.5t4 -4t1.5 -5.5v-96h42v203q0 4 3.5 7.5t7.5 3.5h64q4 0 7.5 -3.5t3.5 -7.5v-203h42v160q0 5 3.5 8t7.5 3h64q4 0 7.5 -3
t3.5 -8v-160h42v310q0 4 3.5 7t7.5 3h64q4 0 7.5 -3t3.5 -7v-310h10zM43 -43h42v86h-42v-86zM171 -43h42v192h-42v-192zM299 -43h42v150h-42v-150zM427 -43h42v299h-42v-299z" />
    <glyph glyph-name="uniF16B" unicode="&#xf16b;" horiz-adv-x="492" 
d="M172 115q69 0 115 52q9 -5 19 -8q-52 -64 -134 -64q-71 0 -121.5 50.5t-50.5 121.5t50.5 121t121.5 50q48 0 88.5 -24.5t62.5 -64.5q-10 -1 -20 -5q-20 34 -55 54t-76 20q-63 0 -107.5 -44.5t-44.5 -106.5q0 -42 20.5 -77t55.5 -55t76 -20zM335 174q29 0 52 20
q9 -6 20 -8q-30 -32 -72 -32q-13 0 -29 5q-10 3 -19 8q-15 8 -26.5 21t-18 29.5t-6.5 34.5q0 32 19 57t48 35q10 4 20 5t12 1q42 0 72 -32q-11 -2 -20 -8q-23 20 -52 20h-1.5h-1.5q-9 0 -20 -3q-16 -5 -28.5 -16t-20 -26.5t-7.5 -32.5q0 -22 12 -41t31 -29q10 -5 19 -6.5
t17 -1.5zM423 321q29 0 49 -20.5t20 -48.5t-20 -48.5t-49 -20.5q-7 0 -16 3q-11 2 -20 8q-33 20 -33 58t33 58q9 6 20 8q9 3 16 3zM423 203q14 0 25 6.5t18 18t7 24.5q0 20 -14.5 34.5t-35.5 14.5h-1.5h-1.5q-10 -1 -20 -6q-26 -14 -26 -43t26 -43q10 -5 20 -6h1.5h1.5z" />
    <glyph glyph-name="uniF16C" unicode="&#xf16c;" horiz-adv-x="492" 
d="M20 289q0 54 37 91.5t89.5 37.5t90 -37.5t37.5 -91.5t-37.5 -91.5t-90 -37.5t-89.5 37.5t-37 91.5zM0 289q0 -62 43 -105.5t103.5 -43.5t103.5 43.5t43 105.5q0 41 -19.5 75t-53 54t-73.5 20q-61 0 -104 -43.5t-43 -105.5zM343 352.5q0 27.5 19 46.5t46 19t46 -19
t19 -46.5t-19 -47t-46 -19.5t-46 19.5t-19 47zM323 352.5q0 -35.5 25 -60.5t60 -25q23 0 42.5 11.5t30.5 31t11 42.5q0 36 -24.5 61t-59.5 25t-60 -25t-25 -60.5zM318 175q0 11 5.5 20.5t14.5 15t20 5.5q17 0 28.5 -12t11.5 -29q0 -11 -5.5 -20.5t-14.5 -15t-20 -5.5
q-16 0 -28 12t-12 29zM298 175q0 -16 8 -30t22 -22t30 -8q25 0 42.5 17.5t17.5 42.5q0 12 -5 23.5t-13 19.5t-19 13t-23 5q-25 0 -42.5 -18t-17.5 -43zM194 61q0 12 8 20t19.5 8t19.5 -8t8 -20t-8 -20t-19.5 -8t-19.5 8t-8 20zM174 61q0 -20 14 -34t33.5 -14t33 14t13.5 34
q0 13 -6 24t-17 17.5t-24 6.5t-23.5 -6.5t-17 -17.5t-6.5 -24z" />
    <glyph glyph-name="uniF16D" unicode="&#xf16d;" horiz-adv-x="492" 
d="M256 418v-268h-236v268h236zM266 438h-256h-10v-10v-287v-10h10h256h10v10v287v10h-10zM473 418v-137h-138v137h138zM482 438h-157h-10v-10v-157v-9h10h157h10v9v157v10h-10zM473 209v-59h-138v59h138zM482 229h-157h-10v-10v-78v-10h10h157h10v10v78v10h-10z" />
    <glyph glyph-name="uniF16E" unicode="&#xf16e;" horiz-adv-x="501" 
d="M331 21h-320q-5 0 -8 3.5t-3 7.5v77q0 4 3 7t8 3h320q4 0 7 -3t3 -7v-77q0 -4 -3 -7.5t-7 -3.5zM21 43h299v55h-299v-55zM267 160h-256q-5 0 -8 3t-3 7v77q0 5 3 8t8 3h256q4 0 7 -3t3 -8v-77q0 -4 -3 -7t-7 -3zM21 181h235v55h-235v-55zM491 298h-480q-5 0 -8 3t-3 8v76
q0 5 3 8t8 3h480q4 0 7 -3t3 -8v-76q0 -5 -3 -8t-7 -3zM21 319h459v56h-459v-56z" />
    <glyph glyph-name="uniF16F" unicode="&#xf16f;" horiz-adv-x="512" 
d="M501 213h-213q-4 0 -7.5 3.5t-3.5 7.5v213q0 5 3.5 8t7.5 3q93 0 158.5 -65.5t65.5 -158.5q0 -4 -3 -7.5t-8 -3.5zM299 235h191q-4 77 -59 132t-132 59v-191zM438.5 20q-4.5 0 -7.5 3l-151 151q-5 5 -2 11.5t10 6.5h213q5 0 8 -3t3 -8q0 -92 -66 -158q-3 -3 -7.5 -3z
M314 171l125 -125q48 53 51 125h-176zM224 -64q-93 0 -158.5 65.5t-65.5 158.5t65.5 158.5t158.5 65.5q4 0 7.5 -3t3.5 -8v-209l147 -147q8 -8 0 -15q-65 -66 -158 -66zM213 362q-80 -4 -136 -62.5t-56 -139.5q0 -84 59.5 -143.5t143.5 -59.5q78 0 136 52l-144 143
q-3 4 -3 8v202z" />
    <glyph glyph-name="uniF170" unicode="&#xf170;" horiz-adv-x="512" 
d="M501.5 224q4.5 0 7.5 -3t3 -8q0 -19 -12.5 -33.5t-30.5 -18.5q-2 -33 -17.5 -62.5t-41 -52.5t-58.5 -37v-62q0 -5 -3 -8t-7.5 -3t-7.5 3t-3 8v54q-37 -12 -75 -12q-39 0 -75 12v-54q0 -5 -3 -8t-7.5 -3t-7.5 3t-3 8v62q-67 28 -98 87h-51q-5 0 -8 3t-3 8v85q0 4 3 7.5
t8 3.5h35q15 68 80 111q-7 27 -30 40q-5 3 -5 9t5 9q20 12 43 12q44 0 70 -37q24 5 47 5q84 0 145.5 -49t67.5 -120q22 7 22 30q0 5 3 8t7.5 3zM128 181q9 0 15 6.5t6 15.5q0 4 -1.5 8t-4.5 7t-7 4.5t-8 1.5q-6 0 -11 -3t-7.5 -8t-2.5 -10q0 -9 6 -15.5t15 -6.5zM361 250
q6 8 -3 15q-50 37 -113 33q-11 0 -10.5 -11t11.5 -10q55 4 100 -30q2 -2 6 -2q5 0 9 5z" />
    <glyph glyph-name="uniF171" unicode="&#xf171;" horiz-adv-x="512" 
d="M245 298q63 4 113 -33q9 -7 3 -15q-4 -5 -9 -5q-4 0 -6 2q-45 34 -100 30q-11 0 -11 10q-1 11 10 11zM512 213q0 -19 -12.5 -33.5t-30.5 -18.5q-3 -46 -31.5 -85t-74.5 -62v-67q0 -5 -3.5 -8t-7.5 -3t-7.5 3t-3.5 8v58q-41 -16 -85 -16t-85 16v-58q0 -5 -3.5 -8t-7.5 -3
t-7.5 3t-3.5 8v67q-59 29 -87 82h-51q-5 0 -8 3t-3 8v85q0 4 3 7.5t8 3.5h35q15 68 80 111q-7 26 -30 40q-5 3 -5 9t5 10q20 11 43 11q44 0 70 -37q24 5 47 5q84 0 145.5 -49t67.5 -120q22 7 22 30q0 5 3 8t7.5 3t7.5 -3t3 -8zM256 11q79 0 135.5 46.5t56.5 113.5
q0 37 -20 70.5t-53.5 55t-77.5 30.5t-91 -2q-8 -2 -12 5q-10 19 -30.5 27.5t-40.5 3.5q21 -21 25 -50q1 -7 -5 -11q-67 -41 -78 -110q-1 -9 -10 -9h-34v-64h47q7 0 10 -6q22 -46 70.5 -73t107.5 -27zM107 203q0 9 6 15t15 6t15 -6t6 -15q0 -6 -2.5 -11t-7.5 -8t-11 -3
q-9 0 -15 6.5t-6 15.5z" />
    <glyph glyph-name="uniF172" unicode="&#xf172;" 
d="M0 -1l1 20q2 1 7 2t12 2q23 5 27 9q4 2 13 17l58 153l69 182h19h13l3 -5l50 -121q2 -4 7.5 -17.5t8.5 -20.5q8 -18 15 -36q5 -12 13 -33q6 -15 11 -26q2 -5 7 -17q4 -11 9 -24q6 -16 16 -37q6 -12 9 -14q5 -5 17 -6q6 -1 12 -3q5 -1 13 -4q2 -10 2 -14v-3q0 -1 -1 -4
q-9 0 -22 1q-14 0 -25 1t-25 2h-21h-20h-14l-50 -3h-14v10q1 4 1 9l32 7q15 3 17 6q3 2 3 7q0 3 -1 7l-12 29l-23 57h-111q-4 -8 -10 -24t-16 -44q-6 -16 -6 -21q0 -7 4 -11q4 -2 10.5 -4t15.5 -4q4 -1 21 -3v-14v-7q-9 0 -31 1q-21 1 -56 4l-12 -2q-11 -2 -21 -3t-20 -1h-5
zM137 163q29 0 55 -1h26l7 1q-4 13 -10 28t-13 32q-8 20 -13 31q-5 13 -9 22z" />
    <glyph glyph-name="uniF173" unicode="&#xf173;" horiz-adv-x="414" 
d="M76 240v83h20v-84q0 -4 -1 -9.5t-9 -14t-22 -8.5v-128h-32v127q-13 0 -21 8t-9 16l-1 9l-1 84h19v-83q0 -9 9 -9t9 9v83h21v-83q0 -9 9 -9t9 9zM365 242q0 17 2.5 30t7 21.5t9.5 14.5t10.5 9t9.5 4.5t7 1.5h3v-254h-32v95q-17 32 -17 78zM223.5 299q40.5 0 69.5 -28.5
t29 -69.5q0 -26 -13.5 -48.5t-36 -35.5t-48.5 -13q-41 0 -69.5 28.5t-28.5 69t28.5 69t69 28.5zM230.5 323q50.5 0 86 -35.5t35.5 -86.5q0 -25 -9.5 -47.5t-26 -38.5t-39 -26t-47.5 -10q-50 0 -86 36t-36 86.5t36 86t86.5 35.5zM230 97q43 0 73.5 30.5t30.5 73.5t-30.5 73.5
t-73.5 30.5t-73.5 -30.5t-30.5 -73.5t30.5 -73.5t73.5 -30.5z" />
    <glyph glyph-name="uniF174" unicode="&#xf174;" 
d="M206 398q85 0 145.5 -60.5t60.5 -145.5t-60.5 -145.5t-145.5 -60.5t-145.5 60.5t-60.5 145.5t60.5 145.5t145.5 60.5zM323 309q-45 45 -108 48.5t-110 -34.5l232 -232q38 47 34.5 110t-48.5 108zM88.5 74.5q44.5 -44.5 107.5 -48t111 33.5l-233 233q-37 -48 -33.5 -111
t48 -107.5z" />
    <glyph glyph-name="uniF175" unicode="&#xf175;" horiz-adv-x="358" 
d="M256 396h51v-49q0 -53 -38 -90l-144 -144q-20 -20 -22 -49h50l-76 -76l-77 76h52q2 50 37 85l144 144q23 22 23 54v49zM306 64h52l-77 -76l-77 76h51q-2 29 -22 49l-29 28l37 36l28 -28q35 -35 37 -85z" />
    <glyph glyph-name="uniF176" unicode="&#xf176;" horiz-adv-x="392" 
d="M162 262q-32 37 -58 52h176v38l112 -64l-112 -65v39h-118zM280 108v37l112 -64l-112 -64v39q-20 3 -39.5 15.5t-31.5 25t-30 34.5q-10 12 -28 36t-31.5 41.5t-25.5 28.5q-25 26 -42 25h-52v52h52q22 -1 44 -13.5t34 -25t32 -36.5q10 -13 27.5 -37t31.5 -41t26 -29
q18 -19 33 -24z" />
    <glyph glyph-name="uniF177" unicode="&#xf177;" 
d="M99 2zM99 2zM160 140v-6l-3 1q1 3 3 5zM118 214h-1v63l43 -12v-52q-14 0 -42 1zM202 147h7q6 0 12 1v-30l-45 12v20q19 -3 26 -3zM201 209q-6 2 -25 3v49l45 -13v-42q-2 0 -7 1q-9 1 -13 2zM342 146l-42 -11v130l42 12v-131zM251 192q-5 6 -14 10v46l47 13v-131l-47 -13
v35q16 7 18 21q2 11 -4 19zM164 302l-48 -14l45 -11l44 12q11 -4 19 -8l-39 -11l44 -12l48 13l-33 9q19 1 36 3l21 -6l41 11l-19 6q23 8 29 21q7 17 -8 35l-15 -12q8 -9 5 -15q-4 -10 -33 -17q-4 -1 -9 -2q4 3 7 6q13 13 12 31q-2 20 -20 26q-7 3 -14 3q-26 0 -44 -33
q-9 25 -21 37q-15 16 -33 16q-10 0 -19 -5q-21 -12 -15 -34q4 -14 19 -30q-38 8 -60 -2q-19 -8 -25 -28l18 -5q4 11 14 16q17 7 50 0q12 -2 3 0zM163 356q-2 8 6 12q5 3 10 3q10 0 19 -10q14 -14 23 -44l-18 -5q-34 23 -40 44zM262 311l-18 5q14 35 32 35q4 0 9 -1
q6 -3 7 -11q1 -12 -10 -19q-8 -5 -20 -9zM37 205q6 -1 30 -2.5t50 -2.5t50.5 -2t30.5 -3q4 -1 11.5 -2t12.5 -2t10 -2.5t7.5 -5t1.5 -8.5q-1 -7 -10.5 -10.5t-19.5 -3.5h-9q-5 0 -25 3q-6 1 -12.5 -2t-11 -8t-7.5 -9.5t-4 -7.5q-2 -8 11.5 -18.5t28.5 -15.5q17 -7 35 -6
q15 1 45 9.5t69 21.5t51 16q19 5 27.5 -1.5t-13.5 -20.5q-15 -10 -62.5 -32.5t-87.5 -41.5l-40 -18q-1 -1 -4.5 -2.5t-13 -5t-18.5 -4.5t-20.5 1.5t-20.5 9.5q-9 8 -43 35.5t-58 47.5t-27 25t2 22.5t15 32.5t19 13zM199 51zM199 51z" />
    <glyph glyph-name="uniF178" unicode="&#xf178;" horiz-adv-x="410" 
d="M306 247q0 2 4 11q4 1 4 -3q1 0 1 -1t2 0q1 1 3 0q1 0 2 -0.5t2 -0.5l2.5 -2t2.5 -4q1 -1 -3 -3q-2 0 -3.5 1.5l-1.5 1.5q-1 -1 -2 0q0 -1 -5.5 -1.5t-7.5 -0.5q1 2 0 2zM339 99q31 43 31 97q0 6 -1 14q-3 -1 -6 0q-2 0 -7 2.5t-8 1.5q0 3 -4 6q-2 2 -2 0q-2 -2 2 -5
q0 -2 1 -3t0.5 -2l-0.5 -1q2 0 2 3h1v-3l1 -1v-1q4 0 6 5q1 -1 1 -2v-1q2 -2 1 -3l2 1q2 -1 2 -3t-2 -3q0 -1 -0.5 -2t-0.5 -2q0 -2 -2 -3l-4 -2.5t-3 -3.5q-6 0 -8 -3q-4 0 -5 -2q-3 0 -4.5 3l-1.5 3l-1 2l-1 3t-2.5 6.5t-1.5 4.5q-2 1 -3 5q-2 1 -3 6q-4 2 -5 6q5 0 5 2
l-1 2q0 1 1 3l1 1q1 4 1 6q-2 0 -4 -1h-4q0 1 -3 0.5t-4 0.5t-3 7q0 1 -3 2t-2 -4l1 -1q1 0 -1 -2l-1 -2q-2 0 -3 2.5t-1 3.5q-1 2 -2 2q0 4 -1 4l-1 1l-2 1q-1 0 -4 3t-4 2t0 -2l1 -1q1 0 2.5 -2.5t3.5 -1.5v-3q2 1 2.5 0t1.5 -1q-1 -1 -1.5 -1t-0.5 1q-2 0 -1 -1
q0 -3 -2 -5q0 7 -2 7q-1 1 -3.5 2t-2.5 2q-1 0 -2 2t-2 2q-1 -1 -2 -1q-1 -2 -7 -1h-1q-2 0 -4 -10q0 -1 -1 -2l-2 -2q0 -1 -4 -1l-3 -1q-6 2 -6 7l0.5 2t0.5 4.5v2.5q1 0 2 -1q0 1 2 1l4 1q3 0 1 -2q5 -1 5 1q-1 0 -1 2q2 2 -0.5 5l-2.5 3l-1 2q3 -1 4 1l2 -1h1l1 2
q1 1 1 2v1q2 -1 2 1q0 1 1 1h1l2 2q1 0 3 0.5t2 1.5q-1 1 -1 6l0.5 0.5t1.5 0.5q2 1 2 0l1 -3q2 -1 2 2q-2 0 -2 5q-3 0 -3 -1q-1 0 -3.5 0.5t-3.5 0.5q-2 4 -3 4q-1 1 2 2q0 1 6 2.5t6 4.5q-3 0 4 6q4 4 6 4q1 0 5.5 1t7 1.5t3.5 -0.5l11 -1l2.5 -0.5l2.5 -0.5q2 1 6 -1
t4 -3q-2 0 -6.5 -0.5t-6.5 -0.5v-1q1 0 2.5 -2.5t1.5 -3.5q1 0 2.5 1l1.5 1q1 -1 3 0q-1 1 0 2q0 1 2 1t2 2q-50 59 -126 59q-65 0 -113 -45q0 1 4 2v-4q2 0 2 -4q4 0 4 -1q-1 0 -2 1q-1 -3 -4 -2l-4 1q0 -1 1 -2l0.5 -1t1.5 -1q2 -1 6 -1q1 -1 2.5 -0.5l1.5 0.5h1v2
q1 2 -1 2h5q1 1 1 2v2q1 1 2 1t2 1q2 -1 2 -2l6 -3q3 -1 3 -6q3 0 3 5v1v1q1 0 2 -0.5t1 0.5v-1h2.5h1.5q1 0 0 -5q0 -1 -2 -2l-1 -1q-1 -2 5 -5h-4h-2q-4 -1 -5 0q2 0 3 5q-4 1 -5 -3q0 -1 -1.5 -1t-2.5 -1l-4 -1q-4 -1 -4 -9q6 -3 6 -5q1 0 4 -0.5t5 -1.5q0 -1 2 -1
q0 -2 4 -2q0 1 3 -4q1 0 1 -4v0q4 -2 5 1q-1 0 -1 3q-1 1 -1 2.5t1 1.5l2 2q2 4 0 6l-1 0.5l-1 0.5q1 1 1 7h1h1h2q2 -1 3 -1t2 1q1 0 2 -1.5t2 0.5q0 -1 2 -3t3 -2q0 -2 1 -2h-0.5t-0.5 -1q3 0 3 1q3 0 3 4q1 0 2 -3l3 -3l1 -2l3 -3q1 -2 1 -3q1 0 1 1l1 1v-2q3 0 4 -3
q-1 0 -1 -1v-1h-6q0 -2 -2.5 -2.5t-5.5 0t-5 -0.5t-5 -4t-3 -5q2 0 4 2q2 1 3 2q1 0 2.5 0.5t2.5 0.5v0q-3 0 0 -5q1 -2 4 -2q0 -1 -1.5 -1t-1.5 -1l-2 -1h-3l1 1h2q-1 1 -1 2q-1 0 -2.5 -1t-2.5 -1q-1 -2 -3 -2q-1 -4 -3 -5l-3 -3q-2 -3 -3 -3q-1 -1 -1 -5q-1 0 -1 -2
q-2 -4 -4 -4q-1 -1 -3 -2.5t-2 -4.5q1 -1 2 -8q1 -4 -2 -4l-1 3q0 3 -2 6q-1 1 -2.5 0.5t-2.5 0.5t-7 1l1 -1l1 -1q-3 -1 -4 -1t-2 1t-3 1q-7 -1 -7 -8v-4v-4q0 -1 1 -3t1 -3q1 0 3 -2t3 -2v-1v-1h2v1q2 1 2 2q-1 1 1 3q1 0 3 1l3 1l1 -1q-1 0 -1.5 -1t-1.5 -1q0 -1 -1 -3
v-2q0 -1 0.5 -2.5t0.5 -2.5h3h3v2q1 0 1 -3t1 -3q0 -2 0.5 -3.5t0.5 -2.5q2 -2 2 -4q5 -1 5 2q4 0 3 -4q3 0 3.5 2.5l0.5 2.5q1 2 2 1l2 1l2 1q1 0 1 -1q2 0 4 2q1 0 2 -2t3 -3q6 0 6 1q1 0 2 -1q1 0 1 -1h1v-1l2 -2l1 -0.5t1 -1.5q1 0 1 -0.5t1 -1.5l4 -1h2h1l1 -1
q1 -1 2 -4q2 -1 2 -5v-4h3q1 0 2 -1l2 -1h2q2 0 1 -5q2 0 3 0.5t2 0.5h3q3 -1 6 -3q3 -3 3 -7.5t-2 -6.5q0 -1 -2 -3l-2 -2v-6q0 -7 -2 -7q0 -2 -1 -4q-2 -1 -2 -3l-2 -1l-5 -3l-1 -0.5t-2 -0.5q-1 -3 -3 -3v-3v-5l-2 -2l-0.5 -0.5t-1.5 -0.5q-4 0 -4 -4t-3 -5
q0 -1 -1.5 -1.5t-1.5 -1.5v-5q-3 1 -4 -1q-3 0 -6 -2v-2q0 -2 -1.5 -2h-2.5q1 -1 1 -3q0 -1 -3 -4l-1 -2l-1 -1l-0.5 -2l-0.5 -2l1 -1v-1l0.5 0.5l0.5 0.5h1l-2 -2t-1 -2q-4 -1 -2 -5q0 -1 1 -3q-8 2 -13 4q-1 19 1 19q0 4 2 4v7l1 6q1 1 1.5 4t0.5 6t0.5 5.5l0.5 2.5
q0 2 1 10t0 10l-4 4q-2 0 -4 3.5t-2 5.5q-2 4 -2 5q1 0 -0.5 2.5t-3 4.5l-1.5 2q-2 2 -1 5q1 2 1 3q-2 1 -1 5t3 4q0 2 1 3l2 1v2q-1 4 0 4q0 3 -1.5 5t-3.5 -2l-2 0.5t-3.5 1.5t-1.5 2q0 3 -4 5q0 2 -3 4.5t-5 2.5l-0.5 0.5t-1.5 0.5t-2.5 1.5t-2.5 1.5q-2 0 -5 1.5t-4 1.5
q-1 1 -4 1l-3 2q-3 0 -3 6q0 9 -5 9q0 1 -2 3t-3 2q0 3 -2 3q0 4 -4 5q-1 -1 1 -3l2 -3l3 -4l1 -2q2 -5 1 -5q-3 0 -6 6q-3 2 -3 7l-3 6q0 5 -6 5l-3 5q0 4 -4 6q0 1 -0.5 4t0.5 5q0 12 -5 16q-16 -34 -16 -71q0 -69 48.5 -118t116.5 -49q40 0 74.5 18t58.5 49
q-5 -1 -5.5 8.5t1.5 12.5q2 -2 3 0q-2 0 -1 3q5 -4 5 1v1q2 0 2 2.5v2.5q0 -5 2 -6q1 -1 -0.5 -2t-1.5 -2v-3h-2q0 -1 -0.5 -3.5t-0.5 -4.5zM341 256q1 0 2.5 1.5t2.5 1.5q2 1 3 -1q0 -2 1 -2l-1 -1h-1q-1 -1 -3 -1l0.5 -1.5l0.5 -1.5l2 -3h2q0 -1 1 -2.5l1 -1.5h-1.5h-1.5
q0 -1 0.5 -2l0.5 -1q1 0 0.5 -2.5t1.5 -2.5q-1 -2 -3.5 -1.5t-2.5 2.5q-3 1 -3 5q1 1 1 2q0 2 -2 4l-1 3q-2 0 -1 4zM205 403q85 0 145 -61t60 -146.5t-60 -146t-145 -60.5t-145 60.5t-60 146t60 146.5t145 61zM233 301q-2 -2 -2 -1t-0.5 1.5t-1.5 -0.5q-1 0 -3 -1
q-4 -1 -4 0v1l-1 1l-3 -1q1 -1 0 -3q1 0 2.5 -0.5t2.5 -0.5h5q3 0 5 1v3zM250 277q0 1 -0.5 2t-0.5 2q-1 2 0.5 2t2.5 2v-2v-1v-1q1 0 2 1l1 1v-4q2 -2 2 -3q3 0 2 -5q1 0 1 1v-2q-1 -2 -7 -2q0 2 -2 1v4q2 0 2 1q0 3 -3 3zM242 270q-1 0 0 4q0 1 3 2q-2 0 -1 1h1h1
q3 0 2 -2q-2 -5 -6 -5zM250 267q0 -1 0.5 -1t0.5 1h-1zM172 256q2 0 2 2q-2 -1 -2 -2zM273 250l-1 -3l-1 2q2 0 2 1zM272 246v-4h-1q0 3 1 3v1zM283 239q-2 -1 -3 -1q-2 1 -2 0zM336 177q3 0 3 1q4 0 8 1q0 -2 -1.5 -4.5t-1.5 -4.5q-1 0 -1 -3l-1 -1q-1 -2 -2 -2q0 -1 -3 -4
q-1 -1 -1 -2l-2.5 -2t-2.5 -4l-5 -6v-13l0.5 -3t1 -4.5t-0.5 -2.5q0 -1 -1 -3.5t-1 -3.5l-1 -0.5t-1 -1.5q-1 0 -2 -1.5t-2 -1.5q0 -2 -0.5 -5.5t-0.5 -5.5l-1 -4q-1 -2 -1 -3q-7 -4 -7 -8l-4 -6q-9 0 -9 -2h-7q0 1 -1 3v3q-1 0 -1.5 2l-0.5 2l-2 4l-3 7q0 5 -1 5
q0 1 -1 4.5t-1 5.5q-3 0 -2 8q0 1 0.5 3l1 4t0.5 3q1 5 -1 12q-2 0 -2 3q-3 2 -3 7q3 3 1 10q-1 1 -6 1q-1 1 -17 1q-1 -2 -9 2q-1 0 -3.5 2.5t-2.5 3.5q-5 4 -5 11q-2 2 -1 5q1 1 -1 6l0.5 1.5t0.5 2.5q0 5 2 9t3 4q0 2 1 2t2 1l1.5 2l1.5 2q1 1 0 2q2 0 2 5q1 2 3 2
q2 2 3 2q1 2 3 2q0 1 5 1q2 3 7 3q0 1 2 1t5 -0.5t4 -0.5t3 -4.5t2 -5.5h2h2q0 -2 5 -2q8 -1 8 3q3 0 3 -3q12 -1 11 -3q1 0 2 -1.5t2 -1.5q0 -1 1 -3.5t3 -2.5q0 -4 2 -6q2 -7 6 -9l2 -5l1 -4q0 -9 6 -9v-1zM133 205h-1q-1 -1 0 -1l2 1q-1 -1 -1 0zM141 205q1 0 3 -2
q2 -1 3 -1q2 -3 1 -3q-4 0 -6 3q-3 0 -5 2q3 0 4 1zM157 198v-1q-1 0 -2.5 0.5t-2.5 0.5q1 -3 1 -2q0 -1 -2 -0.5l-2 0.5q1 -1 3 -1h2h6q0 2 -3 3zM142 196q0 -2 2 -2q0 1 -2 2zM144 194h2q0 2 -0.5 1.5zM164 196q0 -1 1 -1q0 1 -1 1zM163 196v-1h1q0 1 -1 1zM155 182h1
l-1 1v-1zM342 125q1 -1 0 1v-1z" />
    <glyph glyph-name="uniF179" unicode="&#xf179;" horiz-adv-x="410" 
d="M51 400q21 0 36 -15t15 -36t-15 -36t-36 -15q-14 0 -25.5 6.5t-18.5 18.5t-7 26q0 21 15 36t36 15zM51 93q21 0 36 -15t15 -36.5t-15 -36.5t-36 -15t-36 15t-15 37q0 13 7 25t18.5 19t25.5 7zM51 246q21 0 36 -15t15 -36t-15 -36t-36 -15t-36 15t-15 36t15 36t36 15z
M205 400q21 0 36 -15t15 -36t-15 -36t-36 -15q-14 0 -26 6.5t-18.5 18.5t-6.5 26q0 21 15 36t36 15zM205 93q21 0 36 -15t15 -36.5t-15 -36.5t-36 -15q-14 0 -26 7t-18.5 19t-6.5 25.5t6.5 25.5t18.5 19t26 7zM205 246q21 0 36 -15t15 -36t-15 -36t-36 -15t-36 15t-15 36
t15 36t36 15zM358.5 400q21.5 0 36.5 -15t15 -36t-15 -36t-36.5 -15t-36.5 15t-15 36t15 36t36.5 15zM358.5 93q21.5 0 36.5 -15t15 -36.5t-15 -36.5t-36.5 -15t-36.5 15t-15 36.5t15 36.5t36.5 15zM358.5 246q21.5 0 36.5 -15t15 -36t-15 -36t-36.5 -15t-36.5 15t-15 36
t15 36t36.5 15z" />
    <glyph glyph-name="uniF17A" unicode="&#xf17a;" horiz-adv-x="313" 
d="M133 -9q-20 2 -34 16.5t-14 34.5q0 33 24 107l-65 9q-19 1 -31.5 14t-12.5 31q0 21 16 34q-3 9 -3 17q0 21 16 35q-3 8 -3 17q0 29 27 41q-1 5 -1 10q0 19 13.5 32t32.5 13h72q59 0 101 -41.5t42 -99.5q0 -63 -47 -106l-2 -1l-61 -45l-28 -55l-6 -41q-1 -10 -8.5 -16
t-16.5 -6h-7h-4zM46 184l98 -13q-33 -90 -33 -129q0 -10 7 -17.5t17 -7.5h2h7l6 45l33 64l65 49q39 34 39 86q0 48 -34.5 81.5t-82.5 33.5h-72q-8 0 -14 -5.5t-6 -13.5q0 -5 3 -9.5t7.5 -7t9.5 -2.5h6q7 0 7 -6.5t-7 -6.5h-32q-8 0 -14 -5.5t-6 -13.5t6 -14t14 -6h6
q7 0 7 -6t-7 -6h-19q-6 0 -10.5 -3t-7 -7t-2.5 -10q0 -8 6 -13.5t14 -5.5h6q7 0 7 -6.5t-7 -6.5h-19q-8 0 -14 -5.5t-6 -13.5t6 -13.5t14 -5.5z" />
    <glyph glyph-name="uniF17B" unicode="&#xf17b;" horiz-adv-x="313" 
d="M313 189q0 -21 -16 -35q3 -8 3 -17q0 -21 -16 -34q3 -8 3 -17q0 -29 -27 -41q1 -5 1 -11q0 -18 -13.5 -31.5t-31.5 -13.5h-72q-60 0 -102 41.5t-42 100.5q0 63 48 105l2 2l60 45l28 55l6 41q1 9 8.5 15.5t17.5 6.5h6h5q13 -1 24 -8.5t17.5 -19t6.5 -24.5q0 -33 -24 -107
l65 -8q12 -1 22 -7t15.5 -16.5t5.5 -21.5zM268 169q8 0 13.5 6t5.5 14t-5.5 13.5t-13.5 5.5l-98 13q32 90 32 128q0 10 -7 17.5t-17 8.5h-2h-6l-7 -45l-32 -64l-66 -49q-39 -35 -39 -86q0 -48 34.5 -82t83.5 -34h71q9 0 14.5 5.5t5.5 13.5t-5.5 14t-14.5 6h-6q-7 0 -7 6.5
t7 6.5h33q8 0 13.5 5.5t5.5 13.5t-5.5 13.5t-13.5 5.5h-7q-6 0 -6 6.5t6 6.5h20q8 0 13.5 5.5t5.5 13.5t-5.5 13.5t-13.5 5.5h-7q-6 0 -6 6.5t6 6.5h20z" />
    <glyph glyph-name="uniF17C" unicode="&#xf17c;" horiz-adv-x="294" 
d="M294 132v0q0 -58 -43 -99.5t-104 -41.5t-104 41.5t-43 99.5v71q0 16 11.5 29t28.5 15v78q0 18 13.5 31.5t33.5 13.5q5 0 8 -1q4 14 16.5 23.5t28.5 9.5q26 0 40 -22q7 3 14 3q11 0 21.5 -5.5t17 -15t7.5 -20.5l1 -5q4 1 6 1q19 0 33 -13.5t14 -31.5v-161zM267 132v161
q0 8 -6 13.5t-14 5.5q-6 0 -10.5 -2.5t-7 -7t-2.5 -9.5v-90q0 -7 -6.5 -7t-6.5 7v135q0 5 -3 9.5t-7.5 7t-10 2.5t-10 -2.5t-7.5 -7t-3 -9.5v-135q0 -7 -6.5 -7t-6.5 7v154q0 5 -2.5 9.5t-7 7t-10 2.5t-10 -2.5t-7.5 -7t-3 -9.5v-154q0 -7 -6.5 -7t-6.5 7v122q0 8 -6 13.5
t-14 5.5t-14 -5.5t-6 -13.5v-97v-25v-65q0 -6 -7 -6t-7 6v83q-3 1 -6 1q-9 0 -14.5 -5.5t-5.5 -13.5v-71q0 -31 16 -58t43.5 -42.5t60.5 -15.5q50 0 85 34t35 82z" />
    <glyph glyph-name="uniF17D" unicode="&#xf17d;" horiz-adv-x="404" 
d="M257 170h79l-133 -181q-113 142 -175 239q-41 80 -16 128.5t90.5 45.5t100.5 -65q34 62 99 65t90 -45.5t-16 -128.5q-10 -14 -26 -37h-87l-26 52q-3 7 -10.5 6t-8.5 -8l-17 -87l-21 144q-1 8 -9.5 8.5t-10.5 -7.5l-27 -108h-21q-10 0 -10 -10.5t10 -10.5h29q8 0 10 8
l16 66l22 -152q1 -8 10 -9q8 0 10 9l23 116l16 -32q3 -6 9 -6z" />
    <glyph glyph-name="uniF17E" unicode="&#xf17e;" horiz-adv-x="413" 
d="M333 181v-166h-88v117h-77v-117h-91v166h-77l206 195l64 -61v61h64v-121l79 -74h-80z" />
    <glyph glyph-name="uniF17F" unicode="&#xf17f;" horiz-adv-x="411" 
d="M196 216h-28v-28h28v28zM196 259h-28v-29h28v29zM210 230h28v29h-28v-29zM210 188h28v28h-28v-28zM351 188v-170h-113v85q1 2 0.5 4.5t-4 6.5t-11.5 4h-43q-6 0 -9 -3.5t-3 -7.5v-4v-86h-112v171l152 129zM366 189l-157 143l-168 -144h-41l209 186l202 -185h-45zM309 309
l-1 49h43l-1 -84z" />
    <glyph glyph-name="uniF180" unicode="&#xf180;" 
d="M372 308h-332v-232h332v232zM412 348v-312h-412v312h412zM180 108q-20 3 -33 18.5t-13 36.5v44l46 -46v-53zM215 144l63 63v-44q0 -23 -16.5 -39.5t-39.5 -16.5h-25v84q-13 3 -22.5 10t-13.5 16.5t-5 20.5t1 21t6 18l24 -26l19 26l20 -26l23 26q6 -10 7.5 -23t-1.5 -26
t-13.5 -23t-26.5 -14v-47z" />
    <glyph glyph-name="uniF181" unicode="&#xf181;" horiz-adv-x="389" 
d="M273 309h116v-292h-389v292h117v-39h-78v-214h311v214h-77v39zM195 95l-117 116h78v156h78v-156h77z" />
    <glyph glyph-name="uniF182" unicode="&#xf182;" horiz-adv-x="411" 
d="M411 171v-148h-411v148l77 199h69v-45h-43l-51 -154h97l24 -45h64l26 45h97l-52 154h-43v45h69zM180 267v103h51v-103h76l-101 -113l-101 113h75z" />
    <glyph glyph-name="uniF183" unicode="&#xf183;" horiz-adv-x="414" 
d="M228 281h30l10 -5q4 -4 0 -10l-56 -68q-8 -8 -12 3l-54 66q-1 1 -1.5 2t-1 3.5t0 4.5t4.5 3.5t10 1.5l27 -1q0 24 6 42t16 27t22.5 14.5t25 6t22.5 0t17 -2.5l6 -1q-24 3 -40 -4.5t-22 -21t-9 -27t-2 -23.5zM386 21h-357q-12 0 -20.5 8.5t-8.5 20.5v87q0 7 21.5 36
t42.5 54l22 26q5 6 12.5 9.5t12.5 3.5l4 1h2l34 -58h-52q-3 0 -6 -1.5t-4.5 -3.5t-2.5 -4t-2 -3v-2l-29 -58h101q1 0 2 -0.5t3.5 -1t4.5 -2t3.5 -5t1.5 -8.5v-27q0 -14 14 -14h44q14 2 14 14v30q0 2 1 4t4.5 6t9.5 4h100l-29 58q-3 5 -6.5 8.5t-5.5 4.5l-2 1h-49l33 58h1
q8 0 15 -4t10 -7l4 -4q85 -99 85 -115v-87q0 -12 -8 -20.5t-20 -8.5z" />
    <glyph glyph-name="uniF184" unicode="&#xf184;" horiz-adv-x="413" 
d="M413 170v-155h-413v155l77 207h87l-34 -47h-27l-51 -160h97l24 -47h65l26 47h97l-51 160h-27l-34 47h86zM206 377l102 -118h-76v-107h-51v107h-76z" />
    <glyph glyph-name="uniF185" unicode="&#xf185;" horiz-adv-x="416" 
d="M274 269q-2 -5 -6 -4.5t-8 3.5l-3 3l-15 20q-4 -2 -9.5 -5t-18.5 -13.5t-20 -22.5t-6 -31.5t16 -39.5q-2 2 -5 5.5t-9.5 14t-11.5 21t-7 25.5t1 28.5t15 28.5t33 27l-14 22q-6 10 -4.5 14.5t6.5 4.5l4 1h85q9 0 8 -10zM388 20h-359q-12 0 -20.5 9t-8.5 21v92q0 7 21.5 38
t43.5 57l21 27q6 7 13.5 10.5t11.5 4.5l5 1l41 -1q-1 -1 -2 -3t-2.5 -9t-1.5 -14t2.5 -16.5t7.5 -18.5h-62q-5 0 -8.5 -3.5t-5.5 -6.5l-1 -4l-28 -62h101h2t3 -1t4 -2.5t3.5 -5t1.5 -8.5v-29q0 -15 15 -15h44q14 2 14 15v32q1 1 1.5 3.5t4 6.5t9.5 4h101l-30 62q-2 3 -4 5.5
t-3.5 4t-3 2.5t-2.5 2h-99q-1 3 -2.5 8t1 17t14.5 20q2 -2 6 -5t19.5 -7t35.5 -2l-3 30h12q8 0 15 -3.5t11 -7.5l3 -4q86 -105 86 -122v-92q0 -12 -8.5 -21t-19.5 -9z" />
    <glyph glyph-name="uniF186" unicode="&#xf186;" horiz-adv-x="401" 
d="M76 123h-51q-10 0 -17.5 7.5t-7.5 17.5v88q0 10 7.5 17.5t17.5 7.5h51v-138zM104 267l120 69v-288l-120 69v150zM401 211v-38h-50v-50h-38v50h-50v38h50v50h38v-50h50z" />
    <glyph glyph-name="uniF187" unicode="&#xf187;" 
d="M117 206q3 -4 3 -8t-3 -8l-48 -48q-6 -5 -9.5 -4t-3.5 9v34h-47q-9 0 -9 8v17q0 9 9 9h47v34q0 7 4 8.5t9 -3.5zM163 364q9 0 9 -9v-326q0 -9 -9 -9h-17q-9 0 -9 9v326q0 9 9 9h17zM223 304q-7 0 -12 5t-5 12v26q0 7 5 12t12 5h120q8 0 13 -5t5 -12v-26q0 -7 -5 -12
t-13 -5h-120zM223 210q-7 0 -12 4.5t-5 12.5v25q0 7 5 12t12 5h155q7 0 12 -5t5 -12v-25q0 -8 -5 -12.5t-12 -4.5h-155zM223 115q-7 0 -12 5t-5 12v26q0 7 5 12t12 5h138q7 0 12 -5t5 -12v-26q0 -7 -5 -12t-12 -5h-138zM395 80q7 0 12 -5t5 -11v-26q0 -8 -5 -13t-12 -5h-172
q-7 0 -12 5t-5 13v26q0 6 5 11t12 5h172z" />
    <glyph glyph-name="uniF188" unicode="&#xf188;" 
d="M17 304q-7 0 -12 5t-5 12v26q0 7 5 12t12 5h120q7 0 12 -5t5 -12v-26q0 -7 -5 -12t-12 -5h-120zM17 210q-7 0 -12 4.5t-5 12.5v25q0 8 5 13t12 5h155q7 0 12 -5t5 -13v-25q0 -8 -5 -12.5t-12 -4.5h-155zM17 115q-7 0 -12 5t-5 12v26q0 7 5 12t12 5h137q8 0 13 -5t5 -12
v-26q0 -7 -5 -12t-13 -5h-137zM189 81q7 0 12 -5t5 -12v-26q0 -7 -5 -12t-12 -5h-172q-7 0 -12 5t-5 12v26q0 7 5 12t12 5h172zM266 364q4 0 6.5 -2.5t2.5 -6.5v-326q0 -3 -2.5 -5.5t-6.5 -2.5h-17q-9 0 -9 8v326q0 9 9 9h17zM403 204q4 0 6.5 -2.5t2.5 -6.5v-17
q0 -3 -2.5 -5.5t-6.5 -2.5h-48v-35q0 -7 -3 -8.5t-9 3.5l-48 49q-3 4 -3 8q0 3 3 8l48 48q6 5 9 3.5t3 -8.5v-34h48z" />
    <glyph glyph-name="uniF189" unicode="&#xf189;" horiz-adv-x="413" 
d="M84 291l183 -183q-34 13 -61 48q-46 -56 -103 -56q-46 0 -74 26q-29 28 -29 70t29 69q23 21 55 26zM105 151q37 0 68 45q-31 44 -69 44q-20 0 -32 -13q-14 -13 -14 -31t14 -32q13 -13 33 -13zM384 265q29 -27 29 -69t-29 -70q-22 -21 -55 -25l-183 183q33 -14 61 -48
q43 56 103 56q46 0 74 -27zM341 164q14 13 14 31.5t-14 31.5q-13 13 -33 13q-37 0 -68 -44q31 -45 68 -45q20 0 33 13z" />
    <glyph glyph-name="uniF18A" unicode="&#xf18a;" horiz-adv-x="414" 
d="M240 195q31 -44 69 -44q20 0 33 12q14 14 14 32.5t-14 31.5q-13 13 -33 13q-38 0 -69 -45zM174 195q-31 45 -69 45q-20 0 -33 -13q-14 -14 -14 -32t14 -31q13 -13 33 -13q38 0 69 44zM207 155q-46 -56 -104 -56q-46 0 -74 27q-29 27 -29 70q0 42 29 69t74 27
q59 0 104 -56q44 56 104 56q46 0 74 -27q29 -27 29 -70q0 -42 -29 -69q-28 -27 -73 -27q-62 0 -105 56z" />
    <glyph glyph-name="uniF18B" unicode="&#xf18b;" horiz-adv-x="415" 
d="M207.5 360q-69.5 0 -118.5 -49t-49 -118t49 -118t118.5 -49t118.5 49t49 118t-49 118t-118.5 49zM208 400q86 0 146.5 -60.5t60.5 -146.5t-60.5 -147t-146.5 -61t-147 61t-61 147t61 146.5t147 60.5zM204 76q-11 -4 -20 -3.5t-16 4t-10 11t-1 17.5q2 12 10 33t16.5 41
t9.5 23q2 8 -2 10.5t-10 -1.5q-7 -4 -17 -13q-1 2 -3 5.5t-3 5.5q22 21 44 27q22 5 38.5 -6.5t5.5 -39.5q-21 -56 -24 -68q-4 -11 -0.5 -14.5t9.5 1.5q9 6 20 17q4 -6 6 -11q-30 -31 -53 -39zM263 265.5q-10 -8.5 -22.5 -8.5t-20.5 8.5t-6.5 20.5t11 20t22 8t20.5 -8.5
t7 -20t-11 -20z" />
    <glyph glyph-name="uniF18C" unicode="&#xf18c;" horiz-adv-x="465" 
d="M465 192v11h-465v-11v-11h465v11zM233 -41h10v466h-10h-11v-466h11z" />
    <glyph glyph-name="uniF18D" unicode="&#xf18d;" horiz-adv-x="512" 
d="M511 325q1 -3 1 -5v0q0 -3 -1 -6v-1q-1 -3 -2 -5v0h-1l-42 -64q-7 -9 -18 -9q-6 0 -12 3q-7 5 -9 14t3 16l21 31h-67q-15 0 -26.5 -4t-21 -13t-15 -16t-15.5 -22q-25 -37 -45 -52q20 -15 45 -52q13 -20 20.5 -29t22.5 -17.5t35 -8.5h67l-21 31q-5 8 -3 16.5t9 13.5t16 3
t14 -9l42 -64v-1q2 -2 2 -4q1 -1 1 -2q1 -3 1 -5v0q0 -3 -1 -6l-1 -1q-1 -3 -2 -5v0l-43 -64q-6 -9 -17 -9q-7 0 -12 3q-8 5 -9.5 14t3.5 16l20 31h-66q-23 0 -41.5 6t-32.5 19t-21.5 22.5t-18.5 25.5q-12 19 -19 28t-21 17.5t-31 9.5h-7h-171q-9 0 -15 6t-6 15t6 15t15 6
h166q3 1 5 1h4q26 1 41 13.5t33 40.5q11 17 18.5 26t21.5 22t32.5 19t41.5 6h67l-21 31q-4 8 -2.5 16.5t9 13.5t16 3t13.5 -9l43 -64v0q1 -2 2 -5v-2z" />
    <glyph glyph-name="uniF18E" unicode="&#xf18e;" 
d="M137 172l-53 -53q-14 9 -28 20.5t-23.5 21l-17.5 17.5t-11 13l-4 5q4 4 10.5 12t28.5 28.5t45 36t56.5 28t65.5 12.5q26 0 59 -14l-35 -34q-12 4 -24 4q-20 0 -37 -10t-26.5 -27t-9.5 -36q0 -12 4 -24zM321 269q14 -9 29 -20t25.5 -20t19.5 -17t13 -12l4 -4
q-4 -5 -12.5 -13t-34 -28.5t-49 -36t-54.5 -28t-56 -12.5q-31 0 -64 12l37 37q14 -5 27 -5q31 0 52.5 21.5t21.5 52.5q0 13 -6 26zM352 365l22 -22l-316 -316l-22 22z" />
    <glyph glyph-name="uniF18F" unicode="&#xf18f;" horiz-adv-x="283" 
d="M0 -10l5 22q2 1 8 3q7 1 13 2q11 3 19 5.5t13 5.5q8 10 11 28l8 36l15 72l3 17q7 33 12 48q5 16 5 17l8 42l4 17l6 36l3 13v11q-13 6 -40 7q-4 0 -6 1h-5l5 28l88 -4h13h7h24q13 1 35 2q11 1 19 2h10q-1 -3 -1 -5.5t-1 -4.5l-2 -6l-2 -8q-13 -5 -29 -8q-18 -5 -28 -9
q-4 -9 -7 -23q-2 -8 -2 -12q-1 -6 -2 -10q-8 -36 -10 -47q-5 -20 -8 -35l-17 -84l-10 -42l-12 -63l-4 -12v-3q0 -2 1 -4q8 -2 17 -3.5t16 -2.5q1 0 6 -1l12 -2q-1 -5 -1 -8.5t-1 -6.5q0 -2 -1 -5q0 -2 -1 -6h-4.5h-2.5q-5 -1 -8 -1h-3h-4q-1 0 -4 1q-2 0 -12 1q-7 1 -28 3
l-55 1q-16 0 -48 -3q-11 -1 -17.5 -1.5t-9.5 -0.5z" />
    <glyph glyph-name="uniF190" unicode="&#xf190;" horiz-adv-x="413" 
d="M150 112q100 134 116 154q16 17 28.5 15t20.5 -15q29 -48 93 -150q13 -20 -3 -31q-18 -12 -33 10q-2 2 -3 4l-51 90h-63q-1 -3 -65 -90q-20 -26 -36 -14q-14 12 -4 27zM205 131l5 15h146l5 -15h-156zM307 312q11 0 11 -10t-11 -10h-19q-16 0 -35.5 -21t-39.5 -51
t-42.5 -60t-53.5 -51t-63 -21h-39q-15 0 -15 9.5t15 9.5h39q26 0 50.5 15t42.5 38t36.5 49.5t34 49.5t34 38t36.5 15h19zM105 278q0 7 5 9.5t9.5 -0.5t4.5 -10v-16.5v-11.5q0 -9 20 -10q13 -1 14 -2q8 -3 10 -8q3 -5 2.5 -16t-4.5 -15t-13 -14.5t-12 -13.5q-9 -5 -16.5 -3.5
t-28.5 8.5q-23 7 -24 2q0 -1 1 -2q0 -2 6.5 -22.5t3.5 -25.5q-2 -4 -11.5 -6t-12.5 1q-5 3 -7.5 18.5t-2.5 28.5v13q0 24 16 24q4 0 31 -8q1 0 3.5 -1t4.5 -1.5t4.5 -1t5 1t3.5 4.5q1 1 3 7.5l2 6.5q0 1 -3 7q0 1 -7 9t-7 14v17v17zM133 269q0 10 6.5 16.5t16.5 6.5t17 -6.5
t7 -16.5t-7 -16.5t-17 -6.5t-16.5 6.5t-6.5 16.5z" />
    <glyph glyph-name="uniF191" unicode="&#xf191;" horiz-adv-x="383" 
d="M252 91l-59 -59q-33 -33 -80 -33t-80 33t-33 80t33 80l59 59l39 -39l-59 -59q-18 -17 -18 -41.5t17.5 -41.5t42 -17t41.5 17l59 59zM291 129l-39 39l59 59q18 17 18 41.5t-17.5 41.5t-42 17t-41.5 -17l-59 -59l-38 38l59 59q33 33 80 33t80 -33t33 -80t-33 -80z" />
    <glyph glyph-name="uniF192" unicode="&#xf192;" horiz-adv-x="238" 
d="M70 192h-40v50q0 37 26 63t63 26t63 -26t26 -63v-50h-40v50q0 20 -14.5 34.5t-34.5 14.5t-34.5 -14.5t-14.5 -34.5v-50zM238 168v-168h-238v168h238zM141 97q0 9 -6.5 15.5t-15.5 6.5t-15.5 -6.5t-6.5 -15.5t7 -16q6 -5 6 -12v-19h18v19q0 7 6 12q7 7 7 16z" />
    <glyph glyph-name="uniF193" unicode="&#xf193;" horiz-adv-x="437" 
d="M159 371h278v-358h-278v99h60v-39h159v238h-159v-39h-60v99zM278 232v-80h-159v-59l-119 100l119 98v-59h159z" />
    <glyph glyph-name="uniF194" unicode="&#xf194;" horiz-adv-x="332" 
d="M332 42l-43 -44l-90 89q-31 -18 -67 -18q-55 0 -93.5 38.5t-38.5 93t38.5 93.5t93.5 39t93.5 -39t38.5 -93q0 -38 -20 -71zM36 200.5q0 -39.5 28 -67.5t68 -28t68 28t28 67.5t-28 67.5t-68 28t-68 -28t-28 -67.5z" />
    <glyph glyph-name="uniF195" unicode="&#xf195;" horiz-adv-x="378" 
d="M366 76q12 -13 12 -30.5t-12.5 -30t-30 -12.5t-30.5 12l-92 93q-32 -17 -68 -17q-60 0 -102.5 42.5t-42.5 102.5t42.5 102.5t102.5 42.5t103 -42q34 -34 41 -81.5t-16 -89.5zM230 235.5q0 35.5 -24.5 60.5t-60 25t-60.5 -25t-25 -60.5t25 -60t60.5 -24.5t60 24.5t24.5 60
z" />
    <glyph glyph-name="uniF196" unicode="&#xf196;" 
d="M0 231q0 57 40 97t96 40q39 0 71.5 -20t49.5 -54q34 -4 69 -30q3 -3 9 10q2 6 18 47q0 -1 7 -7.5t15.5 -15t17 -17.5t14.5 -15t5 -6q-4 -2 -21 -8t-28.5 -10t-10.5 -6q24 -34 24 -77q0 -37 -18.5 -68.5t-50 -49.5t-68.5 -18q-38 0 -70.5 20t-50.5 53q-50 7 -84 45.5
t-34 89.5zM158 97q31 -43 84 -43q43 0 73 30t30 73q0 34 -21 61.5t-53 37.5q2 -13 2 -25q0 -50 -33 -88t-82 -46zM36 229q0 -34 19.5 -60.5t50.5 -37.5q-3 15 -3 28q0 51 33 89.5t82 45.5q-30 38 -79 38q-43 0 -73 -30.5t-30 -72.5zM237 260q-27 -2 -49.5 -16t-35.5 -37
t-13 -50q0 -16 5 -31q41 2 69.5 31.5t28.5 71.5q0 16 -5 31z" />
    <glyph glyph-name="uniF197" unicode="&#xf197;" horiz-adv-x="304" 
d="M304 54l-55 -55l-97 97l-97 -97l-55 55l113 113v104h-47l86 117l85 -117h-46v-104z" />
    <glyph glyph-name="uniF198" unicode="&#xf198;" horiz-adv-x="413" 
d="M317 221q11 0 19 8t8 18.5t-8 18.5t-19 8t-19.5 -8t-8.5 -18q0 -8 4 -14t10 -9.5t14 -3.5zM207 221q11 0 19 8t8 18.5t-8 18.5t-19 8q-6 0 -11 -2t-8.5 -5.5t-6 -8.5t-2.5 -10.5t2.5 -10t6 -8t8.5 -6t11 -2.5zM96 221q12 0 20 8t8 18.5t-8 18.5t-20 8q-7 0 -13.5 -3.5
t-10 -9.5t-3.5 -13q0 -6 2 -11q7 -16 25 -16zM276 393q37 0 69 -17.5t50 -47.5t18 -66v-34q0 -54 -40 -92.5t-97 -38.5h-32l-102 -97v97h-4q-57 0 -97.5 38.5t-40.5 92.5v34q0 55 40.5 93t97.5 38h138z" />
    <glyph glyph-name="uniF199" unicode="&#xf199;" horiz-adv-x="262" 
d="M131 352q-11 0 -19 -8t-8 -19v-85h54v85q0 11 -8 19t-19 8zM131 390q27 0 46 -19t19 -46v-118q0 -27 -19 -46t-46 -19t-46 19t-19 46v118q0 18 9 33t24 23.5t32 8.5zM224 240h38v-33q0 -36 -17.5 -66t-47.5 -47.5t-66 -17.5q-54 0 -92.5 38.5t-38.5 92.5v33h38v-33
q0 -39 27.5 -66t66 -27t65.5 27t27 66v33zM131 57l79 -58h-163z" />
    <glyph glyph-name="uniF19A" unicode="&#xf19a;" horiz-adv-x="263" 
d="M196 206q0 -27 -19 -46t-45.5 -19t-45.5 19t-19 46v119q0 27 19 46t45 19q18 0 33 -8.5t23.5 -23.5t8.5 -33v-119zM225 239h38v-33q0 -54 -38.5 -92.5t-93 -38.5t-93 38.5t-38.5 92.5v33h38v-33q0 -38 27.5 -65.5t66 -27.5t66 27.5t27.5 65.5v33zM131 56l80 -58h-164z
" />
    <glyph glyph-name="uniF19B" unicode="&#xf19b;" horiz-adv-x="373" 
d="M373 234v-84h-373v84h373z" />
    <glyph glyph-name="uniF19C" unicode="&#xf19c;" horiz-adv-x="407" 
d="M243 330l12 38q2 7 -5 9t-9 -5l-14 -42h-46l-14 42q-3 7 -10 5t-4 -9l12 -38h-29l-69 69h274l-70 -69h-28zM276 134q-16 34 -67 33q-36 -1 -41 9q-7 14 16 24q16 6 42 5l-5 31q-20 3 -43 -5l-10 23q-13 -5 -26 -11l11 -24q-18 -13 -24 -31.5t2 -35.5t24.5 -22t42.5 -3
q32 3 38 -11q7 -15 -18 -26q-22 -10 -47 -9l6 -34q21 -1 48 10l11 -24q11 5 26 11l-12 26q43 26 26 64zM340 -8h-273q-28 0 -47.5 18.5t-19.5 44.5v95v3q1 51 39.5 91t97.5 56h133q39 -11 70 -32.5t48.5 -51t18.5 -63.5v-3v-95q0 -26 -19.5 -44.5t-47.5 -18.5z" />
    <glyph glyph-name="uniF19D" unicode="&#xf19d;" horiz-adv-x="411" 
d="M61 22v33q-36 2 -61 15l11 41q28 -15 60 -15q35 0 35 21q0 19 -39 31q-32 10 -48.5 25t-16.5 39t16 40.5t45 21.5v34h35v-31q29 -1 53 -12l-11 -39q-26 12 -52 12q-31 0 -31 -20q0 -15 44 -30q32 -11 46 -26.5t14 -39.5t-17 -41.5t-47 -22.5v-36h-36zM118 42q33 11 50 35
v-55h-50v20zM333 255l78 -72h-79v-161h-88v114h-64q-6 49 -72 71q-17 6 -26 11h6q21 0 43 -10l23 -11l6 24l11 39l5 16l-16 7q-18 9 -38 12l84 76l63 -58v58h64v-116z" />
    <glyph glyph-name="uniF19E" unicode="&#xf19e;" horiz-adv-x="394" 
d="M76 123h-51q-10 0 -17.5 7.5t-7.5 17.5v88q0 10 7.5 17.5t17.5 7.5h51v-138zM104 267l120 69v-288l-120 69v150zM394 157l-27 -27l-35 35l-35 -35l-27 27l35 35l-35 35l27 27l35 -35l35 35l27 -27l-35 -35z" />
    <glyph glyph-name="uniF19F" unicode="&#xf19f;" horiz-adv-x="411" 
d="M409 75l-133 128l133 115q2 -4 2 -7v-228q0 -4 -2 -8zM205 176l-35 28l-18 15l-134 115q3 1 7 1h361q3 0 7 -1l-134 -115l-18 -15zM386 58h-361q-3 0 -7 1l135 130l52 -43l53 43l135 -130q-4 -1 -7 -1zM1 318l134 -115l-134 -128q-1 4 -1 8v228q0 3 1 7z" />
    <glyph glyph-name="uniF1A0" unicode="&#xf1a0;" horiz-adv-x="312" 
d="M269 162q4 15 4 30q0 48 -34.5 82.5t-82.5 34.5t-82.5 -34.5t-34.5 -82.5q0 -16 4 -32q2 -5 4 -9q8 2 17 2q24 0 41 -17t17 -41q0 -7 -1 -14q3 -2 4 -2q16 -4 31 -4q17 0 33 5q1 0 4 1q-2 7 -2 15q0 24 17 41t42 17q8 0 16 -2q2 7 3 10zM156 348q65 0 110.5 -45.5
t45.5 -110.5q0 -38 -17 -71q-22 -43 -65 -66q-34 -19 -74 -19q-38 0 -72 18q-43 22 -66 64q-18 35 -18 74q0 65 45.5 110.5t110.5 45.5zM171 211q10 -7 10 -19q0 -5 -2 -9q-6 -15 -22 -15q-5 0 -9 2q-14 6 -14 22v3l-21 92l8 3zM149 262v35h14v-35h-14zM221 269l10 -10
l-25 -25l-10 10zM220 198v15h36v-15h-36zM57 198v15h35v-15h-35zM76 259l11 10l25 -25l-10 -10z" />
    <glyph glyph-name="uniF1A1" unicode="&#xf1a1;" horiz-adv-x="363" 
d="M181.5 366q37.5 0 70.5 -14t58 -39t39 -58t14 -70.5t-14 -70.5t-39 -57.5t-58 -39t-70.5 -14.5t-70.5 14.5t-58 39t-39 57.5t-14 70.5t14 71t39 58t58 38.5t70.5 14zM181.5 58q26.5 0 49.5 10t40.5 27t27.5 40t10 49.5t-10 49.5t-27.5 40.5t-40.5 27.5t-49 10
q-27 0 -50 -10t-40 -27.5t-27 -40.5t-10 -49.5t10 -49.5t27 -40t40 -27t49.5 -10zM247 242q2 2 6 2t6 -2l26 -26q2 -2 2.5 -6t-2.5 -7l-93 -93q-3 -3 -7.5 -4.5t-8.5 -1.5h-26q-3 0 -8 1.5t-7 4.5l-57 57q-3 2 -3 6t3 6l26 27q2 2 6 2t6 -2l41 -41q6 -6 13 0z" />
    <glyph glyph-name="uniF1A2" unicode="&#xf1a2;" horiz-adv-x="363" 
d="M181.5 364q37.5 0 70.5 -14t58 -38.5t39 -57.5t14 -71t-14 -71t-39 -57.5t-58 -39t-70.5 -14.5t-70.5 14.5t-58 39t-39 57.5t-14 71t14 71t39 57.5t58 38.5t70.5 14zM305 216q3 3 3 8t-3 8l-24 24q-3 3 -7.5 3t-7.5 -3l-103 -103q-3 -3 -7.5 -3t-8.5 3l-50 50
q-3 4 -7.5 4t-8.5 -4l-23 -24q-3 -3 -3 -7.5t3 -7.5l72 -73q3 -3 8.5 -5.5t10.5 -2.5h13q4 0 9.5 2.5t8.5 5.5z" />
    <glyph glyph-name="uniF1A3" unicode="&#xf1a3;" horiz-adv-x="367" 
d="M137 57q-7 0 -15 3.5t-13 7.5l-104 106q-5 4 -5 11t5 11l34 35q5 4 11.5 4t10.5 -4l73 -73q5 -4 11.5 -4t10.5 4l149 148q5 5 11.5 5t11.5 -5l34 -34q5 -5 4.5 -11.5t-4.5 -10.5l-181 -182q-5 -4 -12.5 -7.5t-14.5 -3.5h-17z" />
    <glyph glyph-name="uniF1A4" unicode="&#xf1a4;" horiz-adv-x="414" 
d="M117 288v70h297v-70h-297zM117 160v71h297v-71h-297zM117 33v69h297v-69h-297zM56 172h16v-28h-71q-1 2 -1 4.5v4.5q0 14 7.5 22.5t16.5 14.5t17 13q8 5 8 14q0 7 -4.5 10.5t-11.5 3.5q-6 0 -10.5 -3.5t-8.5 -8.5l-13 9q6 9 14.5 14.5t19.5 5.5q13 0 23.5 -8t10.5 -22
q0 -13 -7.5 -20.5t-16.5 -13.5t-17 -11q-7 -6 -7 -14h35v13zM45 69q10 -1 18 -8.5t8 -20.5t-9.5 -23t-26.5 -10q-9 0 -15 2t-10 5q-7 3 -9 6l9 14q2 -2 3 -3.5t4 -2.5q3 -2 7 -3.5t9 -1.5q9 0 14 4.5t5 11.5q0 8 -6 12.5t-14 4.5h-6l-4 9l22 26l2 2l2 1l1 2h-3q-1 -1 -3 -1
h-23v-12h-16v28h65v-13zM27 362q-2 -4 -5 -7l-7 -7l-12 12l26 25h17v-89h23v-15h-64v15h23v64v2h-1z" />
    <glyph glyph-name="uniF1A5" unicode="&#xf1a5;" horiz-adv-x="372" 
d="M372 226l-175 -202q-31 -35 -77.5 -38t-81.5 27.5t-38 77t28 81.5l171 197q23 26 57.5 28.5t60.5 -20t28.5 -57t-20.5 -60.5l-130 -150q-15 -17 -37.5 -18.5t-39.5 13t-18.5 37t13.5 39.5l101 116l29 -25l-101 -117q-10 -11 1.5 -21t21.5 2l131 150q12 13 10.5 31.5
t-15 30.5t-32 11t-30.5 -15l-172 -198q-20 -23 -18 -53t25 -50t53 -18t50 25l175 201z" />
    <glyph glyph-name="uniF1A6" unicode="&#xf1a6;" horiz-adv-x="365" 
d="M295 73h-92v28h92v-28zM295 124h-92v28h92v-28zM307 261l58 -57v-198h-234v255h176zM328 43v139h-49v42h-111v-181h160zM98 75v-38h-98v320h53q13 0 22 10l20 20h116l21 -20q9 -10 22 -10h53v-66h-38v30h-53l-23 -24h-77l-23 24h-56v-246h61z" />
    <glyph glyph-name="uniF1A7" unicode="&#xf1a7;" horiz-adv-x="310" 
d="M3 -5v403h73v-403h-73zM79 401v-7v-396v-7h-6h-66h-7v7v396v7h7h66h6zM73 394h-66v-396h66v396zM234 -5v403h73v-403h-73zM310 401v-7v-396v-7h-6h-66h-7v7v396v7h7h66h6zM304 394h-66v-396h66v396z" />
    <glyph glyph-name="uniF1A8" unicode="&#xf1a8;" horiz-adv-x="433" 
d="M351 341l82 -79l-219 -219h-79v82zM0 43v27h108v-27h-108z" />
    <glyph glyph-name="uniF1A9" unicode="&#xf1a9;" horiz-adv-x="290" 
d="M17 116l146 146l69 -68l-146 -146l-86 -16zM178 212l-15 15l-128 -128l15 -15zM290 252l-37 -37l-69 68l37 37z" />
    <glyph glyph-name="uniF1AA" unicode="&#xf1aa;" horiz-adv-x="316" 
d="M236 281q4 -27 -2.5 -67.5t-6.5 -49.5q1 -8 -3.5 -13t-9.5 -6l-4 -1q-6 -108 -14 -139q-3 -15 -39 -15t-39 15q-4 14 -7.5 48.5t-5.5 62.5l-1 28q-2 0 -5 1t-8 6t-5 13q0 5 -6.5 47t-1.5 70l1 2v0q4 9 20 16q3 1 10.5 5.5t16 8t17.5 5.5q-6 6 -13 25q-2 5 -2 19v19
q6 20 29.5 20t29.5 -20q1 -1 1 -19q0 -14 -2 -19q-8 -19 -14 -25q9 -2 17.5 -5.5t16.5 -8t10 -5.5q18 -7 20 -17v-1zM89 138q4 -58 7 -92q-5 -10 -32.5 -9.5t-29.5 11.5q-3 11 -6 39t-4 50l-2 23q-14 2 -14 16q0 4 -5 38t-1 56v1v1v0q4 7 17 13q2 1 8 4.5t13 6.5t14 4
q-5 6 -11 20q-1 4 -1 15v15q5 17 24 17t24 -16v-16q0 -11 -2 -15q-6 -15 -10 -20q-9 -6 -13 -13v-1q-1 -1 -1 -2l-1 -2q-5 -31 4 -84q4 -25 4 -34q0 -19 18 -26zM314 270q4 -22 -1.5 -54t-4.5 -40q0 -6 -3.5 -10t-7.5 -5l-4 -1q-4 -87 -10 -112q-3 -11 -30.5 -11.5
t-32.5 9.5q3 38 7 92q18 7 17 26q0 11 5 38q9 50 4 80l-1 2q-2 9 -13 17q-5 5 -10 19q-2 4 -2 15v15q5 17 24.5 17t23.5 -16v-16q0 -11 -1 -15q-6 -14 -11 -20q7 -1 14 -4t13.5 -6.5t8.5 -4.5q14 -6 15 -14v-1z" />
    <glyph glyph-name="uniF1AB" unicode="&#xf1ab;" horiz-adv-x="413" 
d="M96 99v-30l-96 -1v22v2t1.5 4t4 5.5t8 6.5t13.5 7q3 2 13.5 8t22 11t24.5 7q-8 9 -19 34q-2 7 -2 26v26q8 28 40.5 28t40.5 -28q1 -2 1 -26q0 -19 -3 -26q-8 -21 -15 -30q-33 -20 -34 -46zM376 133q36 -16 37 -34v-30l-294 -1v31q0 2 1 5.5t10.5 12.5t25.5 16
q4 2 19 10.5t30.5 15t32.5 9.5q-11 12 -25 47q-4 10 -4 35q0 34 1 36q11 39 56 39t56 -39v-36q0 -25 -3 -35q-14 -34 -26 -47q18 -3 33.5 -9.5t30.5 -15t19 -10.5z" />
    <glyph glyph-name="uniF1AC" unicode="&#xf1ac;" 
d="M412 89v-21h-96v30v0q0 26 -34 46q-7 9 -15 30q-3 7 -3 26q0 24 1 25q8 29 40.5 29t40.5 -28v-26q0 -19 -3 -26q-9 -25 -18 -34q13 -2 24.5 -7t22 -11t13.5 -8q12 -5 19 -11t7 -10zM256 132q35 -16 37 -34v-30h-293v30q0 2 1 5.5t10 12.5t26 16q4 2 18.5 10t30.5 15
t33 10q-12 12 -25 47q-4 9 -4 35q0 34 1 36q10 39 55 39t56 -39v-36q0 -25 -3 -35q-14 -35 -25 -47q17 -3 33 -9.5t30.5 -15t18.5 -10.5z" />
    <glyph glyph-name="uniF1AD" unicode="&#xf1ad;" 
d="M412 114v-17h-75v24v0q0 20 -26 36q-5 7 -12 23q-2 5 -2 20q0 19 1 20q6 22 31 22t32 -22v-20q0 -15 -2 -20q-8 -20 -14 -27q9 -1 18 -5t17.5 -8.5t10.5 -5.5q9 -4 14.5 -9t5.5 -8zM75 121v0v-24h-75v17q0 10 21 20q2 1 10.5 5.5t17 8.5t18.5 5q-6 7 -14 27q-2 5 -2 20
v20q6 22 31.5 22t31.5 -22v-20q0 -15 -2 -20q-6 -16 -11 -23q-26 -16 -26 -36zM291 147q28 -12 29 -26v-24h-228v24q0 1 1 4t8 10t20 12q3 2 11 6t14.5 8t17 7.5t20.5 5.5q-8 10 -19 37q-3 7 -3 27v28q9 30 43.5 30t43.5 -30v-28q0 -20 -3 -27q-10 -27 -19 -37
q13 -2 25.5 -7t24 -11.5t14.5 -8.5z" />
    <glyph glyph-name="uniF1AE" unicode="&#xf1ae;" horiz-adv-x="414" 
d="M409 106q1 -2 2 -8t2 -11.5l1 -5.5h-270q4 21 5 25q2 9 10 15.5t20 10.5t24 7.5t24 9t17 12.5q4 4 4 7t-2 19q-4 -6 -17 -8t-20 2q-9 7 -8 16q1 6 5 8h11q-9 -4 -10 -9q-1 -3 2 -4.5t6 -0.5q9 3 11 12q1 4 -5.5 31.5t1.5 49.5q5 14 19 21.5t26 7.5l12 1q1 -1 5 -0.5
t12 -1t15.5 -4t14.5 -9t10 -15.5q8 -22 1.5 -49.5t-5.5 -31.5q2 -10 9.5 -12t7.5 4l-9 8q12 2 15 -3q2 -5 1 -9q-1 -8 -13 -10q-24 -6 -32 7q-2 3 -2 8q-2 -4 -3 -9q-2 -16 -2 -19t4 -7q8 -10 33 -17.5t45.5 -15.5t22.5 -22zM182 149q-43 -14 -49 -40q-1 -7 -4 -26v-1h-129
q4 21 4 25q3 11 15.5 19t27 11.5t30.5 10t23 14.5q3 4 3.5 7t-1.5 19q-2 7 -8 17t-10 36q-5 30 7 50t40.5 20t40.5 -20t7 -50q-4 -26 -10 -36t-7 -17q-3 -16 -2.5 -19t3.5 -7q6 -7 19 -13z" />
    <glyph glyph-name="uniF1AF" unicode="&#xf1af;" horiz-adv-x="415" 
d="M363 106q48 -22 52 -48v-42h-415v42q0 3 1.5 7.5t14.5 17.5t36 23q6 3 26.5 14.5t43 21t46.5 13.5q-16 18 -35 67q-6 13 -6 49q0 4 -0.5 15.5t0 20.5t1.5 15q16 55 79 55q64 0 79 -55q2 -6 2 -14.5t-0.5 -20.5t-0.5 -16q0 -36 -5 -49q-20 -49 -36 -66q24 -5 46.5 -14.5
t43.5 -21t27 -14.5z" />
    <glyph glyph-name="uniF1B0" unicode="&#xf1b0;" horiz-adv-x="325" 
d="M184 86q15 -17 4 -42q-1 -4 -4 -7t-5.5 -5t-4.5 -3.5t-3 -2.5q-1 -3 -1 -9q1 -10 5 -20q1 -1 -0.5 -3.5t-3.5 -3.5q-5 0 -10 5q-1 0 -2 4t-2 8.5t-1 5.5q-3 6 -5 7q-23 3 -35 14q-15 14 -15 27q0 9 3 16.5t6.5 12t7 8.5t4.5 6q2 5 -5 23t-14 30q-3 5 -11 11.5t-14 10.5
l-6 4l25 218l31 -257q3 -15 5 -19q4 -13 11 -17q1 -1 7.5 -2t15 -6t17.5 -14zM96 187q8 0 8 6t-8 6t-8 -6t8 -6zM152.5 32.5q13.5 1.5 21.5 11.5t5.5 23t-13.5 21t-24.5 6.5t-21.5 -11.5t-5.5 -23t13.5 -21t24.5 -6.5zM90 81q3 -9 3 -21q1 -5 -3 -13q-4 -6 -11 -13
q-15 -13 -36 -14q-7 -1 -15 2t-14.5 7.5t-8.5 9.5q-12 28 5 47q8 9 17 14t16 6t7 2q7 4 12 17l5 19l2 26q17 -11 20 -17q-7 -12 -12.5 -28t-3.5 -21q0 -2 7 -9t10 -14zM78 54q6 12 1 23.5t-17.5 15t-26 -2.5t-19 -18.5t-1 -23.5t17 -14.5t26 2.5t19.5 18zM323 355
q2 -25 2.5 -151.5t-6.5 -162.5q-7 -15 -33 -12l-67 14v9h84v10h-84v9h84v9h-84v10h84v9h-84v9h84v10h-84v9h84v9h-84v9h84v10h-84v9h84v9h-84v10h84v9h-84v9h84v10h-84v9h84v9h-84v10h84v9h-84v9h84v9h-84v10h84v9h-84v9h84v10h-84v9h84v9h-84v10h84v9h-84v9h84v10h-84v9
q3 0 8 1t19.5 2.5t24 2.5t22 2t13.5 -1q16 -5 17 -21z" />
    <glyph glyph-name="uniF1B1" unicode="&#xf1b1;" horiz-adv-x="415" 
d="M409 250q3 -2 4.5 -5.5t1.5 -7t-0.5 -7.5l-0.5 -4q-81 7 -98 -12q-4 -5 -5.5 -16t-1.5 -21l1 -9v-33v-73q0 -7 -5 -12t-12 -5t-12.5 5t-5.5 12q0 64 -11 79q-19 25 -77 27.5t-84 -17.5q-8 -6 -14 -28t-8 -41l-1 -20q0 -7 -5 -12t-12.5 -5t-12.5 5t-5 12v96v55l-19 -30
q-4 -7 -12 -7q-4 0 -7 3q-12 7 -5 20l34 52q3 6 9 7q79 30 204 0q16 8 33.5 30.5t27.5 41.5l10 19l11 -35q47 -49 78 -64z" />
    <glyph glyph-name="uniF1B2" unicode="&#xf1b2;" horiz-adv-x="512" 
d="M430 291l-96 96q-5 5 -2.5 11.5t9.5 6.5h96q5 0 8 -3t3 -7v-96q0 -5 -3 -8t-7.5 -3t-7.5 3zM64 179l192 192l192 -192v-243h-149v149h-86v-149h-149v243zM509 178q7 -8 0 -15q-8 -7 -15 0l-238 238l-238 -238q-7 -7 -15 0q-7 8 0 15l245 246q8 7 16 0z" />
    <glyph glyph-name="uniF1B3" unicode="&#xf1b3;" horiz-adv-x="298" 
d="M165 241v29h81v-29h-81zM165 120v23h81v-23h-81zM153 191.5q0 -31.5 -22.5 -54t-54.5 -22.5q-20 0 -38 10.5t-28 28t-10 38.5q0 31 22.5 53.5t54 22.5t54 -22.5t22.5 -54zM24 191.5q0 -21.5 15.5 -37t37 -15.5t37 15.5t15.5 37t-15.5 37t-37 15.5t-37 -15.5t-15.5 -37z
M298 402v-346h-185v-69l-32 32l-37 -32v121v-2v1q17 -6 29 -6h3q19 0 37 7v-23h156v289h-121v-75h-75v-17q-12 0 -29 -5v53l75 72h179zM246 178h-67v14v14h67v-28z" />
    <glyph glyph-name="uniF1B4" unicode="&#xf1b4;" horiz-adv-x="388" 
d="M338 305h50v-191h-50v-114h-288v114h-50v191h50v83h288v-83zM300 37v122h-212v-122h212zM300 305v45h-212v-45h212zM351 257q5 0 8.5 3.5t3.5 8t-3.5 8t-8.5 3.5q-3 0 -5.5 -1.5t-4 -4t-1.5 -6t1.5 -6t4 -4t5.5 -1.5zM232 77h-120v21h120v-21zM277 116h-165v21h165v-21z
" />
    <glyph glyph-name="uniF1B5" unicode="&#xf1b5;" horiz-adv-x="413" 
d="M382 276v63h-44v-66q0 -51 -15 -90q59 23 59 93zM249 209l-8 50l34 35l-47 7l-22 46l-21 -46l-47 -7l34 -35l-8 -50l42 24zM31 276q0 -70 59 -93q-15 39 -15 90v67h-44v-64zM338 370h75v-94q0 -54 -30.5 -88t-79.5 -42q-26 -36 -66 -48v-45q15 -5 29 -13t23 -17
t14.5 -18.5t5.5 -16.5h-206q0 16 21.5 36t51.5 29v45q-40 12 -66 48q-49 8 -79.5 42t-30.5 88v94h75v31h263v-31z" />
    <glyph glyph-name="uniF1B6" unicode="&#xf1b6;" horiz-adv-x="414" 
d="M365 228q-10 -7 -15 -15.5t-5 -17t5 -17t15 -14.5l49 -32l-59 1q-25 1 -36.5 -14t-3.5 -38l20 -53l-47 35q-19 14 -38 8t-26 -28l-17 -55l-17 55q-6 22 -25 28t-39 -8l-47 -35l20 53q8 23 -3.5 38t-35.5 14l-60 -1l49 32q20 13 20 32t-20 32l-49 32l60 -2q24 0 35.5 15
t3.5 37l-20 53l47 -34q20 -14 39 -8.5t25 28.5l17 54l17 -54q7 -23 26 -28.5t38 8.5l47 34l-20 -53q-8 -22 3.5 -37t36.5 -15l59 2zM222 109v31h-31v-31h31zM260 209q8 10 8 26q0 25 -18 37q-18 13 -46 13q-21 0 -35 -8q-22 -14 -24 -46h31q0 8 7 16t24 8t24 -7q6 -7 6 -15
t-5 -13q-4 -4 -8 -7l-10 -8q-15 -11 -19 -20q-3 -9 -4 -30h31q0 9 1 15q3 8 10 14l9 7q13 12 18 18z" />
    <glyph glyph-name="uniF1B7" unicode="&#xf1b7;" 
d="M0 199q0 27 17 47t42 24v16h294v-22q25 -3 42 -23.5t17 -47t-17 -46.5t-42 -24v-16h-294v21q-25 4 -42 24t-17 47zM49 224h-10v-20h-19v-10h19v-21h10v21h20v10h-20v20zM83 265v-117h245v117h-245zM348 183v-15h15v15h-15zM299 132v-10h10v10h-10zM319 132v-10h9v10h-9z
M83 132v-10h49v10h-49zM348 219v-15h15v15h-15zM377 219v-15h15v15h-15zM377 183v-15h15v15h-15z" />
    <glyph glyph-name="uniF1B8" unicode="&#xf1b8;" horiz-adv-x="410" 
d="M205 395q85 0 145 -60t60 -144.5t-60 -144.5t-145 -60t-145 60t-60 144.5t60 144.5t145 60zM205 22q70 0 119 49.5t49 118.5q0 46 -22.5 85t-61 61.5t-84.5 22.5q-70 0 -119 -49.5t-49 -119t49 -119t119 -49.5zM181 105v28h33v-28h-33zM200 272q26 0 40.5 -12.5
t14.5 -35.5q0 -14 -8.5 -26t-21.5 -21q-7 -5 -9 -10.5t-2 -14.5h-33q0 16 4.5 23t18.5 18q8 6 13 14t5 17q0 11 -5.5 16.5t-16.5 5.5q-8 0 -14 -5t-6 -14h-32q-1 22 14 33.5t38 11.5z" />
    <glyph glyph-name="uniF1B9" unicode="&#xf1b9;" horiz-adv-x="414" 
d="M207 402q86 0 146.5 -60.5t60.5 -146t-60.5 -146t-146.5 -60.5t-146.5 60.5t-60.5 146t60.5 146t146.5 60.5zM225 77v41h-37v-41h37zM271 211q10 14 10 35q0 33 -22 51q-22 17 -55 17q-25 0 -42 -12q-27 -18 -29 -60h37q0 11 8.5 21t29.5 10q20 0 28 -9q8 -10 8 -21
q0 -9 -7 -17q-3 -4 -9 -9l-12 -10q-18 -16 -22 -27q-5 -11 -6 -41h37q0 13 2 21q3 10 12 18l10 10q17 16 22 23z" />
    <glyph glyph-name="uniF1BA" unicode="&#xf1ba;" horiz-adv-x="234" 
d="M120 6q-17 0 -29 11.5t-12 28.5q0 11 5.5 20.5t15 15t20.5 5.5q17 0 29 -12t12 -29t-12 -28.5t-29 -11.5zM152 126v-7h-67v7q0 44 27 71q4 4 18 16t19.5 17.5t11 16.5t5.5 21q0 23 -14 36t-36 13q-44 0 -51 -59h-65q1 21 6.5 40t17.5 38.5t35.5 30.5t57.5 11
q56 0 86.5 -31t30.5 -74q0 -27 -13 -49.5t-28 -35t-28 -29t-13 -33.5z" />
    <glyph glyph-name="uniF1BB" unicode="&#xf1bb;" horiz-adv-x="402" 
d="M402 119l-117 -88v59h-44h-29h-41l-61 61l-52 -39h-58v53l40 -2l29 29l-29 29l-40 -2v53h58l52 -39l61 61h41v59l117 -88l-117 -88v59h-17l-44 -44l44 -44h17h29h44v59z" />
    <glyph glyph-name="uniF1BC" unicode="&#xf1bc;" horiz-adv-x="349" 
d="M334 175h15v-15q0 -70 -51 -119t-123.5 -49t-123.5 49t-51 119t51 119.5t123 49.5h13v39v34l25 -24l80 -77l10 -10l-10 -11l-80 -76l-25 -25v35v43q-5 1 -13 1q-27 0 -50 -13.5t-36.5 -35.5t-13.5 -49q0 -40 29.5 -68.5t71 -28.5t71 28.5t29.5 68.5v15h15h44z" />
    <glyph glyph-name="uniF1BD" unicode="&#xf1bd;" 
d="M323 306l-37 -37q-33 32 -79 32t-79 -32.5t-33 -78.5h44l-70 -70l-69 70h43q0 68 48 116t116 48t116 -48zM412 195h-43q0 -68 -48 -116t-116 -48t-116 48l37 37q33 -32 79 -32t79 32.5t33 78.5h-44l70 70z" />
    <glyph glyph-name="uniF1BE" unicode="&#xf1be;" horiz-adv-x="410" 
d="M401 176q4 -1 7 -4t2 -7q-5 -38 -23 -71t-45.5 -57t-62 -37.5t-73.5 -13.5q-43 0 -80.5 16t-65.5 44t-44 65.5t-16 80.5t16 80.5t44 65.5t65.5 44t80.5 16q36 0 69.5 -12.5t62.5 -36.5l41 42q9 9 15 6.5t6 -14.5v-120q0 -8 -6 -14q-2 -2 -5.5 -4t-7.5 -2h-120
q-12 0 -15 6.5t6 15.5l42 41q-19 14 -41 22q-23 8 -47 8q-30 0 -56.5 -11t-45.5 -31t-30.5 -46t-11.5 -56t11.5 -56t30.5 -46q20 -19 46 -30.5t56 -11.5q27 0 51.5 9.5t43.5 26t31.5 39.5t16.5 50q0 4 3.5 6.5t8.5 2.5z" />
    <glyph glyph-name="uniF1BF" unicode="&#xf1bf;" 
d="M309 401l103 -103h-103v103zM367 51h-145v-15h145v15zM367 95h-145v-15h145v15zM367 139h-145v-15h145v15zM367 183h-145v-15h145v15zM191 51h-145v-15h145v15zM191 95h-145v-15h145v15zM124 305q18 0 36 -9l8 28q-17 8 -37 9v22h-25v-24q-20 -4 -31 -16t-11 -29
q0 -31 45 -46q27 -9 27 -22q0 -16 -24 -16q-22 0 -42 11l-8 -29q17 -10 43 -11v-24h25v26q21 3 33 16t12 30.5t-10 28.5t-32 19q-31 11 -31 21q0 15 22 15zM0 -12v413h294v-118h118v-295h-412z" />
    <glyph glyph-name="uniF1C0" unicode="&#xf1c0;" horiz-adv-x="409" 
d="M358 272v24h-307v-24v-33v-178q0 -7 5 -12t12 -5h273q7 0 12 5t5 12v178v33zM341 401q19 0 34.5 -9t24.5 -25t9 -34v-274q0 -28 -20 -48t-48 -20h-273q-28 0 -48 20t-20 48v274q0 28 20 48t48 20h273zM160 221v30h138v-30h-138zM160 157v30h138v-30h-138zM160 92v30h138
v-30h-138zM124.5 251q6.5 0 11 -4t4.5 -10.5t-4.5 -11t-11 -4.5t-11 4.5t-4.5 11t4.5 10.5t11 4zM124 187q5 0 8.5 -2t5.5 -5.5t2 -7.5q0 -6 -4.5 -10.5t-11 -4.5t-11 4.5t-4.5 10.5t4.5 10.5t10.5 4.5zM124 123q3 0 5.5 -1t4 -2.5t3 -3.5t2.5 -4t1 -5q0 -6 -4.5 -10.5
t-11 -4.5t-11 4.5t-4.5 10.5q0 3 1.5 6t3.5 5t4.5 3.5t5.5 1.5z" />
    <glyph glyph-name="uniF1C1" unicode="&#xf1c1;" 
d="M400 344q12 -12 12 -29v-288q0 -17 -12 -29t-29 -12h-330q-17 0 -29 12t-12 29v329q0 17 12 29.5t29 12.5h289q17 0 29 -12zM330 356h-289v-143h289v143zM278 233h-51v103h51v-103z" />
    <glyph glyph-name="uniF1C2" unicode="&#xf1c2;" horiz-adv-x="413" 
d="M64 213q49 0 64 9q-3 -24 -21 -40t-43 -16t-43 16t-21 40q15 -9 64 -9zM123 230q-12 -8 -59 -8t-59 8q12 8 59 8t59 -8zM348 213q49 0 65 9q-2 -15 -11 -28t-23 -20.5t-31 -7.5q-24 0 -42.5 16t-21.5 40q15 -9 64 -9zM408 230q-13 -8 -59.5 -8t-59.5 8q13 8 59.5 8
t59.5 -8zM206.5 355q10.5 0 18 -7.5t7.5 -18.5q0 -7 -3.5 -13t-9.5 -9.5t-13 -3.5q-10 0 -18 7.5t-8 18.5t8 18.5t18.5 7.5zM175 329q0 -7 3 -13h-127q-1 8 5 12q7 4 22 7t31.5 4.5t32 2t26.5 0.5h10q-3 -6 -3 -13zM238 329q0 7 -3 13q97 1 122 -14q2 -2 3.5 -5t1.5 -5v-2
h-127q3 6 3 13zM221 300l24 -225q-7 -8 -39 -8.5t-39 8.5l25 225q7 -3 14.5 -3t14.5 3zM196 370.5q0 4.5 3 7.5t7.5 3t7.5 -3t3 -7.5t-3 -7.5t-7.5 -3t-7.5 3t-3 7.5zM116 240q-2 0 -2 1l-50 62l-49 -62q-2 -2 -4.5 0t-0.5 4l52 64q1 2 2.5 2t1.5 -2l52 -64q2 -2 0 -4
q-1 -1 -2 -1zM297 240q-1 0 -2 1q-2 2 -1 4l52 64q1 1 2.5 1t2.5 -1l51 -64q2 -2 0 -4t-4 0l-50 62l-49 -62q-1 -1 -2 -1zM374 36v0v-1q0 -7 -22.5 -13.5t-61 -10.5t-84.5 -4q-69 0 -118.5 8.5t-49.5 19.5v1v0l9 27q29 -24 159.5 -24t158.5 24zM253 100q48 -3 78 -9.5
t30 -15.5q0 -7 -20.5 -13t-56.5 -9.5t-78 -3.5q-64 0 -109.5 7.5t-45.5 18.5q0 9 30.5 15.5t78.5 9.5l-3 -28l2 -3q10 -13 46 -13q37 0 48 12l3 4z" />
    <glyph glyph-name="uniF1C3" unicode="&#xf1c3;" horiz-adv-x="424" 
d="M215.5 585.5q24.5 -24.5 33 -57.5t-0.5 -64l158 -158q18 -18 18 -44.5t-18.5 -44.5t-44.5 -18t-45 18l-157 158q-31 -9 -64.5 -0.5t-57.5 33t-33 57.5t0 64l63 -62l81 7l8 82l-63 62q32 9 65 0.5t57.5 -33zM383.5 239q9.5 9 9.5 22.5t-9.5 22.5t-22.5 9t-22.5 -9
t-9.5 -22t9.5 -22.5t22.5 -9.5t22.5 9z" />
    <glyph glyph-name="uniF1C4" unicode="&#xf1c4;" 
d="M411 242q1 0 1 -2v-45v-45q0 -1 -1 -1h-47q-19 0 -23 -9.5t9 -22.5l34 -34q1 -1 0 -2l-4.5 -4t-12.5 -12l-15 -15q-6 -7 -15 -15.5t-13 -12.5l-4 -4q-1 -1 -2 0l-33 33q-13 13 -22.5 9.5t-9.5 -22.5v-47q0 -2 -2 -2h-45h-45q-1 0 -1 2v47q0 19 -9.5 22.5t-23.5 -9.5
q-7 -7 -15.5 -16t-13 -13l-4.5 -4q-1 -1 -2 0l-32 32l-31 31q-1 1 0 2q0 1 4.5 5t12.5 12.5t16 16.5q13 13 9 22.5t-22 9.5h-48q-1 0 -1 1v45v45q0 2 1 2h48q18 0 22 9.5t-9 22.5l-16 16l-13 13l-4 4q-1 1 0 2q4 5 31 32l32 32q1 1 2 0q2 -1 33 -33q14 -14 23.5 -10t9.5 23
v47q0 2 1 2h45h45q2 0 2 -2v-47q0 -19 9.5 -23t22.5 10q32 31 33 33q1 1 2 0l32 -32l9.5 -9.5l9 -9l6.5 -6.5t5 -4.5t2 -2.5q1 -1 0 -2q-1 0 -34 -33q-13 -13 -9 -22.5t23 -9.5h47zM209.5 128q28.5 0 49 20t20.5 48.5t-20.5 49t-49 20.5t-49 -20.5t-20.5 -49t20.5 -48.5
t49 -20z" />
    <glyph glyph-name="uniF1C5" unicode="&#xf1c5;" horiz-adv-x="512" 
d="M256 299q106 0 181 -75t75 -181v-96q0 -5 -3 -8t-8 -3h-490q-5 0 -8 3t-3 8v96q0 106 75 181t181 75zM307 195q-4 -10 6 -14q2 -1 4 -1q7 0 10 6l16 40q4 10 -5.5 14t-13.5 -6zM245 245v-42q0 -3 1 -4.5t2.5 -3t3.5 -2.5t4 -1q4 0 7.5 3t3.5 8v42q0 5 -3.5 8t-7.5 3
t-7.5 -3t-3.5 -8zM96 21q4 0 7.5 3.5t3.5 7.5t-3.5 7.5t-7.5 3.5h-43q-4 0 -7 -3.5t-3 -7.5t3 -7.5t7 -3.5h43zM118 100q4 10 -6 14l-39 16q-10 4 -14 -6t6 -14l39 -16q2 -1 4 -1q7 0 10 7zM150 148q8 8 0 15l-30 30q-7 8 -14.5 0.5t-0.5 -15.5l30 -30q3 -3 7.5 -3t7.5 3z
M199 181q10 4 6 14l-17 39q-4 10 -14 6t-5 -14l16 -40q3 -6 10 -6q2 0 4 1zM299 43q0 11 -6 21l99 99q7 8 -0.5 15.5t-14.5 -0.5l-99 -99q-11 6 -22 6q-18 0 -30.5 -12.5t-12.5 -30t12.5 -30t30.5 -12.5t30.5 12.5t12.5 30.5zM394 100q3 -7 10 -7q2 0 4 1l39 16q10 4 6 14
t-14 6l-39 -16q-10 -4 -6 -14zM459 21q4 0 7 3.5t3 7.5t-3 7.5t-7 3.5h-43q-4 0 -7.5 -3.5t-3.5 -7.5q0 -2 1 -4t2.5 -3.5t3.5 -2.5t4 -1h43z" />
    </font>
</defs>
</svg>
