<!-- Generated by IcoMoon.io -->
<svg version="1.1" xmlns="http://www.w3.org/2000/svg" width="32" height="32" viewBox="0 0 32 32">
<title>1</title>
<path fill="#444" d="M27.375 2v0h-22.75c-1.444 0-2.625 1.181-2.625 2.625v22.75c0 1.444 1.181 2.625 2.625 2.625h22.75c1.444 0 2.625-1.181 2.625-2.625v-22.75c0-1.444-1.181-2.625-2.625-2.625zM21.241 25.075h-9.325c-0.234 0-0.425-0.191-0.425-0.425v-1.688c0-0.234 0.191-0.425 0.425-0.425h2.75c0.234 0 0.425-0.191 0.425-0.425v-9.5c0-0.206 0.003-0.419 0.009-0.637 0.006-0.269-0.306-0.422-0.516-0.25l-1.819 1.512c-0.166 0.125-0.328 0.203-0.488 0.238s-0.309 0.034-0.45 0.006c-0.141-0.028-0.266-0.078-0.375-0.15s-0.191-0.144-0.25-0.219l-0.85-1.144c-0.134-0.181-0.106-0.431 0.066-0.578l4.869-4.125c0.259-0.219 0.591-0.341 0.931-0.341h1.884c0.234 0 0.425 0.191 0.425 0.425v14.763c0 0.234 0.191 0.425 0.425 0.425h2.288c0.234 0 0.425 0.191 0.425 0.425v1.688c0 0.234-0.191 0.425-0.425 0.425z"></path>
</svg>
