<!-- Generated by IcoMoon.io -->
<svg version="1.1" xmlns="http://www.w3.org/2000/svg" width="32" height="32" viewBox="0 0 32 32">
<title>2</title>
<path fill="#444" d="M27.375 2v0h-22.75c-1.444 0-2.625 1.181-2.625 2.625v22.75c0 1.444 1.181 2.625 2.625 2.625h22.75c1.444 0 2.625-1.181 2.625-2.625v-22.75c0-1.444-1.181-2.625-2.625-2.625zM21.906 25.169h-11.813c-0.213 0-0.381-0.172-0.381-0.381v-0.744c0-0.216 0.047-0.453 0.137-0.706s0.247-0.484 0.463-0.694l5.375-5.387c0.459-0.459 0.863-0.897 1.212-1.319s0.641-0.834 0.875-1.238c0.234-0.403 0.409-0.816 0.525-1.231s0.175-0.853 0.175-1.313c0-0.809-0.209-1.422-0.625-1.844s-1.003-0.631-1.762-0.631c-0.334 0-0.641 0.047-0.919 0.144s-0.528 0.228-0.75 0.394c-0.222 0.166-0.409 0.363-0.569 0.588-0.156 0.222-0.272 0.463-0.347 0.725-0.003 0.009-0.006 0.016-0.009 0.025-0.15 0.409-0.35 0.681-0.603 0.819s-0.616 0.169-1.081 0.094l-1.45-0.259c-0.209-0.037-0.35-0.238-0.309-0.447 0.144-0.728 0.372-1.375 0.684-1.944 0.366-0.666 0.825-1.222 1.375-1.662s1.178-0.772 1.887-0.994c0.709-0.222 1.472-0.331 2.287-0.331 0.859 0 1.641 0.128 2.344 0.381s1.306 0.609 1.806 1.062 0.887 1.003 1.163 1.644 0.413 1.35 0.413 2.125c0 0.666-0.097 1.284-0.288 1.85s-0.453 1.106-0.781 1.619c-0.328 0.512-0.709 1.009-1.144 1.494s-0.891 0.972-1.375 1.462l-2.944 3.009c-0.259 0.266-0.025 0.709 0.344 0.644 0.003 0 0.009 0 0.012-0.003 0.416-0.075 0.809-0.113 1.175-0.113h4.075c0.375 0 0.669 0.103 0.881 0.313s0.319 0.484 0.319 0.825v1.644h0.003c0 0.212-0.172 0.381-0.381 0.381z"></path>
</svg>
