<!-- Generated by IcoMoon.io -->
<svg version="1.1" xmlns="http://www.w3.org/2000/svg" width="32" height="32" viewBox="0 0 32 32">
<title>access-taxes</title>
<path fill="#444" d="M13.616 22.872c-0.506 0-0.891 0.175-1.166 0.528s-0.419 0.781-0.419 1.288v0.791c0 0.506 0.144 0.947 0.419 1.288 0.275 0.353 0.672 0.528 1.188 0.528 0.494 0 0.878-0.175 1.153-0.528s0.406-0.781 0.406-1.288v-0.791c0-0.506-0.144-0.934-0.419-1.288-0.284-0.353-0.669-0.528-1.162-0.528v0z"></path>
<path fill="#444" d="M7.591 18.406c0.275-0.353 0.406-0.781 0.406-1.288v-0.781c0-0.506-0.144-0.934-0.419-1.287s-0.659-0.537-1.166-0.537-0.9 0.175-1.175 0.537c-0.275 0.353-0.406 0.791-0.406 1.287v0.781c0 0.506 0.144 0.934 0.419 1.275 0.275 0.353 0.672 0.528 1.188 0.528 0.503 0.003 0.888-0.163 1.153-0.516v0z"></path>
<path fill="#444" d="M17.956 21.188v-7.219c0-0.144 0.166-0.284 0.341-0.284h4.387v-6.313c0-0.034-0.009-0.078-0.034-0.1v0l-4.791-5.253c-0.034-0.034-0.066-0.056-0.109-0.056h-13.866c-1.013 0-1.825 0.825-1.825 1.825v24.438c0 0.947 0.737 1.738 1.681 1.738h17.072c1.022 0 1.869-0.847 1.869-1.869v-6.641h-4.384c-0.175 0.009-0.341-0.1-0.341-0.231v-0.034zM3.347 17.091v-0.781c0-0.869 0.275-1.594 0.834-2.188s1.297-0.891 2.231-0.891c0.934 0 1.672 0.297 2.231 0.878 0.559 0.594 0.834 1.319 0.834 2.188v0.781c0 0.869-0.275 1.584-0.834 2.178-0.55 0.581-1.297 0.878-2.222 0.878-0.934 0-1.694-0.297-2.253-0.878-0.538-0.572-0.822-1.297-0.822-2.166v0zM5.853 26.491l7.256-11.609 1.109 0.681-7.256 11.609-1.109-0.681zM16.681 25.456c0 0.869-0.275 1.594-0.834 2.188-0.559 0.581-1.297 0.878-2.209 0.878-0.934 0-1.694-0.297-2.253-0.878s-0.847-1.309-0.847-2.188v-0.791c0-0.869 0.275-1.594 0.834-2.178s1.297-0.878 2.231-0.878c0.925 0 1.672 0.297 2.231 0.878 0.559 0.594 0.847 1.319 0.847 2.178v0.791zM17.725 7.591v-3.078c0-0.144 0.166-0.197 0.262-0.109l2.956 3.112c0.087 0.1 0.022 0.253-0.109 0.253l-2.956-0.034c-0.087 0-0.153-0.066-0.153-0.144v0z"></path>
<path fill="#444" d="M30.669 17.459l-6.016-5.178c-0.175-0.156-0.441-0.053-0.441 0.156v2.509c0 0.103-0.131 0.209-0.262 0.209h-4.244c-0.131 0-0.262 0.103-0.262 0.209v4.491c0 0.103 0.131 0.209 0.262 0.209h4.244c0.131 0 0.262 0.103 0.262 0.209v2.506c0 0.209 0.262 0.272 0.441 0.156-0.087 0.063 6.012-5.178 6.012-5.178 0.134-0.081 0.134-0.197 0.003-0.3v0z"></path>
</svg>
