<!-- Generated by IcoMoon.io -->
<svg version="1.1" xmlns="http://www.w3.org/2000/svg" width="32" height="32" viewBox="0 0 32 32">
<title>account-current</title>
<path fill="#444" d="M10.303 18.198c0.764 0 1.558-0.056 2.203-0.161v-8.716c-0.645-0.104-1.439-0.161-2.203-0.161-4.364 0-7.903 1.825-7.903 4.076v0.884c0 2.251 3.539 4.077 7.903 4.077zM10.303 22.749c0.764 0 1.558-0.056 2.203-0.161v-2.555c-0.645 0.104-1.419 0.161-2.184 0.161-3.809 0-6.999-1.391-7.746-3.242-0.109 0.27-0.177 0.549-0.177 0.835v0.884c0 2.251 3.539 4.076 7.903 4.076zM12.506 24.783v-0.199c-0.645 0.104-1.419 0.161-2.184 0.161-3.809 0-6.999-1.391-7.746-3.242-0.109 0.27-0.177 0.549-0.177 0.835v0.884c0 2.251 3.557 4.076 7.921 4.076 0.873 0 1.703-0.073 2.488-0.208-0.195-0.453-0.304-0.93-0.304-1.425v-0.884zM21.698 2.256c-4.364 0-7.902 1.825-7.902 4.076v0.884c0 2.251 3.538 4.076 7.902 4.076s7.902-1.825 7.902-4.076v-0.884c0-2.251-3.538-4.076-7.902-4.076zM21.734 13.291c-3.809 0-7.007-1.391-7.754-3.242-0.109 0.27-0.184 0.549-0.184 0.835v0.884c0 2.251 3.538 4.076 7.902 4.076s7.902-1.825 7.902-4.076v-0.884c0-0.286-0.040-0.565-0.148-0.835-0.747 1.851-3.908 3.242-7.718 3.242zM21.734 17.842c-3.809 0-7.007-1.391-7.754-3.242-0.109 0.27-0.184 0.549-0.184 0.835v0.884c0 2.251 3.538 4.076 7.902 4.076s7.902-1.825 7.902-4.076v-0.884c0-0.286-0.040-0.565-0.148-0.835-0.747 1.851-3.908 3.242-7.718 3.242zM21.734 22.639c-3.809 0-7.007-1.391-7.754-3.242-0.109 0.27-0.184 0.549-0.184 0.835v0.884c0 2.251 3.538 4.076 7.902 4.076s7.902-1.825 7.902-4.076v-0.884c0-0.286-0.040-0.565-0.148-0.835-0.747 1.851-3.908 3.242-7.718 3.242zM21.734 27.19c-3.809 0-7.007-1.391-7.754-3.241-0.109 0.27-0.184 0.549-0.184 0.835v0.884c0 2.251 3.538 4.076 7.902 4.076s7.902-1.825 7.902-4.076v-0.884c0-0.286-0.040-0.565-0.148-0.835-0.747 1.851-3.908 3.242-7.718 3.242z"></path>
</svg>
