<!-- Generated by IcoMoon.io -->
<svg version="1.1" xmlns="http://www.w3.org/2000/svg" width="32" height="32" viewBox="0 0 32 32">
<title>account-manage</title>
<path fill="#444" d="M19.766 4.499l-0.589-1.215c-0.385-0.793-1.325-1.126-2.099-0.732l-9.957 5.048h1.523l11.122-3.101zM21.27 7.6h3.948l-0.489-1.827c-0.188-0.716-0.821-1.18-1.51-1.18-0.138 0-0.276 0.021-0.414 0.060l-2.613 0.724-7.98 2.223h9.057zM29.265 15.809c-0.159-0.169-0.36-0.291-0.57-0.375-0.084-0.033-0.276-0.056-0.276-0.071v-5.017c0-0.886-0.704-1.67-1.569-1.67h-23.156c-0.495 0-0.937 0.267-1.225 0.636-0.132 0.17-0.194 0.382-0.25 0.597-0.034 0.135-0.018 0.292-0.018 0.437v17.878c0 0.886 0.625 1.62 1.49 1.62h23.156c0.865 0 1.572-0.734 1.572-1.62v-5.176c0-0.015 0.175-0.037 0.259-0.070 0.209-0.081 0.429-0.208 0.588-0.377 0.317-0.334 0.55-0.814 0.55-1.35v-4.086c0-0.536-0.234-1.021-0.551-1.355zM23.688 22.477c-1.8 0-3.259-1.459-3.259-3.259s1.459-3.259 3.259-3.259 3.259 1.459 3.259 3.259c0 1.8-1.459 3.259-3.259 3.259z"></path>
</svg>
