<!-- Generated by IcoMoon.io -->
<svg version="1.1" xmlns="http://www.w3.org/2000/svg" width="32" height="32" viewBox="0 0 32 32">
<title>account-add</title>
<path fill="#444" d="M23.72 15.269c-3.474 0-6.319 2.86-6.319 6.352s2.845 6.352 6.319 6.352 6.319-2.86 6.319-6.352c0-3.492-2.845-6.352-6.319-6.352zM26.84 22.009c0 0.137-0.071 0.295-0.209 0.295h-2.030c-0.137 0-0.249 0.065-0.249 0.202v2.043c0 0.137-0.11 0.243-0.248 0.243h-0.768c-0.137 0-0.228-0.105-0.228-0.243v-2.043c0-0.137-0.132-0.202-0.269-0.202h-2.030c-0.137 0-0.285-0.157-0.285-0.295v-0.775c0-0.137 0.148-0.27 0.285-0.27h2.030c0.137 0 0.269-0.090 0.269-0.227v-2.043c0-0.137 0.091-0.218 0.228-0.218h0.768c0.137 0 0.248 0.081 0.248 0.218v2.043c0 0.137 0.112 0.227 0.249 0.227h2.030c0.137 0 0.209 0.133 0.209 0.27v0.775zM10.918 17.653c0.375 0.929 1.959 1.628 3.872 1.628 0.406 0 0.79-0.032 1.16-0.090 0.135-0.425 0.301-0.834 0.502-1.225-0.509 0.121-1.042 0.189-1.637 0.189-2.192 0-3.956-0.916-3.956-2.047v-0.444c0-0.144 0.004-0.284 0.059-0.419 0.375 0.929 1.959 1.628 3.872 1.628 1.122 0 2.13-0.24 2.855-0.626 0.306-0.337 0.637-0.646 0.995-0.926 0.012-0.025 0.021-0.050 0.031-0.075 0.005 0.012 0.008 0.025 0.013 0.038 1.346-1.037 3.077-1.655 4.907-1.655 2.278 0 4.204 0.957 5.831 2.488v-6.816c0-1.444-1.326-2.593-2.834-2.593h-10.967l-2.742-2.679h-8.225c-1.508 0-2.696 1.204-2.696 2.648v15.751c0 1.444 1.188 2.654 2.696 2.654h11.691c-0.334-0.766-0.569-1.471-0.688-2.263-0.283 0.033-0.543 0.042-0.845 0.042-2.192 0-3.954-0.926-3.954-2.056v-0.444c0-0.144 0.004-0.284 0.059-0.419 0.375 0.929 1.959 1.628 3.872 1.628 0.273 0 0.531-0.015 0.789-0.042 0.003-0.343 0.024-0.68 0.070-1.011-0.279 0.032-0.536 0.049-0.834 0.049-2.192 0-3.956-0.916-3.956-2.047v-0.444c0-0.144 0.004-0.284 0.059-0.419zM10.86 11.092c0-1.131 1.78-2.047 3.971-2.047s3.971 0.916 3.971 2.047v0.444c0 1.131-1.78 2.047-3.971 2.047s-3.971-0.916-3.971-2.047v-0.444zM10.86 13.378c0-0.144 0.004-0.284 0.059-0.419 0.375 0.929 1.959 1.628 3.872 1.628s3.531-0.698 3.906-1.628c0.055 0.135 0.105 0.276 0.105 0.419v0.444c0 1.131-1.78 2.047-3.971 2.047s-3.971-0.916-3.971-2.047v-0.444zM5.118 14.559c0-1.131 1.728-2.047 3.919-2.047 0.384 0 0.77 0.028 1.057 0.081v4.377c-0.287 0.052-0.673 0.081-1.057 0.081-2.192 0-3.919-0.917-3.919-2.047v-0.444zM5.118 16.845c0-0.144 0.014-0.284 0.069-0.419 0.375 0.929 1.93 1.628 3.843 1.628 0.384 0 0.777-0.029 1.064-0.081v1.283c-0.287 0.052-0.673 0.081-1.057 0.081-2.192 0-3.919-0.916-3.919-2.047v-0.444zM9.072 21.621c-2.191 0-3.953-0.916-3.953-2.047v-0.444c0-0.144 0.014-0.284 0.069-0.419 0.375 0.929 1.93 1.628 3.843 1.628 0.384 0 0.777-0.029 1.064-0.081v0.544c0 0.248 0.092 0.488 0.19 0.715-0.394 0.068-0.774 0.104-1.212 0.104z"></path>
</svg>
