<!-- Generated by IcoMoon.io -->
<svg version="1.1" xmlns="http://www.w3.org/2000/svg" width="32" height="32" viewBox="0 0 32 32">
<title>account-foreign</title>
<path fill="#444" d="M27.364 8.347l-0.409 0.13-2.18 0.195-0.616 0.988-0.447-0.143-1.12-1.613-0.867-0.775-0.337-0.871-1.091-0.983-1.287-0.253-0.030 0.591 1.261 1.235 0.617 0.73-0.693 0.364-0.564-0.167-0.6-0.381-0.217-0.659-1.11-0.458-0.533 1.33-0.954 0.536 0.111 0.899 1.457 0.282 0.448-1.058 1.007-0.226 0.559 0.303h0.897l1.392 1.022 0.851 1.912-0.119 0.651-1.313-0.165-2.646 0.131-1.255 2.992-0.213 0.875h-0.586l-1.092-0.508-1.061 0.505 0.264 1.124 0.462-0.535 0.812-0.026-0.057 1.010 0.672 0.198 0.672 0.758 1.097-0.31 1.253 0.199 1.455 0.393 0.727 0.086 0.571 1.819 4.040 0.828-2.54 3.112-1.623 0.758-0.616 1.686-2.349 1.575-0.25 0.908c6.004-1.452 10.47-6.869 10.47-13.346-0.002-2.829-0.855-5.462-2.317-7.646zM16.576 19.132l-1.027-1.036-2.295-0.513-0.775-1.587v0.942l-0.788 0.392-1.957-2.887 0.283-2.399-1.451-1.936-2.060 0.062h-1.538l-0.774-0.527 0.987-0.794-0.984 0.224c-1.186 2.035-1.878 4.394-1.878 6.924 0 7.589 6.125 13.742 13.681 13.742 0.582 0 1.152-0.052 1.717-0.12l-0.143-1.665c0 0 0.628-2.473 0.628-2.557s-0.629-2.22-0.629-2.22l-0.997-1.856 1.625-1.188-1.625-1.001zM7.403 6.692l2.43-0.345 1.12-0.619 1.261 0.364 2.014-0.113 0.69-1.090 1.006 0.166 2.443-0.23 0.673-0.745 0.95-0.637 1.343 0.203 0.49-0.074c-1.769-0.836-3.738-1.31-5.824-1.31-4.247 0-8.044 1.889-10.551 5.007h0.007l1.948-0.575z"></path>
</svg>
