<!-- Generated by IcoMoon.io -->
<svg version="1.1" xmlns="http://www.w3.org/2000/svg" width="32" height="32" viewBox="0 0 32 32">
<title>account-savings</title>
<path fill="#444" d="M27.226 2.19h-22.487c-1.338 0-2.441 1.116-2.441 2.454v20.231c0 1.338 1.103 2.464 2.441 2.464h0.568v1.901c0 0.299 0.203 0.571 0.501 0.571h3.881c0.299 0 0.561-0.273 0.561-0.571v-1.901h11.499v1.901c0 0.299 0.227 0.571 0.525 0.571h3.881c0.299 0 0.537-0.273 0.537-0.571v-1.901h0.532c1.338 0 2.37-1.125 2.37-2.464v-20.231c0.108-1.338-1.031-2.454-2.37-2.454zM5.092 23.469c0 0.178-0.144 0.322-0.322 0.322h-1.72c-0.178 0-0.322-0.144-0.322-0.322v-2.149c0-0.178 0.144-0.322 0.322-0.322h1.72c0.178 0 0.322 0.144 0.322 0.322v2.149zM5.092 7.241c0 0.178-0.144 0.322-0.322 0.322h-1.72c-0.178 0-0.322-0.144-0.322-0.322v-2.149c0-0.178 0.144-0.322 0.322-0.322h1.72c0.178 0 0.322 0.144 0.322 0.322v2.149zM20.472 19.741c-2.154 0.081-4.037-1.232-4.782-3.132l-2.009-0.866c-0.268-0.116-0.446-0.375-0.457-0.668s0.147-0.564 0.406-0.7l1.938-1.015c0.599-1.951 2.378-3.402 4.532-3.483 2.724-0.103 5.015 2.022 5.118 4.746s-2.022 5.015-4.746 5.118z"></path>
</svg>
