<!-- Generated by IcoMoon.io -->
<svg version="1.1" xmlns="http://www.w3.org/2000/svg" width="32" height="32" viewBox="0 0 32 32">
<title>add_above</title>
<path fill="#444" d="M30.816 27.356l-13.525-24.159c-0.566-1.013-2.022-1.013-2.584 0l-13.528 24.159c-0.55 0.991 0.163 2.206 1.294 2.206h27.053c1.131 0 1.847-1.219 1.291-2.206zM22.919 18.125v1.712c0 0.303-0.2 0.591-0.503 0.591h-4.488c-0.303 0-0.5 0.203-0.5 0.506v4.519c0 0.303-0.294 0.578-0.597 0.578h-1.7c-0.306 0-0.563-0.275-0.563-0.578v-4.516c0-0.303-0.238-0.506-0.541-0.506h-4.491c-0.303 0-0.578-0.288-0.578-0.591v-1.716c0-0.303 0.275-0.553 0.578-0.553h4.484c0.303 0 0.541-0.244 0.541-0.547v-4.519c0-0.303 0.259-0.541 0.563-0.541h1.7c0.303 0 0.597 0.238 0.597 0.541v4.519c0 0.303 0.197 0.547 0.5 0.547h4.488c0.303 0 0.503 0.25 0.503 0.553h0.006z"></path>
</svg>
