<!-- Generated by IcoMoon.io -->
<svg version="1.1" xmlns="http://www.w3.org/2000/svg" width="32" height="32" viewBox="0 0 32 32">
<title>alert</title>
<path fill="#444" d="M15.966 30.002c1.766 0 3.23-1.175 3.473-2.541h-6.948c0.244 1.366 1.709 2.541 3.474 2.541zM29.382 23.195c-3.559-0.882-4.718-5.925-4.718-13.424 0-2.818-4.774-5.248-7.267-6.325-0.003-0.8-0.667-1.448-1.483-1.448s-1.478 0.648-1.482 1.448c-2.494 1.078-7.264 3.507-7.264 6.325 0 7.498-1.023 12.542-4.576 13.424-0.18 0.045-0.3 0.194-0.3 0.367v2.703c0 0.209 0.166 0.417 0.392 0.417h26.58c0.225 0 0.443-0.207 0.443-0.417v-2.702c0-0.173-0.145-0.322-0.325-0.367z"></path>
</svg>
