<!-- Generated by IcoMoon.io -->
<svg version="1.1" xmlns="http://www.w3.org/2000/svg" width="32" height="32" viewBox="0 0 32 32">
<title>arrow-downright</title>
<path fill="#444" d="M25.222 25.656c0.328 0.066 0.462-0.066 0.394-0.394l-2.569-15.344c-0.066-0.463-0.594-0.725-0.856-0.463l-3.094 3.094c-0.131 0.131-0.462 0.066-0.659-0.131l-8.559-8.559c-0.197-0.197-0.528-0.263-0.659-0.131l-5.531 5.531c-0.131 0.131-0.066 0.463 0.131 0.659l8.559 8.559c0.197 0.197 0.262 0.528 0.131 0.659l-3.094 3.094c-0.262 0.262 0.066 0.725 0.463 0.856-0.197-0.066 15.344 2.569 15.344 2.569v0z"></path>
</svg>
