<!-- Generated by IcoMoon.io -->
<svg version="1.1" xmlns="http://www.w3.org/2000/svg" width="32" height="32" viewBox="0 0 32 32">
<title>arrow-forward</title>
<path fill="#444" d="M29.869 15.761l-13.595-13.613c-0.129-0.13-0.339-0.129-0.468 0.001l-1.987 1.998c-0.128 0.129-0.128 0.338 0 0.467l9.046 9.071c0.208 0.208 0.060 0.57-0.234 0.57h-20.313c-0.183 0-0.315 0.136-0.315 0.318v2.854c0 0.183 0.132 0.294 0.315 0.294h20.313c0.294 0 0.442 0.374 0.234 0.582l-9.046 9.074c-0.129 0.129-0.129 0.342-0 0.471l1.987 2.001c0.129 0.13 0.339 0.131 0.468 0.002l13.595-13.623c0.129-0.129 0.129-0.338-0-0.467z"></path>
</svg>
