<!-- Generated by IcoMoon.io -->
<svg version="1.1" xmlns="http://www.w3.org/2000/svg" width="32" height="32" viewBox="0 0 32 32">
<title>arrow-downleft</title>
<path fill="#444" d="M6.778 25.656c-0.328 0.066-0.463-0.066-0.394-0.394l2.569-15.344c0.066-0.463 0.594-0.725 0.856-0.463l3.094 3.094c0.131 0.131 0.463 0.066 0.659-0.131l8.559-8.559c0.197-0.197 0.528-0.263 0.659-0.131l5.531 5.531c0.131 0.131 0.066 0.463-0.131 0.659l-8.559 8.559c-0.197 0.197-0.262 0.528-0.131 0.659l3.094 3.094c0.262 0.262-0.066 0.725-0.462 0.856 0.197-0.066-15.344 2.569-15.344 2.569v0z"></path>
</svg>
