<!-- Generated by IcoMoon.io -->
<svg version="1.1" xmlns="http://www.w3.org/2000/svg" width="32" height="32" viewBox="0 0 32 32">
<title>arrow-back</title>
<path fill="#444" d="M29.616 14.283h-20.26c-0.294 0-0.442-0.375-0.234-0.584l9.022-9.061c0.129-0.129 0.129-0.343-0-0.472l-1.991-1.998c-0.129-0.13-0.339-0.131-0.468-0.001l-13.55 13.594c-0.129 0.129-0.129 0.338-0 0.467l13.55 13.605c0.129 0.13 0.339 0.13 0.469 0l1.991-1.996c0.129-0.129 0.129-0.338 0-0.467l-9.022-9.061c-0.208-0.209-0.060-0.574 0.234-0.574h20.26c0.183 0 0.38-0.13 0.38-0.313v-2.849c0-0.183-0.197-0.292-0.38-0.292z"></path>
</svg>
