<!-- Generated by IcoMoon.io -->
<svg version="1.1" xmlns="http://www.w3.org/2000/svg" width="32" height="32" viewBox="0 0 32 32">
<title>audio</title>
<path fill="#444" d="M24.738 26.025c-0.381 0-0.769-0.144-1.063-0.438-0.587-0.587-0.587-1.538 0-2.119 4.094-4.094 4.094-10.756 0-14.85-0.587-0.588-0.587-1.537 0-2.119 0.587-0.588 1.538-0.588 2.119 0 2.55 2.55 3.956 5.937 3.956 9.544s-1.406 6.994-3.956 9.544c-0.294 0.288-0.675 0.438-1.056 0.438v0 0zM19.406 23.194c-0.381 0-0.769-0.144-1.063-0.438-0.587-0.587-0.587-1.538 0-2.119 2.531-2.531 2.531-6.656 0-9.194-0.587-0.588-0.587-1.537 0-2.119 0.587-0.588 1.538-0.588 2.119 0 3.706 3.706 3.706 9.731 0 13.437-0.288 0.288-0.669 0.431-1.056 0.431zM15.25 30.038c-0.262 0-0.519-0.1-0.706-0.294l-7.706-7.706h-3.587c-0.55 0-1-0.45-1-1v-10c0-0.55 0.45-1 1-1h3.587l7.706-7.706c0.287-0.288 0.719-0.369 1.088-0.219s0.619 0.519 0.619 0.925v26c0 0.406-0.244 0.769-0.619 0.925-0.125 0.050-0.25 0.075-0.381 0.075z"></path>
</svg>
