<!-- Generated by IcoMoon.io -->
<svg version="1.1" xmlns="http://www.w3.org/2000/svg" width="32" height="32" viewBox="0 0 32 32">
<title>authorise</title>
<path fill="#444" d="M23.532 10.117c0.362-0.345 0.387-0.773 0.097-1.060v0l-1.93-1.93c-0.29-0.29-0.708-0.259-0.963 0l-11.999 11.995c-0.138 0.138-0.366 0.138-0.504 0l-5.054-5.054c-0.193-0.193-0.58-0.193-0.773 0l-2.216 2.22c-0.193 0.193-0.193 0.58 0 0.773l7.912 7.912c0.193 0.193 0.58 0.193 0.773 0zM31.713 9.054v0l-1.93-1.93c-0.29-0.29-0.708-0.259-0.963 0l-11.999 11.999c-0.138 0.138-0.366 0.138-0.504 0l-0.39-0.39-2.989 2.989 3.248 3.248c0.193 0.193 0.58 0.193 0.773 0l14.664-14.857c0.359-0.342 0.38-0.77 0.090-1.060zM8.989 17.78l2.989-2.989-0.718-0.718c-0.193-0.193-0.58-0.193-0.773 0l-2.22 2.22c-0.193 0.193-0.193 0.58 0 0.773l0.721 0.715z"></path>
</svg>
