<!-- Generated by IcoMoon.io -->
<svg version="1.1" xmlns="http://www.w3.org/2000/svg" width="32" height="32" viewBox="0 0 32 32">
<title>balance</title>
<path fill="#444" d="M12.263 9.088c0-0.235 0.023-0.424 0.064-0.649h-6.811c-0.043 0-0.086-0.043-0.128-0.036-0.013 0.002-0.025-0.019-0.038-0.016-0.030 0.007-0.060 0.004-0.089 0.015-0.011 0.004-0.022 0.002-0.032 0.006-0.037 0.016-0.073 0.032-0.106 0.055-0.007 0.005-0.014 0.009-0.021 0.014-0.027 0.019-0.052 0.039-0.076 0.062-0.009 0.009-0.018 0.017-0.026 0.026-0.022 0.023-0.042 0.047-0.060 0.073-0.006 0.008-0.013 0.016-0.018 0.024-0.021 0.031-0.040 0.065-0.055 0.1l-0.006 0.014c0 0-0 0.001-0 0.001l-4.732 10.554c-0.080 0.115-0.128 0.255-0.128 0.406 0 3.042 2.474 5.517 5.516 5.517s5.516-2.475 5.516-5.517c0-0.151-0.048-0.282-0.128-0.397l-4.288-9.556h5.72c-0.047-0.224-0.073-0.444-0.073-0.696zM9.205 19.085h-7.379l3.69-8.23 3.69 8.23zM31.841 19.294l-4.715-10.517c-0-0-0-0.001-0-0.001l-0.006-0.014c-0.016-0.035-0.035-0.068-0.055-0.1-0.006-0.009-0.012-0.016-0.018-0.024-0.019-0.026-0.039-0.050-0.060-0.073-0.009-0.009-0.017-0.018-0.026-0.026-0.024-0.023-0.049-0.044-0.076-0.063-0.007-0.005-0.013-0.011-0.021-0.016-0.034-0.022-0.069-0.041-0.106-0.058-0.011-0.005-0.021-0.008-0.032-0.012-0.029-0.011-0.058-0.020-0.089-0.028-0.013-0.003-0.025 0.043-0.038 0.040-0.042-0.008-0.084 0.036-0.128 0.036h-6.789c0.042 0.224 0.064 0.413 0.064 0.649 0 0.252-0.025 0.472-0.073 0.696h5.698l-4.339 9.67c-0.001 0.003-0.002 0.001-0.003 0.003-0.003 0.008-0.006 0.013-0.009 0.021-0.013 0.033-0.023 0.065-0.031 0.098-0.002 0.009-0.005 0.017-0.006 0.026-0.008 0.041-0.012 0.082-0.012 0.123 0 0.004-0.001 0.007-0.001 0.011 0 3.042 2.474 5.517 5.516 5.517s5.516-2.475 5.516-5.517c0-0.168-0.061-0.321-0.159-0.443zM22.78 19.085l3.69-8.23 3.69 8.23h-7.38zM15.963 6.745c-1.912 0-3.461 1.021-3.461 2.281s1.55 2.281 3.461 2.281c1.912 0 3.461-1.021 3.461-2.281s-1.55-2.281-3.461-2.281zM15.963 10.103c-0.633 0-1.147-0.482-1.147-1.076s0.513-1.076 1.147-1.076 1.147 0.482 1.147 1.076c0 0.594-0.513 1.076-1.147 1.076z"></path>
</svg>
