<!-- Generated by IcoMoon.io -->
<svg version="1.1" xmlns="http://www.w3.org/2000/svg" width="32" height="32" viewBox="0 0 32 32">
<title>bank</title>
<path fill="#444" d="M2.835 9.695c0.045-0.051 0.099-0.093 0.159-0.129l12.647-7.434c0.219-0.129 0.492-0.129 0.711 0l12.626 7.425c0.063 0.036 0.123 0.084 0.171 0.138 0.198 0.24 0.258 0.432 0.249 0.618-0.018 0.36-0.336 0.603-0.699 0.603h-25.528c-0.225 0-0.45-0.072-0.57-0.264-0.24-0.387 0.078-0.783 0.234-0.957v0zM27.16 23.206c0 0.387-0.315 0.702-0.702 0.702h-2.656c-0.387 0-0.702-0.315-0.702-0.702v-10.57c0-0.387 0.315-0.702 0.702-0.702h2.656c0.387 0 0.702 0.315 0.702 0.702v10.57zM21.070 23.206c0 0.387-0.315 0.702-0.702 0.702h-2.656c-0.387 0-0.702-0.315-0.702-0.702v-10.57c0-0.387 0.315-0.702 0.702-0.702h2.656c0.387 0 0.702 0.315 0.702 0.702v10.57zM14.984 23.206c0 0.387-0.315 0.702-0.702 0.702h-2.656c-0.387 0-0.702-0.315-0.702-0.702v-10.57c0-0.387 0.315-0.702 0.702-0.702h2.656c0.387 0 0.702 0.315 0.702 0.702v10.57zM8.898 23.206c0 0.387-0.315 0.702-0.702 0.702h-2.656c-0.387 0-0.702-0.315-0.702-0.702v-10.57c0-0.387 0.315-0.702 0.702-0.702h2.656c0.387 0 0.702 0.315 0.702 0.702v10.57zM29.999 28.638v0.756c0 0.387-0.234 0.603-0.621 0.603h-26.764c-0.387 0-0.615-0.216-0.615-0.603v-0.723c0-0.153 0.009-0.303 0.102-0.426l1.834-2.425c0.132-0.174 0.327-0.273 0.543-0.276l23.334-0.066c0.24 0 0.462 0.12 0.591 0.324l1.528 2.458c0.072 0.111 0.069 0.243 0.069 0.378v0z"></path>
</svg>
