<!-- Generated by IcoMoon.io -->
<svg version="1.1" xmlns="http://www.w3.org/2000/svg" width="32" height="32" viewBox="0 0 32 32">
<title>basket</title>
<path fill="#444" d="M29.591 11.966h-2.684l-6.909-8.234c-0.337-0.403-0.947-0.456-1.35-0.119l-0.216 0.181c-0.403 0.338-0.456 0.947-0.119 1.35l5.725 6.825h-16.456l5.725-6.825c0.338-0.403 0.284-1.009-0.119-1.35l-0.216-0.181c-0.403-0.337-1.009-0.284-1.35 0.119l-6.909 8.234h-2.303c-0.572 0-1.044 0.469-1.044 1.044v1.338c0 0.572 0.469 1.044 1.044 1.044h0.453l3 11.094c0 0 0.391 2.063 1.947 2.122h16.009c0 0 0.759 0.053 1.119-0.203 0 0 0.478-0.313 0.659-0.584 0 0 0.3-0.413 0.406-0.756l0.566-2.069 1.697-6.347 0.872-3.256h0.456c0.572 0 1.044-0.469 1.044-1.044v-1.338c-0.003-0.575-0.475-1.044-1.047-1.044zM11.206 24.75c0 0.403-0.328 0.731-0.731 0.731h-0.734c-0.403 0-0.731-0.328-0.731-0.731v-6.35c0-0.403 0.328-0.731 0.731-0.731h0.734c0.403 0 0.731 0.328 0.731 0.731v6.35zM15.019 24.75c0 0.403-0.328 0.731-0.731 0.731h-0.734c-0.403 0-0.731-0.328-0.731-0.731v-6.35c0-0.403 0.328-0.731 0.731-0.731h0.734c0.403 0 0.731 0.328 0.731 0.731v6.35zM19.087 24.75c0 0.403-0.328 0.731-0.731 0.731h-0.734c-0.403 0-0.731-0.328-0.731-0.731v-6.35c0-0.403 0.328-0.731 0.731-0.731h0.734c0.403 0 0.731 0.328 0.731 0.731v6.35zM23.156 24.75c0 0.403-0.328 0.731-0.731 0.731h-0.734c-0.403 0-0.731-0.328-0.731-0.731v-6.35c0-0.403 0.328-0.731 0.731-0.731h0.734c0.403 0 0.731 0.328 0.731 0.731v6.35z"></path>
</svg>
