<!-- Generated by IcoMoon.io -->
<svg version="1.1" xmlns="http://www.w3.org/2000/svg" width="32" height="32" viewBox="0 0 32 32">
<title>bills-circle</title>
<path fill="#444" d="M7.82 22.030h16.642v-9.238h-16.642v9.238zM11.91 13.99h11.353v1.34h-11.353v-1.34zM11.91 16.67h11.353v1.34h-11.353v-1.34zM11.91 19.349h11.353v1.34h-11.353v-1.34zM9.23 13.99h1.34v1.34h-1.341v-1.34zM9.23 16.67h1.34v1.34h-1.341v-1.34zM9.23 19.349h1.34v1.34h-1.341v-1.34zM16 2c-7.767 0-14 6.233-14 14s6.233 14 14 14 14-6.233 14-14-6.233-14-14-14zM24.040 23.934h-16.079c-1.199 0-2.116-0.917-2.116-2.116v-11.636c0-1.199 0.917-2.116 2.116-2.116h16.079c1.199 0 2.116 0.987 2.116 2.116v11.636c0.001 1.199-0.917 2.116-2.116 2.116z"></path>
</svg>
