<!-- Generated by IcoMoon.io -->
<svg version="1.1" xmlns="http://www.w3.org/2000/svg" width="32" height="32" viewBox="0 0 32 32">
<title>bill</title>
<path fill="#444" d="M24.952 3.913l-1.512-1.51c-0.412-0.405-1.141-0.394-1.533 0.005l-0.981 0.981-0.973-0.972c-0.41-0.404-1.112-0.409-1.533 0.006l-0.966 0.966-0.885-0.885c-0.41-0.404-1.111-0.409-1.532 0.006l-0.88 0.88-0.886-0.885c-0.41-0.404-1.111-0.409-1.532 0.006l-0.879 0.88-0.885-0.885c-0.41-0.404-1.111-0.409-1.532 0.006l-1.403 1.403c-0.264 0.264-0.41 0.642-0.41 1.017l0.001 17.81h0.022v4.367c0 0.375 0.135 0.726 0.399 0.99l1.403 1.409c0.41 0.404 1.108 0.41 1.529-0.006l0.878-0.879 0.884 0.885c0.41 0.404 1.11 0.409 1.531-0.005l0.879-0.88 0.886 0.885c0.41 0.404 1.111 0.409 1.532-0.005l0.88-0.88 0.971 0.972c0.41 0.404 1.112 0.409 1.533-0.006l0.967-0.966 0.975 0.976c0.202 0.206 0.485 0.324 0.774 0.324 0.287 0 0.558-0.111 0.769-0.318l1.51-1.504c0.264-0.264 0.416-0.616 0.416-0.991v-22.204c0-0.375-0.152-0.726-0.416-0.99zM10.136 13.124c0-0.278 0.225-0.503 0.503-0.503h6.501c0.278 0 0.503 0.225 0.503 0.503v1.278c0 0.278-0.225 0.503-0.503 0.503h-6.501c-0.278 0-0.503-0.225-0.503-0.503v-1.278zM15.794 23.977c0 0.278-0.225 0.503-0.503 0.503h-4.651c-0.278 0-0.503-0.225-0.503-0.503v-1.278c0-0.278 0.225-0.503 0.503-0.503h4.651c0.278 0 0.503 0.225 0.503 0.503v1.278zM20.037 19.081c0 0.278-0.225 0.503-0.503 0.503h-8.894c-0.278 0-0.503-0.225-0.503-0.503v-1.278c0-0.278 0.225-0.503 0.503-0.503h8.894c0.278 0 0.503 0.225 0.503 0.503v1.278zM21.56 9.833c0 0.278-0.225 0.503-0.503 0.503h-10.418c-0.278 0-0.503-0.225-0.503-0.503v-1.278c0-0.278 0.225-0.503 0.503-0.503h10.418c0.278 0 0.503 0.225 0.503 0.503v1.278z"></path>
</svg>
