<!-- Generated by IcoMoon.io -->
<svg version="1.1" xmlns="http://www.w3.org/2000/svg" width="32" height="32" viewBox="0 0 32 32">
<title>brain</title>
<path fill="#444" d="M17.624 7.686c-0.793 0-1.456 0.66-1.456 1.447s0.664 1.447 1.456 1.447c0.79 0 1.453-0.66 1.453-1.447s-0.664-1.447-1.453-1.447zM10.893 9.133c-0.541-0.071-1.051 0.326-1.121 0.86-0.068 0.534 0.326 1.044 0.866 1.115s1.051-0.322 1.118-0.86c0.071-0.538-0.322-1.044-0.863-1.115zM26.215 15.602c-0.415-0.728-0.842-1.484-0.777-1.972 0.025-0.181 0.049-0.363 0.074-0.538 0.396-2.875 0.707-5.145-1.68-7.606-0.003-0.003-0.009-0.009-0.012-0.012-2.451-2.304-5.109-3.474-7.904-3.474-4.181 0-7.382 2.608-8.614 4.15-1.729 2.166-2.783 6.134-1.321 9.222 0.316 0.67 0.78 1.349 1.269 2.070 1.121 1.65 2.393 3.52 1.782 5.434-0.046 0.141-0.006 0.295 0.101 0.399l6.933 6.617c0.074 0.071 0.169 0.108 0.267 0.108 0.037 0 0.071-0.006 0.105-0.015 0.132-0.037 0.233-0.141 0.27-0.276 0.427-1.637 1.61-4.371 2.961-4.74 0.114-0.031 0.261-0.046 0.448-0.046 0.335 0 0.753 0.049 1.198 0.098 0.516 0.058 1.051 0.123 1.551 0.123 1.124 0 1.733-0.35 1.849-1.066 0.071-0.415 0.126-0.845 0.178-1.256 0.224-1.742 0.458-3.542 1.8-4.457 0.786-0.531 0.144-1.665-0.479-2.762zM13.559 9.704l-0.657 0.402c0.018 0.089 0.009 0.172-0.006 0.286s-0.055 0.194-0.064 0.28l0.593 0.534c0.052 0.037 0.043 0.12 0.006 0.175l-0.694 0.912c-0.034 0.052-0.123 0.071-0.178 0.034l-0.673-0.372c-0.157 0.095-0.338 0.16-0.519 0.221l-0.209 0.722c-0.006 0.055-0.098 0.104-0.157 0.098l-1.137-0.147c-0.086-0.009-0.132-0.077-0.126-0.135l-0.018-0.753c-0.16-0.107-0.319-0.212-0.445-0.344l-0.746 0.19c-0.086 0.018-0.141-0.018-0.166-0.049l-0.439-1.060c-0.021-0.061-0.015-0.117 0.049-0.166l0.657-0.402c-0.018-0.089-0.006-0.172 0.009-0.286s0.052-0.194 0.064-0.28l-0.538-0.528c-0.049-0.064-0.064-0.154-0.034-0.178l0.694-0.915c0.064-0.049 0.126-0.071 0.206-0.031l0.645 0.369c0.184-0.092 0.341-0.187 0.519-0.221l0.212-0.746c0.006-0.055 0.098-0.101 0.157-0.095l1.134 0.147c0.055 0.006 0.086 0.055 0.095 0.157l0.018 0.75c0.16 0.107 0.319 0.212 0.445 0.344l0.746-0.19c0.089-0.018 0.141 0.018 0.166 0.049l0.442 1.060c0.021 0.064 0.012 0.12-0.052 0.169zM21.697 10.454l-0.833 1.444c-0.040 0.083-0.166 0.126-0.249 0.083l-1.038-0.415c-0.209 0.166-0.458 0.292-0.707 0.415l-0.166 1.078c0 0.083-0.123 0.169-0.206 0.169h-1.665c-0.126 0-0.209-0.086-0.209-0.169l-0.166-1.081c-0.249-0.123-0.498-0.249-0.707-0.415l-1.038 0.415c-0.123 0.043-0.206 0-0.249-0.040l-0.829-1.447c-0.043-0.083-0.043-0.166 0.040-0.249l0.872-0.7c-0.040-0.126-0.040-0.249-0.040-0.415s0.040-0.289 0.040-0.415l-0.872-0.66c-0.083-0.083-0.123-0.209-0.083-0.249l0.833-1.444c0.083-0.083 0.166-0.126 0.289-0.083l0.998 0.415c0.249-0.166 0.458-0.332 0.707-0.415l0.166-1.115c0-0.083 0.123-0.166 0.206-0.166h1.665c0.083 0 0.138 0.064 0.166 0.206l0.166 1.078c0.249 0.123 0.498 0.249 0.707 0.415l1.038-0.415c0.126-0.043 0.209 0 0.249 0.040l0.833 1.447c0.040 0.083 0.040 0.166-0.043 0.249l-0.872 0.7c0.043 0.126 0.043 0.249 0.043 0.415s-0.043 0.289-0.043 0.415l0.955 0.66c0.083 0.043 0.083 0.166 0.043 0.249z"></path>
</svg>
