<!-- Generated by IcoMoon.io -->
<svg version="1.1" xmlns="http://www.w3.org/2000/svg" width="32" height="32" viewBox="0 0 32 32">
<title>bulb</title>
<path fill="#444" d="M18.66 25.464h-5.322c-0.412 0-0.746 0.334-0.746 0.746s0.334 0.747 0.746 0.747h5.322c0.412 0 0.747-0.334 0.747-0.747s-0.334-0.746-0.747-0.746zM14.628 29.814c0.101 0.67 0.674 1.186 1.372 1.186s1.272-0.516 1.372-1.186c0.914-0.054 1.64-0.805 1.64-1.732h-6.028c0 0.928 0.728 1.679 1.643 1.732zM16 5.306c0.551 0 0.996-0.446 0.996-0.995v-2.315c0-0.55-0.445-0.995-0.996-0.995s-0.995 0.446-0.995 0.995v2.315c0 0.55 0.445 0.995 0.995 0.995zM9.469 6.756c0.195 0.268 0.499 0.411 0.807 0.411 0.202 0 0.407-0.062 0.584-0.19 0.444-0.323 0.543-0.945 0.221-1.39l-1.361-1.874c-0.324-0.444-0.945-0.544-1.391-0.221-0.444 0.323-0.543 0.945-0.221 1.39l1.36 1.874zM22.53 21.345c-0.323-0.444-0.945-0.543-1.39-0.22-0.444 0.323-0.543 0.945-0.219 1.39l1.362 1.874c0.194 0.268 0.497 0.41 0.806 0.41 0.203 0 0.407-0.062 0.584-0.19 0.444-0.323 0.543-0.946 0.22-1.39l-1.362-1.874zM7.045 10.094l-2.203-0.716c-0.528-0.17-1.084 0.116-1.255 0.639s0.116 1.084 0.638 1.254l2.203 0.716c0.103 0.033 0.206 0.049 0.308 0.049 0.42 0 0.81-0.267 0.947-0.688 0.17-0.522-0.116-1.084-0.638-1.254zM27.773 16.83l-2.202-0.715c-0.523-0.169-1.084 0.117-1.254 0.639s0.117 1.084 0.639 1.254l2.203 0.715c0.102 0.033 0.205 0.049 0.307 0.049 0.42 0 0.81-0.268 0.947-0.688 0.17-0.523-0.117-1.084-0.64-1.254zM6.43 16.114l-2.204 0.714c-0.523 0.169-0.81 0.731-0.639 1.254 0.136 0.421 0.526 0.689 0.946 0.689 0.101 0 0.205-0.016 0.308-0.049l2.203-0.714c0.523-0.17 0.81-0.731 0.64-1.254s-0.726-0.808-1.254-0.639zM25.264 12.037c0.102 0 0.205-0.016 0.307-0.049l2.202-0.715c0.523-0.17 0.81-0.732 0.64-1.254s-0.734-0.808-1.254-0.639l-2.203 0.715c-0.523 0.17-0.81 0.732-0.639 1.254 0.137 0.42 0.527 0.688 0.947 0.688zM9.471 21.345l-1.363 1.873c-0.324 0.445-0.225 1.067 0.22 1.39 0.176 0.129 0.381 0.191 0.584 0.191 0.308 0 0.612-0.142 0.806-0.41l1.363-1.873c0.324-0.445 0.225-1.067-0.22-1.39-0.443-0.325-1.068-0.225-1.39 0.219zM22.281 3.713l-1.361 1.874c-0.323 0.445-0.224 1.067 0.221 1.39 0.177 0.128 0.382 0.19 0.584 0.19 0.308 0 0.612-0.142 0.807-0.411l1.361-1.874c0.323-0.445 0.224-1.067-0.221-1.39-0.447-0.325-1.067-0.225-1.39 0.221zM23.189 14.087c0-3.971-3.219-7.19-7.189-7.19s-7.19 3.219-7.19 7.19c0 1.675 0.576 3.213 1.539 4.434 0.843 1.070 1.642 2.238 2.334 3.414v2.388h6.593v-2.325c0.686-1.143 1.573-2.46 2.373-3.476 0.963-1.221 1.539-2.759 1.539-4.435z"></path>
</svg>
