<!-- Generated by IcoMoon.io -->
<svg version="1.1" xmlns="http://www.w3.org/2000/svg" width="32" height="32" viewBox="0 0 32 32">
<title>calendar</title>
<path fill="#444" d="M24.562 4.003v2.454c0 1.394-1.108 2.528-2.501 2.528s-2.501-1.134-2.501-2.528v-2.418h-7.216v2.418c0 1.394-1.059 2.528-2.453 2.528s-2.453-1.134-2.453-2.528v-2.45c-2.501 0.098-4.233 1.832-4.233 3.955v17.362c0 2.412 1.892 4.498 4.304 4.498h16.952c2.412 0 4.335-2.086 4.335-4.498v-17.362c0-2.148-1.828-3.898-4.233-3.959zM26.968 25.324c0 1.363-1.144 2.574-2.507 2.574h-16.952c-1.363 0-2.477-1.211-2.477-2.574v-13.204h21.935v13.204zM9.795 7.557c0.608 0 1.203-0.492 1.203-1.1v-3.178c0-0.608-0.595-1.1-1.203-1.1s-1.203 0.493-1.203 1.1v3.178c0 0.608 0.595 1.1 1.203 1.1zM22.061 7.558c0.608 0 1.058-0.492 1.058-1.1v-3.179c0-0.607-0.451-1.1-1.058-1.1s-1.058 0.492-1.058 1.1v3.178c0 0.608 0.45 1.1 1.058 1.1zM9.612 23.771c0.595 1 1.658 1.5 3.188 1.5 1.241 0 2.179-0.347 2.812-1.040 0.633-0.694 0.95-1.498 0.95-2.412 0-0.87-0.271-1.556-0.813-2.058-0.147-0.135-0.28-0.243-0.399-0.323-0.218-0.147-0.234-0.252-0.029-0.411 0.115-0.090 0.228-0.198 0.339-0.325 0.378-0.437 0.567-0.974 0.567-1.611 0-0.899-0.316-1.616-0.949-2.151s-1.466-0.802-2.499-0.802c-0.556 0-1.025 0.067-1.408 0.201s-0.712 0.328-0.99 0.582c-0.372 0.358-0.645 0.748-0.82 1.171-0.115 0.337-0.194 0.729-0.238 1.094-0.031 0.261 0.176 0.514 0.439 0.514h1.031c0.263 0 0.466-0.255 0.504-0.515 0.046-0.316 0.15-0.603 0.31-0.82 0.236-0.318 0.604-0.487 1.105-0.487 0.437 0 0.774 0.124 1.015 0.383 0.24 0.258 0.36 0.591 0.36 1.004 0 0.637-0.236 1.058-0.706 1.267-0.204 0.093-0.517 0.153-0.956 0.183-0.262 0.017-0.466 0.231-0.466 0.493v0.569c0 0.263 0.204 0.474 0.466 0.488 0.465 0.025 0.817 0.087 1.065 0.189 0.575 0.239 0.86 0.714 0.86 1.424 0 0.537-0.156 0.948-0.466 1.235s-0.674 0.429-1.091 0.429c-0.68 0-1.149-0.261-1.406-0.783-0.084-0.172-0.143-0.391-0.176-0.618-0.038-0.26-0.245-0.495-0.509-0.495h-1.136c-0.263 0-0.47 0.233-0.441 0.494 0.071 0.645 0.233 1.203 0.486 1.633zM18.715 17.411h1.591c0.263 0 0.601 0.347 0.601 0.61v6.505c0 0.263 0.089 0.582 0.351 0.582h1.226c0.263 0 0.347-0.32 0.347-0.582v-9.86c0-0.263-0.085-0.429-0.347-0.429h-0.823c-0.263 0-0.479 0.076-0.504 0.195-0.013 0.063-0.031 0.123-0.054 0.203-0.094 0.323-0.233 0.576-0.416 0.769-0.268 0.283-0.615 0.469-1.041 0.564-0.199 0.045-0.571 0.079-0.992 0.107-0.262 0.017-0.536 0.238-0.536 0.5v0.495c0 0.264 0.336 0.343 0.598 0.343z"></path>
</svg>
