<!-- Generated by IcoMoon.io -->
<svg version="1.1" xmlns="http://www.w3.org/2000/svg" width="32" height="32" viewBox="0 0 32 32">
<title>camera</title>
<path fill="#444" d="M29.319 14.419l-7.772 3.284v-3.009c0-0.784-0.844-1.422-1.884-1.422h-15.797c-1.041 0-1.884 0.637-1.884 1.422v12.084c0 0.784 0.844 1.422 1.884 1.422h15.797c1.041 0 1.884-0.637 1.884-1.422v-2.944l7.769 3.337c0.316 0.137 0.706-0.034 0.706-0.309v-12.134c0-0.272-0.387-0.444-0.703-0.309zM10.063 9.409c0 1.665-1.35 3.016-3.016 3.016s-3.016-1.35-3.016-3.016c0-1.665 1.35-3.016 3.016-3.016s3.016 1.35 3.016 3.016zM20.156 8.113c0 2.382-1.931 4.313-4.313 4.313s-4.313-1.931-4.313-4.313c0-2.382 1.931-4.313 4.313-4.313s4.313 1.931 4.313 4.313z"></path>
</svg>
