<!-- Generated by IcoMoon.io -->
<svg version="1.1" xmlns="http://www.w3.org/2000/svg" width="32" height="32" viewBox="0 0 32 32">
<title>campaign-add</title>
<path fill="#444" d="M12.644 26.212l-2.791-7.7h0.003v-6.084c0-0.453-0.369-0.822-0.822-0.822h-3.809c-1.9-0.003-3.453 1.55-3.453 3.45v0c0 1.9 1.553 3.453 3.453 3.453h0.316c0.763 0 1.447 0.478 1.713 1.194l2.716 7.494c0.206 0.559 0.831 0.847 1.387 0.641l0.644-0.238c0.559-0.203 0.85-0.828 0.644-1.387v0z"></path>
<path fill="#444" d="M24.006 16.434c-4.141 0-7.528 3.406-7.528 7.572s3.391 7.572 7.528 7.572 7.528-3.409 7.528-7.572-3.387-7.572-7.528-7.572v0 0zM27.816 24.469c0 0.163-0.178 0.306-0.344 0.306h-2.419c-0.163 0-0.328 0.125-0.328 0.288v2.434c0 0.163-0.103 0.366-0.269 0.366h-0.916c-0.163 0-0.294-0.203-0.294-0.366v-2.434c0-0.163-0.131-0.288-0.297-0.288h-2.419c-0.163 0-0.372-0.144-0.372-0.306v-0.922c0-0.163 0.206-0.25 0.372-0.25h2.419c0.163 0 0.297-0.181 0.297-0.347v-2.434c0-0.163 0.131-0.309 0.294-0.309h0.916c0.163 0 0.269 0.144 0.269 0.309v2.434c0 0.163 0.163 0.347 0.328 0.347h2.419c0.163 0 0.344 0.084 0.344 0.25v0.922z"></path>
<path fill="#444" d="M24 15.228c2.281 0 4.359 0.872 5.922 2.297-0.009-0.8-0.016-1.622-0.016-2.456 0-3.809 0.109-7.309 0.297-10.066 0.025-0.362-0.144-0.716-0.453-0.906-0.144-0.088-0.313-0.138-0.491-0.138h-0.212c-0.378 0-0.706 0.231-0.881 0.572-0.028 0.056-0.063 0.109-0.103 0.156-1.884 2.156-4.378 3.694-7.156 4.413l-9.491 2.447c-0.050 0.012-0.1 0.031-0.147 0.053-0.262 0.134-0.431 0.425-0.431 0.747v5.447c0 0.325 0.172 0.616 0.431 0.747 0.047 0.025 0.097 0.041 0.147 0.053l4.85 1.25c1.484-2.747 4.391-4.616 7.734-4.616z"></path>
</svg>
