<!-- Generated by IcoMoon.io -->
<svg version="1.1" xmlns="http://www.w3.org/2000/svg" width="32" height="32" viewBox="0 0 32 32">
<title>campaign</title>
<path fill="#444" d="M28.062 25.452c0.041 0.047 0.076 0.101 0.104 0.158 0.171 0.341 0.502 0.571 0.881 0.571h0.212c0.177 0 0.344-0.051 0.489-0.139 0.309-0.189 0.48-0.543 0.455-0.906-0.186-2.759-0.297-6.257-0.297-10.067s0.11-7.308 0.297-10.067c0.025-0.363-0.145-0.717-0.455-0.906-0.145-0.088-0.313-0.139-0.489-0.139h-0.212c-0.379 0-0.707 0.23-0.881 0.571-0.028 0.057-0.063 0.11-0.104 0.158v0c-1.885 2.159-4.379 3.697-7.157 4.413l-9.489 2.447c-0.051 0.013-0.101 0.032-0.148 0.054-0.262 0.136-0.432 0.426-0.432 0.748v5.446c0 0.325 0.171 0.616 0.432 0.748 0.047 0.025 0.098 0.041 0.148 0.054l9.493 2.447c2.778 0.717 5.269 2.254 7.153 4.41v0zM12.644 26.212l-2.791-7.7h0.003v-6.083c0-0.455-0.369-0.821-0.821-0.821h-3.81c-1.9-0.003-3.454 1.55-3.454 3.45v0c0 1.9 1.553 3.454 3.454 3.454h0.316c0.764 0 1.446 0.477 1.711 1.193l2.715 7.491c0.205 0.559 0.83 0.846 1.389 0.641l0.644-0.237c0.559-0.205 0.849-0.83 0.644-1.389z"></path>
</svg>
