<!-- Generated by IcoMoon.io -->
<svg version="1.1" xmlns="http://www.w3.org/2000/svg" width="32" height="32" viewBox="0 0 32 32">
<title>cancel</title>
<path fill="#444" d="M18.998 16.372c-0.202-0.202-0.202-0.53-0-0.732l9.8-9.803c0.202-0.202 0.202-0.53-0-0.732l-1.904-1.904c-0.202-0.202-0.53-0.202-0.732 0l-9.791 9.8c-0.202 0.202-0.53 0.202-0.732 0l-9.799-9.796c-0.204-0.204-0.534-0.202-0.736 0.004l-1.883 1.925c-0.198 0.203-0.196 0.527 0.004 0.728l9.803 9.806c0.202 0.203 0.202 0.531-0.001 0.733l-9.825 9.762c-0.203 0.202-0.204 0.53-0.001 0.733l1.903 1.903c0.202 0.202 0.529 0.202 0.732 0l9.803-9.8c0.202-0.202 0.53-0.202 0.732 0l9.791 9.8c0.202 0.202 0.53 0.202 0.732 0l1.903-1.904c0.202-0.202 0.202-0.53-0-0.732l-9.8-9.791z"></path>
</svg>
