<!-- Generated by IcoMoon.io -->
<svg version="1.1" xmlns="http://www.w3.org/2000/svg" width="32" height="32" viewBox="0 0 32 32">
<title>car</title>
<path fill="#444" d="M1.544 12.333h0.079l3.251-7.629c0.225-0.534 0.74-0.815 1.31-0.815h19.739c0.57 0 1.085 0.281 1.31 0.815l3.254 7.629h0.079c0.789 0 1.434 0.639 1.434 1.442v8.777c0 0.802-0.645 1.448-1.434 1.448h-0.566v2.693c0 0.802-0.607 1.418-1.396 1.418h-3.429c-0.787 0-1.508-0.616-1.508-1.418v-2.693h-15.444v2.693c0 0.802-0.5 1.418-1.288 1.418h-3.429c-0.79 0-1.506-0.616-1.506-1.418v-2.693h-0.457c-0.789 0-1.544-0.647-1.544-1.448v-8.777c0-0.803 0.756-1.442 1.544-1.442zM25.867 19.555h3.002c0.579 0 1.049-0.894 1.049-1.778s-0.47-1.778-1.049-1.778h-3.002c-0.579 0-1.049 0.894-1.049 1.778s0.47 1.778 1.049 1.778zM12.17 19h7.765c1.499 0 2.715-0.675 2.715-1.333s-1.215-1.333-2.715-1.333h-7.765c-1.499 0-2.715 0.675-2.715 1.333s1.215 1.333 2.715 1.333zM3.174 19.555h3.002c0.579 0 1.049-0.894 1.049-1.778s-0.47-1.778-1.049-1.778h-3.002c-0.579 0-1.049 0.894-1.049 1.778s0.47 1.778 1.049 1.778z"></path>
</svg>
