<!-- Generated by IcoMoon.io -->
<svg version="1.1" xmlns="http://www.w3.org/2000/svg" width="32" height="32" viewBox="0 0 32 32">
<title>card-add</title>
<path fill="#444" d="M30.219 6.978c0-1.034-0.628-1.875-1.406-1.875h-25.663c-0.778 0-1.406 0.838-1.406 1.875v2.531h28.475v-2.531zM15.134 23.569c0-4.656 3.775-8.431 8.431-8.431 2.725 0 5.15 1.294 6.691 3.3v-4.6h-28.509v11.394c0 0.922 0.625 1.666 1.403 1.666h12.669c-0.441-1.022-0.684-2.147-0.684-3.328v0zM23.569 16.788c-3.709 0-6.747 3.053-6.747 6.781s3.038 6.781 6.747 6.781 6.747-3.053 6.747-6.781-3.038-6.781-6.747-6.781v0zM26.922 23.984c0 0.147-0.097 0.266-0.244 0.266h-2.169c-0.147 0-0.244 0.116-0.244 0.262v2.181c0 0.147-0.141 0.259-0.288 0.259h-0.822c-0.147 0-0.272-0.116-0.272-0.259v-2.181c0-0.147-0.113-0.262-0.259-0.262h-2.169c-0.147 0-0.278-0.122-0.278-0.266v-0.828c0-0.147 0.131-0.284 0.278-0.284h2.169c0.147 0 0.259-0.1 0.259-0.247v-2.181c0-0.147 0.125-0.278 0.272-0.278h0.822c0.147 0 0.288 0.131 0.288 0.278v2.181c0 0.147 0.097 0.247 0.244 0.247h2.169c0.147 0 0.244 0.137 0.244 0.284v0.828z"></path>
</svg>
