<!-- Generated by IcoMoon.io -->
<svg version="1.1" xmlns="http://www.w3.org/2000/svg" width="32" height="32" viewBox="0 0 32 32">
<title>cart</title>
<path fill="#444" d="M10.327 29.748c-1.569 0-2.837-1.274-2.837-2.837 0-1.569 1.274-2.837 2.837-2.837s2.837 1.268 2.837 2.834-1.274 2.84-2.837 2.84v0 0zM24.068 29.748c-1.569 0-2.837-1.274-2.837-2.837 0-1.569 1.274-2.837 2.837-2.837 1.569 0 2.837 1.274 2.837 2.837v0c0.003 1.566-1.265 2.831-2.837 2.837v0zM29.312 6.944l-4.256 7.746c-0.345 0.684-0.816 1.372-1.117 1.786-0.195 0.267-0.455 0.477-0.753 0.612-0.091 0.041-0.173 0.075-0.242 0.107-0.176 0.072-0.361 0.113-0.552 0.113h-9.554c-0.537 0-1.029 0.304-1.268 0.785v0c-0.471 0.945 0.213 2.053 1.268 2.053h13.455c0.279 0 0.505 0.226 0.505 0.505v1.739c0 0.27-0.217 0.486-0.486 0.486l-16.242-0.006c-0.031 0-0.060 0.003-0.119-0.003-2.649-0.248-2.338-2.815-2.272-3.273 0.006-0.050 0.119-0.427 0.141-0.471l1.845-3.559c0.069-0.135 0.072-0.298 0.006-0.433l-4.589-9.485c-0.198-0.408-0.612-0.665-1.064-0.665h-1.481c-0.279 0-0.505-0.226-0.505-0.505v-1.701c0-0.289 0.232-0.521 0.521-0.521h3.327c0.38 0 0.722 0.223 0.873 0.568l0.854 1.936c0.060 0.132 0.188 0.217 0.333 0.217h20.306c0.173 0 0.342 0.028 0.502 0.091 1.221 0.471 0.565 1.88 0.565 1.88v0 0 0z"></path>
</svg>
