<!-- Generated by IcoMoon.io -->
<svg version="1.1" xmlns="http://www.w3.org/2000/svg" width="32" height="32" viewBox="0 0 32 32">
<title>cedd</title>
<path fill="#444" d="M23.613 19.728c-0.269-0.306-0.6-0.538-0.988-0.703-0.391-0.166-0.831-0.247-1.322-0.247h-1.853v7.103h1.853c0.494 0 0.934-0.081 1.322-0.244s0.719-0.397 0.988-0.703 0.478-0.681 0.622-1.119c0.144-0.441 0.216-0.938 0.216-1.488s-0.072-1.047-0.216-1.484c-0.144-0.441-0.353-0.813-0.622-1.116zM12.606 19.728c-0.269-0.306-0.6-0.538-0.988-0.703-0.391-0.166-0.831-0.247-1.322-0.247h-1.853v7.103h1.853c0.494 0 0.934-0.081 1.322-0.244s0.719-0.397 0.988-0.703 0.478-0.681 0.622-1.119c0.144-0.441 0.216-0.938 0.216-1.488s-0.072-1.047-0.216-1.484c-0.144-0.441-0.353-0.813-0.622-1.116zM27.375 2v0h-22.75c-1.444 0-2.625 1.181-2.625 2.625v22.75c0 1.444 1.181 2.625 2.625 2.625h22.75c1.444 0 2.625-1.181 2.625-2.625v-22.75c0-1.444-1.181-2.625-2.625-2.625zM23.859 9.553v1.644h-4.409v2.756h5.406v1.703h-7.591v-10.503h7.591v1.703h-5.406v2.697h4.409zM6.959 7.506c0.216-0.397 0.478-0.753 0.784-1.072s0.65-0.591 1.038-0.816c0.384-0.222 0.806-0.394 1.262-0.513s0.944-0.178 1.459-0.178c0.387 0 0.753 0.031 1.097 0.1 0.344 0.066 0.666 0.159 0.966 0.281s0.575 0.266 0.828 0.438c0.253 0.169 0.481 0.356 0.684 0.559l-0.731 1c-0.044 0.063-0.097 0.119-0.166 0.166s-0.159 0.072-0.275 0.072c-0.116 0-0.231-0.041-0.35-0.122s-0.262-0.175-0.434-0.275c-0.172-0.1-0.384-0.194-0.644-0.275s-0.584-0.122-0.981-0.122c-0.441 0-0.844 0.078-1.209 0.237s-0.681 0.391-0.944 0.691c-0.262 0.3-0.469 0.672-0.613 1.109s-0.216 0.938-0.216 1.497c0 0.566 0.078 1.069 0.234 1.509s0.372 0.816 0.644 1.119c0.275 0.303 0.591 0.534 0.956 0.691s0.753 0.234 1.169 0.234c0.247 0 0.469-0.012 0.669-0.037 0.2-0.022 0.384-0.063 0.556-0.122s0.331-0.134 0.484-0.225c0.153-0.091 0.306-0.206 0.459-0.347 0.053-0.044 0.106-0.081 0.166-0.109 0.056-0.028 0.119-0.044 0.188-0.044 0.119 0 0.222 0.044 0.303 0.131l0.863 0.922c-0.425 0.541-0.953 0.95-1.581 1.231-0.628 0.278-1.409 0.419-2.278 0.419-0.787 0-1.463-0.134-2.091-0.403s-1.162-0.641-1.6-1.119c-0.438-0.478-0.775-1.044-1.009-1.691-0.234-0.656-0.353-1.372-0.353-2.15 0-0.522 0.056-1.016 0.169-1.488v0c0.116-0.472 0.281-0.903 0.497-1.3zM6.259 17.075h4.037c0.806 0 1.537 0.131 2.2 0.391 0.659 0.262 1.225 0.625 1.697 1.091 0.469 0.466 0.834 1.019 1.094 1.663 0.259 0.641 0.387 1.344 0.387 2.106 0 0.766-0.128 1.472-0.387 2.116v0c-0.259 0.644-0.622 1.197-1.094 1.659-0.469 0.462-1.037 0.825-1.697 1.084-0.662 0.259-1.394 0.391-2.2 0.391h-4.037v-10.5zM23.503 27.188c-0.663 0.259-1.394 0.391-2.2 0.391h-4.038v-10.5h4.038c0.806 0 1.538 0.131 2.2 0.391 0.659 0.262 1.225 0.625 1.697 1.091s0.834 1.019 1.094 1.659c0.256 0.641 0.384 1.344 0.387 2.109 0 0.766-0.128 1.472-0.387 2.116s-0.622 1.197-1.094 1.659c-0.469 0.462-1.038 0.825-1.697 1.084z"></path>
</svg>
