<!-- Generated by IcoMoon.io -->
<svg version="1.1" xmlns="http://www.w3.org/2000/svg" width="32" height="32" viewBox="0 0 32 32">
<title>channels</title>
<path fill="#444" d="M3.971 17.785c0.149-0.123 0.23-0.308 0.226-0.501l-0.059-2.7c-0.004-0.189-0.093-0.368-0.241-0.487l-0.572-0.449c-0.241-0.189-0.587-0.182-0.817 0.026l-0.732 0.646c-0.134 0.119-0.212 0.29-0.212 0.468l-0.030 2.585c-0.004 0.186 0.078 0.36 0.215 0.483l0.631 0.557c0.238 0.208 0.591 0.212 0.832 0.011l0.758-0.639z"></path>
<path fill="#444" d="M3.636 12.306l0.364 0.282c0.379 0.293 0.903 0.301 1.289 0.015l1.786-1.315c0.245-0.182 0.401-0.46 0.431-0.765l0.204-2.28c0.037-0.427-0.186-0.836-0.564-1.040l-0.371-0.197c-0.409-0.215-0.91-0.145-1.244 0.178l-1.474 1.434c-0.145 0.141-0.245 0.316-0.293 0.513l-0.505 2.076c-0.104 0.412 0.045 0.839 0.379 1.099z"></path>
<path fill="#444" d="M7.443 5.83l0.717 0.416c0.219 0.126 0.487 0.126 0.709 0.004l2.726-1.549c0.189-0.108 0.319-0.297 0.353-0.513l0.089-0.576c0.056-0.36-0.171-0.702-0.52-0.795l-0.694-0.186c-0.167-0.045-0.345-0.026-0.501 0.052l-2.622 1.311c-0.163 0.082-0.29 0.223-0.353 0.397l-0.208 0.583c-0.126 0.319 0.008 0.683 0.304 0.854z"></path>
<path fill="#444" d="M13.742 4.997l1.69 0.747c0.23 0.1 0.49 0.111 0.728 0.026l2.325-0.836c0.423-0.152 0.691-0.572 0.646-1.021l-0.048-0.513c-0.037-0.379-0.29-0.702-0.65-0.828l-1.916-0.68c-0.204-0.074-0.431-0.074-0.635-0.008l-1.939 0.639c-0.345 0.115-0.602 0.409-0.661 0.769l-0.108 0.643c-0.078 0.446 0.156 0.88 0.568 1.062z"></path>
<path fill="#444" d="M20.423 4.154c0.030 0.215 0.152 0.405 0.331 0.524l2.529 1.679c0.223 0.149 0.505 0.167 0.747 0.052l0.836-0.397c0.386-0.182 0.546-0.65 0.353-1.032l-0.334-0.657c-0.067-0.134-0.175-0.245-0.304-0.319l-2.358-1.333c-0.171-0.097-0.371-0.123-0.561-0.074l-0.747 0.189c-0.379 0.097-0.62 0.46-0.564 0.847l0.074 0.524z"></path>
<path fill="#444" d="M24.542 8.444l0.29 2.18c0.033 0.241 0.16 0.464 0.353 0.613l1.723 1.33c0.29 0.223 0.683 0.256 1.006 0.082l0.594-0.319c0.368-0.197 0.557-0.616 0.464-1.021l-0.524-2.299c-0.041-0.182-0.137-0.349-0.275-0.475l-1.296-1.196c-0.26-0.241-0.635-0.312-0.966-0.182l-0.787 0.304c-0.401 0.152-0.642 0.561-0.583 0.984z"></path>
<path fill="#444" d="M30.313 14.134l-0.657-0.672c-0.163-0.167-0.412-0.208-0.62-0.1l-0.732 0.371c-0.175 0.089-0.286 0.267-0.29 0.46l-0.074 3.224c-0.004 0.163 0.070 0.323 0.197 0.423l0.85 0.687c0.189 0.152 0.46 0.16 0.654 0.011l0.505-0.379c0.13-0.097 0.208-0.245 0.212-0.409l0.108-3.231c0.004-0.141-0.048-0.282-0.152-0.386z"></path>
<path fill="#444" d="M28.542 19.779l-0.457-0.39c-0.275-0.234-0.672-0.249-0.962-0.033l-1.972 1.467c-0.178 0.134-0.293 0.338-0.308 0.561l-0.167 2.11c-0.022 0.297 0.126 0.579 0.382 0.732l0.527 0.308c0.264 0.152 0.598 0.137 0.843-0.045l1.668-1.214c0.163-0.119 0.271-0.293 0.304-0.49l0.401-2.277c0.045-0.275-0.052-0.55-0.26-0.728z"></path>
<path fill="#444" d="M24.917 25.517l-0.587-0.349c-0.182-0.108-0.409-0.108-0.587 0l-3.294 1.972c-0.186 0.111-0.29 0.316-0.279 0.527l0.059 0.943c0.022 0.349 0.349 0.598 0.694 0.524l2.373-0.509c0.097-0.022 0.182-0.063 0.256-0.13l1.441-1.255c0.123-0.108 0.197-0.264 0.197-0.427l0.008-0.799c0-0.204-0.108-0.394-0.282-0.498z"></path>
<path fill="#444" d="M18.641 27.047l-2.214-1.107c-0.26-0.13-0.565-0.126-0.821 0.011l-2.199 1.177c-0.312 0.167-0.494 0.501-0.468 0.858l0.033 0.442c0.026 0.338 0.241 0.628 0.553 0.758l2.236 0.91c0.193 0.078 0.409 0.085 0.609 0.022l2.143-0.691c0.368-0.119 0.616-0.46 0.616-0.85v-0.732c0.004-0.338-0.189-0.646-0.49-0.799z"></path>
<path fill="#444" d="M11.788 27.478c-0.022-0.223-0.156-0.42-0.357-0.52l-3.094-1.552c-0.152-0.078-0.327-0.089-0.49-0.037l-0.475 0.152c-0.308 0.1-0.494 0.409-0.438 0.728l0.16 0.906c0.033 0.197 0.156 0.364 0.331 0.46l2.748 1.486c0.104 0.056 0.219 0.082 0.334 0.078l0.509-0.019c0.156-0.008 0.304-0.067 0.42-0.175l0.223-0.212c0.145-0.137 0.219-0.334 0.201-0.535l-0.070-0.761z"></path>
<path fill="#444" d="M7.751 23.537l-0.26-2.496c-0.026-0.256-0.178-0.483-0.401-0.609l-2.121-1.185c-0.282-0.156-0.631-0.126-0.884 0.074l-0.68 0.55c-0.256 0.204-0.357 0.55-0.256 0.862l0.687 2.121c0.048 0.145 0.134 0.271 0.253 0.368l1.564 1.278c0.208 0.171 0.49 0.223 0.743 0.141l0.813-0.264c0.357-0.119 0.583-0.468 0.542-0.839z"></path>
<path fill="#444" d="M9.419 7.23c-0.334 0.175-0.565 0.505-0.605 0.88l-0.219 1.987c-0.052 0.453 0.175 0.888 0.568 1.11l1.987 1.118c0.364 0.204 0.81 0.193 1.162-0.030l2.526-1.601c0.331-0.208 0.527-0.576 0.527-0.966l-0.015-1.887c-0.004-0.438-0.26-0.836-0.657-1.018l-1.887-0.873c-0.319-0.149-0.691-0.137-1.003 0.026-0.631 0.334-1.727 0.91-2.384 1.252z"></path>
<path fill="#444" d="M16.799 7.735l0.045 2.035c0.008 0.382 0.212 0.735 0.542 0.936l2.785 1.682c0.379 0.23 0.858 0.212 1.222-0.041l1.694-1.185c0.349-0.245 0.527-0.669 0.464-1.088l-0.271-1.746c-0.052-0.323-0.241-0.609-0.52-0.78l-2.529-1.556c-0.319-0.197-0.713-0.219-1.051-0.063-0.479 0.219-1.185 0.538-1.705 0.769-0.423 0.171-0.687 0.583-0.676 1.036z"></path>
<path fill="#444" d="M24.691 12.448c-0.279-0.223-0.672-0.238-0.962-0.033-0.55 0.382-1.419 0.988-1.905 1.304-0.219 0.145-0.357 0.386-0.364 0.646l-0.104 3.272c-0.011 0.316 0.167 0.609 0.453 0.75l2.017 0.973c0.267 0.13 0.583 0.1 0.825-0.074l1.887-1.385c0.204-0.148 0.327-0.386 0.327-0.639l0.030-2.652c0.004-0.245-0.108-0.479-0.301-0.635l-1.902-1.526z"></path>
<path fill="#444" d="M22.964 24.462c0.275-0.156 0.449-0.442 0.457-0.758l0.074-2.317c0.011-0.379-0.212-0.724-0.561-0.865l-1.801-0.739c-0.249-0.1-0.527-0.089-0.765 0.037l-3.023 1.593c-0.293 0.156-0.479 0.457-0.483 0.791l-0.022 2.002c-0.004 0.345 0.189 0.665 0.501 0.821l2.032 1.018c0.271 0.134 0.591 0.126 0.85-0.022l2.741-1.56z"></path>
<path fill="#444" d="M15.291 23.935l-0.015-1.786c-0.004-0.397-0.223-0.765-0.572-0.958l-2.934-1.619c-0.334-0.186-0.739-0.182-1.070 0.004l-1.437 0.802c-0.382 0.212-0.602 0.628-0.561 1.062l0.204 2.254c0.033 0.379 0.26 0.713 0.598 0.884l2.425 1.237c0.312 0.16 0.683 0.16 0.999 0.004l1.76-0.888c0.371-0.189 0.605-0.576 0.602-0.995z"></path>
<path fill="#444" d="M8.643 12.414c-0.304-0.167-0.68-0.137-0.954 0.070l-1.98 1.508c-0.223 0.167-0.353 0.431-0.349 0.713l0.026 2.685c0.004 0.308 0.167 0.594 0.435 0.75 0.513 0.301 1.356 0.795 1.857 1.092 0.26 0.152 0.579 0.163 0.847 0.026 0.513-0.26 1.363-0.702 1.89-0.973 0.29-0.152 0.475-0.449 0.475-0.776l0.022-3.331c0-0.323-0.175-0.624-0.46-0.78l-1.809-0.984z"></path>
</svg>
