<!-- Generated by IcoMoon.io -->
<svg version="1.1" xmlns="http://www.w3.org/2000/svg" width="32" height="32" viewBox="0 0 32 32">
<title>chart-bar1</title>
<path fill="#444" d="M6.656 10.022h-4.531c-0.341 0-0.566 0.225-0.566 0.566v18.809c0 0.341 0.225 0.566 0.566 0.566h4.531c0.341 0 0.566-0.225 0.566-0.566v-18.806c0.003-0.341-0.225-0.569-0.566-0.569zM14.359 17.006h-4.531c-0.341 0-0.566 0.225-0.566 0.566v11.828c0 0.341 0.225 0.566 0.566 0.566h4.531c0.341 0 0.566-0.225 0.566-0.566v-11.828c0-0.341-0.228-0.566-0.566-0.566zM22.172 2.003h-4.531c-0.341 0-0.566 0.225-0.566 0.566v26.831c0 0.341 0.225 0.566 0.566 0.566h4.531c0.341 0 0.566-0.225 0.566-0.566v-26.831c0-0.341-0.225-0.566-0.566-0.566v0zM29.872 13.006h-4.528c-0.341 0-0.566 0.225-0.566 0.566v15.828c0 0.341 0.225 0.566 0.566 0.566h4.531c0.341 0 0.566-0.225 0.566-0.566v-15.828c-0.003-0.338-0.228-0.566-0.569-0.566v0z"></path>
</svg>
