<!-- Generated by IcoMoon.io -->
<svg version="1.1" xmlns="http://www.w3.org/2000/svg" width="32" height="32" viewBox="0 0 32 32">
<title>chart-graph</title>
<path fill="#444" d="M27.444 4.244c-1.248 0.208-2.185 1.456-1.873 2.809 0.104 0.416 0.312 0.832 0.624 1.144l-3.745 6.658c-0.312-0.104-0.624-0.104-0.936 0-0.52 0.104-0.936 0.416-1.352 0.728l-4.681-2.185c0-0.208 0-0.416 0-0.624-0.208-1.248-1.456-2.185-2.809-1.873-1.248 0.208-2.185 1.456-1.873 2.809 0.104 0.416 0.312 0.832 0.52 1.144l-3.121 5.618c-0.312-0.104-0.624-0.104-1.040 0-1.248 0.208-2.185 1.456-1.873 2.809s1.456 2.185 2.809 1.873c1.248-0.208 2.185-1.456 1.873-2.809-0.104-0.416-0.312-0.832-0.52-1.144l3.121-5.618c0.312 0.104 0.624 0.104 0.936 0 0.52-0.104 1.040-0.416 1.352-0.728l4.577 2.185c0 0.208 0 0.416 0 0.728 0.208 1.248 1.456 2.185 2.809 1.873 1.248-0.208 2.185-1.456 1.873-2.809-0.104-0.416-0.312-0.832-0.52-1.144l3.745-6.658c0.312 0.104 0.624 0.104 0.936 0 1.248-0.208 2.185-1.456 1.873-2.809-0.104-1.352-1.352-2.185-2.705-1.977v0zM29.316 26.819v0h-25.072c-0.312 0-0.52-0.208-0.52-0.52v-22.159c0 0 0 0 0 0v-0.52c0-0.312-0.208-0.52-0.52-0.52h-1.144c-0.312 0-0.52 0.208-0.52 0.52v24.76c0 0.312 0.208 0.52 0.52 0.52h27.257c0.416 0 0.728-0.312 0.728-0.728v-0.624c0-0.416-0.416-0.728-0.728-0.728z"></path>
</svg>
