<!-- Generated by IcoMoon.io -->
<svg version="1.1" xmlns="http://www.w3.org/2000/svg" width="32" height="32" viewBox="0 0 32 32">
<title>chart-research</title>
<path fill="#444" d="M6.647 10.016h-4.503c-0.337 0-0.563 0.225-0.563 0.563v18.969c0 0.337 0.225 0.438 0.563 0.438h4.506c0.338 0 0.563-0.1 0.563-0.438v-18.966c0-0.341-0.225-0.566-0.566-0.566v0zM31.244 28.1v0l-0.041-0.041-5.609-5.6c-0.103-0.103-0.244-0.163-0.387-0.163h-0.644c-0.059 0-0.113-0.022-0.15-0.063l-0.009-0.009c-0.069-0.075-0.069-0.194-0.003-0.275 1.113-1.356 1.728-3.094 1.728-4.903 0-2.137-0.828-4.147-2.325-5.653-0.319-0.319-0.663-0.613-1.025-0.872v-2.956c0-0.338-0.225-0.563-0.563-0.563h-4.512c-0.337 0-0.563 0.225-0.563 0.563v1.556c-0.709 0.091-1.397 0.275-2.047 0.547v-7.094c0-0.337-0.225-0.559-0.563-0.559v0h-4.509c-0.338 0-0.563 0.225-0.563 0.559v26.981c0 0.337 0.225 0.434 0.563 0.434h4.509c0.338 0 0.563-0.1 0.563-0.434v-5.134c0.644 0.269 1.325 0.453 2.028 0.544v4.578c0 0.337 0.225 0.438 0.563 0.438h4.509c0.337 0 0.563-0.1 0.563-0.438v-6.006c0.1-0.075 0.197-0.153 0.297-0.231 0.084-0.069 0.191-0.069 0.269 0.009 0.012 0.012 0.044 0.044 0.044 0.15v0.65c0 0.131 0.063 0.269 0.178 0.384l5.653 5.634c0.103 0.103 0.241 0.159 0.391 0.159s0.288-0.059 0.391-0.159l1.262-1.266c0.209-0.209 0.209-0.553 0.003-0.769v0zM18.331 22.663c-3.078 0-5.581-2.503-5.581-5.581s2.503-5.581 5.581-5.581 5.581 2.506 5.581 5.584c-0.003 3.075-2.503 5.578-5.581 5.578z"></path>
</svg>
