<!-- Generated by IcoMoon.io -->
<svg version="1.1" xmlns="http://www.w3.org/2000/svg" width="32" height="32" viewBox="0 0 32 32">
<title>chart-bar2</title>
<path fill="#444" d="M22.74 7.103v-4.314c0-0.324-0.216-0.539-0.539-0.539h-17.794c-0.324 0-0.539 0.216-0.539 0.539v4.314c0 0.324 0.216 0.539 0.539 0.539h17.794c0.324 0 0.539-0.216 0.539-0.539zM25.976 14.544v-4.314c0-0.324-0.216-0.539-0.539-0.539h-21.030c-0.324 0-0.539 0.216-0.539 0.539v4.314c0 0.324 0.216 0.539 0.539 0.539h21.030c0.324 0 0.539-0.324 0.539-0.539zM19.505 21.878v-4.314c0-0.324-0.216-0.539-0.539-0.539h-14.559c-0.324 0-0.539 0.216-0.539 0.539v4.314c0 0.324 0.216 0.539 0.539 0.539h14.559c0.324 0 0.539-0.216 0.539-0.539zM28.133 29.211v-4.314c0-0.324-0.216-0.539-0.539-0.539h-23.187c-0.324 0-0.539 0.216-0.539 0.539v4.314c0 0.324 0.216 0.539 0.539 0.539h23.187c0.324 0 0.539-0.216 0.539-0.539z"></path>
</svg>
