<!-- Generated by IcoMoon.io -->
<svg version="1.1" xmlns="http://www.w3.org/2000/svg" width="32" height="32" viewBox="0 0 32 32">
<title>chart-bubble2</title>
<path fill="#444" d="M10.027 15.813c0-2.24 1.4-4.107 3.36-4.947-1.213-1.12-2.893-1.867-4.76-1.867-3.827 0-7 3.173-7 7s3.173 7 7 7c1.96 0 3.827-0.84 5.040-2.147-2.053-0.653-3.64-2.613-3.64-5.040zM20.853 13.293c-0.84-1.307-2.24-2.147-3.92-2.147-0.653 0-1.213 0.093-1.773 0.373-1.68 0.653-2.893 2.333-2.893 4.387s1.4 3.827 3.267 4.48c0.467 0.187 0.933 0.28 1.493 0.28 1.68 0 3.080-0.84 3.92-2.147-0.653-0.653-1.027-1.587-1.027-2.52-0.093-1.12 0.28-2.053 0.933-2.707zM26.733 16c0-0.56 0.28-1.027 0.653-1.307-0.467-1.213-1.587-2.053-2.987-2.053-0.933 0-1.773 0.373-2.333 1.027-0.56 0.56-0.84 1.307-0.84 2.147s0.28 1.587 0.84 2.147c0.56 0.653 1.4 1.027 2.333 1.027 1.213 0 2.333-0.747 2.8-1.773-0.28-0.28-0.467-0.747-0.467-1.213zM29.067 14.88c-0.28 0-0.56 0.093-0.747 0.28-0.28 0.187-0.467 0.56-0.467 0.933s0.187 0.653 0.373 0.84c0.187 0.187 0.56 0.373 0.84 0.373 0.653 0 1.213-0.56 1.213-1.213 0.093-0.653-0.467-1.213-1.213-1.213z"></path>
</svg>
