<!-- Generated by IcoMoon.io -->
<svg version="1.1" xmlns="http://www.w3.org/2000/svg" width="32" height="32" viewBox="0 0 32 32">
<title>checkbox-cross</title>
<path fill="#444" d="M18.5 16.156v0l5.725 5.622c0.159 0.156 0.247 0.363 0.247 0.584s-0.087 0.428-0.244 0.584l-1.169 1.15c-0.322 0.316-0.844 0.316-1.163 0l-5.894-5.794-5.897 5.794c-0.159 0.156-0.372 0.238-0.581 0.238s-0.422-0.078-0.581-0.238l-1.169-1.15c-0.159-0.156-0.247-0.363-0.244-0.584 0-0.222 0.088-0.428 0.247-0.584l5.897-5.756-5.884-5.781c-0.156-0.153-0.244-0.359-0.244-0.578s0.084-0.425 0.237-0.581l1.156-1.162c0.322-0.322 0.844-0.325 1.169-0.006l5.894 5.791 5.887-5.797c0.322-0.316 0.844-0.316 1.163 0l1.172 1.15c0.159 0.156 0.244 0.363 0.244 0.584s-0.087 0.428-0.244 0.584l-5.881 5.778 0.156 0.153z"></path>
</svg>
