<!-- Generated by IcoMoon.io -->
<svg version="1.1" xmlns="http://www.w3.org/2000/svg" width="32" height="32" viewBox="0 0 32 32">
<title>cheque</title>
<path fill="#444" d="M30.434 7.819h-28.766c-0.901 0-1.668 0.783-1.668 1.678v12.881c0 0.128 0.016 0.252 0.045 0.374 0.176 0.732 0.831 1.275 1.614 1.275h28.677c0.917 0 1.662-0.741 1.662-1.662v-12.868c0.003-0.895-0.668-1.678-1.563-1.678v0zM20.439 10.929c0-0.281 0.189-0.505 0.419-0.505h0.719c0.233 0 0.419 0.227 0.419 0.505v0.489c0 0.281-0.189 0.505-0.419 0.505h-0.719c-0.233 0-0.419-0.227-0.419-0.505v-0.489zM21.020 16.371c0-0.246 0.189-0.447 0.422-0.447h8.139c0.23 0 0.422 0.201 0.422 0.447v2.106c0 0.246-0.189 0.447-0.422 0.447h-8.139c-0.23 0-0.422-0.201-0.422-0.447v-2.106zM4.001 9.925v0c1.106 0 2 0.895 2 2s-0.898 1.997-2 1.997c-1.106 0-2-0.895-2-2-0.003-1.102 0.892-1.997 2-1.997zM2 17.559c0-0.339 0.185-0.614 0.409-0.614h17.179c0.227 0 0.409 0.275 0.409 0.614v0.751c0 0.339-0.185 0.614-0.409 0.614h-17.179c-0.227 0-0.409-0.275-0.409-0.614 0 0 0-0.751 0-0.751zM29.933 21.289c0 0.352-0.179 0.636-0.399 0.636h-27.133c-0.22 0-0.399-0.288-0.399-0.636v-0.725c0-0.352 0.179-0.636 0.399-0.636h27.127c0.221 0 0.399 0.288 0.399 0.636v0.725h0.006zM22.436 10.929c0-0.281 0.189-0.505 0.419-0.505h0.719c0.233 0 0.419 0.227 0.419 0.505v0.489c0 0.281-0.189 0.505-0.419 0.505h-0.719c-0.233 0-0.419-0.227-0.419-0.505v-0.489zM24.436 10.929c0-0.281 0.189-0.505 0.419-0.505h0.719c0.233 0 0.419 0.227 0.419 0.505v0.489c0 0.281-0.189 0.505-0.419 0.505h-0.719c-0.233 0-0.419-0.227-0.419-0.505v-0.489zM26.437 10.929c0-0.281 0.189-0.505 0.419-0.505h0.719c0.233 0 0.419 0.227 0.419 0.505v0.489c0 0.281-0.189 0.505-0.419 0.505h-0.719c-0.233 0-0.419-0.227-0.419-0.505v-0.489zM28.437 10.929c0-0.281 0.189-0.505 0.419-0.505h0.719c0.233 0 0.419 0.227 0.419 0.505v0.489c0 0.281-0.189 0.505-0.419 0.505h-0.719c-0.233 0-0.419-0.227-0.419-0.505v-0.489z"></path>
</svg>
