<!-- Generated by IcoMoon.io -->
<svg version="1.1" xmlns="http://www.w3.org/2000/svg" width="32" height="32" viewBox="0 0 32 32">
<title>cheque-view</title>
<path fill="#444" d="M22.188 16.637c-3.834 0-7.134 2.378-8.438 5.75 1.303 3.375 4.603 5.75 8.438 5.75s7.131-2.378 8.438-5.75c-1.306-3.372-4.603-5.75-8.438-5.75v0zM22.188 26.222c-2.15 0-3.834-1.688-3.834-3.834s1.684-3.831 3.834-3.831c2.147 0 3.834 1.688 3.834 3.834s-1.691 3.831-3.834 3.831zM22.188 20.091c-1.303 0-2.303 0.997-2.303 2.3s1 2.3 2.303 2.3c1.303 0 2.3-0.997 2.3-2.3s-0.997-2.3-2.3-2.3zM12.116 22.387c0.059-0.156 0.125-0.313 0.194-0.466h-9.909c-0.222 0-0.4-0.288-0.4-0.634v-0.725c0-0.35 0.178-0.634 0.4-0.634h11.066c0.259-0.35 0.537-0.688 0.838-1.003h-11.894c-0.228 0-0.409-0.275-0.409-0.613v-0.75c0-0.337 0.184-0.613 0.409-0.613h14.406c1.584-0.903 3.419-1.419 5.369-1.419v0c1.009 0 1.984 0.137 2.913 0.397h4.484c0.231 0 0.422 0.2 0.422 0.447v2.106c0 0.106-0.038 0.206-0.097 0.284 0.859 0.875 1.572 1.897 2.091 3.025v-12.294c0.003-0.894-0.669-1.678-1.563-1.678v0h-28.766c-0.903 0-1.669 0.784-1.669 1.678v12.881c0 0.128 0.016 0.253 0.044 0.375 0.175 0.731 0.831 1.275 1.613 1.275h11.259c-0.309-0.519-0.578-1.069-0.8-1.641zM28.438 10.928c0-0.281 0.188-0.506 0.419-0.506h0.719c0.234 0 0.419 0.228 0.419 0.506v0.488c0 0.281-0.188 0.506-0.419 0.506h-0.719c-0.234 0-0.419-0.228-0.419-0.506v-0.488zM26.438 10.928c0-0.281 0.188-0.506 0.419-0.506h0.719c0.234 0 0.419 0.228 0.419 0.506v0.488c0 0.281-0.188 0.506-0.419 0.506h-0.719c-0.234 0-0.419-0.228-0.419-0.506v-0.488zM24.438 10.928c0-0.281 0.188-0.506 0.419-0.506h0.719c0.234 0 0.419 0.228 0.419 0.506v0.488c0 0.281-0.188 0.506-0.419 0.506h-0.719c-0.234 0-0.419-0.228-0.419-0.506v-0.488zM22.434 10.928c0-0.281 0.188-0.506 0.419-0.506h0.719c0.234 0 0.419 0.228 0.419 0.506v0.488c0 0.281-0.188 0.506-0.419 0.506h-0.719c-0.234 0-0.419-0.228-0.419-0.506v-0.488zM20.438 10.928c0-0.281 0.188-0.506 0.419-0.506h0.719c0.234 0 0.419 0.228 0.419 0.506v0.488c0 0.281-0.188 0.506-0.419 0.506h-0.719c-0.234 0-0.419-0.228-0.419-0.506v-0.488zM4 9.925c1.106 0 2 0.894 2 2s-0.897 1.997-2 1.997c-1.106 0-2-0.894-2-2-0.003-1.103 0.891-1.997 2-1.997z"></path>
</svg>
