<!-- Generated by IcoMoon.io -->
<svg version="1.1" xmlns="http://www.w3.org/2000/svg" width="32" height="32" viewBox="0 0 32 32">
<title>cheque-request</title>
<path fill="#444" d="M21.825 15.422c-0.353 0-0.681 0.097-0.969 0.259-0.169-0.9-0.959-1.581-1.909-1.581-0.384 0-0.744 0.113-1.047 0.306-0.281-0.725-1.034-1.241-1.859-1.241-0.363 0-0.588 0.1-1.041 0.272v-4.544c0-1.075-0.825-1.944-1.9-1.944s-1.9 0.869-1.9 1.944v8.772l-0.684-0.775c-0.713-0.803-1.938-0.875-2.741-0.163s-0.875 1.941-0.162 2.744l4.241 4.769c0.853 0.834 2.309 1.619 3.559 1.619h4.181c2.306 0 4.178-1.669 4.178-3.734l-0.003-4.762c0-1.072-0.872-1.941-1.944-1.941zM21.825 15.422v0 0zM30.434 7.819v0h-14.713c0.131 0.338 0.2 0.7 0.2 1.072v3.356c0.037-0.003 0.078-0.003 0.119-0.003 0.872 0 1.684 0.384 2.228 1.016 0.222-0.053 0.447-0.081 0.678-0.081 1.016 0 1.925 0.534 2.438 1.356 0.147-0.022 0.294-0.034 0.441-0.034 1.056 0 1.978 0.572 2.475 1.422h5.281c0.231 0 0.422 0.2 0.422 0.447v2.106c0 0.247-0.188 0.447-0.422 0.447h-4.891v1.003h4.834c0.222 0 0.4 0.288 0.4 0.634v0.725h0.006c0 0.35-0.178 0.634-0.4 0.634h-4.841v0.2c0 0.669-0.153 1.313-0.441 1.903h6.084c0.916 0 1.663-0.741 1.663-1.663v-12.863c0.003-0.894-0.669-1.678-1.563-1.678zM21.994 11.419c0 0.281-0.188 0.506-0.419 0.506h-0.719c-0.234 0-0.419-0.228-0.419-0.506v-0.488c0-0.281 0.188-0.506 0.419-0.506h0.719c0.234 0 0.419 0.228 0.419 0.506v0.488zM23.991 11.419c0 0.281-0.188 0.506-0.419 0.506h-0.719c-0.234 0-0.419-0.228-0.419-0.506v-0.488c0-0.281 0.188-0.506 0.419-0.506h0.719c0.234 0 0.419 0.228 0.419 0.506v0.488zM25.994 11.419c0 0.281-0.188 0.506-0.419 0.506h-0.719c-0.234 0-0.419-0.228-0.419-0.506v-0.488c0-0.281 0.188-0.506 0.419-0.506h0.719c0.234 0 0.419 0.228 0.419 0.506v0.488zM27.994 11.419c0 0.281-0.188 0.506-0.419 0.506h-0.719c-0.234 0-0.419-0.228-0.419-0.506v-0.488c0-0.281 0.188-0.506 0.419-0.506h0.719c0.234 0 0.419 0.228 0.419 0.506v0.488zM29.994 11.419c0 0.281-0.188 0.506-0.419 0.506h-0.719c-0.234 0-0.419-0.228-0.419-0.506v-0.488c0-0.281 0.188-0.506 0.419-0.506h0.719c0.234 0 0.419 0.228 0.419 0.506v0.488zM2.4 21.925c-0.222 0-0.4-0.288-0.4-0.634v-0.728c0-0.35 0.178-0.634 0.4-0.634h4.4c-0.234-0.303-0.4-0.641-0.497-1.003h-3.894c-0.228 0-0.409-0.275-0.409-0.613v-0.75c0-0.337 0.184-0.613 0.409-0.613h4.072c0.162-0.341 0.394-0.65 0.684-0.909 0.572-0.509 1.309-0.762 2.072-0.719 0.369 0.022 0.722 0.113 1.044 0.262v-6.691c0-0.375 0.069-0.738 0.2-1.072h-8.813c-0.903-0.003-1.669 0.781-1.669 1.675v12.881c0 0.128 0.016 0.253 0.044 0.375 0.175 0.731 0.831 1.275 1.613 1.275h8.778l-1.869-2.103h-6.166zM4 9.925c1.106 0 2 0.894 2 2s-0.897 1.997-2 1.997c-1.106 0-2-0.894-2-2-0.003-1.103 0.891-1.997 2-1.997z"></path>
</svg>
