<!-- Generated by IcoMoon.io -->
<svg version="1.1" xmlns="http://www.w3.org/2000/svg" width="32" height="32" viewBox="0 0 32 32">
<title>circle-add</title>
<path fill="#444" d="M16 2c-7.766 0-14 6.234-14 14s6.234 14 14 14 14-6.234 14-14-6.234-14-14-14zM22.981 16.856c0 0.303-0.201 0.552-0.505 0.552h-4.487c-0.303 0-0.501 0.243-0.501 0.546v4.519c0 0.303-0.294 0.54-0.597 0.54h-1.699c-0.303 0-0.562-0.236-0.562-0.54v-4.519c0-0.303-0.236-0.546-0.54-0.546h-4.487c-0.303 0-0.578-0.249-0.578-0.552v-1.715c0-0.303 0.275-0.591 0.578-0.591h4.49c0.303 0 0.54-0.204 0.54-0.508v-4.515c0-0.303 0.255-0.578 0.562-0.578h1.699c0.303 0 0.597 0.275 0.597 0.578v4.519c0 0.303 0.198 0.508 0.501 0.508h4.487c0.303 0 0.505 0.287 0.505 0.591v1.712z"></path>
</svg>
