<!-- Generated by IcoMoon.io -->
<svg version="1.1" xmlns="http://www.w3.org/2000/svg" width="32" height="32" viewBox="0 0 32 32">
<title>circle-locked</title>
<path fill="#444" d="M16.084 15.909c-0.981 0-1.784 0.794-1.784 1.775 0 0.669 0.381 1.253 0.909 1.556v2.116c0 0.438 0.375 0.794 0.809 0.794h0.166c0.438 0 0.809-0.356 0.809-0.794v-2.141c0.528-0.309 0.869-0.878 0.869-1.531 0-0.981-0.8-1.775-1.778-1.775zM18.778 11.569c0-1.369-1.272-2.497-2.813-2.497-1.534 0-2.806 1.128-2.806 2.497v1.584h5.619v-1.584zM16 2c-7.766 0-14 6.234-14 14s6.234 14 14 14 14-6.234 14-14-6.234-14-14-14zM23.209 22.841c0 0.884-0.884 1.553-1.878 1.553h-10.844c-0.997 0-1.756-0.669-1.756-1.553v-8.053c0-0.884 0.759-1.634 1.756-1.634h1.019v-1.584c0-2.253 1.934-4.025 4.463-4.025 2.534 0 4.463 1.775 4.463 4.025v1.584h0.897c0.994 0 1.878 0.75 1.878 1.634v8.053z"></path>
</svg>
