<!-- Generated by IcoMoon.io -->
<svg version="1.1" xmlns="http://www.w3.org/2000/svg" width="32" height="32" viewBox="0 0 32 32">
<title>circle-add-hollow</title>
<path fill="#444" d="M16 5c6.125 0 11 4.991 11 11s-4.991 11-11 11-11-4.875-11-11 4.875-11 11-11v0zM16 2c-7.766 0-14 6.234-14 14s6.234 14 14 14 14-6.234 14-14-6.234-14-14-14v0zM22.95 16.856c0 0.303-0.2 0.553-0.503 0.553h-4.488c-0.303 0-0.5 0.244-0.5 0.547v4.519c0 0.303-0.294 0.541-0.597 0.541h-1.7c-0.303 0-0.563-0.238-0.563-0.541v-4.522c0-0.303-0.238-0.547-0.541-0.547h-4.487c-0.303 0-0.578-0.25-0.578-0.553v-1.716c0-0.303 0.275-0.591 0.578-0.591h4.491c0.303 0 0.541-0.203 0.541-0.506v-4.513c0-0.303 0.256-0.578 0.563-0.578h1.7c0.303 0 0.597 0.275 0.597 0.578v4.519c0 0.303 0.197 0.506 0.5 0.506h4.488c0.303 0 0.503 0.287 0.503 0.591v1.713h-0.003z"></path>
</svg>
