<!-- Generated by IcoMoon.io -->
<svg version="1.1" xmlns="http://www.w3.org/2000/svg" width="32" height="32" viewBox="0 0 32 32">
<title>circle-down</title>
<path fill="#444" d="M16 2c-7.766 0-14 6.234-14 14s6.234 14 14 14 14-6.234 14-14-6.234-14-14-14zM15.735 21.659l-7.757-7.757c-0.166-0.166-0.16-0.434 0.010-0.594l1.485-1.383c0.163-0.153 0.418-0.147 0.575 0.013l5.684 5.815c0.16 0.163 0.425 0.166 0.588 0.003l5.815-5.815c0.16-0.16 0.422-0.16 0.584 0l1.367 1.367c0.16 0.16 0.16 0.421 0 0.584l-7.766 7.766c-0.16 0.16-0.421 0.16-0.584 0z"></path>
</svg>
