<!-- Generated by IcoMoon.io -->
<svg version="1.1" xmlns="http://www.w3.org/2000/svg" width="32" height="32" viewBox="0 0 32 32">
<title>circle-timed</title>
<path fill="#444" d="M26.466 24.725l-3.206-1.913c-0.059-0.038-0.134-0.103-0.134-0.175v-3.219c0-0.266-0.128-0.294-0.128-0.294-0.034-0.003-0.047-0.006-0.069-0.006l-0.863-0.006c-0.119 0-0.234 0.097-0.234 0.216v4.094c0 0.072 0.075 0.141 0.134 0.175l3.794 2.262c0.097 0.056 0.228 0.028 0.288-0.069l0.481-0.778c0.059-0.1 0.034-0.228-0.063-0.288v0 0zM29.803 18.366c0.128-0.769 0.197-1.559 0.197-2.366 0-7.766-6.234-14-14-14s-14 6.234-14 14 6.234 14 14 14c0.831 0 1.647-0.072 2.438-0.209 1.306 0.881 2.875 1.397 4.563 1.397 4.522 0 8.188-3.688 8.188-8.238 0-1.697-0.509-3.272-1.384-4.584zM22.991 29.459c-3.575 0-6.472-2.916-6.472-6.512s2.9-6.509 6.472-6.509 6.472 2.916 6.472 6.512c0.003 3.594-2.894 6.509-6.472 6.509z"></path>
</svg>
