<!-- Generated by IcoMoon.io -->
<svg version="1.1" xmlns="http://www.w3.org/2000/svg" width="32" height="32" viewBox="0 0 32 32">
<title>circle-remove-hollow</title>
<path fill="#444" d="M16 5c6.125 0 11 4.991 11 11s-4.991 11-11 11-11-4.875-11-11 4.875-11 11-11v0zM16 2c-7.766 0-14 6.234-14 14s6.234 14 14 14 14-6.234 14-14-6.234-14-14-14v0zM22.95 16.831c0 0.303-0.247 0.55-0.55 0.55h-12.853c-0.303 0-0.55-0.247-0.55-0.55v-1.756c0-0.303 0.247-0.55 0.55-0.55h12.853c0.303 0 0.55 0.247 0.55 0.55v1.756z"></path>
</svg>
