<!-- Generated by IcoMoon.io -->
<svg version="1.1" xmlns="http://www.w3.org/2000/svg" width="32" height="32" viewBox="0 0 32 32">
<title>circle-dashed</title>
<path fill="#444" d="M6.15 15.994c0-0.591 0.053-1.181 0.153-1.756l-4.031-0.719c-0.1 0.569-0.166 1.144-0.197 1.719-0.009 0.194-0.016 0.387-0.019 0.578-0.003 0.206 0 0.416 0.006 0.622 0.006 0.234 0.019 0.466 0.041 0.7 0.016 0.206 0.038 0.409 0.063 0.613 0.025 0.206 0.056 0.413 0.091 0.619l4.034-0.691c-0.094-0.547-0.141-1.116-0.141-1.684zM7.45 20.903l-3.553 2.034c0.812 1.419 1.863 2.678 3.1 3.731l2.65-3.122c-0.884-0.75-1.622-1.641-2.197-2.644zM25.822 14.375l4.041-0.662c-0.141-0.856-0.363-1.694-0.656-2.509-0.087-0.238-0.181-0.475-0.278-0.706-0.2-0.466-0.422-0.919-0.672-1.359l-3.569 2.009c0.566 1.006 0.947 2.091 1.134 3.228zM5.625 6.659c-0.197 0.222-0.391 0.45-0.575 0.684-0.406 0.516-0.775 1.059-1.106 1.625l3.537 2.059c0.581-1 1.328-1.884 2.216-2.628l-2.628-3.138c-0.513 0.428-0.997 0.897-1.444 1.397zM25.181 5.388c-1.194-1.028-2.538-1.837-4.006-2.419-0.053-0.022-0.106-0.041-0.159-0.063l-1.453 3.825c1.078 0.409 2.069 1 2.947 1.756l2.672-3.1zM19.366 25.328l1.372 3.859c1.55-0.55 2.975-1.366 4.219-2.394l-2.606-3.156c-0.894 0.738-1.897 1.306-2.984 1.691zM24.584 21.022l3.525 2.084c0.613-1.038 1.091-2.15 1.416-3.313 0.113-0.406 0.209-0.816 0.288-1.231l-4.025-0.747c-0.212 1.134-0.616 2.212-1.203 3.206zM11.181 29.119c1.528 0.566 3.147 0.859 4.772 0.869l0.028-4.094c-1.162-0.009-2.297-0.216-3.375-0.616l-1.425 3.841zM12.137 2.556c-0.291 0.084-0.578 0.178-0.863 0.281l1.397 3.847c1.125-0.409 2.322-0.606 3.519-0.591l0.056-4.094c-0.050 0-0.097 0-0.147 0-1.338-0.006-2.678 0.181-3.963 0.556z"></path>
</svg>
