<!-- Generated by IcoMoon.io -->
<svg version="1.1" xmlns="http://www.w3.org/2000/svg" width="32" height="32" viewBox="0 0 32 32">
<title>circle-left</title>
<path fill="#444" d="M16 2c-7.766 0-14 6.234-14 14s6.234 14 14 14 14-6.234 14-14-6.234-14-14-14zM9.862 16.211l7.757-7.757c0.166-0.166 0.434-0.16 0.594 0.010l1.383 1.485c0.153 0.163 0.147 0.418-0.013 0.575l-5.815 5.684c-0.163 0.16-0.166 0.425-0.003 0.588l5.815 5.815c0.16 0.16 0.16 0.421 0 0.584l-1.367 1.367c-0.16 0.16-0.421 0.16-0.584 0l-7.766-7.766c-0.163-0.163-0.163-0.421 0-0.584z"></path>
</svg>
