<!-- Generated by IcoMoon.io -->
<svg version="1.1" xmlns="http://www.w3.org/2000/svg" width="32" height="32" viewBox="0 0 32 32">
<title>clock</title>
<path fill="#444" d="M22.206 19.334l-5.447-3.25c-0.103-0.063-0.228-0.175-0.228-0.297v-5.475c0-0.45-0.216-0.497-0.216-0.497-0.059-0.006-0.078-0.012-0.119-0.012l-1.466-0.012c-0.2 0-0.397 0.162-0.397 0.366v6.956c0 0.122 0.125 0.238 0.228 0.3l6.447 3.844c0.163 0.097 0.387 0.047 0.488-0.116l0.816-1.322c0.103-0.166 0.059-0.384-0.106-0.484v0zM16 2c-7.684 0-13.916 6.269-13.916 14s6.231 14 13.916 14c7.684 0 13.916-6.269 13.916-14s-6.231-14-13.916-14zM15.984 27.063c-6.075 0-11-4.956-11-11.069s4.925-11.069 11-11.069 11 4.956 11 11.069c0.003 6.112-4.922 11.069-11 11.069z"></path>
</svg>
