<!-- Generated by IcoMoon.io -->
<svg version="1.1" xmlns="http://www.w3.org/2000/svg" width="32" height="32" viewBox="0 0 32 32">
<title>cog-double</title>
<path fill="#444" d="M22.094 14.114l-2.228-1.537c0-0.291 0.1-0.578 0.1-0.963s0-0.672-0.1-0.963l2.034-1.634c0.194-0.194 0.194-0.384 0.1-0.578l-1.941-3.369c-0.094-0.094-0.288-0.194-0.581-0.094l-2.422 0.963c-0.484-0.384-1.066-0.675-1.647-0.963l-0.387-2.509c-0.069-0.331-0.194-0.481-0.387-0.481h-3.875c-0.194 0-0.481 0.197-0.481 0.387l-0.387 2.6c-0.581 0.194-1.069 0.581-1.647 0.966l-2.328-0.963c-0.287-0.1-0.481 0-0.675 0.194l-1.938 3.366c-0.094 0.094 0 0.387 0.194 0.578l2.034 1.537c0 0.291-0.094 0.578-0.094 0.963s0 0.672 0.094 0.963l-2.034 1.634c-0.194 0.194-0.194 0.384-0.094 0.578l1.934 3.369c0.1 0.094 0.294 0.194 0.581 0.094l2.422-0.962c0.484 0.384 1.066 0.675 1.647 0.962l0.387 2.519c0 0.194 0.194 0.397 0.484 0.397h3.878c0.194 0 0.481-0.206 0.481-0.397l0.387-2.512c0.581-0.288 1.163-0.581 1.647-0.966l2.422 0.962c0.194 0.1 0.488 0 0.581-0.194l1.938-3.366c0.094-0.194 0.094-0.481-0.1-0.581v0zM12.703 14.986c-1.844 0-3.391-1.541-3.391-3.372s1.547-3.372 3.391-3.372c1.841 0 3.387 1.541 3.387 3.372s-1.55 3.372-3.387 3.372v0zM28.309 25.823l-1.384-1.244c0.025-0.2 0.119-0.387 0.153-0.65s0.059-0.459 0.016-0.666l1.531-0.938c0.15-0.116 0.166-0.247 0.119-0.387l-1.028-2.469c-0.056-0.072-0.178-0.156-0.387-0.116l-1.738 0.447c-0.297-0.306-0.666-0.553-1.041-0.803l-0.044-1.747c-0.019-0.231-0.091-0.347-0.222-0.363l-2.644-0.341c-0.131-0.016-0.347 0.091-0.363 0.222l-0.491 1.741c-0.416 0.081-0.781 0.303-1.209 0.516l-1.506-0.859c-0.188-0.094-0.328-0.041-0.478 0.072l-1.619 2.131c-0.072 0.056-0.034 0.262 0.081 0.413l1.253 1.228c-0.025 0.2-0.116 0.387-0.15 0.65s-0.059 0.459-0.019 0.666l-1.531 0.938c-0.15 0.116-0.166 0.247-0.116 0.387l1.025 2.469c0.059 0.075 0.184 0.159 0.387 0.116l1.738-0.447c0.297 0.306 0.666 0.553 1.041 0.803l0.044 1.753c-0.016 0.131 0.097 0.288 0.294 0.313l2.647 0.341c0.131 0.016 0.347-0.097 0.363-0.228l0.484-1.681c0.422-0.144 0.844-0.294 1.209-0.516l1.569 0.869c0.125 0.084 0.331 0.041 0.413-0.081l1.619-2.128c0.081-0.131 0.106-0.325-0.016-0.409v0zM21.822 25.592c-1.259-0.163-2.178-1.35-2.019-2.597s1.35-2.166 2.609-2.003c1.256 0.163 2.175 1.347 2.016 2.597s-1.35 2.166-2.606 2.003v0z"></path>
</svg>
