<!-- Generated by IcoMoon.io -->
<svg version="1.1" xmlns="http://www.w3.org/2000/svg" width="32" height="32" viewBox="0 0 32 32">
<title>complaint</title>
<path fill="#444" d="M19.677 21.087c-0.361-0.29-0.679-0.624-0.975-0.975-1.845 1.732-4.126 2.769-6.605 2.769-2.475 0-4.757-1.040-6.605-2.769-0.293 0.351-0.61 0.682-0.972 0.975-2.271 1.821-3.911 4.45-4.453 7.529-0.068 0.385 0.038 0.784 0.283 1.084s0.614 0.474 0.999 0.474h21.505c0.385 0 0.75-0.174 0.999-0.474s0.351-0.696 0.283-1.084c-0.549-3.079-2.186-5.708-4.46-7.529v0zM15.524 12.43l4.214-2.179c0.174-0.092 0.263-0.297 0.201-0.484-0.14-0.436-0.317-0.866-0.535-1.285-2.104-4.064-7.068-5.674-11.092-3.594s-5.585 7.065-3.481 11.129c2.104 4.068 7.075 5.674 11.099 3.594 1.947-1.006 3.314-2.694 3.972-4.624 0.075-0.215-0.041-0.45-0.259-0.522l-4.051-1.289c-0.348-0.109-0.389-0.58-0.068-0.747zM22.552 9.532c-0.314 0-0.624-0.143-0.825-0.419-0.334-0.457-0.235-1.095 0.218-1.429l7.529-5.524c0.457-0.334 1.095-0.235 1.429 0.218 0.334 0.457 0.235 1.095-0.218 1.429l-7.529 5.527c-0.181 0.136-0.392 0.198-0.604 0.198zM30.329 21.309c-0.184 0-0.372-0.051-0.539-0.153l-7.713-4.804c-0.481-0.3-0.627-0.931-0.327-1.408 0.3-0.481 0.931-0.627 1.408-0.327l7.713 4.804c0.481 0.3 0.627 0.931 0.327 1.408-0.194 0.31-0.529 0.481-0.869 0.481zM30.977 13.040h-8.251c-0.566 0-1.023-0.457-1.023-1.023s0.457-1.023 1.023-1.023h8.251c0.566 0 1.023 0.457 1.023 1.023s-0.46 1.023-1.023 1.023z"></path>
</svg>
