<!-- Generated by IcoMoon.io -->
<svg version="1.1" xmlns="http://www.w3.org/2000/svg" width="32" height="32" viewBox="0 0 32 32">
<title>content-open</title>
<path fill="#444" d="M5.409 18.203h3.612c0.219 0 0.397-0.178 0.397-0.397v-3.613c0-0.219-0.178-0.397-0.397-0.397h-3.612c-0.219 0-0.397 0.178-0.397 0.397v3.613c0 0.219 0.178 0.397 0.397 0.397v0zM5.409 27.009h3.612c0.219 0 0.397-0.178 0.397-0.397v-3.613c0-0.219-0.178-0.397-0.397-0.397h-3.612c-0.219 0-0.397 0.178-0.397 0.397v3.613c0 0.219 0.178 0.397 0.397 0.397v0zM5.409 9.4h3.612c0.219 0 0.397-0.178 0.397-0.397v-3.616c0-0.219-0.178-0.397-0.397-0.397h-3.612c-0.219 0-0.397 0.178-0.397 0.397v3.612c0 0.222 0.178 0.4 0.397 0.4v0zM29.809 15.541l-12.45-12.45c-0.259-0.259-0.678-0.259-0.934 0l-2.191 2.191c-0.259 0.259-0.259 0.678 0 0.934l9.319 9.319c0.259 0.259 0.259 0.684-0.006 0.941l-9.319 9.113c-0.256 0.25-0.266 0.663-0.022 0.925l2.219 2.381c0.256 0.275 0.688 0.281 0.953 0.016l12.434-12.434c0.256-0.256 0.256-0.675-0.003-0.934v0z"></path>
</svg>
