<!-- Generated by IcoMoon.io -->
<svg version="1.1" xmlns="http://www.w3.org/2000/svg" width="32" height="32" viewBox="0 0 32 32">
<title>contact</title>
<path fill="#444" d="M29.937 24.081c-0.079-0.395-0.325-0.698-0.739-0.954l-5.707-3.352h-0.030c-0.197-0.11-0.463-0.2-0.798-0.2-0.473 0-0.887 0.147-1.242 0.462l-1.686 1.711c-0.039 0.039-0.103 0.071-0.192 0.101s-0.153 0.043-0.192 0.043l-0.37-0.075c-0.246-0.049-0.601-0.193-1.065-0.429s-1.040-0.607-1.73-1.11c-0.69-0.503-1.479-1.209-2.366-2.117-0.907-0.888-1.607-1.673-2.099-2.353s-0.858-1.258-1.094-1.732c-0.276-0.533-0.453-1.006-0.532-1.421 0-0.059 0.015-0.133 0.044-0.222s0.064-0.153 0.103-0.192l1.449-1.451c0.256-0.257 0.424-0.572 0.503-0.947s0.030-0.72-0.148-1.036l-3.164-6.009c-0.138-0.217-0.306-0.4-0.503-0.548s-0.424-0.222-0.68-0.222c-0.355 0-0.67 0.138-0.946 0.414l-3.933 3.937c-0.197 0.178-0.365 0.41-0.503 0.696s-0.227 0.567-0.266 0.844c0 0.039-0.010 0.237-0.030 0.592s0.020 0.844 0.118 1.465c0.099 0.622 0.286 1.362 0.562 2.22s0.69 1.816 1.242 2.871 1.281 2.205 2.188 3.449c0.907 1.243 2.050 2.546 3.43 3.907 1.735 1.756 3.371 3.138 4.909 4.144s2.913 1.761 4.125 2.265c1.212 0.503 2.237 0.819 3.075 0.947s1.444 0.192 1.819 0.192c0.158 0 0.286-0.005 0.384-0.015s0.158-0.015 0.178-0.015c0.276-0.039 0.557-0.128 0.843-0.266s0.517-0.306 0.695-0.503l3.933-3.907c0.335-0.336 0.473-0.73 0.414-1.184z"></path>
</svg>
