<!-- Generated by IcoMoon.io -->
<svg version="1.1" xmlns="http://www.w3.org/2000/svg" width="32" height="32" viewBox="0 0 32 32">
<title>copy</title>
<path fill="#444" d="M10.497 14.415h-4.74c-0.161 0-0.291-0.13-0.291-0.291v-1.135c0-0.161 0.13-0.291 0.291-0.291h4.736v-2.284h-4.736c-0.161 0-0.291-0.13-0.291-0.291v-1.135c0-0.161 0.13-0.291 0.291-0.291h4.799c0.175-0.553 0.69-0.956 1.303-0.956h8.526v-0.613c0-0.34-0.137-0.669-0.378-0.911l-3.839-3.839c-0.242-0.242-0.567-0.378-0.911-0.378h-9.71c-0.711 0-1.286 0.574-1.286 1.286v19.085c0 0.711 0.574 1.286 1.286 1.286h4.946v-9.241zM15.793 4.112c0-0.259 0.312-0.389 0.494-0.203l2.189 2.189c0.182 0.182 0.053 0.494-0.203 0.494h-2.189c-0.161 0-0.291-0.13-0.291-0.291v-2.189zM27.381 13.574l-3.622-3.622c-0.228-0.228-0.536-0.354-0.858-0.354h-9.147c-0.669 0-1.212 0.543-1.212 1.212v17.978c0 0.669 0.543 1.212 1.212 1.212h12.772c0.669 0 1.212-0.543 1.212-1.212l-0.003-14.359c0-0.319-0.126-0.627-0.354-0.855zM18.774 21.291h-4.82c-0.151 0-0.273-0.123-0.273-0.273v-1.068c0-0.151 0.123-0.273 0.273-0.273h4.82c0.151 0 0.273 0.123 0.273 0.273v1.068c0 0.151-0.123 0.273-0.273 0.273zM21.857 17.526h-7.903c-0.151 0-0.273-0.123-0.273-0.273v-1.068c0-0.151 0.123-0.273 0.273-0.273h7.903c0.151 0 0.273 0.123 0.273 0.273v1.068c0 0.151-0.123 0.273-0.273 0.273zM23.409 13.651v-2.063c0-0.242 0.294-0.364 0.466-0.193l2.063 2.063c0.172 0.172 0.049 0.466-0.193 0.466h-2.063c-0.151 0-0.273-0.123-0.273-0.273z"></path>
</svg>
