<!-- Generated by IcoMoon.io -->
<svg version="1.1" xmlns="http://www.w3.org/2000/svg" width="32" height="32" viewBox="0 0 32 32">
<title>creditcard</title>
<path fill="#444" d="M30.22 6.977c0-1.035-0.629-1.874-1.406-1.874h-25.665c-0.777 0-1.406 0.839-1.406 1.874v2.53h28.478v-2.53zM23.199 13.838h-21.453v11.395c0 0.92 0.625 1.664 1.402 1.664h25.665c0.777 0 1.444-0.744 1.444-1.664v-11.395h-7.058zM22.321 24.921c-1.433 0-2.594-1.161-2.594-2.594s1.161-2.594 2.594-2.594c1.433 0 2.594 1.161 2.594 2.594s-1.161 2.594-2.594 2.594zM25.344 24.921c-0.213 0-0.42-0.026-0.618-0.075 0.75-0.584 1.234-1.495 1.234-2.519s-0.483-1.935-1.234-2.519c0.198-0.048 0.405-0.075 0.618-0.075 1.433 0 2.594 1.161 2.594 2.594s-1.161 2.594-2.594 2.594z"></path>
</svg>
