<!-- Generated by IcoMoon.io -->
<svg version="1.1" xmlns="http://www.w3.org/2000/svg" width="32" height="32" viewBox="0 0 32 32">
<title>cut</title>
<path fill="#444" d="M24.191 9.177c2.699-1.101 4.247 0.596 4.749 1.298 0.103 0.144 0.053 0.349-0.103 0.432l-8.535 4.432-3.983-2.067 7.871-4.094zM4.355 25.695c-1.401-2.69-0.358-6.006 2.329-7.407l-0.006-0.009 3.11-1.615 3.982 2.067-0.796 0.414c0.452 0.423 0.84 0.928 1.137 1.51 1.38 2.696 0.335 5.971-2.349 7.372-2.69 1.401-6.006 0.355-7.407-2.332zM12.15 23.181c0-1.589-1.289-2.878-2.878-2.878s-2.878 1.289-2.878 2.878 1.289 2.878 2.878 2.878c1.589 0 2.878-1.286 2.878-2.878zM11.762 3.976c1.883 0.981 2.957 2.884 2.957 4.864 0 0.843-0.197 1.7-0.608 2.508-0.3 0.582-0.687 1.090-1.137 1.51 0 0 15.836 8.223 15.862 8.238 0.15 0.076 0.209 0.285 0.103 0.432-0.502 0.705-2.050 2.402-4.749 1.298l-17.504-9.11c-1.877-0.978-2.954-2.893-2.954-4.872 0-0.855 0.2-1.724 0.623-2.535 1.401-2.69 4.717-3.736 7.407-2.332zM6.393 8.819c0 1.589 1.289 2.878 2.878 2.878s2.878-1.289 2.878-2.878c0-1.589-1.289-2.878-2.878-2.878s-2.878 1.289-2.878 2.878z"></path>
</svg>
