<!-- Generated by IcoMoon.io -->
<svg version="1.1" xmlns="http://www.w3.org/2000/svg" width="32" height="32" viewBox="0 0 32 32">
<title>deposit</title>
<path fill="#444" d="M16.356 25.571l4.306-4.306c0.1-0.1 0.15-0.219 0.15-0.356s-0.050-0.256-0.15-0.356c-0.1-0.1-0.219-0.15-0.356-0.15h-2.28v-3.546c0-0.137-0.050-0.256-0.15-0.356s-0.219-0.15-0.356-0.15h-3.040c-0.137 0-0.256 0.050-0.356 0.15s-0.15 0.219-0.15 0.356v3.546h-2.28c-0.137 0-0.256 0.050-0.356 0.15s-0.15 0.219-0.15 0.356c0 0.137 0.050 0.256 0.15 0.356l4.306 4.306c0.1 0.1 0.219 0.15 0.356 0.15s0.256-0.050 0.356-0.15h-0zM4.603 26.91v-7.747c0-0.278-0.208-0.52-0.486-0.52h-1.61c-0.278 0-0.52 0.242-0.52 0.52v10.363c0 0.278 0.242 0.486 0.52 0.486h27.020c0.278 0 0.486-0.209 0.486-0.486v-10.363c0-0.278-0.209-0.52-0.486-0.52h-1.61c-0.278 0-0.52 0.242-0.52 0.52v7.747c0 0.278-0.209 0.486-0.486 0.486h-21.788c-0.278 0-0.52-0.209-0.52-0.486v0zM25.344 1.8h-18.687c-1.157 0-2.108 0.831-2.108 1.877v7.586c0 0.581 0.418 1.212 0.758 1.478 0.27 0.211 0.843 0.425 1.35 0.425h18.687c1.157 0 2.108-0.858 2.108-1.904v-7.586c0-1.046-0.951-1.877-2.108-1.877h0zM25.884 9.132h-0c-1.229 0.399-2.332 1.317-2.842 2.617h-14.099c-0.525-1.252-1.648-2.172-2.825-2.589v-3.367c1.203-0.401 2.296-1.299 2.816-2.599h14.12c0.507 1.37 1.574 2.24 2.83 2.623v3.314l-0 0zM16 4.114c-1.437 0-2.602 1.503-2.602 3.358s1.165 3.358 2.602 3.358c1.437 0 2.602-1.503 2.602-3.358s-1.165-3.358-2.602-3.358z"></path>
</svg>
