<!-- Generated by IcoMoon.io -->
<svg version="1.1" xmlns="http://www.w3.org/2000/svg" width="32" height="32" viewBox="0 0 32 32">
<title>details</title>
<path fill="#444" d="M20.106 13.47v0c-3.726-1.909-7.641 2.005-5.731 5.731 0.383 0.763 1.050 1.434 1.814 1.814 3.726 1.909 7.641-2.005 5.731-5.731-0.383-0.763-1.050-1.431-1.814-1.814zM29.712 27.246v0l-3.087-3.182v3.151l1.777 1.715c0.096 0.096 0.287 0.096 0.479 0l0.93-1.208c0.093-0.192 0.093-0.383-0.099-0.476zM26.267 7.3l-4.792-5.249c-0.028-0.031-0.068-0.049-0.111-0.049h-13.842c-1.010 0-1.829 0.819-1.829 1.829v24.436c0 0.945 0.735 1.733 1.678 1.733h17.070c1.026 0 1.866-0.84 1.866-1.866v-1.050l-3.479-3.479c-0.096-0.096-0.096-0.192-0.096-0.287v-0.572c0-0.096 0-0.192-0.096-0.287s-0.287-0.096-0.479 0c-1.050 0.859-2.484 1.434-4.010 1.434-3.63 0-6.686-2.96-6.686-6.686s2.963-6.686 6.593-6.686 6.683 2.963 6.683 6.686c0 1.529-0.479 2.96-1.434 4.106-0.096 0.096-0.096 0.287 0 0.479 0.096 0.096 0.192 0.096 0.287 0.096h0.572c0.096 0 0.192 0 0.287 0.096l1.854 1.854v-16.434c0.003-0.037-0.009-0.074-0.037-0.102v0zM24.45 7.806v0l-2.954-0.031c-0.083 0-0.151-0.068-0.151-0.151v-3.083c0-0.136 0.167-0.204 0.263-0.105l2.954 3.111c0.093 0.099 0.022 0.26-0.111 0.26z"></path>
</svg>
