<!-- Generated by IcoMoon.io -->
<svg version="1.1" xmlns="http://www.w3.org/2000/svg" width="32" height="32" viewBox="0 0 32 32">
<title>directions</title>
<path fill="#444" d="M17.458 16.14h-3.798c-0.18 0-0.287 0.163-0.287 0.342v12.325c0 0.58 0.503 1.094 1.168 1.094h2.035c0.666 0 1.223-0.513 1.223-1.094v-12.325c0-0.179-0.162-0.342-0.341-0.342zM13.883 5.844h3.627c0.227 0 0.385-0.224 0.385-0.45v-1.083c0-1.221-0.985-2.212-2.213-2.212v0c-1.229 0-2.213 0.99-2.213 2.212v1.083c0 0.226 0.187 0.45 0.414 0.45zM26.693 10.181l-2.062-2.982c-0.209-0.301-0.535-0.489-0.879-0.489h-17.639c-0.586 0-1.066 0.515-1.105 1.152-0.003 0.054 0.010 0.112 0.034 0.16l1.368 2.759c0.045 0.090 0.045 0.197 0 0.288l-1.368 2.757c-0.024 0.048-0.037 0.081-0.034 0.135 0.038 0.637 0.519 1.122 1.105 1.122h17.639c0.345 0 0.671-0.158 0.879-0.459l2.062-2.963c0.304-0.441 0.304-1.039 0-1.48z"></path>
</svg>
