<!-- Generated by IcoMoon.io -->
<svg version="1.1" xmlns="http://www.w3.org/2000/svg" width="32" height="32" viewBox="0 0 32 32">
<title>direct-debit</title>
<path fill="#444" d="M3.944 7.662h15.458c0.157 0 0.27 0.144 0.27 0.312v1.69c0 0.208 0.197 0.355 0.381 0.29l7.966-2.803c0.262-0.092 0.263-0.489 0.002-0.581l-7.969-2.803c-0.184-0.065-0.38 0.082-0.38 0.29v1.69c0 0.169-0.113 0.319-0.27 0.319h-15.458c-0.157 0-0.322 0.124-0.322 0.292v1.004c0 0.169 0.164 0.299 0.322 0.299zM6.224 24.409c-0.619-1.794-1.905-2.881-3.3-3.427v-4.413c1.396-0.526 2.677-1.73 3.29-3.325h16.674c0.598 1.894 1.867 2.855 3.363 3.357v0.695c0.598 0.047 1.296 0.199 1.595 0.441v-3.942c0-1.371-0.888-2.445-2.254-2.445h-22.067c-1.366 0-2.495 1.075-2.495 2.445v9.944c0 0.761 0.496 1.573 0.898 1.922 0.319 0.277 0.999 0.542 1.597 0.542h17.235c-0.343-0.498-0.593-1.296-0.731-1.794h-13.805zM11.043 18.77c0 2.431 1.574 4.402 3.515 4.402s3.516-1.971 3.516-4.402c0-2.431-1.574-4.402-3.516-4.402s-3.515 1.97-3.515 4.402zM25.793 19.923h-0.638v3.888h3.888v-0.691c0-1.785-1.465-3.197-3.25-3.197zM25.793 17.944c-2.859 0-5.177 2.318-5.177 5.177s2.318 5.177 5.177 5.177c2.859 0 5.177-2.318 5.177-5.177s-2.318-5.177-5.177-5.177zM25.793 27.003c-2.141 0-3.883-1.742-3.883-3.883s1.742-3.883 3.883-3.883c2.141 0 3.883 1.742 3.883 3.883s-1.742 3.883-3.883 3.883z"></path>
</svg>
