<!-- Generated by IcoMoon.io -->
<svg version="1.1" xmlns="http://www.w3.org/2000/svg" width="32" height="32" viewBox="0 0 32 32">
<title>drag</title>
<path fill="#444" d="M26.282 17.445h-20.597c-0.136 0-0.202 0.164-0.202 0.315v2.353c0 0.152 0.066 0.323 0.202 0.323h20.597c0.136 0 0.235-0.171 0.235-0.323v-2.353c0-0.152-0.099-0.315-0.235-0.315zM26.282 11.564h-20.597c-0.136 0-0.202 0.105-0.202 0.256v2.353c0 0.152 0.066 0.282 0.202 0.282h20.597c0.136 0 0.235-0.13 0.235-0.282v-2.353c0-0.152-0.099-0.256-0.235-0.256z"></path>
</svg>
