<!-- Generated by IcoMoon.io -->
<svg version="1.1" xmlns="http://www.w3.org/2000/svg" width="32" height="32" viewBox="0 0 32 32">
<title>edit</title>
<path fill="#444" d="M29.349 6.161l-3.553-3.553c-0.618-0.61-1.545-0.61-2.165 0l-2.039 2.046c-0.407 0.408-0.406 1.069 0.001 1.476l4.349 4.349c0.424 0.424 1.118 0.405 1.518-0.042l1.888-2.111c0.618-0.618 0.618-1.547 0-2.165zM19.743 7.68c-0.409-0.409-1.073-0.408-1.481 0.003l-15.94 16.094c-0.194 0.196-0.29 0.46-0.29 0.735v4.393c0 0.577 0.442 1.096 1.019 1.096h4.388c0.279 0 0.546-0.137 0.742-0.335l15.955-16.108c0.405-0.408 0.404-1.074-0.003-1.481l-4.391-4.399z"></path>
</svg>
