<!-- Generated by IcoMoon.io -->
<svg version="1.1" xmlns="http://www.w3.org/2000/svg" width="32" height="32" viewBox="0 0 32 32">
<title>editthecontent-circle</title>
<path fill="#444" d="M16 2c-7.767 0-14 6.233-14 14s6.233 14 14 14 14-6.233 14-14-6.233-14-14-14zM22.58 24.851h-15.402v-15.402h11.551l-2.17 2.17h-7.211v11.063h11.063v-7.213l2.17-2.17v11.553zM15.019 19.39l-3.22 0.84 0.77-3.221 7.841-7.771 2.38 2.38zM24.82 8.75c0 0.77-0.281 0.98-0.281 0.98l-0.91 1.12-2.45-2.45 0.91-0.84c0.196-0.16 0.43-0.281 0.688-0.347 0.143-0.040 0.292-0.062 0.447-0.062 0.333 0 0.644 0.101 0.902 0.273 0.766 0.485 0.696 1.326 0.696 1.326z"></path>
</svg>
