<!-- Generated by IcoMoon.io -->
<svg version="1.1" xmlns="http://www.w3.org/2000/svg" width="32" height="32" viewBox="0 0 32 32">
<title>edit-attributes</title>
<path fill="#444" d="M25.869 20.857v0c-0.168-0.168-0.438-0.168-0.606 0l-6.531 6.593c-0.079 0.079-0.118 0.188-0.118 0.3v1.8c0 0.235 0.182 0.45 0.418 0.45h1.797c0.115 0 0.224-0.056 0.303-0.138l6.537-6.598c0.165-0.168 0.165-0.441 0-0.606l-1.8-1.8z"></path>
<path fill="#444" d="M29.803 20.233v0l-1.456-1.456c-0.253-0.25-0.632-0.25-0.885 0l-0.835 0.838c-0.168 0.168-0.168 0.438 0 0.606l1.783 1.783c0.174 0.174 0.459 0.165 0.621-0.018l0.774-0.865c0.253-0.253 0.253-0.635 0-0.888z"></path>
<path fill="#444" d="M21.542 18.321c-0.088-4.357-2.312-7.763-3.66-9.434v0c-0.25-0.312-0.753-0.088-0.697 0.306 0.129 0.871 0.206 2.071 0 3.38-0.585 3.636-1.971 5.598-3.033 6.607-0.318 0.303-0.809-0.068-0.627-0.459 1.133-2.374 2.933-7.266 0.821-11.093-1.374-2.498-4.324-4.554-5.984-5.569-0.329-0.2-0.727 0.144-0.565 0.497 0.647 1.412 1.447 3.904 0.621 6.445-1.262 3.883-4.413 8.016-4.413 12.267 0 4.257 4.548 7.607 9.028 7.022s8.634-3.451 8.508-9.97z"></path>
</svg>
