<!-- Generated by IcoMoon.io -->
<svg version="1.1" xmlns="http://www.w3.org/2000/svg" width="32" height="32" viewBox="0 0 32 32">
<title>education</title>
<path fill="#444" d="M24.994 21.761c0-0.547 0-1.104 0-1.652 0-0.279 0-0.557 0-0.836 0-0.139 0-0.279 0-0.418v-0.299c0-0.040-0.040-0.070-0.080-0.050-0.259 0.119-0.517 0.239-0.776 0.358-0.249 0.119-0.507 0.219-0.756 0.348-0.935 0.428-1.881 0.856-2.816 1.293-0.955 0.438-1.91 0.876-2.865 1.313-0.567 0.259-1.134 0.547-1.711 0.786-0.030 0.010-0.070 0.050-0.109 0.050-0.119 0.010-0.328-0.139-0.438-0.189-0.249-0.109-0.497-0.229-0.746-0.348-0.995-0.458-1.99-0.915-2.995-1.333-1.025-0.458-2.050-0.915-3.074-1.373-0.358-0.159-0.726-0.328-1.084-0.488-0.179-0.080-0.358-0.159-0.547-0.239-0.090-0.040-0.149-0.060-0.189-0.050-0.030 0.020-0.050 0.060-0.050 0.169 0 0.955 0 1.91 0 2.865 0 0.478 0 0.955 0 1.433 0 0.408-0.070 0.856 0.099 1.244 0.139 0.308 0.398 0.547 0.696 0.716 0.368 0.209 0.796 0.318 1.194 0.478 2 0.786 3.99 1.552 5.97 2.388 0.358 0.149 0.736 0.308 1.124 0.318 0.418 0.010 0.816-0.159 1.204-0.318 0.995-0.408 1.99-0.816 2.985-1.224 0.965-0.398 1.93-0.826 2.915-1.154 0.567-0.169 1.164-0.398 1.602-0.816 0.030-0.030 0.070-0.070 0.099-0.099 0.308-0.348 0.368-0.756 0.348-1.194 0.010-0.567 0-1.124 0-1.681z"></path>
<path fill="#444" d="M31.372 11.493c0-0.279-0.109-0.537-0.269-0.766-0.149-0.249-0.368-0.448-0.637-0.577-0.259-0.159-0.537-0.289-0.826-0.408-4.428-1.97-8.865-3.93-13.293-5.9 0 0 0 0 0 0-0.229-0.099-0.488-0.099-0.706 0 0 0 0 0 0 0-4.428 1.97-8.865 3.93-13.293 5.9-0.398 0.179-0.806 0.358-1.134 0.637s-0.587 0.687-0.587 1.114c0 0.438 0.249 0.856 0.587 1.134 0.338 0.289 0.746 0.468 1.154 0.647 1.323 0.587 2.647 1.154 3.97 1.751 3.094 1.393 6.209 2.766 9.313 4.139 0.229 0.099 0.478 0.099 0.706 0 3.104-1.383 6.218-2.746 9.313-4.139 0.886-0.398 1.771-0.786 2.657-1.174v8.477c0 0.826 0.677 1.502 1.502 1.502v0c0.826 0 1.502-0.677 1.502-1.502v-10.497c0.020-0.109 0.040-0.219 0.040-0.338z"></path>
</svg>
