<!-- Generated by IcoMoon.io -->
<svg version="1.1" xmlns="http://www.w3.org/2000/svg" width="32" height="32" viewBox="0 0 32 32">
<title>excel</title>
<path fill="#444" d="M26.267 7.3v0l-4.792-5.249c-0.028-0.031-0.068-0.049-0.111-0.049h-13.842c-1.010 0-1.829 0.819-1.829 1.829v24.436c0 0.945 0.735 1.733 1.678 1.733h17.070c1.026 0 1.866-0.84 1.866-1.866v-20.732c0-0.037-0.012-0.074-0.040-0.102zM19.26 23.922l-3.26-4.872-1.468 2.194h1.77v2.679h-7.672l5.354-7.885-4.746-7.094h3.958l2.802 4.125 2.799-4.125h3.958l-4.743 7.094 5.354 7.885h-4.109zM24.45 7.806v0l-2.954-0.031c-0.083 0-0.151-0.068-0.151-0.151v-3.083c0-0.136 0.167-0.204 0.263-0.105l2.954 3.111c0.093 0.099 0.022 0.26-0.111 0.26z"></path>
</svg>
