<!-- Generated by IcoMoon.io -->
<svg version="1.1" xmlns="http://www.w3.org/2000/svg" width="32" height="32" viewBox="0 0 32 32">
<title>execute</title>
<path fill="#444" d="M29.635 19.703v0l-3.25-2.243c0-0.425 0.146-0.846 0.146-1.406s0-0.982-0.146-1.406l2.969-2.385c0.282-0.282 0.282-0.561 0.146-0.846l-2.832-4.913c-0.139-0.139-0.421-0.282-0.849-0.139l-3.532 1.406c-0.703-0.561-1.552-0.985-2.401-1.406l-0.564-3.662c-0.1-0.483-0.282-0.703-0.564-0.703h-5.655c-0.282 0-0.703 0.285-0.703 0.567l-0.564 3.795c-0.849 0.282-1.559 0.846-2.401 1.406l-3.396-1.406c-0.421-0.143-0.703 0-0.985 0.282l-2.829 4.919c-0.139 0.139 0 0.564 0.282 0.846l2.969 2.243c0 0.425-0.139 0.846-0.139 1.406s0 0.982 0.139 1.406l-2.969 2.382c-0.282 0.282-0.282 0.561-0.139 0.846l2.823 4.916c0.146 0.139 0.428 0.282 0.849 0.139l3.532-1.406c0.703 0.561 1.552 0.985 2.401 1.406l0.564 3.675c0 0.282 0.282 0.58 0.703 0.58h5.658c0.282 0 0.703-0.298 0.703-0.58l0.567-3.669c0.849-0.418 1.698-0.849 2.401-1.41l3.532 1.403c0.282 0.143 0.71 0 0.849-0.285l2.829-4.916c0.139-0.282 0.139-0.7-0.143-0.843zM22.114 16.52l-9.288 4.835c-0.382 0.198-0.859-0.052-0.859-0.447v-9.677c0-0.395 0.476-0.645 0.859-0.447l9.288 4.832c0.382 0.201 0.382 0.7 0 0.904z"></path>
</svg>
