<!-- Generated by IcoMoon.io -->
<svg version="1.1" xmlns="http://www.w3.org/2000/svg" width="32" height="32" viewBox="0 0 32 32">
<title>expand</title>
<path fill="#444" d="M11.344 21.966l-5.688-5.681c-0.156-0.156-0.156-0.412 0-0.572l5.688-5.681c0.156-0.156 0.156-0.412 0-0.569l-1.334-1.334c-0.156-0.156-0.412-0.156-0.569 0l-7.591 7.588c-0.156 0.156-0.156 0.412 0 0.569l7.587 7.587c0.156 0.156 0.412 0.156 0.569 0l1.334-1.337c0.159-0.156 0.159-0.409 0.003-0.569v0zM20.641 21.966c-0.156 0.156-0.156 0.413 0 0.569l1.334 1.337c0.156 0.156 0.413 0.156 0.569 0l7.587-7.588c0.156-0.156 0.156-0.412 0-0.569l-7.587-7.588c-0.156-0.156-0.413-0.156-0.569 0l-1.334 1.334c-0.156 0.156-0.156 0.412 0 0.569l5.688 5.684c0.156 0.156 0.156 0.413 0 0.572l-5.688 5.678zM16 30v0c-0.828 0-1.5-0.672-1.5-1.5v-25c0-0.828 0.672-1.5 1.5-1.5v0c0.828 0 1.5 0.672 1.5 1.5v25c0 0.828-0.672 1.5-1.5 1.5z"></path>
</svg>
