<!-- Generated by IcoMoon.io -->
<svg version="1.1" xmlns="http://www.w3.org/2000/svg" width="32" height="32" viewBox="0 0 32 32">
<title>fast-forward</title>
<path fill="#444" d="M16 2c-7.731 0-14 6.269-14 14s6.269 14 14 14 14-6.269 14-14-6.269-14-14-14zM26.734 16.791l-10.028 5.788c-0.413 0.238-0.928-0.063-0.928-0.534v-4.025l-7.897 4.559c-0.412 0.238-0.928-0.063-0.928-0.534v-11.584c0-0.475 0.516-0.772 0.928-0.534l7.9 4.556v-4.022c0-0.475 0.516-0.772 0.928-0.534l10.028 5.787c0.409 0.234 0.409 0.831-0.003 1.078z"></path>
</svg>
