<!-- Generated by IcoMoon.io -->
<svg version="1.1" xmlns="http://www.w3.org/2000/svg" width="32" height="32" viewBox="0 0 32 32">
<title>file</title>
<path fill="#444" d="M26.269 7.3l-4.797-5.25c-0.028-0.031-0.069-0.050-0.113-0.050h-13.844c-1.009 0-1.828 0.819-1.828 1.828v24.438c0 0.947 0.734 1.734 1.678 1.734h17.072c1.025 0 1.866-0.841 1.866-1.866v-7.75l0.003-12.984c0.003-0.037-0.012-0.072-0.038-0.1v0zM21.028 24.859c0 0.087-0.084 0.159-0.188 0.159h-9.684c-0.103 0-0.188-0.072-0.188-0.159v-1.197c0-0.087 0.084-0.159 0.188-0.159h9.688c0.103 0 0.188 0.072 0.188 0.159v1.197zM21.028 20.809c0 0.084-0.084 0.156-0.188 0.156h-9.684c-0.103 0-0.188-0.069-0.188-0.156v-1.156c0-0.084 0.084-0.156 0.188-0.156h9.688c0.103 0 0.188 0.069 0.188 0.156v1.156zM21.028 16.841c0 0.087-0.084 0.159-0.188 0.159h-9.684c-0.103 0-0.188-0.072-0.188-0.159v-1.184c0-0.088 0.084-0.159 0.188-0.159h9.688c0.103 0 0.188 0.072 0.188 0.159v1.184zM21.028 12.841c0 0.088-0.063 0.159-0.141 0.159h-9.778c-0.078 0-0.141-0.072-0.141-0.159v-1.184c0-0.088 0.063-0.159 0.141-0.159h9.781c0.078 0 0.141 0.072 0.141 0.159l-0.003 1.184zM24.453 7.803l-2.953-0.031c-0.084 0-0.15-0.069-0.15-0.15v-3.081c0-0.138 0.166-0.203 0.262-0.106l2.953 3.112c0.091 0.094 0.022 0.256-0.113 0.256v0z"></path>
</svg>
