<!-- Generated by IcoMoon.io -->
<svg version="1.1" xmlns="http://www.w3.org/2000/svg" width="32" height="32" viewBox="0 0 32 32">
<title>flow</title>
<path fill="#444" d="M28.302 5.363h-18.084c-0.359-1.894-2.034-3.33-4.027-3.33-2.253 0-4.097 1.844-4.097 4.097s1.844 4.097 4.097 4.097c1.954 0 3.589-1.376 3.998-3.21h18.044v8.204h-8.155c-0.359-1.894-2.034-3.33-4.027-3.33s-3.669 1.435-4.027 3.33h-8.733c-0.698 0-1.196 0.678-1.196 1.605v8.324c0 0.927 0.508 1.605 1.196 1.605h13.418v2.492l3.35-3.19-3.35-3.35v2.373h-12.96v-8.204h8.314c0.409 1.834 2.044 3.21 3.998 3.21s3.589-1.376 3.997-3.21h8.244c0.887 0 1.605-0.718 1.605-1.605v-8.304c0-0.887-0.718-1.605-1.605-1.605z"></path>
<path fill="#444" d="M29.907 25.869c0 2.263-1.834 4.097-4.097 4.097s-4.097-1.834-4.097-4.097c0-2.263 1.834-4.097 4.097-4.097s4.097 1.834 4.097 4.097z"></path>
</svg>
