<!-- Generated by IcoMoon.io -->
<svg version="1.1" xmlns="http://www.w3.org/2000/svg" width="32" height="32" viewBox="0 0 32 32">
<title>folder-search</title>
<path fill="#444" d="M4.963 9.912c7.559-0.016 15.122-0.009 22.763-0.009-0.328-1.9-0.691-2.219-2.5-2.225-2.712-0.009-5.428-0.022-8.141 0.006-1.416 0.016-2.619-0.394-3.588-1.459-0.731-0.803-1.641-1.303-2.753-1.313-1.447-0.016-2.894-0.006-4.341-0.006-0.975 0-1.578 0.475-1.725 1.441s-0.216 1.941-0.359 2.906c-0.081 0.547 0.128 0.659 0.644 0.659v0z"></path>
<path fill="#444" d="M25.025 24.875c-0.125-0.125-0.197-0.284-0.197-0.444v-0.231c-0.959 0.728-2.153 1.125-3.391 1.125-1.559 0-3.022-0.606-4.119-1.709-1.097-1.1-1.7-2.569-1.7-4.134s0.603-3.034 1.7-4.134c1.097-1.103 2.559-1.709 4.119-1.709s3.022 0.606 4.119 1.709c1.097 1.1 1.7 2.569 1.7 4.134 0 1.25-0.403 2.462-1.141 3.431h0.247c0.166 0 0.328 0.069 0.447 0.188l2.416 2.428c0.053-0.247 0.091-0.531 0.119-0.853l0.666-11.394c0.056-0.947-0.691-1.75-1.637-1.756v0c-0.006 0-0.012 0-0.022 0-2.334-0.012-4.666-0.006-7-0.006-1.784 0-3.569 0-5.353 0s-3.569 0-5.353 0c-2.334 0-4.666-0.009-7 0.006-0.006 0-0.013 0-0.022 0-0.947 0.006-1.694 0.813-1.637 1.756l0.662 11.387c0.166 1.884 0.666 2.409 2.594 2.419 3.519 0.016 7.034 0.006 10.553 0.003v0c0.006 0 0.012 0 0.019 0 0.059 0 0.122 0 0.181 0s0.122 0 0.181 0c0.006 0 0.012 0 0.019 0v0c3.519 0.003 7.034 0.012 10.553-0.003 0.166 0 0.322-0.006 0.466-0.016l-2.188-2.197z"></path>
<path fill="#444" d="M17.803 19.506c0 2.016 1.641 3.656 3.656 3.656s3.656-1.641 3.656-3.656c0-2.016-1.641-3.656-3.656-3.656s-3.656 1.641-3.656 3.656z"></path>
<path fill="#444" d="M31.209 27.594v0l-0.031-0.031-1.613-1.619c-0.322 0.744-0.981 1.309-1.781 1.509l1.778 1.784c0.084 0.084 0.194 0.128 0.316 0.128 0.119 0 0.231-0.047 0.316-0.128l1.019-1.022c0.169-0.172 0.169-0.45-0.003-0.622z"></path>
</svg>
