<!-- Generated by IcoMoon.io -->
<svg version="1.1" xmlns="http://www.w3.org/2000/svg" width="32" height="32" viewBox="0 0 32 32">
<title>folder</title>
<path fill="#444" d="M4.962 9.913c7.56-0.015 15.121-0.010 22.764-0.010-0.329-1.9-0.692-2.22-2.5-2.225-2.713-0.008-5.427-0.022-8.14 0.006-1.416 0.014-2.617-0.392-3.588-1.459-0.731-0.803-1.64-1.302-2.754-1.313-1.447-0.015-2.894-0.007-4.341-0.007-0.975-0-1.578 0.475-1.724 1.44s-0.216 1.94-0.359 2.905c-0.081 0.551 0.127 0.664 0.643 0.663zM28.372 11.525c-0.007 0-0.014-0-0.020-0-2.333-0.013-4.666-0.005-6.999-0.005-1.784 0-3.568 0.001-5.353 0.001s-3.568-0.001-5.353-0.001c-2.333 0-4.666-0.008-6.999 0.005-0.007 0-0.014 0-0.020 0-0.947 0.006-1.692 0.812-1.637 1.757l0.663 11.389c0.164 1.886 0.666 2.409 2.593 2.418 3.518 0.015 7.036 0.006 10.554 0.004v0c0.006 0 0.012 0 0.019 0 0.060 0 0.121-0 0.181-0s0.121 0 0.181 0c0.006 0 0.012 0 0.019 0v-0c3.518 0.002 7.036 0.011 10.554-0.004 1.926-0.008 2.429-0.532 2.593-2.418l0.663-11.389c0.055-0.945-0.69-1.751-1.637-1.757z"></path>
</svg>
