<!-- Generated by IcoMoon.io -->
<svg version="1.1" xmlns="http://www.w3.org/2000/svg" width="32" height="32" viewBox="0 0 32 32">
<title>food-expand</title>
<path fill="#444" d="M21.316 10.361v4.266s2.747 0.435 2.82-2.096c0 0 0.072-2.531-2.82-2.17zM16 2c-7.767 0-14 6.233-14 14s6.233 14 14 14 14-6.233 14-14-6.233-14-14-14zM23.702 23.813h-15.91c-0.072 0-1.952-0.578-2.097-2.748h19.887s0.29 1.735-1.88 2.748zM21.316 16.797v0.578c0 1.229-0.94 2.169-2.169 2.169h-8.461c-1.229 0-2.169-0.94-2.169-2.169v-9.183h12.8s4.99-0.29 4.99 4.34c0 0 0 4.266-4.99 4.266z"></path>
</svg>
