<!-- Generated by IcoMoon.io -->
<svg version="1.1" xmlns="http://www.w3.org/2000/svg" width="32" height="32" viewBox="0 0 32 32">
<title>frequency</title>
<path fill="#444" d="M23.194 14.816c-4.608 0-8.307 3.699-8.307 8.307s3.699 8.307 8.307 8.307 8.307-3.699 8.307-8.307-3.699-8.307-8.307-8.307zM23.036 26.48l-4.601-4.601c-0.097-0.097-0.094-0.257 0.007-0.355l0.881-0.821c0.097-0.091 0.248-0.088 0.341 0.007l3.374 3.452c0.094 0.097 0.251 0.097 0.348 0.003l3.452-3.452c0.094-0.094 0.251-0.094 0.348 0l0.812 0.812c0.094 0.094 0.094 0.251 0 0.348l-4.611 4.608c-0.094 0.094-0.251 0.094-0.348 0v0zM14.336 26.625c-5.632-0.373-10.086-5.087-10.086-10.847 0-6.005 4.84-10.873 10.807-10.873 5.413 0 9.895 4.004 10.685 9.228 1.093 0.317 2.108 0.824 2.998 1.488-0.041-3.467-1.356-6.625-3.496-9.021l1.228-1.231 0.996 0.996c0.148 0.148 0.385 0.148 0.533 0l1.131-1.131c0.148-0.148 0.148-0.385 0-0.532l-3.987-3.985c-0.148-0.148-0.385-0.148-0.533 0l-1.131 1.131c-0.148 0.148-0.148 0.385 0 0.532l1.062 1.062-1.313 1.313c-2.275-1.71-5.1-2.722-8.159-2.722-3.154 0-6.058 1.074-8.369 2.879l-1.469-1.469 1.062-1.062c0.148-0.148 0.148-0.385 0-0.532l-1.127-1.131c-0.148-0.148-0.385-0.148-0.532 0l-3.987 3.987c-0.148 0.148-0.148 0.385 0 0.532l1.131 1.131c0.148 0.148 0.385 0.148 0.532 0l0.996-1 1.425 1.425c-2.073 2.412-3.326 5.554-3.326 8.99 0 7.596 6.12 13.751 13.667 13.751 0.351 0 0.695-0.012 1.039-0.041-0.752-0.833-1.356-1.805-1.772-2.87zM16.962 16.050c-0.172-0.463-0.495-0.852-0.908-1.112v0l-1.263-7.709-1.109 7.731c-0.607 0.394-1.008 1.077-1.008 1.855 0 1.146 0.874 2.089 1.989 2.202 0.564-1.137 1.351-2.146 2.299-2.966z"></path>
</svg>
