<!-- Generated by IcoMoon.io -->
<svg version="1.1" xmlns="http://www.w3.org/2000/svg" width="32" height="32" viewBox="0 0 32 32">
<title>gift</title>
<path fill="#444" d="M14.6 16.55h-9.7c-0.3 0-0.5 0.2-0.5 0.5v12.4c0 0.3 0.2 0.5 0.5 0.5h9.7c0.3 0 0.5-0.2 0.5-0.5v-12.4c0-0.3-0.2-0.5-0.5-0.5zM27.1 16.55h-9.7c-0.3 0-0.5 0.2-0.5 0.5v12.4c0 0.3 0.2 0.5 0.5 0.5h9.7c0.3 0 0.5-0.2 0.5-0.5v-12.4c0-0.3-0.2-0.5-0.5-0.5zM28.9 7.65h-5.1c0-0.1 0.1-0.1 0.1-0.2 0.4-0.7 0.5-1.6 0.4-2.6-0.3-1.8-1.3-2.8-2.7-2.8-0.3 0-0.7 0-1 0.1-0.9 0.2-2.1 0.9-3.2 1.8-0.7 0.5-1.1 1-1.4 1.4-0.3-0.4-0.7-0.9-1.4-1.4-1.1-0.9-2.3-1.5-3.2-1.8-0.4-0.1-0.7-0.1-1-0.1-1.5 0-2.5 1-2.7 2.8-0.2 1 0 1.9 0.4 2.6 0 0.1 0.1 0.1 0.1 0.2h-5.1c-0.3 0-0.5 0.2-0.5 0.5v6.1c0 0.3 0.2 0.5 0.5 0.5h11.5c0.3 0 0.5-0.2 0.5-0.5v-2.5c0-0.3 0.2-0.5 0.5-0.5h0.8c0.3 0 0.5 0.2 0.5 0.5v2.5c0 0.3 0.2 0.5 0.5 0.5h11.5c0.3 0 0.5-0.2 0.5-0.5v-6.1c0-0.3-0.2-0.5-0.5-0.5zM14.1 6.55c-0.5 0.2-1.3 0.4-2.2 0.4-0.4 0-0.8 0-1.1-0.1-0.6-0.1-1-0.4-1.1-0.6 0-0.1-0.1-0.3-0.1-0.8 0.1-0.8 0.3-1 0.8-1 0.2 0 0.4 0 0.7 0.1 1.1 0.3 2.3 1.2 3 1.9 0.1 0 0 0.1 0 0.1zM22.4 6.15c-0.2 0.3-0.6 0.5-1.1 0.6-0.3 0.1-0.7 0.1-1.1 0.1-0.9 0-1.7-0.2-2.3-0.4 0 0-0.1-0.1 0-0.1 0.7-0.7 1.9-1.6 3-1.9 0.2-0.1 0.5-0.1 0.7-0.1 0.6 0 0.8 0.2 0.9 0.9 0 0.6-0.1 0.8-0.1 0.9z"></path>
</svg>
