<!-- Generated by IcoMoon.io -->
<svg version="1.1" xmlns="http://www.w3.org/2000/svg" width="32" height="32" viewBox="0 0 32 32">
<title>goals</title>
<path fill="#444" d="M8.254 20.71c-0.442-0.444-0.609-0.221-0.708-0.122-2.548 2.558-4.811 8.73-3.615 8.127 4.354-2.194 5.080-1.541 7.628-4.099 0.098-0.099 0.325-0.262-0.13-0.719l-3.175-3.187zM21.992 20.675c-0.115-0.369 0.127-0.547 0.228-0.657 5.625-6.095 9.199-14.216 6.55-16.876-2.635-2.645-10.476 1.048-16.547 6.653-0.12 0.111-0.357 0.321-0.78 0.233l-1.891-0.452c-0.525-0.125-1.267 0.085-1.649 0.469l-6.94 6.966c-0.382 0.383-0.258 0.766 0.276 0.85l5.020 0.792c0.533 0.084 1.282-0.16 1.664-0.544 0 0 0.259-0.261 0.519 0 1.436 1.441 4.103 4.119 5.471 5.492 0.272 0.273 0.011 0.532 0.011 0.532-0.382 0.383-0.626 1.134-0.542 1.67l0.789 5.038c0.084 0.535 0.465 0.66 0.847 0.277l6.94-6.966c0.382-0.383 0.592-1.128 0.467-1.655l-0.432-1.822zM20.438 11.675c-1.175-1.18-1.175-3.093 0-4.273s3.081-1.18 4.257 0c1.175 1.18 1.175 3.093 0 4.273s-3.081 1.18-4.257 0z"></path>
</svg>
