<!-- Generated by IcoMoon.io -->
<svg version="1.1" xmlns="http://www.w3.org/2000/svg" width="32" height="32" viewBox="0 0 32 32">
<title>graph</title>
<path fill="#444" d="M28.582 6.786c-1.445 0-2.621 1.176-2.621 2.621 0 0.503 0.143 0.972 0.389 1.372l-5.411 6.403c-0.314-0.133-0.658-0.207-1.020-0.207-0.593 0-1.14 0.198-1.58 0.531l-4.563-3.295c0.065-0.228 0.101-0.469 0.101-0.718 0-1.445-1.176-2.621-2.621-2.621s-2.621 1.176-2.621 2.621c0 0.484 0.133 0.938 0.362 1.328l-4.51 5.381c-0.327-0.147-0.689-0.229-1.069-0.229-1.445 0-2.621 1.176-2.621 2.621s1.176 2.621 2.621 2.621c1.445 0 2.621-1.176 2.621-2.621 0-0.468-0.124-0.907-0.339-1.287l4.528-5.403c0.316 0.135 0.663 0.21 1.028 0.21 0.602 0 1.157-0.204 1.599-0.547l4.55 3.286c-0.070 0.236-0.108 0.485-0.108 0.743 0 1.445 1.176 2.621 2.621 2.621s2.621-1.176 2.621-2.621c0-0.488-0.134-0.944-0.367-1.336l5.429-6.424c0.303 0.123 0.634 0.191 0.98 0.191 1.445 0 2.621-1.176 2.621-2.621s-1.176-2.621-2.621-2.621z"></path>
</svg>
