<!-- Generated by IcoMoon.io -->
<svg version="1.1" xmlns="http://www.w3.org/2000/svg" width="32" height="32" viewBox="0 0 32 32">
<title>handshake</title>
<path fill="#444" d="M6.396 19.373c0.552-0.48 0.6-1.332 0.108-1.885-0.492-0.54-1.332-0.552-1.885-0.072l-1.080 0.948c-0.54 0.48-0.636 1.308-0.18 1.861 0.264 0.324 0.636 0.48 1.020 0.48 0.312 0 0.624-0.108 0.876-0.324l1.14-1.008z"></path>
<path fill="#444" d="M8.557 21.534c0.552-0.48 0.6-1.332 0.108-1.885-0.492-0.54-1.332-0.552-1.885-0.072l-1.080 0.948c-0.54 0.48-0.636 1.308-0.18 1.861 0.264 0.324 0.636 0.48 1.020 0.48 0.312 0 0.624-0.108 0.876-0.324l1.14-1.008z"></path>
<path fill="#444" d="M10.826 21.81c-0.492-0.54-1.332-0.552-1.885-0.072l-1.080 0.948c-0.54 0.48-0.636 1.308-0.18 1.861 0.264 0.324 0.636 0.48 1.020 0.48 0.312 0 0.624-0.108 0.876-0.324l1.152-1.008c0.54-0.492 0.6-1.332 0.096-1.885z"></path>
<path fill="#444" d="M11.258 23.983l-1.116 0.984c-0.54 0.48-0.636 1.308-0.18 1.861 0.264 0.324 0.636 0.48 1.020 0.48 0.312 0 0.624-0.108 0.876-0.324l1.116-0.972c0.552-0.48 0.648-1.32 0.168-1.885s-1.332-0.624-1.885-0.144z"></path>
<path fill="#444" d="M29.553 8.869l-2.029 0.384c-0.54 0.108-1.044 0.3-1.489 0.576-0.192 0.12-0.444 0.096-0.612-0.060l-3.877-3.877c-0.732-0.732-1.789-0.924-2.701-0.6-0.18 0.036-0.36 0.108-0.528 0.204l-6.963 4.202c-0.792 0.48-1.044 1.513-0.576 2.305 0.312 0.528 0.876 0.816 1.441 0.816 0.3 0 0.6-0.084 0.864-0.24l4.562-2.749c0.192-0.12 0.444-0.084 0.6 0.072l6.854 6.855c0.192 0.192 0.408 0.348 0.624 0.456 0.012 0.012 0.036 0.024 0.048 0.024 0.732 0.528 1.633 0.828 2.581 0.828 0.276 0 0.552-0.024 0.84-0.084l0.912-0.18c0.696-0.132 1.2-0.744 1.2-1.453v-6.026c0-0.924-0.84-1.621-1.753-1.453z"></path>
<path fill="#444" d="M13.539 13.515c-0.432 0.252-0.936 0.504-1.441 0.504-1.008 0-1.957-0.54-2.473-1.405-0.396-0.66-0.516-1.429-0.324-2.185 0.192-0.744 0.648-1.38 1.308-1.777l4.298-2.581c0 0-1.741-1.669-4.021-0.708l-2.281 0.96c0 0 0 0 0 0l-1.801 0.96c0 0 0 0 0 0s-1.681 1.2-4.082 0c0 0 0 0 0 0l-0.864-0.36c-0.564-0.228-1.176 0.18-1.176 0.78v6.831c0 1.188 0.504 2.365 1.44 3.085 0.024 0.024 0.048 0.048 0.084 0.060l1.633-1.429c0.192-0.168 0.42-0.312 0.66-0.396 1.056-0.36 2.125-0.060 2.797 0.708 0.336 0.384 0.54 0.852 0.6 1.32 0 0 0 0 0 0 0.6 0.084 1.152 0.372 1.561 0.828 0.336 0.384 0.54 0.852 0.6 1.32 0 0 0 0 0 0 0.6 0.084 1.152 0.372 1.561 0.828 0.36 0.42 0.564 0.924 0.612 1.429 0 0 0 0 0 0 0.648 0.060 1.236 0.36 1.669 0.84 0.408 0.456 0.612 1.032 0.624 1.609 0 0 0 0 0 0l1.561 1.561c0.252 0.252 0.6 0.384 0.936 0.384 0.66 0 1.308-0.48 1.381-1.453 0.012-0.216-0.072-0.42-0.216-0.564l-2.509-2.509c-0.024-0.036-0.036-0.072-0.036-0.108 0-0.060 0.024-0.108 0.060-0.156 0.036-0.036 0.096-0.060 0.156-0.060 0.036 0 0.084 0.012 0.108 0.036l3.001 3.001c0.252 0.252 0.6 0.384 0.936 0.384 0.396 0 0.792-0.18 1.056-0.528 0.396-0.528 0.312-1.284-0.156-1.753l-2.977-2.977c-0.024-0.036-0.036-0.072-0.036-0.108 0-0.060 0.024-0.108 0.060-0.156 0.036-0.036 0.096-0.060 0.156-0.060 0.036 0 0.084 0.012 0.108 0.036l3.721 3.721c0.252 0.252 0.6 0.384 0.936 0.384 0.396 0 0.792-0.18 1.056-0.528 0.396-0.528 0.312-1.284-0.156-1.753l-3.697-3.697c-0.024-0.036-0.036-0.072-0.036-0.108 0-0.060 0.024-0.108 0.060-0.156 0.036-0.036 0.096-0.060 0.156-0.060 0.036 0 0.084 0.012 0.108 0.036l4.562 4.562c0.252 0.252 0.6 0.384 0.936 0.384 0.66 0 1.308-0.48 1.381-1.453 0.012-0.216-0.072-0.42-0.216-0.564l-8.223-8.379c-0.816-0.864-0.84-0.96-1.441-0.6l-3.721 2.017z"></path>
</svg>
