<!-- Generated by IcoMoon.io -->
<svg version="1.1" xmlns="http://www.w3.org/2000/svg" width="32" height="32" viewBox="0 0 32 32">
<title>health-circle</title>
<path fill="#444" d="M16 2c-7.767 0-14 6.233-14 14s6.233 14 14 14 14-6.233 14-14-6.233-14-14-14zM16.165 25.882c-6.247-5.437-8.438-9.331-9.006-10.548h3.651c0.406-0.893 0.893-1.866 1.299-2.839l3.732 9.25c0.105 0.101 0.249 0.163 0.406 0.163s0.301-0.062 0.407-0.163c0.486-1.217 0.892-2.515 1.379-3.732h5.516c-1.379 1.947-3.651 4.624-7.383 7.87zM25.17 15.009s-0.325 0.731-1.136 2.028h-6.815c-0.325 0.974-0.731 1.947-1.054 2.921-1.217-3.002-2.516-6.004-3.732-9.006 0 0-0.081-0.162-0.325-0.162-0.162 0-0.325 0.162-0.325 0.162l-1.704 3.406h-3.406c-1.379-5.193 2.191-7.302 2.191-7.302 4.056-2.516 7.14 0.813 7.14 0.813s3.084-3.327 7.14-0.813c-0.001 0.002 3.812 2.273 2.027 7.953z"></path>
</svg>
