<!-- Generated by IcoMoon.io -->
<svg version="1.1" xmlns="http://www.w3.org/2000/svg" width="32" height="32" viewBox="0 0 32 32">
<title>help</title>
<path fill="#444" d="M16 2c-7.766 0-14 6.234-14 14s6.234 14 14 14 14-6.234 14-14-6.234-14-14-14zM17.182 23.307c0 0.303-0.246 0.549-0.549 0.549h-2.088c-0.303 0-0.549-0.246-0.549-0.549v-1.539c0-0.303 0.246-0.549 0.549-0.549h2.088c0.303 0 0.549 0.246 0.549 0.549v1.539zM20.247 15.147v0c-0.53 0.766-1.191 1.408-1.983 1.929-0.013 0.010-0.026 0.016-0.035 0.026-0.428 0.332-0.706 0.661-0.84 0.996-0.093 0.233-0.153 0.53-0.185 0.881-0.022 0.281-0.262 0.479-0.546 0.479h-2.025c-0.319 0-0.572-0.255-0.549-0.575 0.054-0.696 0.195-1.226 0.421-1.594 0.291-0.466 0.869-1.025 1.734-1.689 0.508-0.415 0.913-0.859 1.217-1.338s0.457-1.015 0.457-1.606c0-0.658-0.172-1.172-0.52-1.546-0.348-0.37-0.843-0.559-1.485-0.559-0.53 0-0.977 0.185-1.348 0.498-0.275 0.236-0.45 0.524-0.524 0.939-0.048 0.262-0.275 0.438-0.54 0.438h-1.91c-0.083 0-0.667 0.013-0.667-0.466v-0.045c-0.022-1.373 0.441-1.986 1.367-2.714s2.133-1.099 3.621-1.099c1.603 0 2.858 0.402 3.771 1.217 0.913 0.811 1.367 1.913 1.367 3.308 0.003 0.91-0.265 1.747-0.798 2.52z"></path>
</svg>
