<!-- Generated by IcoMoon.io -->
<svg version="1.1" xmlns="http://www.w3.org/2000/svg" width="32" height="32" viewBox="0 0 32 32">
<title>hold</title>
<path fill="#444" d="M23.149 30.003c0 0-5.366 0-7.254 0-1.75 0-2.357-0.020-3.438-1.561-0.286-0.403-0.505-0.78-1.331-2.015-1.413-2.107-5.54-8.157-5.54-8.157-0.638-0.867-0.479-2.183 0.464-2.698 0.99-0.541 1.862 0.275 2.418 1.030 0.581 0.796 1.382 1.984 1.938 2.734 0.245 0.332 0.444 0.469 0.597 0.357 0.184-0.138 0.173-0.949 0.173-1.326 0-1.005 0-1.005 0.015-13.12 0-1.071 1.051-1.908 2.153-1.612 0.755 0.199 1.255 0.918 1.255 1.699v8.575c0 0.321 0.27 0.597 0.592 0.556 0.265-0.031 0.459-0.25 0.474-0.52 0-0.117-0.005-10.156-0.005-10.156 0-0.995 0.852-1.791 1.877-1.658 0.832 0.107 1.433 0.852 1.433 1.688v10.090c0 0.306 0.316 0.556 0.638 0.556s0.638-0.25 0.638-0.556v-0.005c0 0-0.041-7.927-0.041-7.927 0-0.811 0.571-1.479 1.362-1.541 0.867-0.066 1.592 0.668 1.592 1.535v7.937c0 0.306 0.296 0.556 0.638 0.556s0.638-0.25 0.638-0.556v-5.565c0-0.653 0.48-1.234 1.127-1.306 0.775-0.082 1.418 0.469 1.418 1.979v14.431c0.005 1.979 0.071 6.555-3.831 6.555v0z"></path>
</svg>
