<!-- Generated by IcoMoon.io -->
<svg version="1.1" xmlns="http://www.w3.org/2000/svg" width="32" height="32" viewBox="0 0 32 32">
<title>home</title>
<path fill="#444" d="M16.34 2.464c-0.188-0.168-0.482-0.168-0.67 0l-15.11 13.527v1.338c0 0.274 0.222 0.473 0.496 0.473h2.891c0.274 0 0.473 0.244 0.473 0.518v10.872c0 0.274 0.245 0.512 0.518 0.512h7.205c0.274 0 0.533-0.238 0.533-0.512v-8.068c0-0.274 0.185-0.534 0.459-0.534h5.803c0.274 0 0.494 0.261 0.494 0.534v8.564l0.055 0.005 7.623-0.004c0.274-0 0.471-0.222 0.471-0.496v-11.358l3.323-0.009c0.273-0.001 0.537-0.223 0.537-0.496v-1.394l-15.101-13.473z"></path>
</svg>
