<!-- Generated by IcoMoon.io -->
<svg version="1.1" xmlns="http://www.w3.org/2000/svg" width="32" height="32" viewBox="0 0 32 32">
<title>important</title>
<path fill="#444" d="M16 2c-7.766 0-14 6.234-14 14s6.234 14 14 14 14-6.234 14-14-6.234-14-14-14zM18.12 24.067c0 0.552-0.447 1.003-1.003 1.003h-2.235c-0.553 0-1.003-0.447-1.003-1.003v-1.536c0-0.552 0.447-1.003 1.003-1.003h2.235c0.552 0 1.003 0.447 1.003 1.003v1.536zM18.12 17.616c0 0.552-0.447 1.003-1.003 1.003h-2.235c-0.553 0-1.003-0.447-1.003-1.003v-9.746c0-0.553 0.447-1.003 1.003-1.003h2.235c0.552 0 1.003 0.447 1.003 1.003v9.746z"></path>
</svg>
