<!-- Generated by IcoMoon.io -->
<svg version="1.1" xmlns="http://www.w3.org/2000/svg" width="32" height="32" viewBox="0 0 32 32">
<title>information</title>
<path fill="#444" d="M16 2c-7.766 0-14 6.234-14 14s6.234 14 14 14 14-6.234 14-14-6.234-14-14-14zM17.428 22.462c0 0.303-0.247 0.55-0.55 0.55h-1.756c-0.303 0-0.55-0.247-0.55-0.55v-7.359c0-0.303 0.247-0.55 0.55-0.55h1.756c0.303 0 0.55 0.247 0.55 0.55v7.359zM18.078 10.378c0 1.147-0.928 2.078-2.078 2.078v0c-1.147 0-2.078-0.928-2.078-2.078v0c0-1.147 0.928-2.078 2.078-2.078v0c1.147-0.003 2.078 0.931 2.078 2.078v0z"></path>
</svg>
