<!-- Generated by IcoMoon.io -->
<svg version="1.1" xmlns="http://www.w3.org/2000/svg" width="32" height="32" viewBox="0 0 32 32">
<title>kids-circle</title>
<path fill="#444" d="M16 2c-7.767 0-14 6.233-14 14s6.233 14 14 14 14-6.233 14-14-6.233-14-14-14zM15.954 26.461c-5.677 0-10.296-4.619-10.296-10.295 0-0.003 0-0.007 0-0.011 0-1.457 0.304-2.844 0.853-4.098-0.767-0.327-1.384-0.703-1.977-1.111-0.145-0.098-0.221-0.395-0.080-0.606s0.406-0.281 0.619-0.14c0.504 0.351 1.096 0.715 1.707 1.046 1.843-3.178 5.256-5.377 9.174-5.377 0.004 0 0.008 0 0.012 0 1.707 0 3.316 0.418 4.731 1.157-0.163-0.314-0.263-0.601-0.363-0.889-0.158-0.453-0.318-0.907-0.498-1.36-0.028-0.058-0.045-0.126-0.045-0.198 0-0.254 0.206-0.459 0.459-0.459 0.202 0 0.374 0.13 0.435 0.312 0.188 0.469 0.351 0.935 0.514 1.401 0.122 0.351 0.246 0.702 0.379 1.053 0.326-0.094 0.659-0.191 0.992-0.285 0.48-0.137 0.962-0.275 1.419-0.412 0.038-0.012 0.084-0.018 0.13-0.018 0.254 0 0.459 0.206 0.459 0.459 0 0.206-0.136 0.381-0.322 0.438-0.465 0.14-0.949 0.277-1.434 0.417-0.315 0.090-0.63 0.18-0.937 0.27 2.639 1.866 4.364 4.941 4.364 8.411 0 5.676-4.618 10.295-10.296 10.295zM19.985 12.435c-2.037 0.979-4.147 1.473-6.29 1.473q-0.36 0-0.718-0.018c-2.072-0.095-4.006-0.589-5.758-1.404-0.371 1.11-0.641 2.359-0.641 3.67 0 0.003 0 0.007 0 0.011 0 5.169 4.207 9.375 9.377 9.375 4.25 0 7.849-2.844 8.995-6.726-4.93-2.65-5.009-5.714-4.964-6.379zM18.621 16.165c0 0 0 0 0 0 0.508 0 0.92 0.411 0.92 0.92s-0.411 0.92-0.92 0.92c-0.508 0-0.92-0.411-0.92-0.92 0 0 0 0 0 0 0-0.508 0.411-0.92 0.92-0.92zM13.562 14.418c0.508 0 0.92 0.411 0.92 0.92s-0.411 0.92-0.92 0.92c-0.508 0-0.92-0.411-0.92-0.92s0.411-0.92 0.92-0.92c0 0 0 0 0 0zM21.452 19.863c-1.357 1.598-3.37 2.494-5.469 2.494-0.496 0-0.981-0.049-1.449-0.142-2.607-0.582-4.78-2.829-5.372-5.588-0.006-0.029-0.010-0.062-0.010-0.095 0-0.221 0.154-0.404 0.361-0.45 0.030-0.006 0.061-0.010 0.094-0.010 0.221 0 0.406 0.154 0.454 0.361 0.517 2.415 2.409 4.378 4.707 4.889 2.24 0.43 4.54-0.356 5.985-2.056 0.085-0.102 0.212-0.165 0.354-0.165 0.254 0 0.459 0.206 0.459 0.459 0 0.116-0.043 0.221-0.114 0.303z"></path>
</svg>
