<!-- Generated by IcoMoon.io -->
<svg version="1.1" xmlns="http://www.w3.org/2000/svg" width="32" height="32" viewBox="0 0 32 32">
<title>language</title>
<path fill="#444" d="M13.871 5.805c-0.111 0.166-0.111-0.111-0.219-0.035l-0.046 0.022c-0.178 0.234-0.622 0.29-0.566 0.678 0.388-0.055 0.61-0.333 0.831-0.665zM14.037 5.639c0 0.042-0.032 0.117-0.072 0.174 0.057-0.040 0.127 0.004 0.127 0.048 0 0.222-0.333 0.057-0.333 0.278 0.055 0 0.111 0.003 0.055 0.058s-0.166 0.008-0.222 0.116h0.222c-0.028 0-0.125 0.092-0.208 0.12s-0.152 0.063-0.125 0.201c0.069-0.054 0.145-0.088 0.225-0.112 0.239-0.070 0.509-0.039 0.717-0.164-0.055 0-0.055-0.055-0.111-0.055 0.111-0.055 0.222-0.111 0.166-0.277-0.055 0-0.055 0.055-0.111 0.055 0.111-0.222-0.111-0.499 0.109-0.644l0.046-0.073c-0.044-0.004-0.155-0.004-0.21-0.004 0.055-0.055 0.111-0.055 0.166-0.111-0.277 0-0.388 0.277-0.61 0.388 0.055 0.111 0.166-0.055 0.166 0zM26.454 15.001l-0.008 0.164 0.029 0.154 0.012 0.18-0.010 0.185 0.019 0.13 0.059 0.005 0.037-0.17-0.018-0.342 0.034-0.098 0.039 0.102 0.026 0.133 0.068 0.071 0.069-0.080 0.003-0.199-0.072-0.226-0.003-0.073 0.027-0.079 0.082-0.164-0.007-0.099-0.076 0.048-0.076 0.084-0.067-0.049-0.022-0.171 0.051-0.159 0.090-0.019 0.088 0.022 0.080-0.029 0.049-0.094 0.036-0.128-0.026-0.036c-0.104 0.036-0.245 0.076-0.351 0.109l-0.070 0.102-0.026 0.163 0.001 0.182-0.025 0.197-0.044 0.183zM26.076 15.262l0.119-0.088 0.050-0.222c0-0.057-0-0.114-0.001-0.171l0.018-0.074 0.056-0.151 0.021-0.097 0.021-0.197 0.063-0.114 0.047-0.126-0.025-0.105-0.106-0.179-0.052-0.117 0.029-0.21 0.067-0.185-0.040-0.149-0.271-0.22-0.091 0.105-0.027 0.315-0.015 0.033c0.065 0.639 0.091 1.285 0.080 1.928l0.058 0.025zM23.641 18.808l-0.090-0.195-0.194-0.020-0.124 0.080-0.061 0.126-0.512 0.646-0.544 0.305-0.084 0.098-0.062 0.112-0.030 0.11 0.033 0.715-0.262 0.663-0.024 0.115-0.020 0.236 0.018 0.099 0.204 0.231 0.302 0.050 0.312-0.227 0.168-0.523 0.668-1.388 0.197-0.858 0.049-0.1 0.035-0.105 0.009 0.012c0.007-0.060 0.013-0.119 0.020-0.179l-0.010 0.033 0.001-0.035zM17.811 8.967l0.201-0.003c-0.040-0.166-0.428-0.277-0.428-0.055-0.055 0.055 0.111 0.055 0.227 0.058zM17.613 4.478l0.027-0h-0.027zM19.005 9.087l0.054 0.008c0.133-0.075 0.3 0.091 0.355-0.131-0.166 0-0.277-0.055-0.443 0 0 0 0 0.111 0.035 0.123zM15.818 8.591l0.034 0.056 0.066 0.021 0.060 0.001c0.14-0.374-0.185-0.374-0.445-0.421l-0.131 0.028 0.022 0.099 0.394 0.216zM15.23 7.863c-0.284-0.142-0.284 0.142-0.319 0.383l0.090 0.093c0.229-0.049 0.371-0.334 0.229-0.476zM17.608 4.479l-0.049 0.008 0.036-0.009h0.018l0.015-0.012 0.007-0.005c0.001-0 0.003-0.001 0.004-0.001l0.033-0.017c-0.028 0.012-0.061 0.018-0.087 0.032-0.049 0.012-0.097 0.025-0.146 0.047-0.023 0.005-0.048 0.009-0.076 0.009 0.097 0.032 0.175-0.010 0.246-0.052zM26.627 11.648l0.078 0.337 0.031 0.038 0.017-0.026-0.015-0.079-0.024-0.087-0.017-0.086 0.002-0.068-0.006-0.046-0.012-0.049-0.040-0.070-0.035-0.019-0.031-0.001-0.013 0.048 0.029 0.059zM26.466 11.633l-0.026 0.039-0 0.047 0.029 0.148 0.037 0.022 0.033-0.018 0.018-0.008 0.008-0.032-0.009-0.052-0.013-0.053-0.036-0.070zM25.901 10.442l0.036 0.192 0.053 0.197 0.104 0.199 0.080 0.21 0.013 0.195 0.036 0.119 0.056 0.086 0.032-0.015-0.011-0.192 0.013-0.083 0.085 0.012 0.093 0.067 0.035-0.106-0.069-0.169-0.101 0.003-0.119-0.092-0.079-0.227-0.045-0.287-0.098-0.209-0.117-0.131-0.040-0.009-0.014 0.046 0.025 0.096zM26.793 12.359l-0.126-0.043-0.051 0.083-0.003 0.178 0.007 0.063 0.026 0.016 0.058-0.046 0.060-0.016 0.029 0.049 0.052 0.165 0.102 0.192 0.055 0.006-0.057-0.305 0.025 0.001 0.029 0.029 0.020-0.011-0.002-0.069-0.035-0.172-0.106-0.345-0.054-0.038 0.005 0.1 0.011 0.106-0.014 0.051zM29.483 12.881c-1.778-6.587-6.814-10.851-13.383-10.851-7.563 0-13.694 6.162-13.694 13.764 0 2.6 0.718 5.033 1.965 7.107l-2.367 7.071 7.476-2.126c1.963 1.091 4.218 1.713 6.619 1.713 6.569 0 12.022-4.656 13.383-10.851 0.514-2.338 0.379-4.42 0-5.825zM16.088 27.557c-2.477 0-4.773-0.772-6.661-2.089l-0.003-0.010 0.019-0.004 0.021-0.002-0.033-0.031-0.077-0.047-0.063-0.027c-0.009-0.003-0.039-0.015-0.077-0.032-0.62-0.453-1.193-0.965-1.712-1.529l-0.026-0.038c-0.022-0.028-0.058-0.065-0.080-0.081l-0.006-0.004c-0.063-0.070-0.125-0.141-0.186-0.213 0.030-0.006 0.044-0.027 0.032-0.056-0.015-0.035-0.065-0.108-0.111-0.162 0.051-0.019 0.167-0.020 0.225-0.131 0.059-0.333-0.115-0.554-0.231-0.831 0.058-0 0.116 0.055 0.174 0.111 0.102-0.167 0.153-0.336 0.174-0.509 0.011-0.086 0.014-0.173 0.012-0.26-0.009-0.506-0.415-0.949-0.298-1.393 0.175-0.666 0.525-1.276 0.654-1.974 0.031-0.064 0.066-0.127 0.101-0.19 0.070-0.126 0.138-0.253 0.157-0.396 0.023-0.088 0.034-0.24 0.024-0.338s-0.031-0.213-0.046-0.256c-0.015-0.043-0.048-0.106-0.073-0.141s-0.181-0.153-0.348-0.262-0.304-0.199-0.306-0.199l-0.003-0.007-0.016-0.027-0.025-0.044-0.021-0.026h-0.022l-0.024-0.002-0.024-0.013-0.055-0.018-0.061-0.023-0.028-0.016-0.021 0.002c-0.006 0.001-0.090 0.001-0.187-0.001s-0.184 0.001-0.193 0.007c-0.009 0.006-0.019 0.032-0.021 0.058s-0.011 0.052-0.021 0.058l-0.036 0.011-0.029-0.019c0.052-0.284-0.179-0.616-0.47-0.505 0 0-0 0.111-0 0.166-0.232-0.055 0.058-0.277-0.115-0.332-0.232-0.055-0.116 0.222-0.291 0.278 0.233-0.499 0.176-0.943-0.114-1.386-0.173-0.388-0.637-0.553-0.647-1.065-0.019-0.060-0.047-0.119-0.061-0.132s-0.050 0.001-0.080 0.031-0.062 0.054-0.070 0.054l-0.016-0.037c0-0.020 0.010-0.095 0.023-0.168l0.007-0.048c1.194-5.174 5.83-9.031 11.367-9.031 0.611 0 1.212 0.047 1.798 0.138-0.060 0.015-0.112 0.040-0.168 0.061l0.033-0.007c-0.036 0.018-0.072 0.030-0.107 0.040 0.072-0.017 0.145-0.033 0.218-0.047 0.056 0 0.113 0.007 0.162 0.007-0.045 0.025-0.089 0.033-0.134 0.056-0.083 0.028-0.138 0.111-0.249 0.111h0.166c-0.055 0.108-0.055 0.108-0.111 0.108h0.055c-0.166 0.108-0.277 0.084-0.443 0.084 0.055-0.111 0.222 0.029 0.333-0.082-0.499 0-0.942 0.111-1.434 0.24-0.074 0.026-0.146 0.055-0.218 0.087-0.086 0.038-0.171 0.080-0.253 0.125-0.2 0.102-0.533 0.268-0.422 0.379s0.222 0.139 0.333 0.18c0.055 0.021 0.111 0.045 0.166 0.085 0.056 0.068 0.111 0.123 0.167 0.178 0.333 0.055 0.61-0.333 0.333-0.61 0.083-0.055 0.152-0.139 0.229-0.215s0.159-0.146 0.27-0.173c-0.166 0.055-0.166 0.277-0.111 0.333 0.111 0.083 0.236 0.028 0.367-0.035s0.27-0.132 0.409-0.076c-0.042 0.042-0.114 0.069-0.196 0.094s-0.171 0.045-0.247 0.073c-0.166 0-0.221 0.222-0.11 0.333-0.055-0.055-0.165-0.055-0.22-0.055-0.055 0.554-0.718 0.61-1.106 0.388 0.055 0 0.172 0.055 0.228-0.055 0-0.111-0.154-0.111-0.154-0.055 0-0.055 0-0.166 0-0.166-0.324-0.055-0.234 0.222-0.234 0.388-0.055 0-0.178-0.055-0.234-0.055-0.462 0.323-0.885 0.493-1.366 0.668-0.096 0.035-0.195 0.070-0.296 0.104 0.277 0.114 0.277 0.613 0 0.558-0.721-0.222-1.552-0.388-1.663 0.499 0 0.111-0.166 0.277-0.055 0.388 0.443 0.333 1.053 0.333 1.552 0.111 0.166-0.055 0.277-0.333 0.476-0.387 0.084-0.036 0.169-0.073 0.244-0.125s0.142-0.121 0.189-0.22c0.095-0.079 0.202-0.12 0.316-0.145s0.237-0.032 0.365-0.042c0.085-0.007 0.173-0.015 0.263-0.031 0.363 0.34 0.972 0.753 1.194 1.252 0.055-0.166 0.214-0.391 0.436-0.17-0.222-0.388-1.045-0.742-1.1-1.296 0.554 0.388 1.109 0.665 1.497 1.33 0.055 0.055 0.222 0.111 0.333 0.055 0.166-0.111 0.125-0.194 0.069-0.277s-0.125-0.166-0.014-0.277c0.055-0.111 0.097-0.083 0.143-0.012 0.356 0.788 1.409 0.4 1.797 0.733 0.554 0.443-0.333 0.998-0.998 0.887-0.388-0.111-0.721-0.166-1.030-0.283-0.069-0.019-0.135-0.037-0.198-0.054-0.077-0.007-0.178 0.006-0.223 0.027s-0.095 0.078-0.11 0.126c-0.015 0.048-0.027 0.114-0.026 0.146s-0.031 0.079-0.070 0.104c-0.040 0.025-0.147 0.008-0.237-0.039s-0.185-0.090-0.211-0.097c-0.025-0.007-0.135-0.059-0.243-0.115-0.054-0.028-0.128-0.058-0.205-0.084-0.386-0.008-0.829-0.285-0.607-0.729-0.36-0.139-0.748-0.166-1.129-0.118-0.095 0.012-0.19 0.029-0.285 0.049-0.526 0.179-1.025 0.179-1.579 0.179-0.388 0-0.665 0.443-0.841 0.797-0.042 0.062-0.087 0.121-0.135 0.177-0.192 0.224-0.425 0.405-0.678 0.503-0.105 0.053-0.202 0.112-0.292 0.178-0.713 0.526-0.932 1.445-1.138 2.319-0.020 0.031-0.046 0.081-0.058 0.111s-0.016 0.102-0.009 0.16c0.007 0.058 0.004 0.155-0.007 0.216s-0.021 0.135-0.021 0.164c-0.001 0.030 0.011 0.068 0.027 0.084l0.071 0.034c0.078 0.075 0.14 0.159 0.193 0.248s0.096 0.181 0.136 0.273c0.427 1.443 2.035 1.332 3.169 0.881 0.093-0.020 0.185-0.039 0.274-0.058s0.174-0.037 0.255-0.054c0.195 0.026 0.36 0.066 0.366 0.089l0.029 0.068 0.042 0.046 0.040 0.048 0.028 0.057c0.007 0.016 0.036 0.047 0.066 0.069s0.175 0.037 0.322 0.034c0.215-0.014 0.326 0.097 0.437 0.263 0.222 0.499-0.166 1.053 0.307 1.425 0.022 0.020 0.069 0.082 0.127 0.165s0.127 0.188 0.192 0.293c0.131 0.212 0.258 0.523 0.282 0.692s0.070 0.351 0.102 0.406c0.033 0.054 0.043 0.189 0.024 0.299-0.010 0.055-0.031 0.127-0.059 0.199-0.254 0.346-0.421 0.79-0.365 1.178 0.222 0.665 0.665 1.275 0.801 1.97 0 0 0 0 0 0.075 0.019 0.059 0.054 0.125 0.079 0.145l0.060 0.059 0.037 0.041 0.031 0.023c0.005 0.003 0.039 0.065 0.076 0.138s0.104 0.18 0.151 0.238 0.102 0.167 0.122 0.243c0.020 0.076 0.027 0.152 0.015 0.17l-0.029 0.071c-0.004 0.021-0 0.061 0.009 0.087s0.050 0.087 0.091 0.134c0.041 0.047 0.097 0.102 0.124 0.122s0.114 0.040 0.192 0.043c0.078 0.004 0.166 0 0.194-0.008s0.070-0.031 0.093-0.052c0.023-0.021 0.059-0.061 0.080-0.089s0.285-0.059 0.586-0.069c0.27-0.13 0.63-0.304 0.9-0.434 0.151-0.155 0.298-0.331 0.326-0.39s0.129-0.163 0.224-0.231c0.095-0.068 0.189-0.209 0.207-0.313s0.065-0.222 0.102-0.264c0.129-0.158 0.407-0.158 0.407-0.324 0.111-0.61 0.333-1.109 0.74-1.627 0.052-0.087 0.103-0.175 0.15-0.264 0.285-0.535 0.467-1.115 0.425-1.715-0.023-0.069-0.045-0.135-0.063-0.201-0.32-1.178 0.645-1.901 1.763-2.387 0.028-0.069 0.057-0.143 0.086-0.219 0.087-0.229 0.178-0.483 0.263-0.726 0.028-0.081 0.056-0.161 0.083-0.238 0.154-0.161 0.099-0.383 0.099-0.549-0.333 0.166-0.665 0.111-0.984 0.172-0.075 0.006-0.147 0.012-0.213 0.018-0.055-0.014-0.119-0.038-0.142-0.052s-0.184-0.104-0.351-0.18c-0.152-0.069-0.182-0.152-0.291-0.222-0.055-0.035-0.144-0.251-0.208-0.305s-0.166-0.202-0.208-0.249c-0.201-0.274-0.374-0.513-0.54-0.845-0.222-0.333-0.499-0.665-0.688-1.060-0.053-0.072-0.108-0.142-0.165-0.212s-0.114-0.137-0.173-0.203c-0.138-0.132-0.193-0.188-0.291-0.302-0.040-0.033-0.024-0.082 0.035-0.108 0.34-0.166 0.229 0.333 0.505 0.306 0.063 0.062 0.124 0.126 0.185 0.19s0.12 0.13 0.178 0.197c0.078 0.089 0.154 0.179 0.229 0.27 0.297 0.367 0.574 0.755 0.865 1.139 0.035 0.039 0.082 0.108 0.127 0.189s0.091 0.173 0.126 0.257c0.176 0.999 1.285 0.5 1.895 0.279 0.333-0.166 0.721-0.333 0.776-0.721 0.166-0.776-0.443-1.219-0.942-1.663-0.055 0.443-0.554 0.443-0.714 0.111-0.048-0.056-0.089-0.111-0.117-0.166 0 0.055-0.055 0.111-0.055 0.166-0.111-0.277-0.333-0.554-0.499-0.776 0.277 0 0.499 0.166 0.799 0.297 0.092 0.041 0.183 0.082 0.275 0.123 0.551 0.245 1.109 0.478 1.808 0.411 0.139-0.028 0.222 0.083 0.27 0.242 0.024 0.080 0.040 0.171 0.049 0.264s0.014 0.186 0.016 0.268c0.062-0.087 0.118-0.178 0.168-0.272s0.090-0.191 0.125-0.29c0.193-0.556 0.164-1.183 0.003-1.773 1.363 1.909 2.165 4.246 2.165 6.77 0 6.442-5.222 11.664-11.664 11.664zM27.111 14.295l0.009 0.133 0.015 0.034 0.016-0.012 0.006-0.063-0.004-0.071-0.002-0.133 0.027-0.077 0.032-0.044 0.012-0.11-0.055-0.168-0.017-0.143-0.025-0.098-0.022 0.047-0.007 0.14-0.001 0.149 0.015 0.276zM26.813 16.462l-0.067 0.107-0.032 0.168 0.040 0.093 0.067-0.047 0.126-0.213 0.256-0.323-0.137-0.001-0.12 0.067zM26.877 16.141l-0.061 0.002-0.188 0.103-0.126-0.027-0.059 0.065-0.024 0.124 0.049 0.060 0.198-0.053 0.229-0.204zM27.308 14.695l0.007 0.009 0.006 0.015 0.007 0.011 0.014 0.011 0.006 0.014 0.006 0.031 0.007 0.025 0.060-0.002 0.009 0.017-0.007 0.061-0.013 0.045-0.024 0.004-0.010 0.023 0 0.079 0.001 0.026 0.003 0.025 0.001 0.029-0.003 0.107 0.001 0.047 0.009 0.008 0.012-0.022 0.012-0.103 0.011-0.033 0.011-0.018 0.011-0.002 0.010 0.014 0.004 0.050 0.002 0.082-0.001 0.033 0.052 0.018 0.007 0.043 0.005 0.005 0.002 0.020 0.001 0.018 0.002 0.011 0.005-0.001 0 0.034 0.002 0.023-0.019 0.221-0.011 0.142-0.008 0.075-0.005 0.037-0.004 0.034 0.001 0.013-0.003 0.029-0.016 0.019-0.010 0.022-0.013 0.066-0.014 0.13 0.003 0.054 0.007-0.012 0.012-0.063 0.009-0.037 0.003 0.004 0 0.039-0.021 0.137-0.008 0.056-0.002 0.021 0.004-0.019c0.097-0.529 0.157-1.063 0.18-1.6l-0.025-0.25-0.019 0.016-0.020 0.145-0.021 0.174-0.025 0.078-0.021-0.066-0.007-0.176 0.008-0.201 0.003 0-0.022-0.146-0.035-0.076-0.018 0.005-0.037 0.049-0.084-0.009-0.021 0.016-0.010 0.073 0.009 0.076 0.032 0.165zM26.5 15.995l-0.245 0.007-0.121-0.016-0.085 0.099 0.088 0.132 0.187 0.023 0.060-0.026 0.11-0.147z"></path>
</svg>
