<!-- Generated by IcoMoon.io -->
<svg version="1.1" xmlns="http://www.w3.org/2000/svg" width="32" height="32" viewBox="0 0 32 32">
<title>late</title>
<path fill="#444" d="M8.578 19.472c-0.162 0.097-0.206 0.309-0.109 0.472l0.8 1.294c0.097 0.159 0.319 0.209 0.475 0.116l6.319-3.766c0.103-0.063 0.225-0.172 0.225-0.294v-6.816c0-0.197-0.191-0.356-0.387-0.356l-1.434 0.012c-0.041 0-0.056 0.006-0.116 0.012 0 0-0.213 0.047-0.213 0.488v5.366c0 0.119-0.122 0.231-0.225 0.294l-5.334 3.178zM31.859 29.972l-7.975-13.672c-0.397-0.678-1.375-0.678-1.772 0l-7.975 13.672c-0.4 0.684 0.094 1.541 0.884 1.541h15.95c0.794 0 1.284-0.856 0.887-1.541v0zM24.063 29.15c0 0.278-0.225 0.503-0.503 0.503h-1.122c-0.278 0-0.503-0.225-0.503-0.503v-0.772c0-0.278 0.225-0.503 0.503-0.503h1.122c0.278 0 0.503 0.225 0.503 0.503v0.772zM24.063 25.913c0 0.278-0.225 0.503-0.503 0.503h-1.122c-0.278 0-0.503-0.225-0.503-0.503v-4.894c0-0.278 0.225-0.503 0.503-0.503h1.122c0.278 0 0.503 0.225 0.503 0.503v4.894zM14.684 26.637c0 0-0.063 0-0.063 0-5.953 0-10.781-4.856-10.781-10.847s4.828-10.847 10.781-10.847 10.781 4.856 10.781 10.847v0.053c0 0.137 0.034 0.269 0.103 0.388l2.044 3.525c0.038 0.063 0.131 0.050 0.15-0.019 0.372-1.247 0.572-2.569 0.572-3.938 0-7.578-6.106-13.719-13.634-13.719-7.531 0-13.634 6.144-13.634 13.719 0 6.972 5.169 12.728 11.859 13.603 0.153 0.019 0.303-0.056 0.378-0.191l1.444-2.575z"></path>
</svg>
