<!-- Generated by IcoMoon.io -->
<svg version="1.1" xmlns="http://www.w3.org/2000/svg" width="32" height="32" viewBox="0 0 32 32">
<title>leisure-circle</title>
<path fill="#444" d="M16 2c-7.767 0-14 6.233-14 14s6.233 14 14 14 14-6.233 14-14-6.233-14-14-14zM16.743 6.145c0.949 0 1.718 0.769 1.718 1.718s-0.769 1.719-1.718 1.719c-0.949 0-1.719-0.769-1.719-1.718s0.769-1.718 1.719-1.718zM23.153 25.531s-0.157 0.391-0.86 0.312c-0.235 0-0.469 0-0.86-0.157-0.547-0.157-0.937-0.547-1.094-0.703v0c-0.031-0.023-0.057-0.049-0.079-0.078l-5.239-7.036c-0.011-0.016-0.023-0.034-0.032-0.052-0.108 0.033-0.23 0.053-0.357 0.053-0.647 0-1.172-0.525-1.173-1.172v-2.397l-2.136 2.135c-0.244 0.245-0.553 0.425-0.899 0.513l-0.013 7.331c0 0.011 0.001 0.024 0.001 0.038 0 0.648-0.525 1.172-1.172 1.172s-1.172-0.525-1.172-1.172c0-0.013 0-0.027 0.001-0.040v-8.675c-0.050-0.165-0.079-0.353-0.079-0.548 0-0.54 0.219-1.028 0.573-1.382l3.908-3.909c0.354-0.354 0.842-0.572 1.382-0.572 1.079 0 1.954 0.875 1.954 1.954 0 0.062-0.003 0.124-0.009 0.185 0.005 0.033 0.009 0.081 0.009 0.128v5.238c0 0.001 0 0.002 0 0.003 0 0.243-0.074 0.47-0.202 0.657 0.018 0.011 0.033 0.027 0.046 0.045l5.204 6.989 0.033-0.033 1.798-0.312s0.625-0.235 0.625 0.547c0-0.001 0.079 0.547-0.156 0.937zM23.153 23.813c-0.475 0-0.86-0.385-0.86-0.86s0.385-0.86 0.86-0.86c0.475 0 0.86 0.385 0.86 0.86s-0.385 0.86-0.86 0.86z"></path>
</svg>
