<!-- Generated by IcoMoon.io -->
<svg version="1.1" xmlns="http://www.w3.org/2000/svg" width="32" height="32" viewBox="0 0 32 32">
<title>letter-credit</title>
<path fill="#444" d="M26.267 7.299l-4.792-5.25c-0.029-0.031-0.069-0.049-0.112-0.049h-13.84c-1.011 0-1.83 0.819-1.83 1.83v24.435c0 0.945 0.735 1.735 1.678 1.735h17.069c1.027 0 1.867-0.84 1.867-1.867v-20.731c0-0.038-0.014-0.074-0.040-0.102zM8.67 9.758c0-0.084 0.068-0.152 0.152-0.152h1.461c0.084 0 0.152 0.068 0.152 0.152v8.846c0 0.084 0.068 0.152 0.152 0.152h4.547c0.084 0 0.152 0.068 0.152 0.152v1.020c0 0.084-0.068 0.152-0.152 0.152h-6.311c-0.084 0-0.152-0.068-0.152-0.152v-10.169zM16.717 27.533c0 0.084-0.068 0.152-0.152 0.152h-7.854c-0.084 0-0.152-0.068-0.152-0.152v-1.13c0-0.084 0.068-0.152 0.152-0.152h7.854c0.084 0 0.152 0.068 0.152 0.152v1.13zM19.362 23.895c0 0.084-0.068 0.152-0.152 0.152h-10.5c-0.084 0-0.152-0.068-0.152-0.152v-1.13c0-0.084 0.068-0.152 0.152-0.152h10.5c0.084 0 0.152 0.068 0.152 0.152v1.13zM18.374 18.008c0.432 0.569 1.033 0.86 1.767 0.86 0.729 0 1.282-0.184 1.659-0.574 0.35-0.362 0.537-0.888 0.562-1.49 0.003-0.080 0.071-0.142 0.151-0.142h1.547l0.012 0.022c0.019 1.068-0.33 1.914-1.042 2.583s-1.682 1.003-2.899 1.003c-1.232 0-2.242-0.414-3.013-1.243s-1.175-1.888-1.175-3.177v-2.007c0-1.285 0.399-2.341 1.16-3.174s1.769-1.247 2.986-1.247c1.246 0 2.228 0.334 2.945 0.988s1.066 1.548 1.047 2.654l-0.015 0.069h-1.554c-0.081 0-0.149-0.063-0.151-0.144-0.023-0.693-0.218-1.17-0.578-1.541-0.384-0.396-0.955-0.62-1.703-0.62-0.72 0-1.3 0.285-1.722 0.854s-0.651 1.284-0.651 2.143v2.020c0 0.869 0.234 1.593 0.666 2.163zM24.45 7.805l-2.953-0.030c-0.083-0.001-0.15-0.068-0.15-0.152v-3.082c0-0.137 0.167-0.204 0.261-0.104l2.953 3.112c0.092 0.097 0.022 0.257-0.111 0.256z"></path>
</svg>
