<!-- Generated by IcoMoon.io -->
<svg version="1.1" xmlns="http://www.w3.org/2000/svg" width="32" height="32" viewBox="0 0 32 32">
<title>link</title>
<path fill="#444" d="M25.131 8.695l-1.826-1.826c-1.512-1.513-3.965-1.513-5.478 0l-2.717 2.718c-0.13 0.13-0.043 0.355 0.141 0.361 0.799 0.024 1.59 0.231 2.31 0.626 0.082 0.045 0.184 0.030 0.25-0.036l1.842-1.842c0.503-0.503 1.323-0.503 1.826 0l1.826 1.826c0.503 0.504 0.503 1.323 0 1.827l-5.478 5.478c-0.503 0.505-1.322 0.503-1.826 0l-1.677-1.676c-0.083-0.083-0.216-0.083-0.299 0l-1.527 1.527c-0.083 0.083-0.083 0.216-0 0.299l1.677 1.677c1.513 1.514 3.965 1.514 5.478 0l5.479-5.478c1.513-1.513 1.513-3.966 0-5.479zM16.751 22.052c-0.799-0.024-1.59-0.232-2.312-0.626-0.082-0.045-0.183-0.029-0.249 0.037l-1.841 1.841c-0.504 0.505-1.323 0.503-1.826 0l-1.826-1.826c-0.504-0.503-0.504-1.322 0-1.826l5.478-5.478c0.503-0.503 1.323-0.503 1.826 0l1.677 1.677c0.083 0.083 0.216 0.083 0.299 0l1.527-1.527c0.083-0.083 0.083-0.216 0-0.299l-1.676-1.677c-1.513-1.513-3.965-1.513-5.479 0l-5.478 5.478c-1.513 1.514-1.513 3.967 0 5.479l1.826 1.826c1.512 1.513 3.965 1.513 5.478 0l2.717-2.718c0.13-0.13 0.044-0.355-0.14-0.361z"></path>
</svg>
