<!-- Generated by IcoMoon.io -->
<svg version="1.1" xmlns="http://www.w3.org/2000/svg" width="32" height="32" viewBox="0 0 32 32">
<title>list</title>
<path fill="#444" d="M8.247 7.648c0 1.445-1.175 2.62-2.623 2.62s-2.623-1.175-2.623-2.62 1.175-2.62 2.623-2.62 2.623 1.175 2.623 2.62zM8.247 16c0 1.445-1.175 2.62-2.623 2.62s-2.623-1.171-2.623-2.62 1.175-2.62 2.623-2.62 2.623 1.175 2.623 2.62zM8.247 24.352c0 1.445-1.175 2.62-2.623 2.62s-2.623-1.171-2.623-2.62 1.175-2.62 2.623-2.62 2.623 1.175 2.623 2.62zM28.608 17.566h-16.965c-0.215 0-0.392-0.176-0.392-0.392v-2.349c0-0.215 0.176-0.392 0.392-0.392h16.965c0.215 0 0.392 0.176 0.392 0.392v2.349c0 0.215-0.176 0.392-0.392 0.392zM28.608 9.224h-16.965c-0.215 0-0.392-0.176-0.392-0.392v-2.349c0-0.215 0.176-0.391 0.392-0.391h16.965c0.215 0 0.392 0.176 0.392 0.391v2.349c0 0.215-0.176 0.392-0.392 0.392zM28.608 25.908h-16.965c-0.215 0-0.392-0.176-0.392-0.392v-2.349c0-0.215 0.176-0.392 0.392-0.392h16.965c0.215 0 0.392 0.176 0.392 0.392v2.349c0 0.215-0.176 0.392-0.392 0.392z"></path>
</svg>
