<!-- Generated by IcoMoon.io -->
<svg version="1.1" xmlns="http://www.w3.org/2000/svg" width="32" height="32" viewBox="0 0 32 32">
<title>loan</title>
<path fill="#444" d="M21.95 12.071c-0.28 0.289-0.51 0.674-0.667 1.059h-10.797c-0.167-0.385-0.411-0.77-0.705-1.059h-1.045c-0.445 0-0.887-0.096-1.27-0.289h-0.302v0.995c0 0.47 0.299 1.011 0.559 1.226 0.207 0.171 0.625 0.377 1.013 0.377h14.31c0.886 0 1.537-0.757 1.537-1.603v-1.311c-0.385 0.368-0.917 0.604-1.537 0.604h-1.097zM23.047 2.063h-14.31c-0.886 0-1.572 0.709-1.572 1.555v6.136c0 0.47 0.299 0.984 0.559 1.2 0.207 0.171 0.625 0.348 1.013 0.348h14.31c0.886 0 1.537-0.701 1.537-1.547v-6.136c0-0.846-0.651-1.555-1.537-1.555zM23.525 7.933h-0.065c-0.941 0.385-1.786 1.155-2.176 2.31h-10.797c-0.402-1.155-1.301-1.853-2.167-2.19v-2.723c0.866-0.325 1.763-1.053 2.161-2.016h10.813c0.388 1.059 1.173 1.725 2.231 2.035v2.584zM15.968 3.974c-1.349 0-2.443 1.216-2.443 2.716s1.094 2.716 2.443 2.716c1.35 0 2.443-1.216 2.443-2.716s-1.094-2.716-2.443-2.716zM21.95 15.055c-0.28 0.289-0.51 0.77-0.667 1.155h-10.797c-0.167-0.385-0.411-0.866-0.705-1.155h-1.045c-0.445 0-0.887-0.192-1.27-0.385h-0.302v1.129c0 0.47 0.299 0.992 0.559 1.207 0.207 0.171 0.625 0.359 1.013 0.359h14.31c0.886 0 1.537-0.72 1.537-1.566v-1.311c-0.385 0.368-0.917 0.567-1.537 0.567h-1.097zM27.438 22.206c-1.939 1.069-4.606 2.058-7.266 2.474-2.367 0.371-6.819-0.523-6.819-1.579 0-0.4 3.905 0.986 6.267 0.356 1.811-0.483 1.554-2.175 0.569-2.398-0.979-0.222-6.718-2.322-9.169-2.394-1.155-0.034-4.005 0.401-5.385 0.625-0.473 0.077-3.626 1.020-3.655 1.471-0.137 2.099 2.449 5.441 2.302 7.683-0.003 0.047 0.063 0.684 0.589 0.236 0.576-0.491 1.384-1.035 2.132-0.865 1.173 0.266 11.317 2.122 12.716 1.797 2.002-0.465 7.668-3.819 8.755-4.862 1.684-1.616 0.375-3.323-1.036-2.545z"></path>
</svg>
