<!-- Generated by IcoMoon.io -->
<svg version="1.1" xmlns="http://www.w3.org/2000/svg" width="32" height="32" viewBox="0 0 32 32">
<title>locate-hollow</title>
<path fill="#444" d="M24.838 7.192l-5.955 13.133 0.029-3.886c0.014-1.892-1.516-3.444-3.408-3.459l-3.889-0.029 13.223-5.76zM28.080 3.1c-0.119 0-0.242 0.025-0.365 0.080l-24.153 10.51c-0.326 0.141-0.539 0.463-0.543 0.821-0.004 0.499 0.398 0.904 0.894 0.908l11.574 0.090c0.496 0.004 0.897 0.409 0.894 0.908l-0.090 11.574c-0.004 0.499 0.398 0.904 0.894 0.908 0.004 0 0.004 0 0.007 0 0.355 0 0.677-0.206 0.821-0.528l10.886-23.994c0.286-0.629-0.206-1.277-0.818-1.277v0z"></path>
</svg>
