<!-- Generated by IcoMoon.io -->
<svg version="1.1" xmlns="http://www.w3.org/2000/svg" width="32" height="32" viewBox="0 0 32 32">
<title>lock</title>
<path fill="#444" d="M24.72 11.423h-1.461v-2.579c0-3.664-3.137-6.548-7.259-6.548-4.113 0-7.259 2.885-7.259 6.548v2.579h-1.658c-1.623 0-2.858 1.219-2.858 2.658v13.097c0 1.439 1.236 2.527 2.858 2.527h17.636c1.615 0 3.056-1.088 3.056-2.527v-13.097c0-1.439-1.44-2.658-3.056-2.658zM17.667 21.277v3.48c0 0.71-0.608 1.29-1.317 1.29h-0.269c-0.71 0-1.317-0.581-1.317-1.29v-3.439c-0.86-0.491-1.48-1.439-1.48-2.529 0-1.594 1.309-2.886 2.902-2.886s2.892 1.292 2.892 2.886c0 1.060-0.551 1.987-1.411 2.488zM20.57 11.423h-9.141v-2.579c0-2.225 2.068-4.060 4.566-4.060 2.507 0 4.575 1.835 4.575 4.060v2.579z"></path>
</svg>
