<!-- Generated by IcoMoon.io -->
<svg version="1.1" xmlns="http://www.w3.org/2000/svg" width="32" height="32" viewBox="0 0 32 32">
<title>logout</title>
<path fill="#444" d="M28.893 15.286l-9.079-9.079c-0.211-0.211-0.462-0.317-0.751-0.317s-0.54 0.106-0.751 0.317c-0.211 0.211-0.317 0.462-0.317 0.751v4.806h-7.477c-0.289 0-0.54 0.106-0.751 0.317s-0.317 0.462-0.317 0.751v6.409c0 0.289 0.106 0.54 0.317 0.751s0.462 0.317 0.751 0.317h7.477v4.807c0 0.289 0.106 0.54 0.317 0.751s0.462 0.317 0.751 0.317 0.54-0.106 0.751-0.317l9.079-9.079c0.211-0.211 0.317-0.462 0.317-0.751s-0.106-0.54-0.317-0.751zM6.203 4.876h8.523c0.306 0 0.572-0.229 0.572-0.535v-1.771c0-0.306-0.266-0.572-0.572-0.572h-11.401c-0.306 0-0.535 0.266-0.535 0.572v26.897c0 0.306 0.229 0.535 0.535 0.535h11.401c0.306 0 0.572-0.229 0.572-0.535v-1.771c0-0.306-0.266-0.572-0.572-0.572h-8.523c-0.306 0-0.535-0.229-0.535-0.535v-21.141c0-0.306 0.229-0.572 0.535-0.572z"></path>
</svg>
