<!-- Generated by IcoMoon.io -->
<svg version="1.1" xmlns="http://www.w3.org/2000/svg" width="32" height="32" viewBox="0 0 32 32">
<title>mail-sent</title>
<path fill="#444" d="M31.875 22.691c0.166-0.119 0.166-0.238 0-0.359l-7.531-5.784c-0.222-0.178-0.553-0.059-0.553 0.178v2.803c0 0.119-0.166 0.238-0.331 0.238h-7.203c-0.166 0-0.331 0.119-0.331 0.238v5.012c0 0.119 0.166 0.238 0.331 0.238h7.2c0.166 0 0.331 0.119 0.331 0.238v2.803c0 0.238 0.331 0.297 0.553 0.178-0.109 0.066 7.534-5.781 7.534-5.781v0zM1.978 5.859v0l11.991 9.047 11.994-9.044c1.166-0.906 1.166-0.906-0.35-0.903h-23.281c-1.653-0.019-1.653-0.019-0.353 0.9zM14.363 20.006c0-0.566 0.275-1.087 0.756-1.434 0.331-0.238 0.734-0.369 1.141-0.369h5.969v-1.481c0-0.703 0.4-1.334 1.044-1.641 0.659-0.316 1.453-0.225 2.034 0.231l2.688 2.066v-9.531c0.028-1.322 0.028-1.322-1.166-0.491v0l-12.844 9.734-12.894-9.734c-1.113-0.813-1.113-0.813-1.113 0.491v15.728c0 0.278 0.253 0.506 0.563 0.506h13.825v-4.075z"></path>
</svg>
