<!-- Generated by IcoMoon.io -->
<svg version="1.1" xmlns="http://www.w3.org/2000/svg" width="32" height="32" viewBox="0 0 32 32">
<title>mail-replyall</title>
<path fill="#444" d="M28.985 11.49c-2.239-2.296-5.805-3.615-10.696-3.947v-4.679c0-0.5-0.231-0.851-0.694-1.051-0.488-0.2-0.907-0.119-1.251 0.25l-9.145 9.145c-0.225 0.225-0.338 0.494-0.338 0.807 0 0.306 0.113 0.575 0.338 0.801l9.138 9.138c0.213 0.225 0.482 0.338 0.807 0.338 0.144 0 0.294-0.031 0.444-0.088 0.463-0.2 0.694-0.55 0.694-1.051v-4.485c1.914 0.156 3.509 0.469 4.779 0.938s2.283 1.126 3.046 1.97c1.776 1.964 2.408 5.329 1.895 10.089-0.025 0.313 0.113 0.513 0.413 0.607 0.038 0.012 0.088 0.019 0.163 0.019 0.238 0 0.407-0.1 0.5-0.306l0.357-0.713c0.169-0.331 0.407-0.869 0.726-1.614 0.313-0.744 0.6-1.489 0.857-2.233s0.488-1.564 0.688-2.464c0.2-0.901 0.307-1.695 0.307-2.383-0.012-3.997-1.020-7.024-3.027-9.088zM4.003 12.009c0-0.313 0.113-0.575 0.338-0.807l7.087-7.106v-1.232c0-0.5-0.231-0.851-0.694-1.051-0.488-0.2-0.907-0.119-1.251 0.25l-9.145 9.145c-0.225 0.225-0.338 0.494-0.338 0.801s0.113 0.575 0.338 0.801l9.145 9.145c0.213 0.225 0.482 0.338 0.807 0.338 0.144 0 0.294-0.031 0.444-0.088 0.463-0.2 0.694-0.55 0.694-1.051v-1.251l-7.087-7.087c-0.225-0.231-0.338-0.494-0.338-0.807z"></path>
</svg>
