<!-- Generated by IcoMoon.io -->
<svg version="1.1" xmlns="http://www.w3.org/2000/svg" width="32" height="32" viewBox="0 0 32 32">
<title>mail-new</title>
<path fill="#444" d="M25.328 15.591c-3.669 0-6.672 3.019-6.672 6.703s3.006 6.706 6.672 6.706 6.672-3.019 6.672-6.703c0-3.688-3.003-6.706-6.672-6.706zM28.613 22.8c0 0.144-0.097 0.262-0.241 0.262h-2.144c-0.144 0-0.241 0.116-0.241 0.259v2.156c0 0.144-0.137 0.256-0.284 0.256h-0.813c-0.144 0-0.269-0.116-0.269-0.256v-2.156c0-0.144-0.113-0.259-0.256-0.259h-2.144c-0.144 0-0.275-0.122-0.275-0.262v-0.819c0-0.144 0.131-0.281 0.275-0.281h2.144c0.144 0 0.256-0.1 0.256-0.244v-2.156c0-0.144 0.125-0.275 0.269-0.275h0.813c0.144 0 0.284 0.131 0.284 0.275v2.156c0 0.144 0.097 0.244 0.241 0.244h2.144c0.144 0 0.241 0.137 0.241 0.281v0.819zM1.978 5.859v0l11.991 9.047 11.994-9.044c1.166-0.906 1.166-0.906-0.35-0.903h-23.281c-1.653-0.019-1.653-0.019-0.353 0.9zM16.809 22.378c0-4.678 3.794-8.469 8.469-8.469 0.95 0 1.863 0.156 2.712 0.444v-6.506c0.028-1.322 0.028-1.322-1.166-0.491v0l-12.844 9.734-12.891-9.734c-1.113-0.813-1.113-0.813-1.113 0.491v15.728c0 0.278 0.253 0.506 0.563 0.506h16.444c-0.116-0.55-0.175-1.119-0.175-1.703z"></path>
</svg>
