<!-- Generated by IcoMoon.io -->
<svg version="1.1" xmlns="http://www.w3.org/2000/svg" width="32" height="32" viewBox="0 0 32 32">
<title>mail-read</title>
<path fill="#444" d="M10.172 6.125c0-0.1 0.097-0.184 0.219-0.184h11.222c0.119 0 0.219 0.084 0.219 0.184v1.388c0 0.1-0.097 0.184-0.219 0.184h-11.225c-0.119 0-0.219-0.084-0.219-0.184l0.003-1.388zM10.172 10.819c0-0.097 0.097-0.181 0.219-0.181h11.222c0.119 0 0.219 0.078 0.219 0.181v1.338c0 0.097-0.097 0.181-0.219 0.181h-11.225c-0.119 0-0.219-0.078-0.219-0.181l0.003-1.338zM30.653 7.659v0l-1.906 1.441v-7.097c0.003-1.306-1.047-2.003-2.347-2.003h-21.4c-1.303 0-1.781 0.703-1.781 2.003v7.119l-1.934-1.459c-1.272-0.928-1.272-0.928-1.272 0.556v18.131c0 0.319 0.291 0.575 0.641 0.575h30.684c0.35 0 0.641-0.259 0.641-0.575v-18.131c0.034-1.506 0.034-1.506-1.325-0.559v0zM5.572 10.897v-6.897c0-1.272 0.162-1.394 1.428-1.394h18c1.272 0 1.228 0.125 1.228 1.394l0.019 6.997-10.25 7.772-10.425-7.872z"></path>
</svg>
