<!-- Generated by IcoMoon.io -->
<svg version="1.1" xmlns="http://www.w3.org/2000/svg" width="32" height="32" viewBox="0 0 32 32">
<title>mail-forward</title>
<path fill="#444" d="M3.428 20.579c0 0.688 0.1 1.482 0.306 2.383 0.2 0.901 0.432 1.72 0.688 2.464s0.544 1.489 0.857 2.233c0.313 0.744 0.557 1.282 0.726 1.614l0.357 0.713c0.094 0.2 0.263 0.306 0.5 0.306 0.069 0 0.125-0.006 0.163-0.019 0.3-0.094 0.432-0.3 0.413-0.607-0.513-4.76 0.119-8.125 1.895-10.089 0.763-0.844 1.776-1.501 3.046-1.97s2.858-0.782 4.779-0.938v4.485c0 0.5 0.231 0.851 0.694 1.051 0.156 0.063 0.306 0.088 0.444 0.088 0.319 0 0.588-0.113 0.807-0.338l9.145-9.145c0.225-0.225 0.338-0.494 0.338-0.801s-0.113-0.575-0.338-0.807l-9.157-9.138c-0.344-0.369-0.763-0.45-1.251-0.25-0.463 0.2-0.694 0.557-0.694 1.051v4.679c-4.891 0.332-8.457 1.651-10.696 3.947-2.014 2.064-3.021 5.091-3.021 9.088z"></path>
</svg>
