<!-- Generated by IcoMoon.io -->
<svg version="1.1" xmlns="http://www.w3.org/2000/svg" width="32" height="32" viewBox="0 0 32 32">
<title>mandates</title>
<path fill="#444" d="M26.026 4.742c-2.187-1.69-4.681-2.524-6.875-2.482-1.996-0.018-3.767 0.673-4.864 2.093-1.897 2.455-1.184 6.304 1.48 9.344l-7.403 7.323-1.98-2.002c-0.158-0.16-0.38-0.221-0.587-0.183-0.203-0.035-0.419 0.023-0.575 0.178l-0.945 0.935c-0.257 0.254-0.259 0.672-0.005 0.929l2.096 2.119-0.148 0.146-3.45-3.488c-0.147-0.149-0.354-0.204-0.546-0.167-0.19-0.037-0.395 0.017-0.542 0.163l-1.019 1.008c-0.237 0.234-0.239 0.619-0.005 0.855l3.566 3.604-1.751 1.733c-0.384 0.38-0.387 1.004-0.008 1.388l1.214 1.227c0.22 0.223 0.523 0.316 0.814 0.282 0.287 0.034 0.587-0.057 0.808-0.275l13.432-13.287c1.852 1.133 3.836 1.698 5.627 1.684 2.031 0.040 3.836-0.652 4.949-2.093 2.271-2.94 0.803-7.88-3.28-11.035zM25.561 11.225c-0.447 0.578-1.147 0.879-1.935 0.907-0.85-0.027-1.782-0.358-2.602-0.992-1.672-1.292-2.248-3.349-1.286-4.595 0.447-0.578 1.147-0.879 1.935-0.907 0.85 0.027 1.782 0.358 2.602 0.992 1.672 1.292 2.248 3.349 1.286 4.595z"></path>
</svg>
