<!-- Generated by IcoMoon.io -->
<svg version="1.1" xmlns="http://www.w3.org/2000/svg" width="32" height="32" viewBox="0 0 32 32">
<title>mandatory2</title>
<path fill="#444" d="M17.16 13.2c-0.505-0.928-0.817-4.677-1.16-6.518-0.338 1.841-0.656 5.59-1.16 6.518-1.009-0.298-3.874-2.714-5.418-3.779 1.064 1.544 3.481 4.404 3.779 5.418-0.928 0.505-4.677 0.817-6.518 1.16 1.841 0.338 5.59 0.656 6.518 1.16-0.298 1.009-2.719 3.879-3.784 5.423 1.544-1.064 4.409-3.486 5.423-3.784 0.505 0.928 0.817 4.677 1.16 6.518 0.338-1.841 0.656-5.59 1.16-6.518 1.009 0.298 3.92 2.76 5.463 3.824-1.064-1.544-3.521-4.45-3.824-5.463 0.928-0.505 4.677-0.817 6.518-1.16-1.841-0.338-5.59-0.656-6.518-1.16 0.298-1.009 2.749-3.91 3.814-5.448-1.544 1.054-4.439 3.506-5.454 3.809z"></path>
</svg>
