<!-- Generated by IcoMoon.io -->
<svg version="1.1" xmlns="http://www.w3.org/2000/svg" width="32" height="32" viewBox="0 0 32 32">
<title>map1</title>
<path fill="#444" d="M25.628 6.753v0c0-2.941-2.391-5.328-5.341-5.328s-5.341 2.384-5.341 5.328c0 5.087 5.341 11.719 5.341 11.719s5.341-6.631 5.341-11.719zM17.403 6.819c0-1.588 1.291-2.878 2.884-2.878s2.884 1.288 2.884 2.878c0 1.588-1.291 2.878-2.884 2.878-1.594-0.003-2.884-1.291-2.884-2.878zM27.944 4.031v0h-0.281l-1.413 0.531c0.253 0.684 0.391 1.422 0.391 2.191 0 5.381-5.337 12.075-5.566 12.356l-0.787 0.984v5.225l-8.475-2.791v-15.819l2.144 0.706c-0.016-0.222-0.025-0.444-0.025-0.662 0-0.666 0.103-1.306 0.294-1.909l-2.425-0.803-7.881 2.528c-0.281 0.138-0.578 0.269-0.578 0.669v20.075c0 0.397 0.313 0.644 0.731 0.644h0.281l7.447-2.781 8.425 2.794 7.866-2.522c0.281-0.128 0.569-0.394 0.569-0.663v-20.075c0-0.397-0.297-0.678-0.716-0.678z"></path>
</svg>
