<!-- Generated by IcoMoon.io -->
<svg version="1.1" xmlns="http://www.w3.org/2000/svg" width="32" height="32" viewBox="0 0 32 32">
<title>matrix</title>
<path fill="#444" d="M13.119 5.888h5.761c0.588 0 0.941 0.47 0.941 0.941v3.645c0 0.588-0.47 0.941-0.941 0.941h-5.761c-0.588 0-0.941-0.47-0.941-0.941v-3.645c0-0.47 0.353-0.941 0.941-0.941zM13.119 13.178h5.761c0.588 0 0.941 0.47 0.941 0.941v3.645c0 0.588-0.47 0.941-0.941 0.941h-5.761c-0.588 0-0.941-0.47-0.941-0.941v-3.645c0-0.47 0.353-0.941 0.941-0.941zM3.007 13.178h5.761c0.588 0 0.941 0.47 0.941 0.941v3.645c0 0.588-0.47 0.941-0.941 0.941h-5.761c-0.588 0-0.941-0.47-0.941-0.941v-3.645c0-0.47 0.47-0.941 0.941-0.941zM3.007 5.888h5.761c0.588 0 0.941 0.47 0.941 0.941v3.645c0 0.588-0.47 0.941-0.941 0.941h-5.761c-0.47 0.118-0.941-0.353-0.941-0.823v-3.763c0-0.47 0.47-0.941 0.941-0.941zM3.007 20.586h5.761c0.588 0 0.941 0.47 0.941 0.941v3.645c0 0.588-0.47 0.941-0.941 0.941h-5.761c-0.588 0-0.941-0.47-0.941-0.941v-3.645c0-0.47 0.47-0.941 0.941-0.941zM13.119 20.586h5.761c0.588 0 0.941 0.47 0.941 0.941v3.645c0 0.588-0.47 0.941-0.941 0.941h-5.761c-0.588 0-0.941-0.47-0.941-0.941v-3.645c0-0.47 0.47-0.941 0.941-0.941zM23.231 5.888h5.761c0.588 0 0.941 0.47 0.941 0.941v3.645c0 0.588-0.47 0.941-0.941 0.941h-5.761c-0.588 0-0.941-0.47-0.941-0.941v-3.645c0-0.47 0.353-0.941 0.941-0.941zM23.231 13.178h5.761c0.588 0 0.941 0.47 0.941 0.941v3.645c0 0.588-0.47 0.941-0.941 0.941h-5.761c-0.588 0-0.941-0.47-0.941-0.941v-3.645c0-0.47 0.353-0.941 0.941-0.941zM23.231 20.586h5.761c0.588 0 0.941 0.47 0.941 0.941v3.645c0 0.588-0.47 0.941-0.941 0.941h-5.761c-0.588 0-0.941-0.47-0.941-0.941v-3.645c0-0.47 0.353-0.941 0.941-0.941z"></path>
</svg>
