<!-- Generated by IcoMoon.io -->
<svg version="1.1" xmlns="http://www.w3.org/2000/svg" width="32" height="32" viewBox="0 0 32 32">
<title>meeting</title>
<path fill="#444" d="M12.347 24.707c-0.217-0.175-0.407-0.374-0.584-0.584-1.106 1.039-2.477 1.66-3.959 1.66-1.485 0-2.853-0.624-3.962-1.66-0.178 0.211-0.365 0.41-0.584 0.584-1.365 1.094-2.347 2.669-2.672 4.516-0.039 0.232 0.021 0.47 0.169 0.651s0.368 0.283 0.6 0.283h12.898c0.232 0 0.452-0.105 0.6-0.283 0.148-0.181 0.211-0.419 0.172-0.651-0.331-1.847-1.314-3.422-2.675-4.516v0zM2.893 19.407c0 2.745 2.205 4.971 4.923 4.971s4.92-2.226 4.92-4.971c0-2.745-2.202-4.971-4.92-4.971s-4.923 2.226-4.923 4.971v0zM28.74 24.707c-0.217-0.175-0.407-0.374-0.584-0.584-1.106 1.039-2.477 1.66-3.959 1.66-1.485 0-2.853-0.624-3.962-1.66-0.178 0.211-0.365 0.41-0.584 0.584-1.365 1.094-2.347 2.669-2.672 4.516-0.039 0.232 0.021 0.47 0.169 0.651s0.368 0.283 0.6 0.283h12.898c0.232 0 0.452-0.105 0.6-0.283 0.148-0.181 0.211-0.419 0.172-0.651-0.331-1.847-1.314-3.422-2.675-4.516v0zM19.285 19.407c0 2.745 2.205 4.971 4.923 4.971s4.92-2.226 4.92-4.971c0-2.745-2.202-4.971-4.92-4.971s-4.923 2.226-4.923 4.971v0zM23.756 6.374v0c0.006-3.417-2.064-4.531-4.203-4.531h-6.474c-2.715 0-4.48 1.976-4.48 5.083v6.607c0 0.075 0.099 0.121 0.163 0.078l2.172-1.419c0.015-0.009 0.036-0.015 0.057-0.015l8.216 0.015c2.582-0.030 4.552-2.13 4.555-5.269-0.003 0.003-0.006-0.41-0.006-0.548zM12.865 8.010c0 0.111-0.090 0.199-0.199 0.199h-1.814c-0.111 0-0.199-0.090-0.199-0.199v-1.814c0-0.111 0.090-0.199 0.199-0.199h1.814c0.111 0 0.199 0.090 0.199 0.199v1.814zM17.285 8.010c0 0.111-0.090 0.199-0.199 0.199h-1.814c-0.111 0-0.199-0.090-0.199-0.199v-1.814c0-0.111 0.090-0.199 0.199-0.199h1.814c0.111 0 0.199 0.090 0.199 0.199v1.814zM21.708 8.010c0 0.111-0.090 0.199-0.199 0.199h-1.814c-0.111 0-0.199-0.090-0.199-0.199v-1.814c0-0.111 0.090-0.199 0.199-0.199h1.814c0.111 0 0.199 0.090 0.199 0.199v1.814z"></path>
</svg>
