<!-- Generated by IcoMoon.io -->
<svg version="1.1" xmlns="http://www.w3.org/2000/svg" width="32" height="32" viewBox="0 0 32 32">
<title>menu2</title>
<path fill="#444" d="M18.538 18.080v-4.16c0-0.253-0.205-0.458-0.458-0.458h-4.16c-0.253 0-0.458 0.205-0.458 0.458v4.16c0 0.253 0.205 0.458 0.458 0.458h4.16c0.253 0 0.458-0.205 0.458-0.458zM28.677 18.080v-4.16c0-0.253-0.205-0.458-0.458-0.458h-4.16c-0.253 0-0.458 0.205-0.458 0.458v4.16c0 0.253 0.205 0.458 0.458 0.458h4.16c0.253 0 0.458-0.205 0.458-0.458zM8.4 18.080v-4.16c0-0.253-0.205-0.458-0.458-0.458h-4.16c-0.253 0-0.458 0.205-0.458 0.458v4.16c0 0.253 0.205 0.458 0.458 0.458h4.16c0.253 0 0.458-0.205 0.458-0.458z"></path>
</svg>
