<!-- Generated by IcoMoon.io -->
<svg version="1.1" xmlns="http://www.w3.org/2000/svg" width="32" height="32" viewBox="0 0 32 32">
<title>menu1</title>
<path fill="#444" d="M29.386 22.889h-26.807c-0.179 0-0.286 0.146-0.286 0.386v3.718c0 0.239 0.107 0.421 0.286 0.421h26.807c0.179 0 0.321-0.182 0.321-0.421v-3.721c0-0.239-0.143-0.382-0.321-0.382zM29.421 13.696h-26.879c-0.179 0-0.286 0.2-0.286 0.436v3.646c0 0.236 0.107 0.482 0.286 0.482h26.875c0.179 0 0.321-0.246 0.321-0.482v-3.646c0.004-0.236-0.143-0.436-0.318-0.436zM29.421 4.589h-26.843c-0.179 0-0.286 0.218-0.286 0.45v3.646c0 0.236 0.107 0.468 0.286 0.468h26.839c0.179 0 0.321-0.232 0.321-0.468v-3.646c0.004-0.236-0.143-0.45-0.318-0.45z"></path>
</svg>
