<!-- Generated by IcoMoon.io -->
<svg version="1.1" xmlns="http://www.w3.org/2000/svg" width="32" height="32" viewBox="0 0 32 32">
<title>menu-more</title>
<path fill="#444" d="M13.923 18.535h4.155c0.253 0 0.458-0.205 0.458-0.458v-4.155c0-0.253-0.205-0.458-0.458-0.458h-4.155c-0.253 0-0.458 0.205-0.458 0.458v4.155c0 0.253 0.205 0.458 0.458 0.458zM13.923 28.66h4.155c0.253 0 0.458-0.205 0.458-0.458v-4.155c0-0.253-0.205-0.458-0.458-0.458h-4.155c-0.253 0-0.458 0.205-0.458 0.458v4.155c0 0.253 0.205 0.458 0.458 0.458zM13.923 8.41h4.155c0.253 0 0.458-0.205 0.458-0.458v-4.155c0-0.253-0.205-0.458-0.458-0.458h-4.155c-0.253 0-0.458 0.205-0.458 0.458v4.155c0 0.253 0.205 0.458 0.458 0.458z"></path>
</svg>
