<!-- Generated by IcoMoon.io -->
<svg version="1.1" xmlns="http://www.w3.org/2000/svg" width="32" height="32" viewBox="0 0 32 32">
<title>message</title>
<path fill="#444" d="M31.989 14.719c0.011-7.208-4.354-9.563-8.868-9.563l-13.664 0.001c-5.728 0-9.457 4.167-9.457 10.722v13.943c0 0.16 0.208 0.255 0.342 0.168l4.585-2.992c0.033-0.021 0.079-0.033 0.118-0.033l17.338 0.034c5.448-0.066 9.607-4.496 9.614-11.12 0 0-0.007-0.87-0.007-1.16zM20.587 20.739h-13.243v-1.669h13.243v1.669zM24.593 17.066h-17.249v-1.669h17.249v1.669zM24.705 13.394h-17.249v-1.669h17.249v1.669z"></path>
</svg>
