<!-- Generated by IcoMoon.io -->
<svg version="1.1" xmlns="http://www.w3.org/2000/svg" width="32" height="32" viewBox="0 0 32 32">
<title>mortgage</title>
<path fill="#444" d="M30.86 28.897l-2.833-9.896c-0.087-0.304-0.366-0.513-0.682-0.513h-1.203v5.070c0 1.173-0.954 2.128-2.126 2.128h-16.017c-1.173 0-2.126-0.955-2.126-2.128 0 0-0.010 0.015-0.012 0.017 0-0.006-0.002-0.011-0.002-0.017v-5.070h-1.203c-0.316 0-0.594 0.21-0.682 0.513l-2.833 9.896c-0.061 0.214-0.019 0.444 0.115 0.622 0.133 0.178 0.344 0.282 0.565 0.282 0.003 0 28.36 0 28.36 0 0.222 0 0.432-0.104 0.565-0.282 0.134-0.178 0.176-0.408 0.115-0.622zM6.056 13.301l9.937-8.551 9.937 8.551c0.2 0.172 0.446 0.257 0.691 0.257 0.3 0 0.597-0.125 0.807-0.37 0.382-0.446 0.333-1.118-0.113-1.5l-10.629-9.147c-0.397-0.343-0.988-0.343-1.386 0l-10.63 9.147c-0.445 0.382-0.496 1.054-0.114 1.5 0.384 0.446 1.056 0.496 1.5 0.113zM16.456 6.106c-0.266-0.229-0.66-0.229-0.926 0l-8.009 6.916c-0.155 0.136-0.245 0.331-0.245 0.537v9.999c0 0.392 0.317 0.709 0.708 0.709h16.017c0.392 0 0.71-0.317 0.71-0.709v-9.999c0-0.206-0.090-0.402-0.247-0.537l-8.008-6.916zM15.284 21.131c0 0.392-0.317 0.709-0.708 0.709h-2.48c-0.392 0-0.71-0.318-0.71-0.709v-2.485c0-0.392 0.317-0.709 0.71-0.709h2.48c0.391 0 0.708 0.318 0.708 0.709v2.485zM15.284 15.81c0 0.392-0.317 0.709-0.708 0.709h-2.48c-0.392 0-0.71-0.318-0.71-0.709v-2.484c0-0.392 0.317-0.709 0.71-0.709h2.48c0.391 0 0.708 0.318 0.708 0.709v2.484zM20.599 21.131c0 0.392-0.317 0.709-0.708 0.709h-2.479c-0.393 0-0.71-0.318-0.71-0.709v-2.485c0-0.392 0.317-0.709 0.71-0.709h2.479c0.391 0 0.708 0.318 0.708 0.709v2.485zM20.599 15.81c0 0.392-0.317 0.709-0.708 0.709h-2.479c-0.393 0-0.71-0.318-0.71-0.709v-2.484c0-0.392 0.317-0.709 0.71-0.709h2.479c0.391 0 0.708 0.318 0.708 0.709v2.484z"></path>
</svg>
