<!-- Generated by IcoMoon.io -->
<svg version="1.1" xmlns="http://www.w3.org/2000/svg" width="32" height="32" viewBox="0 0 32 32">
<title>new</title>
<path fill="#444" d="M22.977 16.587c-3.667 0-6.671 3.019-6.671 6.705s3.003 6.705 6.671 6.705 6.671-3.019 6.671-6.705c0-3.686-3.003-6.705-6.671-6.705zM26.261 23.795c0 0.145-0.096 0.263-0.241 0.263h-2.144c-0.145 0-0.241 0.114-0.241 0.259v2.157c0 0.145-0.139 0.256-0.284 0.256h-0.813c-0.145 0-0.269-0.114-0.269-0.256v-2.157c0-0.145-0.111-0.259-0.256-0.259h-2.144c-0.145 0-0.275-0.12-0.275-0.263v-0.819c0-0.145 0.13-0.281 0.275-0.281h2.144c0.145 0 0.256-0.099 0.256-0.244v-2.157c0-0.145 0.124-0.275 0.269-0.275h0.813c0.145 0 0.284 0.13 0.284 0.275v2.157c0 0.145 0.096 0.244 0.241 0.244h2.144c0.145 0 0.241 0.136 0.241 0.281v0.819zM14.449 23.292c0-4.709 3.819-8.527 8.527-8.527 1.183 0 2.308 0.241 3.334 0.677v-8.039c0-0.037-0.015-0.074-0.040-0.102v0l-4.795-5.249c-0.028-0.031-0.068-0.049-0.111-0.049h-13.842c-1.010 0-1.829 0.819-1.829 1.829v24.436c0 0.945 0.735 1.733 1.678 1.733h10.341c-1.987-1.56-3.263-3.986-3.263-6.708zM21.348 4.54c0-0.136 0.167-0.204 0.263-0.105l2.954 3.111c0.093 0.096 0.022 0.256-0.111 0.256v0l-2.954-0.031c-0.083 0-0.151-0.068-0.151-0.151v-3.080zM8.56 9.756c0-0.083 0.068-0.151 0.151-0.151h10.502c0.083 0 0.151 0.068 0.151 0.151v1.131c0 0.083-0.068 0.151-0.151 0.151h-10.502c-0.083 0-0.151-0.068-0.151-0.151v-1.131zM8.56 14.523v-1.131c0-0.083 0.068-0.151 0.151-0.151h7.854c0.083 0 0.151 0.068 0.151 0.151v1.131c0 0.083-0.068 0.151-0.151 0.151h-7.854c-0.083 0-0.151-0.068-0.151-0.151z"></path>
</svg>
