<!-- Generated by IcoMoon.io -->
<svg version="1.1" xmlns="http://www.w3.org/2000/svg" width="32" height="32" viewBox="0 0 32 32">
<title>news</title>
<path fill="#444" d="M26.042 7.837v-2.203c0-0.389-0.259-0.648-0.648-0.648h-22.416c-0.259 0-0.518 0.259-0.518 0.648v18.010c0 0 0 3.369 3.369 3.369h21.12c0 0 2.592 0 2.592-3.369v-14.641c0-0.389-0.259-0.648-0.648-0.648h-2.203c-0.389 0-0.648-0.259-0.648-0.518v0zM5.829 25.332c-1.685 0-1.685-1.685-1.685-1.685v-16.328c0-0.389 0.259-0.648 0.648-0.648h19.047c0.389 0 0.648 0.259 0.648 0.648v16.326c0 0.777 0.259 1.296 0.518 1.685l-19.177 0.003zM22.038 11.725h-15.575c-0.349 0-0.635-0.286-0.635-0.635v-0.415c0-0.349 0.286-0.635 0.635-0.635h15.575c0.349 0 0.635 0.286 0.635 0.635v0.415c0 0.349-0.286 0.635-0.635 0.635zM22.038 15.094h-6.376c-0.349 0-0.635-0.286-0.635-0.635v-0.415c0-0.349 0.286-0.635 0.635-0.635h6.376c0.349 0 0.635 0.286 0.635 0.635v0.415c0 0.349-0.286 0.635-0.635 0.635zM22.038 18.593h-6.376c-0.349 0-0.635-0.286-0.635-0.635v-0.415c0-0.349 0.286-0.635 0.635-0.635h6.376c0.349 0 0.635 0.286 0.635 0.635v0.415c0 0.349-0.286 0.635-0.635 0.635zM20.34 21.962h-4.665c-0.357 0-0.648-0.291-0.648-0.648v-0.389c0-0.357 0.291-0.648 0.648-0.648h4.665c0.357 0 0.648 0.291 0.648 0.648v0.389c0 0.357-0.291 0.648-0.648 0.648zM12.596 21.833h-6.019c-0.413 0-0.748-0.336-0.748-0.748v-6.926c0-0.413 0.336-0.748 0.748-0.748h6.019c0.413 0 0.748 0.336 0.748 0.748v6.926c0 0.41-0.338 0.748-0.748 0.748z"></path>
</svg>
