<!-- Generated by IcoMoon.io -->
<svg version="1.1" xmlns="http://www.w3.org/2000/svg" width="32" height="32" viewBox="0 0 32 32">
<title>notification</title>
<path fill="#444" d="M26.664 3.643c-0.017-0.338-0.311-0.716-0.657-0.815-5.988-1.715-11.659 2.945-17.637 1.418l-0.156-1.242c-0.044-0.351-0.365-0.6-0.718-0.556l-2.116 0.263c-0.352 0.044-0.603 0.364-0.558 0.714l3.243 25.861c0.044 0.351 0.365 0.6 0.718 0.556l2.116-0.263c0.352-0.044 0.602-0.364 0.559-0.714l-1.541-12.284c5.633 0.86 11.020-3.234 16.691-1.609 0.346 0.099 0.613-0.071 0.596-0.409-0.18-3.64-0.361-7.28-0.541-10.919z"></path>
</svg>
