<!-- Generated by IcoMoon.io -->
<svg version="1.1" xmlns="http://www.w3.org/2000/svg" width="32" height="32" viewBox="0 0 32 32">
<title>office</title>
<path fill="#444" d="M23.85 2.28h-15.706c-0.45 0-0.813 0.37-0.813 0.813v25.814c0 0.45 0.37 0.813 0.813 0.813h5.786v-5.309h4.133v5.309h5.786c0.45 0 0.813-0.37 0.813-0.813v-25.807c0.007-0.45-0.363-0.82-0.813-0.82zM14.461 21.857h-4.133v-4.133h4.133v4.133zM14.461 15.674h-4.133v-4.133h4.133v4.133zM14.461 9.491h-4.133v-4.133h4.133v4.133zM21.672 21.857h-4.133v-4.133h4.133v4.133zM21.672 15.674h-4.133v-4.133h4.133v4.133zM21.672 9.491h-4.133v-4.133h4.133v4.133z"></path>
</svg>
