<!-- Generated by IcoMoon.io -->
<svg version="1.1" xmlns="http://www.w3.org/2000/svg" width="32" height="32" viewBox="0 0 32 32">
<title>overlay</title>
<path fill="#444" d="M20.583 6.833c-1.671 0-3.234 0.447-4.583 1.227-1.35-0.78-2.912-1.227-4.583-1.227-5.062 0-9.167 4.104-9.167 9.167s4.104 9.167 9.167 9.167c1.671 0 3.234-0.447 4.583-1.227 1.35 0.78 2.912 1.227 4.583 1.227 5.062 0 9.167-4.104 9.167-9.167s-4.104-9.167-9.167-9.167zM11.417 23.134c-1.905 0-3.698-0.742-5.045-2.089s-2.089-3.137-2.089-5.045 0.742-3.698 2.089-5.045c1.347-1.347 3.137-2.089 5.045-2.089 0.97 0 1.91 0.193 2.778 0.561-1.715 1.665-2.778 3.996-2.778 6.573s1.066 4.908 2.778 6.573c-0.868 0.368-1.808 0.561-2.778 0.561zM16.462 10.955c1.347 1.347 2.089 3.137 2.089 5.045s-0.742 3.698-2.089 5.045c-0.149 0.149-0.301 0.289-0.462 0.424-0.158-0.134-0.313-0.275-0.462-0.424-1.347-1.347-2.089-3.137-2.089-5.045s0.742-3.698 2.089-5.045c0.149-0.149 0.301-0.289 0.462-0.421 0.158 0.131 0.313 0.272 0.462 0.421z"></path>
</svg>
