<!-- Generated by IcoMoon.io -->
<svg version="1.1" xmlns="http://www.w3.org/2000/svg" width="32" height="32" viewBox="0 0 32 32">
<title>package</title>
<path fill="#444" d="M22.867 11.076c0.271 0.181 0.542 0.181 0.813 0l2.801-1.626c0.542-0.271 0.542-0.994 0-1.355l-10.029-5.963c-0.271-0.181-0.542-0.181-0.813 0l-2.801 1.626c-0.542 0.271-0.542 0.994 0 1.355l10.029 5.963zM15.006 16.407l-10.21-6.054c-0.542-0.271-1.175 0.090-1.175 0.633v12.107c0 0.271 0.181 0.542 0.361 0.633l10.119 6.054c0.542 0.271 1.175-0.090 1.175-0.633v-12.107c0.090-0.271-0.090-0.542-0.271-0.633zM27.204 10.353l-2.801 1.626c-0.271 0.181-0.361 0.361-0.361 0.633v4.247c0 0.271-0.181 0.542-0.361 0.633l-1.446 0.904c-0.542 0.361-1.265 0-1.265-0.633v-2.439c0-0.633-0.633-0.994-1.175-0.633l-2.801 1.626c-0.271 0.181-0.361 0.361-0.361 0.633v12.107c0 0.633 0.633 0.994 1.175 0.633l10.119-6.054c0.271-0.181 0.361-0.361 0.361-0.633v-12.017c0.090-0.633-0.542-0.994-1.084-0.633zM19.162 12.341l-10.029-5.963c-0.271-0.090-0.542-0.090-0.813 0l-2.801 1.626c-0.542 0.271-0.542 0.994 0 1.355l10.029 5.963c0.271 0.181 0.542 0.181 0.813 0l2.801-1.626c0.542-0.271 0.542-0.994 0-1.355z"></path>
</svg>
