<!-- Generated by IcoMoon.io -->
<svg version="1.1" xmlns="http://www.w3.org/2000/svg" width="32" height="32" viewBox="0 0 32 32">
<title>pause</title>
<path fill="#444" d="M11.687 2.001h-5.246c-1.263 0-2.286 1.023-2.286 2.286v23.425c0 1.263 1.023 2.286 2.286 2.286h5.113c1.263 0 2.286-1.023 2.286-2.286v-23.558c0-1.191-0.962-2.154-2.154-2.154zM25.692 2.001h-5.246c-1.263 0-2.286 1.023-2.286 2.286v23.425c0 1.263 1.023 2.286 2.286 2.286h5.113c1.263 0 2.286-1.023 2.286-2.286v-23.558c0-1.191-0.962-2.154-2.154-2.154z"></path>
</svg>
