<!-- Generated by IcoMoon.io -->
<svg version="1.1" xmlns="http://www.w3.org/2000/svg" width="32" height="32" viewBox="0 0 32 32">
<title>payment-bulk</title>
<path fill="#444" d="M14.283 14.752c1.987 0 3.597-1.791 3.597-3.999s-1.61-3.999-3.597-3.999c-1.987 0-3.597 1.79-3.597 3.999s1.61 3.999 3.597 3.999zM6.213 23.865c-0.245-0.797-0.605-1.296-1.038-1.695h-1.539c-0.655 0-1.305-0.1-1.869-0.698h-0.521v1.71c0 0.692 0.478 1.447 0.862 1.763 0.305 0.252 0.958 0.515 1.529 0.515h15.798c-0.385-0.598-0.48-1.196-0.704-1.595h-12.518zM25.020 16.505c-3.167 0-5.734 2.567-5.734 5.734s2.567 5.734 5.734 5.734 5.734-2.567 5.734-5.734-2.567-5.734-5.734-5.734zM25.020 26.54c-2.371 0-4.301-1.929-4.301-4.301s1.929-4.301 4.301-4.301 4.301 1.929 4.301 4.301-1.929 4.301-4.301 4.301zM25.020 18.581h-0.746v4.386h4.386v-0.728c0-1.977-1.664-3.658-3.641-3.658zM2.13 20.923c0.313 0.251 0.982 0.449 1.568 0.449h15.1c0.046-0.498 0.17-0.997 0.365-1.495h-12.822c-0.252-0.698-0.621-1.097-1.065-1.695h-1.578c-0.672 0-1.339-0.199-1.918-0.498h-0.535v1.541c0 0.692 0.491 1.382 0.884 1.698zM2.112 17.001c0.306 0.252 0.962 0.484 1.536 0.484h17.040c1.156-0.997 2.665-1.583 4.316-1.583 0.686 0 1.328 0.116 1.95 0.31 0.146-0.292 0.21-0.606 0.21-0.949v-9.034c0-1.245-1.037-2.202-2.348-2.202h-21.169c-1.311 0-2.402 0.957-2.402 2.202v9.034c0 0.692 0.48 1.42 0.866 1.738zM3.041 8.749c1.595-0.478 2.599-1.532 3.187-3.027h15.996c0.574 1.595 1.751 2.6 3.247 3.056v4.022h-0.042c-1.393 0.399-2.642 1.396-3.219 3.090h-15.972c-0.594-1.495-1.801-2.636-3.197-3.132v-4.009z"></path>
</svg>
