<!-- Generated by IcoMoon.io -->
<svg version="1.1" xmlns="http://www.w3.org/2000/svg" width="32" height="32" viewBox="0 0 32 32">
<title>payments</title>
<path fill="#444" d="M29.516 6.709v0l-16.481 0.009c-0.941-0.003-1.753 0.825-1.753 1.844v0.844c-0.3-0.162-0.734-0.275-1.287-0.275-0.691 0-1.241 0.169-1.303 0.191-0.134 0.041-0.244 0.109-0.347 0.209l-7.256 6.109c-0.203 0.197-0.316 0.478-0.309 0.775l1.050 9.553c0.012 0.519 0.566 0.941 1.050 0.966 0.025 0 2.359 0.106 4.425 0.106 1.259 0 2.147-0.034 2.712-0.113 1.653-0.225 2.375-0.75 2.672-1.084 0.309-0.244 0.588-0.484 0.875-0.725-0.241 0.95 0.162 1.988 1.006 2.45 0.275 0.15 0.581 0.228 0.884 0.228 0.516 0 1.322-0.956 2.012-1.947-0.103 0.428-0.028 0.841 0.419 1.141 0.172 0.116 0.581 0.228 0.887 0.228 0.741 0 1.413-0.447 1.747-1.159l2.375-4.053 6.609 0.003c0.941 0 1.709-0.825 1.712-1.841l0.006-11.591c0-1.025-0.762-1.869-1.706-1.869zM12.478 8.559c0-0.341 0.272-0.616 0.584-0.616l16.444-0.013c0.309 0 0.566 0.297 0.566 0.638l-0.009 1.647-17.584-0.009v-1.647zM18.697 23.878c0.012-0.025 0.025-0.047 0.034-0.066-0.003 0.016-0.016 0.038-0.034 0.066zM29.531 20.772l-11.613-0.003c0.95-1.262 1.488-2.394 1.578-3.375 0.069-0.775-0.147-1.272-0.303-1.516-0.194-0.397-0.691-0.931-1.725-0.931-1.353 0-3.494 0.953-4.887 1.669v-2.75l17.544-0.006v6.303c-0.003 0.341-0.281 0.609-0.594 0.609zM23.8 1.166c-0.347-0.841-1.197-1.188-1.894-0.769l-8.984 5.353h1.375l10.034-3.294-0.531-1.291zM28.809 3.806c-0.169-0.759-0.741-1.253-1.363-1.253-0.125 0-0.25 0.022-0.372 0.063l-9.559 3.134h11.734l-0.441-1.944z"></path>
</svg>
