<!-- Generated by IcoMoon.io -->
<svg version="1.1" xmlns="http://www.w3.org/2000/svg" width="32" height="32" viewBox="0 0 32 32">
<title>payment-repeat</title>
<path fill="#444" d="M23.666 15.206v0c-4.016 0-7.272 3.256-7.272 7.272s3.256 7.272 7.272 7.272 7.272-3.256 7.272-7.272c0.003-4.012-3.256-7.269-7.272-7.272v0zM23.741 28.747v-1.709c-2.491 0-4.594-2.050-4.594-4.556 0-0.913 0.266-1.709 0.666-2.45l0.844 0.856c-0.228 0.456-0.366 1.028-0.366 1.597 0 1.878 1.556 3.416 3.447 3.416v-1.709l2.281 2.278-2.278 2.278zM27.541 24.928v0l-0.856-0.856c0.228-0.456 0.438-1.025 0.438-1.594 0-1.881-1.587-3.416-3.378-3.416v1.706l-2.278-2.278 2.278-2.278v1.706c2.587 0 4.522 2.053 4.522 4.559-0.003 0.913-0.328 1.709-0.725 2.45v0zM15.125 22.563c0-2.95 1.516-5.547 3.809-7.053-0.278-0.297-0.738-0.563-1.469-0.563-1.353 0-3.494 0.953-4.887 1.669v-2.75l17.544-0.006v3.4c0.431 0.534 0.8 1.122 1.094 1.75l0.006-10.434c0-1.019-0.762-1.866-1.706-1.866v0l-16.481 0.009c-0.941-0.003-1.753 0.825-1.753 1.844v0.844c-0.3-0.162-0.734-0.275-1.287-0.275-0.691 0-1.241 0.169-1.303 0.191-0.134 0.041-0.244 0.109-0.347 0.209l-7.256 6.109c-0.203 0.197-0.316 0.478-0.309 0.775l1.050 9.553c0.012 0.519 0.566 0.941 1.050 0.966 0.025 0 2.359 0.106 4.425 0.106 1.259 0 2.147-0.034 2.712-0.113 1.653-0.225 2.375-0.75 2.672-1.084 0.309-0.244 0.588-0.484 0.875-0.725-0.241 0.95 0.162 1.988 1.006 2.45 0.275 0.15 0.581 0.228 0.884 0.228 0.272 0 0.628-0.269 1.006-0.672-0.844-1.319-1.334-2.884-1.334-4.563zM12.478 8.559c0-0.341 0.272-0.616 0.584-0.616l16.444-0.013c0.309 0 0.566 0.297 0.566 0.638l-0.009 1.647-17.584-0.009v-1.647z"></path>
</svg>
