<!-- Generated by IcoMoon.io -->
<svg version="1.1" xmlns="http://www.w3.org/2000/svg" width="32" height="32" viewBox="0 0 32 32">
<title>payment-future</title>
<path fill="#444" d="M23.569 16.822c-3.725 0-6.747 3.022-6.747 6.747s3.022 6.747 6.747 6.747 6.747-3.022 6.747-6.747-3.022-6.747-6.747-6.747zM27.481 26.206l-0.503 0.816c-0.063 0.1-0.194 0.131-0.297 0.072l-4.038-2.375c-0.066-0.038-0.156-0.109-0.156-0.184v-4.297c0-0.125 0.144-0.225 0.266-0.225l0.909 0.006c0.025 0 0.034 0.003 0.072 0.006 0 0 0.147 0.031 0.147 0.306v3.384c0 0.075 0.075 0.147 0.141 0.184l3.372 2.006c0.106 0.063 0.15 0.197 0.087 0.3v0zM30.219 6.978c0-1.034-0.628-1.875-1.406-1.875h-25.663c-0.778 0-1.406 0.838-1.406 1.875v2.531h28.475v-2.531zM15.134 23.569c0-4.656 3.775-8.431 8.431-8.431 2.725 0 5.15 1.294 6.691 3.3v-4.6h-28.509v11.394c0 0.922 0.625 1.666 1.403 1.666h12.669c-0.441-1.022-0.684-2.147-0.684-3.328z"></path>
</svg>
