<!-- Generated by IcoMoon.io -->
<svg version="1.1" xmlns="http://www.w3.org/2000/svg" width="32" height="32" viewBox="0 0 32 32">
<title>pdf</title>
<path fill="#444" d="M26.267 7.3v0l-4.792-5.249c-0.028-0.031-0.068-0.049-0.111-0.049h-13.842c-1.010 0-1.829 0.819-1.829 1.829v24.436c0 0.945 0.735 1.733 1.678 1.733h17.070c1.026 0 1.866-0.84 1.866-1.866v-20.732c0-0.037-0.012-0.074-0.040-0.102zM21.348 4.54c0-0.136 0.167-0.204 0.263-0.105l2.954 3.111c0.093 0.096 0.022 0.256-0.111 0.256v0l-2.954-0.031c-0.083 0-0.151-0.068-0.151-0.151v-3.080zM13.491 12.577c0-0.192 0.096-0.287 0.287-0.287h2.098c0.667 0 1.239 0.192 1.718 0.476s0.955 0.763 1.239 1.239c0.287 0.572 0.476 1.146 0.476 1.814v0.287c0 0.667-0.192 1.239-0.476 1.814s-0.667 0.955-1.239 1.239c-0.476 0.287-1.146 0.476-1.718 0.476h-2.098c-0.192 0-0.287-0.096-0.287-0.287v-6.769zM8.529 19.352c0 0.192-0.192 0.287-0.383 0.287v0h-1.146c-0.192 0-0.287-0.096-0.287-0.287v-6.776c0-0.192 0.096-0.287 0.287-0.287h2.673c0.572 0 1.050 0.096 1.526 0.287s0.763 0.476 1.050 0.859 0.383 0.859 0.383 1.335c0 0.763-0.287 1.335-0.763 1.718-0.476 0.476-1.239 0.667-2.098 0.667h-1.239v2.197zM16.717 27.534c0 0.083-0.068 0.151-0.151 0.151h-7.854c-0.083 0-0.151-0.068-0.151-0.151v-1.131c0-0.083 0.068-0.151 0.151-0.151h7.854c0.083 0 0.151 0.068 0.151 0.151v1.131zM19.362 23.897c0 0.083-0.068 0.151-0.151 0.151h-10.499c-0.083 0-0.151-0.068-0.151-0.151v-1.131c0-0.083 0.068-0.151 0.151-0.151h10.502c0.083 0 0.151 0.068 0.151 0.151v1.131zM25.226 13.34c-0.096 0.192-0.192 0.287-0.383 0.287v0h-2.577c-0.192 0-0.287 0.096-0.287 0.287v1.146c0 0.192 0.096 0.287 0.287 0.287h2.293c0.192 0 0.287 0.096 0.287 0.287v0.763c0 0.192-0.096 0.287-0.287 0.287h-2.289c-0.192 0-0.287 0.096-0.287 0.287v2.385c0 0.192-0.096 0.287-0.287 0.287h-1.146c-0.192 0-0.287-0.096-0.287-0.287v-6.782c0-0.192 0.096-0.287 0.287-0.287h4.387c0.192 0 0.287 0.096 0.287 0.287v0.763zM10.383 15.537c0.192-0.192 0.287-0.383 0.287-0.763 0-0.383-0.096-0.667-0.287-0.859s-0.476-0.287-0.763-0.287h-1.146v2.098h1.146c0.284 0.096 0.572 0 0.763-0.189zM15.821 13.627h-0.572v4.675h0.572c0.476 0 0.859-0.192 1.146-0.572s0.383-0.859 0.383-1.622v-0.287c0-0.667-0.096-1.239-0.383-1.622-0.192-0.38-0.671-0.572-1.146-0.572v0z"></path>
</svg>
