<!-- Generated by IcoMoon.io -->
<svg version="1.1" xmlns="http://www.w3.org/2000/svg" width="32" height="32" viewBox="0 0 32 32">
<title>percentage</title>
<path fill="#444" d="M27.271 2.699v0c-0.657-0.547-1.633-0.46-2.18 0.197l-20.35 24.377c-0.547 0.657-0.46 1.633 0.197 2.18v0c0.657 0.547 1.633 0.46 2.18-0.197l20.347-24.38c0.551-0.653 0.463-1.629-0.194-2.176zM8.622 15.028c3.593 0 6.514-2.921 6.514-6.514s-2.925-6.514-6.514-6.514-6.514 2.921-6.514 6.514 2.921 6.514 6.514 6.514zM8.622 4.279c2.336 0 4.235 1.899 4.235 4.235s-1.899 4.235-4.235 4.235-4.235-1.899-4.235-4.235 1.899-4.235 4.235-4.235zM23.378 16.965c-3.593 0-6.514 2.921-6.514 6.514s2.921 6.514 6.514 6.514 6.514-2.921 6.514-6.514-2.921-6.514-6.514-6.514zM23.378 27.713c-2.336 0-4.235-1.899-4.235-4.235s1.899-4.235 4.235-4.235 4.235 1.899 4.235 4.235-1.899 4.235-4.235 4.235z"></path>
</svg>
