<!-- Generated by IcoMoon.io -->
<svg version="1.1" xmlns="http://www.w3.org/2000/svg" width="32" height="32" viewBox="0 0 32 32">
<title>personalise</title>
<path fill="#444" d="M15.537 18.417l0.546-0.546c0.042-0.042 7.65-6.789 7.692-6.831 0.075 0.005 0.168 0.009 0.278 0.009 0.78 0 2.295-0.207 3.684-1.596 1.593-1.592 1.385-4.24 1.027-6.37-0.031-0.185-0.062-0.331-0.091-0.446-0.079 0.098-0.176 0.228-0.294 0.398-0.595 0.861-1.395 1.355-2.313 1.43-0.127 0.010-0.258 0.016-0.389 0.016-0.491 0-0.928-0.073-1.314-0.138-0.317-0.053-0.615-0.103-0.892-0.103-0.349 0-0.79 0.068-1.408 0.569-1.097 0.89-1.185 2.683-1.177 3.342l-8.368 8.839c-2.551 2.538-5.443 5.413-7.42 7.79-2.948 3.543-2.364 4.213-2.357 4.22 0.025 0.026 0.096 0.029 0.136 0.029 0.479 0 1.79-0.446 5.192-3.431 2.383-2.091 5.086-4.795 7.47-7.18zM27.998 10.793c-1.439 0.98-2.856 1.152-3.666 1.152l-8.793 8.535c-2.701 2.702-5.105 5.080-7.17 6.927 0.449 0.152 0.924 0.24 1.412 0.24h0c1.19 0 2.308-0.471 3.15-1.312l0.872-0.875c0.568-0.567 1.322-0.882 2.125-0.882s1.557 0.311 2.125 0.879l3.189 3.187c0.846 0.846 1.971 1.311 3.167 1.311 1.168 0 2.273-0.447 3.11-1.259 0.041-0.040 0.082-0.080 0.123-0.121 4.359-4.357 4.321-11.737 0.357-17.781zM25.796 15.727c0.287-0.287 0.669-0.445 1.074-0.445s0.787 0.158 1.074 0.445c0.287 0.287 0.445 0.668 0.445 1.074s-0.158 0.787-0.445 1.074c-0.287 0.287-0.668 0.445-1.074 0.445s-0.787-0.158-1.075-0.445c-0.287-0.287-0.445-0.668-0.445-1.074s0.158-0.787 0.445-1.074zM27.841 24.452c-0.349 0.349-0.814 0.542-1.308 0.542s-0.959-0.192-1.308-0.542-0.542-0.814-0.542-1.308c0-0.494 0.193-0.958 0.542-1.308s0.814-0.542 1.308-0.542 0.959 0.192 1.308 0.542 0.542 0.814 0.542 1.308c0 0.494-0.192 0.958-0.542 1.308zM10.44 16.973l9.246-9.508c0.002-0.754 0.118-2.225 0.888-3.426-2.459-1.291-5.107-1.992-7.709-1.992-3.312 0-6.313 1.176-8.449 3.311-4.416 4.415-4.319 11.932-0.197 18.020 1.664-1.841 3.777-3.974 6.221-6.405zM13.257 4.972c0.287-0.287 0.669-0.445 1.074-0.445s0.787 0.158 1.074 0.445c0.287 0.287 0.445 0.668 0.445 1.074s-0.158 0.787-0.445 1.074c-0.287 0.287-0.668 0.445-1.074 0.445s-0.788-0.158-1.074-0.445c-0.592-0.592-0.592-1.556 0-2.148zM6.788 6.304c0.287-0.287 0.668-0.445 1.074-0.445s0.787 0.158 1.074 0.445c0.287 0.287 0.445 0.668 0.445 1.074s-0.158 0.787-0.445 1.074c-0.287 0.287-0.668 0.445-1.074 0.445s-0.787-0.158-1.075-0.445c-0.287-0.287-0.445-0.668-0.445-1.074s0.158-0.787 0.445-1.074zM3.048 13.316c0-0.494 0.193-0.958 0.542-1.308s0.814-0.542 1.308-0.542 0.959 0.192 1.308 0.542c0.349 0.349 0.542 0.814 0.542 1.308s-0.192 0.958-0.542 1.308c-0.349 0.349-0.814 0.542-1.308 0.542s-0.959-0.192-1.308-0.542c-0.349-0.349-0.542-0.814-0.542-1.308z"></path>
</svg>
