<!-- Generated by IcoMoon.io -->
<svg version="1.1" xmlns="http://www.w3.org/2000/svg" width="32" height="32" viewBox="0 0 32 32">
<title>phone</title>
<path fill="#444" d="M22.093 1.998h-12.112c-0.804 0-1.49 0.556-1.49 1.33v25.198c0 0.773 0.686 1.476 1.49 1.476h12.112c0.804 0 1.417-0.703 1.417-1.476v-25.198c0-0.774-0.613-1.33-1.417-1.33zM14.014 4.028c0-0.203 0.072-0.383 0.273-0.383h3.499c0.201 0 0.394 0.18 0.394 0.381v0.011c0 0.201-0.193 0.383-0.394 0.383h-3.499c-0.201 0-0.273-0.182-0.273-0.383v-0.009zM15.993 29.004c-0.762 0-1.38-0.618-1.38-1.38s0.618-1.38 1.38-1.38 1.38 0.618 1.38 1.38c0 0.762-0.618 1.38-1.38 1.38zM22.541 25.083c0 0.201-0.163 0.365-0.365 0.365h-12.352c-0.201 0-0.365-0.163-0.365-0.365v-18.553c0-0.202 0.163-0.365 0.365-0.365h12.352c0.201 0 0.365 0.163 0.365 0.365v18.553z"></path>
</svg>
