<!-- Generated by IcoMoon.io -->
<svg version="1.1" xmlns="http://www.w3.org/2000/svg" width="32" height="32" viewBox="0 0 32 32">
<title>picture-add</title>
<path fill="#444" d="M21.806 10.114c0 1.107-0.899 2.006-2.006 2.006s-2.006-0.899-2.006-2.006 0.899-2.006 2.006-2.006 2.006 0.899 2.006 2.006zM24.593 17.855c-3.686 0-6.701 3.032-6.701 6.738s3.019 6.738 6.701 6.738 6.701-3.035 6.701-6.738c0-3.703-3.015-6.738-6.701-6.738v0zM27.984 25.006c0 0.144-0.158 0.272-0.305 0.272h-2.153c-0.144 0-0.292 0.111-0.292 0.255v2.167c0 0.144-0.091 0.325-0.238 0.325h-0.815c-0.144 0-0.262-0.181-0.262-0.325v-2.167c0-0.144-0.117-0.255-0.265-0.255h-2.153c-0.144 0-0.332-0.127-0.332-0.272v-0.822c0-0.144 0.184-0.221 0.332-0.221h2.153c0.144 0 0.265-0.161 0.265-0.309v-2.167c0-0.144 0.117-0.275 0.262-0.275h0.815c0.144 0 0.238 0.127 0.238 0.275v2.167c0 0.144 0.144 0.309 0.292 0.309h2.153c0.144 0 0.305 0.074 0.305 0.221v0.822zM16 24.593c0-1.040 0.184-2.036 0.523-2.955l-4.837-7.584c-0.174-0.275-0.332 0.020-0.527 0.342l-5.115 8.583c-0.252 0.429-0.838 0.248-0.838-0.248v-16.7c0-0.198 0.161-0.359 0.359-0.359h21.225c0.198 0 0.359 0.161 0.359 0.359v10.354c1.033 0.322 1.979 0.832 2.804 1.489v-15.12c0-0.389-0.319-0.708-0.708-0.708h-26.49c-0.389 0-0.708 0.319-0.708 0.708v26.49c0 0.389 0.319 0.708 0.708 0.708h15.12c-1.174-1.469-1.875-3.334-1.875-5.36z"></path>
</svg>
