<!-- Generated by IcoMoon.io -->
<svg version="1.1" xmlns="http://www.w3.org/2000/svg" width="32" height="32" viewBox="0 0 32 32">
<title>picture</title>
<path fill="#444" d="M21.825 10.094c0 1.111-0.901 2.012-2.012 2.012s-2.012-0.901-2.012-2.012c0-1.111 0.901-2.012 2.012-2.012s2.012 0.901 2.012 2.012zM29.29 2h-26.579c-0.391 0-0.71 0.32-0.71 0.71v26.579c0 0.391 0.32 0.71 0.71 0.71h26.579c0.391 0 0.71-0.32 0.71-0.71v-26.579c0-0.391-0.32-0.71-0.71-0.71zM27.186 16.148v9.402l-4.534-6.103c0.005-0.003 0.010-0.006 0.015-0.009l-1.087-1.417c-0.476-0.57-0.489-0.563-1.027 0.002l-3.708 4.137-5.175-8.111c-0.176-0.275-0.333 0.021-0.529 0.343l-5.132 8.61c-0.252 0.43-0.842 0.25-0.842-0.248v-16.755c0-0.2 0.162-0.361 0.361-0.361h21.296c0.2 0 0.361 0.162 0.361 0.361v10.149z"></path>
</svg>
