<!-- Generated by IcoMoon.io -->
<svg version="1.1" xmlns="http://www.w3.org/2000/svg" width="32" height="32" viewBox="0 0 32 32">
<title>pin-bank</title>
<path fill="#444" d="M16 0.998c-5.193 0-9.401 4.198-9.401 9.376 0 8.952 9.401 20.628 9.401 20.628s9.401-11.675 9.401-20.628c0-5.178-4.209-9.376-9.401-9.376zM9.843 6.639c0.022-0.024 0.047-0.043 0.074-0.060l5.9-3.469c0.102-0.060 0.229-0.060 0.332 0l5.892 3.464c0.029 0.017 0.057 0.039 0.079 0.065 0.093 0.111 0.121 0.201 0.117 0.289-0.008 0.168-0.157 0.282-0.326 0.282h-11.911c-0.105 0-0.21-0.033-0.266-0.123-0.113-0.182 0.035-0.368 0.109-0.449zM21.192 12.943c0 0.181-0.146 0.327-0.327 0.327h-1.239c-0.181 0-0.327-0.146-0.327-0.327v-4.932c0-0.181 0.146-0.327 0.327-0.327h1.239c0.181 0 0.327 0.146 0.327 0.327v4.932zM18.351 12.943c0 0.181-0.146 0.327-0.327 0.327h-1.239c-0.181 0-0.327-0.146-0.327-0.327v-4.932c0-0.181 0.146-0.327 0.327-0.327h1.239c0.181 0 0.327 0.146 0.327 0.327v4.932zM15.511 12.943c0 0.181-0.146 0.327-0.327 0.327h-1.239c-0.181 0-0.327-0.146-0.327-0.327v-4.932c0-0.181 0.146-0.327 0.327-0.327h1.239c0.181 0 0.327 0.146 0.327 0.327v4.932zM12.67 12.943c0 0.181-0.146 0.327-0.327 0.327h-1.239c-0.181 0-0.327-0.146-0.327-0.327v-4.932c0-0.181 0.146-0.327 0.327-0.327h1.239c0.181 0 0.327 0.146 0.327 0.327v4.932zM22.517 15.477v0.353c0 0.181-0.11 0.281-0.29 0.281h-12.489c-0.181 0-0.287-0.1-0.287-0.281v-0.337c0-0.072 0.004-0.142 0.047-0.199l0.856-1.131c0.062-0.081 0.152-0.128 0.254-0.128l10.888-0.031c0.112-0 0.215 0.057 0.275 0.151l0.713 1.147c0.034 0.053 0.032 0.114 0.032 0.176z"></path>
</svg>
