<!-- Generated by IcoMoon.io -->
<svg version="1.1" xmlns="http://www.w3.org/2000/svg" width="32" height="32" viewBox="0 0 32 32">
<title>pin-code</title>
<path fill="#444" d="M8.425 2.113c-1.389 0-2.525 1.136-2.525 2.525s1.136 2.525 2.525 2.525c1.389 0 2.525-1.136 2.525-2.525s-1.136-2.525-2.525-2.525zM8.425 9.688c-1.389 0-2.525 1.136-2.525 2.525s1.136 2.525 2.525 2.525c1.389 0 2.525-1.136 2.525-2.525s-1.136-2.525-2.525-2.525zM16 24.837c-1.389 0-2.525 1.136-2.525 2.525s1.136 2.525 2.525 2.525c1.389 0 2.525-1.136 2.525-2.525s-1.136-2.525-2.525-2.525zM23.575 7.163c1.389 0 2.525-1.136 2.525-2.525s-1.136-2.525-2.525-2.525c-1.389 0-2.525 1.136-2.525 2.525s1.136 2.525 2.525 2.525zM8.425 17.262c-1.389 0-2.525 1.136-2.525 2.525s1.136 2.525 2.525 2.525c1.389 0 2.525-1.136 2.525-2.525s-1.136-2.525-2.525-2.525zM23.575 9.688c-1.389 0-2.525 1.136-2.525 2.525s1.136 2.525 2.525 2.525c1.389 0 2.525-1.136 2.525-2.525s-1.136-2.525-2.525-2.525zM23.575 17.262c-1.389 0-2.525 1.136-2.525 2.525s1.136 2.525 2.525 2.525c1.389 0 2.525-1.136 2.525-2.525s-1.136-2.525-2.525-2.525zM16 17.262c-1.389 0-2.525 1.136-2.525 2.525s1.136 2.525 2.525 2.525c1.389 0 2.525-1.136 2.525-2.525s-1.136-2.525-2.525-2.525zM16 2.113c-1.389 0-2.525 1.136-2.525 2.525s1.136 2.525 2.525 2.525c1.389 0 2.525-1.136 2.525-2.525s-1.136-2.525-2.525-2.525zM16 9.688c-1.389 0-2.525 1.136-2.525 2.525s1.136 2.525 2.525 2.525c1.389 0 2.525-1.136 2.525-2.525s-1.136-2.525-2.525-2.525z"></path>
</svg>
