<!-- Generated by IcoMoon.io -->
<svg version="1.1" xmlns="http://www.w3.org/2000/svg" width="32" height="32" viewBox="0 0 32 32">
<title>pin-atm</title>
<path fill="#444" d="M10.625 8.396l-0.653 2.083h1.325l-0.65-2.083zM18.664 8.527l0.012 0.032-0.001-0.020zM16 0.998c-5.193 0-9.401 4.198-9.401 9.376 0 8.952 9.401 20.628 9.401 20.628s9.401-11.675 9.401-20.628c0-5.178-4.209-9.376-9.401-9.376zM11.913 12.371l-0.357-1.041h-1.845l-0.357 1.041h-1.065l1.809-5.301h1.079l1.801 5.301h-1.065zM17.12 7.922h-1.42v4.449h-1.231v-4.449h-1.42v-0.852h4.070v0.852zM22.137 12.371v-1.517l0.083-2.321-0.031-0.029-1.417 3.867h-0.708l-1.381-3.82 0.14 2.303v1.517h-1.041v-5.301h1.282l1.339 4.070h0.022l1.35-4.070h1.402v5.301h-1.041z"></path>
</svg>
