<!-- Generated by IcoMoon.io -->
<svg version="1.1" xmlns="http://www.w3.org/2000/svg" width="32" height="32" viewBox="0 0 32 32">
<title>pinned</title>
<path fill="#444" d="M23.283 15c-0.551-0.458-1.203-0.814-1.907-1.059-0.144-0.051-0.246-0.178-0.254-0.331l-0.686-7.618c-0.017-0.178 0.093-0.347 0.271-0.398 0.288-0.085 0.551-0.229 0.771-0.415 0.407-0.339 0.627-0.797 0.627-1.271 0-0.992-0.966-1.797-2.153-1.797h-7.907c-1.186 0-2.153 0.805-2.153 1.797 0 0.475 0.229 0.932 0.627 1.271 0.22 0.186 0.483 0.322 0.771 0.415 0.178 0.051 0.288 0.22 0.271 0.398l-0.686 7.618c-0.017 0.153-0.11 0.28-0.254 0.331-0.703 0.246-1.356 0.602-1.907 1.059-1.102 0.924-1.729 2.169-1.729 3.483 0 0.949 0.924 1.729 2.068 1.729h4.432c0.186 0 0.339 0.127 0.381 0.313l1.754 8.949c0.085 0.415 0.678 0.415 0.754 0l1.754-8.957c0.034-0.178 0.195-0.313 0.381-0.313h4.432c1.144 0 2.068-0.771 2.068-1.729-0.009-1.297-0.627-2.551-1.729-3.474z"></path>
</svg>
