<!-- Generated by IcoMoon.io -->
<svg version="1.1" xmlns="http://www.w3.org/2000/svg" width="32" height="32" viewBox="0 0 32 32">
<title>placeholder2</title>
<path fill="#444" d="M16 2c-7.731 0-14 6.268-14 14s6.268 14 14 14 14-6.268 14-14-6.268-14-14-14zM23.108 22.749c0 0.199-0.162 0.361-0.361 0.361h-13.496c-0.199 0-0.361-0.162-0.361-0.361v-13.499c0-0.199 0.162-0.361 0.361-0.361h13.496c0.199 0 0.361 0.162 0.361 0.361v13.499zM21.679 10.921c0-0.103-0.082-0.182-0.182-0.182h-10.815c-0.103 0-0.182 0.082-0.182 0.182v8.508c0 0.253 0.299 0.344 0.427 0.125l2.607-4.374c0.1-0.165 0.179-0.313 0.268-0.174l2.629 4.117 1.883-2.1c0.273-0.287 0.279-0.29 0.521 0l0.552 0.72c-0.003 0-0.006 0.003-0.008 0.006l2.302 3.099v-9.928zM17.938 14.022c-0.564 0-1.021-0.458-1.021-1.021s0.458-1.021 1.021-1.021c0.564 0 1.021 0.458 1.021 1.021s-0.458 1.021-1.021 1.021z"></path>
</svg>
