<!-- Generated by IcoMoon.io -->
<svg version="1.1" xmlns="http://www.w3.org/2000/svg" width="32" height="32" viewBox="0 0 32 32">
<title>placeholder</title>
<path fill="#444" d="M27.404 3.926h-4.192v2.516h4.192v-2.516zM20.137 3.926h-4.192v2.516h4.192v-2.516zM12.87 3.926h-4.192v2.516h4.192v-2.516zM5.603 3.926h-1.006c0 0 0 0-0.006 0 0 0 0 0 0 0s0 0-0.006 0c0 0 0 0 0 0s0 0-0.006 0c0 0 0 0 0 0s0 0-0.006 0c0 0 0 0 0 0s-0.006 0-0.006 0c0 0 0 0 0 0s0 0-0.006 0c0 0 0 0 0 0s0 0-0.006 0c0 0 0 0 0 0s0 0-0.006 0c0 0 0 0 0 0s-0.006 0-0.006 0c0 0 0 0 0 0s0 0-0.006 0c0 0 0 0 0 0s0 0-0.006 0c0 0 0 0 0 0s0 0-0.006 0c0 0 0 0 0 0s0 0-0.006 0c0 0 0 0 0 0s0 0-0.006 0c0 0 0 0 0 0s0 0-0.006 0c0 0 0 0 0 0s0 0-0.006 0c0 0 0 0 0 0s0 0-0.006 0c0 0 0 0 0 0s0 0-0.006 0c0 0 0 0 0 0s0 0-0.006 0c0 0 0 0 0 0s0 0-0.006 0c0 0 0 0 0 0s0 0-0.006 0c0 0 0 0 0 0s0 0-0.006 0c0 0 0 0 0 0s0 0-0.006 0c0 0 0 0 0 0s0 0-0.006 0c0 0 0 0 0 0s0 0-0.006 0c0 0 0 0 0 0s0 0-0.006 0c0 0 0 0 0 0s0 0-0.006 0c0 0 0 0 0 0s0 0-0.006 0c0 0 0 0 0 0s0 0-0.006 0c0 0 0 0 0 0s0 0-0.006 0c0 0 0 0 0 0s0 0-0.006 0c0 0 0 0 0 0s0 0-0.006 0c0 0 0 0 0 0s0 0-0.006 0c0 0 0 0 0 0s0 0-0.006 0c0 0 0 0 0 0s0 0-0.006 0c0 0 0 0 0 0s0 0-0.006 0c0 0 0 0 0 0s0 0-0.006 0c0 0 0 0 0 0s0 0-0.006 0c0 0 0 0 0 0s0 0-0.006 0c0 0 0 0 0 0s0 0-0.006 0c0 0 0 0 0 0s0 0-0.006 0c0 0 0 0 0 0s0 0-0.006 0c0 0 0 0 0 0s0 0-0.006 0c0 0 0 0 0 0s0 0-0.006 0c0 0 0 0 0 0s0 0-0.006 0c0 0 0 0 0 0s0 0-0.006 0c0 0 0 0 0 0s0 0-0.006 0c0 0 0 0 0 0s0 0-0.006 0c0 0 0 0 0 0s0 0-0.006 0c0 0 0 0 0 0s0 0-0.006 0c0 0 0 0 0 0s0 0-0.006 0v0c0 0 0 0-0.006 0 0 0 0 0 0 0s0 0-0.006 0c0 0 0 0 0 0s0 0-0.006 0c0 0 0 0 0 0s0 0-0.006 0c0 0 0 0 0 0s0 0-0.006 0v0c0 0 0 0-0.006 0 0 0 0 0 0 0s0 0-0.006 0c0 0 0 0 0 0s0 0-0.006 0c0 0 0 0 0 0s0 0-0.006 0c0 0 0 0 0 0s-0.006 0-0.006 0c0 0 0 0 0 0s0 0-0.006 0c0 0 0 0 0 0s0 0-0.006 0c0 0 0 0 0 0s0 0-0.006 0c0 0 0 0 0 0s-0.006 0-0.006 0c0 0 0 0 0 0s0 0-0.006 0c0 0 0 0 0 0s-0.006 0-0.006 0c0 0 0 0 0 0s0 0-0.006 0c0 0 0 0 0 0s-0.006 0-0.006 0c0 0 0 0 0 0s0 0-0.006 0c0 0 0 0 0 0s0 0-0.006 0c0 0 0 0 0 0s0 0-0.006 0c0 0 0 0 0 0s-0.006 0-0.006 0c0 0 0 0 0 0s0 0-0.006 0c0 0 0 0 0 0s-0.006 0-0.006 0c0 0 0 0 0 0s0 0-0.006 0c0 0 0 0 0 0s-0.006 0-0.006 0c0 0 0 0 0 0s0 0-0.006 0c0 0 0 0 0 0s-0.006 0-0.006 0v0c0 0 0 0-0.006 0 0 0 0 0 0 0s-0.006 0-0.006 0c0 0 0 0 0 0s0 0-0.006 0c0 0 0 0 0 0-0.006 0-0.006 0-0.011 0 0 0 0 0 0 0s-0.006 0-0.011 0c0 0 0 0 0 0s0 0-0.006 0c0 0 0 0 0 0s0 0-0.006 0c0 0 0 0 0 0s0 0-0.006 0c0 0 0 0 0 0s-0.006 0-0.006 0c0 0 0 0 0 0s0 0-0.006 0c0 0 0 0 0 0s-0.006 0-0.011 0c0 0 0 0 0 0s-0.006 0-0.006 0c0 0 0 0 0 0s0 0-0.006 0c0 0 0 0 0 0-0.006 0-0.006 0-0.011 0 0 0 0 0 0 0-0.006 0-0.006 0-0.011 0 0 0 0 0 0 0s0 0-0.006 0c0 0 0 0 0 0s-0.006 0-0.006 0c0 0 0 0 0 0-0.006 0-0.006 0-0.011 0 0 0 0 0 0 0s-0.006 0-0.006 0v0c-0.006 0-0.006 0-0.011 0 0 0 0 0 0 0-0.006 0-0.006 0-0.011 0 0 0 0 0 0 0s0 0-0.006 0c0 0 0 0 0 0-0.006 0-0.006 0-0.011 0 0 0 0 0 0 0-0.006 0-0.006 0-0.006 0s0 0 0 0 0 0-0.006 0c0 0 0 0 0 0-0.006 0-0.006 0-0.011 0 0 0 0 0 0 0-0.006 0-0.006 0-0.011 0v0c0 0 0 0-0.006 0 0 0 0 0 0 0-0.006 0-0.006 0-0.011 0 0 0 0 0 0 0-0.006 0-0.011 0-0.011 0s0 0 0 0c-0.006 0-0.017 0.006-0.022 0.006v0c-0.006 0-0.006 0-0.011 0 0 0 0 0 0 0-0.006 0-0.011 0-0.011 0.006 0 0 0 0 0 0-0.011 0-0.022 0.006-0.028 0.006v0c-0.749 0.268-1.442 0.839-1.806 1.588l2.258 1.107c0.045-0.089 0.151-0.196 0.302-0.196h1.006v-2.516zM4.261 8.56h-2.516v4.192h2.516v-4.192zM4.261 15.827h-2.516v4.192h2.516v-4.192zM4.261 23.094h-2.516v2.482c0 0 0 0.006 0 0.006s0 0 0 0 0 0 0 0.006c0 0 0 0 0 0s0 0 0 0.006c0 0 0 0 0 0s0 0 0 0.006c0 0 0 0 0 0s0 0 0 0.006c0 0 0 0 0 0s0 0 0 0.006c0 0 0 0 0 0s0 0.006 0 0.006c0 0 0 0 0 0s0 0 0 0.006c0 0 0 0 0 0s0 0 0 0.006c0 0 0 0 0 0s0 0.006 0 0.006c0 0 0 0 0 0s0 0 0 0.006c0 0 0 0 0 0s0 0 0 0.006c0 0 0 0 0 0s0 0.006 0 0.006c0 0 0 0 0 0s0 0 0 0.006c0 0 0 0 0 0s0 0 0 0.006c0 0 0 0 0 0s0 0 0 0.006c0 0 0 0 0 0s0 0 0 0.006c0 0 0 0 0 0s0 0 0 0.006c0 0 0 0 0 0s0 0.006 0 0.006c0 0 0 0 0 0s0 0 0 0.006c0 0 0 0 0 0s0 0 0 0.006c0 0 0 0 0 0s0 0 0 0.006c0 0 0 0 0 0s0 0 0 0.006c0 0 0 0 0 0s0 0 0 0.006c0 0 0 0 0 0s0 0 0 0.006c0 0 0 0 0 0s0 0 0 0.006c0 0 0 0 0 0s0 0 0 0.006c0 0 0 0 0 0s0 0 0 0.006c0 0 0 0 0 0s0 0 0 0.006c0 0 0 0 0 0s0 0 0 0.006c0 0 0 0 0 0s0 0 0 0.006c0 0 0 0 0 0s0 0 0 0.006c0 0 0 0 0 0s0 0 0 0.006c0 0 0 0 0 0s0 0.006 0 0.006c0 0 0 0 0 0s0 0 0 0.006c0 0 0 0 0 0s0 0 0 0.006c0 0 0 0 0 0s0 0 0 0.006c0 0 0 0 0 0s0 0 0 0.006c0 0 0 0 0 0s0 0 0 0.006c0 0 0 0 0 0s0 0 0 0.006c0 0 0 0 0 0s0 0 0 0.006c0 0 0 0 0 0s0 0 0 0.006c0 0 0 0 0 0s0 0.006 0 0.006c0 0 0 0 0 0s0 0 0 0.006c0 0 0 0 0 0s0 0 0 0.006c0 0 0 0 0 0s0 0.006 0 0.006c0 0 0 0 0 0s0 0 0 0.006c0 0 0 0 0 0s0 0 0 0.006c0 0 0 0 0 0 0 0.006 0 0.006 0 0.006s0 0 0 0 0 0 0 0.006c0 0 0 0 0 0 0 0.006 0 0.006 0 0.006s0 0 0 0 0 0 0 0.006c0 0 0 0 0 0 0 0.006 0 0.006 0 0.006s0 0 0 0 0 0 0 0.006c0 0 0 0 0 0s0 0 0 0.006c0 0 0 0 0 0s0 0.006 0 0.006c0 0 0 0 0 0s0 0 0 0.006c0 0 0 0 0 0s0 0 0 0.006c0 0 0 0 0 0s0 0.006 0 0.006c0 0 0 0 0 0s0 0 0 0.006c0 0 0 0 0 0s0 0 0 0.006c0 0 0 0 0 0 0 0.006 0 0.006 0 0.011 0 0 0 0 0 0s0 0 0 0.006c0 0 0 0 0 0s0 0.006 0 0.011c0 0 0 0 0 0s0 0 0 0.006c0 0 0 0 0 0s0 0.006 0 0.011c0 0 0 0 0 0s0 0 0 0.006c0 0 0 0 0 0s0 0.006 0 0.011c0 0 0 0 0 0s0 0 0 0.006c0 0 0 0 0 0 0 0.006 0 0.006 0 0.011 0 0 0 0 0 0s0 0 0 0.006c0 0 0 0 0 0s0 0 0 0.006c0 0 0 0 0 0 0 0.006 0 0.006 0 0.011 0 0 0 0 0 0s0 0 0 0.006v0c0 0.006 0 0.006 0 0.011 0 0 0 0 0 0s0 0 0 0.006c0 0 0 0 0 0 0 0.006 0 0.006 0 0.011 0 0 0 0 0 0s0 0 0 0.006c0 0 0 0 0 0 0 0.006 0 0.006 0 0.011 0 0 0 0 0 0s0 0 0 0.006c0 0 0 0 0 0 0 0.006 0 0.006 0 0.011 0 0 0 0 0 0s0 0 0 0.006c0 0 0 0 0 0 0 0.006 0 0.011 0 0.011s0 0 0 0c0 0.006 0 0.011 0 0.011s0 0 0 0 0 0.006 0 0.006v0c0 0.006 0 0.006 0 0.011 0 0 0 0 0 0s0 0 0 0.006c0 0 0 0 0 0 0 0.006 0 0.006 0 0.011 0 0 0 0 0 0s0 0.006 0 0.006c0 0 0 0 0 0 0 0.006 0 0.006 0 0.011 0 0 0 0 0 0s0 0 0 0.006c0 0 0 0 0 0 0 0.006 0 0.011 0 0.011s0 0 0 0c0 0.006 0 0.011 0 0.011s0 0 0 0c0 0.006 0 0.011 0 0.011v0c0 0.006 0 0.011 0 0.011v0c0 0 0 0 0 0.006 0 0 0 0 0 0 0 0.006 0 0.006 0 0.011 0 0 0 0 0 0s0 0 0 0.006c0 0 0 0 0 0 0 0.006 0 0.011 0 0.011s0 0 0 0c0 0.006 0 0.011 0 0.011s0 0 0 0c0.006 0.034 0.017 0.073 0.028 0.106 0 0 0 0 0 0 0.011 0.045 0.022 0.089 0.039 0.134v0c0.006 0.022 0.017 0.045 0.022 0.067v0c0.006 0.022 0.017 0.045 0.022 0.067 0 0 0 0 0 0 0 0.006 0.006 0.006 0.006 0.011 0 0 0 0 0 0 0 0.006 0.006 0.006 0.006 0.011 0 0 0 0 0 0 0 0.006 0.006 0.006 0.006 0.011 0 0 0 0 0 0s0 0 0 0.006c0 0 0 0 0 0s0 0.006 0.006 0.006c0 0 0 0 0 0s0 0 0 0.006c0 0 0 0 0 0s0 0.006 0.006 0.006c0 0 0 0 0 0s0 0 0 0.006c0 0 0 0 0 0 0 0.006 0.006 0.006 0.006 0.011 0 0 0 0 0 0 0 0.006 0.006 0.006 0.006 0.011 0 0 0 0 0 0s0 0 0 0.006c0 0 0 0 0 0s0 0 0 0.006c0 0 0 0 0 0s0 0 0 0.006c0 0 0 0 0 0s0 0 0 0.006c0 0 0 0 0 0s0 0.006 0.006 0.006c0 0 0 0 0 0s0 0 0 0.006c0 0 0 0 0 0s0 0.006 0.006 0.006c0 0 0 0 0 0s0 0 0 0.006c0 0 0 0 0 0s0 0 0 0.006v0c0 0 0 0 0 0.006 0 0 0 0 0 0s0 0 0 0.006c0 0 0 0 0 0s0 0 0 0.006c0 0 0 0 0 0s0 0 0 0.006c0 0 0 0 0 0s0 0 0 0.006c0 0 0 0 0 0s0 0 0 0.006c0 0 0 0 0 0s0 0 0 0.006c0 0 0 0 0 0s0 0 0 0.006c0 0 0 0 0 0s0 0 0 0.006c0 0 0 0 0 0s0 0 0 0.006c0 0 0 0 0 0s0 0 0 0.006c0 0 0 0 0 0s0 0 0 0.006c0 0 0 0 0 0s0 0.006 0.006 0.006c0 0 0 0 0 0s0 0 0 0.006c0 0 0 0 0 0s0 0.006 0.006 0.006c0 0 0 0 0 0s0 0 0 0.006c0 0 0 0 0 0s0 0 0 0.006c0 0 0 0 0 0s0 0 0 0.006c0 0 0 0 0 0s0 0 0 0.006c0 0 0 0 0 0s0 0 0 0.006c0 0 0 0 0 0s0 0 0 0.006c0 0 0 0 0 0s0 0 0 0.006c0 0 0 0 0 0s0 0 0 0.006c0 0 0 0 0 0s0 0 0 0.006c0 0 0 0 0 0s0 0 0 0.006c0 0 0 0 0 0s0 0 0 0 0 0 0 0 0 0 0 0.006c0 0 0 0 0 0s0 0 0 0.006c0 0 0 0 0 0s0 0 0 0 0 0 0 0 0 0 0 0.006c0 0 0 0 0 0s0 0 0 0.006c0 0 0 0 0 0s0 0 0 0 0 0 0 0 0 0 0 0.006c0 0 0 0 0 0s0 0 0 0.006c0 0 0 0 0 0s0 0 0 0 0 0 0 0 0 0 0 0 0 0 0 0 0 0 0 0.006c0 0 0 0 0 0s0 0 0 0 0 0 0 0 0 0 0 0 0 0 0 0 0 0 0 0.006c0 0 0 0 0 0s0 0 0 0 0 0 0 0 0 0 0 0 0 0 0 0 0 0 0 0.006c0 0 0 0 0 0s0 0 0 0 0 0 0 0 0 0 0 0 0 0 0 0 0 0 0 0 0 0 0 0 0 0 0 0 0 0 0 0 0 0 0 0 0 0 0 0 0 0 0 0 0 0 0 0 0 0 0 0 0 0 0 0 0 0 0 0 0 0 0 0 0 0 0 0 0 0 0 0.006c0 0 0 0 0 0s0 0 0 0 0 0 0 0 0 0 0 0 0 0 0 0 0 0 0 0.006c0 0 0 0 0 0s0 0 0 0 0 0 0 0 0 0 0 0 0 0 0 0 0 0 0 0 0 0 0 0 0 0 0 0.006c0 0 0 0 0 0s0 0 0 0 0 0 0 0 0 0.006 0.006 0.006c0 0 0 0 0 0s0 0 0 0 0 0 0 0 0 0 0 0 0 0 0 0 0 0.006 0 0.006c0 0 0 0 0 0s0 0 0 0 0 0 0 0 0 0 0 0 0 0 0 0 0 0.006 0 0.006c0 0 0 0 0 0s0 0 0 0 0 0 0 0 0 0 0 0 0 0 0 0 0 0.006 0 0.006c0 0 0 0 0 0s0 0 0 0 0 0 0 0 0 0 0 0 0 0 0 0 0.006 0.006 0.006 0.006c0 0 0 0 0 0s0 0 0 0 0 0 0 0 0.006 0.006 0.006 0.006c0 0 0 0 0 0s0 0 0 0 0 0 0 0 0.006 0.006 0.006 0.006c0 0 0 0 0 0s0 0 0 0 0 0 0 0 0 0 0 0 0 0 0 0 0 0.006 0.006 0.006c0 0 0 0 0 0s0 0 0 0 0 0 0 0c0 0.006 0.006 0.006 0.006 0.011 0 0 0 0 0 0s0 0 0 0v0c0 0 0.006 0.006 0.006 0.006s0 0 0 0 0 0 0 0 0 0 0 0c0 0.006 0.006 0.006 0.006 0.011v0c0 0.006 0.006 0.006 0.006 0.011v0c0 0.006 0.006 0.006 0.006 0.011 0 0 0 0 0 0 0 0.006 0.006 0.006 0.006 0.011 0 0 0 0 0 0 0.022 0.034 0.039 0.062 0.062 0.095l2.275-1.414c-0.039-0.056-0.056-0.117-0.056-0.184v-2.482zM9.102 25.911h-4.192v2.516h4.192v-2.516zM16.369 25.911h-4.192v2.516h4.192v-2.516zM23.636 25.911h-4.192v2.516h4.192v-2.516zM27.722 25.682c-0.039 0.112-0.157 0.229-0.319 0.229h-0.693v2.516h0.693c0 0 0 0 0.006 0 0 0 0 0 0 0s0 0 0.006 0c0 0 0 0 0 0s0 0 0.006 0c0 0 0 0 0 0s0 0 0.006 0c0 0 0 0 0 0s0 0 0.006 0c0 0 0 0 0 0s0 0 0.006 0c0 0 0 0 0 0s0 0 0.006 0c0 0 0 0 0 0s0 0 0.006 0c0 0 0 0 0 0s0 0 0.006 0c0 0 0 0 0 0s0 0 0.006 0c0 0 0 0 0 0 0.006 0 0.006 0 0.006 0s0 0 0 0 0 0 0.006 0c0 0 0 0 0 0s0 0 0.006 0c0 0 0 0 0 0s0.006 0 0.006 0c0 0 0 0 0 0s0 0 0.006 0c0 0 0 0 0 0s0 0 0.006 0c0 0 0 0 0 0s0 0 0.006 0c0 0 0 0 0 0s0 0 0.006 0c0 0 0 0 0 0s0 0 0.006 0c0 0 0 0 0 0s0 0 0.006 0c0 0 0 0 0 0s0 0 0.006 0v0c0 0 0 0 0.006 0 0 0 0 0 0 0s0 0 0.006 0c0 0 0 0 0 0s0 0 0.006 0c0 0 0 0 0 0s0.006 0 0.006 0c0 0 0 0 0 0s0 0 0.006 0c0 0 0 0 0 0s0 0 0 0 0 0 0 0 0 0 0.006 0c0 0 0 0 0 0s0 0 0.006 0c0 0 0 0 0 0s0 0 0 0 0 0 0 0 0 0 0 0 0 0 0 0 0 0 0.006 0c0 0 0 0 0 0s0 0 0.006 0c0 0 0 0 0 0s0 0 0.006 0c0 0 0 0 0 0s0 0 0.006 0c0 0 0 0 0 0s0 0 0.006 0c0 0 0 0 0 0s0 0 0.006 0c0 0 0 0 0 0s0 0 0.006 0c0 0 0 0 0 0s0 0 0.006 0c0 0 0 0 0 0s0 0 0.006 0c0 0 0 0 0 0s0 0 0.006 0c0 0 0 0 0 0s0 0 0.006 0c0 0 0 0 0 0s0 0 0.006 0v0c0 0 0 0 0.006 0 0 0 0 0 0 0s0 0 0 0 0 0 0 0 0 0 0.006 0c0 0 0 0 0 0s0 0 0.006 0c0 0 0 0 0 0s0 0 0.006 0c0 0 0 0 0 0s0 0 0.006 0c0 0 0 0 0 0s0 0 0.006 0c0 0 0 0 0 0s0 0 0.006 0c0 0 0 0 0 0s0 0 0.006 0c0 0 0 0 0 0s0 0 0.006 0c0 0 0 0 0 0s0 0 0.006 0c0 0 0 0 0 0s0 0 0.006 0c0 0 0 0 0 0s0 0 0.006 0c0 0 0 0 0 0s0 0 0.006 0c0 0 0 0 0 0s0 0 0.006 0c0 0 0 0 0 0s0 0 0.006 0c0 0 0 0 0 0s0 0 0 0 0 0 0 0 0 0 0.006 0c0 0 0 0 0 0s0 0 0.006 0c0 0 0 0 0 0s0 0 0 0 0 0 0 0 0 0 0 0 0 0 0 0 0 0 0.006 0c0 0 0 0 0 0s0 0 0.006 0c0 0 0 0 0 0s0 0 0 0 0 0 0 0 0 0 0 0 0 0 0 0 0 0 0.006 0c0 0 0 0 0 0s0 0 0.006 0c0 0 0 0 0 0s0 0 0 0 0 0 0 0 0 0 0.006 0c0 0 0 0 0 0s0 0 0.006 0c0 0 0 0 0 0s0 0 0.006 0c0 0 0 0 0 0s0 0 0.006 0c0 0 0 0 0 0s0 0 0.006 0c0 0 0 0 0 0s0 0 0.006 0c0 0 0 0 0 0s0 0 0 0 0 0 0 0 0 0 0 0 0 0 0 0 0 0 0.006 0c0 0 0 0 0 0s0 0 0.006 0c0 0 0 0 0 0s0 0 0 0 0 0 0 0 0 0 0.006 0c0 0 0 0 0 0s0 0 0.006 0c0 0 0 0 0 0s0 0 0.006 0c0 0 0 0 0 0s0 0 0 0 0 0 0 0 0 0 0.006 0c0 0 0 0 0 0s0 0 0.006 0c0 0 0 0 0 0s0 0 0 0 0 0 0 0 0 0 0.006 0c0 0 0 0 0 0s0 0 0.006 0c0 0 0 0 0 0s0 0 0.006 0c0 0 0 0 0 0s0 0 0.006 0c0 0 0 0 0 0s0 0 0.006 0c0 0 0 0 0 0s0 0 0.006 0c0 0 0 0 0 0s0 0 0 0 0 0 0 0 0 0 0 0 0 0 0 0 0 0 0.006 0c0 0 0 0 0 0s0 0 0.006 0c0 0 0 0 0 0s0 0 0.006 0c0 0 0 0 0 0s0 0 0.006 0c0 0 0 0 0 0s0 0 0.006 0c0 0 0 0 0 0s0 0 0.006 0c0 0 0 0 0 0s0 0 0 0 0 0 0 0 0 0 0.006 0c0 0 0 0 0 0s0 0 0.006 0c0 0 0 0 0 0s0 0 0.006 0c0 0 0 0 0 0s0 0 0.006 0c0 0 0 0 0 0s0 0 0.006 0c0 0 0 0 0 0s0 0 0.006 0c0 0 0 0 0 0s0 0 0 0 0 0 0 0 0 0 0.006 0c0 0 0 0 0 0s0 0 0.006 0c0 0 0 0 0 0s0 0 0.006 0c0 0 0 0 0 0s0 0 0 0 0 0 0 0 0 0 0.006 0c0 0 0 0 0 0s0 0 0.006 0c0 0 0 0 0 0s0 0 0.006 0c0 0 0 0 0 0s0 0 0 0 0 0 0 0 0 0 0.006 0c0 0 0 0 0 0s0 0 0.006 0c0 0 0 0 0 0s0 0 0 0 0 0 0 0 0 0 0.006 0c0 0 0 0 0 0s0 0 0.006 0c0 0 0 0 0 0s0 0 0.006 0c0 0 0 0 0 0s0 0 0 0 0 0 0 0 0 0 0.006 0c0 0 0 0 0 0s0 0 0.006 0c0 0 0 0 0 0s0 0 0 0 0 0 0 0 0 0 0 0 0 0 0 0 0 0 0.006 0c0 0 0 0 0 0s0 0 0.006 0c0 0 0 0 0 0s0 0 0 0 0 0 0 0 0 0 0.006 0c0 0 0 0 0 0s0 0 0.006 0c0 0 0 0 0 0s0 0 0.006 0c0 0 0 0 0 0s0 0 0.006 0c0 0 0 0 0 0s0 0 0.006 0c0 0 0 0 0 0s0 0 0.006 0c0 0 0 0 0 0s0 0 0.006 0c0 0 0 0 0 0s0 0 0.006 0c0 0 0 0 0 0s0 0 0.006 0c0 0 0 0 0 0s0 0 0.006 0c0 0 0 0 0 0s0 0 0.006 0c0 0 0 0 0 0s0 0 0.006 0c0 0 0 0 0 0s0 0 0.006 0c0 0 0 0 0 0s0 0 0.006 0c0 0 0 0 0 0s0 0 0.006 0c0 0 0 0 0 0s0 0 0.006 0c0 0 0 0 0 0s0 0 0.006 0c0 0 0 0 0 0s0 0 0.006 0c0 0 0 0 0 0s0 0 0.006 0c0 0 0 0 0 0s0.006 0 0.006 0c0 0 0 0 0 0s0 0 0.006 0c0 0 0 0 0 0s0 0 0.006 0c0 0 0 0 0 0s0 0 0.006 0c0 0 0 0 0 0s0 0 0.006 0c0 0 0 0 0 0s0 0 0 0 0 0 0 0 0 0 0.006 0c0 0 0 0 0 0s0 0 0.006 0c0 0 0 0 0 0s0 0 0.006 0c0 0 0 0 0 0s0 0 0.006 0c0 0 0 0 0 0s0.006 0 0.006 0c0 0 0 0 0 0s0 0 0.006 0c0 0 0 0 0 0s0 0 0.006 0c0 0 0 0 0 0s0 0 0.006 0c0 0 0 0 0 0s0 0 0.006 0c0 0 0 0 0 0s0 0 0.006 0c0 0 0 0 0 0s0 0 0.006 0c0 0 0 0 0 0s0 0 0.006 0c0 0 0 0 0 0s0 0 0.006 0c0 0 0 0 0 0s0 0 0.006 0c0 0 0 0 0 0s0.006 0 0.006 0c0 0 0 0 0 0s0 0 0.006 0c0 0 0 0 0 0s0 0 0.006 0c0 0 0 0 0 0s0 0 0.006 0c0 0 0 0 0 0s0 0 0.006 0c0 0 0 0 0 0s0 0 0.006 0c0 0 0 0 0 0s0.006 0 0.006 0c0 0 0 0 0 0s0 0 0.006 0c0 0 0 0 0 0s0 0 0.006 0c0 0 0 0 0 0s0.006 0 0.006 0c0 0 0 0 0 0s0 0 0.006 0c0 0 0 0 0 0s0 0 0.006 0c0 0 0 0 0 0s0 0 0.006 0c0 0 0 0 0 0s0 0 0.006 0c0 0 0 0 0 0s0 0 0.006 0c0 0 0 0 0 0s0 0 0.006 0v0c0 0 0 0 0.006 0 0 0 0 0 0 0s0 0 0.006 0c0 0 0 0 0 0s0 0 0.006 0c0 0 0 0 0 0s0.006 0 0.006 0c0 0 0 0 0 0s0 0 0.006 0c0 0 0 0 0 0s0.006 0 0.006 0v0c0 0 0 0 0.006 0 0 0 0 0 0 0s0 0 0.006 0c0 0 0 0 0 0s0.006 0 0.006 0c0 0 0 0 0 0s0 0 0.006 0c0 0 0 0 0 0s0 0 0.006 0c0 0 0 0 0 0s0.006 0 0.006 0c0 0 0 0 0 0s0 0 0.006 0c0 0 0 0 0 0s0 0 0.006 0c0 0 0 0 0 0s0 0 0.006 0c0 0 0 0 0 0s0 0 0.006 0c0 0 0 0 0 0s0 0 0.006 0c0 0 0 0 0 0s0.006 0 0.006 0c0 0 0 0 0 0s0 0 0.006 0c0 0 0 0 0 0s0 0 0.006 0c0 0 0 0 0 0s0.006 0 0.006-0.006c0 0 0 0 0 0s0 0 0.006 0c0 0 0 0 0 0s0 0 0.006 0c0 0 0 0 0 0s0 0 0.006 0c0 0 0 0 0 0s0 0 0.006 0c0 0 0 0 0 0s0 0 0.006 0c0 0 0 0 0 0s0.006 0 0.006-0.006c0 0 0 0 0 0s0 0 0.006 0c0 0 0 0 0 0s0 0 0.006 0c0 0 0 0 0 0s0.006 0 0.006-0.006c0 0 0 0 0 0s0 0 0.006 0c0 0 0 0 0 0s0 0 0.006 0c0 0 0 0 0 0s0.006 0 0.006-0.006c0 0 0 0 0 0s0 0 0.006 0c0 0 0 0 0 0s0.006 0 0.006-0.006c0 0 0 0 0 0s0 0 0.006 0c0 0 0 0 0 0s0 0 0.006 0c0 0 0 0 0 0s0.006 0 0.006-0.006c0 0 0 0 0 0s0 0 0.006 0c0 0 0 0 0 0s0.006 0 0.006-0.006c0 0 0 0 0 0s0 0 0.006 0c0 0 0 0 0 0s0 0 0.006 0c0 0 0 0 0 0s0.006 0 0.006-0.006c0 0 0 0 0 0s0 0 0.006 0c0 0 0 0 0 0s0 0 0.006 0c0 0 0 0 0 0s0.006 0 0.006-0.006c0 0 0 0 0 0s0 0 0.006 0c0 0 0 0 0 0s0 0 0.006 0c0 0 0 0 0 0s0 0 0.006 0c0 0 0 0 0 0s0 0 0.006 0c0 0 0 0 0 0s0 0 0.006 0c0 0 0 0 0 0s0.006 0 0.006-0.006c0 0 0 0 0 0s0 0 0.006 0c0 0 0 0 0 0s0 0 0.006 0c0 0 0 0 0 0s0.006 0 0.006-0.006c0 0 0 0 0 0s0 0 0.006 0c0 0 0 0 0 0s0.006 0 0.006-0.006v0c0 0 0 0 0.006 0 0 0 0 0 0 0s0 0 0.006 0c0 0 0 0 0 0s0.006 0 0.006-0.006c0 0 0 0 0 0s0 0 0.006 0c0 0 0 0 0 0s0 0 0.006 0c0 0 0 0 0 0s0.006 0 0.006-0.006c0 0 0 0 0 0s0 0 0.006 0c0 0 0 0 0 0 0.006 0 0.006-0.006 0.011-0.006 0 0 0 0 0 0s0 0 0.006 0c0 0 0 0 0 0 0.006 0 0.006-0.006 0.011-0.006 0 0 0 0 0 0 0.006 0 0.006-0.006 0.011-0.006 0 0 0 0 0 0s0 0 0.006 0c0 0 0 0 0 0 0.006 0 0.006-0.006 0.011-0.006 0 0 0 0 0 0s0 0 0.006 0c0 0 0 0 0 0 0.006 0 0.006-0.006 0.011-0.006v0c0.006 0 0.011-0.006 0.017-0.006v0c0.011-0.006 0.017-0.011 0.028-0.011v0c0.006 0 0.011-0.006 0.017-0.006 0 0 0 0 0 0 0.006 0 0.006-0.006 0.011-0.006 0 0 0 0 0 0 0.011-0.006 0.017-0.011 0.028-0.017v0c0.006 0 0.011-0.006 0.017-0.006v0c0.006 0 0.011-0.006 0.017-0.006v0c0.43-0.24 0.794-0.593 1.051-1.012v0c0.006-0.011 0.011-0.017 0.017-0.028v0c0.006-0.006 0.006-0.011 0.011-0.017v0c0-0.006 0.006-0.006 0.006-0.011 0 0 0 0 0 0s0 0 0-0.006c0 0 0 0 0 0s0.006-0.006 0.006-0.006c0 0 0 0 0 0s0 0 0-0.006v0c0-0.006 0.006-0.006 0.006-0.011 0 0 0 0 0 0s0 0 0-0.006c0 0 0 0 0 0 0-0.006 0.006-0.006 0.006-0.011 0 0 0 0 0 0s0 0 0-0.006c0 0 0 0 0 0s0-0.006 0.006-0.006c0 0 0 0 0 0s0 0 0-0.006c0 0 0 0 0 0 0-0.006 0.006-0.006 0.006-0.011 0 0 0 0 0 0s0 0 0-0.006c0 0 0 0 0 0s0-0.006 0.006-0.006c0 0 0 0 0 0s0 0 0-0.006c0 0 0 0 0 0s0 0 0-0.006c0 0 0 0 0 0s0-0.006 0.006-0.006c0 0 0 0 0 0s0 0 0-0.006c0 0 0 0 0 0s0 0 0-0.006c0 0 0 0 0 0s0 0 0-0.006v0c0 0 0 0 0-0.006 0 0 0 0 0 0s0 0 0-0.006c0 0 0 0 0 0s0 0 0-0.006c0 0 0 0 0 0s0 0 0-0.006c0 0 0 0 0 0s0 0 0-0.006c0 0 0 0 0 0s0 0 0 0 0 0 0 0 0-0.006 0.006-0.006c0 0 0 0 0 0s0 0 0 0 0 0 0 0 0 0 0 0 0 0 0 0 0 0 0-0.006c0 0 0 0 0 0s0 0 0-0.006c0 0 0 0 0 0s0 0 0 0 0 0 0 0 0 0 0-0.006c0 0 0 0 0 0s0 0 0-0.006c0 0 0 0 0 0s0 0 0 0 0 0 0 0 0 0 0 0 0 0 0 0 0 0 0-0.006c0 0 0 0 0 0s0 0 0-0.006c0 0 0 0 0 0s0 0 0 0 0 0 0 0 0 0 0 0 0 0 0 0 0 0 0-0.006c0 0 0 0 0 0s0 0 0 0 0 0 0 0 0 0 0 0 0 0 0 0 0 0 0 0 0 0 0 0 0 0 0 0 0 0 0 0 0 0 0 0 0 0 0 0 0 0 0 0 0 0 0 0 0 0 0 0 0 0 0-0.006c0 0 0 0 0 0s0 0 0 0 0 0 0 0 0 0 0 0 0 0 0 0 0 0 0 0 0 0 0-0.006c0 0 0 0 0 0s0 0 0 0 0 0 0 0 0 0 0 0 0 0 0 0 0 0 0 0 0 0 0-0.006c0 0 0 0 0 0s0 0 0 0 0 0 0 0 0 0 0 0 0 0 0 0 0 0 0 0 0 0 0 0 0 0 0-0.006c0 0 0 0 0 0s0 0 0 0 0 0 0 0 0 0 0 0 0 0 0 0 0-0.006 0.006-0.006c0 0 0 0 0 0s0 0 0 0 0 0 0 0 0 0 0 0 0 0 0 0c0-0.006 0-0.006 0.006-0.011 0 0 0 0 0 0s0 0 0 0 0 0 0 0c0-0.006 0-0.006 0.006-0.011v0c0 0 0 0 0-0.006 0 0 0 0 0 0s0 0 0-0.006c0 0 0 0 0 0 0-0.006 0.006-0.006 0.006-0.011 0 0 0 0 0 0 0-0.006 0.006-0.006 0.006-0.011 0 0 0 0 0 0s0 0 0-0.006c0 0 0 0 0 0 0-0.006 0.006-0.006 0.006-0.011 0 0 0 0 0 0s0 0 0-0.006c0 0 0 0 0 0 0-0.006 0.006-0.006 0.006-0.011 0 0 0 0 0 0 0.011-0.028 0.022-0.062 0.034-0.089l-2.348-1.118zM30.255 19.287h-2.516v4.192h2.516v-4.192zM30.255 12.020h-2.516v4.192h2.516v-4.192zM29.561 4.92l-1.906 1.644c0.056 0.062 0.084 0.134 0.084 0.212v2.169h2.516v-2.169c0 0 0-0.006 0-0.006s0 0 0 0 0 0 0-0.006c0 0 0 0 0 0s0 0 0 0 0 0 0 0 0 0 0 0 0 0 0 0 0 0 0 0 0 0 0 0 0 0 0 0 0 0 0 0 0 0 0 0 0 0 0 0 0 0 0 0 0 0 0 0 0 0 0-0.006c0 0 0 0 0 0s0-0.006 0-0.006c0 0 0 0 0 0s0 0 0-0.006c0 0 0 0 0 0s0 0 0 0 0 0 0 0 0 0 0 0 0 0 0 0 0 0 0 0 0 0 0 0 0 0 0 0 0 0 0 0 0 0 0 0 0 0 0 0 0 0 0 0 0 0 0 0 0 0 0-0.006c0 0 0 0 0 0s0-0.006 0-0.006c0 0 0 0 0 0s0 0 0-0.006c0 0 0 0 0 0s0 0 0 0 0 0 0 0 0 0 0 0 0 0 0 0 0 0 0 0 0 0 0 0 0 0 0 0 0 0 0 0 0 0 0 0 0 0 0 0 0 0 0 0 0 0 0 0 0 0 0-0.006c0 0 0 0 0 0s0-0.006 0-0.006c0 0 0 0 0 0s0 0 0-0.006c0 0 0 0 0 0s0 0 0-0.006c0 0 0 0 0 0s0 0 0 0 0 0 0 0 0 0 0 0 0 0 0 0 0 0 0 0 0 0 0 0 0 0 0 0 0 0 0 0 0 0 0 0 0 0 0 0 0 0 0-0.006c0 0 0 0 0 0s0-0.006 0-0.006c0 0 0 0 0 0s0 0 0-0.006c0 0 0 0 0 0s0 0 0 0 0 0 0 0 0 0 0 0 0 0 0 0 0 0 0 0 0 0 0 0 0 0 0 0 0 0 0 0 0 0 0 0 0 0 0 0 0 0 0 0 0 0 0 0 0 0 0-0.006c0 0 0 0 0 0s0 0 0-0.006c0 0 0 0 0 0s0 0 0-0.006c0 0 0 0 0 0s0 0 0 0 0 0 0 0 0 0 0 0 0 0 0 0 0 0 0 0 0 0 0 0 0 0 0 0 0 0 0 0 0 0 0 0 0 0 0 0 0 0 0 0 0 0 0 0 0 0 0 0 0 0 0 0 0 0 0-0.006c0 0 0 0 0 0s0-0.006 0-0.006c0 0 0 0 0 0s0 0 0-0.006c0 0 0 0 0 0s0 0 0-0.006c0 0 0 0 0 0s0 0 0 0 0 0 0 0 0 0 0 0 0 0 0 0 0 0 0 0 0 0 0 0 0 0 0 0 0 0 0 0 0 0 0 0 0 0 0 0 0 0 0 0 0 0 0 0 0 0 0-0.006c0 0 0 0 0 0s0 0 0-0.006c0 0 0 0 0 0s0 0 0 0 0 0 0 0 0 0 0 0 0 0 0 0 0 0 0 0 0 0 0 0 0 0 0 0 0 0 0 0 0 0 0 0 0 0 0 0 0 0 0 0 0 0 0 0 0 0 0-0.006c0 0 0 0 0 0s0-0.006 0-0.006c0 0 0 0 0 0s0 0 0-0.006c0 0 0 0 0 0s0 0 0 0 0 0 0 0 0 0 0 0 0 0 0 0 0 0 0 0 0 0 0 0 0 0 0 0 0 0 0 0 0 0 0 0 0 0 0 0 0 0 0 0 0 0 0 0 0 0 0 0 0 0 0 0 0-0.006 0-0.011c0 0 0 0 0 0s0 0 0-0.006c0 0 0 0 0 0s0 0 0 0 0 0 0 0 0 0 0 0 0 0 0 0 0 0 0 0 0 0 0 0 0 0 0 0 0 0 0 0 0 0 0 0 0 0 0 0 0 0 0-0.006c0 0 0 0 0 0s0 0 0-0.006c0 0 0 0 0 0s0-0.006 0-0.006c0 0 0 0 0 0s0 0 0-0.006c0 0 0 0 0 0s0 0 0 0 0 0 0 0 0 0 0 0 0 0 0 0 0 0 0 0 0 0 0 0 0 0 0 0 0 0 0 0 0 0 0 0 0 0 0 0 0 0 0 0 0 0 0 0 0 0 0-0.006c0 0 0 0 0 0s0-0.006 0-0.006c0 0 0 0 0 0s0 0 0 0 0 0 0 0 0 0 0 0 0 0 0 0 0 0 0 0 0 0 0 0 0 0 0 0 0 0 0 0 0 0 0 0 0 0 0 0 0 0 0 0 0 0 0 0 0 0 0 0 0 0 0 0 0 0 0-0.006c0 0 0 0 0 0s0 0 0-0.006c0 0 0 0 0 0s0 0 0-0.006c0 0 0 0 0 0s0 0 0 0 0 0 0 0 0 0 0 0 0 0 0 0 0 0 0 0 0 0 0 0 0 0 0 0 0 0 0 0 0 0 0 0 0 0 0 0 0 0 0 0 0 0 0 0 0 0 0-0.006c0 0 0 0 0 0s0 0 0-0.006c0 0 0 0 0 0s0 0 0-0.006c0 0 0 0 0 0s0 0 0 0 0 0 0 0 0 0 0 0 0 0 0 0 0 0 0 0 0 0 0 0 0 0 0 0 0 0 0 0 0 0 0 0 0 0 0 0 0 0 0 0 0 0 0 0 0 0 0 0 0 0 0 0 0 0 0-0.006c0 0 0 0 0 0s0 0 0-0.006c0 0 0 0 0 0s0 0 0 0 0 0 0 0 0 0 0 0 0 0 0 0 0 0 0 0 0 0 0 0 0 0 0 0 0 0 0 0 0 0 0 0 0 0 0 0 0 0 0 0 0 0 0 0 0 0 0 0 0 0 0 0 0 0 0-0.006c0 0 0 0 0 0s0 0 0-0.006c0 0 0 0 0 0s0 0 0-0.006c0 0 0 0 0 0s0 0 0 0 0 0 0 0 0 0 0 0 0 0 0 0 0 0 0 0 0 0 0 0 0 0 0 0 0 0 0 0 0 0 0 0 0 0 0 0 0 0 0 0 0 0 0 0 0 0 0-0.006c0 0 0 0 0 0s0 0 0-0.006c0 0 0 0 0 0s0 0 0-0.006c0 0 0 0 0 0s0 0 0 0 0 0 0 0 0 0 0 0 0 0 0 0 0 0 0 0 0 0 0 0 0 0 0 0 0 0 0 0 0 0 0 0 0 0 0 0 0 0 0 0 0 0 0 0 0 0 0-0.006c0 0 0 0 0 0s0 0 0-0.006c0 0 0 0 0 0s0 0 0-0.006c0 0 0 0 0 0s0 0 0 0 0 0 0 0 0 0 0 0 0 0 0 0 0 0 0 0 0 0 0 0 0 0 0 0 0 0 0 0 0 0 0 0 0 0 0 0 0 0 0 0 0 0 0 0 0 0 0-0.006c0 0 0 0 0 0s0-0.006 0-0.006c0 0 0 0 0 0s0 0 0-0.006c0 0 0 0 0 0s0 0 0 0 0 0 0 0 0 0 0 0 0 0 0 0 0 0 0 0 0 0 0 0 0 0 0 0 0 0 0 0 0 0 0-0.006c0 0 0 0 0 0s0 0 0-0.006c0 0 0 0 0 0 0-0.006 0-0.006 0-0.006s0 0 0 0 0 0 0-0.006c0 0 0 0 0 0s0 0 0-0.006c0 0 0 0 0 0s0 0 0 0 0 0 0 0 0 0 0 0 0 0 0 0 0 0 0-0.006c0 0 0 0 0 0s0 0 0-0.006c0 0 0 0 0 0s0 0 0-0.006c0 0 0 0 0 0s0 0 0-0.006c0 0 0 0 0 0s0 0 0-0.006c0 0 0 0 0 0s0 0 0-0.006c0 0 0 0 0 0s0 0 0-0.006c0 0 0 0 0 0s0 0 0 0 0 0 0 0 0 0 0 0 0 0 0 0 0 0 0 0 0 0 0 0 0 0 0 0 0 0 0 0 0 0 0 0 0 0 0 0 0 0 0-0.006c0 0 0 0 0 0s0 0 0-0.006c0 0 0 0 0 0s0 0 0-0.006c0 0 0 0 0 0s0 0 0-0.006c0 0 0 0 0 0s0 0 0 0 0 0 0 0 0 0 0 0 0 0 0 0 0 0 0-0.006c0 0 0 0 0 0s0 0 0 0 0 0 0 0 0 0 0-0.006c0 0 0 0 0 0 0-0.006 0-0.006-0.006-0.011 0 0 0 0 0 0s0 0 0-0.006c0 0 0 0 0 0s0 0 0-0.006c0 0 0 0 0 0s0 0 0-0.006c0 0 0 0 0 0s0 0 0 0 0 0 0 0 0 0 0-0.006c0 0 0 0 0 0s0 0 0-0.006c0 0 0 0 0 0s0 0 0-0.006c0 0 0 0 0 0s0-0.006-0.006-0.006v0c0 0 0 0 0-0.006 0 0 0 0 0 0s0 0 0-0.006c0 0 0 0 0 0s0 0 0-0.006c0 0 0 0 0 0s0 0 0-0.006c0 0 0 0 0 0s0 0 0-0.006c0 0 0 0 0 0s0 0 0-0.006c0 0 0 0 0 0 0-0.006-0.006-0.011-0.006-0.017 0 0 0 0 0 0s0 0 0-0.006c0 0 0 0 0 0s0 0 0-0.006c0 0 0 0 0 0s0 0 0-0.006c0 0 0 0 0 0s0 0 0-0.006c0 0 0 0 0 0s0 0 0-0.006c0 0 0 0 0 0 0-0.006-0.006-0.011-0.006-0.017 0 0 0 0 0 0s0 0 0-0.006c0 0 0 0 0 0s0 0 0-0.006c0 0 0 0 0 0s0 0 0-0.006c0 0 0 0 0 0s0 0 0-0.006c0 0 0 0 0 0s0 0 0-0.006c0 0 0 0 0 0 0-0.006-0.006-0.011-0.006-0.022 0 0 0 0 0 0s0 0 0-0.006c0 0 0 0 0 0s0 0 0-0.006c0 0 0 0 0 0s0 0 0-0.006c0 0 0 0 0 0s0 0 0-0.006c0 0 0 0 0 0 0-0.006-0.006-0.011-0.006-0.022v0c0 0 0 0 0-0.006 0 0 0 0 0 0s0 0 0-0.006c0 0 0 0 0 0s0 0 0-0.006c0 0 0 0 0 0s0 0 0-0.006c0 0 0 0 0 0s0 0 0-0.006c0 0 0 0 0 0-0.006-0.006-0.006-0.011-0.011-0.022 0 0 0 0 0 0s0 0 0-0.006c0 0 0 0 0 0s0 0 0-0.006c0 0 0 0 0 0s0 0 0-0.006c0 0 0 0 0 0-0.006-0.011-0.011-0.022-0.017-0.034 0 0 0 0 0 0-0.307-0.665-0.453-0.894-0.632-1.101v0z"></path>
</svg>
