<!-- Generated by IcoMoon.io -->
<svg version="1.1" xmlns="http://www.w3.org/2000/svg" width="32" height="32" viewBox="0 0 32 32">
<title>placeholder1</title>
<path fill="#444" d="M16 2c-7.731 0-14 6.268-14 14s6.268 14 14 14 14-6.268 14-14-6.268-14-14-14zM25.131 21.674l-4.208-5.19-3.104 4.089-5.511-7.503-5.864 7.856c-0.763-1.477-1.192-3.15-1.192-4.925 0-5.939 4.811-10.75 10.75-10.75s10.75 4.811 10.75 10.75c0 2.083-0.592 4.026-1.619 5.674zM21.218 11.009c0 1.071-0.869 1.94-1.94 1.94s-1.94-0.869-1.94-1.94c0-1.071 0.869-1.94 1.94-1.94s1.94 0.869 1.94 1.94z"></path>
</svg>
