<!-- Generated by IcoMoon.io -->
<svg version="1.1" xmlns="http://www.w3.org/2000/svg" width="32" height="32" viewBox="0 0 32 32">
<title>portfolio</title>
<path fill="#444" d="M28.299 8.232h-3.422c-0.37 0-0.555-0.277-0.555-0.555v-3.237c0-1.295-1.017-2.312-2.312-2.312h-12.022c-1.295 0.092-2.312 1.11-2.312 2.312v3.237c0 0.277-0.277 0.555-0.555 0.555h-3.422c-1.757 0-3.144 1.387-3.144 3.144v4.994c0 0.37 0.092 0.647 0.37 0.925l4.346 4.254c0.092 0.092 0.277 0.185 0.37 0.185h8.323c0.185-1.757 1.017-3.144 2.034-3.144s1.849 1.387 2.034 3.144h8.323c0.185 0 0.277-0.092 0.37-0.185l4.346-4.346c0.277-0.277 0.37-0.555 0.37-0.925v-4.901c0-1.757-1.48-3.144-3.144-3.144zM20.901 7.677c0 0.277-0.277 0.555-0.555 0.555h-8.6c-0.277 0-0.555-0.277-0.555-0.555v-2.404c0-0.277 0.277-0.555 0.555-0.555h8.6c0.277 0 0.555 0.277 0.555 0.555v2.404zM30.611 20.254l-3.144 3.144c-0.092 0.092-0.185 0.092-0.37 0.092h-9.063c-0.185 1.757-1.017 3.052-2.034 3.052s-1.757-1.295-2.034-3.052h-9.063c-0.092 0-0.277-0.092-0.37-0.092l-3.144-3.144c-0.277-0.277-0.832-0.092-0.832 0.37v6.196c0 1.665 1.387 3.052 3.052 3.052h24.783c1.665 0 3.052-1.387 3.052-3.052v-6.196c0-0.462-0.555-0.647-0.832-0.37zM17.387 22.566c0 1.43-0.621 2.589-1.387 2.589s-1.387-1.159-1.387-2.589c0-1.43 0.621-2.589 1.387-2.589s1.387 1.159 1.387 2.589z"></path>
</svg>
