<!-- Generated by IcoMoon.io -->
<svg version="1.1" xmlns="http://www.w3.org/2000/svg" width="32" height="32" viewBox="0 0 32 32">
<title>position-sell</title>
<path fill="#444" d="M26.309 2.028h-20.619c-2.016 0-3.663 1.647-3.663 3.663v20.619c0 2.016 1.647 3.663 3.663 3.663h20.619c2.016 0 3.663-1.647 3.663-3.663v-20.619c0-2.016-1.647-3.663-3.663-3.663zM16.028 27.028c-5.863 0-10.753-4.637-10.991-10.55-0.259-6.403 5.037-11.7 11.441-11.441 5.913 0.237 10.55 5.128 10.55 10.991 0 6.009-4.991 11-11 11zM22.978 16.891c0 0.303-0.247 0.55-0.55 0.55h-12.853c-0.303 0-0.55-0.247-0.55-0.55v-1.756c0-0.303 0.247-0.55 0.55-0.55h12.853c0.303 0 0.55 0.247 0.55 0.55v1.756z"></path>
</svg>
