<!-- Generated by IcoMoon.io -->
<svg version="1.1" xmlns="http://www.w3.org/2000/svg" width="32" height="32" viewBox="0 0 32 32">
<title>position-buy</title>
<path fill="#444" d="M26.309 2.028h-20.619c-2.016 0-3.663 1.647-3.663 3.663v20.619c0 2.016 1.647 3.663 3.663 3.663h20.619c2.016 0 3.663-1.647 3.663-3.663v-20.619c0-2.016-1.647-3.663-3.663-3.663zM16.028 27.028c-5.863 0-10.753-4.637-10.991-10.55-0.259-6.403 5.037-11.7 11.441-11.441 5.913 0.237 10.55 5.128 10.55 10.991 0 6.009-4.991 11-11 11zM22.978 16.884c0 0.303-0.2 0.553-0.503 0.553h-4.488c-0.303 0-0.5 0.244-0.5 0.547v4.519c0 0.303-0.294 0.541-0.597 0.541h-1.7c-0.303 0-0.563-0.238-0.563-0.541v-4.522c0-0.303-0.238-0.547-0.541-0.547h-4.487c-0.303 0-0.578-0.25-0.578-0.553v-1.716c0-0.303 0.275-0.591 0.578-0.591h4.491c0.303 0 0.541-0.203 0.541-0.506v-4.513c0-0.303 0.256-0.578 0.563-0.578h1.7c0.303 0 0.597 0.275 0.597 0.578v4.519c0 0.303 0.197 0.506 0.5 0.506h4.488c0.303 0 0.503 0.287 0.503 0.591v1.713h-0.003z"></path>
</svg>
