<!-- Generated by IcoMoon.io -->
<svg version="1.1" xmlns="http://www.w3.org/2000/svg" width="32" height="32" viewBox="0 0 32 32">
<title>preview</title>
<path fill="#444" d="M20.624 25.784h-9.248c-0.451 0-0.816 0.365-0.816 0.816 0 0.45 0.365 0.816 0.816 0.816h9.248c0.451 0 0.816-0.366 0.816-0.816 0-0.451-0.366-0.816-0.816-0.816zM25.535 11.465c0 1.381-1.119 2.5-2.5 2.5s-2.5-1.119-2.5-2.5c0-1.381 1.119-2.5 2.5-2.5s2.5 1.119 2.5 2.5zM29.696 4.585h-27.391c-0.601 0-0.962 0.361-0.962 0.961v17.54c0 0.601 0.601 0.961 1.202 0.961h27.151c0.601 0 0.961-0.36 0.961-0.961v-17.54c0-0.601-0.36-0.961-0.961-0.961zM29.215 22.125c0 0.3-0.18 0.481-0.48 0.481h-6.379l-3.772-6.224c-0.346-0.38-0.944-0.335-1.232 0.093l-1.906 2.831c-0.333 0.494-1.052 0.462-1.342-0.060l-4.519-8.144c-0.314-0.566-1.112-0.545-1.398 0.036l-5.401 10.979v-15.609c0-0.3 0.18-0.481 0.48-0.481h25.47c0.299 0 0.48 0.18 0.48 0.481v15.618z"></path>
</svg>
