<!-- Generated by IcoMoon.io -->
<svg version="1.1" xmlns="http://www.w3.org/2000/svg" width="32" height="32" viewBox="0 0 32 32">
<title>print</title>
<path fill="#444" d="M19.225 22.968h-9.011c-0.282 0-0.511 0.229-0.511 0.511v0.872c0 0.282 0.229 0.511 0.511 0.511h9.011c0.282 0 0.511-0.229 0.511-0.511v-0.872c0-0.282-0.229-0.511-0.511-0.511zM21.12 18.843h-10.906c-0.282 0-0.511 0.229-0.511 0.511v1.095c0 0.282 0.229 0.511 0.511 0.511h10.906c0.282 0 0.511-0.229 0.511-0.511v-1.095c0-0.282-0.229-0.511-0.511-0.511zM29.966 5.687h-3.039c-0.282 0-0.5-0.264-0.5-0.547v-1.142c0-0.875-0.894-1.545-2.045-1.545h-16.663c-1.15 0-2.141 0.67-2.141 1.545v1.142c0 0.282-0.215 0.547-0.497 0.547h-4.569c-0.284 0-0.508 0.197-0.508 0.481v15.483l-0.003-0.021h5.471c0.282 0 0.553 0.259 0.553 0.541v6.916c0 0.282 0.188 0.459 0.47 0.459h19.019c0.282 0 0.467-0.176 0.467-0.459v-6.916c0-0.282 0.273-0.541 0.556-0.541h4.964c0.282 0 0.501-0.199 0.501-0.482v-13.481c0-1.102-0.931-1.98-2.035-1.98zM4.398 13.139c-1.21 0-2.191-0.981-2.191-2.191s0.981-2.191 2.191-2.191c1.21 0 2.191 0.981 2.191 2.191s-0.981 2.191-2.191 2.191zM23.973 27.139c0 0.282-0.229 0.511-0.512 0.511h-15.032c-0.282 0-0.512-0.229-0.512-0.511v-10.906c0-0.282 0.229-0.511 0.512-0.511h15.032c0.282 0 0.512 0.229 0.512 0.511v10.906zM24.308 5.14c0 0.282-0.204 0.547-0.486 0.547h-15.636c-0.282 0-0.49-0.264-0.49-0.547v-0.143c0-0.552 0.361-0.983 0.778-0.983h15.151c0.417 0 0.683 0.431 0.683 0.983v0.143z"></path>
</svg>
