<!-- Generated by IcoMoon.io -->
<svg version="1.1" xmlns="http://www.w3.org/2000/svg" width="32" height="32" viewBox="0 0 32 32">
<title>profile</title>
<path fill="#444" d="M10.32 9.88c0 1.058-0.861 1.92-1.923 1.92s-1.923-0.861-1.923-1.92 0.861-1.92 1.923-1.92c1.065 0.004 1.923 0.861 1.923 1.92z"></path>
<path fill="#444" d="M10.32 16c0 1.058-0.861 1.92-1.923 1.92s-1.923-0.858-1.923-1.92c0-1.062 0.861-1.92 1.923-1.92 1.065 0 1.923 0.861 1.923 1.92z"></path>
<path fill="#444" d="M10.32 22.12c0 1.058-0.861 1.92-1.923 1.92s-1.923-0.858-1.923-1.92 0.861-1.92 1.923-1.92c1.065 0 1.923 0.858 1.923 1.92z"></path>
<path fill="#444" d="M25.237 17.147h-12.429c-0.157 0-0.286-0.129-0.286-0.286v-1.719c0-0.157 0.129-0.286 0.286-0.286h12.429c0.157 0 0.286 0.129 0.286 0.286v1.719c0 0.157-0.129 0.286-0.286 0.286z"></path>
<path fill="#444" d="M25.237 11.035h-12.429c-0.157 0-0.286-0.129-0.286-0.286v-1.719c0-0.157 0.129-0.286 0.286-0.286h12.429c0.157 0 0.286 0.129 0.286 0.286v1.719c0 0.157-0.129 0.286-0.286 0.286v0z"></path>
<path fill="#444" d="M25.237 23.256h-12.429c-0.157 0-0.286-0.129-0.286-0.286v-1.719c0-0.157 0.129-0.286 0.286-0.286h12.429c0.157 0 0.286 0.129 0.286 0.286v1.719c0 0.157-0.129 0.286-0.286 0.286z"></path>
<path fill="#444" d="M5.162 26.173h-2.234c-0.3 0-0.543-0.243-0.543-0.543v-19.282c0-0.3 0.243-0.543 0.543-0.543h2.234c0.3 0 0.543-0.243 0.543-0.543v-1.312c0-0.3-0.243-0.543-0.543-0.543h-4.633c-0.3 0-0.543 0.243-0.543 0.543v24.079c0 0.3 0.243 0.543 0.543 0.543h4.633c0.3 0 0.543-0.243 0.543-0.543v-1.312c0-0.3-0.243-0.543-0.543-0.543z"></path>
<path fill="#444" d="M26.295 3.95v1.312c0 0.3 0.243 0.543 0.543 0.543h2.206c0.3 0 0.543 0.243 0.543 0.543v19.282c0 0.3-0.243 0.543-0.543 0.543h-2.206c-0.3 0-0.543 0.243-0.543 0.543v1.312c0 0.3 0.243 0.543 0.543 0.543h4.604c0.3 0 0.543-0.243 0.543-0.543v-24.079c0-0.3-0.243-0.543-0.543-0.543h-4.604c-0.3 0-0.543 0.243-0.543 0.543z"></path>
</svg>
