<!-- Generated by IcoMoon.io -->
<svg version="1.1" xmlns="http://www.w3.org/2000/svg" width="32" height="32" viewBox="0 0 32 32">
<title>program-add</title>
<path fill="#444" d="M24.006 16.434c-4.141 0-7.528 3.406-7.528 7.572s3.391 7.572 7.528 7.572 7.528-3.409 7.528-7.572-3.387-7.572-7.528-7.572v0 0zM27.816 24.469c0 0.163-0.178 0.306-0.344 0.306h-2.419c-0.163 0-0.328 0.125-0.328 0.288v2.434c0 0.163-0.103 0.366-0.269 0.366h-0.916c-0.163 0-0.294-0.203-0.294-0.366v-2.434c0-0.163-0.131-0.288-0.297-0.288h-2.419c-0.163 0-0.372-0.144-0.372-0.306v-0.922c0-0.163 0.206-0.25 0.372-0.25h2.419c0.163 0 0.297-0.181 0.297-0.347v-2.434c0-0.163 0.131-0.309 0.294-0.309h0.916c0.163 0 0.269 0.144 0.269 0.309v2.434c0 0.163 0.163 0.347 0.328 0.347h2.419c0.163 0 0.344 0.084 0.344 0.25v0.922z"></path>
<path fill="#444" d="M16.128 26.456c-0.131 0.028-0.266 0.009-0.387-0.053l-13.012-7c-0.203-0.109-0.453-0.084-0.628 0.066l-0.903 0.762c-0.297 0.253-0.253 0.725 0.091 0.919l14.447 8.063c0.169 0.094 0.378 0.094 0.547 0l0.941-0.525c-0.469-0.678-0.844-1.425-1.094-2.231z"></path>
<path fill="#444" d="M28.919 17.416l1.813-1.012c0.341-0.191 0.387-0.666 0.091-0.919l-0.928-0.791c-0.178-0.15-0.428-0.175-0.631-0.066l-2.831 1.531c0.906 0.278 1.744 0.706 2.488 1.256z"></path>
<path fill="#444" d="M16.309 19.725l1.241-0.688c1.347-1.738 3.375-2.919 5.684-3.147l7.475-4.138c0.387-0.216 0.387-0.766 0-0.981l-14.4-7.969c-0.172-0.094-0.381-0.094-0.553 0l-14.397 7.972c-0.387 0.213-0.387 0.766 0 0.981l14.397 7.969c0.172 0.094 0.381 0.094 0.553 0z"></path>
<path fill="#444" d="M15.787 23.941c0-0.769 0.106-1.516 0.303-2.222-0.119 0.019-0.244-0.003-0.35-0.063l-13.012-7c-0.203-0.109-0.453-0.084-0.628 0.066l-0.9 0.762c-0.3 0.253-0.253 0.728 0.087 0.922l14.447 8.063c0.025 0.012 0.047 0.025 0.072 0.034-0.012-0.188-0.019-0.375-0.019-0.563z"></path>
</svg>
