<!-- Generated by IcoMoon.io -->
<svg version="1.1" xmlns="http://www.w3.org/2000/svg" width="32" height="32" viewBox="0 0 32 32">
<title>program</title>
<path fill="#444" d="M1.359 10.775l14.397-7.972c0.172-0.094 0.381-0.094 0.553 0l14.397 7.972c0.387 0.216 0.387 0.766 0 0.981l-14.397 7.969c-0.172 0.094-0.381 0.094-0.553 0l-14.397-7.969c-0.387-0.216-0.387-0.769 0-0.981z"></path>
<path fill="#444" d="M1.2 15.484l0.9-0.762c0.175-0.15 0.425-0.175 0.628-0.066l13.012 7c0.166 0.091 0.366 0.091 0.534 0l12.988-7.028c0.203-0.109 0.453-0.084 0.631 0.066l0.928 0.791c0.297 0.253 0.25 0.728-0.091 0.919l-14.45 8.066c-0.169 0.094-0.378 0.094-0.547 0l-14.447-8.063c-0.341-0.194-0.387-0.669-0.087-0.922z"></path>
<path fill="#444" d="M1.197 20.231l0.903-0.762c0.175-0.15 0.425-0.175 0.628-0.066l13.012 7c0.166 0.091 0.366 0.091 0.534 0l12.988-7.028c0.203-0.109 0.456-0.084 0.631 0.066l0.928 0.791c0.297 0.253 0.25 0.725-0.091 0.916l-14.45 8.066c-0.169 0.094-0.378 0.094-0.547 0l-14.447-8.063c-0.344-0.194-0.387-0.666-0.091-0.919z"></path>
</svg>
