<!-- Generated by IcoMoon.io -->
<svg version="1.1" xmlns="http://www.w3.org/2000/svg" width="32" height="32" viewBox="0 0 32 32">
<title>records</title>
<path fill="#444" d="M3.2 14.65h2.1c0.3 0 0.5-0.2 0.5-0.5v-1.3c0-0.3 0.2-0.5 0.5-0.5h19.4c0.3 0 0.5 0.2 0.5 0.5v1.3c0 0.3 0.2 0.5 0.5 0.5h2c0.3 0 0.5-0.2 0.5-0.5l0.2-4.1c0-0.3-0.2-0.5-0.5-0.5h-25.9c-0.3 0-0.5 0.2-0.5 0.5l0.2 4.1c0 0.3 0.2 0.5 0.5 0.5zM29.8 15.45h-7.1c-0.1 0-0.3 0.1-0.4 0.2l-2.3 2.4c-0.1 0.1-0.2 0.2-0.4 0.2h-7.3c-0.1 0-0.3-0.1-0.4-0.2l-2-2.4c0-0.1-0.2-0.2-0.3-0.2h-7.4c-0.3 0-0.5 0.2-0.5 0.5l1 12.9c0 0.3 0.2 0.5 0.5 0.5h25.3c0.3 0 0.5-0.2 0.5-0.5l1.2-12.9c0.1-0.2-0.2-0.5-0.4-0.5zM4.5 7.95h22.9c0.3 0 0.5-0.2 0.5-0.5v-1.1c0-0.3-0.2-0.5-0.5-0.5h-22.9c-0.3 0-0.5 0.2-0.5 0.5v1.1c0 0.3 0.2 0.5 0.5 0.5zM6.3 4.25h19.4c0.3 0 0.5-0.2 0.5-0.5v-0.6c0-0.3-0.2-0.5-0.5-0.5h-19.4c-0.3 0-0.5 0.2-0.5 0.5v0.6c0 0.3 0.2 0.5 0.5 0.5z"></path>
</svg>
