<!-- Generated by IcoMoon.io -->
<svg version="1.1" xmlns="http://www.w3.org/2000/svg" width="32" height="32" viewBox="0 0 32 32">
<title>refresh</title>
<path fill="#444" d="M15.994 24.727c-4.756 0-8.719-3.928-8.719-8.728 0-1.353 0.375-2.706 0.894-3.822 0.072-0.153 0.037-0.338-0.081-0.456l-1.584-1.588c-0.197-0.197-0.525-0.144-0.65 0.106-0.884 1.75-1.491 3.634-1.491 5.763 0 6.266 5.037 11.416 11.238 11.625 0.219 0.006 0.394 0.188 0.394 0.406v2.991c0 0.363 0.438 0.544 0.694 0.288l4.844-4.844c0.159-0.159 0.159-0.416 0-0.575l-4.844-4.841c-0.256-0.256-0.694-0.075-0.694 0.288v3.387zM15.994 4.358v-3.381c0-0.363-0.438-0.544-0.694-0.287l-4.838 4.838c-0.159 0.159-0.159 0.416 0 0.575l4.838 4.834c0.256 0.256 0.694 0.075 0.694-0.287v-2.963c0-0.231 0.194-0.419 0.428-0.406 4.566 0.225 8.303 4.063 8.303 8.719 0 1.353-0.372 2.697-0.891 3.816-0.072 0.153-0.038 0.337 0.081 0.456l1.584 1.584c0.197 0.197 0.525 0.141 0.65-0.106 0.878-1.75 1.488-3.631 1.488-5.75 0-6.4-5.266-11.644-11.644-11.641v0z"></path>
</svg>
