<!-- Generated by IcoMoon.io -->
<svg version="1.1" xmlns="http://www.w3.org/2000/svg" width="32" height="32" viewBox="0 0 32 32">
<title>reject</title>
<path fill="#444" d="M26.267 7.3v0l-4.792-5.249c-0.028-0.031-0.068-0.049-0.111-0.049h-13.842c-1.010 0-1.829 0.819-1.829 1.829v24.436c0 0.945 0.735 1.733 1.678 1.733h17.070c1.026 0 1.866-0.84 1.866-1.866v-20.732c0-0.037-0.012-0.074-0.040-0.102zM19.522 25.81v0c0 0-3.25 0-4.394 0-1.060 0-1.427-0.012-2.082-0.945-0.173-0.244-0.306-0.473-0.806-1.22-0.856-1.276-3.355-4.94-3.355-4.94-0.386-0.525-0.29-1.322 0.281-1.634 0.599-0.328 1.128 0.167 1.464 0.624 0.352 0.482 0.837 1.202 1.174 1.656 0.148 0.201 0.269 0.284 0.361 0.216 0.111-0.083 0.105-0.575 0.105-0.803 0-0.609 0-0.609 0.009-7.947 0-0.649 0.637-1.155 1.304-0.976 0.457 0.12 0.76 0.556 0.76 1.029v5.194c0 0.195 0.164 0.361 0.358 0.337 0.161-0.019 0.278-0.151 0.287-0.315 0-0.071-0.003-6.152-0.003-6.152 0-0.602 0.516-1.085 1.137-1.004 0.504 0.065 0.868 0.516 0.868 1.023v6.111c0 0.185 0.192 0.337 0.386 0.337s0.386-0.151 0.386-0.337v-0.003c0 0-0.025-4.801-0.025-4.801 0-0.491 0.346-0.896 0.825-0.933 0.525-0.040 0.964 0.405 0.964 0.93v4.808c0 0.185 0.179 0.337 0.386 0.337s0.386-0.151 0.386-0.337v-3.371c0-0.395 0.29-0.748 0.683-0.791 0.47-0.049 0.859 0.284 0.859 1.199v8.741c0.003 1.199 0.043 3.97-2.32 3.97zM24.45 7.806v0l-2.954-0.031c-0.083 0-0.151-0.068-0.151-0.151v-3.083c0-0.136 0.167-0.204 0.263-0.105l2.954 3.111c0.093 0.099 0.022 0.26-0.111 0.26z"></path>
</svg>
