<!-- Generated by IcoMoon.io -->
<svg version="1.1" xmlns="http://www.w3.org/2000/svg" width="32" height="32" viewBox="0 0 32 32">
<title>rel-constant</title>
<path fill="#444" d="M14.717 8.3h2.39c0.531 0 0.885 0.354 0.885 0.885v13.63c0 0.531-0.354 0.885-0.885 0.885h-2.39c-0.531 0-0.885-0.354-0.885-0.885v-13.63c0-0.443 0.354-0.885 0.885-0.885zM5.601 8.3h2.39c0.531 0 0.885 0.354 0.885 0.885v13.63c0 0.531-0.354 0.885-0.885 0.885h-2.39c-0.531 0-0.885-0.354-0.885-0.885v-13.63c0-0.443 0.354-0.885 0.885-0.885zM24.010 8.3h2.39c0.531 0 0.885 0.354 0.885 0.885v13.63c0 0.531-0.354 0.885-0.885 0.885h-2.39c-0.531 0-0.885-0.354-0.885-0.885v-13.63c0-0.443 0.354-0.885 0.885-0.885z"></path>
</svg>
