<!-- Generated by IcoMoon.io -->
<svg version="1.1" xmlns="http://www.w3.org/2000/svg" width="32" height="32" viewBox="0 0 32 32">
<title>rel-decrease</title>
<path fill="#444" d="M17.309 8.328h-2.437c-0.542 0-0.903 0.361-0.903 0.903v13.9c0 0.542 0.361 0.903 0.903 0.903h2.437c0.542 0 0.903-0.361 0.903-0.903v-13.9c0-0.451-0.361-0.903-0.903-0.903zM7.832 2.1h-2.437c-0.542 0-0.903 0.361-0.903 0.903v25.994c0 0.542 0.361 0.903 0.903 0.903h2.437c0.542 0 0.903-0.361 0.903-0.903v-25.994c0-0.542-0.361-0.903-0.903-0.903zM26.605 13.473h-2.437c-0.542 0-0.903 0.361-0.903 0.903v3.159c0 0.542 0.361 0.903 0.903 0.903h2.437c0.542 0 0.903-0.361 0.903-0.903v-3.159c0-0.451-0.361-0.903-0.903-0.903z"></path>
</svg>
