<!-- Generated by IcoMoon.io -->
<svg version="1.1" xmlns="http://www.w3.org/2000/svg" width="32" height="32" viewBox="0 0 32 32">
<title>restore</title>
<path fill="#444" d="M16.683 2.227c-4.923 0-9.302 2.588-11.68 6.576-0.114 0.192-0.378 0.225-0.536 0.067l-2.433-2.435c-0.216-0.216-0.581-0.063-0.581 0.242v8.254c0 0.189 0.146 0.396 0.335 0.396h8.263c0.305 0 0.458-0.396 0.242-0.612l-3.298-3.307c-0.107-0.107-0.133-0.279-0.060-0.411 1.918-3.501 5.485-5.867 9.748-5.867 5.95 0 10.884 4.927 10.884 10.871s-4.934 10.872-10.884 10.872c-4.706 0-8.571-2.938-10.219-7.030-0.053-0.131-0.178-0.216-0.318-0.216h-2.356c-0.231 0-0.397 0.223-0.328 0.444 1.743 5.575 6.999 9.702 13.22 9.702 7.691 0 13.787-6.234 13.787-13.773s-6.24-13.773-13.787-13.773zM17.123 9.807c-0.059-0.005-0.088-0.011-0.128-0.012l-1.421-0.011c-0.198 0-0.362 0.161-0.362 0.359v6.854c0 0.121 0.087 0.233 0.191 0.294l6.375 3.787c0.161 0.096 0.375 0.045 0.473-0.115l0.805-1.302c0.1-0.163 0.050-0.375-0.114-0.474l-5.377-3.201c-0.103-0.062-0.202-0.174-0.202-0.294v-5.395c0-0.443-0.239-0.491-0.239-0.491z"></path>
</svg>
