<!-- Generated by IcoMoon.io -->
<svg version="1.1" xmlns="http://www.w3.org/2000/svg" width="32" height="32" viewBox="0 0 32 32">
<title>return</title>
<path fill="#444" d="M10.113 29.414c0 0.193 0.193 0.386 0.386 0.29 11.098-0.096 19.108-4.729 19.108-10.905s-9.168-10.905-20.362-10.905c0 0 0.29 0 0.29 0v-5.211c0-0.289-0.386-0.482-0.676-0.289l-6.369 6.273c-0.096 0.097-0.096 0.386 0 0.482l6.369 6.273c0.193 0.193 0.676 0.097 0.676-0.29v-4.536c0.965 0 0.29 0 0.579 0 8.782 0 15.923 3.667 15.923 8.106s-4.922 7.045-13.703 7.045c-0.193 0-1.062 0-1.93 0-0.193 0-0.386 0.193-0.386 0.386l0.097 3.281z"></path>
</svg>
