<!-- Generated by IcoMoon.io -->
<svg version="1.1" xmlns="http://www.w3.org/2000/svg" width="32" height="32" viewBox="0 0 32 32">
<title>reusable</title>
<path fill="#444" d="M14.525 2.003l5.706-0.006c0 0 1.509 0.041 3.181 2.738l1.637 2.772c0.1 0.175 0.322 0.234 0.497 0.141v0c0.316-0.169 0.656 0.153 0.509 0.475l-0.872 1.906-1.216 2.662c-0.066 0.147-0.228 0.234-0.397 0.216l-4.966-0.759c-0.35-0.053-0.428-0.525-0.122-0.691l0.563-0.303c0.181-0.094 0.247-0.322 0.147-0.503l-3.006-5.572c-0.006-0.006-0.006-0.013-0.012-0.019-0.059-0.134-0.713-1.516-1.872-2.381-0.281-0.219-0.141-0.675 0.222-0.675v0zM6.278 22.481c-0.088 0.122-0.953 1.381-1.116 2.819-0.041 0.356-0.503 0.462-0.684 0.153l-2.894-4.909c0 0-0.725-1.322 0.753-4.128l1.563-2.819c0.094-0.175 0.041-0.397-0.134-0.497v0c-0.303-0.181-0.2-0.65 0.153-0.684l5-0.509c0.169-0.019 0.322 0.081 0.381 0.228l1.081 2.719 0.778 1.953c0.134 0.328-0.234 0.637-0.537 0.456l-0.544-0.328c-0.175-0.106-0.403-0.047-0.509 0.128l-3.278 5.406c-0.006 0-0.013 0.006-0.013 0.012v0zM13.438 28.778c-0.006 0.2-0.175 0.369-0.375 0.363l-3.556-0.059c-0.012 0-0.034 0-0.047-0.006-0.303-0.047-3.122-0.538-3.075-3.053 0-0.019 0-0.041-0.006-0.059-0.034-0.188-0.141-1.35 1.328-3.403 0.075-0.1 0.188-0.163 0.309-0.153l5.169 0.116c0.2 0.006 0.369 0.175 0.363 0.375l-0.109 5.881zM15.372 6.359l-2.713 4.397c-0.106 0.175-0.334 0.228-0.509 0.122l-5.022-3.075c-0.175-0.106-0.228-0.334-0.122-0.509l1.853-3.034c0.006-0.013 0.019-0.028 0.028-0.041 0.194-0.234 2.047-2.422 4.188-1.106 0.019 0.013 0.034 0.019 0.053 0.028 0.175 0.066 1.234 0.556 2.262 2.872 0.053 0.112 0.047 0.247-0.019 0.347v0zM29.881 22.622l-2.706 5.022c0 0-0.759 1.309-3.919 1.497l-3.222 0.122c-0.2 0.006-0.356 0.169-0.356 0.369v0c0 0.356-0.45 0.509-0.666 0.222l-1.262-1.678-1.766-2.334c-0.1-0.134-0.1-0.316 0-0.45l3.028-4.006c0.216-0.281 0.666-0.134 0.666 0.222v0.637c0 0.2 0.169 0.369 0.369 0.369h6.328c0.006 0 0.012 0 0.028 0 0.147 0.006 1.672 0.1 2.988-0.516 0.331-0.137 0.659 0.209 0.491 0.525v0zM29.225 20.772c-0.019 0.012-0.034 0.019-0.053 0.034-0.141 0.122-1.081 0.819-3.597 0.625-0.122-0.006-0.234-0.081-0.297-0.181l-2.578-4.478c-0.1-0.175-0.041-0.403 0.134-0.503l5.088-2.956c0.175-0.1 0.403-0.041 0.503 0.134l1.791 3.069c0.006 0.012 0.012 0.028 0.019 0.047 0.125 0.275 1.166 2.947-1.009 4.209v0z"></path>
</svg>
