<!-- Generated by IcoMoon.io -->
<svg version="1.1" xmlns="http://www.w3.org/2000/svg" width="32" height="32" viewBox="0 0 32 32">
<title>reusable-add</title>
<path fill="#444" d="M24.006 16.434c-4.141 0-7.528 3.406-7.528 7.572s3.391 7.572 7.528 7.572 7.528-3.409 7.528-7.572-3.387-7.572-7.528-7.572v0 0zM27.816 24.469c0 0.163-0.178 0.306-0.344 0.306h-2.419c-0.163 0-0.328 0.125-0.328 0.288v2.434c0 0.163-0.103 0.366-0.269 0.366h-0.916c-0.163 0-0.294-0.203-0.294-0.366v-2.434c0-0.163-0.131-0.288-0.297-0.288h-2.419c-0.163 0-0.372-0.144-0.372-0.306v-0.922c0-0.163 0.206-0.25 0.372-0.25h2.419c0.163 0 0.297-0.181 0.297-0.347v-2.434c0-0.163 0.131-0.309 0.294-0.309h0.916c0.163 0 0.269 0.144 0.269 0.309v2.434c0 0.163 0.163 0.347 0.328 0.347h2.419c0.163 0 0.344 0.084 0.344 0.25v0.922z"></path>
<path fill="#444" d="M10.078 16.934l0.544 0.328c0.303 0.181 0.672-0.128 0.537-0.456l-0.778-1.953-1.081-2.719c-0.059-0.147-0.213-0.247-0.381-0.228l-5 0.509c-0.353 0.034-0.456 0.503-0.153 0.684 0.175 0.1 0.228 0.322 0.134 0.497l-1.563 2.819c-1.478 2.806-0.753 4.128-0.753 4.128l2.894 4.909c0.181 0.309 0.644 0.203 0.684-0.153 0.162-1.438 1.028-2.697 1.116-2.819 0-0.006 0.006-0.012 0.013-0.012l3.278-5.406c0.106-0.175 0.334-0.234 0.509-0.128z"></path>
<path fill="#444" d="M14.303 2.678c1.159 0.866 1.813 2.247 1.872 2.381 0.006 0.006 0.006 0.013 0.012 0.019l3.006 5.572c0.1 0.181 0.034 0.409-0.147 0.503l-0.563 0.303c-0.306 0.166-0.228 0.637 0.122 0.691l4.966 0.759c0.169 0.019 0.331-0.069 0.397-0.216l1.216-2.662 0.872-1.906c0.147-0.322-0.194-0.644-0.509-0.475-0.175 0.094-0.397 0.034-0.497-0.141l-1.637-2.772c-1.672-2.697-3.181-2.737-3.181-2.737l-5.706 0.006c-0.363 0-0.503 0.456-0.222 0.675z"></path>
<path fill="#444" d="M13.128 3.141c-0.019-0.009-0.034-0.016-0.053-0.028-2.141-1.316-3.994 0.872-4.188 1.106-0.009 0.013-0.022 0.028-0.028 0.041l-1.853 3.034c-0.106 0.175-0.053 0.403 0.122 0.509l5.022 3.075c0.175 0.106 0.403 0.053 0.509-0.122l2.713-4.397c0.066-0.1 0.072-0.234 0.019-0.347-1.028-2.316-2.088-2.806-2.262-2.872z"></path>
<path fill="#444" d="M13.184 22.522l-5.169-0.116c-0.122-0.009-0.234 0.053-0.309 0.153-1.469 2.053-1.362 3.216-1.328 3.403 0.006 0.019 0.006 0.041 0.006 0.059-0.047 2.516 2.772 3.006 3.075 3.053 0.012 0.006 0.034 0.006 0.047 0.006l3.556 0.059c0.2 0.006 0.369-0.163 0.375-0.363v0l0.109-5.881c0.006-0.2-0.162-0.369-0.363-0.375z"></path>
</svg>
