<!-- Generated by IcoMoon.io -->
<svg version="1.1" xmlns="http://www.w3.org/2000/svg" width="32" height="32" viewBox="0 0 32 32">
<title>reverse</title>
<path fill="#444" d="M16.722 2.228c-4.925 0-9.303 2.587-11.681 6.575-0.116 0.191-0.378 0.225-0.534 0.066l-2.434-2.434c-0.216-0.216-0.581-0.063-0.581 0.244v8.253c0 0.191 0.147 0.397 0.334 0.397h8.262c0.306 0 0.459-0.397 0.241-0.613l-3.294-3.306c-0.106-0.106-0.131-0.278-0.059-0.412 1.919-3.5 5.484-5.869 9.747-5.869 5.95 0 10.884 4.928 10.884 10.872s-4.934 10.872-10.884 10.872c-4.706 0-8.572-2.938-10.219-7.031-0.053-0.131-0.178-0.216-0.319-0.216h-2.356c-0.231 0-0.397 0.222-0.328 0.444 1.744 5.575 7 9.7 13.219 9.7 7.697 0.003 13.791-6.231 13.791-13.769s-6.241-13.772-13.788-13.772v0z"></path>
</svg>
