<!-- Generated by IcoMoon.io -->
<svg version="1.1" xmlns="http://www.w3.org/2000/svg" width="32" height="32" viewBox="0 0 32 32">
<title>review</title>
<path fill="#444" d="M6.185 11.725l2.22-2.991c0.388-0.524 0.984-0.867 1.631-0.952 0.647-0.071 1.308 0.11 1.813 0.524l1.088 0.9c0.46 0.375 1.126 0.304 1.502-0.149s0.304-1.126-0.149-1.502l-1.094-0.893c-0.952-0.783-2.201-1.146-3.431-0.997-1.224 0.149-2.35 0.803-3.088 1.793l-4.091 5.509h1.036c0.744-0.583 1.612-1.010 2.564-1.243zM19.055 9.207l1.088-0.893c0.505-0.414 1.165-0.602 1.813-0.524s1.243 0.427 1.631 0.952l2.208 2.965c0.984 0.227 1.89 0.667 2.661 1.269h0.939l-4.098-5.509c-0.738-0.99-1.858-1.644-3.088-1.793-1.224-0.155-2.473 0.214-3.431 0.997l-1.088 0.893c-0.46 0.375-0.524 1.049-0.149 1.502 0.388 0.447 1.055 0.511 1.515 0.142zM31.996 15.059c0-0.563-0.46-1.023-1.023-1.023h-2.784c-1.126-0.803-2.499-1.275-3.988-1.275s-2.861 0.473-3.988 1.275h-8.442c-1.126-0.803-2.499-1.275-3.988-1.275s-2.861 0.473-3.988 1.275h-2.777c-0.563 0-1.023 0.46-1.023 1.023 0 0 0 0.006 0 0.006s0 0.006 0 0.006v1.554c0 0.57 0.466 1.036 1.036 1.036h0.168c0 0.013 0 0.026 0 0.032-0.181 0.609-0.272 1.256-0.272 1.929 0 3.787 3.075 6.862 6.862 6.862s6.862-3.075 6.862-6.862c0-0.35-0.026-0.693-0.078-1.029 0.298-0.563 0.893-0.932 1.554-0.932h0.006c0.544 0 1.036 0.265 1.34 0.686-0.078 0.414-0.117 0.842-0.117 1.275 0 3.787 3.075 6.862 6.862 6.862s6.862-3.075 6.862-6.862c0-0.492-0.052-0.971-0.149-1.431 0.026-0.175 0.039-0.356 0.045-0.531 0.57 0 1.029-0.466 1.029-1.036v-1.554c-0.013-0.006-0.013-0.006-0.013-0.013 0 0 0 0 0 0zM7.732 24.666c-2.713 0-4.92-2.201-4.92-4.92 0-2.713 2.201-4.92 4.92-4.92 2.713 0 4.92 2.201 4.92 4.92s-2.208 4.92-4.92 4.92zM24.305 24.537c-2.713 0-4.92-2.201-4.92-4.92 0-2.713 2.201-4.92 4.92-4.92 2.713 0 4.92 2.201 4.92 4.92s-2.208 4.92-4.92 4.92z"></path>
</svg>
