<!-- Generated by IcoMoon.io -->
<svg version="1.1" xmlns="http://www.w3.org/2000/svg" width="32" height="32" viewBox="0 0 32 32">
<title>roles</title>
<path fill="#444" d="M4.741 19.54c0 0 3.257 7.789 11.33 7.789s11.329-7.789 11.329-7.789-6.090 1.416-11.471 1.416c-5.382 0-11.188-1.416-11.188-1.416zM29.241 11.043c-5.948-1.841-10.621-6.373-13.171-6.373s-7.223 4.532-13.171 6.373c-0.991 0.283-1.416 1.416-0.85 2.266 1.275 1.699 2.691 1.841 2.691 3.824 0 0 5.665 1.416 11.33 1.416s11.329-1.416 11.329-1.416c0-1.983 1.416-2.124 2.549-3.965 0.567-0.708 0.142-1.841-0.708-2.124zM16.071 16c-1.558 0-2.832-2.691-2.832-4.249 0 0 1.275-1.416 2.832-1.416s2.832 1.416 2.832 1.416c0 1.558-1.275 4.249-2.832 4.249z"></path>
</svg>
