<!-- Generated by IcoMoon.io -->
<svg version="1.1" xmlns="http://www.w3.org/2000/svg" width="32" height="32" viewBox="0 0 32 32">
<title>row-expand</title>
<path fill="#444" d="M25.474 10.904c-2.477 0-4.526 1.743-4.994 4.077h-8.959c-0.469-2.334-2.518-4.077-4.994-4.077-2.827 0-5.096 2.27-5.096 5.096s2.27 5.096 5.096 5.096c2.477 0 4.526-1.743 4.994-4.077h8.959c0.469 2.334 2.518 4.077 4.994 4.077 2.827 0 5.096-2.27 5.096-5.096s-2.27-5.096-5.096-5.096zM6.499 19.143c-1.716 0-3.109-1.393-3.109-3.109s1.393-3.109 3.109-3.109 3.109 1.393 3.109 3.109-1.393 3.109-3.109 3.109z"></path>
</svg>
