<!-- Generated by IcoMoon.io -->
<svg version="1.1" xmlns="http://www.w3.org/2000/svg" width="32" height="32" viewBox="0 0 32 32">
<title>row-collapse</title>
<path fill="#444" d="M25.28 18.307c-2.364 0-4.329 1.623-4.847 3.824h-3.297v-12.422h3.22c0.458 2.281 2.46 3.984 4.88 3.984 2.762 0 4.98-2.218 4.98-4.98s-2.218-4.98-4.98-4.98c-2.42 0-4.422 1.703-4.88 3.984h-8.754c-0.458-2.281-2.46-3.984-4.88-3.984-2.762 0-4.98 2.218-4.98 4.98s2.218 4.98 4.98 4.98c2.42 0 4.422-1.703 4.88-3.984h3.542v14.418h1.992v-0.003h3.23c0.395 2.36 2.433 4.143 4.91 4.143 2.762 0 4.98-2.218 4.98-4.98s-2.214-4.98-4.976-4.98z"></path>
</svg>
