<!-- Generated by IcoMoon.io -->
<svg version="1.1" xmlns="http://www.w3.org/2000/svg" width="32" height="32" viewBox="0 0 32 32">
<title>save</title>
<path fill="#444" d="M29.768 7.162l-4.939-4.935c-0.148-0.148-0.35-0.227-0.559-0.227h-20.669c-0.869 0-1.601 0.695-1.601 1.564v24.834c0 0.869 0.732 1.602 1.601 1.602h24.825c0.869 0 1.574-0.733 1.574-1.602v-20.676c0-0.21-0.083-0.411-0.231-0.559zM5.734 6.319c0-0.869 0.705-1.574 1.574-1.574h13.543c0.869 0 1.574 0.705 1.574 1.574v5.527c0 0.869-0.705 1.574-1.574 1.574h-13.543c-0.869 0-1.574-0.705-1.574-1.574v-5.527zM26.267 25.022c0 0.869-0.705 1.574-1.574 1.574h-17.386c-0.869 0-1.574-0.705-1.574-1.574v-7.613c0-0.869 0.705-1.574 1.574-1.574h17.386c0.869 0 1.574 0.705 1.574 1.574v7.613zM18.307 12.431h2.193c0.334 0 0.605-0.271 0.605-0.605v-5.487c0-0.334-0.271-0.605-0.605-0.605h-2.193c-0.334 0-0.605 0.271-0.605 0.605v5.487c0 0.334 0.271 0.605 0.605 0.605z"></path>
</svg>
