<!-- Generated by IcoMoon.io -->
<svg version="1.1" xmlns="http://www.w3.org/2000/svg" width="32" height="32" viewBox="0 0 32 32">
<title>search</title>
<path fill="#444" d="M29.569 26.998l-0.053-0.053-7.281-7.313c-0.134-0.134-0.319-0.212-0.506-0.212h-0.841c-0.075 0-0.147-0.028-0.197-0.081l-0.012-0.012c-0.087-0.1-0.091-0.253-0.003-0.359 1.453-1.769 2.256-4.041 2.256-6.4 0-2.794-1.078-5.416-3.038-7.381-1.956-1.966-4.566-3.050-7.35-3.050s-5.394 1.084-7.35 3.050c-1.959 1.966-3.038 4.588-3.038 7.381s1.078 5.416 3.038 7.381c1.959 1.966 4.569 3.050 7.353 3.050 2.347 0 4.612-0.803 6.372-2.262 0.109-0.091 0.247-0.087 0.35 0.012 0.016 0.016 0.059 0.056 0.059 0.197v0.847c0 0.175 0.081 0.353 0.231 0.503l7.341 7.359c0.134 0.134 0.316 0.209 0.509 0.209s0.375-0.075 0.509-0.209l1.65-1.653c0.275-0.275 0.275-0.725 0-1.003zM19.863 12.614c0 4.012-3.262 7.275-7.275 7.275s-7.275-3.262-7.275-7.275 3.262-7.275 7.275-7.275c4.013 0 7.275 3.262 7.275 7.275z"></path>
</svg>
