<!-- Generated by IcoMoon.io -->
<svg version="1.1" xmlns="http://www.w3.org/2000/svg" width="32" height="32" viewBox="0 0 32 32">
<title>select-none</title>
<path fill="#444" d="M21.335 2h-10.636c-0.476 0-0.913 0.418-0.913 0.891v10.587c0 0.473 0.438 0.845 0.913 0.845h10.636c0.476 0 0.881-0.372 0.881-0.845v-10.587c0-0.473-0.405-0.891-0.881-0.891zM19.85 11.456c0 0.293-0.252 0.525-0.544 0.525h-6.593c-0.295 0-0.566-0.232-0.566-0.525v-6.562c0-0.293 0.271-0.552 0.566-0.552h6.593c0.295 0 0.544 0.26 0.544 0.552v6.562zM21.335 17.676h-10.636c-0.476 0-0.913 0.418-0.913 0.891v10.587c0 0.473 0.438 0.845 0.913 0.845h10.636c0.476 0 0.881-0.372 0.881-0.845v-10.587c0-0.473-0.405-0.891-0.881-0.891zM19.85 27.26c0 0.293-0.252 0.525-0.544 0.525h-6.593c-0.295 0-0.566-0.232-0.566-0.525v-6.562c0-0.293 0.271-0.552 0.566-0.552h6.593c0.295 0 0.544 0.26 0.544 0.552v6.562z"></path>
</svg>
