<!-- Generated by IcoMoon.io -->
<svg version="1.1" xmlns="http://www.w3.org/2000/svg" width="32" height="32" viewBox="0 0 32 32">
<title>select-all</title>
<path fill="#444" d="M21.335 2h-10.636c-0.476 0-0.913 0.418-0.913 0.891v10.587c0 0.473 0.438 0.845 0.913 0.845h10.636c0.476 0 0.881-0.372 0.881-0.845v-10.587c0-0.473-0.405-0.891-0.881-0.891zM20.492 6.381l-5.195 5.192c-0.224 0.224-0.52 0.336-0.815 0.336s-0.591-0.112-0.815-0.336l-2.16-2.16c-0.451-0.448-0.451-1.178 0-1.627s1.178-0.448 1.63 0v0l1.345 1.345 4.38-4.378c0.448-0.448 1.178-0.448 1.63 0 0.448 0.448 0.448 1.176 0 1.627zM21.335 17.676h-10.636c-0.476 0-0.913 0.418-0.913 0.891v10.587c0 0.473 0.438 0.845 0.913 0.845h10.636c0.476 0 0.881-0.372 0.881-0.845v-10.587c0-0.473-0.405-0.891-0.881-0.891zM20.492 22.057l-5.195 5.192c-0.224 0.224-0.52 0.336-0.815 0.336s-0.591-0.112-0.815-0.336l-2.16-2.16c-0.451-0.448-0.451-1.178 0-1.627s1.178-0.448 1.63 0v0l1.345 1.345 4.38-4.378c0.448-0.448 1.178-0.448 1.63 0 0.448 0.448 0.448 1.176 0 1.627z"></path>
</svg>
