<!-- Generated by IcoMoon.io -->
<svg version="1.1" xmlns="http://www.w3.org/2000/svg" width="32" height="32" viewBox="0 0 32 32">
<title>settings</title>
<path fill="#444" d="M29.634 19.704l-3.25-2.242c0-0.425 0.145-0.844 0.145-1.406s0-0.981-0.145-1.406l2.968-2.386c0.283-0.281 0.283-0.562 0.145-0.844l-2.83-4.916c-0.138-0.139-0.42-0.283-0.848-0.139l-3.533 1.406c-0.705-0.562-1.553-0.987-2.402-1.406l-0.565-3.661c-0.099-0.482-0.283-0.704-0.565-0.704h-5.652c-0.283 0-0.703 0.286-0.703 0.567l-0.565 3.795c-0.85 0.283-1.56 0.846-2.402 1.408l-3.395-1.406c-0.42-0.144-0.703 0-0.986 0.283l-2.83 4.916c-0.138 0.139 0 0.564 0.283 0.845l2.967 2.242c0 0.425-0.138 0.844-0.138 1.406s0 0.981 0.138 1.406l-2.967 2.386c-0.283 0.281-0.283 0.562-0.138 0.844l2.823 4.916c0.145 0.139 0.427 0.283 0.848 0.139l3.533-1.406c0.705 0.562 1.553 0.987 2.402 1.406l0.565 3.674c0 0.281 0.283 0.58 0.705 0.58h5.658c0.283 0 0.703-0.299 0.703-0.58l0.565-3.664c0.85-0.42 1.697-0.849 2.402-1.411l3.533 1.404c0.283 0.144 0.71-0.001 0.848-0.284l2.83-4.916c0.138-0.283 0.138-0.701-0.145-0.845zM15.931 20.973c-2.69 0-4.948-2.249-4.948-4.918s2.257-4.918 4.948-4.918c2.683 0 4.94 2.249 4.94 4.918s-2.257 4.918-4.94 4.918z"></path>
</svg>
