<!-- Generated by IcoMoon.io -->
<svg version="1.1" xmlns="http://www.w3.org/2000/svg" width="32" height="32" viewBox="0 0 32 32">
<title>severity-undefined</title>
<path fill="#444" d="M27.375 2v0h-22.75c-1.444 0-2.625 1.181-2.625 2.625v22.75c0 1.444 1.181 2.625 2.625 2.625h22.75c1.444 0 2.625-1.181 2.625-2.625v-22.75c0-1.444-1.181-2.625-2.625-2.625zM13.603 24.744v-1.844c0-0.363 0.297-0.659 0.659-0.659h2.497c0.363 0 0.659 0.297 0.659 0.659v1.844c0 0.363-0.297 0.659-0.659 0.659h-2.497c-0.363 0-0.659-0.297-0.659-0.659zM21.084 14.984v0c-0.634 0.916-1.425 1.688-2.375 2.306-0.016 0.012-0.031 0.019-0.041 0.031-0.512 0.397-0.844 0.794-1.006 1.194-0.113 0.281-0.184 0.634-0.222 1.053-0.025 0.337-0.313 0.572-0.653 0.572h-2.422c-0.381 0-0.684-0.306-0.659-0.688 0.063-0.834 0.231-1.466 0.503-1.906 0.347-0.556 1.041-1.225 2.075-2.022 0.606-0.497 1.091-1.028 1.453-1.6s0.547-1.216 0.547-1.922c0-0.784-0.206-1.403-0.625-1.85-0.416-0.444-1.009-0.669-1.775-0.669-0.634 0-1.169 0.222-1.613 0.594-0.328 0.284-0.537 0.628-0.628 1.122-0.056 0.313-0.328 0.522-0.647 0.522h-2.278c-0.1 0-0.8 0.016-0.8-0.556v-0.053c-0.025-1.641 0.528-2.378 1.634-3.25s2.553-1.316 4.331-1.316c1.919 0 3.422 0.481 4.512 1.453s1.634 2.287 1.634 3.959c0.016 1.1-0.306 2.103-0.947 3.025z"></path>
</svg>
