<!-- Generated by IcoMoon.io -->
<svg version="1.1" xmlns="http://www.w3.org/2000/svg" width="32" height="32" viewBox="0 0 32 32">
<title>severity-noncompliant</title>
<path fill="#444" d="M27.375 2v0h-22.75c-1.444 0-2.625 1.181-2.625 2.625v22.75c0 1.444 1.181 2.625 2.625 2.625h22.75c1.444 0 2.625-1.181 2.625-2.625v-22.75c0-1.444-1.181-2.625-2.625-2.625zM13.85 24.066v-1.534c0-0.553 0.447-1.003 1.003-1.003h2.234c0.553 0 1.003 0.447 1.003 1.003v1.534c0 0.553-0.447 1.003-1.003 1.003h-2.234c-0.553 0-1.003-0.447-1.003-1.003zM18.091 17.616c0 0.553-0.447 1.003-1.003 1.003h-2.234c-0.553 0-1.003-0.447-1.003-1.003v-9.747c0-0.553 0.447-1.003 1.003-1.003h2.234c0.553 0 1.003 0.447 1.003 1.003v9.747z"></path>
</svg>
