<!-- Generated by IcoMoon.io -->
<svg version="1.1" xmlns="http://www.w3.org/2000/svg" width="32" height="32" viewBox="0 0 32 32">
<title>shopping-circle</title>
<path fill="#444" d="M16 2c-7.767 0-14 6.233-14 14s6.233 14 14 14 14-6.233 14-14-6.233-14-14-14zM12.657 24.455c-0.963 0-1.745-0.781-1.745-1.745s0.781-1.745 1.745-1.745c0.963 0 1.745 0.781 1.745 1.745s-0.781 1.745-1.745 1.745c0 0 0 0 0 0zM21.111 24.455c-0.963 0-1.745-0.781-1.745-1.745s0.781-1.745 1.745-1.745c0.963 0 1.745 0.781 1.745 1.745 0 0 0 0 0 0 0 0.963-0.78 1.744-1.744 1.745zM24.334 10.431l-2.617 4.764c-0.335 0.671-0.872 1.342-0.872 1.342-0.402 0.201-0.604 0.269-0.604 0.269h-6.576l-0.872 1.745h9.998v1.677h-10.334c-1.812-0.336-1.409-2.147-1.409-2.147l1.275-2.483-3.086-6.375h-1.678v-1.677h2.75l0.739 1.677h12.75c1.007 0.201 0.537 1.208 0.537 1.208z"></path>
</svg>
