<!-- Generated by IcoMoon.io -->
<svg version="1.1" xmlns="http://www.w3.org/2000/svg" width="32" height="32" viewBox="0 0 32 32">
<title>social-google</title>
<path fill="#444" d="M27.375 2h-22.75c-1.444 0-2.625 1.181-2.625 2.625v22.75c0 1.444 1.181 2.625 2.625 2.625h22.75c1.444 0 2.625-1.181 2.625-2.625v-22.75c0-1.444-1.181-2.625-2.625-2.625zM12.5 23c-3.872 0-7-3.128-7-7s3.128-7 7-7c1.892 0 3.473 0.689 4.693 1.832l-1.903 1.827c-0.52-0.498-1.427-1.077-2.79-1.077-2.39 0-4.343 1.98-4.343 4.419s1.952 4.419 4.343 4.419c2.773 0 3.811-1.991 3.971-3.019h-3.97v-2.401h6.611c0.060 0.35 0.109 0.7 0.109 1.159 0 4.003-2.68 6.842-6.721 6.842zM26.5 16h-1.75v1.75h-1.75v-1.75h-1.75v-1.75h1.75v-1.75h1.75v1.75h1.75v1.75z"></path>
</svg>
