<!-- Generated by IcoMoon.io -->
<svg version="1.1" xmlns="http://www.w3.org/2000/svg" width="32" height="32" viewBox="0 0 32 32">
<title>social-instagram</title>
<path fill="#444" d="M27.375 2h-22.75c-1.444 0-2.625 1.181-2.625 2.625v22.75c0 1.444 1.181 2.625 2.625 2.625h22.75c1.444 0 2.625-1.181 2.625-2.625v-22.75c0-1.444-1.181-2.625-2.625-2.625zM21.25 6.375c0-0.481 0.394-0.875 0.875-0.875h3.5c0.481 0 0.875 0.394 0.875 0.875v3.5c0 0.481-0.394 0.875-0.875 0.875h-3.5c-0.481 0-0.875-0.394-0.875-0.875v-3.5zM16 10.75c2.899 0 5.25 2.352 5.25 5.25s-2.352 5.25-5.25 5.25c-2.899 0-5.25-2.352-5.25-5.25s2.352-5.25 5.25-5.25zM26.5 25.625v0c0 0.481-0.394 0.875-0.875 0.875h-19.25c-0.481 0-0.875-0.394-0.875-0.875v0-11.375h1.925c-0.115 0.563-0.175 1.149-0.175 1.75 0 4.834 3.916 8.75 8.75 8.75s8.75-3.916 8.75-8.75c0-0.602-0.060-1.187-0.175-1.75h1.925v11.375z"></path>
</svg>
