<!-- Generated by IcoMoon.io -->
<svg version="1.1" xmlns="http://www.w3.org/2000/svg" width="32" height="32" viewBox="0 0 32 32">
<title>social</title>
<path fill="#444" d="M25.514 10.629c2.318 0 4.197-1.879 4.197-4.197s-1.879-4.197-4.197-4.197-4.197 1.879-4.197 4.197c0 0.307 0.034 0.606 0.096 0.894l-11.956 6.893c-0.76-0.762-1.811-1.234-2.972-1.234-2.318 0-4.197 1.879-4.197 4.197s1.879 4.197 4.197 4.197c1.184 0 2.253-0.491 3.016-1.28l10.332 5.043c-0.014 0.14-0.021 0.282-0.021 0.426 0 2.318 1.879 4.197 4.197 4.197s4.197-1.879 4.197-4.197c0-2.318-1.879-4.197-4.197-4.197-1.26 0-2.39 0.556-3.159 1.436l-10.215-4.986c0.032-0.208 0.048-0.421 0.048-0.638 0-0.238-0.021-0.471-0.059-0.698l12.060-6.953c0.746 0.682 1.739 1.098 2.829 1.098z"></path>
</svg>
