<!-- Generated by IcoMoon.io -->
<svg version="1.1" xmlns="http://www.w3.org/2000/svg" width="32" height="32" viewBox="0 0 32 32">
<title>social-linkedin</title>
<path fill="#444" d="M27.375 2h-22.75c-1.444 0-2.625 1.181-2.625 2.625v22.75c0 1.444 1.181 2.625 2.625 2.625h22.75c1.444 0 2.625-1.181 2.625-2.625v-22.75c0-1.444-1.181-2.625-2.625-2.625zM12.5 24.75h-3.5v-12.25h3.5v12.25zM10.75 10.75c-0.968 0-1.75-0.782-1.75-1.75s0.782-1.75 1.75-1.75c0.968 0 1.75 0.782 1.75 1.75s-0.782 1.75-1.75 1.75zM24.75 24.75h-3.5v-7c0-0.968-0.782-1.75-1.75-1.75s-1.75 0.782-1.75 1.75v7h-3.5v-12.25h3.5v2.171c0.722-0.99 1.826-2.171 3.063-2.171 2.177 0 3.938 1.958 3.938 4.375v7.875z"></path>
</svg>
