<!-- Generated by IcoMoon.io -->
<svg version="1.1" xmlns="http://www.w3.org/2000/svg" width="32" height="32" viewBox="0 0 32 32">
<title>social-mail</title>
<path fill="#444" d="M27.375 2v0h-22.75c-1.444 0-2.625 1.181-2.625 2.625v22.75c0 1.444 1.181 2.625 2.625 2.625h22.75c1.444 0 2.625-1.181 2.625-2.625v-22.75c0-1.444-1.181-2.625-2.625-2.625zM6.994 25.806l-2.112-2.113 7-7 0.8 0.8-5.688 8.313zM6.194 6.994l0.8-0.8 9.006 7.256 9.006-7.256 0.8 0.8-9.806 11.556-9.806-11.556zM25.006 25.806l-5.688-8.313 0.8-0.8 7 7-2.113 2.113z"></path>
</svg>
