<!-- Generated by IcoMoon.io -->
<svg version="1.1" xmlns="http://www.w3.org/2000/svg" width="32" height="32" viewBox="0 0 32 32">
<title>social-twitter</title>
<path fill="#444" d="M27.375 2h-22.75c-1.444 0-2.625 1.181-2.625 2.625v22.75c0 1.444 1.181 2.625 2.625 2.625h22.75c1.444 0 2.625-1.181 2.625-2.625v-22.75c0-1.444-1.181-2.625-2.625-2.625zM23.512 12.147c0.006 0.166 0.009 0.331 0.009 0.5 0 5.119-3.9 11.025-11.025 11.025-2.188 0-4.222-0.641-5.941-1.741 0.306 0.038 0.612 0.056 0.925 0.056 1.819 0 3.487-0.619 4.816-1.659-1.694-0.034-3.125-1.153-3.619-2.694 0.238 0.044 0.478 0.069 0.728 0.069 0.353 0 0.7-0.050 1.022-0.137-1.775-0.353-3.112-1.922-3.112-3.8 0-0.016 0-0.034 0-0.050 0.525 0.287 1.122 0.466 1.756 0.484-1.041-0.694-1.725-1.881-1.725-3.225 0-0.709 0.194-1.375 0.525-1.947 1.912 2.347 4.766 3.891 7.987 4.050-0.066-0.281-0.1-0.578-0.1-0.881 0-2.141 1.734-3.875 3.875-3.875 1.113 0 2.119 0.469 2.828 1.219 0.881-0.172 1.709-0.497 2.462-0.941-0.291 0.903-0.903 1.662-1.703 2.144 0.781-0.094 1.531-0.297 2.225-0.609-0.525 0.787-1.181 1.472-1.934 2.012z"></path>
</svg>
