<!-- Generated by IcoMoon.io -->
<svg version="1.1" xmlns="http://www.w3.org/2000/svg" width="32" height="32" viewBox="0 0 32 32">
<title>social-skype</title>
<path fill="#444" d="M13.554 2.563c-0.045-0.028-0.096-0.051-0.141-0.073-0.051 0.011-0.096 0.017-0.147 0.028l0.289 0.045zM2.545 13.423c-0.011 0.051-0.017 0.102-0.023 0.147 0.028 0.045 0.045 0.091 0.073 0.136l-0.051-0.284zM29.443 18.565c0.011-0.051 0.017-0.102 0.028-0.153-0.028-0.045-0.045-0.091-0.073-0.136l0.045 0.289zM18.265 29.336c0.045 0.028 0.096 0.051 0.141 0.073 0.051-0.011 0.102-0.017 0.153-0.023l-0.294-0.051zM29.472 18.413c-0.011 0.051-0.017 0.102-0.028 0.153l-0.051-0.294c0.028 0.051 0.051 0.096 0.079 0.141 0.148-0.815 0.226-1.648 0.226-2.481 0-1.846-0.362-3.641-1.076-5.328-0.69-1.631-1.676-3.098-2.934-4.354s-2.724-2.242-4.349-2.933c-1.688-0.714-3.483-1.076-5.328-1.076-0.873 0-1.744 0.080-2.594 0.244 0 0-0.005 0-0.005 0 0.045 0.023 0.096 0.045 0.141 0.073l-0.289-0.045c0.051-0.011 0.096-0.017 0.147-0.028-1.166-0.617-2.474-0.951-3.8-0.951-2.164 0-4.202 0.844-5.731 2.373s-2.373 3.567-2.373 5.731c0 1.376 0.357 2.735 1.019 3.93 0.011-0.051 0.017-0.102 0.023-0.147l0.051 0.289c-0.028-0.045-0.051-0.091-0.073-0.136-0.136 0.776-0.204 1.568-0.204 2.361 0 1.846 0.362 3.641 1.076 5.328 0.691 1.631 1.676 3.092 2.933 4.349s2.724 2.242 4.354 2.934c1.688 0.714 3.483 1.076 5.328 1.076 0.804 0 1.608-0.073 2.396-0.216-0.045-0.028-0.091-0.051-0.141-0.073l0.294 0.051c-0.051 0.011-0.102 0.017-0.153 0.023 1.211 0.685 2.588 1.054 3.987 1.054 2.163 0 4.201-0.844 5.731-2.373s2.373-3.568 2.373-5.731c-0.005-1.376-0.362-2.735-1.030-3.941zM16.063 24.318c-4.865 0-7.039-2.389-7.039-4.185 0-0.917 0.68-1.563 1.614-1.563 2.084 0 1.54 2.99 5.425 2.99 1.988 0 3.086-1.082 3.086-2.186 0-0.662-0.329-1.399-1.636-1.721l-4.326-1.082c-3.483-0.873-4.117-2.758-4.117-4.53 0-3.675 3.46-5.057 6.71-5.057 2.995 0 6.524 1.654 6.524 3.862 0 0.946-0.821 1.495-1.756 1.495-1.778 0-1.45-2.458-5.029-2.458-1.779 0-2.758 0.804-2.758 1.953s1.404 1.518 2.622 1.795l3.206 0.713c3.505 0.782 4.394 2.831 4.394 4.757 0 2.985-2.293 5.215-6.919 5.215z"></path>
</svg>
