<!-- Generated by IcoMoon.io -->
<svg version="1.1" xmlns="http://www.w3.org/2000/svg" width="32" height="32" viewBox="0 0 32 32">
<title>social-rss</title>
<path fill="#444" d="M27.375 2h-22.75c-1.444 0-2.625 1.181-2.625 2.625v22.75c0 1.444 1.181 2.625 2.625 2.625h22.75c1.444 0 2.625-1.181 2.625-2.625v-22.75c0-1.444-1.181-2.625-2.625-2.625zM9.629 24.728c-1.313 0-2.379-1.055-2.379-2.368 0-1.302 1.067-2.373 2.379-2.373 1.318 0 2.379 1.072 2.379 2.373 0 1.313-1.067 2.368-2.379 2.368zM15.601 24.75c0-2.236-0.87-4.342-2.445-5.917-1.58-1.58-3.675-2.45-5.906-2.45v-3.423c6.497 0 11.791 5.289 11.791 11.791h-3.44zM21.677 24.75c0-7.957-6.47-14.438-14.421-14.438v-3.423c9.844 0 17.855 8.017 17.855 17.861h-3.434z"></path>
</svg>
