<!-- Generated by IcoMoon.io -->
<svg version="1.1" xmlns="http://www.w3.org/2000/svg" width="32" height="32" viewBox="0 0 32 32">
<title>sort</title>
<path fill="#444" d="M23.733 21.687l-1.115-1.139c-0.072-0.074-0.189-0.073-0.261 0l-5.089 5.183c-0.116 0.119-0.343 0.035-0.343-0.134v-19.162c0-0.17 0.227-0.255 0.343-0.135l5.074 5.224c0.072 0.074 0.195 0.074 0.268 0l1.119-1.148c0.073-0.075 0.074-0.196 0.002-0.271l-7.604-7.851c-0.072-0.074-0.188-0.074-0.26 0l-7.599 7.851c-0.072 0.075-0.072 0.196 0 0.27l1.116 1.148c0.072 0.074 0.189 0.074 0.261-0l5.045-5.224c0.116-0.12 0.3-0.035 0.3 0.135v19.162c0 0.169-0.184 0.253-0.3 0.134l-5.053-5.183c-0.072-0.074-0.185-0.074-0.257-0l-1.114 1.139c-0.072 0.074-0.072 0.194 0.001 0.268l7.599 7.79c0.072 0.074 0.189 0.074 0.261 0l7.605-7.79c0.072-0.074 0.072-0.194-0-0.268z"></path>
</svg>
