<!-- Generated by IcoMoon.io -->
<svg version="1.1" xmlns="http://www.w3.org/2000/svg" width="32" height="32" viewBox="0 0 32 32">
<title>spellcheck</title>
<path fill="#444" d="M31.867 11.654l-1.364-1.368c-0.133-0.133-0.347-0.133-0.48 0l-13.511 13.508c-0.133 0.133-0.347 0.133-0.48 0l-5.063-5.063c-0.133-0.133-0.347-0.133-0.48 0l-1.368 1.364c-0.133 0.133-0.133 0.347 0 0.48l6.91 6.914c0.133 0.133 0.347 0.133 0.48 0l15.356-15.356c0.133-0.133 0.133-0.347 0-0.48v0zM5.432 12.153h-2.511c-0.142 0-0.268 0.095-0.306 0.231l-0.401 1.38c-0.041 0.136-0.164 0.231-0.306 0.231h-1.535c-0.218 0-0.373-0.212-0.303-0.42l2.855-8.846c0.044-0.133 0.164-0.221 0.303-0.221h1.898c0.139 0 0.262 0.088 0.303 0.221l2.861 8.846c0.066 0.205-0.088 0.42-0.303 0.42h-1.535c-0.142 0-0.268-0.095-0.306-0.231l-0.404-1.38c-0.041-0.136-0.167-0.231-0.309-0.231zM3.597 10.46h1.159c0.215 0 0.366-0.205 0.306-0.411l-0.865-2.966c-0.003-0.013-0.013-0.019-0.025-0.019v0c-0.013 0-0.022 0.006-0.025 0.019l-0.859 2.966c-0.057 0.205 0.095 0.411 0.309 0.411zM9.099 13.865v-9.219c0-0.073 0.060-0.133 0.133-0.133h3.124c1.178 0 2.097 0.218 2.757 0.654s0.992 1.086 0.992 1.952c0 0.452-0.107 0.853-0.319 1.206-0.161 0.265-0.385 0.48-0.676 0.647-0.101 0.057-0.088 0.202 0.022 0.243 0.392 0.142 0.695 0.363 0.903 0.663 0.265 0.379 0.398 0.818 0.398 1.314 0 0.925-0.309 1.623-0.932 2.097s-1.513 0.711-2.672 0.711h-3.594c-0.076-0.003-0.136-0.063-0.136-0.136zM11.31 8.332c0 0.073 0.060 0.133 0.133 0.133h0.96c0.499-0.009 0.872-0.104 1.121-0.291 0.246-0.183 0.373-0.455 0.373-0.812 0-0.404-0.126-0.698-0.379-0.884-0.253-0.183-0.638-0.278-1.159-0.278h-0.916c-0.073 0-0.133 0.060-0.133 0.133v1.999zM11.31 10.059v2.11c0 0.073 0.060 0.133 0.133 0.133h1.383c0.471 0 0.821-0.092 1.055-0.278 0.234-0.183 0.351-0.467 0.351-0.85 0-0.414-0.101-0.723-0.303-0.935s-0.527-0.316-0.979-0.316h-1.51c-0.069 0.003-0.13 0.063-0.13 0.136zM25.067 10.7v0.003c0 0.003 0 0.006 0 0.009-0.044 1.109-0.373 1.958-0.985 2.542-0.616 0.587-1.506 0.878-2.675 0.878-1.172 0-2.126-0.36-2.861-1.080-0.733-0.72-1.102-1.658-1.102-2.808v-1.98c0-1.146 0.354-2.081 1.058-2.805s1.623-1.083 2.754-1.083c1.2 0 2.116 0.303 2.751 0.906 0.632 0.603 0.992 1.459 1.074 2.568 0 0.003 0 0.006 0 0.009v0c-0.006 0.019-0.025 0.035-0.047 0.035h-2.066c-0.025 0-0.044-0.019-0.044-0.044-0.035-0.594-0.171-1.039-0.411-1.333-0.246-0.3-0.663-0.448-1.254-0.448-0.499 0-0.894 0.202-1.178 0.603-0.287 0.401-0.43 0.929-0.43 1.579v1.993c0 0.657 0.158 1.184 0.471 1.589s0.742 0.606 1.289 0.606c0.531 0 0.906-0.142 1.128-0.423 0.215-0.275 0.341-0.711 0.376-1.304 0-0.025 0.022-0.044 0.044-0.044h2.069c0.016 0 0.035 0.013 0.041 0.032z"></path>
</svg>
