<!-- Generated by IcoMoon.io -->
<svg version="1.1" xmlns="http://www.w3.org/2000/svg" width="32" height="32" viewBox="0 0 32 32">
<title>star-empty</title>
<path fill="#444" d="M29.7 13.15c0.4-0.4 0.2-0.8-0.3-0.8l-8.7-1.3c-0.1 0-0.3-0.1-0.4-0.3l-3.9-8.2c-0.2-0.5-0.7-0.5-0.9 0l-3.9 8.2c-0.1 0.1-0.2 0.3-0.4 0.3l-8.7 1.3c-0.6 0.1-0.5 0.4-0.2 0.8l6.3 6.5c0.1 0.1 0.2 0.3 0.1 0.4l-1.5 9.1c-0.1 0.6 0.2 0.8 0.7 0.5l7.7-4.3c0.1-0.1 0.4-0.1 0.5 0l7.7 4.3c0.5 0.3 0.8 0 0.7-0.5l-1.5-9.1c0-0.1 0-0.3 0.1-0.4l6.6-6.5zM21.6 25.050c0.1 0.3-0.1 0.5-0.5 0.3l-5.1-2.9c-0.1-0.1-0.3-0.1-0.3 0l-5.1 2.9c-0.3 0.2-0.5 0.1-0.5-0.3l1-6.1c0.1-0.1 0-0.2-0.1-0.3l-4.1-4.2c-0.2-0.3-0.3-0.5 0.1-0.5l5.7-0.9c0.1 0 0.2-0.1 0.3-0.2l2.6-5.5c0.1-0.3 0.5-0.3 0.6 0l2.6 5.5c0.1 0.1 0.2 0.2 0.3 0.2l5.7 0.9c0.3 0 0.5 0.3 0.2 0.5l-4.3 4.3c-0.1 0.1-0.1 0.2-0.1 0.3l1 6z"></path>
</svg>
