<!-- Generated by IcoMoon.io -->
<svg version="1.1" xmlns="http://www.w3.org/2000/svg" width="32" height="32" viewBox="0 0 32 32">
<title>steady</title>
<path fill="#444" d="M30.767 15.808v0c0 0-8.944-6.353-8.816-6.353-0.259-0.128-0.647-0.066-0.647 0.194v3.113c0 0.128-0.194 0.259-0.387 0.259h-9.834c-0.194 0-0.387-0.128-0.387-0.259v-3.113c0-0.259-0.387-0.325-0.647-0.194 0.128 0-8.816 6.353-8.816 6.353v0c-0.194 0.128-0.194 0.259 0 0.387l8.813 6.288c0.259 0.194 0.647 0.066 0.647-0.194v-3.047c0-0.128 0.194-0.259 0.387-0.259h9.831c0.194 0 0.387 0.128 0.387 0.259v3.047c0 0.259 0.387 0.387 0.647 0.194l8.816-6.288c0.2-0.128 0.2-0.259 0.006-0.387z"></path>
</svg>
