<!-- Generated by IcoMoon.io -->
<svg version="1.1" xmlns="http://www.w3.org/2000/svg" width="32" height="32" viewBox="0 0 32 32">
<title>strategy</title>
<path fill="#444" d="M22.863 27.47h-0.342c-0.058-0.283-0.108-0.619-0.155-0.978h-14.101c-0.029 0.318-0.053 0.642-0.064 0.978h-0.023c-0.701 0-1.27 0.569-1.27 1.27s0.569 1.27 1.27 1.27h14.685c0.701 0 1.27-0.569 1.27-1.27s-0.569-1.27-1.27-1.27zM8.404 13.848c0.298 0.552 0.844 0.923 1.466 0.995 0.201 0.023 0.534-0.128 0.59-0.12 0.175 0.029 0.488 0.085 0.633-0.018l0.92-2.222c0.298-0.21 0.701-0.184 0.969 0.064 0.654 0.607 0.686 0.534 1.547 0.298 0.663-0.181 1.212-0.619 1.547-1.197 0.126 0.972 0.616 3.439-2.286 5.328-2.689 1.752-4.379 3.57-5.29 6.034h13.923c0.161-1.416 0.534-2.984 1.311-4.619 1.623-2.639 2.555-8.551-1.705-12.997-3.559-3.711-6.796-3.787-8.571-3.027-0.861 0.368-0.902 2.090-0.578 2.963l-1.988-1.845c-0.111-0.102-0.277-0.12-0.409-0.041s-0.193 0.234-0.155 0.38l0.657 2.493c-0.020 0.018-0.041 0.035-0.064 0.055-0.525 0.461-0.902 1.069-1.095 1.74l-1.439 4.98c-0.146 0.234-0.14 0.528 0.018 0.753v0zM8.062 25.579h14.921c0.467 0 0.847-0.38 0.847-0.847s-0.38-0.847-0.847-0.847h-14.921c-0.467 0-0.847 0.38-0.847 0.847-0.003 0.467 0.377 0.847 0.847 0.847z"></path>
</svg>
