<!-- Generated by IcoMoon.io -->
<svg version="1.1" xmlns="http://www.w3.org/2000/svg" width="32" height="32" viewBox="0 0 32 32">
<title>subscribe</title>
<path fill="#444" d="M26.275 7.369c0-0.013 0-0.025-0.003-0.034v-3.5c0-1.025-0.841-1.866-1.866-1.866h-6.559c0.553 0.419 0.966 1.019 1.137 1.712h3.984c0.206 0 0.375 0.169 0.375 0.375v1.219c0 0.206-0.169 0.375-0.375 0.375h-13.556c-0.206 0-0.375-0.169-0.375-0.375v-1.219c0-0.206 0.169-0.375 0.375-0.375h3.603c0.175-0.694 0.584-1.294 1.137-1.712h-6.819c-0.944 0-1.678 0.788-1.678 1.734v24.531c0 0.947 0.734 1.734 1.678 1.734h17.072c1.025 0 1.866-0.841 1.866-1.866v-3.5c0.003-0.012 0.003-0.022 0.003-0.034l-0.003-8.6 0.003-8.6zM10.887 25.45c-1.025 0-1.856-0.822-1.856-1.847 0-1.016 0.831-1.853 1.856-1.853 1.028 0 1.856 0.837 1.856 1.853 0 1.025-0.831 1.847-1.856 1.847zM15.547 25.469v0c0-1.747-0.678-3.387-1.906-4.619-1.234-1.234-2.869-1.913-4.609-1.913v-2.672c5.069 0 9.2 4.128 9.2 9.2h-2.684zM20.288 25.469v0c0-6.209-5.050-11.266-11.253-11.266v-2.672c7.684 0 13.934 6.256 13.934 13.938h-2.681z"></path>
</svg>
