<!-- Generated by IcoMoon.io -->
<svg version="1.1" xmlns="http://www.w3.org/2000/svg" width="32" height="32" viewBox="0 0 32 32">
<title>summary</title>
<path fill="#444" d="M20.357 17.566h-16.966c-0.216 0-0.391-0.175-0.391-0.391v-2.35c0-0.216 0.175-0.391 0.391-0.391h16.966c0.216 0 0.391 0.175 0.391 0.391v2.35c0.003 0.216-0.175 0.391-0.391 0.391zM20.357 9.225h-16.966c-0.216 0-0.391-0.175-0.391-0.391v-2.35c0-0.216 0.175-0.391 0.391-0.391h16.966c0.216 0 0.391 0.175 0.391 0.391v2.35c0.003 0.213-0.175 0.391-0.391 0.391v0zM20.357 25.909h-16.966c-0.216 0-0.391-0.175-0.391-0.391v-2.35c0-0.216 0.175-0.391 0.391-0.391h16.966c0.216 0 0.391 0.175 0.391 0.391v2.35c0.003 0.212-0.175 0.391-0.391 0.391zM29.832 5.25c0.116-0.112 0.125-0.25 0.031-0.344v0l-0.622-0.622c-0.094-0.094-0.228-0.084-0.313 0l-3.875 3.875c-0.044 0.044-0.119 0.044-0.163 0l-1.631-1.631c-0.063-0.063-0.188-0.063-0.25 0l-0.716 0.716c-0.063 0.063-0.063 0.188 0 0.25l2.556 2.556c0.063 0.063 0.188 0.063 0.25 0l4.731-4.8zM29.832 13.578c0.116-0.113 0.125-0.25 0.031-0.344v0l-0.622-0.622c-0.094-0.094-0.228-0.084-0.313 0l-3.875 3.875c-0.044 0.044-0.119 0.044-0.163 0l-1.631-1.631c-0.063-0.063-0.188-0.063-0.25 0l-0.716 0.716c-0.063 0.063-0.063 0.188 0 0.25l2.556 2.556c0.063 0.063 0.188 0.063 0.25 0l4.731-4.8zM29.832 21.906c0.116-0.113 0.125-0.25 0.031-0.344v0l-0.622-0.622c-0.094-0.094-0.228-0.084-0.313 0l-3.875 3.875c-0.044 0.044-0.119 0.044-0.163 0l-1.631-1.631c-0.063-0.063-0.188-0.063-0.25 0l-0.716 0.716c-0.063 0.063-0.063 0.188 0 0.25l2.556 2.556c0.063 0.063 0.188 0.063 0.25 0l4.731-4.8z"></path>
</svg>
