<!-- Generated by IcoMoon.io -->
<svg version="1.1" xmlns="http://www.w3.org/2000/svg" width="32" height="32" viewBox="0 0 32 32">
<title>sweeps</title>
<path fill="#444" d="M22.767 13.801c-0.248-0.473-0.586-0.911-0.994-1.262l-0.011-9.077c0.004-0.964-0.775-1.748-1.739-1.751s-1.748 0.775-1.752 1.739l0.011 8.44c-0.045 0.018-0.090 0.035-0.133 0.055-0.967 0.451-1.611 1.492-2.030 2.443-0.432 0.983-0.849 2.028-1.42 2.961-0.626 1.023-1.48 1.789-2.378 2.566-1.16 1.005-2.422 1.89-3.731 2.689-1.164 0.711-2.371 1.371-3.611 1.95-0.493 0.23-0.99 0.446-1.493 0.648-0.029 0.012-0.058 0.023-0.088 0.035-0.016 0.006-0.032 0.013-0.048 0.021-0.211 0.098-0.365 0.289-0.416 0.518-0.055 0.246 0.018 0.503 0.193 0.685 1.317 1.364 2.984 2.362 4.955 2.966 1.552 0.476 3.294 0.709 5.177 0.692 3.181-0.028 5.653-0.751 5.757-0.782 0.003-0.001 0.006-0.002 0.009-0.003 0.033-0.010 0.064-0.022 0.095-0.037 0.007-0.003 0.015-0.007 0.022-0.011 2.717-1.377 4.439-3.299 5.118-5.712 0.892-3.174 0.009-6.908-1.494-9.773zM22.812 23.176c-0.552 1.954-1.975 3.538-4.23 4.709-0.007 0.003-0.014 0.007-0.021 0.011-0.030 0.014-0.061 0.025-0.093 0.034-0.251 0.067-0.874 0.224-1.74 0.37 0.174-0.199 0.346-0.42 0.514-0.656 0.151-0.211 0.299-0.433 0.441-0.661 0.442-0.703 0.839-1.452 1.137-2.055 0.069-0.14-0.115-0.264-0.219-0.148-0.838 0.923-2.032 1.836-3.134 2.584-0.346 0.235-0.683 0.453-0.997 0.651-0.367 0.231-0.702 0.433-0.983 0.598-0.092 0.002-0.185 0.003-0.279 0.004-0.804 0.005-1.578-0.039-2.317-0.131 0.239-0.139 0.482-0.303 0.722-0.481 0.219-0.162 0.435-0.336 0.645-0.513 0.618-0.523 1.179-1.079 1.556-1.473 0.072-0.075-0.021-0.191-0.11-0.139-0.801 0.472-1.96 1.022-2.96 1.47-0.328 0.147-0.638 0.283-0.913 0.402-0.362 0.156-0.662 0.283-0.86 0.365-0.158-0.042-0.315-0.087-0.469-0.134-0.199-0.061-0.395-0.128-0.587-0.198 0.192-0.114 0.387-0.244 0.58-0.384 0.181-0.131 0.361-0.27 0.538-0.414 0.698-0.568 1.34-1.205 1.758-1.641 0.072-0.075-0.020-0.191-0.11-0.139-0.752 0.443-1.82 0.955-2.775 1.387-0.236 0.107-0.464 0.208-0.68 0.303-0.24 0.105-0.463 0.202-0.661 0.287-0.447-0.238-0.869-0.505-1.263-0.801-0.122-0.091-0.101-0.28 0.037-0.345l0.001-0.001c0.069-0.032 0.141-0.065 0.214-0.099 1.003-0.468 2.38-1.164 3.865-2.074 3.142-1.925 5.469-3.993 6.948-6.169 0.042-0.062 0.104-0.148 0.131-0.195 1.162-2.012 0.889-2.799 2.154-3.558 1.521-0.913 3.188 0.291 3.789 3.596 0.034 0.188 0.122 0.478 0.164 0.665 0.465 2.072 0.745 3.065 0.206 4.973z"></path>
</svg>
