<!-- Generated by IcoMoon.io -->
<svg version="1.1" xmlns="http://www.w3.org/2000/svg" width="32" height="32" viewBox="0 0 32 32">
<title>switch</title>
<path fill="#444" d="M31.054 11.163l-6.434-6.705c-0.146-0.152-0.29 0.193-0.29 0.68v3.955c0 0.395-0.114 0.727-0.238 0.727h-12.232c-0.124 0-0.21 0.308-0.21 0.703v2.35c0 0.395 0.085 0.775 0.21 0.775h12.232c0.125 0 0.238 0.26 0.238 0.655v3.955c0 0.487 0.144 0.831 0.29 0.68l6.437-6.705c0.287-0.299 0.284-0.771-0.003-1.069zM20.133 18.432h-12.232c-0.125 0-0.198-0.34-0.198-0.735v-3.955c0-0.487-0.164-0.831-0.309-0.68l-6.447 6.705c-0.287 0.299-0.29 0.771-0.003 1.069l6.452 6.705c0.146 0.152 0.308-0.193 0.308-0.68v-3.955c0-0.395 0.074-0.767 0.198-0.767h12.232c0.125 0 0.25-0.269 0.25-0.664v-2.35c0-0.395-0.125-0.695-0.25-0.695z"></path>
</svg>
