<!-- Generated by IcoMoon.io -->
<svg version="1.1" xmlns="http://www.w3.org/2000/svg" width="32" height="32" viewBox="0 0 32 32">
<title>target</title>
<path fill="#444" d="M16 2c-7.731 0-14 6.269-14 14s6.269 14 14 14 14-6.269 14-14-6.269-14-14-14zM23.422 23.422c-1.981 1.984-4.619 3.075-7.422 3.075s-5.441-1.091-7.422-3.075-3.075-4.619-3.075-7.422 1.091-5.441 3.075-7.422 4.619-3.075 7.422-3.075 5.441 1.091 7.422 3.075 3.075 4.619 3.075 7.422-1.091 5.441-3.075 7.422zM16 8.128c-4.341 0-7.872 3.531-7.872 7.872s3.531 7.872 7.872 7.872c4.341 0 7.872-3.531 7.872-7.872s-3.531-7.872-7.872-7.872zM16 19.625c-2.003 0-3.625-1.622-3.625-3.625s1.622-3.625 3.625-3.625 3.625 1.622 3.625 3.625-1.622 3.625-3.625 3.625z"></path>
</svg>
