<!-- Generated by IcoMoon.io -->
<svg version="1.1" xmlns="http://www.w3.org/2000/svg" width="32" height="32" viewBox="0 0 32 32">
<title>taxes-circle</title>
<path fill="#444" d="M20.579 18.507q-0.962 0-1.488 0.675t-0.526 1.636v1.013q0 0.975 0.526 1.643t1.514 0.669q0.948 0 1.469-0.669t0.52-1.643v-1.013q0-0.962-0.531-1.637t-1.483-0.675zM16 2c-7.767 0-14 6.233-14 14s6.233 14 14 14 14-6.233 14-14-6.233-14-14-14zM8.583 13.947q-1.072-1.117-1.072-2.767v-1q0-1.649 1.066-2.782t2.844-1.13q1.78 0 2.844 1.125t1.065 2.786v1q0 1.65-1.059 2.767t-2.824 1.117q-1.793 0-2.865-1.117zM12.11 24.028l-1.416-0.872 9.236-14.781 1.416 0.871zM24.489 21.833q0 1.663-1.066 2.782t-2.818 1.117q-1.793 0-2.865-1.117t-1.072-2.782v-1.013q0-1.649 1.066-2.774t2.844-1.125q1.767 0 2.838 1.125t1.072 2.774v1.013zM12.915 12.818q0.52-0.662 0.52-1.637v-1q0-0.962-0.526-1.643t-1.488-0.682q-0.975 0-1.494 0.682t-0.521 1.642v1q0 0.962 0.526 1.63t1.514 0.669q0.949 0 1.469-0.662z"></path>
</svg>
