<!-- Generated by IcoMoon.io -->
<svg version="1.1" xmlns="http://www.w3.org/2000/svg" width="32" height="32" viewBox="0 0 32 32">
<title>term-deposit</title>
<path fill="#444" d="M24.72 11.42h-1.459v-2.578c0-3.662-3.137-6.547-7.259-6.547-4.113 0-7.259 2.884-7.259 6.547v2.578h-1.659c-1.622 0-2.859 1.219-2.859 2.659v13.097c0 1.438 1.234 2.528 2.859 2.528h17.637c1.616 0 3.056-1.087 3.056-2.528v-13.097c0-1.441-1.441-2.659-3.056-2.659v0zM20.573 11.42h-9.141v-2.578c0-2.225 2.069-4.059 4.566-4.059 2.506 0 4.575 1.834 4.575 4.059v2.578zM9.098 19.289c0-1.012 1.816-1.831 4.016-1.831 0.384 0 0.713 0.025 1.144 0.072v3.913c-0.431 0.047-0.759 0.072-1.144 0.072-2.2 0-4.016-0.819-4.016-1.831v-0.394zM9.098 21.333c0-0.128 0.037-0.253 0.091-0.375 0.375 0.831 2.009 1.456 3.928 1.456 0.384 0 0.709-0.025 1.141-0.072v1.147c-0.431 0.047-0.759 0.072-1.144 0.072-2.2 0-4.016-0.819-4.016-1.831v-0.397zM13.089 25.605c-2.2 0-3.991-0.819-3.991-1.831v-0.397c0-0.128 0.037-0.253 0.091-0.375 0.375 0.831 2.009 1.456 3.928 1.456 0.384 0 0.709-0.025 1.141-0.072v0.488c0 0.222 0.022 0.438 0.119 0.641-0.394 0.056-0.847 0.091-1.287 0.091v0zM22.861 24.87c0 1.012-1.778 1.831-3.978 1.831s-3.978-0.819-3.978-1.831v-0.397c0-0.128 0.006-0.253 0.059-0.375 0.375 0.831 1.969 1.456 3.888 1.456s3.534-0.625 3.913-1.456c0.056 0.122 0.097 0.247 0.097 0.375v0.397zM22.861 22.827c0 1.012-1.778 1.831-3.978 1.831s-3.978-0.819-3.978-1.831v-0.397c0-0.128 0.006-0.253 0.059-0.375 0.375 0.831 1.969 1.456 3.888 1.456s3.534-0.625 3.913-1.456c0.056 0.122 0.097 0.247 0.097 0.375v0.397zM22.861 20.673c0 1.012-1.778 1.831-3.978 1.831s-3.978-0.819-3.978-1.831v-0.397c0-0.128 0.006-0.253 0.059-0.375 0.375 0.831 1.969 1.456 3.888 1.456s3.534-0.625 3.913-1.456c0.056 0.122 0.097 0.247 0.097 0.375v0.397zM22.861 18.63c0 1.012-1.778 1.831-3.978 1.831s-3.978-0.819-3.978-1.831v-0.397c0-0.128 0.006-0.253 0.059-0.375 0.375 0.831 1.969 1.456 3.888 1.456s3.534-0.625 3.913-1.456c0.056 0.122 0.097 0.247 0.097 0.375v0.397zM22.861 16.586c0 1.012-1.778 1.831-3.978 1.831s-3.978-0.819-3.978-1.831v-0.397c0-1.012 1.778-1.831 3.978-1.831s3.978 0.819 3.978 1.831v0.397z"></path>
</svg>
