<!-- Generated by IcoMoon.io -->
<svg version="1.1" xmlns="http://www.w3.org/2000/svg" width="32" height="32" viewBox="0 0 32 32">
<title>timer</title>
<path fill="#444" d="M17.294 14.652l-1.233-7.521-1.081 7.55c-0.702 0.408-1.175 1.168-1.175 2.039 0 1.301 1.055 2.356 2.356 2.356s2.356-1.055 2.356-2.356c0-0.893-0.492-1.667-1.223-2.068zM28.605 6.743c0.149 0.149 0.385 0.149 0.534 0l1.133-1.133c0.149-0.149 0.149-0.385 0-0.534l-3.997-3.993c-0.149-0.149-0.385-0.149-0.534 0l-1.133 1.133c-0.149 0.149-0.149 0.385 0 0.534l1.065 1.065-1.249 1.249c-2.314-1.728-5.184-2.751-8.294-2.751-3.178 0-6.107 1.068-8.443 2.867l-1.362-1.369 1.065-1.065c0.149-0.149 0.149-0.385 0-0.534l-1.129-1.133c-0.149-0.149-0.385-0.149-0.534 0l-3.997 3.997c-0.149 0.149-0.149 0.385 0 0.534l1.133 1.133c0.149 0.149 0.385 0.149 0.534 0l0.997-1.003 1.301 1.301c-2.136 2.443-3.43 5.637-3.43 9.136 0 7.66 6.207 13.867 13.867 13.867s13.867-6.207 13.867-13.867c0-3.563-1.343-6.812-3.553-9.268l1.162-1.165 1 1zM27.294 16.241c0 6.149-4.984 11.132-11.132 11.132s-11.132-4.984-11.132-11.132 4.984-11.132 11.132-11.132 11.132 4.984 11.132 11.132z"></path>
</svg>
