<!-- Generated by IcoMoon.io -->
<svg version="1.1" xmlns="http://www.w3.org/2000/svg" width="32" height="32" viewBox="0 0 32 32">
<title>tour</title>
<path fill="#444" d="M19.908 4.73c0 1.401-1.136 2.537-2.537 2.537s-2.537-1.136-2.537-2.537c0-1.401 1.136-2.537 2.537-2.537s2.537 1.136 2.537 2.537zM11.589 19.425l-0.454 3.172c0 0-1.167 2.772-1.969 4.4-0.607 1.233-0.892 2.122-0.475 2.345 0.64 0.34 1.5-0.423 2.4-1.827 1.51-2.356 2.288-3.533 2.579-4.106l0.457-1.496c0 0.001-2.243-1.484-2.538-2.488zM25.67 10.396c-0.208-0.395-0.563-0.475-0.851-0.413v-0.037c0-0.269-0.26-0.488-0.529-0.488s-0.529 0.219-0.529 0.488v0.421l-2.57 1.22-3.343-2.45c-0.103-0.074-0.207-0.13-0.321-0.167-0.021-0.012-0.039-0.021-0.062-0.028l-2.646-0.738c-0.365-0.102-0.864 0.286-0.958 0.93l-1.805 6.494c-0.278 1.339-0.301 2.332 0.894 3.432 0.018 0.024 0.038 0.048 0.062 0.073l4.494 3.784-0.497 4.848c-0.036 1.196 0.034 1.889 0.794 1.968 0.709 0.074 1.022-1.401 1.095-1.775 0 0 0.908-4.644 1.018-5.298 0.11-0.656 0.177-1.427-0.308-1.922l-3.467-3.443 1.336-5.486 2.605 1.886c0.34 0.245 0.838 0.373 1.221 0.207 0 0 1.497-0.912 2.459-1.522v16.903c0 0.27 0.26 0.488 0.529 0.488s0.529-0.218 0.529-0.488v-17.536c0.577-0.422 1.081-0.922 0.851-1.352zM10.785 14.74c0.241-0.783 1.828-5.71 1.828-5.71 0.619-2.115-2.207-1.667-3.444-0.378-1.238 1.29-2.665 3.296-2.875 4.806-0.193 1.386 1.039 1.884 2.225 2.246 1.186 0.362 2.026-0.182 2.267-0.965z"></path>
</svg>
