<!-- Generated by IcoMoon.io -->
<svg version="1.1" xmlns="http://www.w3.org/2000/svg" width="32" height="32" viewBox="0 0 32 32">
<title>transfer</title>
<path fill="#444" d="M27.99 4.867l-7.642-2.248c-0.177-0.052-0.344 0.066-0.344 0.233v1.355c0 0.135-0.153 0.204-0.304 0.204h-14.865c-0.151 0-0.259 0.151-0.259 0.286v0.805c0 0.135 0.107 0.255 0.259 0.255h14.865c0.151 0 0.304 0.1 0.304 0.235v1.355c0 0.167 0.167 0.285 0.344 0.233l7.649-2.248c0.251-0.074 0.244-0.392-0.008-0.466zM27.705 25.948h-14.865c-0.151 0-0.292-0.073-0.292-0.219v-1.465c0-0.18-0.173-0.308-0.351-0.252l-7.652 2.43c-0.251 0.080-0.249 0.424 0.002 0.503l7.649 2.43c0.177 0.056 0.352-0.071 0.352-0.252v-1.465c0-0.146 0.14-0.261 0.292-0.261h14.865c0.151 0 0.271-0.122 0.271-0.269v-0.87c0-0.146-0.12-0.311-0.271-0.311zM28.109 8.303h-24.219c-1.5 0-2.732 1.078-2.732 2.433v9.832c0 0.753 0.541 1.57 0.982 1.916 0.35 0.274 1.093 0.551 1.749 0.551h24.219c1.5 0 2.732-1.112 2.732-2.467v-9.832c0.001-1.355-1.232-2.433-2.732-2.433zM28.809 17.805h-0.001c-1.593 0.517-3.023 1.707-3.683 3.392h-18.273c-0.68-1.623-2.136-2.816-3.661-3.355v-4.363c1.559-0.52 2.976-1.684 3.65-3.368h18.3c0.657 1.776 2.040 2.903 3.667 3.4v4.295zM15.999 11.301c-1.862 0-3.372 1.948-3.372 4.352s1.51 4.352 3.372 4.352c1.863 0 3.372-1.949 3.372-4.352s-1.51-4.352-3.373-4.352z"></path>
</svg>
