<!-- Generated by IcoMoon.io -->
<svg version="1.1" xmlns="http://www.w3.org/2000/svg" width="32" height="32" viewBox="0 0 32 32">
<title>transport-circle</title>
<path fill="#444" d="M18.051 9.355v-0.076c0-0.227-0.152-0.456-0.456-0.456h-3.418c-0.227 0-0.456 0.227-0.456 0.456v1.443h4.329v-1.367zM16 2c-7.767 0-14 6.233-14 14s6.233 14 14 14 14-6.233 14-14-6.233-14-14-14zM25.645 22.114c0 1.291-0.987 2.279-2.279 2.279h-14.732c-1.291 0-2.279-0.987-2.279-2.279v-9.113c0-1.291 0.987-2.279 2.279-2.279h3.873v-2.354c0-0.456 0.304-0.76 0.759-0.76h5.316c0.456 0 0.759 0.38 0.683 0.76v2.354h4.101c1.291 0 2.279 0.987 2.279 2.279v9.113z"></path>
</svg>
