<!-- Generated by IcoMoon.io -->
<svg version="1.1" xmlns="http://www.w3.org/2000/svg" width="32" height="32" viewBox="0 0 32 32">
<title>transfer-out</title>
<path fill="#444" d="M30.35 21.459h-1.872c-0.313 0-0.625 0.313-0.625 0.625v3.534h-23.291c-0.313 0-0.519-0.209-0.519-0.519v-18.616h7.381c0.313 0 0.519-0.209 0.519-0.519v-2.081c0-0.313-0.209-0.519-0.519-0.519h-9.878c-0.313 0-0.519 0.209-0.519 0.519v24.228c0 0.313 0.209 0.519 0.519 0.519h28.906c0.313 0 0.519-0.209 0.519-0.519v-1.975c0-0.103 0-0.103 0-0.103v0-3.95c0-0.313-0.309-0.625-0.622-0.625zM20.294 6.806c-7.231 3.822-9.503 10.019-9.4 15.906 0.103 0.619 0.931 0.825 1.137 0.206v0c1.963-4.131 5.475-6.922 10.744-8.781 0.309-0.103 0.619 0.103 0.722 0.309l1.137 3.306c0.206 0.516 0.825 0.516 1.034 0.103l5.269-10.122c0.103-0.309 0-0.619-0.309-0.825l-10.334-4.856c-0.413-0.206-0.931 0.206-0.825 0.722l1.137 3.306c0.103 0.313 0 0.519-0.313 0.725z"></path>
</svg>
