<!-- Generated by IcoMoon.io -->
<svg version="1.1" xmlns="http://www.w3.org/2000/svg" width="32" height="32" viewBox="0 0 32 32">
<title>transactions</title>
<path fill="#444" d="M30.219 6.978c0-1.034-0.628-1.875-1.406-1.875h-25.663c-0.778 0-1.406 0.838-1.406 1.875v2.531h28.475v-2.531zM23.2 13.838v0h-21.453v11.394c0 0.922 0.625 1.666 1.403 1.666h25.663c0.778 0 1.444-0.744 1.444-1.666v-11.394h-7.056zM10.928 20.091v2.025c0 0.25-0.075 0.425-0.162 0.347l-3.706-3.356c-0.122-0.109-0.119-0.584 0.003-0.694l3.7-3.356c0.084-0.078 0.162 0.1 0.162 0.347v2.025c0 0.203 0.084 0.363 0.159 0.363h7.206c0.072 0 0.113 0.166 0.113 0.369v1.203c0 0.203-0.041 0.422-0.113 0.422h-7.206c-0.072-0.003-0.156 0.106-0.156 0.306zM24.938 22.325l-3.7 3.356c-0.084 0.078-0.163-0.1-0.163-0.347v-2.025c0-0.203-0.084-0.363-0.159-0.363h-7.206c-0.072 0-0.113-0.166-0.113-0.369v-1.203c0-0.203 0.041-0.422 0.113-0.422h7.206c0.072 0 0.159-0.106 0.159-0.309v-2.025c0-0.25 0.075-0.425 0.163-0.347l3.706 3.356c0.119 0.113 0.116 0.587-0.006 0.697z"></path>
</svg>
