<!-- Generated by IcoMoon.io -->
<svg version="1.1" xmlns="http://www.w3.org/2000/svg" width="32" height="32" viewBox="0 0 32 32">
<title>transfer-in</title>
<path fill="#444" d="M8.75 12.273l3.472 10.825c0.103 0.306 0.409 0.509 0.716 0.306l10.619-3.881c0.509-0.203 0.509-0.816 0.103-1.022l-3.063-1.531c-0.306-0.103-0.409-0.509-0.203-0.816 2.55-4.9 5.716-7.966 10.003-9.497 0.409-0.103 0.306-0.919-0.306-1.022v0c-5.719-0.816-12.050 0.612-16.747 7.25-0.203 0.203-0.409 0.306-0.716 0.203l-3.063-1.531c-0.406-0.203-0.919 0.206-0.816 0.716zM30.35 21.461h-1.872c-0.313 0-0.625 0.313-0.625 0.625v3.534h-23.291c-0.313 0-0.519-0.209-0.519-0.519v-18.616h7.381c0.313 0 0.519-0.209 0.519-0.519v-2.081c0-0.313-0.209-0.519-0.519-0.519h-9.878c-0.313 0-0.519 0.209-0.519 0.519v24.228c0 0.313 0.209 0.519 0.519 0.519h28.906c0.313 0 0.519-0.209 0.519-0.519v-1.975c0-0.103 0-0.103 0-0.103v0-3.95c0-0.313-0.309-0.625-0.622-0.625z"></path>
</svg>
