<!-- Generated by IcoMoon.io -->
<svg version="1.1" xmlns="http://www.w3.org/2000/svg" width="32" height="32" viewBox="0 0 32 32">
<title>trash</title>
<path fill="#444" d="M25.677 7.806l-0.094-2.459c0-0.259-0.506-0.441-0.925-0.441-1.413 0.006-2.819 0.059-4.228 0.075-0.244 0.003-0.444-0.194-0.444-0.438v-1.497c0-0.575-0.472-1.047-1.047-1.047h-5.894c-0.575 0-1.047 0.472-1.047 1.047v1.497c0 0.244-0.2 0.441-0.444 0.438-1.369-0.016-2.734-0.066-4.103-0.075-0.456-0.003-0.831 0.044-1.041 0.509-0.009 0.022-0.003 0.041-0.003 0.041l-0.088 2.35c-0.009 0.269 0.050 0.537 0.172 0.775 0.409 0.8 1.344 2.678 1.366 3.172 0.109 2.506 0.234 5.009 0.353 7.516 0.141 2.95 0.156 6.281 0.287 9.231 0 0.022 0.003 0.041 0.003 0.059 0.059 0.816 0.753 1.441 1.569 1.441h11.847c0.603 0 1.159-0.341 1.416-0.884 0.097-0.203 0.156-0.416 0.166-0.616 0.1-2.091 0.087-4.422 0.188-6.512 0.163-3.406 0.313-6.822 0.475-10.231 0.022-0.491 0.95-2.384 1.353-3.184 0.116-0.238 0.175-0.5 0.163-0.766zM13.18 3.344c0-0.188 0.153-0.344 0.344-0.344h4.953c0.188 0 0.344 0.153 0.344 0.344v1.303c0 0.188-0.153 0.344-0.344 0.344h-4.956c-0.188 0-0.344-0.153-0.344-0.344v-1.303zM14.405 25.594c0 0.206-0.169 0.375-0.375 0.375h-1.475c-0.206 0-0.375-0.169-0.375-0.375v-13.219c0-0.206 0.169-0.375 0.375-0.375h1.475c0.206 0 0.375 0.169 0.375 0.375v13.219zM19.87 25.594c0 0.206-0.169 0.375-0.375 0.375h-1.475c-0.206 0-0.375-0.169-0.375-0.375v-13.219c0-0.206 0.169-0.375 0.375-0.375h1.475c0.206 0 0.375 0.169 0.375 0.375v13.219z"></path>
</svg>
