<!-- Generated by IcoMoon.io -->
<svg version="1.1" xmlns="http://www.w3.org/2000/svg" width="32" height="32" viewBox="0 0 32 32">
<title>unlink</title>
<path fill="#444" d="M25.25 5.25l-2.4-0.9c-2-0.8-4.2 0.2-5 2.2l-1.4 3.7c-0.1 0.2 0.1 0.3 0.3 0.3 0.7-0.3 1.5-0.4 2.4-0.4 0.1 0 0.2 0 0.2-0.1l0.9-2.5c0.3-0.7 1-1 1.7-0.7l2.4 0.9c0.7 0.3 1 1 0.7 1.7l-2.8 7.2c-0.3 0.7-1 1-1.7 0.7l-2.2-0.8c-0.1 0-0.2 0-0.3 0.1l-0.8 2c0 0.1 0 0.2 0.1 0.3l2.2 0.8c2 0.8 4.2-0.2 5-2.2l2.8-7.2c0.9-2.1-0.1-4.3-2.1-5.1v0zM15.15 21.55c-0.7 0.3-1.5 0.5-2.4 0.4-0.1 0-0.2 0.1-0.2 0.1l-0.9 2.5c-0.2 0.7-1 1-1.7 0.8l-2.4-0.9c-0.7-0.2-1-1-0.8-1.7l2.8-7.2c0.2-0.7 1-1 1.7-0.8l2.2 0.8c0.1 0 0.2 0 0.3-0.1l0.7-2c0-0.1 0-0.2-0.1-0.3l-2.2-0.8c-2-0.7-4.2 0.3-5 2.3l-2.7 7.2c-0.7 2 0.3 4.2 2.3 5l2.4 0.9c2 0.7 4.2-0.3 5-2.3l1.3-3.6c0.1-0.2-0.1-0.3-0.3-0.3v0zM10.95 8.55l2.9 2.9c0.1 0.1 0 0.3-0.1 0.2l-3.8-1.5c-0.1 0-0.1-0.1-0.1-0.2l0.9-1.4c0-0.1 0.1-0.1 0.2 0zM15.050 6.35l0.2 4.4c0 0.2-0.2 0.2-0.3 0.1l-2.1-3.8c0-0.1 0-0.2 0.1-0.2l1.9-0.5c0.1-0.2 0.2-0.1 0.2 0zM16.45 25.15v-3.8c0-0.1 0.2-0.2 0.3-0.1l1.6 3.4c0 0.1 0 0.2-0.1 0.2l-1.6 0.4c-0.1 0.1-0.2 0-0.2-0.1zM20.75 23.75l-3-3c-0.1-0.1 0-0.3 0.1-0.2l4 1.6c0.1 0 0.1 0.1 0.1 0.2l-0.9 1.4c-0.1 0-0.2 0-0.3 0z"></path>
</svg>
