<!-- Generated by IcoMoon.io -->
<svg version="1.1" xmlns="http://www.w3.org/2000/svg" width="32" height="32" viewBox="0 0 32 32">
<title>unlock</title>
<path fill="#444" d="M27.5 12.75h-12.4c0-2 0-4.4 0-4.4 0-3.4-2.9-6-6.7-6s-6.7 2.7-6.7 6c0 0 0 4.1 0 5.5 0 0.3 0.2 0.5 0.5 0.5h1.5c0.3 0 0.5-0.2 0.5-0.5 0-1.4 0-5.5 0-5.5 0-2 1.9-3.7 4.2-3.7s4.2 1.7 4.2 3.7c0 0 0 2.4 0 4.4h-1.5c-1.5 0-2.7 1.1-2.7 2.5v12.1c0 1.3 1.1 2.3 2.7 2.3h16.3c1.5 0 2.8-1 2.8-2.3v-12.2c0.1-1.3-1.2-2.4-2.7-2.4zM20.9 21.85v0 3.2c0 0.7-0.5 1.2-1.2 1.2h-0.3c-0.7 0-1.2-0.5-1.2-1.2v-3.2c-1-0.6-1.7-1.9-1.2-3.2 0.3-0.8 1-1.5 1.8-1.7 1.8-0.5 3.4 0.9 3.4 2.6 0 1-0.5 1.8-1.3 2.3z"></path>
</svg>
