<!-- Generated by IcoMoon.io -->
<svg version="1.1" xmlns="http://www.w3.org/2000/svg" width="32" height="32" viewBox="0 0 32 32">
<title>unpinned</title>
<path fill="#444" d="M20.236 22.462c-0.070-0.739-0.282-1.478-0.625-2.173-0.070-0.141-0.044-0.308 0.053-0.431l5.094-6.097c0.123-0.149 0.325-0.185 0.493-0.097 0.273 0.149 0.572 0.238 0.871 0.264 0.546 0.053 1.047-0.123 1.399-0.475 0.73-0.73 0.616-2.024-0.264-2.904l-5.807-5.807c-0.871-0.871-2.173-0.994-2.904-0.264-0.352 0.352-0.519 0.853-0.466 1.399 0.026 0.299 0.114 0.589 0.264 0.871 0.088 0.167 0.053 0.37-0.097 0.493l-6.097 5.094c-0.123 0.097-0.29 0.123-0.431 0.053-0.695-0.334-1.434-0.554-2.173-0.625-1.487-0.132-2.86 0.325-3.819 1.285-0.695 0.704-0.589 1.944 0.246 2.78l3.255 3.255c0.132 0.132 0.158 0.343 0.053 0.51l-5.288 7.857c-0.246 0.361 0.194 0.801 0.554 0.554l7.857-5.288c0.158-0.106 0.37-0.088 0.51 0.053l3.255 3.255c0.836 0.836 2.085 0.95 2.789 0.246 0.941-0.941 1.408-2.314 1.276-3.81z"></path>
</svg>
