<!-- Generated by IcoMoon.io -->
<svg version="1.1" xmlns="http://www.w3.org/2000/svg" width="32" height="32" viewBox="0 0 32 32">
<title>upload</title>
<path fill="#444" d="M5.725 13.231h4.994c0.238 0 0.397 0.206 0.397 0.444v8.888c0 0.238 0.225 0.438 0.463 0.438h8.828c0.238 0 0.478-0.2 0.478-0.438v-8.887c0-0.238 0.144-0.444 0.378-0.444h4.991c0.381 0 0.575-0.459 0.303-0.731l-10.262-10.331c-0.169-0.169-0.441-0.169-0.606 0l-10.266 10.328c-0.272 0.272-0.078 0.734 0.303 0.734v0zM27.044 26h-22.103c-0.241 0-0.453 0.262-0.453 0.547v2.869c0 0.288 0.213 0.584 0.453 0.584h22.103c0.241 0 0.469-0.297 0.469-0.584v-2.869c0-0.284-0.228-0.547-0.469-0.547z"></path>
</svg>
