<!-- Generated by IcoMoon.io -->
<svg version="1.1" xmlns="http://www.w3.org/2000/svg" width="32" height="32" viewBox="0 0 32 32">
<title>users</title>
<path fill="#444" d="M11.040 21.024c-0.281-0.254-0.524-0.55-0.732-0.876-0.974 0.984-2.168 1.572-3.463 1.572s-2.489-0.588-3.462-1.572c-0.208 0.325-0.45 0.622-0.731 0.876-1.258 1.131-2.166 2.764-2.468 4.675l-0.128 0.813c-0.056 0.354 0.029 0.719 0.232 0.995s0.502 0.436 0.818 0.436h9.017c-0.519-0.47-0.473-0.992-0.393-1.504 0.28-1.771 0.769-3.216 1.606-4.827 0.133-0.257-0.089-0.405-0.295-0.589zM6.792 19.745c2.574 0 4.659-2.184 4.659-4.876 0-2.694-2.085-4.877-4.659-4.877-2.57 0-4.657 2.183-4.657 4.877 0 2.692 2.087 4.876 4.657 4.876zM28.098 19.099c-0.313-0.282-0.586-0.607-0.84-0.95-1.592 1.685-3.561 2.696-5.697 2.696s-4.106-1.011-5.699-2.694c-0.254 0.341-0.526 0.665-0.839 0.948-1.962 1.774-3.377 4.333-3.847 7.33-0.058 0.376 0.031 0.762 0.245 1.054s0.529 0.462 0.861 0.462h18.555c0.332 0 0.648-0.169 0.861-0.462 0.214-0.292 0.303-0.678 0.245-1.054-0.472-2.997-1.884-5.556-3.844-7.33zM14.555 11.29c0 3.997 3.146 7.236 7.021 7.236s7.018-3.239 7.018-7.236c0-3.995-3.143-7.234-7.018-7.234s-7.021 3.239-7.021 7.234z"></path>
</svg>
