<!-- Generated by IcoMoon.io -->
<svg version="1.1" xmlns="http://www.w3.org/2000/svg" width="32" height="32" viewBox="0 0 32 32">
<title>user-add</title>
<path fill="#444" d="M19.173 16.567c-0.010-0.008-0.009-0.021-0.018-0.029-0.292-0.239-0.543-0.516-0.781-0.806-1.49 1.425-3.33 2.279-5.329 2.279s-3.841-0.855-5.331-2.279c-0.237 0.288-0.492 0.562-0.784 0.802-1.836 1.5-3.159 3.665-3.599 6.199-0.055 0.318 0.029 0.675 0.229 0.922s0.495 0.421 0.806 0.421h10.127v-0.042c0-3.267 1.929-6.12 4.681-7.467zM13.063 16.745c3.865 0 6.999-3.301 6.999-7.375 0-4.072-3.134-7.373-6.999-7.373s-7.003 3.301-7.003 7.373c0 4.074 3.137 7.375 7.003 7.375zM22.305 17.094c-3.53 0-6.42 2.906-6.42 6.454s2.891 6.454 6.42 6.454c3.53 0 6.42-2.906 6.42-6.454s-2.891-6.454-6.42-6.454zM25.508 23.942c0 0.139-0.106 0.231-0.246 0.231h-2.063c-0.139 0-0.227 0.134-0.227 0.274v2.076c0 0.139-0.139 0.282-0.278 0.282h-0.781c-0.139 0-0.208-0.143-0.208-0.282v-2.076c0-0.139-0.157-0.274-0.297-0.274h-2.063c-0.139 0-0.273-0.092-0.273-0.231v-0.788c0-0.139 0.133-0.249 0.273-0.249h2.063c0.139 0 0.297-0.117 0.297-0.256v-2.076c0-0.139 0.069-0.3 0.208-0.3h0.781c0.139 0 0.278 0.161 0.278 0.3v2.076c0 0.139 0.087 0.256 0.227 0.256h2.063c0.139 0 0.246 0.109 0.246 0.249v0.788z"></path>
</svg>
