<!-- Generated by IcoMoon.io -->
<svg version="1.1" xmlns="http://www.w3.org/2000/svg" width="32" height="32" viewBox="0 0 32 32">
<title>user</title>
<path fill="#444" d="M24.097 20.292c-0.387-0.31-0.725-0.667-1.041-1.043-1.972 1.85-4.409 2.959-7.054 2.959-2.646 0-5.084-1.109-7.056-2.957-0.314 0.374-0.652 0.73-1.039 1.041-2.43 1.947-4.181 4.756-4.763 8.046-0.072 0.413 0.038 0.836 0.303 1.157s0.655 0.507 1.066 0.507h22.974c0.412 0 0.803-0.186 1.066-0.507 0.265-0.321 0.376-0.745 0.303-1.157-0.584-3.29-2.333-6.099-4.76-8.046zM7.255 10.852c0 4.892 3.928 8.856 8.767 8.856s8.763-3.964 8.763-8.856c0-4.889-3.924-8.854-8.763-8.854s-8.767 3.964-8.767 8.854z"></path>
</svg>
