<!-- Generated by IcoMoon.io -->
<svg version="1.1" xmlns="http://www.w3.org/2000/svg" width="32" height="32" viewBox="0 0 32 32">
<title>user-change</title>
<path fill="#444" d="M15.174 29.149c-0.298-1.682-1.192-3.117-2.434-4.112v0c-0.197-0.159-0.372-0.342-0.533-0.533-1.009 0.946-2.253 1.512-3.607 1.512s-2.598-0.566-3.607-1.512c-0.161 0.191-0.334 0.375-0.53 0.533-1.241 0.995-2.138 2.431-2.433 4.112-0.038 0.21 0.019 0.427 0.156 0.591 0.134 0.164 0.334 0.26 0.544 0.26h11.744c0.21 0 0.41-0.096 0.544-0.26 0.137-0.164 0.191-0.38 0.156-0.591zM8.615 24.739c2.475 0 4.479-2.026 4.479-4.528 0-2.499-2.007-4.525-4.479-4.525-2.475 0-4.481 2.026-4.481 4.525s2.007 4.528 4.481 4.528zM29.97 15.464c-0.298-1.682-1.192-3.117-2.433-4.112v0c-0.197-0.159-0.372-0.342-0.533-0.533-1.009 0.946-2.253 1.512-3.607 1.512s-2.598-0.566-3.607-1.512c-0.161 0.191-0.334 0.375-0.53 0.533-1.241 0.995-2.138 2.431-2.433 4.112-0.038 0.21 0.019 0.427 0.156 0.591 0.134 0.164 0.334 0.26 0.544 0.26h11.744c0.21 0 0.41-0.096 0.544-0.26 0.137-0.164 0.194-0.38 0.156-0.591zM23.41 11.054c2.475 0 4.479-2.026 4.479-4.528 0-2.499-2.004-4.525-4.479-4.525s-4.482 2.026-4.482 4.525c0 2.502 2.007 4.528 4.482 4.528zM17.585 3.929c-3.25-0.464-6.85 0.35-9.521 4.121-0.118 0.118-0.232 0.175-0.407 0.118l-1.743-0.871c-0.232-0.118-0.522 0.118-0.464 0.407l1.975 6.153c0.057 0.175 0.232 0.289 0.407 0.175l6.039-2.207c0.289-0.118 0.289-0.464 0.057-0.582l-1.743-0.871c-0.175-0.057-0.232-0.289-0.118-0.464 1.45-2.786 3.25-4.528 5.689-5.4 0.235-0.057 0.178-0.522-0.172-0.579v0zM16.034 28.609c3.25 0.464 6.85-0.35 9.521-4.121 0.118-0.118 0.232-0.175 0.407-0.118l1.743 0.871c0.232 0.118 0.522-0.118 0.464-0.407l-1.975-6.153c-0.057-0.175-0.232-0.289-0.407-0.175l-6.039 2.207c-0.289 0.118-0.289 0.464-0.057 0.582l1.743 0.871c0.175 0.057 0.232 0.289 0.118 0.464-1.45 2.786-3.25 4.528-5.689 5.4-0.235 0.054-0.175 0.522 0.172 0.579v0z"></path>
</svg>
