<!-- Generated by IcoMoon.io -->
<svg version="1.1" xmlns="http://www.w3.org/2000/svg" width="32" height="32" viewBox="0 0 32 32">
<title>user-management</title>
<path fill="#444" d="M3.474 20.3h2.475c0.632 0 1.144-0.506 1.144-1.129 0-0.621-0.511-1.128-1.143-1.128h-2.476c-0.633 0-1.145 0.505-1.145 1.128 0 0.621 0.511 1.129 1.145 1.129zM3.474 13.957h2.475c0.632 0 1.144-0.507 1.144-1.128s-0.511-1.129-1.143-1.129h-2.476c-0.633 0-1.145 0.506-1.145 1.129 0 0.621 0.511 1.128 1.145 1.128zM7.093 25.405c0-0.62-0.511-1.128-1.143-1.128h-2.476c-0.633 0-1.145 0.506-1.145 1.128 0 0.623 0.511 1.13 1.145 1.13h2.475c0.632 0 1.144-0.507 1.144-1.13zM28.358 2.24h-22.309c-0.728 0-1.319 0.586-1.319 1.266v1.099h1.218c1.129 0 2.047 0.879 2.047 1.988s-0.918 1.99-2.047 1.99h-1.218v2.258h1.218c1.129 0 2.047 0.933 2.047 2.043s-0.918 2.043-2.047 2.043h-1.218v2.258h1.218c1.129 0 2.047 0.879 2.047 1.988s-0.918 1.99-2.047 1.99h-1.218v2.258h1.218c1.129 0 2.047 0.934 2.047 2.042s-0.918 2.043-2.047 2.043h-1.218v1.028c0 0.68 0.592 1.229 1.319 1.229h22.308c0.726 0 1.314-0.551 1.314-1.229v-25.025c0-0.68-0.588-1.266-1.313-1.266zM18.109 7.413c3.050 0 5.524 2.605 5.524 5.819 0 3.215-2.474 5.821-5.524 5.821s-5.527-2.605-5.527-5.821c0-3.214 2.476-5.819 5.527-5.819zM25.583 24.16c-0.157 0.195-0.39 0.333-0.636 0.333h-13.703c-0.246 0-0.479-0.138-0.636-0.333s-0.224-0.465-0.181-0.716c0.347-2 1.391-3.715 2.841-4.899 0.231-0.189 0.432-0.409 0.619-0.636 1.177 1.124 2.63 1.797 4.209 1.797s3.032-0.675 4.208-1.8c0.188 0.229 0.39 0.445 0.621 0.634 1.448 1.184 2.491 2.905 2.839 4.905 0.043 0.251-0.023 0.521-0.181 0.716zM3.474 7.722h2.476c0.631 0 1.143-0.507 1.143-1.129s-0.512-1.128-1.144-1.128h-2.475c-0.633 0-1.145 0.507-1.145 1.128 0 0.623 0.511 1.129 1.145 1.129z"></path>
</svg>
