<!-- Generated by IcoMoon.io -->
<svg version="1.1" xmlns="http://www.w3.org/2000/svg" width="32" height="32" viewBox="0 0 32 32">
<title>user-update</title>
<path fill="#444" d="M16.177 22.105c3.65 0 6.609-2.959 6.609-6.613 0-3.65-2.959-6.613-6.609-6.613s-6.613 2.959-6.613 6.613c0 3.653 2.963 6.613 6.613 6.613zM28.989 10.892c-2.616-7.041-10.481-10.647-17.484-8.025-6.956 2.606-10.547 10.391-8.056 17.387 0.031 0.091-0.025 0.188-0.122 0.2l-1.712 0.222c-0.144 0.019-0.181 0.209-0.056 0.281l5.463 3.094c0.088 0.050 0.197 0 0.222-0.097l1.341-5.8c0.031-0.137-0.125-0.238-0.238-0.153l-1.481 1.116c-0.081 0.063-0.2 0.025-0.231-0.069-1.825-5.231 0.869-11.037 6.059-12.981 5.247-1.963 11.147 0.741 13.109 6.019 1.494 4.019 0.278 8.419-2.712 11.15-0.278-0.291-0.572-0.566-0.884-0.819-0.284-0.234-0.534-0.503-0.769-0.784-1.456 1.391-3.253 2.225-5.206 2.225s-3.753-0.834-5.206-2.225c-0.231 0.281-0.481 0.55-0.766 0.784-1.794 1.466-3.084 3.578-3.516 6.053-0.053 0.309 0.028 0.647 0.225 0.887 0.194 0.241 0.484 0.397 0.787 0.397h16.956c0.303 0 0.594-0.156 0.788-0.397 0.197-0.241 0.278-0.569 0.225-0.878-0.147-0.837-0.391-1.634-0.719-2.378 4.256-3.613 6.038-9.681 3.984-15.209z"></path>
</svg>
