<!-- Generated by IcoMoon.io -->
<svg version="1.1" xmlns="http://www.w3.org/2000/svg" width="32" height="32" viewBox="0 0 32 32">
<title>ux</title>
<path fill="#444" d="M16 2c-7.731 0-14 6.268-14 14s6.268 14 14 14 14-6.268 14-14-6.268-14-14-14zM15.26 17.050c0 3.492-1.764 5.153-4.718 5.153-2.851 0-4.53-1.576-4.53-5.185v-6.311h2.567v6.51c0 1.946 0.74 2.936 2.049 2.936 1.343 0 2.080-0.939 2.080-2.936v-6.51h2.553v6.343zM23.432 22.018l-1.025-2.049c-0.418-0.789-0.689-1.378-1.007-2.032h-0.035c-0.236 0.654-0.521 1.24-0.874 2.032l-0.939 2.049h-2.919l3.272-5.722-3.153-5.589h2.936l0.99 2.063c0.336 0.689 0.586 1.24 0.857 1.881h0.035c0.268-0.722 0.486-1.226 0.771-1.881l0.956-2.063h2.919l-3.19 5.52 3.357 5.79h-2.954z"></path>
</svg>
