<!-- Generated by IcoMoon.io -->
<svg version="1.1" xmlns="http://www.w3.org/2000/svg" width="32" height="32" viewBox="0 0 32 32">
<title>warning</title>
<path fill="#444" d="M30.896 26.766l-13.407-22.983c-0.665-1.14-2.312-1.14-2.977 0l-13.407 22.983c-0.67 1.149 0.159 2.592 1.489 2.592h26.814c1.33 0 2.159-1.443 1.489-2.592zM17.788 25.383c0 0.467-0.378 0.845-0.845 0.845h-1.886c-0.467 0-0.845-0.378-0.845-0.845v-1.295c0-0.467 0.378-0.845 0.845-0.845h1.886c0.467 0 0.845 0.378 0.845 0.845v1.295zM17.788 19.94c0 0.467-0.378 0.845-0.845 0.845h-1.886c-0.467 0-0.845-0.378-0.845-0.845v-8.226c0-0.467 0.378-0.845 0.845-0.845h1.886c0.467 0 0.845 0.378 0.845 0.845v8.226z"></path>
</svg>
