<!-- Generated by IcoMoon.io -->
<svg version="1.1" xmlns="http://www.w3.org/2000/svg" width="32" height="32" viewBox="0 0 32 32">
<title>warning-circle</title>
<path fill="#444" d="M16.547 19.097h-1.094c-0.272 0-0.491 0.219-0.491 0.491v0.753c0 0.272 0.219 0.491 0.491 0.491h1.094c0.272 0 0.491-0.219 0.491-0.491v-0.753c0-0.272-0.219-0.491-0.491-0.491z"></path>
<path fill="#444" d="M16.547 11.912h-1.094c-0.272 0-0.491 0.219-0.491 0.491v4.775c0 0.272 0.219 0.491 0.491 0.491h1.094c0.272 0 0.491-0.219 0.491-0.491v-4.775c0-0.269-0.219-0.491-0.491-0.491z"></path>
<path fill="#444" d="M16 2c-7.766 0-14 6.234-14 14s6.234 14 14 14 14-6.234 14-14-6.234-14-14-14zM23.781 22.644h-15.563c-0.772 0-1.253-0.837-0.866-1.503l7.781-13.341c0.387-0.662 1.341-0.662 1.728 0l7.781 13.341c0.391 0.666-0.091 1.503-0.863 1.503z"></path>
</svg>
