<!-- Generated by IcoMoon.io -->
<svg version="1.1" xmlns="http://www.w3.org/2000/svg" width="32" height="32" viewBox="0 0 32 32">
<title>wealth</title>
<path fill="#444" d="M10.82 9.207c0.087 0.163 0.32 0.165 0.409 0.003l3.665-6.681c0.086-0.156-0.027-0.365-0.205-0.365h-7.21c-0.176 0-0.289 0.206-0.206 0.362l3.547 6.681zM12.334 10.117h7.346c0.179 0 0.292-0.217 0.206-0.374l-3.674-6.692c-0.088-0.161-0.319-0.167-0.408-0.006l-3.675 6.703c-0.086 0.156 0.027 0.369 0.205 0.369zM20.786 9.21c0.089 0.162 0.322 0.16 0.409-0.003l3.547-6.681c0.083-0.156-0.030-0.362-0.206-0.362h-7.21c-0.178 0-0.291 0.209-0.205 0.365l3.666 6.681zM9.926 9.745l-3.569-6.717c-0.082-0.154-0.298-0.173-0.397-0.029l-4.625 6.729c-0.107 0.155 0.004 0.389 0.193 0.389h8.19c0.177 0 0.291-0.214 0.208-0.371zM30.664 9.724l-4.616-6.705c-0.099-0.144-0.315-0.138-0.397 0.016l-3.563 6.715c-0.083 0.156 0.030 0.366 0.206 0.366h8.177c0.189 0 0.3-0.237 0.193-0.392zM29.833 10.976h-7.984c-0.277 0-0.516 0.182-0.574 0.454l-3.562 17.277c-0.134 0.634 0.702 0.984 1.061 0.446l11.546-17.272c0.261-0.391-0.019-0.904-0.488-0.904zM19.645 10.976h-7.274c-0.373 0-0.651 0.332-0.574 0.698l3.628 17.54c0.131 0.621 1.016 0.618 1.147-0.003l3.645-17.535c0.077-0.366-0.201-0.7-0.574-0.7zM10.739 11.43c-0.058-0.272-0.297-0.454-0.574-0.454h-7.998c-0.469 0-0.748 0.512-0.487 0.903l11.587 17.277c0.359 0.538 1.195 0.187 1.061-0.446l-3.589-17.28z"></path>
</svg>
