<!-- Generated by IcoMoon.io -->
<svg version="1.1" xmlns="http://www.w3.org/2000/svg" width="32" height="32" viewBox="0 0 32 32">
<title>withdraw</title>
<path fill="#444" d="M15.646 3.123l-4.282 4.282c-0.1 0.1-0.149 0.218-0.149 0.354s0.050 0.255 0.149 0.354c0.1 0.1 0.218 0.149 0.354 0.149h2.267v3.526c0 0.137 0.050 0.255 0.149 0.354s0.218 0.149 0.354 0.149h3.022c0.136 0 0.255-0.050 0.354-0.149s0.15-0.218 0.15-0.354v-3.526h2.267c0.136 0 0.255-0.050 0.354-0.149s0.149-0.218 0.149-0.354c0-0.136-0.050-0.255-0.149-0.354l-4.282-4.282c-0.1-0.1-0.218-0.15-0.354-0.15s-0.255 0.050-0.354 0.15h0zM4.668 26.848v-7.702c0-0.276-0.207-0.517-0.483-0.517h-1.601c-0.276 0-0.517 0.241-0.517 0.517v10.303c0 0.276 0.241 0.483 0.517 0.483h26.865c0.276 0 0.483-0.207 0.483-0.483v-10.303c0-0.276-0.207-0.517-0.483-0.517h-1.601c-0.276 0-0.517 0.241-0.517 0.517v7.702c0 0.276-0.207 0.483-0.483 0.483h-21.663c-0.276 0-0.517-0.207-0.517-0.483v0zM24.574 13.618h-17.148c-1.062 0-1.934 0.763-1.934 1.722v6.961c0 0.533 0.383 1.112 0.696 1.357 0.248 0.194 0.774 0.39 1.239 0.39h17.148c1.062 0 1.934-0.787 1.934-1.747v-6.961c0-0.959-0.872-1.722-1.934-1.722h0zM25.070 20.346h-0c-1.128 0.366-2.14 1.209-2.608 2.401h-12.938c-0.481-1.149-1.512-1.994-2.592-2.376v-3.089c1.104-0.368 2.107-1.192 2.584-2.385h12.957c0.465 1.257 1.445 2.056 2.597 2.407v3.041l-0 0zM16 15.741c-1.319 0-2.388 1.379-2.388 3.081s1.069 3.081 2.388 3.081c1.319 0 2.388-1.38 2.388-3.081s-1.069-3.081-2.388-3.081z"></path>
</svg>
