<?xml version="1.0" encoding="utf-8"?>
<!-- Generator: Adobe Illustrator 19.2.1, SVG Export Plug-In . SVG Version: 6.00 Build 0)  -->
<svg version="1.1" id="Outline_copy" xmlns="http://www.w3.org/2000/svg" xmlns:xlink="http://www.w3.org/1999/xlink" x="0px"
	 y="0px" width="1296px" height="324px" viewBox="0 0 1296 324" style="enable-background:new 0 0 1296 324;" xml:space="preserve">
<style type="text/css">
	.st0{fill:none;}
	.st1{fill:#005294;}
	.st2{fill:#23659D;}
	.st3{fill:#9AD9E5;}
	.st4{fill:#074E88;}
	.st5{fill:#165C98;}
	.st6{fill:#2E6DA2;}
	.st7{fill:#7ED0E0;}
	.st8{fill:#8ED5E3;}
	.st9{fill:#A7DFE9;}
	.st10{fill:#C0E8F0;}
	.st11{fill:#FFFFFF;}
</style>
<g>
	<g>
		<polygon class="st0" points="203.2,47.3 184.5,37.9 156.3,56.7 175.1,75.5 		"/>
		<polygon class="st0" points="222,84.9 203.2,94.2 193.8,113 231.4,113 259.6,113 250.2,75.5 		"/>
		<polygon class="st0" points="203.2,131.8 175.1,160 203.2,188.1 231.4,197.5 240.8,235.1 233.7,263.2 259.6,253.9 287.7,216.3 
			278.3,188.1 278.3,141.2 250.2,122.4 		"/>
		<polygon class="st0" points="203.2,66.1 203.2,84.9 212.6,84.9 		"/>
		<path class="st1" d="M54.2,134.1v16.4v16.6v27v21.5v0.2c0,5.3,1.2,10.4,3.5,15c3,6.1,7.7,11.3,13.8,14.8l52.9,30.5l-12.6-50.6
			l-21.1-28.2L100,160l-37.6-9.4L54.2,134.1z"/>
		<path class="st1" d="M278.3,141.2v46.9l9.4,28.2l-28.2,37.6l-25.8,9.4l7-28.2l-9.4-37.6l-28.2-9.4L175.1,160l28.2-28.2l46.9-9.4
			L278.3,141.2L259.6,113h-28.2h-37.6l9.4-18.8l18.8-9.4l28.2-9.4l9.4,37.6V59.6v0l-1.1-0.6l-5.8-3.4l-36.5-21.1l-17-9.8h0
			c-4.6-2.6-9.6-4.1-14.7-4.5c-5.2-0.4-10.5,0.4-15.4,2.4c-1.5,0.6-2.9,1.3-4.4,2.1l-34.8,20.1l-8.6,5l35,7l28.2-18.8l18.8,9.4
			l-28.2,28.2l-18.8-18.8l9.4,37.6L137.5,113l-18.8,18.8H90.6L100,160l65.7,28.2l11.7,37.6l-11.7,18.8l-18.1,45.2l0.7,0.4l16.5,9.5
			c5.3,3.1,11.3,4.6,17.2,4.6c0.8,0,1.7,0,2.5-0.1c2.7-0.2,5.4-0.7,8-1.6c2.3-0.7,4.5-1.7,6.7-2.9l44.7-25.8l19.5-11.2l21.2-12.2
			l7.9-4.5c6.3-3.6,11.1-9.1,14-15.5c2-4.4,3.1-9.3,3.1-14.3v-28.7v-6.9v-8L278.3,141.2z M203.2,66.1l9.4,18.8h-9.4V66.1z"/>
	</g>
	<g>
		<polygon class="st2" points="233.7,263.2 243.8,273.8 263.3,262.5 259.6,253.9 		"/>
		<polygon class="st2" points="250.2,75.5 203.2,47.3 203.2,66.1 		"/>
		<polygon class="st2" points="54.2,134.1 54.2,150.6 62.4,150.6 		"/>
		<path class="st2" d="M90.6,197.5l-36.4,18.2v0.2c0,5.3,1.2,10.4,3.5,15l54.1-5.3L90.6,197.5z"/>
		<polygon class="st2" points="278.3,188.1 309.5,180.4 309.5,172.4 278.3,141.2 		"/>
		<polygon class="st2" points="165.7,94.2 137.5,113 175.1,160 		"/>
		<path class="st2" d="M306.4,230.3c2-4.4,3.1-9.3,3.1-14.3v-28.7l-21.8,29L306.4,230.3z"/>
		<polygon class="st2" points="177.4,225.7 184.5,253.9 231.4,197.5 		"/>
		<polygon class="st1" points="62.4,150.6 54.2,150.6 54.2,167.2 90.6,197.5 		"/>
		<polygon class="st1" points="184.5,253.9 233.7,263.2 240.8,235.1 		"/>
		<path class="st1" d="M148.2,290.1l16.5,9.5c5.3,3.1,11.3,4.6,17.2,4.6c0.8,0,1.7,0,2.5-0.1v-50.3L148.2,290.1z"/>
		<polygon class="st1" points="287.7,216.3 309.5,187.3 309.5,180.4 278.3,188.1 		"/>
		<polygon class="st1" points="203.2,94.2 165.7,94.2 193.8,113 		"/>
		<polygon class="st1" points="263.3,262.5 284.5,250.3 259.6,253.9 		"/>
		<path class="st1" d="M192.5,302.6c2.3-0.7,4.5-1.7,6.7-2.9l44.7-25.8l-10.1-10.5L192.5,302.6z"/>
		<polygon class="st1" points="165.7,188.1 177.4,225.7 203.2,188.1 		"/>
		<polygon class="st1" points="252.6,55.5 216.1,34.4 203.2,47.3 		"/>
		<path class="st1" d="M203.2,47.3l-4.1-22.7c-4.6-2.6-9.6-4.1-14.7-4.5v17.8L203.2,47.3z"/>
		<polygon class="st1" points="175.1,75.5 203.2,94.2 203.2,84.9 		"/>
		<polygon class="st1" points="203.2,66.1 203.2,47.3 175.1,75.5 		"/>
		<polygon class="st1" points="118.7,131.8 165.7,188.1 175.1,160 		"/>
		<polygon class="st3" points="259.6,113 259.6,59.5 258.5,58.9 250.2,75.5 		"/>
		<polygon class="st1" points="165.7,244.5 184.5,253.9 177.4,225.7 		"/>
		<path class="st4" d="M184.5,253.9v50.3c2.7-0.2,5.4-0.7,8-1.6l41.3-39.3L184.5,253.9z"/>
		<polygon class="st4" points="54.2,167.2 54.2,194.2 90.6,197.5 		"/>
		<polygon class="st4" points="231.4,113 193.8,113 203.2,131.8 		"/>
		<polygon class="st4" points="250.2,122.4 278.3,141.2 259.6,113 		"/>
		<polygon class="st4" points="193.8,113 165.7,94.2 175.1,160 		"/>
		<polygon class="st4" points="175.1,160 165.7,188.1 203.2,188.1 		"/>
		<path class="st4" d="M216.1,34.4l-17-9.8h0l4.1,22.7L216.1,34.4z"/>
		<polygon class="st4" points="203.2,66.1 175.1,75.5 203.2,84.9 		"/>
		<polygon class="st4" points="100,160 165.7,188.1 118.7,131.8 		"/>
		<polygon class="st5" points="175.1,75.5 165.7,94.2 203.2,94.2 		"/>
		<polygon class="st5" points="212.6,84.9 203.2,94.2 222,84.9 		"/>
		<polygon class="st5" points="118.7,131.8 90.6,131.8 100,160 		"/>
		<polygon class="st5" points="62.4,150.6 90.6,197.5 100,160 		"/>
		<polygon class="st5" points="165.7,244.5 147.6,289.7 148.2,290.1 184.5,253.9 		"/>
		<path class="st5" d="M184.5,20.1c-5.2-0.4-10.5,0.4-15.4,2.4l15.4,15.4V20.1z"/>
		<polygon class="st5" points="184.5,37.9 129.9,44.7 121.3,49.7 156.3,56.7 		"/>
		<path class="st5" d="M57.6,231c3,6.1,7.7,11.3,13.8,14.8l52.9,30.5l-12.6-50.6L57.6,231z"/>
		<path class="st5" d="M259.6,253.9l24.9-3.6l7.9-4.5c6.3-3.6,11.1-9.1,14-15.5l-18.7-14L259.6,253.9z"/>
		<polygon class="st5" points="54.2,194.2 54.2,215.7 90.6,197.5 		"/>
		<polygon class="st5" points="175.1,160 137.5,113 118.7,131.8 		"/>
		<polygon class="st5" points="222,84.9 250.2,75.5 203.2,66.1 		"/>
		<polygon class="st5" points="250.2,122.4 259.6,113 203.2,131.8 		"/>
		<polygon class="st5" points="193.8,113 175.1,160 203.2,131.8 		"/>
		<polygon class="st5" points="231.4,197.5 184.5,253.9 240.8,235.1 		"/>
		<polygon class="st5" points="177.4,225.7 231.4,197.5 203.2,188.1 		"/>
		<polygon class="st6" points="203.2,131.8 259.6,113 231.4,113 		"/>
		<polygon class="st6" points="250.2,75.5 258.5,58.9 252.6,55.5 203.2,47.3 		"/>
		<polygon class="st6" points="222,84.9 203.2,66.1 212.6,84.9 		"/>
		<polygon class="st6" points="203.2,84.9 203.2,94.2 212.6,84.9 		"/>
		<polygon class="st6" points="156.3,56.7 165.7,94.2 175.1,75.5 		"/>
		<path class="st6" d="M169.1,22.5c-1.5,0.6-2.9,1.3-4.4,2.1l-34.8,20.1l54.6-6.8L169.1,22.5z"/>
		<polygon class="st7" points="137.5,113 54.2,131.5 54.2,131.8 90.6,131.8 		"/>
		<polygon class="st7" points="135.2,282.6 147.6,289.7 165.7,244.5 		"/>
		<polygon class="st7" points="231.4,197.5 240.8,169.4 203.2,188.1 		"/>
		<polygon class="st7" points="240.8,235.1 259.6,253.9 231.4,197.5 		"/>
		<polygon class="st7" points="309.5,172.4 309.5,137.3 278.3,141.2 		"/>
		<path class="st8" d="M64.4,83.8C58,90.2,54.2,99,54.2,108.3v23.3l83.3-18.5L64.4,83.8z"/>
		<polygon class="st8" points="111.7,225.7 124.3,276.3 135.2,282.6 165.7,244.5 		"/>
		<polygon class="st8" points="231.4,197.5 278.3,188.1 240.8,169.4 		"/>
		<polygon class="st8" points="233.7,263.2 259.6,253.9 240.8,235.1 		"/>
		<path class="st8" d="M278.3,141.2l31.2-3.9v-29c0-6.7-1.9-13.1-5.4-18.6L278.3,141.2z"/>
		<polygon class="st8" points="203.2,47.3 156.3,56.7 175.1,75.5 		"/>
		<polygon class="st8" points="240.8,169.4 278.3,141.2 250.2,122.4 		"/>
		<path class="st3" d="M112.5,54.7L71.4,78.5c-2.6,1.5-4.9,3.3-7,5.3l73.1,29.2L112.5,54.7z"/>
		<polygon class="st3" points="137.5,113 90.6,131.8 118.7,131.8 		"/>
		<polygon class="st3" points="90.6,131.8 62.4,150.6 100,160 		"/>
		<polygon class="st3" points="111.7,225.7 165.7,244.5 165.7,188.1 		"/>
		<polygon class="st3" points="231.4,113 259.6,113 222,84.9 		"/>
		<path class="st3" d="M278.3,141.2l25.7-51.5c-1.9-3-4.3-5.7-7-7.9L259.6,113L278.3,141.2z"/>
		<polygon class="st9" points="165.7,94.2 115.9,52.8 112.5,54.7 137.5,113 		"/>
		<polygon class="st9" points="100,160 111.7,225.7 165.7,188.1 		"/>
		<polygon class="st9" points="259.6,113 250.2,75.5 222,84.9 		"/>
		<polygon class="st9" points="222,84.9 193.8,113 231.4,113 		"/>
		<polygon class="st9" points="278.3,188.1 278.3,141.2 240.8,169.4 		"/>
		<polygon class="st9" points="287.7,216.3 278.3,188.1 259.6,253.9 		"/>
		<polygon class="st9" points="175.1,160 240.8,169.4 203.2,131.8 		"/>
		<polygon class="st10" points="203.2,188.1 240.8,169.4 175.1,160 		"/>
		<polygon class="st10" points="212.6,84.9 203.2,66.1 203.2,84.9 		"/>
		<polygon class="st10" points="156.3,56.7 121.3,49.7 115.9,52.8 165.7,94.2 		"/>
		<polygon class="st10" points="90.6,131.8 54.2,131.8 54.2,134.1 62.4,150.6 		"/>
		<polygon class="st10" points="165.7,188.1 165.7,244.5 177.4,225.7 		"/>
		<polygon class="st10" points="90.6,197.5 111.7,225.7 100,160 		"/>
		<polygon class="st10" points="203.2,94.2 193.8,113 222,84.9 		"/>
		<path class="st10" d="M297.1,81.8c-1.5-1.2-3-2.3-4.7-3.3l-32.8-18.9V113L297.1,81.8z"/>
		<polygon class="st10" points="240.8,169.4 250.2,122.4 203.2,131.8 		"/>
		<polygon class="st10" points="259.6,253.9 278.3,188.1 231.4,197.5 		"/>
		<polygon class="st10" points="184.5,37.9 156.3,56.7 203.2,47.3 		"/>
	</g>
</g>
<polygon class="st11" points="366,91.3 366,108.1 406.4,108.1 406.4,231.9 425.6,231.9 425.6,108.1 464.8,108.1 470.6,91.3 "/>
<polygon class="st11" points="488.5,91.3 488.5,231.9 560.9,231.9 560.9,215.1 507.5,215.1 507.5,168.3 553.8,168.3 553.8,151.7 
	507.5,151.7 507.5,108.2 554.3,108.2 560.5,91.3 "/>
<g>
	<path class="st11" d="M705.4,231.9v-95.6c0-5.1,0-8.3,0.4-14.9h-0.2c-2.3,5.8-5.3,10.5-7.7,14.1L663.1,191H652l-37.1-55.7
		c-2.4-3.6-4.9-7.5-7.7-13.9h-0.4c0.9,6.6,0.9,9.8,0.9,14.7v95.8h-19V91.3h18.6l42.7,63.4c3.6,5.8,6,9.4,7.7,13.2h0.4
		c1.7-3.6,3.4-7.5,7.3-13.4l40.1-63.2h19v140.6H705.4z"/>
</g>
<polygon class="st11" points="758.1,91.3 758.1,231.9 830.4,231.9 830.4,215.1 777.1,215.1 777.1,168.3 823.4,168.3 823.4,151.7 
	777.1,151.7 777.1,108.2 823.8,108.2 830,91.3 "/>
<path class="st11" d="M960.1,231.9l-68.7-90.7c-7.7-9.8-11.5-15.4-14.5-20.9h-0.4c0.4,4.7,0.6,10.5,0.6,17.5v94.1h-19V91.3h19.4
	l65.9,87.3c8.5,11.3,12.6,16.6,15.4,22.4h0.4c-0.2-5.3-0.4-11.3-0.4-18.4V91.3h19v140.6H960.1z"/>
<path class="st11" d="M1073.9,107.3c-30.3,0-49.9,21.3-49.9,55.1c0,33.7,19.6,55.1,49.9,55.1s49.9-21.3,49.9-55.1
	C1123.8,130.3,1105.9,107.3,1073.9,107.3 M1023.5,110.3c12.6-12.6,30.1-20.1,50.4-20.1c21.8,0,40.3,8.1,52.7,22
	c11.3,12.8,17.7,30.1,17.7,49.9c0,21.5-7.7,40.1-20.7,52.9c-12.6,12.2-29.7,19-49.7,19c-19.4,0-35.8-6.2-48.2-17.5
	c-13.9-12.8-22-31.8-22-54C1003.7,141.4,1010.9,123.3,1023.5,110.3"/>
<path class="st11" d="M1202.1,234.1c-19,0-31.8-6.2-40.1-11.7l8.5-14.7c6,4.5,17.3,10.2,30.9,10.2c12.2,0,26.5-5.8,26.5-19.6
	c0-23-33.9-27.7-51-46.5c-6-6.4-9.8-14.5-9.8-25.4c0-20.1,15.4-36.1,42.2-36.1c14.9,0,25.6,3.6,32.4,7l-0.2,18.8
	c-8.5-5.3-19.8-9.4-31.4-9.4c-13,0-23.9,5.3-23.9,17.7c0,29.4,61.9,29.2,61.9,71.9C1248.2,219.1,1228.2,234.1,1202.1,234.1"/>
</svg>
