<?xml version="1.0" standalone="no"?>
<!DOCTYPE svg PUBLIC "-//W3C//DTD SVG 1.1//EN" "http://www.w3.org/Graphics/SVG/1.1/DTD/svg11.dtd" >
<svg xmlns="http://www.w3.org/2000/svg" xmlns:xlink="http://www.w3.org/1999/xlink" version="1.1">
<metadata>
Created by FontForge 20170104 at Fri May 26 11:57:35 2017
 By Pawel Szczepkowski
Copyright (c) 2017, Pawel Szczepkowski
</metadata>
<defs>
<font id="icons" horiz-adv-x="412" >
  <font-face 
    font-family="icons"
    font-weight="400"
    font-stretch="normal"
    units-per-em="512"
    panose-1="2 0 5 3 0 0 0 0 0 0"
    ascent="448"
    descent="-64"
    bbox="-1.23529 -72 513 623.157"
    underline-thickness="25"
    underline-position="-76"
    unicode-range="U+E001-E0FA"
  />
<missing-glyph horiz-adv-x="187" 
d="M17 0v341h136v-341h-136zM34 17h102v307h-102v-307z" />
    <glyph glyph-name=".notdef" horiz-adv-x="187" 
d="M17 0v341h136v-341h-136zM34 17h102v307h-102v-307z" />
    <glyph glyph-name=".null" horiz-adv-x="0" 
 />
    <glyph glyph-name="nonmarkingreturn" horiz-adv-x="170" 
 />
    <glyph glyph-name="uniE001" unicode="&#xe001;" horiz-adv-x="414" 
d="M355 325l59 -168q-75 1 -153 -28.5t-119 -58.5l-40 -30l-13 35q142 100 283 100h16l-53 151zM318 352l58 -168q-47 1 -96.5 -11t-86.5 -29.5t-67 -35t-46 -29.5l-15 -12l-65 170q52 37 104 62.5t89 35.5t66.5 14.5t44.5 3.5zM209 172q23 11 31.5 36.5t-3.5 52.5
t-36.5 38.5t-47.5 1.5q-23 -11 -31.5 -36.5t3.5 -52.5t36.5 -38.5t47.5 -1.5zM194 264q-15 -1 -22.5 -6.5t-6.5 -17.5l32 11l2 -9l-31 -10q0 -1 1 -3t1 -3l30 10l2 -8l-27 -10q16 -21 38 -2l9 -12q-17 -14 -37 -12t-31 19l-12 -4l-1 9l8 3q-1 1 -1 3t-1 3l-8 -3l-2 9l7 2
q-3 19 9 31.5t38 13.5z" />
    <glyph glyph-name="uniE002" unicode="&#xe002;" 
d="M412 41h-412v237h177l-20 -20h-137v-197h373v197h-74l15 20h78v-237zM305 315q21 -28 -64 -111zM256 219l-15 -15l-14 15l14 15zM330 333l-26 -22l-14 17l26 22zM81 140l20 -23q-31 -20 -36 -14t16 37zM300 325q15 -19 -55 -89.5t-135 -113.5l-23 27q38 50 107 114
l29 -34l7 7l-29 34q82 75 99 55zM231 157h127h-127zM182 111h176h-176zM179 97v28h178v-28h-178zM220 139v28h137v-28h-137z" />
    <glyph glyph-name="uniE003" unicode="&#xe003;" horiz-adv-x="414" 
d="M199 190q20 8 27.5 29t-1.5 42t-30 30t-41 1t-27.5 -29.5t1.5 -42.5q10 -21 30.5 -29.5t40.5 -0.5zM306 351l55 -157q-45 -1 -93 -12.5t-83.5 -27.5t-64.5 -31.5t-44 -26.5l-16 -11l-60 161q132 100 306 105zM360 308l54 -157q-72 -2 -152 -29.5t-124 -53.5l-43 -27
l-10 26q37 36 140.5 72.5t159.5 31.5q2 0 -6 22.5t-22.5 61t-19.5 52.5q3 0 11 0.5t12 0.5zM187 203l-3 9q-6 -2 -17 -2l-2 11q7 -1 17 2q8 3 7 9q-1 4 -13 4q-19 -2 -23 10q-5 14 9 22l-3 9l9 3l3 -8q6 2 15 2l1 -11q-10 0 -15 -2q-7 -2 -5 -8q1 -3 14 -3q17 0 21 -12
q5 -14 -9 -22l3 -9z" />
    <glyph glyph-name="uniE004" unicode="&#xe004;" 
d="M0 67q0 7 5 12t12 5h378q7 0 12 -5t5 -12v-26q0 -7 -5 -12t-12 -5h-378q-7 0 -12 5t-5 12v26zM17 255q0 8 5 13t12 5h344q7 0 12 -5t5 -13v-25q0 -7 -5 -12t-12 -5h-344q-7 0 -12 5t-5 12v25zM69 161q0 7 5 12t12 5h240q7 0 12 -5t5 -12v-26q0 -7 -5 -12t-12 -5h-240
q-7 0 -12 5t-5 12v26zM309 367q7 0 12 -5t5 -12v-26q0 -7 -5 -12t-12 -5h-206q-7 0 -12 5t-5 12v26q0 7 5 12t12 5h206z" />
    <glyph glyph-name="uniE005" unicode="&#xe005;" 
d="M395 368q7 0 12 -5t5 -12v-27q0 -6 -5 -11t-12 -5h-378q-7 0 -12 5t-5 11v27q0 7 5 12t12 5h378zM0 256q0 7 5 12t12 5h378q7 0 12 -5t5 -12v-26q0 -7 -5 -12t-12 -5h-378q-7 0 -12 5t-5 12v26zM0 161q0 8 5 13t12 5h378q7 0 12 -5t5 -13v-25q0 -7 -5 -12t-12 -5h-378
q-7 0 -12 5t-5 12v25zM0 67q0 7 5 12t12 5h378q7 0 12 -5t5 -12v-25q0 -8 -5 -13t-12 -5h-378q-7 0 -12 5t-5 13v25z" />
    <glyph glyph-name="uniE006" unicode="&#xe006;" 
d="M223 368q7 0 12 -5t5 -12v-26q0 -7 -5 -12t-12 -5h-206q-7 0 -12 5t-5 12v26q0 7 5 12t12 5h206zM0 256q0 7 5 12t12 5h344q7 0 12 -5t5 -12v-26q0 -7 -5 -12q-4 -4 -12 -4h-344q-8 0 -12 4q-5 5 -5 12v26zM0 162q0 7 5 12t12 5h241q7 0 12 -5t5 -12v-26q0 -7 -5 -12
t-12 -5h-241q-7 0 -12 5t-5 12v26zM0 68q0 6 5 11t12 5h378q7 0 12 -5t5 -11v-26q0 -8 -5 -13t-12 -5h-378q-7 0 -12 5t-5 13v26z" />
    <glyph glyph-name="uniE007" unicode="&#xe007;" 
d="M0 68q0 7 5 12t12 5h378q7 0 12 -5t5 -12v-26q0 -7 -5 -12t-12 -5h-378q-7 0 -12 5t-5 12v26zM34 257q0 7 5 12t13 5h343q7 0 12 -5t5 -12v-26q0 -7 -5 -12t-12 -5h-343q-8 0 -13 5t-5 12v26zM137 162q0 8 5 13t13 5h240q7 0 12 -5t5 -13v-25q0 -8 -5 -13t-12 -5h-240
q-8 0 -13 5t-5 13v25zM395 368q7 0 12 -5t5 -12v-26q0 -7 -5 -12t-12 -5h-206q-7 0 -12 5t-5 12v26q0 7 5 12t12 5h206z" />
    <glyph glyph-name="uniE008" unicode="&#xe008;" 
d="M224 -3q-7 -7 -18 -7t-18 7l-180 180q-8 8 -8 18t8 18l27 27q8 8 18 8t18 -8l90 -90v226q0 10 8 18q7 7 17 7h39q11 0 18 -7t7 -18v-226l91 90q8 8 18 8t18 -8l27 -27q8 -8 8 -18t-8 -18z" />
    <glyph glyph-name="uniE009" unicode="&#xe009;" horiz-adv-x="411" 
d="M8 177q-8 8 -8 18t8 18l180 181q8 8 18 8t18 -8l27 -27q8 -8 8 -18t-8 -18l-91 -91h226q11 0 18 -7t7 -18v-39q0 -11 -7 -18t-18 -7h-226l91 -91q8 -8 8 -18t-8 -18l-27 -27q-7 -7 -18 -7t-18 7z" />
    <glyph glyph-name="uniE00A" unicode="&#xe00a;" horiz-adv-x="411" 
d="M404 215q7 -7 7 -18t-7 -18l-180 -180q-8 -8 -18 -8t-18 8l-27 26q-8 8 -8 19q0 9 8 17l90 91h-226q-11 0 -18 7t-7 19v38q0 11 7 18t18 7h226l-90 91q-8 8 -8 18t8 18l27 27q8 8 18 8t18 -8z" />
    <glyph glyph-name="uniE00B" unicode="&#xe00b;" horiz-adv-x="411" 
d="M411 361l-206 -329l-205 329h411z" />
    <glyph glyph-name="uniE00C" unicode="&#xe00c;" horiz-adv-x="330" 
d="M330 -10l-330 206l330 206v-412z" />
    <glyph glyph-name="uniE00D" unicode="&#xe00d;" horiz-adv-x="330" 
d="M0 402l330 -207l-330 -205v412z" />
    <glyph glyph-name="uniE00E" unicode="&#xe00e;" 
d="M0 31l206 330l206 -330h-412z" />
    <glyph glyph-name="uniE00F" unicode="&#xe00f;" 
d="M188 394q8 8 18 8t18 -8l180 -180q8 -8 8 -18t-8 -18l-27 -27q-8 -8 -17 -8q-10 0 -18 8l-91 91v-227q0 -9 -8 -17t-18 -8h-38q-10 0 -18 8q-7 7 -7 17v227l-91 -91q-8 -8 -18 -8t-18 8l-27 27q-8 8 -8 18t8 18z" />
    <glyph glyph-name="uniE010" unicode="&#xe010;" horiz-adv-x="416" 
d="M207 33q-15 -15 -29 -1t0 29l168 168l-69 -1q-8 0 -14 6t-6 14t6 14q7 7 14 7l118 1q5 0 8 -1h1q2 -1 6 -5q2 -2 4 -6q2 -6 2 -8l-2 -118q0 -8 -6.5 -14.5t-14.5 -6.5t-14 6t-6 14l1 69zM209 358q15 14 29 0t-1 -29l-167 -167l69 1q8 0 14 -6t6 -14q0 -9 -6 -15t-15 -6
l-118 -2q-2 0 -8 2q-4 2 -6 4q-1 1 -4 7h-1q-1 3 -1 8l2 118q0 8 6 14.5t14 6.5t14 -6.5t6 -14.5v-68z" />
    <glyph glyph-name="uniE011" unicode="&#xe011;" horiz-adv-x="512" 
d="M256 43q-5 0 -8 3l-245 278q-7 7 1 15q7 7 15 -1l237 -269l237 269q8 8 15 1q8 -8 1 -15l-245 -278q-3 -3 -8 -3z" />
    <glyph glyph-name="uniE012" unicode="&#xe012;" horiz-adv-x="279" 
d="M271 448l8 -8l-249 -248l249 -248l-8 -8l-7 -8l-256 256l-8 8l8 8l256 256z" />
    <glyph glyph-name="uniE013" unicode="&#xe013;" horiz-adv-x="299" 
d="M11 -64q-4 0 -8 4q-7 7 1 15l268 237l-268 237q-8 8 -1 15q8 8 15 1l277 -245q4 -4 4 -8t-4 -8l-277 -245q-3 -3 -7 -3z" />
    <glyph glyph-name="uniE014" unicode="&#xe014;" horiz-adv-x="512" 
d="M501 43q-5 0 -8 3l-237 269l-237 -269q-8 -8 -15 -1q-8 8 -1 15l245 278q8 10 16 0l245 -278q7 -7 -1 -15q-2 -2 -7 -2z" />
    <glyph glyph-name="uniE015" unicode="&#xe015;" 
d="M246 154q10 -14 24 -14h44v35l1 8q4 4 18 -5l73 -62l2.5 -2.5t3 -6t-4.5 -7.5l-75 -61q-5 -6 -9 -9t-9 4v41h-64q-20 10 -28 23l-27 25l41 51zM112 240q-8 7 -19 7h-68q-24 2 -24 19l-1 29q-2 18 18 18h94q11 -9 24 -19l27 -30l-27 -43zM405 271l-75 -67q-6 -4 -10 -3.5
t-6 3.5l-1 3v41h-43q-6 0 -12 -5t-8 -10l-3 -5q-86 -121 -99 -133l-26 -19h-99q-11 0 -16.5 5t-5.5 9v5v26q0 8 6 13t12 6l6 1h63q4 0 10.5 4.5t11.5 9.5l4 5l98 126q4 8 13 15t15 9l7 3h67v47q0 4 3 4.5t5 -1.5l3 -2l83 -74q5 -3 4 -6.5t-4 -6.5z" />
    <glyph glyph-name="uniE016" unicode="&#xe016;" horiz-adv-x="396" 
d="M220 216v117l44 44v-73l88 88l44 -44l-88 -88h73l-44 -44h-117zM220 40v118h117l44 -44h-73l73 -74l-44 -44l-73 74v-74zM44 216l-44 44h73l-73 73l44 44l73 -73v73l44 -44v-117h-117zM44 158h117v-118l-44 -44v74l-73 -74l-44 44l73 74h-73z" />
    <glyph glyph-name="uniE017" unicode="&#xe017;" horiz-adv-x="413" 
d="M167 325h115v75l131 -134l-131 -134v74h-115v119zM245 64h-114v-76l-131 135l131 133v-74h114v-118z" />
    <glyph glyph-name="uniE018" unicode="&#xe018;" 
d="M19 43v24h374v-24h-374zM0 10v24h412v-24h-412zM309 76v175h50v-175h-50zM224 79v174h50v-174h-50zM138 76v175h51v-175h-51zM53 75v175h50v-175h-50zM205 383l194 -93h-387zM14 280h386l-12 -18h-363z" />
    <glyph glyph-name="uniE019" unicode="&#xe019;" horiz-adv-x="413" 
d="M144 239h-38v-112q9 -9 9 -23h19q0 13 10 23v112zM206 347q-13 0 -22 -9.5t-9 -23.5t9 -23.5t22 -9.5t22.5 9.5t9.5 23.5t-9.5 23.5t-22.5 9.5zM307 127v113h-38v-113q9 -9 9 -23h20q0 14 9 23zM226 239h-39v-112q9 -9 9 -23h20q0 13 10 23v112zM28 68q-10 0 -10 11v14
q0 11 10 11h25q0 13 10 23v112h-34q-11 0 -11 11v18q0 11 9 16l170 108q9 5 18 0l170 -108q9 -5 9 -16v-18q0 -10 -10 -10h-34v-113q10 -10 10 -23h24q10 0 10 -11v-14q0 -11 -10 -11h-54h-1h-2h-78h-2h-1h-79h-2h-1h-78h-2h-1h-55zM403 51q10 0 10 -11v-31q0 -11 -10 -11
h-393q-10 0 -10 11v31q0 11 10 11h393z" />
    <glyph glyph-name="uniE01A" unicode="&#xe01a;" horiz-adv-x="454" 
d="M0 354h454v-324h-454v324zM437 46v292h-421v-292h421zM105 176q-8 0 -8 8v57q0 8 8 8h243q8 0 8 -8v-57q0 -8 -8 -8h-243zM186 119l41 41l40 -41h-16v-32h-49v32h-16zM105 160v-33h-8v33h8zM348 127v33h8v-33h-8zM356 297v-32h-8v32h8zM105 297v-32h-8v32h8zM81 249v-8
h-32v8h32zM81 184v-8h-32v8h32zM405 249v-8h-32v8h32zM405 184v-8h-32v8h32z" />
    <glyph glyph-name="uniE01B" unicode="&#xe01b;" horiz-adv-x="413" 
d="M35 128h312v138h-312v-138zM413 238v-82l-30 -13v-49h-383v206h383v-51zM207 159l-42 41l-105 -41l114 81l43 -40l105 40z" />
    <glyph glyph-name="uniE01C" unicode="&#xe01c;" horiz-adv-x="413" 
d="M35 128h312v138h-312v-138zM413 238v-82l-30 -13v-49h-383v206h383v-51z" />
    <glyph glyph-name="uniE01D" unicode="&#xe01d;" horiz-adv-x="413" 
d="M35 128h312v138h-312v-138zM413 238v-82l-30 -13v-49h-383v206h383v-51zM69 156v83h242v-83h-242z" />
    <glyph glyph-name="uniE01E" unicode="&#xe01e;" horiz-adv-x="413" 
d="M35 128h312v138h-312v-138zM413 238v-82l-30 -13v-49h-383v206h383v-51zM257 158h-188v82h85z" />
    <glyph glyph-name="uniE01F" unicode="&#xe01f;" horiz-adv-x="376" 
d="M162 356q0 -5 1 -7q16 2 25 2t25 -2q1 2 1 7q0 10 -7.5 17.5t-18.5 7.5t-18.5 -7t-7.5 -18zM323 110l53 -48q0 -8 -6 -14t-14 -6h-121v-6q0 -19 -13.5 -32t-33.5 -13t-33.5 13t-13.5 32v6h-120q-8 0 -14.5 6t-6.5 14l53 48q0 2 -0.5 6t-0.5 6v100q0 41 25.5 74.5
t65.5 47.5q-2 8 -2 12q0 19 13.5 32t33.5 13t33.5 -13t13.5 -32q0 -4 -2 -12q40 -14 65.5 -47.5t25.5 -74.5v-100q0 -2 -0.5 -6t-0.5 -6z" />
    <glyph glyph-name="uniE020" unicode="&#xe020;" horiz-adv-x="296" 
d="M190 401q10 0 22.5 -3t34 -13t35.5 -37t14 -68q0 -29 -31 -95.5t-31 -75.5h-90q0 9 -31.5 75.5t-31.5 95.5q0 41 14 68t35.5 37t34 13t22.5 3h2h1zM214 134q3 8 20 44q37 76 37 102q0 60 -37 83q-22 13 -44 13h-1h-1h-1q-22 0 -44 -13q-37 -23 -37 -83q0 -26 37 -102
q17 -36 20 -44h11v65h30v-65h10zM144 72v24h90v-24h-90zM167 36v23h44v-23h-44zM157 185q-35 73 -35 95q0 14 1 20q25 -46 42 -85h-7v-33v1q-1 1 -1 2zM151 20v0h14q-30 -30 -68 -30q-41 0 -69 28t-28 70q0 78 65 199v-7q0 -32 42 -120q21 -44 21 -51v-52h23v-37zM80 16
l6 -3q-5 4 -12.5 10.5t-20 27.5t-12.5 42q0 28 12.5 53.5t24.5 37.5l13 11l-16 36q-49 -84 -49 -138q0 -53 54 -77z" />
    <glyph glyph-name="uniE021" unicode="&#xe021;" horiz-adv-x="469" 
d="M395 -64h10v11v426v11h-10h-342h-10v-11v-426v-11h10h342zM384 -43h-320v406h320v-406zM309 363h11v10v64v11h-11h-170h-11v-11v-64v-10h11h170zM299 384h-150v43h150v-43zM0 373v-10h469v10v11h-469v-11zM139 299h-11v-256h11h10v256h-10zM224 299h-11v-256h11h11v256
h-11zM309 299h-10v-256h10h11v256h-11z" />
    <glyph glyph-name="uniE022" unicode="&#xe022;" horiz-adv-x="381" 
d="M0 -10v25q5 1 19 3q4 1 10.5 2.5t7.5 1.5q8 2 15 5q0 1 1 2.5t2 2.5t1 2q2 4 2 6q2 12 2 22v30v134q0 2 -0.5 14.5t-0.5 22.5q0 41 -1 71q-1 17 -4 29l-1 1q-1 2 -2 2q-5 4 -19 4q-2 0 -5.5 0.5t-11 1.5t-13.5 2l-2 22l71 2l103 3h12l2 1h2h3h6q1 0 5 -0.5t6 -0.5h20
q27 0 52 -7q1 0 5 -1t6 -2q1 0 6.5 -2.5t8.5 -4.5q18 -10 28 -21q10 -10 17 -28q2 -5 4 -15t2 -17q0 -20 -9 -35q-10 -17 -25 -28q-7 -4 -15 -8q-3 -1 -11.5 -5.5t-14.5 -7.5q49 -11 72 -38q25 -30 25 -64q0 -17 -8 -43q-6 -18 -19 -31q-18 -19 -38 -30q-21 -9 -55 -15
q-18 -3 -53 -3l-54 1q-24 0 -37 -1q-7 -1 -21.5 -1.5t-22.5 -0.5q-1 0 -9 -1t-15 -1q-29 0 -49 -1zM146 228q4 -1 14 -1q2 0 8 -0.5t8 -0.5q47 0 71 18t24 60q0 30 -23 50q-21 20 -69 20q-16 0 -35 -4v-8q0 -1 0.5 -5.5t0.5 -6.5q0 -4 0.5 -15t0.5 -17v-43v-26v-21zM147 40
q0 -4 3 -12q17 -8 38 -8q34 0 59 11q23 11 33 30q4 8 7 22q3 12 3 26q0 31 -12 49q-17 26 -37 34q-19 8 -67 8q-13 0 -17 -1q-2 0 -5.5 -0.5t-5.5 -1.5v-38v-47z" />
    <glyph glyph-name="uniE023" unicode="&#xe023;" horiz-adv-x="358" 
d="M102 149l-51 42l-51 -42v252h102v-252zM275 179v-29h-143v29h143zM275 245v-30h-143v30h143zM132 401h226v-260q0 -47 -51 -98.5t-101 -51.5h-206v120l40 32v-112h165q26 0 35 19t4 38l-4 19q3 -1 8.5 -2.5t19 -2.5t23.5 1.5t18.5 12.5t8.5 28v217h-186v40zM132 280v30
h143v-30h-143z" />
    <glyph glyph-name="uniE024" unicode="&#xe024;" horiz-adv-x="415" 
d="M381 35v257h34v-257h-34zM232 298q6 0 11 4.5t5 10.5q0 7 -5 11.5t-11 4.5h-51q-6 0 -11 -4.5t-5 -11.5q0 -6 5 -10.5t11 -4.5h51zM322 292h24v-257h-277v257h26q32 66 60 66h103q16 0 34 -20.5t30 -45.5zM0 35v257h34v-257h-34z" />
    <glyph glyph-name="uniE025" unicode="&#xe025;" 
d="M391 289q8 0 14.5 -6t6.5 -14v-216q0 -8 -6.5 -14.5t-14.5 -6.5h-370q-8 0 -14.5 6.5t-6.5 14.5v216q0 8 6.5 14t14.5 6h108v49q0 8 6 14t14 6h113q8 0 14.5 -6t6.5 -14v-49h108zM163 309v-20h86v20q0 8 -6.5 14.5t-14.5 6.5h-44q-8 0 -14.5 -6.5t-6.5 -14.5z" />
    <glyph glyph-name="uniE026" unicode="&#xe026;" horiz-adv-x="348" 
d="M159 186v37h36v-37h-36zM195 166l-12 -11l-24 19h36v-8zM159 103l13 -12l2 -2h-15v14zM159 41v36h36v-36h-36zM108 104l25 21l11 -10v-26h-36v15zM108 41v36h36v-36h-36zM94 162l-29 -24h-8v36h37v-12zM94 77v-36h-37v21l11 9l7 6h19zM231 196l-12 -10h-10v32l7 -6z
M209 106l22 20h15v-37h-37v17zM209 41v36h37v-36h-37zM260 89v37h36v-37h-36zM182 103l-48 44l-77 -64v28l77 63l49 -40l71 61l-27 28h69v-67l-26 26zM269 160l16 -15l7 -7h-32v14zM85 292q-9 0 -9 10v91q0 10 9 10t9 -10v-91q0 -10 -9 -10zM284 348h64v-357h-348v357h63
v-22q-10 -9 -10 -23t9 -23t22 -9q14 0 23 9.5t9 22.5t-10 23v22h136v-22q-11 -9 -11 -23q0 -13 9.5 -22.5t22.5 -9.5t22 9t9 23q0 13 -10 23v22zM322 14v247h-296v-247h296zM263 292q-9 0 -9 10v91q0 10 9 10t9 -10v-91q0 -10 -9 -10z" />
    <glyph glyph-name="uniE027" unicode="&#xe027;" horiz-adv-x="397" 
d="M366 360q14 0 21.5 -8t8.5 -16l1 -7v-305q0 -14 -7.5 -21.5t-15.5 -8.5h-8h-335q-3 0 -8.5 0.5t-14 8t-8.5 21.5v305q0 3 1 8.5t8.5 14t21.5 8.5h30v15q0 6 4.5 10.5t10.5 4.5t11 -4.5t5 -10.5v-15h213v15q0 6 5 10.5t11 4.5t10.5 -4.5t4.5 -10.5v-15h30zM92 24v61h-61
v-61h61zM92 116v61h-61v-61h61zM92 207v61h-61v-61h61zM183 24v61h-61v-61h61zM183 116v61h-61v-61h61zM183 207v61h-61v-61h61zM275 24v61h-61v-61h61zM275 116v61h-61v-61h61zM275 207v61h-61v-61h61zM366 24v61h-61v-61h61zM366 116v61h-61v-61h61zM366 207v61h-61v-61
h61z" />
    <glyph glyph-name="uniE028" unicode="&#xe028;" 
d="M110 301q-11 0 -19.5 8.5t-8.5 19.5v28q0 11 8.5 19.5t19.5 8.5t19 -8.5t8 -19.5v-28q0 -11 -8 -19.5t-19 -8.5zM302 301q-11 0 -19 8.5t-8 19.5v28q0 11 8 19.5t19 8.5t19.5 -8.5t8.5 -19.5v-28q0 -11 -8.5 -19.5t-19.5 -8.5zM385 192l-32 -26l-18 22l-14 -15l21 -23
l-22 -19l-7 -19l37 24l30 -23l2 13l6 7l-29 17l46 43zM385 275l-32 -25l-18 22l-14 -15l21 -23l-22 -19l-7 -20l37 25l30 -23l2 13l6 7l-29 17l46 43zM289 192l-32 -26l-18 22l-14 -15l21 -23l-22 -19l-7 -19l37 24l30 -23l2 13l6 7l-29 17l46 43zM289 275l-32 -25l-18 22
l-14 -15l21 -23l-22 -19l-7 -20l37 25l30 -23l2 13l6 7l-29 17l46 43zM193 108l-33 -26l-18 22l-13 -15l21 -23l-22 -19l-7 -19l37 24l30 -23l2 13l6 7l-29 17l46 43zM193 192l-33 -26l-18 22l-13 -15l21 -23l-22 -19l-7 -19l37 24l30 -23l2 13l6 7l-29 17l46 43zM193 275
l-33 -25l-18 22l-13 -15l21 -23l-22 -19l-7 -20l37 25l30 -23l2 13l6 7l-29 17l46 43zM97 108l-33 -26l-18 22l-13 -15l21 -23l-22 -19l-7 -19l37 24l30 -23l2 13l6 7l-30 17l47 43zM97 192l-33 -26l-18 22l-13 -15l21 -23l-22 -19l-7 -19l37 24l30 -23l2 13l6 7l-30 17
l47 43zM97 275l-33 -25l-18 22l-13 -15l21 -23l-22 -19l-7 -20l37 25l30 -23l2 13l6 7l-30 17l47 43zM220 49h68v42h-68v-42zM316 49h68v42h-68v-42zM384 7h-357q-11 0 -19 8.5t-8 19.5v280q0 11 8 19.5t19 8.5h41v-15q0 -19 10.5 -29.5t21.5 -11.5l10 -1q18 0 28.5 11
t11.5 21l1 11v14h109l1 -15q0 -19 10.5 -29.5t20.5 -11.5l10 -1q18 0 28.5 11t11.5 21l1 11v14h41q11 0 19.5 -8.5t8.5 -19.5v-280q0 -11 -8.5 -19.5t-19.5 -8.5z" />
    <glyph glyph-name="uniE029" unicode="&#xe029;" horiz-adv-x="413" 
d="M348 334q0 -8 -5 -13t-13 -5t-13 5t-5 13v46q0 8 5 13t13 5t13 -5t5 -13v-46zM102 380v-46q0 -8 -5 -13t-13 -5t-13 5t-5 13v46q0 8 5 13t13 5t13 -5t5 -13zM370 353h43v-359h-413v359h44v-19q0 -16 12 -28t28 -12t28 12t12 28v19h166v-19q0 -16 12 -28t28 -12t28 12
t12 28v19zM373 34v222h-333v-222h333zM216 116q0 -21 -15 -33.5t-37 -12.5q-25 0 -39 13.5t-13 39.5h30q2 -27 22 -27q8 0 14 5.5t6 14.5q0 12 -7.5 15t-24.5 3v23q29 -2 29 15q0 16 -17 16q-19 0 -19 -24h-30q1 25 14.5 38t34.5 13q18 0 32.5 -11t14.5 -29q0 -19 -15 -27
q20 -8 20 -32zM296 73h-32v87h-34v25q36 -2 40 27h26v-139z" />
    <glyph glyph-name="uniE02A" unicode="&#xe02a;" horiz-adv-x="358" 
d="M264 19h64v51h-64v-51zM30 70v-51h64v51h-64zM94 266h-64v-52h64v52zM62 367v-60q0 -15 18 -15q17 0 17 15v60q0 15 -17 15q-18 0 -18 -15zM174 266h-70v-52h70v52zM162 367v-60q0 -15 17 -15t17 15v60q0 15 -17 15t-17 -15zM254 266h-70v-52h70v52zM261 367v-60
q0 -15 18 -15q17 0 17 15v60q0 15 -17 15q-18 0 -18 -15zM328 266h-64v-52h64v52zM264 135v-55h64v55h-64zM184 80h70v55h-70v-55zM184 70v-51h70v51h-70zM174 70h-70v-51h70v51zM104 135v-55h70v55h-70zM94 145v59h-64v-59h64zM174 145v59h-70v-59h70zM254 145v59h-70v-59
h70zM328 145v59h-64v-59h64zM30 135v-55h64v55h-64zM316 345h42v-356h-358v356h43v22q0 35 37 35t37 -35v-22h25v22q0 35 37 35t37 -35v-22h25v22q0 16 10.5 25.5t27.5 9.5q37 0 37 -35v-22z" />
    <glyph glyph-name="uniE02B" unicode="&#xe02b;" 
d="M121 128q0 -17 -12 -29t-29 -12t-28.5 12t-11.5 29t11.5 29t28.5 12t29 -12t12 -29zM138 242h95v46h-50q-7 0 -45 -46zM259 127v0h-114v1q0 27 -19 45.5t-46 18.5q-26 0 -45 -19t-19 -45q-16 5 -16 22v53q0 11 10.5 18.5t26.5 10.5t27 4.5t18 1.5h20q14 19 38.5 43.5
t31.5 24.5h134v-2q-11 -5 -22 -16h-24v-46h1v-9q0 -25 14 -44l-7 -26l-8 -31zM364 87h-27v25q-28 2 -45 12l8 31q20 -11 44 -11q26 0 26 16q0 14 -28 24q-49 17 -49 49q0 18 12.5 31t33.5 17v25h26v-24q21 0 39 -8l-8 -31q-23 10 -39 10q-23 0 -23 -16q0 -11 33 -22
q45 -15 45 -51q0 -18 -12.5 -31.5t-35.5 -17.5v-28z" />
    <glyph glyph-name="uniE02C" unicode="&#xe02c;" horiz-adv-x="413" 
d="M176 285q-6 0 -43 -45h91v45h-48zM300 285h-50v-45h84q-4 6 -9 14t-8 12.5t-6 9.5t-6 7t-5 2zM380 236q9 0 21 -9t12 -18v-57q0 -18 -17 -21q0 25 -18 43.5t-44 18.5t-44 -18.5t-18 -43.5v-1h-133l1 1q0 25 -18.5 43.5t-44.5 18.5q-25 0 -43.5 -18.5t-18.5 -43.5
q-15 5 -15 21v51q0 19 28 26t51 7h19q13 19 36.5 42.5t30.5 23.5h146q7 0 23.5 -23t27.5 -43h18zM117 131q0 -16 -11.5 -27.5t-28.5 -11.5t-28 11t-11 28t11 28t28 11t28.5 -11.5t11.5 -27.5zM372 131q0 -16 -11.5 -27.5t-28.5 -11.5q-16 0 -27.5 11t-11.5 28t11.5 28
t27.5 11q17 0 28.5 -11.5t11.5 -27.5z" />
    <glyph glyph-name="uniE02D" unicode="&#xe02d;" horiz-adv-x="414" 
d="M0 144v109h196v-109h-196zM218 144v109h196v-109h-196zM196 35v327h22v-327h-22zM196 35v327h22v-327h-22z" />
    <glyph glyph-name="uniE02E" unicode="&#xe02e;" horiz-adv-x="387" 
d="M155 264v82h103v-82h-103zM155 154v82h232v-82h-232zM0 45v82h129v-82h-129zM129 -10v411h26v-411h-26z" />
    <glyph glyph-name="uniE02F" unicode="&#xe02f;" horiz-adv-x="407" 
d="M0 20v68h163v-68h-163zM0 115v68h258v-68h-258zM0 211v67h326v-67h-326zM0 374h407v-68h-407v68z" />
    <glyph glyph-name="uniE030" unicode="&#xe030;" horiz-adv-x="414" 
d="M0 144v104h249v-104h-249zM352 144v104h62v-104h-62zM269 144v104h62v-104h-62z" />
    <glyph glyph-name="uniE031" unicode="&#xe031;" horiz-adv-x="416" 
d="M377 212v-106q0 -13 -13 -13h-26q-13 0 -13 13v106q0 13 13 13h26q13 0 13 -13zM286 147v-41q0 -13 -13 -13h-26q-13 0 -13 13v41q0 13 13 13h26q13 0 13 -13zM195 199v-93q0 -13 -13 -13h-26q-13 0 -13 13v93q0 13 13 13h26q13 0 13 -13zM104 147v-41q0 -13 -13 -13h-26
q-13 0 -13 13v41q0 13 13 13h26q13 0 13 -13zM403 40h-390q-13 0 -13 13v287q0 13 13 13t13 -13v-273h377q5 0 9 -4.5t4 -9.5q0 -13 -13 -13zM49 246q-16 13 -3 28l36 44q6 7 16 7t16 -7l26 -36l35 48q6 13 18 13q13 0 19 -13l42 -56l41 54q3 12 17 14q13 2 20 -11l41 -42
q8 -17 -10 -26q-17 -9 -26 9l-19 38l-42 -58q-4 -14 -18 -14h-1q-13 0 -18 12l-45 62l-30 -56q-5 -11 -16 -13q-12 -2 -19 8l-32 23l-20 -25q-12 -15 -28 -3z" />
    <glyph glyph-name="uniE032" unicode="&#xe032;" horiz-adv-x="413" 
d="M0 17v234h83v-234h-83zM110 17v206h83v-206h-83zM220 17v192h83v-192h-83zM330 17v206h83v-206h-83zM0 264v55h83v-55h-83zM110 237v55h83v-55h-83zM220 223v55h83v-55h-83zM330 237v55h83v-55h-83zM0 333v41h83v-41h-83zM110 306v55h83v-55h-83zM220 292v55h83v-55h-83z
M330 374h83v-68h-83v68z" />
    <glyph glyph-name="uniE033" unicode="&#xe033;" horiz-adv-x="380" 
d="M354 294l-26 25l-132 -132l-45 44l-122 -121l-29 28l151 151l45 -44l103 103l-27 27l108 26zM34 -12v98h54v-98h-54zM124 -12v147h54v-147h-54zM217 -12v197h55v-197h-55zM308 -12v246h55v-246h-55z" />
    <glyph glyph-name="uniE034" unicode="&#xe034;" horiz-adv-x="413" 
d="M374 276v-168q0 -13 -12 -13h-26q-13 0 -13 13v168q0 13 13 13h26q12 0 12 -13zM284 315v-207q0 -13 -13 -13h-25q-5 0 -9.5 4t-4.5 9v207q0 5 4.5 9t9.5 4h25q13 0 13 -13zM194 263v-155q0 -13 -13 -13h-26q-13 0 -13 13v155q0 13 13 13h26q13 0 13 -13zM103 211v-103
q0 -13 -12 -13h-27q-12 0 -12 13v103q0 13 12 13h27q12 0 12 -13zM400 43h-387q-13 0 -13 13v285q0 12 13 12t13 -12v-272h374q13 0 13 -13t-13 -13z" />
    <glyph glyph-name="uniE035" unicode="&#xe035;" horiz-adv-x="413" 
d="M388 229q10 0 17.5 -7.5t7.5 -17.5t-7.5 -17.5t-17.5 -7.5h-84q-8 0 -16 6q-3 2 -7 8l-52 97l-103 -257q-5 -11 -14 -14l-1 -1h-1q-19 -7 -29 12l-78 143q-12 21 10 34q21 12 34 -10l52 -97l103 257q3 8 11 13q21 12 34 -10l71 -131h70z" />
    <glyph glyph-name="uniE036" unicode="&#xe036;" horiz-adv-x="487" 
d="M442 338q19 0 32 -12.5t13 -31.5t-13 -32t-32 -13q-1 0 -3.5 0.5t-3.5 0.5l-127 -136v-7q0 -19 -12.5 -32t-31.5 -13q-16 0 -28 10t-16 25l-74 41q-11 -8 -26 -8h-6l-26 -29q2 -6 2 -11q0 -19 -13 -31.5t-32 -12.5t-32 12.5t-13 31.5t13 32t32 13h5l26 30q-1 3 -1 9
q0 19 13 32t32 13q31 0 42 -32l78 -42q12 7 24 7q6 0 9 -1l125 134q0 1 -0.5 4t-0.5 5q0 19 13 31.5t32 12.5zM45 71q19 0 19 19q0 8 -5.5 14t-13.5 6t-13.5 -6t-5.5 -14q0 -19 19 -19zM120 155q19 0 19 19q0 8 -5.5 14t-13.5 6t-13.5 -6t-5.5 -14q0 -19 19 -19zM264 88
q19 0 19 19t-19 19q-8 0 -14 -5.5t-6 -13.5t6 -13.5t14 -5.5zM442 274q8 0 13.5 6t5.5 14q0 19 -19 19t-19 -19q0 -8 5.5 -14t13.5 -6z" />
    <glyph glyph-name="uniE037" unicode="&#xe037;" horiz-adv-x="413" 
d="M400 46h-387q-13 0 -13 12v278q0 12 13 12t13 -12v-265h374q13 0 13 -13q0 -12 -13 -12zM48 144q-15 13 -2 27l36 43q6 7 15 7q10 0 16 -8l26 -34l35 87q5 12 18 12t18 -12l42 -95l40 133q3 12 18 14q12 1 19 -11l41 -81q8 -16 -10 -25q-16 -8 -26 9l-18 36l-42 -136
q-3 -12 -18 -14h-1q-13 0 -18 12l-44 100l-31 -75q-3 -10 -15 -12q-11 -2 -19 8l-32 42l-20 -24q-13 -15 -28 -3z" />
    <glyph glyph-name="uniE038" unicode="&#xe038;" horiz-adv-x="409" 
d="M197 -9h-197v197q79 -5 135.5 -61.5t61.5 -135.5zM153 173q-66 56 -153 56v171q158 0 275 -106zM370 166l-159 -65q-11 21 -29 43l121 122q40 -43 67 -100zM227 63l159 66q23 -66 23 -138h-171q0 36 -11 72z" />
    <glyph glyph-name="uniE039" unicode="&#xe039;" horiz-adv-x="408" 
d="M192 106q-34 5 -56.5 30t-22.5 59q0 16 6 31l73 -42v-78zM91 195q0 -44 29 -75.5t72 -36.5v-91q-81 5 -136.5 63.5t-55.5 139.5q0 47 20 89l79 -46q-8 -21 -8 -43zM215 106v78l74 42q5 -13 5 -31q0 -34 -22.5 -59t-56.5 -30zM387 284q21 -44 21 -89q0 -81 -56 -139.5
t-137 -63.5v91q43 5 72.5 36.5t29.5 75.5q0 22 -8 43zM204 309q-60 0 -94 -51l-79 45q28 44 73.5 70t99.5 26t99.5 -26t73.5 -70l-79 -45q-34 51 -94 51zM204 286q48 0 74 -39l-74 -43l-75 43q26 39 75 39z" />
    <glyph glyph-name="uniE03A" unicode="&#xe03a;" horiz-adv-x="407" 
d="M203 356v-162q85 -118 94 -129q67 47 67 130q0 67 -47 114t-114 47zM203 -8q-84 0 -143.5 59.5t-59.5 143.5t59.5 143.5t143.5 59.5t144 -59.5t60 -143.5t-60 -143.5t-144 -59.5z" />
    <glyph glyph-name="uniE03B" unicode="&#xe03b;" horiz-adv-x="413" 
d="M163 197q0 -33 20.5 -58.5t51.5 -33.5q-41 -44 -99 -44q-56 0 -96 40t-40 96t40 95.5t96 39.5q59 0 99 -43q-31 -8 -51.5 -33.5t-20.5 -58.5zM267 197q0 -17 10 -30t26 -18q-20 -20 -47 -20q-28 0 -48 20t-20 48t20 48t48 20q27 0 47 -20q-16 -5 -26 -18t-10 -30z
M386 224q11 0 19 -8t8 -19t-8 -19t-19 -8t-19 8t-8 19t8 19t19 8zM356 232q-19 -14 -19 -35t19 -35q-11 -8 -25 -8q-18 0 -30.5 12.5t-12.5 30.5t12.5 30.5t30.5 12.5q14 0 25 -8z" />
    <glyph glyph-name="uniE03C" unicode="&#xe03c;" horiz-adv-x="363" 
d="M182 374q75 0 128 -53.5t53 -128.5t-53 -128.5t-128 -53.5t-128.5 53.5t-53.5 128.5t53.5 128.5t128.5 53.5zM182 43q61 0 104.5 43.5t43.5 105.5t-43.5 105.5t-104.5 43.5q-62 0 -105.5 -43.5t-43.5 -105.5t43.5 -105.5t105.5 -43.5zM176 158l76 64l10 -13l-75 -64z
M114 257l75 -89l-13 -10l-75 88z" />
    <glyph glyph-name="uniE03D" unicode="&#xe03d;" horiz-adv-x="396" 
d="M396 198q0 -37 -26 -63t-63 -26h-36v39h36q21 0 35.5 14.5t14.5 35.5q0 24 -14 38t-33 14q-1 40 -23 61t-53 21t-49 -17t-24 -34q-15 22 -43 9.5t-20 -40.5q-24 4 -41.5 -11.5t-17.5 -40.5q0 -21 14.5 -35.5t36.5 -14.5h48v-39h-48q-37 0 -63.5 26t-26.5 63q0 30 18 53.5
t46 31.5q8 27 32 40.5t51 6.5q34 41 87 41q41 0 72.5 -26.5t39.5 -66.5q50 -25 50 -80zM276 74l-71 -71l-71 71h33v74h76v-74h33z" />
    <glyph glyph-name="uniE03E" unicode="&#xe03e;" horiz-adv-x="396" 
d="M396 198q0 -37 -26 -63t-63 -26h-36v39h36q21 0 35.5 14.5t14.5 35.5q0 24 -14 38t-33 14q-1 40 -23 61t-53 21t-49 -17t-24 -34q-15 22 -43 9.5t-20 -40.5q-24 4 -41.5 -11.5t-17.5 -40.5q0 -21 14.5 -35.5t36.5 -14.5h48v-39h-48q-37 0 -63.5 26t-26.5 63q0 30 18 53.5
t46 31.5q8 27 32 40.5t51 6.5q34 41 87 41q41 0 72.5 -26.5t39.5 -66.5q50 -25 50 -80zM134 77l71 71l71 -71h-33v-74h-76v74h-33z" />
    <glyph glyph-name="uniE03F" unicode="&#xe03f;" 
d="M127 208q60 -34 69 -104l1 -2l-2 -1q-65 -27 -125 8t-70 105v1l2 1q65 27 125 -8zM410 216l2 -1l-1 -1q-10 -71 -69 -105q-16 -9 -34 -14q-8 -2 -24 -4q-2 -1 -7 -1t-7 -1q-21 -4 -30 -13t-13 -26q-1 -3 -2 -9.5t-1 -9.5v-18l-1 -15v-2h-2h-7h-2v2v46q0 36 2 52
q3 25 10 43q18 44 61 69q60 35 125 8zM262 288q0 -67 -53 -108l-2 -1l-1 1q-53 41 -53 108t53 108l1 1l2 -1q53 -41 53 -108z" />
    <glyph glyph-name="uniE040" unicode="&#xe040;" horiz-adv-x="418" 
d="M388 147q19 5 28 -1t-14 -21q-15 -9 -63.5 -32.5t-88.5 -42.5l-41 -18q-2 -1 -5 -3t-12.5 -5t-18.5 -4.5t-21 1t-21 10.5q-127 103 -130 109q-3 5 2 23t15 33t19 13q8 -2 65 -4l18 -1l28 -1h6h1h6l6 -1q28 -2 34 -3q4 -1 17.5 -3t18.5 -4q1 0 2 -1t2 -1l1 -1v-1l1 -1
l1 -2v-1l1 -1v-1v-1v-2q0 -1 -0.5 -1t-0.5 -1l-1 -2q0 -1 -1 -2h-1l-1 -1l-2 -2l-2 -1l-2 -1h-1l-1 -1h-1h-2l-1 -1h-2h-2h-1l-2 -1h-2h-1h-2h-2h-2h-1h-1h-1h-1h-1v0h-1v0h-1v0v0h-1v0h-1h-1h-1h-3l-1 1h-1h-1h-1h-1h-1h-2h-1h-1l-2 1h-1h-2h-3l-1 1h-2h-1l-2 -1h-3
q-1 -1 -3 -1t-3 -1t-3 -2t-3 -2l-3 -3v-1l-3 -3q-4 -4 -5 -6q-4 -6 -4 -8q-2 -8 11.5 -18.5t28.5 -15.5q19 -7 36 -6q15 0 46 9t70 21.5t52 16.5zM118 211h-19q-5 14 -5 36q0 49 34.5 83t83.5 34t83.5 -34t34.5 -83t-34.5 -83.5t-83.5 -34.5q-32 0 -59 16q7 9 12 12
q22 -11 47 -11q42 0 71.5 29.5t29.5 71.5t-29.5 71t-71.5 29t-71.5 -29t-29.5 -71q0 -17 7 -36zM196 276q0 11 12 14v-30q-12 6 -12 16zM217 204v31q12 -6 12 -17q0 -12 -12 -14zM212 159q36 0 39 19q1 7 -3 13q-4 4 -6 5q8 8 8 24q0 5 -1 9t-3.5 7.5t-4 5.5t-6 4.5t-6 3.5
t-6.5 4l-5 2v34q4 0 9 -2t9 -4l3 -2q2 0 2 2l5 12v1l1 1q0 4 -11.5 7.5t-17.5 3.5v8q0 4 -3 4h-4q-4 0 -4 -4v-8q-9 0 -20.5 -8.5t-11.5 -26.5q0 -5 1 -9t3.5 -7.5t4.5 -6t6 -4.5l6 -3l6 -3t5 -2v-35q-1 0 -2.5 1t-2.5 1h-6q-3 1 -6 2.5l-5 2.5l-2 1l-2 -2l-1 -2
q-8 1 -26.5 1.5t-28.5 0.5q-8 18 -8 37q0 39 28 66.5t67 27.5t67 -27.5t28 -66.5t-28 -67t-67 -28q-17 0 -39 9h4h2q18 -2 26 -2h7z" />
    <glyph glyph-name="uniE041" unicode="&#xe041;" horiz-adv-x="413" 
d="M376 124q19 12 37 31q-5 -41 -51 -70q-60 -38 -154 -38q-80 0 -138 29q-65 32 -70 80q21 -24 57 -42q66 -33 151 -33q98 0 168 43zM339 157q49 31 44.5 71.5t-59.5 68.5t-128 25.5t-122 -33.5t-44.5 -71.5t59.5 -68.5t128 -25.5t122 33.5zM0 228q3 41 52 72q36 23 84 32
l18 3h1q3 1 9.5 1t9.5 1h1q6 1 19 1v1h12q78 0 138 -30q64 -31 69 -80v-6v-5q-3 -42 -51 -72q-57 -36 -142 -39t-150 29q-73 37 -70 92zM143 174q49 -16 83 5q25 16 3 44l-1.5 1.5t-0.5 1.5l38 25q3 -2 7 -5t6 -6l4 -6l2 -2h4l22 5q1 0 3 2t0 5.5t-8 8t-9 7t-8 5.5l10 6
q4 2 -1 5l-5 3q-4 2 -9 0l-10 -7q-13 6 -33.5 7t-48.5 -11q-5 -3 -8 -6.5t-5 -6.5t-1.5 -7t1 -6t3 -6t3.5 -5t4 -5l4 -5l-41 -26q-4 3 -8.5 7t-7 7t-4.5 5l-2 3h-4l-25 -8h-2q-4 -3 9 -13.5t21 -14.5l-10 -6q-4 -2 1 -5l4 -2l1 -1q4 -2 9 1zM83 285q46 28 113.5 30.5
t119.5 -23.5q51 -26 56 -64t-41 -67q-46 -28 -114 -30.5t-120 23.5q-51 26 -55.5 64t41.5 67zM197 192q-13 -7 -33 -3l36 23q9 -12 -3 -20zM218 236q-9 12 2 19q13 8 32 2z" />
    <glyph glyph-name="uniE042" unicode="&#xe042;" horiz-adv-x="411" 
d="M410 95q-5 -40 -51 -69q-61 -38 -152 -38q-80 0 -138 29q-64 31 -69 80q23 -26 57 -43q64 -32 150 -32q99 0 166 42h1q19 12 36 31zM374 125q21 13 36 30q-5 -40 -51 -69q-61 -38 -152 -38q-80 0 -138 29q-64 31 -69 80q23 -26 57 -43q64 -32 150 -32q99 0 166 42z
M374 185q21 13 36 30q-5 -40 -51 -69q-61 -38 -152 -38q-80 0 -138 29q-64 31 -69 80q23 -26 57 -43q64 -32 150 -32q99 0 166 42zM337 217q48 31 44 71.5t-59 67.5q-54 27 -127 25.5t-121 -32.5t-44 -71.5t59 -67.5q54 -27 127 -25.5t121 32.5zM0 288q3 41 52 72
q33 21 83 31l18 3h1q3 0 9.5 1t9.5 1l1 1q6 1 18 1h1h11q80 0 137 -29q64 -31 69 -80v-6v-5q-3 -42 -51 -72q-56 -35 -141 -38t-149 29q-72 36 -69 91zM142 234q48 -16 82 5q25 16 3 44q-1 2 -2 3l39 25q3 -2 6.5 -5t5.5 -6l4 -6l2 -2h4l21 5q2 0 3 1q4 3 -5.5 11.5
t-18.5 14.5l10 7q4 2 -1 5l-5 2q-4 2 -9 0l-10 -6q-13 6 -33.5 6.5t-48.5 -11.5q-6 -4 -9.5 -7.5t-4 -7.5t-1 -6.5t2.5 -7l4 -6t5 -6.5l4 -5l-40 -26q-4 3 -8.5 7t-7 7t-4.5 5l-2 3h-4l-25 -7l-2 -1q-4 -3 9 -13.5t21 -14.5l-9 -6q-5 -3 0 -5l4 -1l1 -1q5 -2 9 0zM82 345
q45 28 113 30.5t119 -23.5t55.5 -64t-40.5 -67q-45 -28 -113.5 -30.5t-119.5 23.5q-51 25 -55 64t41 67zM196 252q-13 -8 -33 -3l36 23q9 -12 -3 -20zM217 296q-9 12 1 19q13 9 33 2z" />
    <glyph glyph-name="uniE043" unicode="&#xe043;" 
d="M375 93q19 12 37 31q-5 -41 -51 -70q-58 -38 -154 -38q-79 0 -137 29q-65 32 -70 80q21 -24 57 -42q66 -33 150 -33q98 0 168 43zM375 153q19 12 37 31q-5 -40 -51 -69q-60 -39 -154 -39q-77 0 -137 30q-65 32 -70 80q23 -26 57 -43q64 -32 150 -32q100 0 168 42z
M339 186q49 31 44 72t-60 68q-55 28 -127.5 25.5t-121.5 -33.5t-44.5 -72t59.5 -68t128 -25t122 33zM0 257q3 41 52 72q35 23 83 32h1l18 3h1q3 0 9 1t9 1h1q6 1 19 1h1q2 0 5.5 0.5t5.5 0.5q78 0 138 -30q64 -31 69 -80v-6v-5q-3 -42 -51 -72q-57 -36 -142 -38.5t-149 29.5
q-73 37 -70 91zM142 203q49 -16 83 5q12 8 13 18.5t-1.5 15t-10.5 14.5l39 24q3 -2 6.5 -5t5.5 -6t4 -5l2 -3h4l22 6q2 0 3 1q2 1 0 5t-7.5 8.5t-9.5 7.5t-8 5l10 6q5 2 -1 5l-4 3q-5 2 -10 0l-10 -7q-13 6 -33.5 7t-48.5 -11q-5 -3 -8 -6.5t-5 -6.5t-1.5 -7t1 -6t3 -6
t3.5 -5t5 -6l3 -4l-41 -25q-4 3 -8.5 6.5t-7 6.5t-4.5 6l-2 2h-4l-24 -7l-2 -1q-4 -3 9 -13.5t21 -14.5l-10 -6q-4 -2 1 -5l3 -2h2q4 -2 9 0zM82 314q46 28 114.5 30.5t119.5 -23.5q51 -25 55 -64t-41 -67q-46 -28 -113.5 -30.5t-119.5 23.5q-51 26 -55.5 64t40.5 67z
M196 221q-12 -8 -33 -3l37 23q9 -12 -4 -20zM218 265q-9 12 1 19q14 9 33 3z" />
    <glyph glyph-name="uniE044" unicode="&#xe044;" horiz-adv-x="205" 
d="M166 132h-127l63 -101zM205 154l-103 -164l-102 164h205zM205 236h-205l102 164z" />
    <glyph glyph-name="uniE045" unicode="&#xe045;" horiz-adv-x="205" 
d="M39 258h127l-64 101zM0 236l102 164l103 -164h-205zM0 154h205l-103 -164z" />
    <glyph glyph-name="uniE046" unicode="&#xe046;" horiz-adv-x="205" 
d="M0 236l102 164l103 -164h-205zM0 154h205l-103 -164z" />
    <glyph glyph-name="uniE047" unicode="&#xe047;" 
d="M387 364q10 0 18 -8q7 -7 7 -18v-292q0 -11 -7 -18q-8 -8 -18 -8h-361q-10 0 -18 8t-8 18v292q0 10 8 18t18 8h361zM34 55h155v258h-155v-258zM378 313h-155v-258h155v258z" />
    <glyph glyph-name="uniE048" unicode="&#xe048;" horiz-adv-x="393" 
d="M196 356q41 0 77 -12q38 -13 62 -30q26 -19 42 -46t16 -56t-16 -56q-15 -26 -42 -45t-62 -31q-33 -11 -77 -11q-25 0 -37 2q-36 -29 -84 -39q-2 -1 -5 -1.5t-5 -0.5q-2 -1 -5.5 -1.5t-5.5 -0.5t-6 2q-1 0 -3 5q-1 3 1 5l4 4q1 1 4 4.5t5 5.5q4 4 7 10q4 8 6 14q4 9 5 20
q-34 18 -56 50q-21 30 -21 64q0 29 16 56t42 46q24 17 62 30q36 12 76 12z" />
    <glyph glyph-name="uniE049" unicode="&#xe049;" horiz-adv-x="389" 
d="M303 257q36 0 61 -25t25 -61v-23q0 -36 -25 -61t-61 -25h-3v-64l-64 64h-20q-36 0 -61 25t-25 61l29 29h14q36 0 63.5 22.5t35.5 57.5h31zM153 192l-64 -65v65h-2q-36 0 -61.5 25t-25.5 61v22q0 36 25.5 61.5t61.5 25.5h86q36 0 61.5 -25.5t25.5 -61.5v-22
q0 -36 -25.5 -61t-61.5 -25h-20z" />
    <glyph glyph-name="uniE04A" unicode="&#xe04a;" 
d="M393 311q7 0 13 -6t6 -14v-277q0 -8 -6 -14t-13 -6h-214q-9 0 -15 6t-6 14v59h-138q-8 0 -14 6t-6 14v183q0 10 4 18q5 10 10 15l67 67q6 6 15 10t19 4h119q8 0 14 -6t6 -13v-65q2 0 5 2t4 2q3 1 10 1h120zM158 188q0 12 3 23q3 12 12 19l41 42v79h-72v-83q0 -8 -6 -14
t-13 -6h-83v-135h118v75zM48 288h54v54zM373 271h-72v-83q0 -7 -6 -13t-14 -6h-83v-135h175v237zM207 208h54v55z" />
    <glyph glyph-name="uniE04B" unicode="&#xe04b;" horiz-adv-x="332" 
d="M306 89q6 0 6 5v105h-291v-105q0 -5 5 -5h280zM26 273q-5 0 -5 -5v-19h291v19q0 5 -6 5h-280zM306 294q10 0 18 -8t8 -18v-174q0 -11 -7.5 -18.5t-18.5 -7.5h-280q-11 0 -18.5 7.5t-7.5 18.5v174q0 10 8 18t18 8h280z" />
    <glyph glyph-name="uniE04C" unicode="&#xe04c;" horiz-adv-x="390" 
d="M320 103h70v-41h-70v-66h-41v66h-221v225h-58v41h58v54h41v-54h198l58 58l29 -29l-64 -63v-191zM255 287h-156v-154zM127 103h152v150z" />
    <glyph glyph-name="uniE04D" unicode="&#xe04d;" horiz-adv-x="380" 
d="M56 326q56 56 134 56t134 -56t56 -134t-56 -134t-134 -56t-134 56t-56 134t56 134zM285 255l-32 32l-63 -63l-63 63l-32 -32l63 -63l-63 -63l32 -32l63 63l63 -63l32 32l-63 63z" />
    <glyph glyph-name="uniE04E" unicode="&#xe04e;" horiz-adv-x="414" 
d="M222 40q55 5 95 45t45 96h-66v27h66q-5 56 -44.5 96.5t-95.5 45.5v-67h-28v67q-56 -4 -97 -45t-45 -97h68v-27h-67q5 -56 45 -96.5t96 -44.5v67h28v-67zM207 402q85 0 146 -61t61 -146t-61 -146t-146 -61t-146 61t-61 146t61 146t146 61z" />
    <glyph glyph-name="uniE04F" unicode="&#xe04f;" horiz-adv-x="401" 
d="M76 123h-51q-11 0 -18 7.5t-7 17.5v88q0 10 7 17.5t18 7.5h51v-138zM104 267l120 69v-288l-120 69v150zM401 211v-38h-50h-38h-50v38h50h38h50z" />
    <glyph glyph-name="uniE050" unicode="&#xe050;" 
d="M0 356h412v-93h-412v93zM0 188v37h281v-37h-281zM319 188v37h93v-37h-93zM0 113v37h281v-37h-281zM319 113v37h93v-37h-93zM0 38v37h281v-37h-281zM319 38v37h93v-37h-93z" />
    <glyph glyph-name="uniE051" unicode="&#xe051;" horiz-adv-x="408" 
d="M0 404h408v-424h-408v424zM391 -4v392h-374v-392h374zM60 277q-9 0 -9 9v59q0 9 9 9h288q9 0 9 -9v-59q0 -9 -9 -9h-288zM348 260q9 0 9 -8v-60q0 -8 -9 -8h-101q-9 0 -9 8v60q0 8 9 8h101zM348 166q9 0 9 -8v-60q0 -8 -9 -8h-101q-9 0 -9 8v60q0 8 9 8h101zM212 260v-8
h-161v8h161zM212 234v-8h-161v8h161zM212 209v-9h-161v9h161zM212 184v-9h-161v9h161zM212 158v-8h-161v8h161zM212 132v-8h-161v8h161zM212 107v-9h-161v9h161zM136 82v-9h-85v9h85z" />
    <glyph glyph-name="uniE052" unicode="&#xe052;" horiz-adv-x="335" 
d="M85 202q0 9 6.5 15.5t15.5 6.5t15.5 -6.5t6.5 -15.5t-6.5 -15.5t-15.5 -6.5t-15.5 6.5t-6.5 15.5zM196 199l63 -106h-174l55 75l20 -20zM210 358h-170v-332h255v246h-85v86zM235 398l100 -101v-311h-335v412h235z" />
    <glyph glyph-name="uniE053" unicode="&#xe053;" horiz-adv-x="335" 
d="M251 78h-168v30h168v-30zM251 133h-65v30h65v-30zM251 188h-65v30h65v-30zM210 358h-170v-332h255v246h-85v86zM235 398l100 -101v-311h-335v412h235zM159 133h-76v85h76v-85z" />
    <glyph glyph-name="uniE054" unicode="&#xe054;" horiz-adv-x="335" 
d="M168 78h-85v30h85v-30zM251 133h-168v30h168v-30zM251 188h-168v30h168v-30zM210 358h-170v-332h255v246h-85v86zM235 398l100 -101v-311h-335v412h235z" />
    <glyph glyph-name="uniE055" unicode="&#xe055;" 
d="M389 85v216h-366v-216h366zM0 324h412v-263h-412v263zM82 174q-7 0 -7 19q0 20 7 20t7 -20q0 -19 -7 -19zM330 174q-7 0 -7 19q0 20 7 20t7 -20q0 -19 -7 -19zM63 193q0 -13 5.5 -22t13.5 -9t13.5 9t5.5 22t-5.5 22t-13.5 9t-13.5 -9t-5.5 -22zM131 193q0 -63 40 -91
h-131v181h129q-38 -28 -38 -90zM330 224q-8 0 -13.5 -9t-5.5 -22t5.5 -22t13.5 -9t13.5 9t5.5 22t-5.5 22t-13.5 9zM242 283h130v-181h-131q40 28 40 91q0 61 -39 90zM210 180v-32q13 3 13 15q0 11 -13 17zM189 222q0 -10 13 -16v30q-13 -3 -13 -14zM200 128q-7 0 -19 3
t-12 7v2l5 15q1 2 2 2l4 -2q4 -2 9.5 -4.5t10.5 -2.5v36l-4 2l-4.5 1.5t-4.5 2.5t-5 3.5t-4.5 3.5t-4 4.5t-3 5.5t-2 6.5t-0.5 7.5q0 18 11.5 26.5t20.5 8.5v9q0 4 4 4h4q4 0 4 -4v-9q6 0 17 -3.5t11 -7.5v-2l-6 -12q0 -2 -2 -2l-4 1q-3 2 -7.5 4t-8.5 2v-34q6 -3 6.5 -3.5
t6.5 -3.5t7.5 -5.5t5 -6.5t4.5 -8.5t1 -10.5q0 -31 -31 -36v-8q0 -4 -4 -4h-4q-4 0 -4 4v8z" />
    <glyph glyph-name="uniE056" unicode="&#xe056;" horiz-adv-x="414" 
d="M26 310v-208h-26v234h368v-26h-342zM393 76v193h-327v-193h327zM46 289h368v-234h-368v234zM119 155q-6 0 -6 18q0 17 6 17q7 0 7 -17q0 -18 -7 -18zM341 155q-7 0 -7 18q0 17 7 17q6 0 6 -17q0 -18 -6 -18zM102 173q0 -11 5 -19.5t12 -8.5t12 8.5t5 19.5t-5 19t-12 8
t-12 -8t-5 -19zM163 173q0 -57 35 -82h-116v162h115q-34 -26 -34 -80zM341 200q-7 0 -12 -8t-5 -19t5 -19.5t12 -8.5t12 8.5t5 19.5t-5 19t-12 8zM262 253h116v-162h-117q36 26 36 82q0 53 -35 80zM234 161v-29q11 2 11 14q0 10 -11 15zM215 198q0 -8 11 -14v27
q-11 -4 -11 -13zM225 114q-6 0 -17 3t-11 6v2l5 14q0 1 1 1l3 -2q4 -2 9.5 -4t9.5 -2v33q-1 1 -5.5 2.5t-6.5 3t-6 4t-6 5.5t-3.5 7.5t-1.5 9.5q0 16 10 24t19 8v8q0 3 3 3h3q4 0 4 -3v-8q6 0 15.5 -3t9.5 -7v-2l-5 -11q0 -1 -2 -1l-3 1q-3 2 -7.5 3.5t-7.5 1.5v-30
q28 -13 28 -34q0 -28 -28 -33v-7q0 -3 -4 -3h-3q-3 0 -3 3v7z" />
    <glyph glyph-name="uniE057" unicode="&#xe057;" horiz-adv-x="414" 
d="M23 321v-188h-23v211h331v-23h-308zM64 279v-188h-23v211h331v-23h-308zM395 68v173h-294v-173h294zM83 260h331v-211h-331v211zM149 139q-6 0 -6 16t6 16t6 -16t-6 -16zM348 139q-6 0 -6 16t6 16t6 -16t-6 -16zM134 155q0 -10 4.5 -17.5t10.5 -7.5t10.5 7.5t4.5 17.5
t-4.5 17.5t-10.5 7.5t-10.5 -7.5t-4.5 -17.5zM188 155q0 -49 32 -73h-105v145h104q-31 -23 -31 -72zM348 180q-6 0 -10.5 -7.5t-4.5 -17.5t4.5 -17.5t10.5 -7.5t10.5 7.5t4.5 17.5t-4.5 17.5t-10.5 7.5zM278 227h103v-145h-105q33 24 33 73t-31 72zM252 145v-26q10 3 10 12
q0 7 -10 14zM235 178q0 -9 10 -12v24q-10 -3 -10 -12zM244 103q-26 0 -26 8q1 0 1 1l4 12q0 2 1 2l4 -2q3 -1 7.5 -3t8.5 -2v29l-4 2q-4 1 -5 2t-4.5 3t-5 3.5t-3.5 4.5t-3 6.5t-1 7.5q0 14 9 21.5t17 7.5v7q0 3 3 3h3q3 0 3 -3v-7q5 0 14 -3t9 -6q0 -1 -0.5 -1t-0.5 -1
l-4 -10q0 -1 -2 -1l-3 2q-3 1 -6.5 2.5t-6.5 1.5v-28q25 -12 25 -30q0 -24 -25 -29v-7q0 -3 -3 -3h-3q-3 0 -3 3v7z" />
    <glyph glyph-name="uniE058" unicode="&#xe058;" horiz-adv-x="404" 
d="M401 254l3 -6q0 -4 -3 -7l-4 -4l-45 -30q-2 0 -2 -5v-1l20 -60q1 -2 1 -5q0 -5 -2 -7q-4 -4 -7 -4h-1q-4 0 -8 4l-47 39q-1 1 -2 1l-3 -1l-44 -39q-3 -3 -9 -3t-8 3q-2 2 -2 7q0 1 0.5 2.5t0.5 2.5l18 60v1q0 5 -2 5l-46 30l-4 4q-2 2 -2 7q0 2 2 6q1 1 3 2l1 1q2 1 6 1
h57q2 0 3 1l1 3l17 60q1 1 1 3t1 3q2 4 8 4t8 -4l3 -6l16 -60q1 -2 2 -3t3 -1h56q3 0 5 -1q2 0 5 -3zM118 169l-2 -95q47 6 47 45q0 31 -45 50zM95 223l3 91q-49 -3 -49 -41q0 -19 11.5 -30t34.5 -20zM10 102q32 -26 82 -29l2 106q-26 10 -42 18.5t-31 27.5t-15 45
q0 33 23.5 55.5t69.5 26.5l1 48h24l-1 -48q20 -1 39 -5t28 -8l9 -4l-13 -37q-27 13 -64 16l-3 -100q87 -34 87 -94q0 -35 -24.5 -57t-67.5 -26l-1 -48h-23l1 47q-26 1 -48.5 7.5t-32.5 12.5l-10 7z" />
    <glyph glyph-name="uniE059" unicode="&#xe059;" horiz-adv-x="297" 
d="M297 147l-148 -149l-149 149h68v56h161v-56h68zM68 228v46h161v-46h-161zM229 297h-161v37h161v-37z" />
    <glyph glyph-name="uniE05A" unicode="&#xe05a;" horiz-adv-x="499" 
d="M3 -50q5 -5 12 -2l114 57l-71 71l-57 -114q-3 -7 2 -12v0zM461 332l-75 76l22 22q16 16 38 16t38 -16t16 -37.5t-16 -37.5zM146 18l-75 75l300 300l75 -76z" />
    <glyph glyph-name="uniE05B" unicode="&#xe05b;" horiz-adv-x="495" 
d="M4 -25l-4 -16l16 4l134 31l3 1l2 2l324 319q15 15 15 36.5t-15 36.5l-44 43q-15 15 -36.5 15t-36.5 -15l-324 -319l-2 -2l-1 -3zM28 -13l27 113l322 318q9 9 22 9t22 -9l44 -44q9 -9 9 -21.5t-9 -21.5l-322 -318zM458 309l7 7l-103 102l-7 -8l-8 -7l103 -101zM428 280
l7 7l-103 102l-7 -7l-7 -8l103 -101zM153 9l8 8l-103 101l-7 -7l-8 -8l103 -101z" />
    <glyph glyph-name="uniE05C" unicode="&#xe05c;" horiz-adv-x="513" 
d="M192 405q62 0 106 -44t44 -105q0 -62 -44 -106t-106 -44q-61 0 -105 44t-44 106t43.5 105.5t105.5 43.5zM192 63q68 0 121 43l163 -165q6 -6 15.5 -6t15.5 6t6 15.5t-6 15.5l-164 164q42 53 42 120q0 79 -56.5 135.5t-136.5 56.5t-136 -56t-56 -136t56.5 -136.5
t135.5 -56.5v0z" />
    <glyph glyph-name="uniE05D" unicode="&#xe05d;" horiz-adv-x="413" 
d="M207 141l6 3l137 59l19 -39q-24 0 -64.5 -18t-68.5 -36l-29 -17q-68 44 -125 63q1 10 -5 18l5 20l118 -50zM57 225l5 -2v-1l-1 1zM207 259q19 0 19 -10t-19 -10q-20 0 -20 10t20 10zM49 81q-3 -9 -1 -28q-11 2 -11 9q0 4 -3.5 20.5t-3.5 25t5 23.5l10 5q2 1 8 1q2 0 8 -2
q1 0 1 -0.5t1 -0.5l9 -5q7 -18 -1 -32q-4 -8 -5.5 -18t-1.5 -16t-1 -7q-6 -3 -8 -3q-1 6 -2 18l-3 12zM57 225l-3 1l-54 23l207 89l206 -89l-206 -88l-133 56q22 16 108 21q9 -9 25 -9q29 0 29 20t-29 20q-30 0 -30 -20v-1q-95 -4 -115 -26zM53 149q-8 0 -12 -2l3 14
q2 8 8 11l10 50l12 -5l-9 -46q7 -7 5 -14l-1 -12q-1 1 -4 1q-6 3 -12 3z" />
    <glyph glyph-name="uniE05E" unicode="&#xe05e;" horiz-adv-x="413" 
d="M352 347q20 -8 35.5 -24t20.5 -27l5 -12v-245q-1 3 -3.5 7.5t-11 16.5t-19.5 21t-29.5 16.5t-39.5 7.5q-34 0 -59.5 -17t-34.5 -35l-9 -17q-1 3 -3.5 7.5t-12 16.5t-20.5 21t-29.5 16.5t-38.5 7.5t-38.5 -7t-29.5 -17t-19.5 -20.5t-11.5 -17.5l-4 -7v247q1 3 3 7.5
t10.5 16.5t19 21t29.5 16.5t41 7.5q35 0 61 -17.5t34 -34.5l9 -17q2 5 6 13t19.5 24.5t35.5 24.5v-180l42 45l42 -45v179z" />
    <glyph glyph-name="uniE05F" unicode="&#xe05f;" 
d="M383 321q0 -16 7.5 -25.5t14.5 -11.5l7 -1v-174q-3 0 -8 -1t-13.5 -10.5t-8.5 -25.5h-353q0 16 -7.5 25.5t-14.5 10.5l-7 1v174q3 0 7.5 1t13 11t8.5 26h354zM370 127v138q-19 8 -26 26h-277q-4 -8 -10.5 -14.5t-10.5 -8.5l-5 -3v-138q19 -6 26 -26h277q3 9 9.5 15.5
t11.5 8.5zM113 203l1 -1l3 -9h-7l3 9v1zM171 192q0 -3 -2 -5l-1 -1l-2 -2q-2 -1 -6 -1h-1h-1h-1h-1v30h1h3q4 0 6 -2q1 -1 4 -3q1 -1 1 -4q0 -1 0.5 -3t0.5 -3t-0.5 -3t-0.5 -3zM329 270q7 -10 20 -19v-107q-15 -10 -21 -20h-244q-7 11 -20 20v106q12 8 20 20h245zM134 172
h3l-1 2l-17 49l-1 1h-1h-7h-1v-1l-17 -49l-1 -2h2h9h1l1 1l3 10h13l3 -10l1 -1h1h9zM183 188q2 6 2 10t-2 10q-3 8 -4 9q-4 3 -8 5q-6 2 -12 2h-3h-4h-3q-1 0 -2 -0.5t-2 -0.5h-1v-1v-48v-2h1h3h4h4h1q1 -1 2 -1q3 0 12 3q6 4 8 6t4 8zM245 222v0v1h-1h-9h-1v-1l-12 -21
l-1 -3l-1 2l-13 22l-1 1h-1h-8h-2v-1v-48v-2h2h9h1v2v25l10 -17l1 -1h1h3l1 1l10 17v-25v-2h1h10h1v2v48zM270 222v1h-1h-9h-2v-1v-48v-2h2h9h1v2v48zM321 222v1h-2h-37h-2v-1v-9v-1h2h12v-38v-2h2h9h2v2v38h12h2v1v9z" />
    <glyph glyph-name="uniE060" unicode="&#xe060;" 
d="M408 390q8 -14 0 -29l-173 -316h135q12 0 21 -8.5t9 -20.5t-9 -20.5t-21 -8.5h-183h-1h-157q-17 0 -25 14t0 29l196 359q8 15 26 15h157q17 0 25 -14zM169 45l84 155h-90l-85 -155h91z" />
    <glyph glyph-name="uniE061" unicode="&#xe061;" horiz-adv-x="415" 
d="M228 132l13 143h-63l13 -143h37zM209 67q11 0 19 7.5t8 17.5t-8 17.5t-19 7.5t-18.5 -7t-7.5 -18t7.5 -18t18.5 -7zM405 94q18 -28 5.5 -49t-48.5 -21h-308q-36 0 -49 21t5 49l154 247q18 29 44 29t44 -29z" />
    <glyph glyph-name="uniE062" unicode="&#xe062;" horiz-adv-x="319" 
d="M84 271q-16 -16 -32 0q-6 6 -6 16t6 16l92 91q4 4 7 5q6 2 9 2q2 0 8 -2q3 -1 7 -5l92 -91q16 -16 0 -32t-32 0l-53 53v-242h-22h-23v242zM274 128h45v-91v-46h-273h-46v137h46v-91h228v91z" />
    <glyph glyph-name="uniE063" unicode="&#xe063;" horiz-adv-x="420" 
d="M294 234h126v-252h-420v252h126v-42h-84v-168h336v168h-84v42zM168 108v168h-84l126 126l126 -126h-84v-168h-84z" />
    <glyph glyph-name="uniE064" unicode="&#xe064;" horiz-adv-x="461" 
d="M453 202l8 -10l-8 -10q-5 -7 -13 -15.5t-31.5 -30t-48 -37.5t-60 -29t-69.5 -13t-69.5 13t-60 29t-48.5 37t-32 30.5t-13 15.5l-8 10l8 10q5 6 13 15.5t32 30.5t48.5 37t60 29t69.5 13t69.5 -13t60 -29t48 -37.5t31.5 -30t13 -15.5zM115 131q-16 30 -16 61t16 61
q-46 -31 -72 -61q26 -30 72 -61zM231 94q41 0 69.5 29t28.5 69t-28.5 69t-69.5 29t-69.5 -29t-28.5 -69t28.5 -69t69.5 -29zM347 131q44 29 71 61q-27 32 -71 61q15 -29 15 -61t-15 -61zM231 242q21 0 35.5 -14.5t14.5 -35.5t-14.5 -35.5t-35.5 -14.5t-36 14.5t-15 35.5v5h5
q15 0 26 10.5t11 25.5v4l-1 5h5h5z" />
    <glyph glyph-name="uniE065" unicode="&#xe065;" horiz-adv-x="335" 
d="M251 78h-168v30h168v-30zM251 133h-168v30h168v-30zM251 188h-168v30h168v-30zM210 358h-170v-332h255v246h-85v86zM235 398l100 -101v-311h-335v412h235z" />
    <glyph glyph-name="uniE066" unicode="&#xe066;" horiz-adv-x="317" 
d="M0 358h317l-129 -219v-129l-60 44v85z" />
    <glyph glyph-name="uniE067" unicode="&#xe067;" horiz-adv-x="469" 
d="M449 -34v254h-429v-254h429zM0 -53v293h469v-293h-469zM98 162q7 0 12.5 -6t5.5 -14t-5.5 -14t-12.5 -6t-13 6t-6 14t6 14t13 6zM234 162q28 0 48.5 -20t20.5 -49q0 -28 -20 -48t-49 -20q-28 0 -48 19.5t-20 48.5t20 49t48 20zM371 64q7 0 13 -6t6 -14t-6 -13.5t-13 -5.5
t-13 5.5t-6 13.5t6 14t13 6zM88 -14h293q20 0 34.5 14.5t14.5 34.5v117q0 20 -14.5 34.5t-34.5 14.5h-293q-20 0 -34.5 -14.5t-14.5 -34.5v-117q0 -20 14.5 -34.5t34.5 -14.5zM220 267l-87 87q-2 4 -2 7q0 9 9 9q3 0 7 -2l70 -70v140q0 10 10 10q9 0 9 -10v-140l71 70
q4 2 6 2q10 0 10 -9q0 -1 -3 -7l-86 -87q-2 -2 -7 -2t-7 2z" />
    <glyph glyph-name="uniE068" unicode="&#xe068;" horiz-adv-x="512" 
d="M0 448h512v-320h-192v21h171v278h-470v-278h22v-21h-43v320zM320 171v10q0 54 -139 54q-111 0 -133 -34q-5 12 -5 23v128q0 22 15.5 37.5t37.5 15.5h320q22 0 37.5 -15.5t15.5 -37.5v-128q0 -22 -15.5 -37.5t-37.5 -15.5h-96zM107 320q9 0 15 6t6 15t-6 15.5t-15 6.5
t-15.5 -6.5t-6.5 -15.5t6.5 -15t15.5 -6zM245 245q26 0 45 19t19 45t-19 45t-45 19t-45 -19t-19 -45t19 -45t45 -19zM405 256q-9 0 -15 -6t-6 -15t6 -15.5t15 -6.5t15.5 6.5t6.5 15.5t-6.5 15t-15.5 6zM181 -21q51 0 88 6q6 1 30 7v-24q0 -32 -118 -32q-117 0 -117 32v24
q24 -6 30 -7q38 -6 87 -6zM181 149q44 0 88 7q18 3 30 6v-20q-26 -14 -118 -14q-91 0 -117 14v20q12 -3 30 -6q44 -7 87 -7zM298 185q-28 -14 -117 -14t-117 14q8 28 117 28t117 -28zM181 21q44 0 88 7q18 3 30 6v-20q-26 -14 -118 -14q-91 0 -117 14v20q12 -3 30 -6
q44 -7 87 -7zM181 107q51 0 88 6q6 1 30 7v-20q-27 -15 -118 -15q-89 0 -117 15v20q24 -6 30 -7q37 -6 87 -6zM181 64q51 0 88 6q6 1 30 7v-20q-26 -14 -118 -14q-91 0 -117 14v20q24 -6 30 -7q38 -6 87 -6z" />
    <glyph glyph-name="uniE069" unicode="&#xe069;" horiz-adv-x="512" 
d="M501 -43q11 0 11 -10q0 -11 -11 -11h-490q-11 0 -11 11q0 10 11 10h10v96q0 11 11 11h64q11 0 11 -11v-96h42v203q0 11 11 11h64q11 0 11 -11v-203h42v160q0 11 11 11h64q11 0 11 -11v-160h42v310q0 10 11 10h64q11 0 11 -10v-310h10z" />
    <glyph glyph-name="uniE06A" unicode="&#xe06a;" horiz-adv-x="512" 
d="M501 -43q11 0 11 -10q0 -11 -11 -11h-21h-64h-64h-64h-64h-64h-64h-64h-21q-11 0 -11 11q0 10 11 10h10v96q0 11 11 11h64q11 0 11 -11v-96h42v203q0 11 11 11h64q11 0 11 -11v-203h42v160q0 11 11 11h64q11 0 11 -11v-160h42v310q0 10 11 10h64q11 0 11 -10v-310h10z
M43 -43h42v86h-42v-86zM171 -43h42v192h-42v-192zM299 -43h42v150h-42v-150zM427 -43h42v299h-42v-299z" />
    <glyph glyph-name="uniE06B" unicode="&#xe06b;" horiz-adv-x="492" 
d="M172 115q70 0 115 52q12 -6 19 -8q-53 -64 -134 -64q-71 0 -121.5 50.5t-50.5 121.5t50.5 121t121.5 50q48 0 88.5 -24.5t62.5 -64.5q-9 -1 -20 -5q-21 34 -55.5 54t-75.5 20q-63 0 -107.5 -44t-44.5 -107t44.5 -107.5t107.5 -44.5zM335 174q29 0 52 20q6 -4 20 -8
q-30 -32 -72 -32q-14 0 -29 5q-7 2 -19 8q-51 29 -51 85q0 32 18.5 57t48.5 35q15 4 20 5q2 0 6 0.5t6 0.5q42 0 72 -32q-14 -4 -20 -8q-23 20 -52 20h-3q-11 0 -20 -3q-25 -8 -40.5 -28.5t-15.5 -46.5q0 -48 43 -70q12 -6 19 -7q5 -1 17 -1zM423 321q29 0 49 -20.5
t20 -48.5t-20 -48.5t-49 -20.5q-1 0 -16 3q-14 4 -20 8q-33 20 -33 58t33 58q6 4 20 8q15 3 16 3zM423 203q20 0 35 14.5t15 34.5t-15 34.5t-35 14.5h-3q-11 -2 -20 -6q-26 -13 -26 -43t26 -43q9 -4 20 -6h3z" />
    <glyph glyph-name="uniE06C" unicode="&#xe06c;" horiz-adv-x="492" 
d="M20 289q0 54 37 91.5t90 37.5t90 -37.5t37 -91.5t-37 -91.5t-90 -37.5t-90 37.5t-37 91.5zM0 289q0 -62 43 -105.5t104 -43.5t103.5 43.5t42.5 105.5t-42.5 105.5t-103.5 43.5t-104 -43.5t-43 -105.5zM343 352q0 28 19 47t46 19t46 -19t19 -47t-19 -47t-46 -19t-46 19
t-19 47zM323 352q0 -35 25 -60t60 -25t59.5 25t24.5 60t-24.5 60.5t-59.5 25.5t-60 -25.5t-25 -60.5zM318 175q0 17 11.5 29t28.5 12t28.5 -12t11.5 -29t-11.5 -29t-28.5 -12t-28.5 12t-11.5 29zM298 175q0 -25 17.5 -42.5t42.5 -17.5t42.5 17.5t17.5 42.5t-17.5 43
t-42.5 18t-42.5 -18t-17.5 -43zM194 61q0 12 8 20t19 8t19.5 -8t8.5 -20t-8.5 -20t-19.5 -8t-19 8t-8 20zM174 61q0 -20 14 -34t33 -14t33 14t14 34t-14 34t-33 14t-33 -14t-14 -34z" />
    <glyph glyph-name="uniE06D" unicode="&#xe06d;" horiz-adv-x="492" 
d="M256 418v-268h-236v268h236zM266 438h-256h-10v-10v-287v-10h10h256h10v10v287v10h-10zM473 418v-137h-138v137h138zM482 438h-157h-10v-10v-157v-9h10h157h10v9v157v10h-10zM473 209v-59h-138v59h138zM482 229h-157h-10v-10v-78v-10h10h157h10v10v78v10h-10z" />
    <glyph glyph-name="uniE06E" unicode="&#xe06e;" horiz-adv-x="501" 
d="M331 21h-320q-11 0 -11 11v77q0 10 11 10h320q10 0 10 -10v-77q0 -11 -10 -11zM21 43h299v55h-299v-55zM267 160h-256q-11 0 -11 10v77q0 11 11 11h256q10 0 10 -11v-77q0 -10 -10 -10zM21 181h235v55h-235v-55zM491 298h-480q-11 0 -11 11v76q0 11 11 11h480
q10 0 10 -11v-76q0 -11 -10 -11zM21 319h459v56h-459v-56z" />
    <glyph glyph-name="uniE06F" unicode="&#xe06f;" horiz-adv-x="512" 
d="M501 213h-213q-11 0 -11 11v213q0 11 11 11q93 0 158.5 -65.5t65.5 -158.5q0 -11 -11 -11zM299 235h191q-4 77 -59 132t-132 59v-191zM439 20q-5 0 -8 3l-151 151q-5 5 -2 11q4 7 10 7h213q11 0 11 -11q0 -92 -66 -158q-3 -3 -7 -3zM314 171l125 -125q48 54 51 125h-176z
M224 -64q-93 0 -158.5 65.5t-65.5 158.5t65.5 158.5t158.5 65.5q11 0 11 -11v-209l147 -147q8 -7 0 -15q-66 -66 -158 -66zM213 362q-80 -5 -136 -63t-56 -139q0 -84 59.5 -143.5t143.5 -59.5q79 0 136 52l-144 143q-3 3 -3 8v202z" />
    <glyph glyph-name="uniE070" unicode="&#xe070;" horiz-adv-x="512" 
d="M501 224q11 0 11 -11q0 -19 -12 -33.5t-31 -18.5q-3 -49 -35 -89.5t-82 -62.5v-62q0 -11 -11 -11q-10 0 -10 11v54q-39 -12 -75 -12t-75 12v-54q0 -11 -10 -11q-11 0 -11 11v62q-66 28 -98 87h-51q-11 0 -11 11v85q0 11 11 11h35q14 67 80 111q-6 26 -30 40q-5 3 -5 9
t5 9q20 12 43 12q44 0 70 -37q27 5 47 5q84 0 145.5 -49t67.5 -120q22 7 22 30q0 11 10 11zM128 181q9 0 15 6.5t6 15.5t-6 15t-15 6t-15 -6t-6 -15t6 -15.5t15 -6.5zM361 250q6 8 -3 15q-52 37 -113 33q-10 0 -10 -11q0 -10 11 -10q54 3 100 -30q4 -2 6 -2q6 0 9 5z" />
    <glyph glyph-name="uniE071" unicode="&#xe071;" horiz-adv-x="512" 
d="M245 298q61 4 113 -33q9 -7 3 -15q-3 -5 -9 -5q-2 0 -6 2q-46 33 -100 30q-11 0 -11 10q0 11 10 11zM512 213q0 -19 -12 -33.5t-31 -18.5q-3 -47 -31.5 -85.5t-74.5 -61.5v-67q0 -11 -11 -11t-11 11v58q-42 -16 -85 -16t-85 16v-58q0 -11 -11 -11t-11 11v67
q-58 29 -87 82h-51q-11 0 -11 11v85q0 11 11 11h35q14 67 80 111q-6 26 -30 40q-5 3 -5 9q0 7 5 10q18 11 43 11q44 0 70 -37q27 5 47 5q84 0 145.5 -49t67.5 -120q22 7 22 30q0 11 10 11q11 0 11 -11zM256 11q79 0 135.5 47t56.5 113q0 78 -74.5 126.5t-167.5 27.5
q-9 -2 -12 5q-11 19 -30.5 27.5t-40.5 3.5q20 -19 25 -50q2 -8 -5 -11q-69 -42 -78 -110q-2 -9 -10 -9h-34v-64h47q7 0 10 -6q22 -46 70.5 -73t107.5 -27zM107 203q0 9 6 15t15 6t15 -6t6 -15t-6 -15.5t-15 -6.5t-15 6.5t-6 15.5z" />
    <glyph glyph-name="uniE072" unicode="&#xe072;" 
d="M0 -1l1 20q1 1 3.5 1.5t3.5 0.5q2 1 6 1.5t6 0.5q22 5 27 9q5 3 13 17l58 153l69 182h19h13l3 -5l50 -121q2 -4 16 -38l15 -36q3 -7 7.5 -18.5t5.5 -14.5q2 -5 5.5 -13.5t5.5 -12.5q4 -10 7 -17q4 -10 9 -24q7 -18 16 -37q5 -10 9 -14t17 -6l12 -3q8 -2 13 -4
q2 -12 2 -14v-3q0 -2 -1 -4q-3 0 -10.5 0.5t-11.5 0.5q-16 0 -25 1q-18 2 -25 2h-21h-20h-14l-50 -3h-14v10q0 2 0.5 5t0.5 4l32 7q14 3 17 6q3 2 3 7q0 4 -1 7l-12 29l-23 57h-111l-4 -8q-4 -9 -6 -16q-1 -3 -4 -11t-6 -16.5t-6 -16.5q-6 -16 -6 -21q0 -7 4 -11q2 -2 10 -4
q1 0 4 -1l6 -2t6 -1q3 -2 21 -3v-14v-7q-17 0 -31 1l-56 4l-12 -2l-21 -3q-7 -1 -20 -1h-5zM137 163q13 0 31.5 -0.5t23.5 -0.5h26l7 1q-1 3 -4.5 12.5t-5.5 15.5q-8 20 -13 32q-12 28 -13 31q-2 4 -4.5 11.5t-4.5 10.5z" />
    <glyph glyph-name="uniE073" unicode="&#xe073;" horiz-adv-x="414" 
d="M76 240v83h20v-84q0 -4 -1 -9t-9 -14t-22 -9v-128h-32v127q-14 0 -21.5 8t-8.5 16l-1 9l-1 84h19v-83q0 -9 9 -9t9 9v83h21v-83q0 -9 9 -9t9 9zM365 242q0 36 12.5 56t24.5 22l12 3v-254h-32v95q-17 32 -17 78zM224 299q40 0 69 -28.5t29 -69.5q0 -40 -28.5 -68.5
t-69.5 -28.5t-69.5 28.5t-28.5 68.5q0 41 29 69.5t69 28.5zM230 323q50 0 86 -36t36 -86t-36 -86t-86 -36t-86 36t-36 86t36 86t86 36zM230 97q43 0 73.5 30.5t30.5 73.5t-30.5 73.5t-73.5 30.5t-73.5 -30.5t-30.5 -73.5t30.5 -73.5t73.5 -30.5z" />
    <glyph glyph-name="uniE074" unicode="&#xe074;" 
d="M206 398q86 0 146 -60t60 -146t-60 -146t-146 -60t-146 60t-60 146t60 146t146 60zM323 309q-45 45 -108 48t-110 -34l232 -232q37 47 34 110t-48 108zM89 75q45 -45 107.5 -49t110.5 34l-233 233q-38 -48 -34 -110.5t49 -107.5z" />
    <glyph glyph-name="uniE075" unicode="&#xe075;" horiz-adv-x="358" 
d="M256 396h51v-49q0 -52 -38 -90l-144 -144q-20 -20 -22 -49h50l-76 -76l-77 76h52q2 50 37 85l144 144q23 23 23 54v49zM306 64h52l-77 -76l-77 76h51q-2 29 -22 49l-29 28l37 36l28 -28q35 -35 37 -85z" />
    <glyph glyph-name="uniE076" unicode="&#xe076;" horiz-adv-x="392" 
d="M162 262q-31 37 -58 52h176v38l112 -64l-112 -65v39h-118zM280 108v37l112 -64l-112 -64v39q-21 3 -40.5 16t-30.5 24.5t-30 34.5q-9 11 -27.5 36t-32 41.5t-25.5 28.5q-25 25 -42 25h-52v52h52q23 -1 44.5 -13t34 -25.5t31.5 -36.5q10 -12 28 -36.5t31.5 -41.5t25.5 -29
q19 -20 33 -24z" />
    <glyph glyph-name="uniE077" unicode="&#xe077;" 
d="M99 2zM99 2zM160 140v-6l-3 1q2 4 3 5zM118 214h-1v63l43 -12v-52q-6 1 -20 1h-22zM202 147h7q3 0 6.5 0.5t5.5 0.5v-30l-45 12v20zM201 209q-5 1 -25 3v49l45 -13v-42q-1 0 -3.5 0.5t-3.5 0.5q-2 0 -6.5 0.5t-6.5 1.5zM342 146l-42 -11v130l42 12v-131zM251 192
q-3 6 -14 10v46l47 13v-131l-47 -13v35q16 7 18 21q1 12 -4 19zM164 302l-48 -14l45 -11l44 12q14 -6 19 -8l-39 -11l44 -12l48 13l-33 9q2 0 15 1t21 2l21 -6l41 11l-19 6q24 9 29 21q7 17 -8 35l-15 -12q8 -9 5 -15q-4 -10 -33 -17q-2 0 -5 -1t-4 -1q3 2 7 6q14 14 12 31
q-1 19 -20 26q-8 3 -14 3q-27 0 -44 -33q-11 26 -21 37q-14 16 -33 16q-9 0 -19 -5q-21 -12 -15 -34q4 -13 19 -30q-38 7 -60 -2q-19 -8 -25 -28l18 -5q3 11 14 16q17 7 50 0q16 -3 3 0zM163 356q-3 8 6 12q5 3 10 3q9 0 19 -10q16 -18 23 -44l-18 -5q-34 24 -40 44z
M262 311l-18 5q14 35 32 35q6 0 9 -1q7 -2 7 -11q0 -13 -10 -19q-2 -1 -20 -9zM37 205q9 -2 80.5 -5t80.5 -5q4 -1 11.5 -2t12.5 -2t10 -3t7.5 -5t1.5 -8q-1 -8 -11 -11.5t-19 -3.5l-9 1q-5 0 -25 3q-12 1 -22.5 -9t-12.5 -18t11.5 -18.5t28.5 -15.5q19 -7 35 -6
q15 0 45.5 9t69 21.5t50.5 16.5q19 5 27.5 -1t-13.5 -21q-15 -9 -62.5 -32t-87.5 -42l-40 -18q-2 -1 -5 -3t-12.5 -5t-18.5 -4.5t-20.5 1t-20.5 10.5t-43 35.5t-58 47.5t-27 25t2 22.5t15.5 32.5t18.5 13zM199 51zM199 51z" />
    <glyph glyph-name="uniE078" unicode="&#xe078;" horiz-adv-x="410" 
d="M306 247q0 3 4 11q4 0 4 -3q1 0 1 -1t2 0h3q1 0 2 -0.5t2 -0.5q0 -1 2.5 -2t2.5 -4q2 0 -3 -3q-2 -1 -4 1l-1 2h-2q0 -2 -13 -2v2zM339 99q31 44 31 97q0 2 -0.5 7t-0.5 7h-6q-2 0 -7 2.5t-8 1.5q0 3 -4 6q-1 1 -2 0q-2 -2 2 -5q0 -2 1 -3v-3q2 0 2 3h1v-3l1 -2q4 0 6 5
q1 0 1 -2v-1q2 -2 1 -3q0 -1 1.5 -1t0.5 2q2 -1 2 -3t-2 -3l-1 -1v-3q0 -3 -2 -3l-4 -3l-3 -3q-7 0 -8 -3q-5 0 -5 -2q-3 0 -4 3t-2 3q0 1 -1 2l-1 3q-1 3 -2.5 6.5t-1.5 4.5q-3 3 -3 5l-3 6q-4 4 -5 6q5 0 5 2q0 1 -1 2q0 1 1 2l1 2q0 1 0.5 3t0.5 3h-2l-2 -1h-4l-4 -1
q-3 0 -3 2q-1 1 -3 7q0 2 -3 2t-1 -5q1 0 -1 -2l-1 -2q-2 1 -2.5 3.5t-1.5 2.5l-2 2q0 4 -1 4l-1 1l-2 1q-1 0 -3 2l-3 3t-2 0t0 -2l1 -1q1 0 3 -2q1 -3 3 -2v-3q2 1 3 -1h1h-2l-1 -1q0 -3 -2 -5q0 7 -2 7q-1 1 -3.5 2t-2.5 2l-2 2q-1 2 -2 2q0 -1 -2 -1l-8 -1q-4 -9 -4 -10
t-1.5 -2t-1.5 -2t-3.5 -1t-3.5 -1q-6 2 -6 7q1 8 1 9q2 0 2 -1q1 0 3 1l3 1q3 0 1 -2q5 0 5 1q-1 0 -1 2q2 2 0 5l-3 3l-1 2q3 -1 4 1l1 -1h2q0 1 1 2v1l1 2q2 -2 2 0t1 2l1 1l2 1q1 1 3 1t2 1q-1 0 -1 6q1 0 3 1h1l1 -3q2 -1 2 2q-2 0 -2 5q-3 0 -3 -1q-2 0 -4 0.5t-3 0.5
l-3 4q-2 2 1 2h1q0 1 5.5 3t6.5 4q-3 0 4 6l2 2t2 1.5t2 0.5l5 1q4 1 7 1.5t4 -0.5q11 0 11 -1q1 0 3 -1h2q2 1 6 -1t4 -3q-1 0 -6 -0.5t-7 -0.5v-1q4 0 4 -6q1 0 2 1l2 1q1 -1 3 0v2q0 1 2 1q1 0 2 2q-49 59 -126 59q-65 0 -113 -45q1 0 4 2v-4q2 -3 2 -4q4 0 4 -1h-1l-1 1
q0 -2 -4 -2q-1 1 -2 1t-1 -2h1q0 -1 1 -2q2 -1 6 -1h4q-1 1 1 2q0 2 -1 2h5v2t1 2t2 1t2 1q2 0 2 -2q6 -6 6 -3q3 -2 3 -6q3 0 3 5v2h3v-1h4v-5q0 -1 -2 -2l-1 -1q-2 -2 2 -3q1 -1 2 -1t1 -1h-4h-7q3 0 3 5q-3 1 -5 -3q-1 -2 -2 -1.5t-2 -0.5q-1 0 -4 -1q-4 -1 -4 -9
q6 -3 6 -5q8 -2 9 -2q0 -1 2 -1q0 -2 4 -2q0 2 1.5 -0.5t1.5 -3.5q1 -3 1 -4q2 -1 3.5 -0.5t1.5 1.5q-1 0 -1 3q-2 1 -2 2.5t2 1.5q0 1 2 2q2 3 0 6q0 1 -1 1h-1q1 0 1 7h2h7l4 -1q0 -1 2 -3t3 -2q0 -2 1 -2q-1 0 -1 -1q3 0 3 1q3 0 3 4q1 1 3 -3l2 -3q4 -4 4 -5q1 -1 1 -3
h2q4 0 4 -3q-1 0 -1 -1v-1h-6q0 -2 -1.5 -3t-3.5 -0.5t-4 0.5h-4q-8 -3 -8 -9q1 0 2 1t2.5 2t2.5 1q3 0 5 1q-3 0 0 -5q1 -2 4 -2l-1 -1l-2 -1q-2 0 -2 -1l-2 1h2v1l-1 1q-1 0 -2.5 -1t-2.5 -1q0 -2 -3 -2q-2 -4 -3 -5l-3 -3l-1 -1q-2 -1 -2 -2q-1 -4 -1 -5q-1 0 -2 -3
t-3 -3q0 -1 -2.5 -2.5t-2.5 -4.5q2 -2 2 -8q0 -4 -2 -4l-1 3q0 4 -2 6h-2q-2 0 -3 1t-7 1l1 -1l1 -1q-1 -1 -4 -1q-1 0 -2 1t-3 1q-7 0 -7 -8v-8q0 -1 1 -3t1 -3q1 0 3 -2t3 -2q0 -2 2 -2q2 2 2 3q-1 0 -0.5 1t1.5 2q1 -1 3 1l3 1l1 -1q-1 0 -2 -1l-1 -1q0 -1 -0.5 -2.5
t-0.5 -2.5t1 -2.5t0 -2.5h6v2q2 0 1.5 -3t0.5 -3q0 -1 1 -4v-2q2 -2 2 -4q5 0 5 2q3 0 3 -4q3 0 3 3q0 2 1 2q0 3 2 1l2 1l2 1q1 0 1 -1q2 0 4 2q1 0 2 -2q1 -3 3 -3q5 0 6 1l2 -1h1l1 -1v-1q2 -1 2 -2l1 -1l1 -1q1 0 0.5 -1t1.5 -1h2l2 -1h3q0 -1 1 -1l2 -4q2 -2 2 -5v-4
q-1 0 0 -1q2 1 3 1t3 -1l1 -1h2t1 -5q1 0 2.5 0.5t2.5 0.5h3q4 -1 6 -3q3 -2 3.5 -7t-2.5 -7l-4 -5v-6q0 -7 -2 -7q0 -2 -1.5 -4t-1.5 -3q-6 -3 -7 -4q-1 0 -3 -1l-3 -3v-8l-2 -2q-1 0 -1 -0.5t-1 -0.5q-4 0 -4 -4t-3 -5l-2 -1q-1 -1 -1 -2v-5q-4 0 -4 -1q-4 0 -6 -2v-2
l-4 -2l1 -3q0 -1 -3 -4l-2 -3q0 -1 -1 -2v-2q1 -1 1 -2l1 1h1l-2 -2t-1 -2q-1 -2 -2 -5v-1q1 -1 1 -2q-10 3 -13 4q0 19 1 19q0 4 2 4v7q-1 1 1 6q1 1 1.5 5.5t0.5 8.5t1 4q0 3 1 9.5t0 10.5q0 1 -4 4q-6 0 -6 9l-1 2q-1 2 -1 3l-1 3q-1 2 -3 4l-1 2v8q-2 1 -0.5 5t2.5 4
q0 3 1 3t2 1v6q0 4 -2 5t-3 -2l-7 4q0 1 -4 5q1 2 -2.5 4.5t-5.5 2.5h-1q-1 0 -1 1q-1 0 -2 1.5t-3 1.5q-1 0 -4 1.5t-5 1.5q0 1 -3 1.5t-4 1.5q-3 0 -3 6q0 9 -5 9q0 1 -2 3t-3 2q-1 3 -2 3q-1 4 -4 5l2 -2q1 -3 1 -4q1 0 2 -3l2 -3q3 -5 1 -5q-4 2 -6 6q-3 3 -3 7l-3 6
q0 5 -6 5l-3 5q0 2 -4 6v9q0 12 -5 16q-16 -34 -16 -71q0 -69 48.5 -118t116.5 -49q84 0 133 67q-3 -1 -4 4q-3 9 0 17q2 -2 3 0q-3 0 -1 3q1 -1 3 -1t2 2v1q2 0 2 2v3q0 -6 2 -6q1 -1 -0.5 -2t-1.5 -2v-3h-2q0 -2 -0.5 -4.5t-0.5 -3.5q-1 0 -1 -7zM341 256q1 0 2.5 1.5
t2.5 1.5q3 1 3 -1q0 -1 1 -2l-2 -1t-3 -1l1 -3q0 -1 1 -1.5t1 -1.5h2l1 -2q1 -1 1 -2h-3q0 -1 1 -2v-1q1 0 0.5 -2.5t1.5 -2.5q-1 -2 -3 -1.5t-3 2.5q-2 0 -2 7q0 2 -2 4q-1 2 -1 3v5zM205 403q85 0 145 -60.5t60 -146.5t-60 -146.5t-145 -60.5t-145 60.5t-60 146.5
t60 146.5t145 60.5zM233 301q-1 -1 -2 -1q0 2 -2 1t-3 -1h-4v1l-1 1l-3 -1v-3q1 0 2.5 -0.5t2.5 -0.5h5q3 0 5 1v3zM250 277q0 1 -0.5 2t-0.5 2q0 2 1 2t1.5 0.5t0.5 1.5v-2v-2q1 0 2 1l1 1v-4q2 -2 2 -3q4 0 2 -5q1 0 1 1q1 0 1 -1t-1 -1q-1 -2 -7 -2q0 2 -2 1v4l2 1
q0 3 -3 3zM242 270v4q0 1 3 2q-1 0 -1 1h2h2q1 0 0 -2q-2 -5 -6 -5zM250 267h1h-1zM172 256q2 0 2 2zM273 250q1 -1 0 -2l-1 -1q-1 1 -1 2q2 0 2 1zM272 246l1 -4h-2q0 3 1 3v1zM283 239q-2 -2 -3 -1h-2q5 0 5 1zM336 177l3 1q6 0 8 1q0 -1 -2 -4t-1 -5q-1 0 -1 -3l-3 -3
q0 -2 -4 -6q-5 -5 -5 -6l-5 -6v-13v-3q1 -3 1 -4.5v-2.5q0 -2 -1 -4t-1 -3l-2 -2q-1 0 -3 -2l-1 -1q0 -2 -0.5 -5.5t-0.5 -5.5l-2 -7q-7 -3 -7 -8l-4 -6q-9 0 -9 -2h-7q0 1 -0.5 3t-0.5 3l-1 2l-1 2l-2 3l-2 6l-1 2l-1 5q0 2 -1 5t-1 5l-1 2q-1 2 -1 4v2q0 2 2 10q1 6 -1 12
q-2 2 -2 3q-3 2 -3 7q1 2 1 10q-3 1 -6 1q-1 1 -17 1q0 -1 -2 -1t-4.5 1t-2.5 2q-1 0 -3.5 2.5t-2.5 3.5q-5 3 -5 11q-2 2 -1 5q0 1 -1 3v3v2q1 1 1 2q0 5 2 9q2 2 3 4l1 2l2 1l2 2t1 2q1 1 0 2q2 4 2 5q1 2 3 2q2 2 3 2q2 2 3 2q1 -1 5 1q2 3 7 3h11q5 0 5 -10h4q0 -2 5 -2
q8 0 8 3q3 0 3 -3q10 -1 11 -3l2 -1l2 -2q0 -6 4 -6q0 -5 2 -6q4 -8 6 -9q0 -1 2 -5q0 -4 1 -4q0 -2 2.5 -5.5t3.5 -3.5q0 -2 1 -2zM133 205h-1l1 -2l1 2h-1zM141 205q1 0 3 -1.5t3 -1.5q3 -3 1 -3q-4 0 -6 3q-3 0 -5 2q3 0 4 1zM157 198v-1q-1 0 -3 1h-2v-1l1 -1h-4
q1 -2 5 -1h6q0 3 -3 3zM142 196q-1 -2 2 -2q0 2 -2 2zM144 194h2l-1 1zM164 196q0 -1 1 -1q0 1 -1 1zM163 196v-1h1zM155 182h1l-1 1v-1zM342 125v1v-1z" />
    <glyph glyph-name="uniE079" unicode="&#xe079;" horiz-adv-x="410" 
d="M51 400q21 0 36 -15t15 -36t-15 -36t-36 -15t-36 15t-15 36t15 36t36 15zM51 93q21 0 36 -15t15 -36t-15 -36.5t-36 -15.5t-36 15.5t-15 36.5t15 36t36 15zM51 246q21 0 36 -15t15 -36t-15 -36t-36 -15t-36 15t-15 36t15 36t36 15zM205 400q21 0 36 -15t15 -36t-15 -36
t-36 -15t-36 15t-15 36t15 36t36 15zM205 93q21 0 36 -15t15 -36t-15 -36.5t-36 -15.5t-36 15.5t-15 36.5t15 36t36 15zM205 246q21 0 36 -15t15 -36t-15 -36t-36 -15t-36 15t-15 36t15 36t36 15zM358 400q21 0 36.5 -15t15.5 -36t-15.5 -36t-36.5 -15t-36 15t-15 36t15 36
t36 15zM358 93q21 0 36.5 -15t15.5 -36t-15.5 -36.5t-36.5 -15.5t-36 15.5t-15 36.5t15 36t36 15zM358 246q21 0 36.5 -15t15.5 -36t-15.5 -36t-36.5 -15t-36 15t-15 36t15 36t36 15z" />
    <glyph glyph-name="uniE07A" unicode="&#xe07a;" horiz-adv-x="313" 
d="M133 -9q-20 2 -34 16.5t-14 34.5q0 33 24 107l-65 9q-18 1 -31 14t-13 31q0 21 16 34q-3 8 -3 17q0 22 16 35q-3 8 -3 17q0 29 27 41q-1 3 -1 10q0 19 13.5 32t32.5 13h72q59 0 101 -41.5t42 -99.5q0 -64 -47 -106l-2 -1l-61 -45l-28 -55l-6 -41q-3 -22 -25 -22h-7h-4z
M46 184l98 -13q-33 -91 -33 -129q0 -23 24 -25h2h7l6 45l33 64l65 49q39 34 39 86q0 48 -34 81.5t-83 33.5h-72q-8 0 -14 -5.5t-6 -13.5t6 -13.5t14 -5.5h6q7 0 7 -7q0 -6 -7 -6h-32q-8 0 -14 -5.5t-6 -13.5t6 -14t14 -6h6q7 0 7 -6t-7 -6h-19q-8 0 -14 -6t-6 -14t6 -13.5
t14 -5.5h6q7 0 7 -6q0 -7 -7 -7h-19q-8 0 -14 -5.5t-6 -13.5t6 -13.5t14 -5.5z" />
    <glyph glyph-name="uniE07B" unicode="&#xe07b;" horiz-adv-x="313" 
d="M313 189q0 -22 -16 -35q3 -7 3 -17q0 -21 -16 -34q3 -8 3 -17q0 -29 -27 -41q1 -3 1 -11q0 -19 -13 -32t-32 -13h-72q-59 0 -101.5 42t-42.5 100q0 62 48 105l2 2l60 45l28 55l6 41q3 22 26 22h6h5q20 -1 34 -16.5t14 -35.5q0 -33 -24 -107l65 -8q18 -1 30.5 -14
t12.5 -31zM268 169q8 0 13.5 6t5.5 14q0 19 -19 19l-98 13q32 90 32 128q0 24 -24 26h-2h-6l-7 -45l-32 -64l-66 -49q-39 -34 -39 -86q0 -48 34.5 -82t83.5 -34h71q8 0 14 5.5t6 13.5t-6 14t-14 6h-6q-7 0 -7 6q0 7 7 7h33q19 0 19 19t-19 19h-7q-6 0 -6 6q0 7 6 7h20
q19 0 19 19t-19 19h-7q-6 0 -6 7q0 6 6 6h20z" />
    <glyph glyph-name="uniE07C" unicode="&#xe07c;" horiz-adv-x="294" 
d="M294 132v0q0 -58 -43 -99.5t-104 -41.5t-104 41.5t-43 99.5v71q0 17 11.5 29.5t28.5 14.5v78q0 19 13.5 32t33.5 13q5 0 8 -1q5 14 17 23.5t28 9.5q26 0 40 -22q12 3 14 3q18 0 31 -12t15 -29l1 -5q1 0 3 0.5t3 0.5q20 0 33.5 -13t13.5 -32v-161zM267 132v161
q0 8 -6 13.5t-14 5.5t-14 -5.5t-6 -13.5v-90q0 -7 -7 -7q-6 0 -6 7v135q0 8 -6 13.5t-14 5.5t-14.5 -5.5t-6.5 -13.5v-135q0 -7 -6 -7q-7 0 -7 7v154q0 8 -6 13.5t-14 5.5t-14 -5.5t-6 -13.5v-154q0 -7 -6 -7q-7 0 -7 7v122q0 8 -6 13.5t-14 5.5t-14 -5.5t-6 -13.5v-97v-25
v-65q0 -6 -7 -6t-7 6v83q-2 1 -6 1q-8 0 -14 -5.5t-6 -13.5v-71q0 -48 35 -82t85 -34t85 34t35 82z" />
    <glyph glyph-name="uniE07D" unicode="&#xe07d;" horiz-adv-x="404" 
d="M257 170h79l-133 -181q-113 141 -175 239q-41 79 -16 128t90.5 46.5t100.5 -65.5q34 63 99 65.5t90 -46.5t-16 -128q-21 -30 -26 -37h-87l-26 52q-4 8 -10 6q-7 -2 -9 -8l-17 -87l-21 144q-2 9 -10 9t-10 -8l-27 -108h-21q-10 0 -10 -10q0 -11 10 -11h29q8 0 10 8l16 66
l22 -152q2 -9 10 -9t10 9l23 116l16 -32q4 -6 9 -6z" />
    <glyph glyph-name="uniE07E" unicode="&#xe07e;" horiz-adv-x="413" 
d="M333 181v-166h-88v117h-77v-117h-91v166h-77l206 195l64 -61v61h64v-121l79 -74h-80z" />
    <glyph glyph-name="uniE07F" unicode="&#xe07f;" horiz-adv-x="411" 
d="M196 216h-28v-28h28v28zM196 259h-28v-29h28v29zM210 230h28v29h-28v-29zM210 188h28v28h-28v-28zM351 188v-170h-113v85q1 15 -15 15h-43q-6 0 -9 -4t-3 -8v-3v-86h-112v171l152 129zM366 189l-157 143l-168 -144h-41l209 186l202 -185h-45zM309 309l-1 49h43l-1 -84z
" />
    <glyph glyph-name="uniE080" unicode="&#xe080;" 
d="M372 308h-332v-232h332v232zM412 348v-312h-412v312h412zM180 108q-20 3 -33 18.5t-13 36.5v44l46 -46v-53zM215 144l63 63v-44q0 -23 -16.5 -39.5t-39.5 -16.5h-25v84q-22 4 -32.5 20.5t-10 34t8.5 31.5l24 -26l19 26l20 -26l23 26q8 -14 8.5 -31.5t-10 -34t-32.5 -20.5
v-47z" />
    <glyph glyph-name="uniE081" unicode="&#xe081;" horiz-adv-x="389" 
d="M273 309h116v-292h-389v292h117v-39h-78v-214h311v214h-77v39zM195 95l-117 116h78v156h78v-156h77z" />
    <glyph glyph-name="uniE082" unicode="&#xe082;" horiz-adv-x="411" 
d="M411 171v-148h-411v148l77 199h69v-45h-43l-51 -154h97l24 -45h64l26 45h97l-52 154h-43v45h69zM180 267v103h51v-103h76l-101 -113l-101 113h75z" />
    <glyph glyph-name="uniE083" unicode="&#xe083;" horiz-adv-x="414" 
d="M228 281h30q2 -1 4.5 -2t6.5 -5t-1 -8l-56 -68q-8 -7 -12 3l-54 66q-1 2 -2.5 4.5t1 7t13.5 3.5l27 -1q0 33 11.5 54t28.5 27t34 8t29 0l12 -3q-24 3 -40 -4.5t-22 -21t-9 -27t-2 -23.5zM386 21h-357q-12 0 -20.5 8.5t-8.5 20.5v87q0 7 21.5 36t42.5 55l22 25q6 6 13 9.5
t11 3.5l5 1h2l34 -58h-52q-5 0 -8.5 -3.5t-4.5 -7.5l-2 -3l-29 -58h101q15 -1 15 -17v-27q0 -14 14 -14h44q14 1 14 14v30q2 14 15 14h100l-29 58q-3 4 -6.5 7.5l-5.5 5.5l-2 1h-49l33 58h1q8 0 15 -3.5t11 -7.5l3 -4q85 -99 85 -115v-87q0 -12 -8 -20.5t-20 -8.5z" />
    <glyph glyph-name="uniE084" unicode="&#xe084;" horiz-adv-x="413" 
d="M413 170v-155h-413v155l77 207h87l-34 -47h-27l-51 -160h97l24 -47h65l26 47h97l-51 160h-27l-34 47h86zM206 377l102 -118h-76v-107h-51v107h-76z" />
    <glyph glyph-name="uniE085" unicode="&#xe085;" horiz-adv-x="416" 
d="M274 269q-2 -6 -6 -5.5t-8 4.5l-3 3l-15 20q-4 -2 -9.5 -5t-18.5 -13.5t-20 -22.5t-6 -31.5t16 -39.5q-3 4 -8.5 10t-14.5 25t-11 36.5t10 39.5t40 39l-14 22q-6 10 -4.5 14.5t6.5 4.5l4 1h85q5 1 7 -1.5t2 -5.5l-1 -3zM388 20h-359q-12 0 -20.5 8.5t-8.5 21.5v92
q0 8 21.5 38.5t42.5 57.5l22 26q6 6 13.5 10t12.5 5l4 1l41 -1q-16 -29 4 -61h-62q-5 0 -8.5 -3.5t-4.5 -6.5l-2 -4l-28 -62h101q14 0 14 -17v-29q1 -15 15 -15h44q14 2 14 15v32q1 14 15 14h101l-30 62q-3 5 -6 8.5t-5 4.5l-2 1h-99q-13 26 13 45q2 -2 6 -5t19.5 -7
t35.5 -2l-3 30h12q8 0 15 -3.5t10 -7.5l4 -4q86 -105 86 -122v-92q0 -13 -8 -21.5t-20 -8.5z" />
    <glyph glyph-name="uniE086" unicode="&#xe086;" horiz-adv-x="401" 
d="M76 123h-51q-11 0 -18 7.5t-7 17.5v88q0 10 7 17.5t18 7.5h51v-138zM104 267l120 69v-288l-120 69v150zM401 211v-38h-50v-50h-38v50h-50v38h50v50h38v-50h50z" />
    <glyph glyph-name="uniE087" unicode="&#xe087;" 
d="M117 206q3 -3 3 -8t-3 -8l-48 -48q-6 -6 -9 -4q-4 2 -4 9v34h-47q-9 0 -9 8v17q0 9 9 9h47v34q0 7 4 9q3 2 9 -4zM163 364q9 0 9 -9v-326q0 -9 -9 -9h-17q-9 0 -9 9v326q0 9 9 9h17zM223 304q-7 0 -12 5t-5 12v26q0 7 5 12t12 5h120q8 0 13 -5t5 -12v-26q0 -7 -5 -12
t-13 -5h-120zM223 210q-8 0 -12 4q-5 5 -5 13v25q0 7 5 12t12 5h155q7 0 12 -5t5 -12v-25q0 -8 -5 -13q-4 -4 -12 -4h-155zM223 115q-7 0 -12 5t-5 12v26q0 7 5 12t12 5h138q7 0 12 -5t5 -12v-26q0 -7 -5 -12t-12 -5h-138zM395 80q7 0 12 -5t5 -11v-26q0 -8 -5 -13t-12 -5
h-172q-7 0 -12 5t-5 13v26q0 6 5 11t12 5h172z" />
    <glyph glyph-name="uniE088" unicode="&#xe088;" 
d="M17 304q-7 0 -12 5t-5 12v26q0 7 5 12t12 5h120q7 0 12 -5t5 -12v-26q0 -7 -5 -12t-12 -5h-120zM17 210q-7 0 -12 5t-5 12v25q0 8 5 13t12 5h155q7 0 12 -5t5 -13v-25q0 -7 -5 -12t-12 -5h-155zM17 115q-7 0 -12 5t-5 12v26q0 7 5 12t12 5h137q8 0 13 -5t5 -12v-26
q0 -7 -5 -12t-13 -5h-137zM189 81q7 0 12 -5t5 -12v-26q0 -7 -5 -12t-12 -5h-172q-7 0 -12 5t-5 12v26q0 7 5 12t12 5h172zM266 364q4 0 6 -2q3 -3 3 -7v-326q0 -3 -3 -6q-2 -2 -6 -2h-17q-9 0 -9 8v326q0 9 9 9h17zM403 204q3 0 6 -3t3 -6v-17q0 -4 -2 -6t-7 -2h-48v-35
q0 -7 -3 -8q-4 -2 -9 3l-48 49q-3 4 -3 8q0 3 3 8l48 48q6 6 9 4q3 -1 3 -9v-34h48z" />
    <glyph glyph-name="uniE089" unicode="&#xe089;" horiz-adv-x="413" 
d="M84 291l183 -183q-34 14 -61 48q-47 -56 -103 -56q-47 0 -74 26q-29 27 -29 70t29 69q23 21 55 26zM105 151q37 0 68 45q-31 44 -69 44q-19 0 -32 -13q-14 -14 -14 -31q0 -18 14 -32q13 -13 33 -13zM384 265q29 -27 29 -69q0 -43 -29 -70q-22 -20 -55 -25l-183 183
q34 -14 61 -48q44 56 103 56q46 0 74 -27zM341 164q14 14 14 32q0 17 -14 31q-13 13 -33 13q-37 0 -68 -44q32 -45 68 -45q20 0 33 13z" />
    <glyph glyph-name="uniE08A" unicode="&#xe08a;" horiz-adv-x="414" 
d="M240 195q31 -44 69 -44q21 0 33 12q14 14 14 32t-14 32q-13 13 -33 13q-37 0 -69 -45zM174 195q-32 45 -69 45q-20 0 -33 -13q-14 -14 -14 -32q0 -17 14 -31q13 -13 33 -13q38 0 69 44zM207 155q-46 -56 -104 -56q-45 0 -74 27t-29 70t29 69q28 27 74 27q59 0 104 -56
q44 56 104 56q45 0 74 -27t29 -70q0 -42 -29 -69t-73 -27q-62 0 -105 56z" />
    <glyph glyph-name="uniE08B" unicode="&#xe08b;" horiz-adv-x="415" 
d="M208 360q-69 0 -118.5 -49t-49.5 -118t49.5 -118t118.5 -49t118 49t49 118t-49 118t-118 49zM208 400q86 0 146.5 -60.5t60.5 -146.5t-60.5 -147t-146.5 -61t-147 61t-61 147t61 146.5t147 60.5zM204 76q-21 -8 -36 0.5t-11 28.5q2 12 10 33t16.5 41.5t9.5 22.5
q3 8 -1.5 10t-10.5 -1q-5 -3 -17 -13q-2 3 -6 11q18 20 44 27q21 6 38 -5.5t6 -40.5q-14 -37 -24 -68q-5 -16 2 -16q3 0 7 3q11 8 20 17q2 -2 3.5 -5.5t2.5 -5.5q-31 -31 -53 -39zM263 265q-10 -8 -22.5 -7.5t-20.5 8.5t-7 20t11 20t22.5 8t20.5 -8t7 -20.5t-11 -20.5z" />
    <glyph glyph-name="uniE08C" unicode="&#xe08c;" horiz-adv-x="465" 
d="M465 192v11h-465v-11v-11h465v11zM233 -41h10v466h-10h-11v-466h11z" />
    <glyph glyph-name="uniE08D" unicode="&#xe08d;" horiz-adv-x="512" 
d="M511 325q0 -1 0.5 -2.5t0.5 -2.5v0q0 -1 -0.5 -3t-0.5 -3v-1q-1 -1 -1 -2.5t-1 -2.5v0h-1l-42 -64q-6 -9 -18 -9q-6 0 -12 3q-18 13 -6 30l21 31h-67q-20 0 -35 -8.5t-22.5 -17.5t-20.5 -29q-24 -36 -45 -52q21 -15 45 -52q13 -20 20.5 -29t22.5 -17.5t35 -8.5h67l-21 31
q-12 17 6 30q17 12 30 -6l42 -64v-1l2 -4l1 -2q0 -1 0.5 -2.5t0.5 -2.5v0q0 -1 -0.5 -3t-0.5 -3l-1 -1q0 -1 -1 -2.5t-1 -2.5v0l-43 -64q-6 -9 -17 -9q-6 0 -12 3q-18 13 -6 30l20 31h-66q-30 0 -54 13t-34.5 25t-25.5 35q-12 19 -19 27.5t-21 17.5t-31 10h-7h-171
q-9 0 -15 6t-6 15t6 15t15 6h166l2 1h3h4q26 1 40.5 14t33.5 40q15 23 25.5 35t34.5 25t54 13h67l-21 31q-12 17 6 30q17 12 30 -6l43 -64v0q1 -1 1 -2q1 -2 1 -3v-2z" />
    <glyph glyph-name="uniE08E" unicode="&#xe08e;" 
d="M137 172l-53 -53q-23 15 -44 34.5t-30 30.5l-10 12q4 5 10.5 13t28.5 28t45 35.5t56.5 28t65.5 12.5q24 0 59 -14l-35 -34q-11 4 -24 4q-30 0 -51.5 -21.5t-21.5 -51.5q0 -13 4 -24zM321 269q23 -15 45.5 -33t33.5 -29l12 -11q-5 -5 -13.5 -13t-33.5 -28t-49 -35.5
t-54.5 -28.5t-55.5 -13q-30 0 -64 12l37 37q13 -5 27 -5q30 0 52 22t22 52q0 10 -6 26zM352 365l22 -22l-316 -316l-22 22z" />
    <glyph glyph-name="uniE08F" unicode="&#xe08f;" horiz-adv-x="283" 
d="M0 -10l5 22q4 2 8 3q2 1 6.5 1.5t6.5 0.5q14 4 19 6q2 1 6.5 2.5t6.5 2.5q8 11 11 28l8 36l15 72l3 17q3 13 12 48q1 5 2.5 9t2.5 6v2l8 42l4 17l6 36l3 13v11q-11 5 -40 7q-2 0 -3.5 0.5t-2.5 0.5h-5l5 28l88 -4h13h7h24q7 0 35 2q14 2 19 2h10q0 -1 -0.5 -2.5
t-0.5 -2.5t-0.5 -2.5t-0.5 -2.5q-1 -1 -1 -3t-1 -3t-1.5 -4t-0.5 -4q-2 0 -29 -8q-17 -4 -28 -9q-6 -18 -7 -23q-1 -2 -1 -6t-1 -6q-2 -8 -2 -10q-2 -9 -5 -24.5t-5 -22.5q-1 -7 -4 -18.5t-4 -16.5l-17 -84l-10 -42l-12 -63l-4 -12v-3v-1q1 -2 1 -3q3 -1 9 -2.5t8 -1.5
q2 -1 7.5 -1t8.5 -1l2 -1h4t12 -2q0 -1 -0.5 -3.5t-0.5 -4.5t-0.5 -4t-0.5 -3v-2q-1 -2 -1 -3q0 -4 -1 -6h-4h-3q-2 0 -4.5 -0.5t-3.5 -0.5h-3h-4q-2 0 -4 1q-5 0 -12 1q-11 2 -28 3l-55 1q-17 0 -48 -3q-14 -2 -17 -2h-10z" />
    <glyph glyph-name="uniE090" unicode="&#xe090;" horiz-adv-x="413" 
d="M150 112q91 122 116 154q16 17 28.5 15t20.5 -15q19 -32 93 -150q13 -19 -3 -31q-17 -12 -32 8l-4 6l-51 90h-63q-1 -3 -65 -90q-20 -27 -37 -14q-13 12 -3 27zM205 131l5 15h146l5 -15h-156zM307 312q7 0 10 -5t0 -10t-10 -5h-19q-19 0 -45 -32t-50 -70t-61.5 -70
t-77.5 -32h-39q-15 0 -15 9.5t15 9.5h39q31 0 59.5 21t49.5 51t40.5 60.5t41.5 51.5t43 21h19zM105 278q0 7 4.5 9.5t9.5 -0.5t5 -10v-28q0 -10 20 -10q6 0 14 -2q8 -3 10 -8t2 -16t-4 -15t-13.5 -15t-11.5 -13q-8 -8 -45 5q-23 8 -23 3v-3q0 -3 4 -14t6 -20.5t0 -13.5
t-11 -6t-13 1q-5 4 -7.5 19t-2.5 28v13q0 24 16 24q5 0 31 -8l4 -2q4 -1 6.5 -1.5t5.5 1t5 4.5q1 2 5 14l-3 7q0 1 -7 9t-7 14v34zM133 269q0 10 6.5 16.5t16.5 6.5t17 -6.5t7 -16.5t-7 -16.5t-17 -6.5t-16.5 6.5t-6.5 16.5z" />
    <glyph glyph-name="uniE091" unicode="&#xe091;" horiz-adv-x="383" 
d="M252 91l-59 -59q-33 -33 -80 -33t-80 33t-33 80t33 80l59 59l39 -39l-59 -59q-17 -17 -17 -41.5t17 -41.5t41.5 -17t41.5 17l59 59zM291 129l-39 39l59 59q17 17 17 41.5t-17 41.5t-41.5 17t-41.5 -17l-59 -59l-38 38l59 59q33 33 80 33t80 -33t33 -80t-33 -80z" />
    <glyph glyph-name="uniE092" unicode="&#xe092;" horiz-adv-x="238" 
d="M70 192h-40v50q0 37 26 63t63 26t63 -26t26 -63v-50h-40v50q0 20 -14.5 34.5t-34.5 14.5t-34.5 -14.5t-14.5 -34.5v-50zM238 168v-168h-238v168h238zM141 97q0 9 -6.5 15.5t-15.5 6.5t-15.5 -6.5t-6.5 -15.5t7 -16q6 -5 6 -12v-19h18v19q0 7 6 12q7 7 7 16z" />
    <glyph glyph-name="uniE093" unicode="&#xe093;" horiz-adv-x="437" 
d="M159 371h278v-358h-278v99h60v-39h159v238h-159v-39h-60v99zM278 232v-80h-159v-59l-119 100l119 98v-59h159z" />
    <glyph glyph-name="uniE094" unicode="&#xe094;" horiz-adv-x="332" 
d="M332 42l-43 -44l-90 89q-30 -18 -67 -18q-55 0 -93.5 38.5t-38.5 93.5t38.5 93.5t93.5 38.5t93.5 -38.5t38.5 -93.5q0 -40 -20 -71zM36 201q0 -40 28 -68t68 -28t68 28t28 68t-28 67.5t-68 27.5t-68 -27.5t-28 -67.5z" />
    <glyph glyph-name="uniE095" unicode="&#xe095;" horiz-adv-x="378" 
d="M366 76q12 -12 12 -30q0 -19 -12 -31t-31 -12q-18 0 -30 12l-92 93q-32 -17 -68 -17q-61 0 -103 42q-43 43 -43 103t43 103q42 42 103 42t103 -42q34 -34 41 -81.5t-16 -89.5zM230 236q0 35 -25 60t-60 25t-60 -25t-25 -60t25 -60t60 -25t60 25t25 60z" />
    <glyph glyph-name="uniE096" unicode="&#xe096;" 
d="M0 231q0 56 40 96.5t96 40.5q39 0 71 -20t50 -54q34 -4 69 -30q2 -1 4.5 2.5t6.5 13t7.5 18.5t8.5 23q1 -1 16 -16.5t29.5 -30t13.5 -14.5q-5 -2 -21.5 -8t-28 -10.5t-10.5 -5.5q24 -35 24 -77q0 -56 -40.5 -96t-96.5 -40q-39 0 -71.5 20t-49.5 53q-50 7 -84 45t-34 90z
M158 97q31 -43 84 -43q43 0 73 30t30 73q0 35 -21 62.5t-53 36.5q2 -16 2 -25q0 -51 -33 -88.5t-82 -45.5zM36 229q0 -33 19.5 -60t50.5 -38q-3 14 -3 28q0 51 33 89t82 46q-31 38 -79 38q-43 0 -73 -30t-30 -73zM237 260q-41 -1 -69.5 -31.5t-28.5 -71.5q0 -14 5 -31
q41 1 69.5 31.5t28.5 71.5q0 14 -5 31z" />
    <glyph glyph-name="uniE097" unicode="&#xe097;" horiz-adv-x="304" 
d="M304 54l-55 -55l-97 97l-97 -97l-55 55l113 113v104h-47l86 117l85 -117h-46v-104z" />
    <glyph glyph-name="uniE098" unicode="&#xe098;" horiz-adv-x="413" 
d="M317 221q11 0 19 8t8 19t-8 18.5t-19 7.5t-19.5 -7.5t-8.5 -18.5t8.5 -19t19.5 -8zM207 221q11 0 19 8t8 19t-8 18.5t-19 7.5t-19.5 -7.5t-8.5 -18.5t8.5 -19t19.5 -8zM96 221q11 0 19.5 8t8.5 19t-8.5 18.5t-19.5 7.5t-19 -7.5t-8 -18.5q0 -5 2 -11q7 -16 25 -16z
M276 393q57 0 97 -38t40 -93v-34q0 -54 -40 -92.5t-97 -38.5h-32l-102 -97v97h-4q-57 0 -97.5 38.5t-40.5 92.5v34q0 55 40.5 93t97.5 38h138z" />
    <glyph glyph-name="uniE099" unicode="&#xe099;" horiz-adv-x="262" 
d="M131 352q-11 0 -19 -8t-8 -19v-85h54v85q0 11 -8 19t-19 8zM131 390q27 0 46 -19t19 -46v-118q0 -27 -19 -46t-46 -19t-46 19t-19 46v118q0 27 19 46t46 19zM224 240h38v-33q0 -54 -38.5 -92.5t-92.5 -38.5t-92.5 38.5t-38.5 92.5v33h38v-33q0 -38 27.5 -65.5t65.5 -27.5
t65.5 27.5t27.5 65.5v33zM131 57l79 -58h-163z" />
    <glyph glyph-name="uniE09A" unicode="&#xe09a;" horiz-adv-x="263" 
d="M196 206q0 -27 -19 -46t-46 -19t-45.5 19t-18.5 46v119q0 27 18.5 46t45.5 19t46 -19t19 -46v-119zM225 239h38v-33q0 -54 -39 -92.5t-93 -38.5t-92.5 38.5t-38.5 92.5v33h38v-33q0 -38 27.5 -65.5t65.5 -27.5t66 27.5t28 65.5v33zM131 56l80 -58h-164z" />
    <glyph glyph-name="uniE09B" unicode="&#xe09b;" horiz-adv-x="373" 
d="M373 234v-84h-373v84h373z" />
    <glyph glyph-name="uniE09C" unicode="&#xe09c;" horiz-adv-x="407" 
d="M243 330l12 38q2 7 -5 9t-9 -5l-14 -42h-46l-14 42q-2 7 -10 5q-6 -1 -4 -9l12 -38h-29l-69 69h274l-70 -69h-28zM276 134q-15 34 -67 33q-36 -1 -41 9q-6 15 16 24q19 8 42 5l-5 31q-18 3 -43 -5l-10 23q-12 -4 -26 -11l11 -24q-18 -13 -24 -32t2 -35q13 -30 67 -25
q32 3 38 -11q8 -16 -18 -26q-22 -9 -47 -9l6 -34q20 -2 48 10l11 -24q14 7 26 11l-12 26q44 27 26 64zM340 -8h-273q-28 0 -47.5 18.5t-19.5 44.5v95v3q1 50 39.5 90.5t97.5 56.5h133q59 -16 97.5 -56.5t39.5 -90.5v-3v-95q0 -26 -19.5 -44.5t-47.5 -18.5z" />
    <glyph glyph-name="uniE09D" unicode="&#xe09d;" horiz-adv-x="411" 
d="M61 22v33q-34 1 -61 15l11 41q28 -15 60 -15q35 0 35 21q0 18 -39 31q-65 22 -65 64q0 24 16 40.5t45 21.5v34h35v-31q30 -1 53 -12l-11 -39q-27 12 -52 12q-31 0 -31 -20q0 -14 44 -30q60 -21 60 -66q0 -24 -16.5 -41.5t-47.5 -22.5v-36h-36zM118 42q33 11 50 35v-55
h-50v20zM333 255l78 -72h-79v-161h-88v114h-64q-7 48 -72 71q-14 5 -26 11h6q23 0 43 -10l23 -11l6 24l11 39l5 16l-16 7q-20 9 -38 12l84 76l63 -58v58h64v-116z" />
    <glyph glyph-name="uniE09E" unicode="&#xe09e;" horiz-adv-x="394" 
d="M76 123h-51q-11 0 -18 7.5t-7 17.5v88q0 10 7 17.5t18 7.5h51v-138zM104 267l120 69v-288l-120 69v150zM394 157l-27 -27l-35 35l-35 -35l-27 27l35 35l-35 35l27 27l35 -35l35 35l27 -27l-35 -35z" />
    <glyph glyph-name="uniE09F" unicode="&#xe09f;" horiz-adv-x="411" 
d="M409 75l-133 128l133 115q2 -4 2 -7v-228q0 -2 -2 -8zM205 176l-35 28l-18 15l-134 115q2 1 7 1h361q5 0 7 -1l-134 -115l-18 -15zM386 58h-361q-5 0 -7 1l135 130l52 -43l53 43l135 -130q-2 -1 -7 -1zM1 318l134 -115l-134 -128q-1 3 -1 8v228q0 5 1 7z" />
    <glyph glyph-name="uniE0A0" unicode="&#xe0a0;" horiz-adv-x="312" 
d="M269 162q4 13 4 30q0 49 -34.5 83t-82.5 34q-49 0 -83 -34t-34 -83q0 -19 4 -32q1 -2 2 -5t2 -4q5 2 17 2q24 0 41 -17t17 -41q0 -9 -1 -14l4 -2q13 -4 31 -4q16 0 33 5q3 0 4 1q-2 10 -2 15q0 24 17.5 41t41.5 17q11 0 16 -2q0 1 1 5t2 5zM156 348q64 0 110 -46t46 -110
q0 -39 -17 -71q-21 -43 -65 -66q-35 -19 -74 -19q-36 0 -72 18q-43 22 -66 64q-18 33 -18 74q0 64 46 110t110 46zM171 211q10 -7 10 -19q0 -3 -2 -9q-7 -15 -22 -15q-3 0 -9 2q-14 6 -14 22v3l-21 92l8 3zM149 262v35h14v-35h-14zM221 269l10 -10l-25 -25l-10 10zM220 198
v15h36v-15h-36zM57 198v15h35v-15h-35zM76 259l11 10l25 -25l-10 -10z" />
    <glyph glyph-name="uniE0A1" unicode="&#xe0a1;" horiz-adv-x="363" 
d="M182 366q36 0 70 -14q29 -12 58 -39q26 -26 39 -58q14 -34 14 -70q0 -37 -14 -71q-13 -32 -39 -58q-29 -27 -58 -39q-31 -14 -70 -14q-40 0 -71 14q-32 13 -58 39t-39 58q-14 31 -14 71q0 39 14 70q13 32 39 58t58 39q34 14 71 14zM182 58q28 0 49 10q27 12 40 27
q16 15 28 40q10 21 10 50q0 28 -10 49q-12 25 -28 40q-15 16 -40 28q-21 10 -49 10q-29 0 -50 -10q-25 -12 -40 -28q-16 -16 -27 -40q-10 -21 -10 -49q0 -29 10 -50q11 -24 27 -40q13 -15 40 -27q21 -10 50 -10zM247 242q2 2 6 2t6 -2l26 -26q3 -3 3 -6q0 -6 -3 -7l-93 -93
q-2 -2 -7 -4q-6 -2 -9 -2h-26q-2 0 -8 2q-4 2 -7 4l-57 57q-3 1 -3 6q0 3 3 6l26 27q2 2 6 2t6 -2l41 -41q7 -7 13 0z" />
    <glyph glyph-name="uniE0A2" unicode="&#xe0a2;" horiz-adv-x="363" 
d="M182 364q39 0 70 -14q29 -12 58 -39q27 -27 39 -57q14 -34 14 -71t-14 -71q-13 -32 -39 -58q-27 -25 -58 -38q-37 -15 -70 -15q-34 0 -71 15q-34 14 -58 38q-26 26 -39 58q-14 31 -14 71t14 71q12 30 39 57q26 26 58 39q31 14 71 14zM305 216q3 3 3 8t-3 8l-24 24
q-3 3 -8 3q-4 0 -7 -3l-103 -103q-3 -3 -8 -3t-8 3l-50 50q-4 4 -7 4t-9 -4l-23 -24q-3 -3 -3 -7q0 -5 3 -8l72 -73q1 -1 9 -5q6 -3 10 -3h13q3 0 9 3q8 4 9 5z" />
    <glyph glyph-name="uniE0A3" unicode="&#xe0a3;" horiz-adv-x="367" 
d="M137 57q-5 0 -15 4t-13 7l-104 106q-5 5 -5 11t5 11l34 35q4 4 11 4t11 -4l73 -73q4 -4 11 -4t11 4l149 148q5 5 11 5q7 0 12 -5l34 -34q5 -5 5 -11t-5 -11l-181 -182q-4 -4 -12 -7q-10 -4 -15 -4h-17z" />
    <glyph glyph-name="uniE0A4" unicode="&#xe0a4;" horiz-adv-x="414" 
d="M117 288v70h297v-70h-297zM117 160v71h297v-71h-297zM117 33v69h297v-69h-297zM56 172h16v-28h-71q0 1 -1 2v2v5q0 12 8 22t16 15q5 3 17 13q8 6 8 14q0 6 -4 10q-6 4 -12 4q-5 0 -11 -4l-8 -8l-13 9q7 10 14 15t20 5t24 -8q10 -7 10 -22q0 -12 -8 -20q-10 -10 -16 -14
q-2 -1 -8 -5l-9 -6q-7 -6 -7 -14h35v13zM45 69q12 -2 18 -8q8 -8 8 -21q0 -12 -9 -23q-9 -10 -27 -10q-7 0 -15 2q-4 1 -10 5q-6 3 -9 6l9 14l3 -3q1 -1 4 -3q4 -2 7 -3q6 -2 9 -2q9 0 14 5t5 11q0 7 -6 12q-7 5 -14 5h-6l-4 9l22 26l2 2q1 0 2 1l1 2h-3h-1q-1 -1 -2 -1h-23
v-12h-16v28h65v-13zM27 362q-4 -6 -5 -7t-2 -2.5t-2.5 -2.5t-2.5 -2l-12 12l26 25h17v-89h23v-15h-64v15h23v64v2h-1z" />
    <glyph glyph-name="uniE0A5" unicode="&#xe0a5;" horiz-adv-x="372" 
d="M372 226l-175 -202q-31 -35 -77.5 -38t-81.5 28t-38 77t28 81l171 197q22 26 57 29t61 -20q26 -22 28.5 -57t-20.5 -61l-130 -150q-15 -17 -37.5 -18.5t-39.5 13.5t-18.5 37t13.5 39l101 116l29 -25l-101 -117q-10 -9 2 -21q10 -9 21 2l131 150q12 14 10.5 32t-15.5 30
t-32 11t-30 -15l-172 -198q-20 -22 -17.5 -53t24.5 -50q22 -20 53 -17.5t50 24.5l175 201z" />
    <glyph glyph-name="uniE0A6" unicode="&#xe0a6;" horiz-adv-x="365" 
d="M295 73h-92v28h92v-28zM295 124h-92v28h92v-28zM307 261l58 -57v-198h-234v255h176zM328 43v139h-49v42h-111v-181h160zM98 75v-38h-98v320h53q12 0 22 10l20 20h116l21 -20q10 -10 22 -10h53v-66h-38v30h-53l-23 -24h-77l-23 24h-56v-246h61z" />
    <glyph glyph-name="uniE0A7" unicode="&#xe0a7;" horiz-adv-x="310" 
d="M3 -5v403h73v-403h-73zM79 401v-7v-396v-7h-6h-66h-7v7v396v7h7h66h6zM73 394h-66v-396h66v396zM234 -5v403h73v-403h-73zM310 401v-7v-396v-7h-6h-66h-7v7v396v7h7h66h6zM304 394h-66v-396h66v396z" />
    <glyph glyph-name="uniE0A8" unicode="&#xe0a8;" horiz-adv-x="433" 
d="M351 341l82 -79l-219 -219h-79v82zM0 43v27h108v-27h-108z" />
    <glyph glyph-name="uniE0A9" unicode="&#xe0a9;" horiz-adv-x="290" 
d="M17 116l146 146l69 -68l-146 -146l-86 -16zM178 212l-15 15l-128 -128l15 -15zM290 252l-37 -37l-69 68l37 37z" />
    <glyph glyph-name="uniE0AA" unicode="&#xe0aa;" horiz-adv-x="316" 
d="M236 281q5 -27 -2 -67t-7 -50q0 -8 -4 -13t-9 -6l-4 -1q-6 -107 -14 -139q-4 -14 -39 -14t-39 14t-7.5 49t-4.5 62l-2 28q-18 3 -18 20q0 6 -6.5 47.5t-1.5 69.5l1 2v0q7 10 20 16q2 1 10 5.5t16.5 8t17.5 5.5q-6 7 -13 25q-2 6 -2 19v19q6 20 30 20t29 -20q1 -5 1 -19
q0 -13 -2 -19q-6 -16 -14 -25q9 -2 17.5 -5.5t16.5 -8t10 -5.5q15 -6 20 -17v-1zM89 138q5 -74 7 -92q-6 -11 -32.5 -10t-29.5 12l-12 112q-14 2 -14 16q0 5 -5 38.5t-1 55.5v1v1v0q2 6 17 13q2 1 8 4.5t13 6.5t14 4q-7 9 -11 20q-1 2 -1 15v15q5 17 24 17t24 -16v-16
q0 -10 -2 -15q-6 -16 -10 -20q-10 -7 -13 -13v-1l-1 -1v-1l-1 -2q-5 -32 4 -84q4 -26 4 -34q0 -19 18 -26zM314 270q3 -22 -1.5 -54t-4.5 -40q0 -6 -4 -10t-8 -5l-3 -1q-4 -87 -10 -112q-3 -11 -30.5 -12t-32.5 10q2 18 7 92q18 7 17 26q0 3 5 38q9 51 4 80l-1 2
q-2 10 -13 17q-5 7 -10 19q-2 5 -2 15v15q5 17 24 17t24 -16v-16q0 -13 -1 -15q-5 -14 -11 -20q8 -1 15 -4t12.5 -6.5t8.5 -4.5q15 -7 15 -14v-1z" />
    <glyph glyph-name="uniE0AB" unicode="&#xe0ab;" horiz-adv-x="413" 
d="M96 99v-30l-96 -1v22q0 13 27 25q3 1 14 7.5t22.5 11.5t23.5 7q-9 10 -19 34q-2 5 -2 26v26q8 28 41 28q32 0 40 -28q1 -4 1 -26q0 -18 -3 -26q-9 -23 -15 -30q-34 -21 -34 -46zM376 133q16 -7 25.5 -15.5t10.5 -13.5l1 -5v-30l-294 -1v31q0 2 1 5.5t10.5 12.5t25.5 16
q5 2 19 10.5t30 15t33 9.5q-11 12 -25 47q-4 10 -4 35q0 33 1 36q11 39 56 39t56 -39v-36q0 -27 -3 -35q-13 -33 -26 -47q17 -3 33 -9.5t31 -15t19 -10.5z" />
    <glyph glyph-name="uniE0AC" unicode="&#xe0ac;" 
d="M412 89v-21h-96v30v0q0 25 -34 46q-8 12 -15 30q-3 8 -3 26q0 21 1 25q8 29 40 29q33 0 41 -28v-26q0 -18 -3 -26q-11 -26 -18 -34q12 -2 23.5 -7t22.5 -11.5t14 -7.5q12 -5 18.5 -11.5t7.5 -10.5zM256 132q16 -7 25.5 -15.5t10.5 -13.5l1 -5v-30h-293v30q1 18 37 34
q5 2 19 10.5t30 15t33 9.5q-11 12 -25 47q-4 9 -4 35q0 33 1 36q11 39 55 39q45 0 56 -39v-36q0 -27 -3 -35q-14 -35 -25 -47q17 -3 33 -9.5t30 -15t19 -10.5z" />
    <glyph glyph-name="uniE0AD" unicode="&#xe0ad;" 
d="M412 114v-17h-75v24v0q0 20 -26 36q-5 8 -12 23q-2 4 -2 20q0 15 1 20q6 22 31 22q26 0 32 -22v-20q0 -16 -2 -20q-7 -20 -14 -27q10 -2 19 -5.5t16.5 -8t10.5 -5.5q9 -4 14.5 -9t6.5 -8v-3zM75 121v0v-24h-75v17q0 11 21 20q3 1 10.5 5.5t16.5 8t19 5.5q-7 7 -14 27
q-2 4 -2 20v20q6 22 32 22q25 0 31 -22v-20q0 -16 -2 -20q-9 -20 -11 -23q-26 -16 -26 -36zM291 147q12 -6 19.5 -12.5t8.5 -10.5l1 -3v-24h-228v24q1 13 29 26q4 2 15 8t23 11t25 8q-7 7 -19 37q-3 7 -3 27v28q9 30 44 30q34 0 43 -30v-28q0 -18 -3 -27q-12 -30 -19 -37
q13 -2 25.5 -7.5t23.5 -11.5t15 -8z" />
    <glyph glyph-name="uniE0AE" unicode="&#xe0ae;" horiz-adv-x="414" 
d="M409 106l5 -25h-270q4 21 5 25q3 18 44.5 31t50.5 24q5 5 2 26q-4 -6 -16.5 -8.5t-20.5 2.5q-9 7 -8 16q0 5 5 8h11q-9 -4 -10 -9q-1 -3 2 -4.5t6 -0.5q10 4 11 12q1 4 -5.5 31.5t1.5 49.5q5 15 19 22.5t26 7.5h12h13t23.5 -7.5t20.5 -22.5q8 -22 1.5 -49.5t-5.5 -31.5
q3 -10 9 -12q8 -2 8 4q0 2 -2 4t-5 3l-2 1q12 2 15 -3q2 -6 1 -9q-1 -7 -13 -10q-25 -6 -32 7q-2 4 -2 8l-3 -9q-3 -21 2 -26q9 -11 53.5 -24t47.5 -31zM182 149q-43 -14 -49 -40q-4 -16 -4 -26v-1h-129q3 21 4 25q3 18 45 31t51 24q5 5 2 26q-2 8 -8 17.5t-10 35.5
q-5 30 7 50t41 20t40.5 -20t6.5 -50q-4 -26 -9.5 -35.5t-7.5 -17.5q-3 -22 1 -26q7 -8 19 -13z" />
    <glyph glyph-name="uniE0AF" unicode="&#xe0af;" horiz-adv-x="415" 
d="M363 106q23 -10 36 -22t15 -19l1 -7v-42h-415v42q0 3 1.5 7.5t14.5 17.5t36 23q6 3 26.5 14.5t42.5 21t47 13.5q-15 16 -35 67q-6 16 -6 49q0 47 1 51q15 55 79 55t79 -55q1 -3 1 -51q0 -36 -5 -49q-19 -47 -36 -66q24 -4 46.5 -13.5t43.5 -21.5t27 -15z" />
    <glyph glyph-name="uniE0B0" unicode="&#xe0b0;" horiz-adv-x="325" 
d="M184 86q15 -15 4 -42q-2 -5 -6 -9t-7.5 -6t-3.5 -3q-1 -2 -1 -9q0 -10 5 -20q1 -2 -0.5 -4.5t-3.5 -2.5q-4 -1 -10 5q-1 1 -2 4.5t-2 8t-1 5.5q-4 7 -5 7q-25 4 -35 14q-15 13 -15 27q0 11 4.5 20.5t10.5 15.5t6 7q4 10 -19 53q-3 5 -10.5 11.5t-14.5 10.5l-6 4l25 218
l31 -257q3 -14 5 -19q5 -14 11 -17q1 -1 7.5 -2t15 -6t17.5 -14zM96 187q8 0 8 6t-8 6t-8 -6t8 -6zM153 32q13 1 20.5 11.5t5.5 23.5t-13.5 21t-24.5 7t-20.5 -11.5t-5.5 -23.5t13.5 -21t24.5 -7zM90 81q3 -9 3 -21q0 -6 -3 -13q-5 -8 -11 -13q-20 -13 -36 -14q-12 -1 -23 5
t-15 14q-13 27 5 47q8 10 17 14.5t15.5 5.5t7.5 2q7 4 12 17l5 19l2 26q18 -14 20 -17q-20 -34 -16 -49q0 -2 7 -9t10 -14zM78 54q6 12 1 23.5t-18 15.5t-26 -2.5t-19 -18.5t-1 -23.5t18 -15.5t26 2.5t19 18.5zM323 355q2 -23 2.5 -151.5t-6.5 -162.5q-7 -14 -33 -12l-67 14
v9h84v10h-84v9h84v9h-84v10h84v9h-84v9h84v10h-84v9h84v9h-84v9h84v10h-84v9h84v9h-84v10h84v9h-84v9h84v10h-84v9h84v9h-84v10h84v9h-84v9h84v9h-84v10h84v9h-84v9h84v10h-84v9h84v9h-84v10h84v9h-84v9h84v10h-84v9q3 0 8 1t19.5 2.5t24.5 2.5t22.5 1.5t12.5 -0.5
q16 -5 17 -21z" />
    <glyph glyph-name="uniE0B1" unicode="&#xe0b1;" horiz-adv-x="415" 
d="M409 250q5 -2 5 -24q-80 7 -98 -12q-4 -4 -5.5 -15.5t-0.5 -20.5v-10v-33v-73q0 -17 -17 -17q-18 0 -18 17q0 64 -11 79q-19 25 -77 27.5t-84 -17.5q-8 -6 -14 -28t-7 -41l-2 -20q0 -7 -5 -12t-12 -5t-12.5 5t-5.5 12v96v55l-19 -30q-5 -7 -12 -7q-4 0 -7 3q-12 7 -5 20
l34 52q3 5 9 7q80 31 204 0q16 8 33.5 31t27.5 41l10 19l11 -35q47 -48 78 -64z" />
    <glyph glyph-name="uniE0B2" unicode="&#xe0b2;" horiz-adv-x="512" 
d="M430 291l-96 96q-5 5 -2 12q3 6 9 6h96q11 0 11 -10v-96q0 -11 -11 -11q-4 0 -7 3zM64 179l192 192l192 -192v-243h-149v149h-86v-149h-149v243zM509 178q7 -8 0 -15t-15 0l-238 238l-238 -238q-8 -7 -15 0q-7 8 0 15l245 246q8 8 16 0z" />
    <glyph glyph-name="uniE0B3" unicode="&#xe0b3;" horiz-adv-x="298" 
d="M165 241v29h81v-29h-81zM165 120v23h81v-23h-81zM153 192q0 -32 -22.5 -54.5t-54.5 -22.5q-31 0 -53.5 22.5t-22.5 54.5t22 54t54 22t54.5 -22.5t22.5 -53.5zM24 192q0 -22 15 -37.5t37 -15.5t37.5 15.5t15.5 37.5t-15.5 37t-37.5 15t-37 -15t-15 -37zM298 402v-346h-185
v-69l-32 32l-37 -32v121v-2v1q24 -6 29 -6h3q20 0 37 7v-23h156v289h-121v-75h-75v-17q-9 0 -29 -5v53l75 72h179zM246 178h-67v14v14h67v-28z" />
    <glyph glyph-name="uniE0B4" unicode="&#xe0b4;" horiz-adv-x="388" 
d="M338 305h50v-191h-50v-114h-288v114h-50v191h50v83h288v-83zM300 37v122h-212v-122h212zM300 305v45h-212v-45h212zM351 257q5 0 8.5 3.5t3.5 8.5q0 11 -12 11q-11 0 -11 -11q0 -12 11 -12zM232 77h-120v21h120v-21zM277 116h-165v21h165v-21z" />
    <glyph glyph-name="uniE0B5" unicode="&#xe0b5;" horiz-adv-x="413" 
d="M382 276v63h-44v-66q0 -53 -15 -90q59 23 59 93zM249 209l-8 50l34 35l-47 7l-22 46l-21 -46l-47 -7l34 -35l-8 -50l42 24zM31 276q0 -70 59 -93q-15 37 -15 90v67h-44v-64zM338 370h75v-94q0 -54 -30.5 -88t-79.5 -42q-27 -36 -66 -48v-45q30 -8 51 -29t21 -36h-206
q0 15 21.5 35.5t51.5 29.5v45q-41 13 -66 48q-49 8 -79.5 42t-30.5 88v94h75v31h263v-31z" />
    <glyph glyph-name="uniE0B6" unicode="&#xe0b6;" horiz-adv-x="414" 
d="M365 228q-20 -14 -20 -32t20 -32l49 -32l-59 1q-25 1 -36.5 -14.5t-3.5 -37.5l20 -53l-47 35q-13 9 -26 10t-23.5 -7t-14.5 -23l-17 -55l-17 55q-4 15 -14.5 23t-23.5 7t-26 -10l-47 -35l20 53q8 22 -3 37.5t-36 14.5l-60 -1l49 32q20 14 20 32t-20 32l-49 32l60 -2
q25 -1 36 14.5t3 37.5l-20 53l47 -34q13 -9 26 -10t23.5 7t14.5 23l17 54l17 -54q4 -15 14.5 -23t23.5 -7t26 10l47 34l-20 -53q-8 -22 3.5 -37.5t36.5 -14.5l59 2zM222 109v31h-31v-31h31zM260 209q8 11 8 26q0 25 -18 37q-17 13 -46 13q-23 0 -35 -8q-22 -13 -24 -46h31
q0 9 7 16q8 8 24 8q18 0 24 -7q6 -8 6 -15q0 -8 -5 -13t-8 -7l-10 -8q-16 -11 -19 -20q-4 -12 -4 -30h31q0 12 1 15q4 9 10 14l9 7q11 8 18 18z" />
    <glyph glyph-name="uniE0B7" unicode="&#xe0b7;" 
d="M0 199q0 27 17 47t42 24v16h294v-22q25 -4 42 -23.5t17 -46.5t-17 -47t-42 -24v-16h-294v21q-25 4 -42 24t-17 47zM49 224h-10v-20h-19v-10h19v-21h10v21h20v10h-20v20zM83 265v-117h245v117h-245zM348 183v-15h15v15h-15zM299 132v-10h10v10h-10zM319 132v-10h9v10h-9z
M83 132v-10h49v10h-49zM348 219v-15h15v15h-15zM377 219v-15h15v15h-15zM377 183v-15h15v15h-15z" />
    <glyph glyph-name="uniE0B8" unicode="&#xe0b8;" horiz-adv-x="410" 
d="M205 395q85 0 145 -60t60 -145t-60 -144.5t-145 -59.5t-145 59.5t-60 144.5t60 145t145 60zM205 22q70 0 119 49t49 119t-49 119.5t-119 49.5t-119 -49.5t-49 -119.5t49 -119t119 -49zM181 105v28h33v-28h-33zM200 272q27 0 40 -12q15 -14 15 -36q0 -14 -9 -26t-21 -21
q-8 -6 -9 -11q-2 -8 -2 -14h-33q0 15 5 23q4 7 18 18q9 7 13 14q5 8 5 17q0 11 -6 17q-5 5 -16 5q-7 0 -14 -5q-6 -5 -6 -14h-32q0 23 14 34t38 11z" />
    <glyph glyph-name="uniE0B9" unicode="&#xe0b9;" horiz-adv-x="414" 
d="M207 402q86 0 146.5 -60.5t60.5 -145.5q0 -86 -61 -146.5t-146 -60.5t-146 60.5t-61 146.5q0 85 60.5 145.5t146.5 60.5zM225 77v41h-37v-41h37zM271 211q10 13 10 35q0 32 -22 51q-22 17 -55 17q-24 0 -42 -12q-28 -18 -29 -60h37q0 10 9 21q9 10 29 10t28 -9
q8 -10 8 -21q0 -8 -7 -17q-1 -1 -2.5 -3t-3 -3.5t-3.5 -2.5l-12 -10q-16 -14 -22 -27q-5 -12 -6 -41h37q0 13 2 21t12 18l10 10q17 15 22 23z" />
    <glyph glyph-name="uniE0BA" unicode="&#xe0ba;" horiz-adv-x="234" 
d="M120 6q-17 0 -29 11.5t-12 28.5t12 29t29 12t29 -12t12 -29t-12 -28.5t-29 -11.5zM152 126v-7h-67v7q0 45 27 71q4 4 17.5 16t19 18t11.5 16.5t6 20.5q0 23 -14 36t-36 13q-46 0 -51 -59h-65q2 48 28 84t89 36q57 0 87 -31.5t30 -73.5q0 -27 -13 -49.5t-28 -35t-28 -29
t-13 -33.5z" />
    <glyph glyph-name="uniE0BB" unicode="&#xe0bb;" horiz-adv-x="402" 
d="M402 119l-117 -88v59h-44h-29h-41l-61 61l-52 -39h-58v53l40 -2l29 29l-29 29l-40 -2v53h58l52 -39l61 61h41v59l117 -88l-117 -88v59h-17l-44 -44l44 -44h17h29h44v59z" />
    <glyph glyph-name="uniE0BC" unicode="&#xe0bc;" horiz-adv-x="349" 
d="M334 175h15v-15q0 -70 -51.5 -119t-123.5 -49t-123 49t-51 119t51 119.5t123 49.5h13v39v34l25 -24l80 -77l10 -10l-10 -11l-80 -76l-25 -25v35v43q-4 1 -13 1q-41 0 -70.5 -29t-29.5 -69t29.5 -68.5t70.5 -28.5t71 28.5t30 68.5v15h15h44z" />
    <glyph glyph-name="uniE0BD" unicode="&#xe0bd;" 
d="M323 306l-37 -37q-32 32 -79 32t-79.5 -32.5t-32.5 -78.5h44l-70 -70l-69 70h43q0 68 48 116t116 48t116 -48zM412 195h-43q0 -68 -48 -116t-116 -48t-116 48l37 37q32 -32 79 -32t79.5 32.5t32.5 78.5h-44l70 70z" />
    <glyph glyph-name="uniE0BE" unicode="&#xe0be;" horiz-adv-x="410" 
d="M401 176q5 -2 7 -4t2 -7q-4 -37 -23 -71q-18 -33 -45 -57q-25 -22 -63 -37q-36 -14 -73 -14q-44 0 -80 16q-39 17 -66 44t-44 66q-16 36 -16 80t16 80q17 39 44 66t66 44q36 16 80 16q37 0 70 -12q32 -12 62 -37l41 42q10 10 15 7q6 -3 6 -15v-120q0 -8 -6 -14
q-2 -2 -6 -4t-7 -2h-120q-11 0 -15 7q-3 6 6 15l42 41q-17 14 -41 22t-47 8q-33 0 -56 -11q-28 -13 -46 -31t-31 -46q-11 -23 -11 -56t11 -56q13 -28 31 -46t46 -31q23 -11 56 -11q24 0 51 10q24 9 44 26t32 39q11 21 16 50q0 2 4 6q3 3 8 3z" />
    <glyph glyph-name="uniE0BF" unicode="&#xe0bf;" 
d="M309 401l103 -103h-103v103zM367 51h-145v-15h145v15zM367 95h-145v-15h145v15zM367 139h-145v-15h145v15zM367 183h-145v-15h145v15zM191 51h-145v-15h145v15zM191 95h-145v-15h145v15zM124 305q18 0 36 -9l8 28q-20 9 -37 9v22h-25v-24q-42 -8 -42 -45q0 -31 45 -46
q27 -9 27 -22q0 -16 -24 -16q-22 0 -42 11l-8 -29q17 -9 43 -11v-24h25v26q21 4 33 16.5t12 29.5q0 33 -42 48q-31 11 -31 21q0 15 22 15zM0 -12v413h294v-118h118v-295h-412z" />
    <glyph glyph-name="uniE0C0" unicode="&#xe0c0;" horiz-adv-x="409" 
d="M358 272v24h-307v-24v-33v-178q0 -7 5 -12t12 -5h273q7 0 12 5t5 12v178v33zM341 401q29 0 48.5 -19.5t19.5 -48.5v-274q0 -29 -19.5 -48.5t-48.5 -19.5h-273q-28 0 -48 19.5t-20 48.5v274q0 29 20 48.5t48 19.5h273zM160 221v30h138v-30h-138zM160 157v30h138v-30h-138z
M160 92v30h138v-30h-138zM124 251q6 0 11 -4.5t5 -10.5t-5 -10.5t-11 -4.5t-10.5 4.5t-4.5 10.5t4.5 10.5t10.5 4.5zM124 187q6 0 11 -4.5t5 -10.5t-5 -10.5t-11 -4.5t-10.5 4.5t-4.5 10.5t4.5 10.5t10.5 4.5zM124 123q6 0 11 -5t5 -11t-5 -10.5t-11 -4.5t-10.5 4.5
t-4.5 10.5t4.5 11t10.5 5z" />
    <glyph glyph-name="uniE0C1" unicode="&#xe0c1;" 
d="M400 344q12 -12 12 -29v-288q0 -17 -12 -29t-29 -12h-330q-17 0 -29 12t-12 29v329q0 17 12 29q13 13 29 13h289q17 0 29 -12zM330 356h-289v-143h289v143zM278 233h-51v103h51v-103z" />
    <glyph glyph-name="uniE0C2" unicode="&#xe0c2;" horiz-adv-x="413" 
d="M64 213q50 0 64 9q-3 -24 -21 -40t-43 -16t-43 16t-21 40q14 -9 64 -9zM123 230q-13 -8 -59 -8t-59 8q13 8 59 8t59 -8zM348 213q51 0 65 9q-3 -24 -21.5 -40t-43.5 -16t-43 16t-21 40q14 -9 64 -9zM408 230q-13 -8 -60 -8q-46 0 -59 8q13 8 59 8q47 0 60 -8zM206 355
q10 0 18 -7.5t8 -18.5t-8 -18.5t-18 -7.5t-18 7.5t-8 18.5t8 18.5t18 7.5zM175 329q0 -7 3 -13h-127q-1 8 5 12q11 7 41.5 10.5t55.5 3.5h25q-3 -6 -3 -13zM238 329q0 7 -3 13q98 1 122 -14q3 -2 4 -5t1 -5v-2h-127q3 6 3 13zM221 300l24 -225q-8 -8 -39.5 -8.5t-38.5 8.5
l25 225q6 -3 14 -3q9 0 15 3zM196 370q0 11 10 11q11 0 11 -11q0 -10 -11 -10q-10 0 -10 10zM116 240q-1 0 -2 1l-50 62l-49 -62q-2 -2 -4 0q-3 3 -1 4l52 64q2 2 4 0l52 -64q2 -2 0 -4l-1 -1h-1zM297 240q-1 0 -1 0.5t-1 0.5q-3 3 -1 4l52 64q1 1 2.5 1t2.5 -1l51 -64
q2 -2 0 -4t-4 0l-50 62l-49 -62q-1 -1 -2 -1zM374 36v-1q0 -11 -49.5 -19.5t-118.5 -8.5t-118.5 8.5t-49.5 19.5v1l9 27q28 -24 159 -24t159 24zM253 100q108 -5 108 -25q0 -11 -45.5 -18.5t-109.5 -7.5t-109.5 7.5t-45.5 18.5q0 20 109 25l-3 -28l2 -3q9 -13 46 -13t48 12
l3 4z" />
    <glyph glyph-name="uniE0C3" unicode="&#xe0c3;" horiz-adv-x="424" 
d="M215 586q51 -51 33 -122l158 -158q19 -19 19 -44.5t-19 -44.5t-45 -19t-45 19l-157 158q-71 -19 -122 32t-33 122l63 -62l81 7l8 82l-63 62q71 19 122 -32zM383 239q9 9 9 22.5t-9 22.5t-22 9t-22 -9t-9 -22.5t9 -22.5t22 -9t22 9z" />
    <glyph glyph-name="uniE0C4" unicode="&#xe0c4;" 
d="M411 242q1 0 1 -2v-45v-45q0 -1 -1 -1h-47q-19 0 -23 -9.5t9 -22.5l34 -34q1 -1 0 -2l-2 -2q-2 -2 -5 -4.5t-6.5 -6.5t-8.5 -8.5t-10 -9.5l-32 -32q-1 -1 -2 0l-33 33q-13 13 -22.5 9.5t-9.5 -22.5v-47q0 -2 -2 -2h-45h-45q-1 0 -1 2v47q0 19 -10 22.5t-23 -9.5l-33 -33
q-1 -1 -2 0l-32 32l-31 31q-1 1 0 2l2 2l5 5l7 7t9 9.5t10 10.5q13 13 9.5 22.5t-22.5 9.5h-48q-1 0 -1 1v45v45q0 2 1 2h48q19 0 22.5 9t-9.5 23l-33 33q-1 1 0 2l2 2q2 2 4.5 5t6.5 6.5t8.5 8.5t9.5 10l32 32q1 1 2 0l33 -33q13 -13 23 -9.5t10 22.5v47q0 2 1 2h45h45
q2 0 2 -2v-47q0 -19 9.5 -22.5t22.5 9.5l33 33q1 1 2 0l32 -32l32 -32q1 -1 0 -2l-2 -2l-5 -5l-7 -7t-9.5 -9t-10.5 -10q-13 -14 -9 -23t23 -9h47zM209 128q29 0 49.5 20.5t20.5 48.5t-20.5 48.5t-49.5 20.5t-49 -20t-20 -49t20 -49t49 -20z" />
    <glyph glyph-name="uniE0C5" unicode="&#xe0c5;" horiz-adv-x="512" 
d="M256 299q106 0 181 -75t75 -181v-96q0 -11 -11 -11h-490q-11 0 -11 11v96q0 106 75 181t181 75zM307 195q-4 -10 6 -14q1 -1 4 -1q7 0 10 6l16 40q4 10 -5 14q-10 4 -14 -6zM245 245v-42q0 -11 11 -11t11 11v42q0 11 -11 11t-11 -11zM96 21q11 0 11 11t-11 11h-43
q-10 0 -10 -11t10 -11h43zM118 100q4 10 -6 14l-39 16q-10 4 -14 -6t6 -14l39 -16q1 -1 4 -1q6 0 10 7zM150 148q8 8 0 15l-30 30q-8 8 -15 1q-8 -8 0 -16l30 -30q3 -3 8 -3q4 0 7 3zM199 181q10 4 6 14l-17 39q-4 10 -14 6q-9 -4 -5 -14l16 -40q3 -6 10 -6q3 0 4 1zM299 43
q0 12 -6 21l99 99q8 7 0 15t-15 0l-99 -99q-9 6 -22 6q-18 0 -30.5 -12t-12.5 -30t12.5 -30.5t30.5 -12.5t30.5 12.5t12.5 30.5zM394 100q4 -7 10 -7q3 0 4 1l39 16q10 4 6 14t-14 6l-39 -16q-10 -4 -6 -14zM459 21q10 0 10 11t-10 11h-43q-11 0 -11 -11t11 -11h43z" />
    <glyph glyph-name="uniE0C6" unicode="&#xe0c6;" horiz-adv-x="512" 
d="M392 178q8 -8 0 -15l-99 -99q6 -9 6 -21q0 -18 -12.5 -30.5t-30.5 -12.5t-30.5 12.5t-12.5 30.5t12.5 30t30.5 12q13 0 22 -6l99 99q7 8 15 0zM256 21q9 0 15 6.5t6 15.5t-6 15t-15 6t-15 -6t-6 -15t6 -15.5t15 -6.5zM96 43q11 0 11 -11t-11 -11h-43q-10 0 -10 11t10 11
h43zM405 32q0 11 11 11h43q10 0 10 -11t-10 -11h-43q-11 0 -11 11zM394 100q-4 10 6 14l39 16q10 4 14 -6t-6 -14l-39 -16q-1 -1 -4 -1q-6 0 -10 7zM313 181q-10 4 -6 14l17 39q4 10 14 6q9 -4 5 -14l-16 -40q-3 -6 -10 -6q-3 0 -4 1zM256 192q-11 0 -11 11v42q0 11 11 11
t11 -11v-42q0 -11 -11 -11zM188 234l17 -39q4 -10 -6 -14q-1 -1 -4 -1q-7 0 -10 6l-16 40q-4 10 5 14q10 4 14 -6zM120 194l30 -31q8 -7 0 -15q-3 -3 -7 -3q-5 0 -8 3l-30 30q-8 8 0 16q7 8 15 0zM112 114q10 -4 6 -14q-4 -7 -10 -7q-3 0 -4 1l-39 16q-10 4 -6 14t14 6z
M256 299q106 0 181 -75t75 -181v-96q0 -11 -11 -11h-490q-11 0 -11 11v96q0 106 75 181t181 75zM491 -43v86q0 97 -69 165.5t-166 68.5t-166 -68.5t-69 -165.5v-86h470z" />
    <glyph glyph-name="uniE0C7" unicode="&#xe0c7;" horiz-adv-x="363" 
d="M356 447q7 -3 7 -10v-490q0 -7 -7 -10q-1 -1 -4 -1q-5 0 -8 3l-35 35l-35 -35q-8 -7 -15 0l-35 35l-35 -35q-7 -7 -15 0l-35 35l-35 -35q-8 -8 -16 0l-35 35l-35 -35q-5 -5 -11 -2q-7 3 -7 10v490q0 7 7 10q6 3 11 -2l35 -35l35 35q8 8 16 0l35 -35l35 35q8 7 15 0
l35 -35l35 35q7 7 15 0l35 -35l35 35q5 5 12 2zM139 107q10 0 10 10q0 11 -10 11h-64q-11 0 -11 -11q0 -10 11 -10h64zM181 171q11 0 11 10q0 11 -11 11h-106q-11 0 -11 -11q0 -10 11 -10h106zM64 245q0 -10 11 -10h85q11 0 11 10q0 11 -11 11h-85q-11 0 -11 -11zM203 299
q10 0 10 10q0 11 -10 11h-128q-11 0 -11 -11q0 -10 11 -10h128zM288 107q11 0 11 10q0 11 -11 11h-21q-11 0 -11 -11q0 -10 11 -10h21zM288 171q11 0 11 10q0 11 -11 11h-21q-11 0 -11 -11q0 -10 11 -10h21zM288 235q11 0 11 10q0 11 -11 11h-21q-11 0 -11 -11q0 -10 11 -10
h21zM288 299q11 0 11 10q0 11 -11 11h-21q-11 0 -11 -11q0 -10 11 -10h21z" />
    <glyph glyph-name="uniE0C8" unicode="&#xe0c8;" horiz-adv-x="326" 
d="M23 -12l-23 208h326l-23 -208h-280zM232 137l-14 -91h42l14 91h-42zM142 137v-91h41v91h-41zM94 137h-42l14 -91h42zM294 237h32v-23h-326v23h32l79 154q6 11 20 11q10 0 17 -6.5t7 -16.5q0 -5 -3 -10l-67 -132h157l-68 132q-2 6 -2 10q0 10 7 16.5t17 6.5q17 0 22 -16z
" />
    <glyph glyph-name="uniE0C9" unicode="&#xe0c9;" horiz-adv-x="413" 
d="M0 288q0 16 11 27t27 11t27 -11l141 -141l142 141q11 11 27 11t27 -11t11 -27t-11 -27l-196 -195l-195 195q-11 11 -11 27z" />
    <glyph glyph-name="uniE0CA" unicode="&#xe0ca;" horiz-adv-x="260" 
d="M222 403q16 0 27 -11t11 -27t-11 -27l-141 -142l141 -141q11 -11 11 -27t-11 -27t-27 -11t-27 11l-195 195l195 196q11 11 27 11z" />
    <glyph glyph-name="uniE0CB" unicode="&#xe0cb;" horiz-adv-x="260" 
d="M38 -10q-16 0 -27 11t-11 27t11 27l142 141l-142 142q-11 11 -11 27t11 27t27 11t27 -11l195 -196l-195 -195q-11 -11 -27 -11z" />
    <glyph glyph-name="uniE0CC" unicode="&#xe0cc;" horiz-adv-x="413" 
d="M413 104q0 -16 -11 -27t-27 -11t-27 11l-142 142l-141 -142q-11 -11 -27 -11t-27 11t-11 27t11 27l195 195l196 -195q11 -11 11 -27z" />
    <glyph glyph-name="uniE0CD" unicode="&#xe0cd;" horiz-adv-x="512" 
d="M256 448q106 0 181 -75t75 -181t-75 -181t-181 -75t-181 75t-75 181t75 181t181 75zM397 211q6 4 6 11q0 14 -14 14h-91l-29 87q-3 9 -13 9t-13 -9l-29 -87h-91q-14 0 -14 -14q0 -7 6 -11l74 -54l-29 -87v-2q-1 -1 -1 -2q0 -14 14 -14q6 0 8 2l75 54l75 -54q2 -2 8 -2
q14 0 14 14l-1 2v2l-29 87z" />
    <glyph glyph-name="uniE0CE" unicode="&#xe0ce;" horiz-adv-x="501" 
d="M487 428l-15 14l-262 -287l-182 182l-14 -14l-14 -14l197 -197l15 -14l14 15l275 302z" />
    <glyph glyph-name="uniE0CF" unicode="&#xe0cf;" horiz-adv-x="512" 
d="M286 192l220 -220q6 -6 6 -15t-6 -15t-15 -6t-15 6l-220 220l-220 -220q-6 -6 -15 -6t-15 6t-6 15t6 15l220 220l-220 220q-6 6 -6 15t6 15t15 6t15 -6l220 -220l220 220q6 6 15 6t15 -6t6 -15t-6 -15z" />
    <glyph glyph-name="uniE0D0" unicode="&#xe0d0;" horiz-adv-x="396" 
d="M396 212v-39h-396v39h396zM87 222q-8 13 -13 28q-5 17 -5 32q0 31 11 52t31 36q16 12 44 21q24 7 52 7q26 0 45 -5q34 -9 45 -13q6 -23 7 -40q2 -28 2 -40v-6q0 -1 -0.5 -3t-0.5 -3l-4 -1q-2 0 -5.5 0.5t-6.5 0.5q-9 0 -13 1l-12 30q-5 12 -16 25t-23 18q-13 6 -31 6
q-12 0 -24 -3q-11 -3 -21 -11t-15 -17t-5 -24q0 -16 7 -26q6 -9 20 -19q9 -7 27 -14q20 -8 30 -11l30 -10q11 -4 24 -11h-180zM328 163q0 -1 1.5 -4.5t2.5 -5.5q0 -2 1 -6.5t2 -6.5q1 -4 1 -12q0 -2 0.5 -6.5t0.5 -5.5q0 -34 -12 -58q-12 -23 -33 -40q-21 -16 -48 -24
q-29 -8 -58 -8q-17 0 -24 1q-4 1 -10 2t-10 2q-5 1 -20 5q-21 6 -24 7q-2 1 -10 3l-6 3l-3 2q-2 2 -3 13q-2 16 -2 24q0 5 -0.5 13.5t-0.5 12.5v17v11l29 1q10 -24 16 -35q7 -14 20 -28q10 -12 27 -18q17 -7 39 -7q16 0 28 4q11 4 26 13q11 7 19 20t8 28q0 18 -13 33
q-12 13 -31 23q-19 9 -37 15q-22 7 -35 12h159z" />
    <glyph glyph-name="uniE0D1" unicode="&#xe0d1;" horiz-adv-x="410" 
d="M205 379q-32 0 -63 -11l19 -81q22 10 44 10q21 0 43 -10l20 81q-31 11 -63 11zM20 195q0 -30 12 -64l80 20q-10 22 -10 44q0 21 10 43l-80 20q-12 -34 -12 -63zM257 121q5 -3 9 -8q12 9 21 21q-6 4 -8 8q-5 9 0 18q8 18 8 35t-8 35q-5 8 0 17q3 5 8 9q-9 12 -21 21
q-4 -5 -9 -8q-6 -2 -9 -2q-2 0 -8 2q-18 8 -35 8t-35 -8q-6 -2 -9 -2q-2 0 -8 2q-5 3 -9 8q-12 -9 -21 -21q5 -4 8 -9q5 -9 0 -18q-8 -18 -8 -34q0 -17 8 -35q5 -8 0 -18q-2 -4 -8 -8q9 -12 21 -21q4 5 9 8q6 2 8 2q3 0 9 -2q18 -8 35 -8t35 8q6 2 8 2q3 0 9 -2zM268 22
l-20 80q-22 -10 -43 -10q-22 0 -44 10l-19 -80q34 -12 63 -12t63 12zM378 131q11 31 11 64q0 32 -11 63l-81 -20q10 -22 10 -43q0 -22 -10 -44zM397 265q13 -37 13 -70q0 -34 -13 -71q-5 -13 -19 -13q-1 0 -2.5 0.5t-2.5 0.5h-3q-27 -54 -83 -82l1 -3q4 -18 -13 -25
q-35 -12 -70 -12t-70 12q-17 7 -13 25v3q-55 27 -82 82h-3q-1 0 -2.5 -0.5t-2.5 -0.5q-15 0 -20 13q-12 34 -12 71q0 36 12 70q5 14 20 14q1 0 2.5 -0.5t2.5 -0.5l3 -1q28 56 82 83v3q-3 17 13 24q37 13 70 13t70 -13q16 -7 13 -24l-1 -3q55 -28 83 -83l3 1q1 0 2.5 0.5
t2.5 0.5q14 0 19 -14z" />
    </font>
</defs>
</svg>
